<?xml version="1.0" standalone="no"?>
<!DOCTYPE svg PUBLIC "-//W3C//DTD SVG 20010904//EN"
 "http://www.w3.org/TR/2001/REC-SVG-20010904/DTD/svg10.dtd">
<svg version="1.0" xmlns="http://www.w3.org/2000/svg"
 width="794.000000pt" height="794.000000pt" viewBox="0 0 794.000000 794.000000"
 preserveAspectRatio="xMidYMid meet">
<metadata>
Created by potrace 1.11, written by Peter Selinger 2001-2013
</metadata>
<g transform="translate(0.000000,794.000000) scale(0.100000,-0.100000)"
fill="#000000" stroke="none">
<path d="M3618 7715 c-1 -2 -66 -6 -143 -9 -155 -7 -238 -12 -335 -21 -195
-18 -251 -23 -380 -40 -19 -3 -59 -7 -89 -11 -30 -3 -64 -8 -75 -10 -24 -5
-100 -15 -136 -19 -14 -2 -41 -6 -60 -10 -34 -6 -55 -10 -103 -18 -66 -11
-114 -20 -132 -23 -11 -2 -31 -6 -45 -9 -14 -3 -36 -7 -50 -10 -50 -11 -126
-26 -160 -31 -19 -3 -44 -11 -55 -17 -11 -6 -21 -9 -23 -8 -3 4 -98 -14 -104
-19 -2 -1 -12 -3 -23 -4 -11 -2 -76 -18 -145 -35 -127 -34 -149 -39 -162 -40
-5 -1 -8 -4 -8 -9 0 -4 29 -5 64 -2 82 7 363 4 481 -4 156 -11 191 -15 285
-31 14 -2 45 -6 70 -9 51 -7 98 -15 120 -21 8 -3 32 -7 54 -11 39 -6 51 -8
116 -24 19 -5 55 -14 80 -19 25 -6 83 -22 130 -36 47 -14 90 -27 95 -28 6 -2
16 -6 23 -10 6 -5 12 -6 12 -2 0 3 9 1 21 -5 11 -6 30 -13 42 -15 12 -3 31 -9
42 -14 11 -5 63 -26 115 -46 107 -41 123 -48 235 -101 44 -21 82 -38 85 -39
12 -4 65 -30 70 -35 3 -3 28 -16 55 -30 28 -14 73 -39 100 -56 28 -16 57 -33
65 -38 25 -11 50 -28 158 -101 57 -39 111 -74 120 -80 26 -17 36 -23 64 -47
16 -13 49 -39 74 -58 185 -140 412 -357 589 -565 28 -32 55 -63 60 -69 6 -6
30 -38 55 -71 25 -33 48 -62 51 -65 3 -3 30 -41 60 -85 30 -44 56 -82 59 -85
8 -7 113 -177 136 -220 11 -19 22 -37 26 -40 11 -9 188 -368 188 -382 0 -8 4
-18 9 -23 4 -6 20 -41 36 -80 15 -38 32 -81 38 -95 5 -14 11 -31 13 -38 1 -8
6 -21 10 -30 4 -9 8 -21 9 -27 2 -5 14 -41 27 -80 14 -38 25 -72 25 -75 1 -3
7 -25 14 -50 7 -25 13 -47 14 -50 0 -3 6 -26 13 -52 17 -69 32 -129 38 -158 4
-22 15 -76 28 -145 10 -54 34 -220 42 -293 24 -233 23 -621 -1 -836 -3 -28 -8
-69 -10 -91 -2 -22 -4 -40 -5 -40 -1 0 -3 -18 -6 -40 -2 -22 -9 -62 -14 -90
-5 -27 -12 -67 -16 -89 -7 -48 -20 -108 -24 -113 -3 -3 -4 -7 -13 -53 -35
-172 -124 -443 -224 -680 -72 -172 -215 -457 -281 -560 -9 -14 -15 -28 -14
-32 1 -5 -2 -8 -7 -8 -5 0 -14 -13 -21 -30 -7 -16 -16 -30 -21 -30 -5 0 -9 -7
-9 -15 0 -8 -5 -15 -11 -15 -5 0 -8 -4 -4 -9 3 -6 0 -13 -8 -18 -7 -4 -18 -20
-24 -35 -7 -16 -17 -28 -23 -28 -5 0 -10 -5 -10 -11 0 -5 -25 -45 -56 -87
l-57 -77 44 40 c184 171 548 550 700 730 19 22 42 47 51 56 10 9 18 19 18 23
0 3 8 14 18 25 33 36 68 77 107 126 22 27 50 61 63 75 12 14 22 28 22 32 0 4
8 15 18 25 24 23 212 270 212 278 0 4 7 13 15 21 8 9 45 59 82 112 37 53 71
99 75 100 4 2 8 8 8 13 0 8 75 124 90 139 3 3 10 14 17 25 20 33 104 166 150
237 24 37 43 69 43 72 0 3 15 29 33 58 19 29 47 76 62 103 16 28 39 68 51 90
42 73 74 135 73 141 0 4 3 10 8 13 21 15 251 479 353 711 62 140 125 290 135
320 2 5 14 37 39 100 21 53 41 104 42 110 0 3 5 16 11 30 6 14 23 61 38 105
15 44 31 89 36 100 15 36 44 130 41 138 -1 4 2 7 6 7 5 0 9 6 9 13 0 6 14 55
30 107 17 52 38 122 48 155 9 33 21 71 25 85 5 14 12 39 16 55 4 17 9 35 10
40 3 9 30 112 39 145 2 8 4 15 5 15 1 0 3 8 5 17 2 9 8 40 14 68 6 28 8 56 5
62 -4 6 -2 8 3 5 9 -6 32 73 39 133 1 8 9 44 18 80 10 36 20 81 22 100 3 19
10 53 15 75 6 22 13 52 15 68 2 15 8 54 14 85 6 31 13 68 15 82 6 40 25 153
30 183 6 28 11 67 20 157 3 25 7 51 10 58 4 12 16 127 19 180 1 24 1 24 -194
104 -41 16 -86 35 -100 41 -14 6 -27 11 -30 12 -3 1 -18 7 -35 14 -61 24 -170
65 -180 67 -5 1 -26 9 -46 18 -20 8 -39 12 -43 9 -3 -4 -6 -1 -6 5 0 7 -5 12
-11 12 -6 0 -63 18 -126 41 -64 22 -123 42 -132 44 -10 2 -34 10 -54 19 -20 8
-37 13 -37 10 0 -2 -16 3 -37 11 -20 8 -38 13 -41 11 -2 -3 -17 1 -33 9 -15 8
-36 16 -46 18 -10 2 -43 11 -73 20 -113 34 -335 93 -462 123 -10 2 -26 6 -35
8 -19 5 -155 35 -188 42 -102 21 -125 25 -146 29 -13 3 -34 7 -46 9 -11 3 -43
8 -70 12 -54 9 -62 11 -65 14 -2 1 -14 3 -28 5 -14 2 -43 6 -65 10 -43 8 -55
9 -130 19 -27 4 -61 10 -75 13 -14 3 -43 7 -65 9 -22 1 -40 3 -40 4 0 4 -45
10 -105 15 -36 3 -76 7 -90 9 -70 13 -310 34 -585 52 -91 6 -892 14 -897 9z"/>
<path d="M1148 7165 c-2 -1 -52 -5 -113 -9 -60 -3 -119 -8 -130 -10 -11 -2
-45 -7 -75 -11 -30 -4 -64 -9 -75 -11 -11 -3 -37 -7 -57 -10 -31 -5 -104 -22
-248 -58 -8 -2 -28 -7 -45 -11 -16 -4 -34 -10 -40 -14 -5 -3 -16 -6 -22 -7
-28 -4 -221 -79 -301 -116 -41 -20 -42 -21 -37 -62 10 -83 15 -122 21 -176 3
-30 7 -62 9 -70 3 -8 7 -35 10 -60 3 -25 10 -74 16 -110 6 -36 12 -74 14 -85
1 -11 6 -36 9 -55 15 -84 36 -197 41 -220 3 -14 7 -39 9 -57 3 -18 7 -37 10
-42 4 -5 8 -22 11 -38 6 -42 23 -119 36 -166 6 -23 13 -51 15 -62 2 -11 8 -41
14 -66 6 -26 13 -53 14 -60 2 -8 6 -21 9 -29 3 -8 8 -26 10 -40 3 -14 12 -52
21 -84 9 -33 18 -68 19 -78 2 -9 6 -21 10 -24 4 -4 7 -18 7 -31 0 -13 4 -23 9
-23 5 0 8 -8 7 -17 -2 -10 0 -27 5 -38 4 -11 20 -60 34 -110 14 -49 30 -99 35
-110 5 -11 23 -67 41 -125 18 -58 35 -109 39 -115 5 -8 11 -26 35 -105 1 -3 4
-12 8 -20 3 -8 38 -99 77 -202 39 -103 77 -200 85 -215 8 -15 15 -32 15 -36 0
-8 8 -25 66 -155 13 -29 24 -55 24 -57 0 -2 18 -41 39 -85 22 -44 40 -83 40
-85 1 -14 177 -361 186 -367 5 -4 7 -8 3 -8 -4 0 1 -15 11 -32 11 -18 34 -62
53 -98 18 -36 36 -66 41 -68 4 -2 7 -8 7 -13 0 -8 113 -208 168 -297 12 -20
25 -44 29 -52 4 -8 11 -19 15 -25 13 -15 88 -135 88 -140 0 -4 239 -364 252
-380 5 -5 43 -57 84 -115 41 -58 85 -118 97 -134 43 -58 209 -271 225 -291 9
-11 35 -42 57 -70 22 -27 47 -57 55 -66 8 -9 31 -35 50 -59 19 -23 46 -54 60
-69 14 -16 39 -44 56 -64 98 -115 184 -206 409 -431 138 -138 283 -280 323
-316 40 -36 85 -76 100 -90 47 -43 162 -142 209 -180 64 -52 129 -105 133
-110 3 -3 23 -18 45 -35 22 -16 42 -31 45 -34 3 -4 15 -15 27 -25 l23 -19 142
144 c79 79 161 167 183 194 22 28 43 52 47 55 6 5 79 96 128 159 69 90 220
316 220 330 0 5 4 11 8 13 7 3 26 32 82 133 71 126 240 486 240 513 0 4 7 20
15 36 9 16 17 37 19 45 2 9 6 23 9 31 22 56 98 303 102 330 1 8 8 35 15 60 6
25 14 56 16 70 3 14 7 33 10 42 5 18 10 39 18 89 3 19 11 61 16 94 6 33 13 71
14 85 2 14 7 50 11 80 5 30 9 69 11 85 1 17 5 66 9 110 11 134 11 145 0 145
-5 0 -44 -10 -85 -21 -41 -12 -84 -22 -95 -24 -11 -2 -63 -13 -115 -24 -52
-12 -113 -23 -135 -26 -47 -7 -80 -13 -80 -15 0 -1 -20 -3 -45 -6 -25 -2 -61
-6 -80 -8 -225 -27 -651 -27 -865 -1 -65 8 -283 43 -310 49 -5 1 -37 8 -70 15
-120 26 -352 89 -410 111 -40 16 -60 23 -71 25 -21 5 -199 77 -269 110 -39 18
-87 38 -107 45 l-37 14 5 125 c6 166 16 294 29 376 3 17 7 48 10 70 4 22 8 51
11 65 2 14 7 41 9 60 6 38 30 150 46 215 6 22 12 49 14 60 2 11 4 20 5 20 1 0
3 10 6 21 13 70 143 455 157 465 5 3 8 9 6 13 -5 17 132 306 221 466 124 220
307 478 475 670 49 56 317 323 358 357 l38 32 -32 28 c-17 15 -37 33 -43 38
-27 25 -137 106 -206 151 -41 27 -77 51 -80 54 -3 3 -18 12 -35 20 -16 8 -32
18 -35 21 -23 27 -429 224 -555 269 -33 12 -69 25 -80 30 -22 10 -104 40 -120
43 -5 1 -23 7 -40 14 -16 6 -50 16 -75 23 -25 7 -56 16 -70 21 -24 8 -99 28
-130 34 -8 2 -44 10 -80 19 -36 8 -77 17 -93 20 -15 3 -35 7 -45 10 -9 2 -37
7 -62 10 -25 3 -56 8 -70 11 -14 3 -43 8 -65 10 -22 2 -56 6 -75 9 -91 13
-502 30 -512 21z"/>
<path d="M3888 5255 c-2 -2 -21 -6 -43 -9 -216 -33 -440 -179 -556 -361 -21
-33 -44 -67 -51 -75 -7 -8 -12 -17 -11 -20 1 -3 -5 -18 -12 -35 -25 -55 -56
-168 -62 -230 -28 -272 57 -519 244 -702 57 -56 188 -151 202 -146 3 1 13 -4
21 -12 32 -27 182 -69 290 -80 14 -2 27 -4 30 -5 3 -1 9 -2 13 -1 4 1 42 3 85
5 82 4 103 8 198 36 95 29 241 105 252 132 2 4 8 8 14 8 17 0 132 122 175 186
137 202 183 466 119 689 -2 6 -7 24 -11 40 -12 44 -81 183 -115 231 -111 156
-291 277 -484 326 -68 17 -287 34 -298 23z"/>
</g>
</svg>
