<?xml version="1.0" encoding="utf-8"?>
<!-- Generator: Adobe Illustrator 20.0.0, SVG Export Plug-In . SVG Version: 6.00 Build 0)  -->
<!DOCTYPE svg PUBLIC "-//W3C//DTD SVG 1.1//EN" "http://www.w3.org/Graphics/SVG/1.1/DTD/svg11.dtd">
<svg version="1.1" id="Layer_1" xmlns="http://www.w3.org/2000/svg" xmlns:xlink="http://www.w3.org/1999/xlink" x="0px" y="0px"
	 viewBox="0 0 498.7 121.5" style="enable-background:new 0 0 498.7 121.5;" xml:space="preserve">
<style type="text/css">
	.st0{clip-path:url(#SVGID_2_);fill:#243D94;}
	.st1{clip-path:url(#SVGID_2_);fill:#D95D1E;}
	.st2{clip-path:url(#SVGID_2_);fill:#FAA21B;}
	.st3{clip-path:url(#SVGID_4_);fill:url(#SVGID_5_);}
	.st4{fill:#243D94;}
	.st5{clip-path:url(#SVGID_7_);fill:#243D94;}
	.st6{clip-path:url(#SVGID_7_);}
	.st7{fill:#939598;}
</style>
<g>
	<defs>
		<rect id="SVGID_1_" x="3.6" y="10.9" width="490.4" height="99.6"/>
	</defs>
	<clipPath id="SVGID_2_">
		<use xlink:href="#SVGID_1_"  style="overflow:visible;"/>
	</clipPath>
	<path class="st0" d="M467.5,39.1c0-3.9-3.2-7.1-7.1-7.1c-3.9,0-7.1,3.2-7.1,7.1c0,3.9,3.2,7.1,7.1,7.1
		C464.3,46.2,467.5,43,467.5,39.1"/>
	<path class="st1" d="M445.7,48.6c-8.8-4.3-15.5-12.5-17.9-22.4c1.8,8.4,4.9,16.7,9.4,24.6c4.5,7.8,10,14.5,16.3,20.2
		C448.4,64.7,445.6,56.7,445.7,48.6"/>
	<path class="st2" d="M450.2,31.9c2-3.5,4.5-6.5,7.4-8.9c-4.8-4.4-18.7-10.8-31.1-4.9c0.3,2.7,0.7,5.5,1.3,8.2
		c2.5,9.9,9.1,18,17.9,22.4C445.7,42.9,447.2,37.2,450.2,31.9"/>
	<path class="st2" d="M458.1,74.9c6.6-6.1,10.9-14.6,11.3-24.2c-2.9,0.8-6,1.3-9.1,1.3c-5.2,0-10.1-1.2-14.5-3.4
		c-0.1,8.1,2.7,16.1,7.8,22.5C455,72.4,456.5,73.7,458.1,74.9"/>
	<path class="st0" d="M475.2,48.4c0,0,0,0.1,0,0.1c0,5.2-1.2,10.2-3.2,14.6c-1.1,2.6-2.6,5-4.3,7.3c6-5.6,11.3-12.1,15.6-19.5
		c4.5-7.9,7.7-16.1,9.4-24.6C490.3,36,483.8,44,475.2,48.4"/>
	<path class="st0" d="M440.6,13.9c7.6,0,14.6,2.4,20.3,6.6c8.4-5.5,19-7.2,29-4.1c-9.2-3.5-19.2-5.4-29.7-5.4
		c-7.8,0-15.3,1.1-22.4,3C438.7,13.9,439.7,13.9,440.6,13.9"/>
</g>
<g>
	<defs>
		<path id="SVGID_3_" d="M460.9,20.5c8.6,6.3,14.3,16.4,14.3,27.9c8.6-4.4,15.1-12.4,17.5-22.1c0.6-2.7,1-5.5,1.3-8.2
			c-1.4-0.6-2.7-1.2-4.1-1.7c-3.4-1-6.8-1.5-10.2-1.5C473,14.8,466.4,16.8,460.9,20.5"/>
	</defs>
	<clipPath id="SVGID_4_">
		<use xlink:href="#SVGID_3_"  style="overflow:visible;"/>
	</clipPath>
	
		<radialGradient id="SVGID_5_" cx="-574.7131" cy="537.8253" r="1" gradientTransform="matrix(37.5955 -22.6303 -22.6303 -37.5955 34231.0273 7257.6719)" gradientUnits="userSpaceOnUse">
		<stop  offset="0" style="stop-color:#0071BB"/>
		<stop  offset="0.4792" style="stop-color:#0071BB"/>
		<stop  offset="0.8216" style="stop-color:#12C3F4"/>
		<stop  offset="1" style="stop-color:#12C3F4"/>
	</radialGradient>
	<polygon class="st3" points="446,23.8 485.2,0.2 508.9,39.5 469.7,63 	"/>
</g>
<rect x="79" y="54.5" class="st4" width="12.4" height="55.1"/>
<g>
	<defs>
		<rect id="SVGID_6_" x="3.6" y="10.9" width="490.4" height="99.6"/>
	</defs>
	<clipPath id="SVGID_7_">
		<use xlink:href="#SVGID_6_"  style="overflow:visible;"/>
	</clipPath>
	<path class="st5" d="M202.3,72.2c0-9.9-7.6-17.7-18.1-17.7h-24.8c-0.1,0-0.1,0-0.2,0h-6v6.2v4.7v44.2h12.4V89.8v-9.7V64.5h16.1
		c4.3,0,7.9,3.1,7.9,7.7c0,4.6-3.6,7.9-7.9,7.9h-9.4l16.6,29.5h14.2L190.6,88C199.1,85.4,202.3,79.2,202.3,72.2"/>
	<path class="st5" d="M236.4,53.7c-16.9,0-28.5,12.8-28.5,28.5c0,15.7,11.6,28.4,28.5,28.4c16.9,0,28.4-12.7,28.4-28.4
		C264.8,66.4,253.3,53.7,236.4,53.7 M236.4,99.5c-10,0-16.1-7.4-16.1-17.4c0-10,6-17.5,16.1-17.5c10,0,16.1,7.5,16.1,17.5
		C252.4,92.2,246.4,99.5,236.4,99.5"/>
	<path class="st5" d="M310.6,80.1c3.3-2.9,5.5-6.7,5.5-10.8c0-9.7-7.4-14.8-19.3-14.8h-18c-0.1,0-0.1,0-0.2,0h-6v6.2v4.7v33.2v4.7
		v6.2h6.1c0,0,0,0,0.1,0h21.9c10.5,0,18.9-6.9,18.9-16.6C319.6,87.4,316.1,82.9,310.6,80.1 M285,64.5h11.6c4.1,0,6.7,2.7,6.7,6.2
		c0,3.5-1.9,6.4-7.4,6.4H285V64.5z M299.9,99.6H285V86.5h14.9c4.1,0,7,2.6,7,6.5C306.8,97,303.9,99.6,299.9,99.6"/>
	<path class="st5" d="M99.6,82.1c0,16.5,12.7,28.5,30.9,28.5c4.9,0,9.5-0.8,13.2-1.9v-11c-3.3,1.1-7.8,2-11.6,2
		c-13.6,0-19.8-8-19.8-17.5c0-9.4,6.2-17.4,19.8-17.4c3.8,0,8.3,0.8,11.6,2V55.5c-3.8-1.1-8.4-1.8-13.2-1.8
		C112.1,53.7,99.6,65.6,99.6,82.1"/>
	<path class="st5" d="M411.9,54.5c-0.1,0-0.2,0-0.4,0v0h-17c-0.1,0-0.1,0-0.2,0h-6v6c0,0.1,0,0.1,0,0.2v48.9h12.4V89.8v-9.7V64.5
		H412c8.3,0.1,13.4,7.7,13.4,17.6v27.4h11.7V82.1C437.1,66.4,429.1,54.5,411.9,54.5"/>
	<path class="st5" d="M67.6,44.5L67.6,44.5C67.6,44.5,67.6,44.5,67.6,44.5c0-2.2-1.8-3.9-3.9-3.9c-1.2,0-2.2,0.5-3,1.4l0,0
		L36.6,70.2l-1,1.1L10.5,41.9l0,0c-0.7-0.8-1.8-1.4-3-1.4c-2.2,0-3.9,1.8-3.9,3.9c0,0,0,0,0,0h0v5.4c0,0.1,0,0.2,0,0.3v59.4h11.9
		V65.4l20.1,24.2l20.1-24.2v44.2h11.8V50.1c0,0,0-0.1,0-0.1V44.5z"/>
	<path class="st5" d="M351.7,53.7c-17.3,0-25.3,12.8-25.3,28.5v27.4h11.8V82.1c0-10,5.1-17.5,13.5-17.5c8.4,0,13.5,7.5,13.5,17.5
		v3.3h-22.7l5.8,9.9h16.9v14.1h11.7V82.1C376.9,66.4,368.9,53.7,351.7,53.7"/>
	<g class="st6">
		<path class="st7" d="M450.8,101.2c0,1.4-1.1,2.5-2.5,2.5c-1.4,0-2.6-1.1-2.6-2.5c0-1.4,1.1-2.5,2.6-2.5
			C449.7,98.7,450.8,99.8,450.8,101.2z M446.4,101.2c0,1.1,0.8,2,1.9,2c1.1,0,1.9-0.9,1.9-2c0-1.1-0.8-2-1.9-2
			C447.2,99.2,446.4,100.1,446.4,101.2z M447.9,102.5h-0.6V100c0.2,0,0.5-0.1,1-0.1c0.5,0,0.7,0.1,0.9,0.2c0.1,0.1,0.2,0.3,0.2,0.5
			c0,0.3-0.2,0.5-0.5,0.6v0c0.2,0.1,0.4,0.3,0.5,0.6c0.1,0.4,0.1,0.5,0.2,0.6h-0.6c-0.1-0.1-0.1-0.3-0.2-0.6c0-0.3-0.2-0.4-0.5-0.4
			h-0.3V102.5z M447.9,101.1h0.3c0.3,0,0.6-0.1,0.6-0.4c0-0.2-0.2-0.4-0.5-0.4c-0.2,0-0.3,0-0.3,0V101.1z"/>
	</g>
	<path class="st5" d="M97,29.6H94v3.5h-2.3V22.9H97c2,0,3.4,1.5,3.4,3.3C100.5,28.1,99.1,29.6,97,29.6 M96.6,24.7H94l0,3h2.7
		c0.8,0,1.5-0.7,1.5-1.5C98.1,25.4,97.4,24.7,96.6,24.7"/>
	<path class="st5" d="M112.7,33.1l-2.7-3.7h-2.1v3.7h-2.3V22.9h5.5c1.9,0,3.3,1.5,3.3,3.3c0,1.3-0.7,2.4-1.9,2.9l2.9,4H112.7z
		 M110.7,24.8h-2.8v2.9h2.8c0.8,0,1.5-0.6,1.5-1.5S111.5,24.8,110.7,24.8"/>
	<path class="st5" d="M124.8,33.3c-2.9,0-5.2-2.3-5.2-5.2c0-2.9,2.3-5.3,5.2-5.3c2.9,0,5.2,2.4,5.2,5.3
		C130,30.9,127.7,33.3,124.8,33.3 M124.8,24.8c-1.9,0-2.9,1.4-2.9,3.2c0,1.9,1,3.2,2.9,3.2c1.9,0,2.9-1.4,2.9-3.2
		C127.7,26.2,126.6,24.8,124.8,24.8"/>
	<polygon class="st5" points="139.6,24.9 139.6,33.1 137.4,33.1 137.4,24.9 134,24.9 134,22.9 143,22.9 143,24.9 	"/>
	<polygon class="st5" points="147.9,33.1 147.9,22.9 155.4,22.9 155.4,24.9 150.2,24.9 150.2,26.8 155.1,26.8 155.1,28.8 
		150.2,28.8 150.2,31.1 155.4,31.1 155.4,33.1 	"/>
	<path class="st5" d="M168.5,25.1c-0.7-0.2-1.4-0.3-2.1-0.3c-2.5,0-3.7,1.4-3.7,3.2s1.2,3.2,3.7,3.2c0.7,0,1.4-0.1,2.1-0.3l0.5,1.9
		c-0.9,0.3-1.8,0.5-2.9,0.5c-3.4,0-5.7-2.4-5.7-5.3c0-2.9,2.3-5.2,5.7-5.2c1.1,0,2.1,0.1,3,0.4L168.5,25.1z"/>
	<polygon class="st5" points="179.3,24.9 179.3,33.1 177,33.1 177,24.9 173.6,24.9 173.6,22.9 182.6,22.9 182.6,24.9 	"/>
	<rect x="187.6" y="22.9" class="st5" width="2.3" height="10.2"/>
	<path class="st5" d="M200.6,33.3c-2.9,0-5.2-2.3-5.2-5.2c0-2.9,2.3-5.3,5.2-5.3c2.9,0,5.2,2.4,5.2,5.3
		C205.8,30.9,203.5,33.3,200.6,33.3 M200.6,24.8c-1.9,0-2.9,1.4-2.9,3.2c0,1.9,1,3.2,2.9,3.2c1.9,0,2.9-1.4,2.9-3.2
		C203.5,26.2,202.4,24.8,200.6,24.8"/>
	<polygon class="st5" points="218.4,33.1 213.5,26.4 213.5,33.1 211.2,33.1 211.2,22.9 213.5,22.9 218.4,29.6 218.4,22.9 
		220.6,22.9 220.6,33.1 	"/>
	<polygon class="st5" points="238.1,24.9 238.1,33.1 235.8,33.1 235.8,24.9 232.5,24.9 232.5,22.9 241.5,22.9 241.5,24.9 	"/>
	<polygon class="st5" points="253.1,33.1 253.1,29 248.7,29 248.7,33.1 246.4,33.1 246.4,22.9 248.7,22.9 248.7,26.9 253.1,26.9 
		253.1,22.9 255.4,22.9 255.4,33.1 	"/>
	<path class="st5" d="M268,33.1l-0.8-2.1h-3.8l-0.8,2.1h-2.2l3.9-10.2h2.1l3.9,10.2H268z M265.3,25.2l-1.3,4.1h2.6L265.3,25.2z"/>
	<polygon class="st5" points="278.8,24.9 278.8,33.1 276.5,33.1 276.5,24.9 273.2,24.9 273.2,22.9 282.2,22.9 282.2,24.9 	"/>
	<polygon class="st5" points="294,33.1 294,22.9 296.3,22.9 296.3,31.1 301.2,31.1 301.2,33.1 	"/>
	<rect x="306.4" y="22.9" class="st5" width="2.3" height="10.2"/>
	<polygon class="st5" points="319.6,33.1 317.3,33.1 313.7,22.9 316,22.9 318.5,30.4 320.9,22.9 323.2,22.9 	"/>
	<polygon class="st5" points="328.1,33.1 328.1,22.9 335.6,22.9 335.6,24.9 330.4,24.9 330.4,26.8 335.3,26.8 335.3,28.8 
		330.4,28.8 330.4,31.1 335.6,31.1 335.6,33.1 	"/>
	<path class="st5" d="M345.1,33.3c-1.3,0-2.8-0.3-4.3-0.9l0.5-1.8c1.3,0.4,2.6,0.7,3.8,0.7c1.3,0,2.1-0.3,2.1-1.1
		c0-0.6-0.6-0.8-2.4-1.5c-2.3-0.9-3.4-1.4-3.4-3.2c0-1.9,1.3-2.8,4.2-2.8c1.1,0,2.7,0.2,3.7,0.5l-0.4,1.9c-0.9-0.3-2.3-0.4-3.3-0.4
		c-1.4,0-1.9,0.2-1.9,0.8c0,0.6,0.6,0.8,2.7,1.6c2.2,0.8,3.2,1.2,3.2,3.1C349.4,32.1,347.6,33.3,345.1,33.3"/>
	<path class="st5" d="M366.2,33.3c-2.9,0-5.2-2.3-5.2-5.2c0-2.9,2.3-5.3,5.2-5.3c2.9,0,5.2,2.4,5.2,5.3
		C371.4,30.9,369.1,33.3,366.2,33.3 M366.2,24.8c-1.9,0-2.9,1.4-2.9,3.2c0,1.9,1,3.2,2.9,3.2c1.9,0,2.9-1.4,2.9-3.2
		C369.1,26.2,368.1,24.8,366.2,24.8"/>
	<polygon class="st5" points="384.1,33.1 379.1,26.4 379.1,33.1 376.9,33.1 376.9,22.9 379.1,22.9 384,29.6 384,22.9 386.3,22.9 
		386.3,33.1 	"/>
</g>
</svg>
