<svg data-name="Layer 1" xmlns="http://www.w3.org/2000/svg" viewBox="0 0 94.35 89.3"><defs><style>.cls-1{fill:#231f20;}</style></defs><title>icon-shield</title><path style="fill: #38c6f0;" class="icon-shield" d="M60.17,42.59a9.95,9.95,0,1,0-9.95,9.95,9.95,9.95,0,0,0,9.95-9.95" transform="translate(-2.83 -3.35)"/><path  style="fill: #38c6f0;" class="icon-shield" d="M91.41,10.89A117.27,117.27,0,0,0,18.75,7.6q1.88-.15,3.8-.15A48.34,48.34,0,0,1,70.87,55.62c0,.05,0,.11,0,.16a48.09,48.09,0,0,1-4.5,20.37,50,50,0,0,1-6,10.18A117,117,0,0,0,82.15,59,117,117,0,0,0,95.33,24.76a116.53,116.53,0,0,0,1.85-11.51Q94.33,12,91.41,10.89" transform="translate(-2.83 -3.35)"/><path  style="fill: #38c6f0;" class="icon-shield" d="M50,60.65a45.73,45.73,0,0,1-20.28-4.73v0A47.54,47.54,0,0,1,14.56,44a51,51,0,0,0,15.37,8.46,47.4,47.4,0,0,1,6-19.85A46.91,46.91,0,0,1,46.22,20.13C39.53,13.93,20.1,5,2.83,13.25Q3.45,19,4.65,24.67h0A116.88,116.88,0,0,0,17.85,59,116.88,116.88,0,0,0,40.63,87.3h0c2.07,1.87,4.21,3.64,6.39,5.35A48.6,48.6,0,0,0,62.77,58.83,45.71,45.71,0,0,1,50,60.65" transform="translate(-2.83 -3.35)"/></svg>