<?xml version="1.0" standalone="no"?>
<!DOCTYPE svg PUBLIC "-//W3C//DTD SVG 1.1//EN" "http://www.w3.org/Graphics/SVG/1.1/DTD/svg11.dtd" >
<svg>
<metadata>
Created by FontForge 20120731 at Fri Aug 19 20:56:53 2016
 By ,,,
(c) 2015 Process Type Foundry. All Rights Reserved.
</metadata>
<defs>
<font id="Locator-UltraLight" horiz-adv-x="615" >
  <font-face 
    font-family="Locator Ultralight"
    font-weight="200"
    font-stretch="normal"
    units-per-em="1000"
    panose-1="2 0 5 0 3 0 0 2 0 4"
    ascent="750"
    descent="-250"
    x-height="487"
    cap-height="666"
    bbox="-60 -208 1131 882"
    underline-thickness="20"
    underline-position="-103"
    unicode-range="U+0020-FB02"
  />
<missing-glyph horiz-adv-x="646" 
d="M90 0v666h466v-666h-466zM507 616h-340l340 -527v527zM139 576v-527h339z" />
    <glyph glyph-name="fi" unicode="fi" horiz-adv-x="508" 
d="M306 682l-6 -26q-35 6 -64 6q-43 0 -62.5 -26.5t-19.5 -81.5v-67h119v-31h-119v-456h-33v456h-79v31h79v67q0 137 119 137q32 0 66 -9zM421 0h-33v487h33v-487zM421 568h-33v92h33v-92z" />
    <glyph glyph-name="fl" unicode="fl" horiz-adv-x="586" 
d="M306 682l-6 -26q-35 6 -64 6q-43 0 -62.5 -26.5t-19.5 -81.5v-67h119v-31h-119v-456h-33v456h-79v31h79v67q0 137 119 137q32 0 66 -9zM539 -6h-40q-112 0 -112 125v547h33v-556q0 -87 75 -87h44v-29z" />
    <glyph glyph-name=".notdef" horiz-adv-x="646" 
d="M90 0v666h466v-666h-466zM507 616h-340l340 -527v527zM139 576v-527h339z" />
    <glyph glyph-name=".null" horiz-adv-x="0" 
 />
    <glyph glyph-name="nonmarkingreturn" horiz-adv-x="333" 
 />
    <glyph glyph-name="space" unicode=" " horiz-adv-x="220" 
 />
    <glyph glyph-name="exclam" unicode="!" horiz-adv-x="252" 
d="M145 408l-10 -267h-19l-10 267v258h39v-258zM150 0h-48v94h48v-94z" />
    <glyph glyph-name="quotedbl" unicode="&#x22;" horiz-adv-x="325" 
d="M233 453h-33v213h33v-213zM125 453h-33v213h33v-213z" />
    <glyph glyph-name="numbersign" unicode="#" horiz-adv-x="645" 
d="M603 445l-5 -25h-125l-36 -154h125l-6 -25h-125l-56 -241h-28l55 241h-183l-56 -241h-29l56 241h-138l6 25h138l35 154h-138l6 25h138l51 221h29l-51 -221h183l51 221h29l-51 -221h125zM444 420h-184l-35 -154h183z" />
    <glyph glyph-name="dollar" unicode="$" horiz-adv-x="580" 
d="M528 150q0 -69 -53 -114t-152 -48v-89h-32v89q-56 2 -120 17t-104 34l8 25q125 -49 235 -49q87 0 137 36.5t50 97.5q0 55 -45.5 95.5t-163.5 91.5q-119 51 -160 94t-41 113q0 134 205 135v98h32v-98q100 -5 184 -33l-6 -24q-115 30 -200 30q-98 0 -142 -25.5t-44 -85.5
q0 -63 38 -97t147 -83q128 -57 177.5 -98.5t49.5 -111.5z" />
    <glyph glyph-name="percent" unicode="%" horiz-adv-x="816" 
d="M354 507q0 -64 -41.5 -116t-109.5 -52t-109.5 52t-41.5 116t41.5 116.5t109.5 52.5t109.5 -52.5t41.5 -116.5zM749 159q0 -64 -41.5 -115.5t-110.5 -51.5q-68 0 -109.5 51.5t-41.5 115.5t41.5 116t109.5 52t110 -52t42 -116zM718 159q0 57 -33 99t-88 42t-87.5 -42
t-32.5 -99t32.5 -99t87.5 -42t88 42t33 99zM323 507q0 58 -32.5 100t-87.5 42t-87.5 -42t-32.5 -100q0 -57 32.5 -99t87.5 -42t87.5 42t32.5 99zM590 666l-350 -666h-29l349 666h30z" />
    <glyph glyph-name="ampersand" unicode="&#x26;" horiz-adv-x="630" 
d="M580 334q-36 -138 -102 -220l85 -114h-39l-66 89q-90 -100 -209 -100q-74 0 -130.5 47.5t-56.5 127.5q0 71 38.5 126t132.5 105q-44 63 -58.5 95.5t-14.5 68.5q0 53 33 85t89 32q53 0 85 -34t32 -84q0 -103 -123 -173l185 -248q36 46 55.5 91t38.5 113zM440 113
q-126 170 -189 257l-1 1q-82 -41 -119.5 -89.5t-37.5 -115.5q0 -64 42.5 -106t119.5 -42q103 0 185 95zM369 557q0 36 -23.5 63.5t-65.5 27.5q-44 0 -67.5 -24.5t-23.5 -64.5q0 -24 12 -53t24 -47t35 -50q109 62 109 148z" />
    <glyph glyph-name="quotesingle" unicode="'" horiz-adv-x="217" 
d="M125 453h-33v213h33v-213z" />
    <glyph glyph-name="parenleft" unicode="(" horiz-adv-x="318" 
d="M271 -137l-25 -17q-75 105 -114.5 215t-39.5 243t39.5 243t114.5 215l25 -17q-146 -208 -146 -441t146 -441z" />
    <glyph glyph-name="parenright" unicode=")" horiz-adv-x="318" 
d="M226 304q0 -133 -39.5 -243t-114.5 -215l-25 17q146 208 146 441t-146 441l25 17q75 -105 114.5 -215t39.5 -243z" />
    <glyph glyph-name="asterisk" unicode="*" horiz-adv-x="418" 
d="M366 437l-19 -36l-130 85l12 -154h-40l12 154l-129 -85l-20 36l140 62l-140 62l20 36l129 -85l-12 154h40l-12 -154l130 85l19 -36l-139 -62z" />
    <glyph glyph-name="plus" unicode="+" horiz-adv-x="601" 
d="M539 222h-222v-222h-33v222h-222v33h222v222h33v-222h222v-33z" />
    <glyph glyph-name="comma" unicode="," horiz-adv-x="213" 
d="M126 0l-25 -97h-24l24 97h-22v94h47v-94z" />
    <glyph glyph-name="hyphen" unicode="-" horiz-adv-x="328" 
d="M271 260h-214v35h214v-35z" />
    <glyph glyph-name="period" unicode="." horiz-adv-x="221" 
d="M134 0h-47v94h47v-94z" />
    <glyph glyph-name="slash" unicode="/" horiz-adv-x="440" 
d="M378 676l-289 -793h-27l289 793h27z" />
    <glyph glyph-name="zero" unicode="0" horiz-adv-x="576" 
d="M519 328q0 -150 -59 -244.5t-172 -94.5t-172 94.5t-59 244.5q0 149 59.5 243.5t171.5 94.5t171.5 -94t59.5 -244zM486 328q0 137 -51 223t-147 86t-147 -86t-51 -223q0 -138 51 -224t147 -86t147 86t51 224z" />
    <glyph glyph-name="one" unicode="1" horiz-adv-x="358" 
d="M246 0h-33v626l-181 -34l-5 26l186 38h33v-656z" />
    <glyph glyph-name="two" unicode="2" horiz-adv-x="565" 
d="M493 0h-425v50q0 74 45 128.5t169 126.5q90 52 127.5 97.5t37.5 105.5q0 66 -46.5 96.5t-144.5 30.5q-72 0 -169 -27l-7 28q98 30 186 30q110 0 162 -42.5t52 -115.5q0 -64 -36 -112.5t-118 -97.5q-106 -63 -153 -103.5t-59.5 -72.5t-12.5 -91h392v-31z" />
    <glyph glyph-name="three" unicode="3" horiz-adv-x="536" 
d="M469 185q0 -82 -65.5 -139t-171.5 -57q-105 0 -177 27l7 27q74 -23 170 -23q92 0 148 46t56 117q0 67 -52.5 109.5t-141.5 42.5h-127v31h129q72 0 115 42t43 99q0 62 -43.5 95.5t-124.5 33.5q-70 0 -153 -20l-6 26q79 24 157 24q95 0 149.5 -44t54.5 -115
q0 -45 -30.5 -91.5t-80.5 -62.5q65 -16 104.5 -61.5t39.5 -106.5z" />
    <glyph glyph-name="four" unicode="4" horiz-adv-x="586" 
d="M534 194h-114v-194h-33v194h-352v29l356 433h29v-431h114v-31zM387 225v379l-311 -379h311z" />
    <glyph glyph-name="five" unicode="5" horiz-adv-x="584" 
d="M512 214q0 -92 -65 -158.5t-171 -66.5t-197 49l10 25q104 -43 187 -43q91 0 146.5 55t55.5 135q0 79 -45.5 123.5t-124.5 44.5q-52 0 -89 -11.5t-86 -42.5l-23 11l44 321h324v-31h-300l-35 -259q68 43 165 43q93 0 148.5 -56t55.5 -139z" />
    <glyph glyph-name="six" unicode="6" horiz-adv-x="565" 
d="M493 210q0 -87 -55.5 -154t-152.5 -67q-108 0 -165.5 71.5t-57.5 207.5q0 193 85.5 295.5t255.5 102.5q37 0 62 -7l-3 -28q-42 4 -69 4q-135 0 -211.5 -82.5t-86.5 -249.5q65 107 194 107q96 0 150 -57.5t54 -142.5zM460 206q0 80 -45.5 127t-125.5 47q-79 0 -134.5 -49
t-55.5 -124t48 -132t138 -57q80 0 127.5 54.5t47.5 133.5z" />
    <glyph glyph-name="seven" unicode="7" horiz-adv-x="483" 
d="M451 626l-295 -626h-34l296 625h-368v31h401v-30z" />
    <glyph glyph-name="eight" unicode="8" horiz-adv-x="568" 
d="M511 181q0 -79 -60.5 -135.5t-166.5 -56.5t-166.5 56.5t-60.5 135.5q0 59 37.5 106t99.5 64q-51 21 -78.5 62t-27.5 88q0 72 54 118.5t142 46.5t142 -46.5t54 -118.5q0 -46 -28 -87.5t-79 -62.5q62 -17 100 -64t38 -106zM478 181q0 68 -53.5 111t-140.5 43t-140.5 -43
t-53.5 -111q0 -72 53 -117.5t141 -45.5t141 45.5t53 117.5zM446 501q0 61 -46.5 98t-115.5 37t-115.5 -37t-46.5 -98q0 -58 42 -96.5t120 -38.5q77 0 119.5 39t42.5 96z" />
    <glyph glyph-name="nine" unicode="9" horiz-adv-x="565" 
d="M503 387q0 -193 -86 -295.5t-256 -102.5q-37 0 -61 7l3 28q42 -4 69 -4q276 0 297 332q-65 -107 -191 -107q-97 0 -151.5 62.5t-54.5 146.5q0 86 56 149t152 63q110 0 166.5 -73t56.5 -206zM465 448q0 76 -47.5 132.5t-137.5 56.5q-81 0 -128 -51t-47 -128
q0 -82 46.5 -132.5t126.5 -50.5q79 0 133 49t54 124z" />
    <glyph glyph-name="colon" unicode=":" horiz-adv-x="221" 
d="M134 383h-47v94h47v-94zM134 0h-47v94h47v-94z" />
    <glyph glyph-name="semicolon" unicode=";" horiz-adv-x="218" 
d="M131 0l-25 -97h-24l24 97h-22v94h47v-94zM131 383h-47v94h47v-94z" />
    <glyph glyph-name="less" unicode="&#x3c;" horiz-adv-x="576" 
d="M509 -8l-472 240v26l472 238v-34l-435 -218l435 -219v-33z" />
    <glyph glyph-name="equal" unicode="=" horiz-adv-x="541" 
d="M479 308h-417v31h417v-31zM479 135h-417v31h417v-31z" />
    <glyph glyph-name="greater" unicode="&#x3e;" horiz-adv-x="576" 
d="M539 232l-472 -240v33l435 219l-435 218v34l472 -238v-26z" />
    <glyph glyph-name="question" unicode="?" horiz-adv-x="478" 
d="M416 543q0 -72 -41.5 -153t-145.5 -219l-24 16q91 124 134 203.5t43 146.5q0 55 -30.5 81.5t-107.5 26.5q-75 0 -176 -19l-6 27q83 23 184 23q170 0 170 -133zM239 0h-48v94h48v-94z" />
    <glyph glyph-name="at" unicode="@" horiz-adv-x="717" 
d="M675 41q-123 -52 -256 -52q-146 0 -246.5 94.5t-100.5 248.5q0 152 78 248t203 96q96 0 144.5 -51t48.5 -139v-302h-28v53q-38 -59 -101 -59q-66 0 -99.5 47.5t-33.5 112.5t33.5 112t99.5 47q62 0 100 -59v46q0 73 -37.5 119t-126.5 46q-113 0 -182.5 -89t-69.5 -228
t89 -227.5t229 -88.5q123 0 248 48zM518 338q0 56 -27 94t-76 38t-75.5 -37t-26.5 -95t26.5 -95t75.5 -37t76 38t27 94z" />
    <glyph glyph-name="A" unicode="A" 
d="M595 0h-33l-83 200h-342l-84 -200h-33l279 666h17zM467 229l-159 383l-159 -383h318z" />
    <glyph glyph-name="B" unicode="B" horiz-adv-x="641" 
d="M589 183q0 -77 -53.5 -130t-150.5 -53h-283v666h248q109 0 164 -45.5t55 -123.5q0 -48 -28 -88.5t-76 -58.5q124 -40 124 -167zM556 181q0 67 -42 108.5t-122 41.5h-256v-302h258q72 0 117 42t45 110zM535 497q0 68 -46.5 104t-123.5 36h-229v-277h225q73 0 123.5 35
t50.5 102z" />
    <glyph glyph-name="C" unicode="C" horiz-adv-x="626" 
d="M559 7q-75 -18 -157 -18q-160 0 -260 95t-100 248q0 154 98.5 249t261.5 95q89 0 156 -16l-6 -28q-80 14 -154 14q-87 0 -158.5 -34.5t-117.5 -107.5t-46 -172q0 -147 94.5 -230t227.5 -83q87 0 154 15z" />
    <glyph glyph-name="D" unicode="D" horiz-adv-x="652" 
d="M610 333q0 -145 -109.5 -239t-272.5 -94h-126v666h126q163 0 272.5 -94.5t109.5 -238.5zM577 333q0 92 -50.5 162t-128 105t-167.5 35h-96v-604h96q139 0 242.5 82.5t103.5 219.5z" />
    <glyph glyph-name="E" unicode="E" horiz-adv-x="604" 
d="M532 0h-430v666h430v-31h-397v-273h371v-31h-371v-300h397v-31z" />
    <glyph glyph-name="F" unicode="F" horiz-adv-x="586" 
d="M539 635h-404v-273h377v-31h-377v-331h-33v666h437v-31z" />
    <glyph glyph-name="G" unicode="G" horiz-adv-x="676" 
d="M594 22q-82 -33 -187 -33q-158 0 -261.5 94t-103.5 249q0 158 94.5 251t256.5 93q101 0 187 -27l-6 -27q-98 24 -182 24q-143 0 -229.5 -83.5t-86.5 -230.5q0 -144 94.5 -228.5t236.5 -84.5q78 0 154 23v241h33v-261z" />
    <glyph glyph-name="H" unicode="H" horiz-adv-x="672" 
d="M570 0h-33v331h-402v-331h-33v666h33v-304h402v304h33v-666z" />
    <glyph glyph-name="I" unicode="I" horiz-adv-x="247" 
d="M140 0h-33v666h33v-666z" />
    <glyph glyph-name="J" unicode="J" horiz-adv-x="455" 
d="M363 184q0 -78 -48.5 -131t-130.5 -53h-127v31h125q72 0 109.5 44.5t37.5 108.5v451h-254v31h288v-482z" />
    <glyph glyph-name="K" unicode="K" horiz-adv-x="596" 
d="M579 0h-46l-397 330v-330h-34v666h34v-308l370 308h46l-385 -323z" />
    <glyph glyph-name="L" unicode="L" horiz-adv-x="525" 
d="M493 0h-391v666h33v-635h358v-31z" />
    <glyph glyph-name="M" unicode="M" horiz-adv-x="791" 
d="M689 0h-31v604l-251 -526h-24l-250 526v-604h-31v666h33l260 -546l261 546h33v-666z" />
    <glyph glyph-name="N" unicode="N" horiz-adv-x="720" 
d="M618 0h-31l-454 615v-615h-31v666h31l454 -614v614h31v-666z" />
    <glyph glyph-name="O" unicode="O" horiz-adv-x="726" 
d="M669 332q0 -145 -84 -244t-222 -99t-222 99t-84 244t84 244.5t222 99.5t222 -99.5t84 -244.5zM636 332q0 133 -76.5 224t-196.5 91t-196.5 -91t-76.5 -224t76.5 -223.5t196.5 -90.5t196.5 90.5t76.5 223.5z" />
    <glyph glyph-name="P" unicode="P" horiz-adv-x="612" 
d="M585 481q0 -78 -51.5 -131.5t-143.5 -53.5h-255v-296h-33v666h287q92 0 144 -53.5t52 -131.5zM552 481q0 69 -45 111.5t-110 42.5h-262v-308h263q65 0 109.5 42.5t44.5 111.5z" />
    <glyph glyph-name="Q" unicode="Q" horiz-adv-x="726" 
d="M669 333q0 -141 -79 -239t-211 -104v-179h-31v179q-132 6 -211.5 104t-79.5 239q0 145 84 244t222 99t222 -99t84 -244zM636 333q0 133 -76.5 223.5t-196.5 90.5t-196 -90.5t-76 -223.5t76 -224t196 -91t196.5 91t76.5 224z" />
    <glyph glyph-name="R" unicode="R" horiz-adv-x="690" 
d="M558 483q0 69 -45 110.5t-110 41.5h-268v-304h268q65 0 110 41.5t45 110.5zM663 0h-39l-221 300h-268v-300h-33v666h293q93 0 144.5 -52.5t51.5 -130.5q0 -67 -40 -117.5t-112 -62.5z" />
    <glyph glyph-name="S" unicode="S" 
d="M563 151q0 -68 -63 -115t-172 -47q-131 0 -261 52l8 26q131 -49 251 -49q93 0 148 39t55 93q0 53 -41.5 91.5t-164.5 85.5q-143 55 -190 99.5t-47 114.5q0 135 230 135q117 0 227 -32l-6 -26q-109 29 -219 29q-104 0 -152 -26t-48 -82q0 -61 44 -98t181 -91
q93 -36 142.5 -70t63.5 -62t14 -67z" />
    <glyph glyph-name="T" unicode="T" horiz-adv-x="531" 
d="M514 637h-232v-637h-33v637h-232v29h497v-29z" />
    <glyph glyph-name="U" unicode="U" horiz-adv-x="684" 
d="M592 219q0 -96 -66 -163t-184 -67t-184 67.5t-66 162.5v447h33v-452q0 -87 61 -141.5t156 -54.5q94 0 155 54.5t61 141.5v452h34v-447z" />
    <glyph glyph-name="V" unicode="V" horiz-adv-x="575" 
d="M568 666l-272 -666h-18l-271 666h31l249 -610l249 610h32z" />
    <glyph glyph-name="W" unicode="W" horiz-adv-x="865" 
d="M853 666l-199 -666h-31l-191 640l-190 -640h-31l-199 666h31l183 -619l184 619h44l184 -619l184 619h31z" />
    <glyph glyph-name="X" unicode="X" horiz-adv-x="652" 
d="M630 0h-39l-265 311l-265 -311h-39l284 333l-284 333h39l265 -310l265 310h39l-285 -333z" />
    <glyph glyph-name="Y" unicode="Y" horiz-adv-x="592" 
d="M595 666l-282 -387v-279h-34v279l-282 387h36l263 -360l262 360h37z" />
    <glyph glyph-name="Z" unicode="Z" horiz-adv-x="642" 
d="M590 635l-491 -604h488v-31h-525v31l490 604h-475v31h513v-31z" />
    <glyph glyph-name="bracketleft" unicode="[" horiz-adv-x="270" 
d="M248 -126h-146v916h146v-31h-112v-854h112v-31z" />
    <glyph glyph-name="backslash" unicode="\" horiz-adv-x="440" 
d="M378 -117h-27l-289 793h27z" />
    <glyph glyph-name="bracketright" unicode="]" horiz-adv-x="270" 
d="M168 -126h-146v31h112v854h-112v31h146v-916z" />
    <glyph glyph-name="asciicircum" unicode="^" horiz-adv-x="448" 
d="M411 327h-31l-156 298l-156 -298h-31l182 339h10z" />
    <glyph glyph-name="underscore" unicode="_" horiz-adv-x="369" 
d="M370 -28h-371v17h371v-17z" />
    <glyph glyph-name="grave" unicode="`" horiz-adv-x="297" 
d="M186 545l-106 117h46l91 -117h-31z" />
    <glyph glyph-name="a" unicode="a" horiz-adv-x="496" 
d="M424 0h-34v65q-57 -73 -170 -73q-68 0 -116.5 36t-48.5 106q0 65 45 99t112 34h178v66q0 64 -35 98t-116 34q-78 0 -153 -15l-5 29q79 17 157 17q94 0 140 -41.5t46 -114.5v-340zM390 161v75h-178q-60 0 -92 -27.5t-32 -79.5q0 -49 38 -77.5t94 -28.5q71 0 120.5 38.5
t49.5 99.5z" />
    <glyph glyph-name="b" unicode="b" horiz-adv-x="553" 
d="M501 244q0 -103 -53.5 -177.5t-156.5 -74.5q-53 0 -99.5 30t-71.5 82v-104h-33v666h33v-283q25 52 71.5 82.5t99.5 30.5q103 0 156.5 -74.5t53.5 -177.5zM468 244q0 97 -45 158.5t-128 61.5t-129 -64t-46 -156t46 -156.5t129 -64.5t128 62t45 159z" />
    <glyph glyph-name="c" unicode="c" horiz-adv-x="462" 
d="M410 9q-56 -17 -121 -17q-111 0 -176 70.5t-65 181.5t64.5 181.5t176.5 70.5q67 0 121 -17l-7 -27q-56 14 -110 14q-101 0 -156.5 -60.5t-55.5 -161.5t55 -161.5t157 -60.5q52 0 110 14z" />
    <glyph glyph-name="d" unicode="d" horiz-adv-x="553" 
d="M466 0h-33v104q-25 -52 -71.5 -82t-99.5 -30q-103 0 -156.5 74.5t-53.5 177.5t53.5 177.5t156.5 74.5q53 0 99.5 -30.5t71.5 -82.5v283h33v-666zM433 244q0 92 -46 156t-129 64t-128 -61.5t-45 -158.5t45 -159t128 -62t129 64.5t46 156.5z" />
    <glyph glyph-name="e" unicode="e" horiz-adv-x="518" 
d="M467 235h-384q4 -99 60 -155.5t149 -56.5q70 0 148 21l8 -28q-77 -24 -156 -24q-111 0 -176.5 71t-65.5 181q0 106 58 179t156 73t150.5 -72.5t52.5 -177.5v-11zM435 267q-7 91 -50.5 144.5t-120.5 53.5q-79 0 -126 -54.5t-55 -143.5h352z" />
    <glyph glyph-name="f" unicode="f" horiz-adv-x="313" 
d="M306 682l-6 -26q-35 6 -64 6q-43 0 -62.5 -26.5t-19.5 -81.5v-67h119v-31h-119v-456h-33v456h-79v31h79v67q0 137 119 137q32 0 66 -9z" />
    <glyph glyph-name="g" unicode="g" horiz-adv-x="545" 
d="M463 38q0 -100 -53.5 -159t-161.5 -59q-88 0 -156 31l6 25q79 -27 150 -27q181 0 181 195v69q-25 -52 -71 -82t-99 -30q-104 0 -157.5 72.5t-53.5 174.5t53.5 175t157.5 73q53 0 99 -30t71 -82v103h34v-449zM429 248q0 91 -45.5 154t-129.5 63q-83 0 -127.5 -60.5
t-44.5 -156.5t44.5 -156t127.5 -60q84 0 129.5 62.5t45.5 153.5z" />
    <glyph glyph-name="h" unicode="h" horiz-adv-x="546" 
d="M464 0h-33v323q0 64 -33 101.5t-101 37.5q-71 0 -123.5 -58t-52.5 -152v-252h-34v666h34v-287q24 52 73 84.5t108 32.5q77 0 119.5 -47.5t42.5 -123.5v-325z" />
    <glyph glyph-name="i" unicode="i" horiz-adv-x="207" 
d="M120 0h-33v487h33v-487zM120 568h-33v92h33v-92z" />
    <glyph glyph-name="j" unicode="j" horiz-adv-x="231" 
d="M149 -58q0 -123 -109 -123q-30 0 -68 12l6 27q40 -10 65 -10q73 0 73 92v547h33v-545zM149 568h-33v92h33v-92z" />
    <glyph glyph-name="k" unicode="k" horiz-adv-x="451" 
d="M439 0h-50l-268 229v-229h-34v666h34v-389l246 210h49l-277 -235z" />
    <glyph glyph-name="l" unicode="l" horiz-adv-x="281" 
d="M234 -6h-40q-112 0 -112 125v547h33v-556q0 -87 75 -87h44v-29z" />
    <glyph glyph-name="m" unicode="m" horiz-adv-x="876" 
d="M794 0h-33v323q0 64 -32.5 101.5t-100.5 37.5q-69 0 -120 -57.5t-51 -146.5v-258h-33v323q0 64 -32.5 101.5t-100.5 37.5q-70 0 -120.5 -57.5t-50.5 -152.5v-252h-33v487h33v-108q24 52 70 84.5t105 32.5q63 0 104 -33t53 -89q25 52 74 87t106 35q77 0 119.5 -47.5
t42.5 -123.5v-325z" />
    <glyph glyph-name="n" unicode="n" horiz-adv-x="546" 
d="M464 0h-33v323q0 64 -32.5 101.5t-100.5 37.5q-71 0 -124 -58t-53 -152v-252h-34v487h34v-108q24 52 73 84.5t108 32.5q77 0 119.5 -47.5t42.5 -123.5v-325z" />
    <glyph glyph-name="o" unicode="o" horiz-adv-x="533" 
d="M481 244q0 -107 -57 -179.5t-157 -72.5t-157.5 73t-57.5 179t57.5 179t157.5 73t157 -72.5t57 -179.5zM448 244q0 99 -48.5 160t-132.5 61t-132.5 -61t-48.5 -160t48.5 -160t132.5 -61t132.5 61t48.5 160z" />
    <glyph glyph-name="p" unicode="p" horiz-adv-x="553" 
d="M501 244q0 -103 -53.5 -177.5t-156.5 -74.5q-53 0 -99 30t-71 82v-277h-34v660h34v-104q25 52 71 82.5t99 30.5q103 0 156.5 -74.5t53.5 -177.5zM468 244q0 97 -45 158.5t-128 61.5t-128.5 -64t-45.5 -156t45.5 -156.5t128.5 -64.5t128 62t45 159z" />
    <glyph glyph-name="q" unicode="q" horiz-adv-x="553" 
d="M466 -173h-34v277q-25 -52 -71 -82t-99 -30q-103 0 -156.5 74.5t-53.5 177.5t53.5 177.5t156.5 74.5q53 0 99 -30.5t71 -82.5v104h34v-660zM432 244q0 92 -45.5 156t-128.5 64t-128 -61.5t-45 -158.5t45 -159t128 -62t128.5 64.5t45.5 156.5z" />
    <glyph glyph-name="r" unicode="r" horiz-adv-x="332" 
d="M314 462q-83 0 -138 -61t-55 -134v-267h-34v487h34v-114q29 54 78.5 88.5t114.5 34.5v-34z" />
    <glyph glyph-name="s" unicode="s" horiz-adv-x="448" 
d="M401 115q0 -55 -50 -89t-133 -34q-93 0 -170 44l11 26q82 -39 157 -39q66 0 108.5 24t42.5 70q0 38 -34 61.5t-142 67.5q-74 30 -101 62t-27 79q0 54 45.5 81.5t121.5 27.5q69 0 149 -22l-7 -28q-80 19 -140 19q-69 0 -102 -19.5t-33 -62.5q0 -35 26 -60.5t96 -53.5
q111 -45 146.5 -74t35.5 -80z" />
    <glyph glyph-name="t" unicode="t" horiz-adv-x="308" 
d="M266 3q-33 -11 -67 -11q-93 0 -93 114v350h-69v31h69v138h34v-138h103v-31h-104v-350q0 -44 14.5 -64t45.5 -20q28 0 63 7z" />
    <glyph glyph-name="u" unicode="u" horiz-adv-x="542" 
d="M455 0h-33v108q-24 -51 -73 -83.5t-108 -32.5q-77 0 -120 47t-43 123v325h33v-323q0 -64 33 -101.5t101 -37.5q71 0 124 58t53 152v252h33v-487z" />
    <glyph glyph-name="v" unicode="v" horiz-adv-x="444" 
d="M437 487l-198 -487h-33l-199 487h35l180 -451l182 451h33z" />
    <glyph glyph-name="w" unicode="w" horiz-adv-x="662" 
d="M657 487l-166 -487h-28l-132 430l-132 -430h-28l-166 487h34l146 -429l129 429h32l133 -421l145 421h33z" />
    <glyph glyph-name="x" unicode="x" horiz-adv-x="492" 
d="M465 0h-39l-180 227l-180 -227h-39l199 252l-186 235h39l167 -211l167 211h39l-186 -235z" />
    <glyph glyph-name="y" unicode="y" horiz-adv-x="446" 
d="M434 487l-268 -660h-33l70 173l-199 487h35l180 -449l181 449h34z" />
    <glyph glyph-name="z" unicode="z" horiz-adv-x="510" 
d="M448 0h-391v31l343 425h-319v31h359v-31l-344 -425h352v-31z" />
    <glyph glyph-name="braceleft" unicode="{" horiz-adv-x="226" 
d="M219 -143h-27q-50 0 -77 29t-27 77v309q0 37 -42 37h-9v29h9q42 0 42 38v309q0 48 27 76.5t77 28.5h27v-31h-27q-71 0 -71 -73v-308q0 -52 -50 -54q50 -4 50 -54v-308q0 -73 71 -73h27v-32z" />
    <glyph glyph-name="bar" unicode="|" horiz-adv-x="245" 
d="M133 -200h-21v1000h21v-1000z" />
    <glyph glyph-name="braceright" unicode="}" horiz-adv-x="226" 
d="M189 309h-9q-42 0 -42 -37v-309q0 -48 -27 -77t-77 -29h-27v32h27q71 0 71 73v308q0 50 49 54q-49 2 -49 54v308q0 73 -71 73h-27v31h27q50 0 77 -28.5t27 -76.5v-309q0 -38 42 -38h9v-29z" />
    <glyph glyph-name="asciitilde" unicode="~" horiz-adv-x="486" 
d="M456 310q-11 -39 -43.5 -70.5t-74.5 -31.5q-40 0 -100.5 35.5t-92.5 35.5q-51 0 -86 -77l-29 11q12 42 44.5 72t73.5 30q40 0 101 -35.5t93 -35.5q53 0 86 77z" />
    <glyph glyph-name="exclamdown" unicode="&#xa1;" horiz-adv-x="252" 
d="M146 0h-39v258l10 267h19l10 -267v-258zM150 572h-48v94h48v-94z" />
    <glyph glyph-name="cent" unicode="&#xa2;" horiz-adv-x="462" 
d="M410 9q-56 -17 -121 -17h-2v-98h-21v99q-100 7 -159 77t-59 174t59 174t159 77v102h21v-101h2q67 0 121 -17l-6 -29q-60 15 -111 15q-1 0 -3 -0.5t-3 -0.5v-440q1 0 3 -0.5t3 -0.5q49 0 111 15zM266 25v438q-90 -8 -137.5 -66.5t-47.5 -152.5t47.5 -152.5t137.5 -66.5z
" />
    <glyph glyph-name="sterling" unicode="&#xa3;" horiz-adv-x="621" 
d="M534 0h-445l-1 31h55q63 138 41 256h-102v31h94q-24 45 -34 67t-19.5 57t-9.5 72q0 77 57 119.5t161 42.5q102 0 196 -31l-6 -26q-100 26 -177 26q-100 0 -148.5 -31.5t-48.5 -101.5q0 -33 10.5 -69t22 -60t33.5 -65h205v-31h-198q10 -59 -2 -128t-40 -128h356v-31z" />
    <glyph glyph-name="currency" unicode="&#xa4;" horiz-adv-x="719" 
d="M652 10q-70 -21 -150 -21q-139 0 -235.5 71t-122.5 191h-112v27h107q-3 26 -3 54q0 34 4 59h-108v27h113q27 118 123 188t234 70q83 0 150 -20l-5 -26q-71 17 -155 17q-109 0 -197.5 -60.5t-115.5 -168.5h208v-27h-213q-5 -30 -5 -59q0 -31 4 -54h214v-27h-209
q26 -110 115 -171.5t199 -61.5q87 0 154 18z" />
    <glyph glyph-name="yen" unicode="&#xa5;" horiz-adv-x="592" 
d="M595 666l-203 -279h102v-31h-125l-56 -77v-56h181v-32h-181v-191h-33v191h-181v32h181v56l-56 77h-125v31h102l-204 279h37l262 -360l263 360h36z" />
    <glyph glyph-name="brokenbar" unicode="&#xa6;" horiz-adv-x="245" 
d="M133 370h-21v430h21v-430zM133 -200h-21v430h21v-430z" />
    <glyph glyph-name="section" unicode="&#xa7;" horiz-adv-x="568" 
d="M481 -44q0 -61 -56.5 -99t-151.5 -38q-45 0 -98.5 14t-92.5 35l9 22q95 -43 180 -43q77 0 128 28t51 83q0 44 -38 70t-168 82q-80 34 -113 70t-33 86q0 83 114 146q-62 29 -88 63.5t-26 80.5q0 59 51 89.5t139 30.5q84 0 166 -23l-6 -25q-80 20 -158 20q-81 0 -120.5 -23
t-39.5 -74q0 -44 36 -76t88 -51.5t103.5 -40t87.5 -55.5t36 -84q0 -83 -134 -146q79 -36 106.5 -65.5t27.5 -76.5zM450 247q0 45 -39.5 72.5t-166.5 78.5q-64 -34 -89 -65t-25 -70q0 -42 30.5 -71.5t112.5 -62.5q6 -2 18.5 -8t19.5 -8q57 21 98 56t41 78z" />
    <glyph glyph-name="dieresis" unicode="&#xa8;" horiz-adv-x="384" 
d="M263 571v65h41v-65h-41zM80 571v65h41v-65h-41z" />
    <glyph glyph-name="copyright" unicode="&#xa9;" horiz-adv-x="778" 
d="M736 333q0 -142 -103 -243t-245 -101t-244 101t-102 243t102 242.5t244 100.5t245 -100.5t103 -242.5zM716 333q0 133 -96 228.5t-232 95.5t-231 -95.5t-95 -228.5t95 -229t231 -96t232 96t96 229zM488 170q-34 -10 -76 -10q-82 0 -133 47.5t-51 124.5t51 125t133 48
q44 0 76 -9l-3 -14q-35 9 -78 9q-66 0 -114.5 -42.5t-48.5 -116.5t48.5 -116t114.5 -42q45 0 78 9z" />
    <glyph glyph-name="ordfeminine" unicode="&#xaa;" horiz-adv-x="361" 
d="M294 358h-22v42q-37 -47 -109 -47q-43 0 -74.5 23t-31.5 68q0 42 26.5 63.5t68.5 21.5h120v43q0 84 -97 84q-50 0 -98 -9l-4 18q48 11 102 11q59 0 89 -26.5t30 -73.5v-218zM272 461v48h-120q-73 0 -73 -68q0 -32 24 -50t60 -18q45 0 77 24.5t32 63.5z" />
    <glyph glyph-name="guillemotleft" unicode="&#xab;" horiz-adv-x="541" 
d="M286 17l-18 -17l-231 240l231 240l18 -17l-215 -223zM449 17l-17 -17l-232 240l232 240l17 -17l-215 -223z" />
    <glyph glyph-name="logicalnot" unicode="&#xac;" horiz-adv-x="494" 
d="M392 0h-25v231h-325v23h350v-254z" />
    <glyph glyph-name="registered" unicode="&#xae;" horiz-adv-x="778" 
d="M736 333q0 -142 -103 -243t-245 -101t-244 101t-102 243t102 242.5t244 100.5t245 -100.5t103 -242.5zM716 333q0 133 -96 228.5t-232 95.5t-231 -95.5t-95 -228.5t95 -229t231 -96t232 96t96 229zM554 165h-19l-112 151h-135v-151h-16v335h148q47 0 72.5 -26.5
t25.5 -65.5q0 -34 -20 -59t-56 -32zM501 408q0 35 -22 55.5t-55 20.5h-136v-153h136q33 0 55 21t22 56z" />
    <glyph glyph-name="macron" unicode="&#xaf;" horiz-adv-x="418" 
d="M80 594v27h258v-27h-258z" />
    <glyph glyph-name="degree" unicode="&#xb0;" horiz-adv-x="315" 
d="M258 576q0 -42 -29.5 -72t-71.5 -30t-71 30t-29 72t29 71t71 29t71.5 -29t29.5 -71zM246 576q0 37 -26 62.5t-63 25.5t-62.5 -25.5t-25.5 -62.5t25.5 -63.5t62.5 -26.5t63 26.5t26 63.5z" />
    <glyph glyph-name="plusminus" unicode="&#xb1;" horiz-adv-x="600" 
d="M538 0h-476v31h222v191h-222v33h222v222h33v-222h221v-33h-221v-191h221v-31z" />
    <glyph glyph-name="twosuperior" unicode="&#xb2;" horiz-adv-x="664" 
d="M664 334h-165v165h165v-165zM331 334h-165v165h165v-165zM331 0h-165v165h165v-165zM664 0h-165v165h165v-165zM497 168h-164v164h164v-164zM497 502h-164v164h164v-164zM164 502h-164v164h164v-164zM164 168h-164v164h164v-164z" />
    <glyph glyph-name="threesuperior" unicode="&#xb3;" horiz-adv-x="664" 
d="M664 334h-165v165h165v-165zM331 334h-165v165h165v-165zM331 0h-165v165h165v-165zM664 0h-165v165h165v-165zM497 168h-164v164h164v-164zM497 502h-164v164h164v-164zM164 502h-164v164h164v-164zM164 168h-164v164h164v-164z" />
    <glyph glyph-name="acute" unicode="&#xb4;" horiz-adv-x="294" 
d="M80 545l88 117h46l-103 -117h-31z" />
    <glyph glyph-name="mu" unicode="&#xb5;" horiz-adv-x="542" 
d="M455 0h-34v108q-24 -51 -73 -83.5t-108 -32.5q-88 0 -131 61v-226h-31v660h33v-323q0 -64 32.5 -101.5t100.5 -37.5q71 0 124 58t53 152v252h34v-487z" />
    <glyph glyph-name="paragraph" unicode="&#xb6;" horiz-adv-x="379" 
d="M277 0h-27v641h-77v-641h-29v431q-48 0 -82.5 34.5t-34.5 82.5t34.5 83t82.5 35h133v-666z" />
    <glyph glyph-name="periodcentered" unicode="&#xb7;" horiz-adv-x="221" 
d="M134 296h-47v94h47v-94z" />
    <glyph glyph-name="cedilla" unicode="&#xb8;" horiz-adv-x="310" 
d="M80 -167l4 20q27 -12 64 -12q54 0 54 42q0 40 -49 40q-29 0 -49 -4l25 81h22l-16 -57q8 2 29 2q29 0 47.5 -17.5t18.5 -45.5q0 -30 -23 -46.5t-57 -16.5q-38 0 -70 14z" />
    <glyph glyph-name="onesuperior" unicode="&#xb9;" horiz-adv-x="664" 
d="M664 334h-165v165h165v-165zM331 334h-165v165h165v-165zM331 0h-165v165h165v-165zM664 0h-165v165h165v-165zM497 168h-164v164h164v-164zM497 502h-164v164h164v-164zM164 502h-164v164h164v-164zM164 168h-164v164h164v-164z" />
    <glyph glyph-name="ordmasculine" unicode="&#xba;" horiz-adv-x="368" 
d="M321 514q0 -69 -36.5 -115t-100.5 -46t-100.5 46t-36.5 115t36.5 115.5t100.5 46.5t100.5 -46.5t36.5 -115.5zM300 514q0 63 -31 102.5t-85 39.5t-85 -39.5t-31 -102.5t31 -102t85 -39t85 39t31 102z" />
    <glyph glyph-name="guillemotright" unicode="&#xbb;" horiz-adv-x="541" 
d="M504 240l-231 -240l-18 17l215 223l-215 223l18 17zM341 240l-232 -240l-17 17l215 223l-215 223l17 17z" />
    <glyph glyph-name="onequarter" unicode="&#xbc;" horiz-adv-x="664" 
d="M664 334h-165v165h165v-165zM331 334h-165v165h165v-165zM331 0h-165v165h165v-165zM664 0h-165v165h165v-165zM497 168h-164v164h164v-164zM497 502h-164v164h164v-164zM164 502h-164v164h164v-164zM164 168h-164v164h164v-164z" />
    <glyph glyph-name="onehalf" unicode="&#xbd;" horiz-adv-x="664" 
d="M664 334h-165v165h165v-165zM331 334h-165v165h165v-165zM331 0h-165v165h165v-165zM664 0h-165v165h165v-165zM497 168h-164v164h164v-164zM497 502h-164v164h164v-164zM164 502h-164v164h164v-164zM164 168h-164v164h164v-164z" />
    <glyph glyph-name="threequarters" unicode="&#xbe;" horiz-adv-x="664" 
d="M664 334h-165v165h165v-165zM331 334h-165v165h165v-165zM331 0h-165v165h165v-165zM664 0h-165v165h165v-165zM497 168h-164v164h164v-164zM497 502h-164v164h164v-164zM164 502h-164v164h164v-164zM164 168h-164v164h164v-164z" />
    <glyph glyph-name="questiondown" unicode="&#xbf;" horiz-adv-x="478" 
d="M416 12q-89 -23 -184 -23q-170 0 -170 133q0 72 41.5 153t145.5 219l24 -16q-91 -124 -134 -203.5t-43 -146.5q0 -55 30.5 -81.5t107.5 -26.5q76 0 177 19zM287 571h-48v95h48v-95z" />
    <glyph glyph-name="Agrave" unicode="&#xc0;" 
d="M595 0h-33l-83 200h-342l-84 -200h-33l279 666h17zM467 229l-159 383l-159 -383h318zM287 724l-106 117h46l91 -117h-31z" />
    <glyph glyph-name="Aacute" unicode="&#xc1;" 
d="M595 0h-33l-83 200h-342l-84 -200h-33l279 666h17zM467 229l-159 383l-159 -383h318zM295 724l88 117h46l-103 -117h-31z" />
    <glyph glyph-name="Acircumflex" unicode="&#xc2;" 
d="M595 0h-33l-83 200h-342l-84 -200h-33l279 666h17zM467 229l-159 383l-159 -383h318zM188 724l105 117h30l105 -117h-34l-86 96l-86 -96h-34z" />
    <glyph glyph-name="Atilde" unicode="&#xc3;" 
d="M595 0h-33l-83 200h-342l-84 -200h-33l279 666h17zM467 229l-159 383l-159 -383h318zM163 744q21 82 72 82q9 0 18 -2t19 -6.5t16 -7t18 -9.5t14 -8q4 -2 15.5 -9t17 -9.5t14 -5.5t15.5 -3q13 0 22.5 10.5t12.5 19t11 33.5l24 -7q-22 -82 -67 -82q-21 0 -73 27
q-5 2 -23 13t-29.5 15.5t-23.5 4.5q-13 0 -22.5 -9.5t-13.5 -19t-13 -34.5z" />
    <glyph glyph-name="Adieresis" unicode="&#xc4;" 
d="M595 0h-33l-83 200h-342l-84 -200h-33l279 666h17zM467 229l-159 383l-159 -383h318zM379 750v65h41v-65h-41zM196 750v65h41v-65h-41z" />
    <glyph glyph-name="Aring" unicode="&#xc5;" 
d="M308 666q21 0 34.5 13t13.5 33t-13.5 33.5t-34.5 13.5t-34.5 -13.5t-13.5 -33.5t13.5 -33t34.5 -13zM467 229l-159 383l-159 -383h318zM137 200l-84 -200h-33l271 648q-24 5 -38.5 23t-14.5 41q0 27 20 47t50 20t49.5 -20t19.5 -47q0 -23 -14.5 -41.5t-38.5 -22.5
l271 -648h-33l-83 200h-342z" />
    <glyph glyph-name="AE" unicode="&#xc6;" horiz-adv-x="875" 
d="M419 229l-112 383l-159 -383h271zM803 0h-316l-56 200h-295l-84 -200h-32l279 666h504v-31h-473l83 -273h363v-31h-354l91 -300h290v-31z" />
    <glyph glyph-name="Ccedilla" unicode="&#xc7;" horiz-adv-x="626" 
d="M389 -181q-38 0 -70 14l4 20q27 -12 64 -12q54 0 54 42q0 40 -49 40q-29 0 -49 -4l22 71q-145 12 -234 105.5t-89 236.5q0 154 98.5 249t261.5 95q89 0 156 -16l-6 -28q-80 14 -154 14q-87 0 -158.5 -34.5t-117.5 -107.5t-46 -172q0 -147 94.5 -230t227.5 -83
q87 0 154 15l7 -27q-75 -18 -157 -18h-15l-13 -46q8 2 29 2q29 0 47.5 -17.5t18.5 -45.5q0 -30 -23 -46.5t-57 -16.5z" />
    <glyph glyph-name="Egrave" unicode="&#xc8;" horiz-adv-x="604" 
d="M532 0h-430v666h430v-31h-397v-273h371v-31h-371v-300h397v-31zM312 724l-106 117h46l91 -117h-31z" />
    <glyph glyph-name="Eacute" unicode="&#xc9;" horiz-adv-x="604" 
d="M532 0h-430v666h430v-31h-397v-273h371v-31h-371v-300h397v-31zM293 724l88 117h46l-103 -117h-31z" />
    <glyph glyph-name="Ecircumflex" unicode="&#xca;" horiz-adv-x="604" 
d="M532 0h-430v666h430v-31h-397v-273h371v-31h-371v-300h397v-31zM200 724l105 117h30l105 -117h-34l-86 96l-86 -96h-34z" />
    <glyph glyph-name="Edieresis" unicode="&#xcb;" horiz-adv-x="604" 
d="M532 0h-430v666h430v-31h-397v-273h371v-31h-371v-300h397v-31zM390 750v65h41v-65h-41zM207 750v65h41v-65h-41z" />
    <glyph glyph-name="Igrave" unicode="&#xcc;" horiz-adv-x="247" 
d="M140 0h-33v666h33v-666zM104 724l-107 117h47l91 -117h-31z" />
    <glyph glyph-name="Iacute" unicode="&#xcd;" horiz-adv-x="247" 
d="M140 0h-33v666h33v-666zM114 724l88 117h46l-103 -117h-31z" />
    <glyph glyph-name="Icircumflex" unicode="&#xce;" horiz-adv-x="247" 
d="M140 0h-33v666h33v-666zM4 724l105 117h30l105 -117h-34l-86 96l-86 -96h-34z" />
    <glyph glyph-name="Idieresis" unicode="&#xcf;" horiz-adv-x="247" 
d="M140 0h-33v666h33v-666zM195 750v65h41v-65h-41zM12 750v65h41v-65h-41z" />
    <glyph glyph-name="Eth" unicode="&#xd0;" horiz-adv-x="660" 
d="M236 0h-126v319h-85v29h85v318h126q163 0 272.5 -94.5t109.5 -238.5q0 -145 -109.5 -239t-272.5 -94zM143 31h96q139 0 242.5 82.5t103.5 219.5q0 92 -50.5 162t-128 105t-167.5 35h-96v-287h166v-29h-166v-288z" />
    <glyph glyph-name="Ntilde" unicode="&#xd1;" horiz-adv-x="720" 
d="M618 0h-31l-454 615v-615h-31v666h31l454 -614v614h31v-666zM216 744q21 82 72 82q9 0 18 -2t19 -6.5t16 -7t18 -9.5t14 -8q49 -27 62 -27t22.5 10.5t12.5 19t11 33.5l24 -7q-22 -82 -67 -82q-21 0 -73 27q-5 2 -23 13t-29.5 15.5t-23.5 4.5q-13 0 -22.5 -9.5t-13.5 -19
t-13 -34.5z" />
    <glyph glyph-name="Ograve" unicode="&#xd2;" horiz-adv-x="726" 
d="M669 332q0 -145 -84 -244t-222 -99t-222 99t-84 244t84 244.5t222 99.5t222 -99.5t84 -244.5zM636 332q0 133 -76.5 224t-196.5 91t-196.5 -91t-76.5 -224t76.5 -223.5t196.5 -90.5t196.5 90.5t76.5 223.5zM343 724l-106 117h46l91 -117h-31z" />
    <glyph glyph-name="Oacute" unicode="&#xd3;" horiz-adv-x="726" 
d="M669 332q0 -145 -84 -244t-222 -99t-222 99t-84 244t84 244.5t222 99.5t222 -99.5t84 -244.5zM636 332q0 133 -76.5 224t-196.5 91t-196.5 -91t-76.5 -224t76.5 -223.5t196.5 -90.5t196.5 90.5t76.5 223.5zM353 724l88 117h46l-103 -117h-31z" />
    <glyph glyph-name="Ocircumflex" unicode="&#xd4;" horiz-adv-x="726" 
d="M669 332q0 -145 -84 -244t-222 -99t-222 99t-84 244t84 244.5t222 99.5t222 -99.5t84 -244.5zM636 332q0 133 -76.5 224t-196.5 91t-196.5 -91t-76.5 -224t76.5 -223.5t196.5 -90.5t196.5 90.5t76.5 223.5zM243 724l105 117h30l105 -117h-34l-86 96l-86 -96h-34z" />
    <glyph glyph-name="Otilde" unicode="&#xd5;" horiz-adv-x="726" 
d="M669 332q0 -145 -84 -244t-222 -99t-222 99t-84 244t84 244.5t222 99.5t222 -99.5t84 -244.5zM636 332q0 133 -76.5 224t-196.5 91t-196.5 -91t-76.5 -224t76.5 -223.5t196.5 -90.5t196.5 90.5t76.5 223.5zM219 744q21 82 72 82q9 0 18 -2t19 -6.5t16 -7t18 -9.5t14 -8
q4 -2 15.5 -9t17 -9.5t14 -5.5t15.5 -3q13 0 22.5 10.5t12.5 19t11 33.5l24 -7q-22 -82 -67 -82q-21 0 -73 27q-5 2 -23 13t-29.5 15.5t-23.5 4.5q-13 0 -22.5 -9.5t-13.5 -19t-13 -34.5z" />
    <glyph glyph-name="Odieresis" unicode="&#xd6;" horiz-adv-x="726" 
d="M669 332q0 -145 -84 -244t-222 -99t-222 99t-84 244t84 244.5t222 99.5t222 -99.5t84 -244.5zM636 332q0 133 -76.5 224t-196.5 91t-196.5 -91t-76.5 -224t76.5 -223.5t196.5 -90.5t196.5 90.5t76.5 223.5zM434 750v65h41v-65h-41zM251 750v65h41v-65h-41z" />
    <glyph glyph-name="multiply" unicode="&#xd7;" horiz-adv-x="465" 
d="M413 58l-23 -24l-157 157l-157 -157l-24 24l157 156l-157 157l24 24l157 -157l157 157l23 -24l-157 -157z" />
    <glyph glyph-name="Oslash" unicode="&#xd8;" horiz-adv-x="726" 
d="M669 332q0 -145 -84 -244t-222 -99q-127 0 -211 87l-77 -87l-18 16l79 89q-79 96 -79 238q0 145 84 244.5t222 99.5q127 0 211 -87l77 87l18 -16l-79 -89q79 -96 79 -239zM553 564q-76 83 -190 83q-120 0 -196 -91t-76 -224q0 -124 68 -213zM636 332q0 125 -68 214
l-394 -445q76 -83 189 -83q120 0 196.5 90.5t76.5 223.5z" />
    <glyph glyph-name="Ugrave" unicode="&#xd9;" horiz-adv-x="684" 
d="M592 219q0 -96 -66 -163t-184 -67t-184 67.5t-66 162.5v447h33v-452q0 -87 61 -141.5t156 -54.5q94 0 155 54.5t61 141.5v452h34v-447zM334 724l-106 117h46l91 -117h-31z" />
    <glyph glyph-name="Uacute" unicode="&#xda;" horiz-adv-x="684" 
d="M592 219q0 -96 -66 -163t-184 -67t-184 67.5t-66 162.5v447h33v-452q0 -87 61 -141.5t156 -54.5q94 0 155 54.5t61 141.5v452h34v-447zM309 724l88 117h46l-103 -117h-31z" />
    <glyph glyph-name="Ucircumflex" unicode="&#xdb;" horiz-adv-x="684" 
d="M592 219q0 -96 -66 -163t-184 -67t-184 67.5t-66 162.5v447h33v-452q0 -87 61 -141.5t156 -54.5q94 0 155 54.5t61 141.5v452h34v-447zM222 724l105 117h30l105 -117h-34l-86 96l-86 -96h-34z" />
    <glyph glyph-name="Udieresis" unicode="&#xdc;" horiz-adv-x="684" 
d="M592 219q0 -96 -66 -163t-184 -67t-184 67.5t-66 162.5v447h33v-452q0 -87 61 -141.5t156 -54.5q94 0 155 54.5t61 141.5v452h34v-447zM413 750v65h41v-65h-41zM230 750v65h41v-65h-41z" />
    <glyph glyph-name="Yacute" unicode="&#xdd;" horiz-adv-x="592" 
d="M595 666l-282 -387v-279h-34v279l-282 387h36l263 -360l262 360h37zM286 724l88 117h46l-103 -117h-31z" />
    <glyph glyph-name="Thorn" unicode="&#xde;" horiz-adv-x="612" 
d="M585 339q0 -78 -51.5 -131.5t-143.5 -53.5h-255v-154h-33v666h33v-141h254q92 0 144 -54t52 -132zM552 339q0 69 -45 111.5t-110 42.5h-262v-308h263q65 0 109.5 42.5t44.5 111.5z" />
    <glyph glyph-name="germandbls" unicode="&#xdf;" horiz-adv-x="603" 
d="M556 119q0 -54 -42.5 -90.5t-113.5 -36.5q-82 0 -154 35l11 28q72 -32 141 -32q59 0 92 25.5t33 70.5q0 40 -25 66.5t-92 56.5q-57 25 -81.5 49.5t-24.5 66.5q0 24 11.5 44t28 35t33 30.5t28 37.5t11.5 49q0 45 -34 75.5t-90 30.5q-61 0 -94 -32.5t-33 -94.5v-533h-34
v456h-77v31h77v32q0 81 42 126.5t120 45.5q68 0 112.5 -38t44.5 -99q0 -36 -17.5 -66t-39 -47t-39 -39t-17.5 -44q0 -28 16 -44.5t78 -45.5q70 -32 99.5 -65.5t29.5 -83.5z" />
    <glyph glyph-name="agrave" unicode="&#xe0;" horiz-adv-x="496" 
d="M424 0h-34v65q-57 -73 -170 -73q-68 0 -116.5 36t-48.5 106q0 65 45 99t112 34h178v66q0 64 -35 98t-116 34q-78 0 -153 -15l-5 29q79 17 157 17q94 0 140 -41.5t46 -114.5v-340zM390 161v75h-178q-60 0 -92 -27.5t-32 -79.5q0 -49 38 -77.5t94 -28.5q71 0 120.5 38.5
t49.5 99.5zM234 545l-106 117h46l91 -117h-31z" />
    <glyph glyph-name="aacute" unicode="&#xe1;" horiz-adv-x="496" 
d="M424 0h-34v65q-57 -73 -170 -73q-68 0 -116.5 36t-48.5 106q0 65 45 99t112 34h178v66q0 64 -35 98t-116 34q-78 0 -153 -15l-5 29q79 17 157 17q94 0 140 -41.5t46 -114.5v-340zM390 161v75h-178q-60 0 -92 -27.5t-32 -79.5q0 -49 38 -77.5t94 -28.5q71 0 120.5 38.5
t49.5 99.5zM221 545l88 117h46l-103 -117h-31z" />
    <glyph glyph-name="acircumflex" unicode="&#xe2;" horiz-adv-x="496" 
d="M424 0h-34v65q-57 -73 -170 -73q-68 0 -116.5 36t-48.5 106q0 65 45 99t112 34h178v66q0 64 -35 98t-116 34q-78 0 -153 -15l-5 29q79 17 157 17q94 0 140 -41.5t46 -114.5v-340zM390 161v75h-178q-60 0 -92 -27.5t-32 -79.5q0 -49 38 -77.5t94 -28.5q71 0 120.5 38.5
t49.5 99.5zM122 545l105 117h30l105 -117h-34l-86 96l-86 -96h-34z" />
    <glyph glyph-name="atilde" unicode="&#xe3;" horiz-adv-x="496" 
d="M424 0h-34v65q-57 -73 -170 -73q-68 0 -116.5 36t-48.5 106q0 65 45 99t112 34h178v66q0 64 -35 98t-116 34q-78 0 -153 -15l-5 29q79 17 157 17q94 0 140 -41.5t46 -114.5v-340zM390 161v75h-178q-60 0 -92 -27.5t-32 -79.5q0 -49 38 -77.5t94 -28.5q71 0 120.5 38.5
t49.5 99.5zM98 565q21 82 72 82q9 0 18 -2t19 -6.5t16 -7t18 -9.5t14 -8q4 -2 15.5 -9t17 -9.5t14 -5.5t15.5 -3q13 0 22.5 10.5t12.5 19t11 33.5l24 -7q-22 -82 -67 -82q-21 0 -73 27q-5 2 -23 13t-29.5 15.5t-23.5 4.5q-13 0 -22.5 -9.5t-13.5 -19t-13 -34.5z" />
    <glyph glyph-name="adieresis" unicode="&#xe4;" horiz-adv-x="496" 
d="M424 0h-34v65q-57 -73 -170 -73q-68 0 -116.5 36t-48.5 106q0 65 45 99t112 34h178v66q0 64 -35 98t-116 34q-78 0 -153 -15l-5 29q79 17 157 17q94 0 140 -41.5t46 -114.5v-340zM390 161v75h-178q-60 0 -92 -27.5t-32 -79.5q0 -49 38 -77.5t94 -28.5q71 0 120.5 38.5
t49.5 99.5zM313 571v65h41v-65h-41zM130 571v65h41v-65h-41z" />
    <glyph glyph-name="aring" unicode="&#xe5;" horiz-adv-x="496" 
d="M424 0h-34v65q-57 -73 -170 -73q-68 0 -116.5 36t-48.5 106q0 65 45 99t112 34h178v66q0 64 -35 98t-116 34q-78 0 -153 -15l-5 29q79 17 157 17q94 0 140 -41.5t46 -114.5v-340zM390 161v75h-178q-60 0 -92 -27.5t-32 -79.5q0 -49 38 -77.5t94 -28.5q71 0 120.5 38.5
t49.5 99.5zM243 545q-30 0 -50 19.5t-20 46.5t20 47t50 20t49.5 -20t19.5 -47t-19.5 -46.5t-49.5 -19.5zM243 565q21 0 34.5 13t13.5 33t-13.5 33.5t-34.5 13.5t-34.5 -13.5t-13.5 -33.5t13.5 -33t34.5 -13z" />
    <glyph glyph-name="ae" unicode="&#xe6;" horiz-adv-x="854" 
d="M804 236h-385q4 -99 59.5 -156t148.5 -57q80 0 149 21l7 -28q-77 -24 -156 -24q-76 0 -131.5 34t-83.5 93q-16 -58 -65.5 -92.5t-127.5 -34.5q-68 0 -118.5 36t-50.5 106q0 66 41 99.5t107 33.5h187v66q0 64 -35 97.5t-116 33.5q-75 0 -153 -14l-6 29q78 17 158 17
q157 0 182 -118q59 118 185 118q99 0 151.5 -72.5t52.5 -177.5v-10zM385 169v67h-186q-115 0 -115 -107q0 -49 39 -77.5t96 -28.5q79 0 122.5 38.5t43.5 107.5zM770 267q-7 91 -50 144t-120 53q-79 0 -126 -54.5t-55 -142.5h351z" />
    <glyph glyph-name="ccedilla" unicode="&#xe7;" horiz-adv-x="462" 
d="M283 -181q-39 0 -70 14l4 20q27 -12 64 -12q54 0 54 42q0 40 -49 40q-29 0 -49 -4l23 74q-99 10 -155.5 79t-56.5 172q0 111 64.5 181.5t176.5 70.5q67 0 121 -17l-7 -27q-56 14 -110 14q-101 0 -156.5 -60.5t-55.5 -161.5t55 -161.5t157 -60.5q52 0 110 14l7 -27
q-56 -17 -121 -17h-7l-14 -49q8 2 29 2q29 0 47.5 -17.5t18.5 -45.5q0 -30 -23 -46.5t-57 -16.5z" />
    <glyph glyph-name="egrave" unicode="&#xe8;" horiz-adv-x="518" 
d="M467 235h-384q4 -99 60 -155.5t149 -56.5q70 0 148 21l8 -28q-77 -24 -156 -24q-111 0 -176.5 71t-65.5 181q0 106 58 179t156 73t150.5 -72.5t52.5 -177.5v-11zM435 267q-7 91 -50.5 144.5t-120.5 53.5q-79 0 -126 -54.5t-55 -143.5h352zM249 545l-106 117h46l91 -117
h-31z" />
    <glyph glyph-name="eacute" unicode="&#xe9;" horiz-adv-x="518" 
d="M467 235h-384q4 -99 60 -155.5t149 -56.5q70 0 148 21l8 -28q-77 -24 -156 -24q-111 0 -176.5 71t-65.5 181q0 106 58 179t156 73t150.5 -72.5t52.5 -177.5v-11zM435 267q-7 91 -50.5 144.5t-120.5 53.5q-79 0 -126 -54.5t-55 -143.5h352zM250 545l88 117h46l-103 -117
h-31z" />
    <glyph glyph-name="ecircumflex" unicode="&#xea;" horiz-adv-x="518" 
d="M467 235h-384q4 -99 60 -155.5t149 -56.5q70 0 148 21l8 -28q-77 -24 -156 -24q-111 0 -176.5 71t-65.5 181q0 106 58 179t156 73t150.5 -72.5t52.5 -177.5v-11zM435 267q-7 91 -50.5 144.5t-120.5 53.5q-79 0 -126 -54.5t-55 -143.5h352zM143 545l105 117h30l105 -117
h-34l-86 96l-86 -96h-34z" />
    <glyph glyph-name="edieresis" unicode="&#xeb;" horiz-adv-x="518" 
d="M467 235h-384q4 -99 60 -155.5t149 -56.5q70 0 148 21l8 -28q-77 -24 -156 -24q-111 0 -176.5 71t-65.5 181q0 106 58 179t156 73t150.5 -72.5t52.5 -177.5v-11zM435 267q-7 91 -50.5 144.5t-120.5 53.5q-79 0 -126 -54.5t-55 -143.5h352zM334 571v65h41v-65h-41z
M151 571v65h41v-65h-41z" />
    <glyph glyph-name="igrave" unicode="&#xec;" horiz-adv-x="207" 
d="M120 0h-33v487h33v-487zM84 545l-107 117h47l91 -117h-31z" />
    <glyph glyph-name="iacute" unicode="&#xed;" horiz-adv-x="207" 
d="M120 0h-33v487h33v-487zM94 545l88 117h46l-103 -117h-31z" />
    <glyph glyph-name="icircumflex" unicode="&#xee;" horiz-adv-x="207" 
d="M120 0h-33v487h33v-487zM-17 545l106 117h30l105 -117h-34l-86 96l-86 -96h-35z" />
    <glyph glyph-name="idieresis" unicode="&#xef;" horiz-adv-x="207" 
d="M120 0h-33v487h33v-487zM175 571v65h41v-65h-41zM-9 571v65h42v-65h-42z" />
    <glyph glyph-name="eth" unicode="&#xf0;" horiz-adv-x="513" 
d="M432 244q0 92 -45.5 156t-128.5 64t-128 -61.5t-45 -158.5t45 -159t128 -62t128.5 64.5t45.5 156.5zM466 254q0 -112 -54.5 -187t-149.5 -75q-103 0 -156.5 74.5t-53.5 177.5t53.5 177.5t156.5 74.5q53 0 97 -31.5t63 -83.5q-26 94 -72.5 154.5t-133.5 130.5h37
q53 -37 97 -86t80 -136.5t36 -189.5zM418 615l-179 -82l-13 23l177 81z" />
    <glyph glyph-name="ntilde" unicode="&#xf1;" horiz-adv-x="546" 
d="M464 0h-33v323q0 64 -32.5 101.5t-100.5 37.5q-71 0 -124 -58t-53 -152v-252h-34v487h34v-108q24 52 73 84.5t108 32.5q77 0 119.5 -47.5t42.5 -123.5v-325zM122 565q21 82 72 82q9 0 18 -2t19 -6.5t16 -7t18 -9.5t14 -8q49 -27 62 -27t22.5 10.5t12.5 19t11 33.5l24 -7
q-22 -82 -67 -82q-21 0 -73 27q-5 2 -23 13t-29.5 15.5t-23.5 4.5q-13 0 -22.5 -9.5t-13.5 -19t-13 -34.5z" />
    <glyph glyph-name="ograve" unicode="&#xf2;" horiz-adv-x="533" 
d="M481 244q0 -107 -57 -179.5t-157 -72.5t-157.5 73t-57.5 179t57.5 179t157.5 73t157 -72.5t57 -179.5zM448 244q0 99 -48.5 160t-132.5 61t-132.5 -61t-48.5 -160t48.5 -160t132.5 -61t132.5 61t48.5 160zM247 545l-106 117h46l91 -117h-31z" />
    <glyph glyph-name="oacute" unicode="&#xf3;" horiz-adv-x="533" 
d="M481 244q0 -107 -57 -179.5t-157 -72.5t-157.5 73t-57.5 179t57.5 179t157.5 73t157 -72.5t57 -179.5zM448 244q0 99 -48.5 160t-132.5 61t-132.5 -61t-48.5 -160t48.5 -160t132.5 -61t132.5 61t48.5 160zM257 545l88 117h46l-103 -117h-31z" />
    <glyph glyph-name="ocircumflex" unicode="&#xf4;" horiz-adv-x="533" 
d="M481 244q0 -107 -57 -179.5t-157 -72.5t-157.5 73t-57.5 179t57.5 179t157.5 73t157 -72.5t57 -179.5zM448 244q0 99 -48.5 160t-132.5 61t-132.5 -61t-48.5 -160t48.5 -160t132.5 -61t132.5 61t48.5 160zM147 545l105 117h30l105 -117h-34l-86 96l-86 -96h-34z" />
    <glyph glyph-name="otilde" unicode="&#xf5;" horiz-adv-x="533" 
d="M481 244q0 -107 -57 -179.5t-157 -72.5t-157.5 73t-57.5 179t57.5 179t157.5 73t157 -72.5t57 -179.5zM448 244q0 99 -48.5 160t-132.5 61t-132.5 -61t-48.5 -160t48.5 -160t132.5 -61t132.5 61t48.5 160zM122 565q21 82 72 82q9 0 18 -2t19 -6.5t16 -7t18 -9.5t14 -8
q49 -27 62 -27t22.5 10.5t12.5 19t11 33.5l24 -7q-22 -82 -67 -82q-21 0 -73 27q-5 2 -23 13t-29.5 15.5t-23.5 4.5q-13 0 -22.5 -9.5t-13.5 -19t-13 -34.5z" />
    <glyph glyph-name="odieresis" unicode="&#xf6;" horiz-adv-x="533" 
d="M481 244q0 -107 -57 -179.5t-157 -72.5t-157.5 73t-57.5 179t57.5 179t157.5 73t157 -72.5t57 -179.5zM448 244q0 99 -48.5 160t-132.5 61t-132.5 -61t-48.5 -160t48.5 -160t132.5 -61t132.5 61t48.5 160zM338 571v65h41v-65h-41zM155 571v65h41v-65h-41z" />
    <glyph glyph-name="divide" unicode="&#xf7;" horiz-adv-x="526" 
d="M469 177h-412v28h412v-28zM309 43q0 -19 -13 -32.5t-32 -13.5t-32.5 13.5t-13.5 32.5t13.5 32.5t32.5 13.5t32 -13.5t13 -32.5zM309 339q0 -19 -13 -32.5t-32 -13.5t-32.5 13.5t-13.5 32.5t13.5 32.5t32.5 13.5t32 -13.5t13 -32.5z" />
    <glyph glyph-name="oslash" unicode="&#xf8;" horiz-adv-x="533" 
d="M481 244q0 -107 -57 -179.5t-157 -72.5q-89 0 -147 60l-50 -60l-18 15l53 63q-53 70 -53 174q0 106 57.5 179t157.5 73q88 0 145 -59l51 61l18 -16l-53 -63q53 -70 53 -175zM448 244q0 92 -41 150l-266 -318q48 -53 126 -53q84 0 132.5 61t48.5 160zM392 412
q-49 52 -125 52q-84 0 -132.5 -61t-48.5 -159q0 -91 40 -149z" />
    <glyph glyph-name="ugrave" unicode="&#xf9;" horiz-adv-x="542" 
d="M455 0h-33v108q-24 -51 -73 -83.5t-108 -32.5q-77 0 -120 47t-43 123v325h33v-323q0 -64 33 -101.5t101 -37.5q71 0 124 58t53 152v252h33v-487zM264 545l-106 117h46l91 -117h-31z" />
    <glyph glyph-name="uacute" unicode="&#xfa;" horiz-adv-x="542" 
d="M455 0h-33v108q-24 -51 -73 -83.5t-108 -32.5q-77 0 -120 47t-43 123v325h33v-323q0 -64 33 -101.5t101 -37.5q71 0 124 58t53 152v252h33v-487zM246 545l88 117h46l-103 -117h-31z" />
    <glyph glyph-name="ucircumflex" unicode="&#xfb;" horiz-adv-x="542" 
d="M455 0h-33v108q-24 -51 -73 -83.5t-108 -32.5q-77 0 -120 47t-43 123v325h33v-323q0 -64 33 -101.5t101 -37.5q71 0 124 58t53 152v252h33v-487zM151 545l105 117h30l105 -117h-34l-86 96l-86 -96h-34z" />
    <glyph glyph-name="udieresis" unicode="&#xfc;" horiz-adv-x="542" 
d="M455 0h-33v108q-24 -51 -73 -83.5t-108 -32.5q-77 0 -120 47t-43 123v325h33v-323q0 -64 33 -101.5t101 -37.5q71 0 124 58t53 152v252h33v-487zM344 571v65h41v-65h-41zM161 571v65h41v-65h-41z" />
    <glyph glyph-name="yacute" unicode="&#xfd;" horiz-adv-x="446" 
d="M434 487l-268 -660h-33l70 173l-199 487h35l180 -449l181 449h34zM213 545l88 117h46l-103 -117h-31z" />
    <glyph glyph-name="thorn" unicode="&#xfe;" horiz-adv-x="554" 
d="M502 244q0 -48 -12.5 -91.5t-37 -80t-66.5 -58.5t-95 -22t-99 30t-71 82v-276h-34v838h34v-283q25 52 71 82.5t99 30.5t95 -22t66.5 -58.5t37 -80t12.5 -91.5zM468 244q0 97 -45 158.5t-128 61.5t-128.5 -64t-45.5 -156t45.5 -156.5t128.5 -64.5t128 62t45 159z" />
    <glyph glyph-name="ydieresis" unicode="&#xff;" horiz-adv-x="446" 
d="M434 487l-268 -660h-33l70 173l-199 487h35l180 -449l181 449h34zM294 571v65h41v-65h-41zM111 571v65h41v-65h-41z" />
    <glyph glyph-name="Amacron" unicode="&#x100;" 
d="M595 0h-33l-83 200h-342l-84 -200h-33l279 666h17zM467 229l-159 383l-159 -383h318zM179 773v27h258v-27h-258z" />
    <glyph glyph-name="amacron" unicode="&#x101;" horiz-adv-x="496" 
d="M424 0h-34v65q-57 -73 -170 -73q-68 0 -116.5 36t-48.5 106q0 65 45 99t112 34h178v66q0 64 -35 98t-116 34q-78 0 -153 -15l-5 29q79 17 157 17q94 0 140 -41.5t46 -114.5v-340zM390 161v75h-178q-60 0 -92 -27.5t-32 -79.5q0 -49 38 -77.5t94 -28.5q71 0 120.5 38.5
t49.5 99.5zM113 594v27h258v-27h-258z" />
    <glyph glyph-name="Abreve" unicode="&#x102;" 
d="M595 0h-33l-83 200h-342l-84 -200h-33l279 666h17zM467 229l-159 383l-159 -383h318zM186 834h25q0 -36 27 -59.5t71 -23.5t71 23.5t27 59.5h25q0 -46 -34.5 -75.5t-88.5 -29.5t-88.5 29.5t-34.5 75.5z" />
    <glyph glyph-name="abreve" unicode="&#x103;" horiz-adv-x="496" 
d="M424 0h-34v65q-57 -73 -170 -73q-68 0 -116.5 36t-48.5 106q0 65 45 99t112 34h178v66q0 64 -35 98t-116 34q-78 0 -153 -15l-5 29q79 17 157 17q94 0 140 -41.5t46 -114.5v-340zM390 161v75h-178q-60 0 -92 -27.5t-32 -79.5q0 -49 38 -77.5t94 -28.5q71 0 120.5 38.5
t49.5 99.5zM120 655h25q0 -36 27 -59.5t71 -23.5t71 23.5t27 59.5h25q0 -46 -34.5 -75.5t-88.5 -29.5t-88.5 29.5t-34.5 75.5z" />
    <glyph glyph-name="Aogonek" unicode="&#x104;" 
d="M467 229l-159 383l-159 -383h318zM562 0l-83 200h-342l-84 -200h-33l279 666h17l279 -666h-11q-67 -46 -67 -105q0 -53 54 -53q20 0 35 6l4 -21q-16 -8 -41 -8q-40 0 -60.5 21.5t-20.5 56.5q0 32 20.5 61t53.5 42z" />
    <glyph glyph-name="aogonek" unicode="&#x105;" horiz-adv-x="496" 
d="M390 161v75h-178q-60 0 -92 -27.5t-32 -79.5q0 -49 38 -77.5t94 -28.5q71 0 120.5 38.5t49.5 99.5zM390 0v65q-57 -73 -170 -73q-68 0 -116.5 36t-48.5 106q0 65 45 99t112 34h178v66q0 64 -35 98t-116 34q-78 0 -153 -15l-5 29q79 17 157 17q94 0 140 -41.5t46 -114.5
v-340h-12q-67 -46 -67 -105q0 -53 54 -53q20 0 35 6l4 -21q-16 -8 -41 -8q-40 0 -60.5 21.5t-20.5 56.5q0 32 20.5 61t53.5 42z" />
    <glyph glyph-name="Cacute" unicode="&#x106;" horiz-adv-x="626" 
d="M559 7q-75 -18 -157 -18q-160 0 -260 95t-100 248q0 154 98.5 249t261.5 95q89 0 156 -16l-6 -28q-80 14 -154 14q-87 0 -158.5 -34.5t-117.5 -107.5t-46 -172q0 -147 94.5 -230t227.5 -83q87 0 154 15zM358 724l88 117h46l-103 -117h-31z" />
    <glyph glyph-name="cacute" unicode="&#x107;" horiz-adv-x="462" 
d="M410 9q-56 -17 -121 -17q-111 0 -176 70.5t-65 181.5t64.5 181.5t176.5 70.5q67 0 121 -17l-7 -27q-56 14 -110 14q-101 0 -156.5 -60.5t-55.5 -161.5t55 -161.5t157 -60.5q52 0 110 14zM262 545l88 117h46l-103 -117h-31z" />
    <glyph glyph-name="Ccircumflex" unicode="&#x108;" horiz-adv-x="626" 
d="M559 7q-75 -18 -157 -18q-160 0 -260 95t-100 248q0 154 98.5 249t261.5 95q89 0 156 -16l-6 -28q-80 14 -154 14q-87 0 -158.5 -34.5t-117.5 -107.5t-46 -172q0 -147 94.5 -230t227.5 -83q87 0 154 15zM252 724l105 117h30l105 -117h-34l-86 96l-86 -96h-34z" />
    <glyph glyph-name="ccircumflex" unicode="&#x109;" horiz-adv-x="462" 
d="M410 9q-56 -17 -121 -17q-111 0 -176 70.5t-65 181.5t64.5 181.5t176.5 70.5q67 0 121 -17l-7 -27q-56 14 -110 14q-101 0 -156.5 -60.5t-55.5 -161.5t55 -161.5t157 -60.5q52 0 110 14zM156 545l105 117h30l105 -117h-34l-86 96l-86 -96h-34z" />
    <glyph glyph-name="Cdotaccent" unicode="&#x10a;" horiz-adv-x="626" 
d="M559 7q-75 -18 -157 -18q-160 0 -260 95t-100 248q0 154 98.5 249t261.5 95q89 0 156 -16l-6 -28q-80 14 -154 14q-87 0 -158.5 -34.5t-117.5 -107.5t-46 -172q0 -147 94.5 -230t227.5 -83q87 0 154 15zM365 744v82h33v-82h-33z" />
    <glyph glyph-name="cdotaccent" unicode="&#x10b;" horiz-adv-x="462" 
d="M410 9q-56 -17 -121 -17q-111 0 -176 70.5t-65 181.5t64.5 181.5t176.5 70.5q67 0 121 -17l-7 -27q-56 14 -110 14q-101 0 -156.5 -60.5t-55.5 -161.5t55 -161.5t157 -60.5q52 0 110 14zM262 565v82h33v-82h-33z" />
    <glyph glyph-name="Ccaron" unicode="&#x10c;" horiz-adv-x="626" 
d="M559 7q-75 -18 -157 -18q-160 0 -260 95t-100 248q0 154 98.5 249t261.5 95q89 0 156 -16l-6 -28q-80 14 -154 14q-87 0 -158.5 -34.5t-117.5 -107.5t-46 -172q0 -147 94.5 -230t227.5 -83q87 0 154 15zM256 841h34l86 -96l86 96h34l-105 -117h-30z" />
    <glyph glyph-name="ccaron" unicode="&#x10d;" horiz-adv-x="462" 
d="M410 9q-56 -17 -121 -17q-111 0 -176 70.5t-65 181.5t64.5 181.5t176.5 70.5q67 0 121 -17l-7 -27q-56 14 -110 14q-101 0 -156.5 -60.5t-55.5 -161.5t55 -161.5t157 -60.5q52 0 110 14zM167 662h34l86 -96l86 96h34l-105 -117h-30z" />
    <glyph glyph-name="Dcaron" unicode="&#x10e;" horiz-adv-x="652" 
d="M610 333q0 -145 -109.5 -239t-272.5 -94h-126v666h126q163 0 272.5 -94.5t109.5 -238.5zM577 333q0 92 -50.5 162t-128 105t-167.5 35h-96v-604h96q139 0 242.5 82.5t103.5 219.5zM189 841h34l86 -96l86 96h34l-105 -117h-30z" />
    <glyph glyph-name="dcaron" unicode="&#x10f;" horiz-adv-x="646" 
d="M466 0h-33v104q-25 -52 -71.5 -82t-99.5 -30q-103 0 -156.5 74.5t-53.5 177.5t53.5 177.5t156.5 74.5q53 0 99.5 -30.5t71.5 -82.5v283h33v-666zM433 244q0 92 -46 156t-129 64t-128 -61.5t-45 -158.5t45 -159t128 -62t129 64.5t46 156.5zM590 666h46v-76l-23 -74h-22
l22 74h-23v76z" />
    <glyph glyph-name="Dcroat" unicode="&#x110;" horiz-adv-x="660" 
d="M236 0h-126v319h-85v29h85v318h126q163 0 272.5 -94.5t109.5 -238.5q0 -145 -109.5 -239t-272.5 -94zM143 31h96q139 0 242.5 82.5t103.5 219.5q0 92 -50.5 162t-128 105t-167.5 35h-96v-287h166v-29h-166v-288z" />
    <glyph glyph-name="dcroat" unicode="&#x111;" horiz-adv-x="556" 
d="M433 244q0 92 -46 156t-129 64t-128 -61.5t-45 -158.5t45 -159t128 -62t129 64.5t46 156.5zM433 104q-25 -52 -71.5 -82t-99.5 -30q-103 0 -156.5 74.5t-53.5 177.5t53.5 177.5t156.5 74.5q53 0 99.5 -30.5t71.5 -82.5v177h-149v27h149v79h33v-79h60v-27h-60v-560h-33
v104z" />
    <glyph glyph-name="Emacron" unicode="&#x112;" horiz-adv-x="604" 
d="M532 0h-430v666h430v-31h-397v-273h371v-31h-371v-300h397v-31zM187 773v27h258v-27h-258z" />
    <glyph glyph-name="emacron" unicode="&#x113;" horiz-adv-x="518" 
d="M467 235h-384q4 -99 60 -155.5t149 -56.5q70 0 148 21l8 -28q-77 -24 -156 -24q-111 0 -176.5 71t-65.5 181q0 106 58 179t156 73t150.5 -72.5t52.5 -177.5v-11zM435 267q-7 91 -50.5 144.5t-120.5 53.5q-79 0 -126 -54.5t-55 -143.5h352zM134 594v27h258v-27h-258z" />
    <glyph glyph-name="Ebreve" unicode="&#x114;" horiz-adv-x="604" 
d="M532 0h-430v666h430v-31h-397v-273h371v-31h-371v-300h397v-31zM199 834h25q0 -36 27 -59.5t71 -23.5t71 23.5t27 59.5h25q0 -46 -34.5 -75.5t-88.5 -29.5t-88.5 29.5t-34.5 75.5z" />
    <glyph glyph-name="ebreve" unicode="&#x115;" horiz-adv-x="518" 
d="M467 235h-384q4 -99 60 -155.5t149 -56.5q70 0 148 21l8 -28q-77 -24 -156 -24q-111 0 -176.5 71t-65.5 181q0 106 58 179t156 73t150.5 -72.5t52.5 -177.5v-11zM435 267q-7 91 -50.5 144.5t-120.5 53.5q-79 0 -126 -54.5t-55 -143.5h352zM141 655h25q0 -36 27 -59.5
t71 -23.5t71 23.5t27 59.5h25q0 -46 -34.5 -75.5t-88.5 -29.5t-88.5 29.5t-34.5 75.5z" />
    <glyph glyph-name="Edotaccent" unicode="&#x116;" horiz-adv-x="604" 
d="M532 0h-430v666h430v-31h-397v-273h371v-31h-371v-300h397v-31zM299 744v82h33v-82h-33z" />
    <glyph glyph-name="edotaccent" unicode="&#x117;" horiz-adv-x="518" 
d="M467 235h-384q4 -99 60 -155.5t149 -56.5q70 0 148 21l8 -28q-77 -24 -156 -24q-111 0 -176.5 71t-65.5 181q0 106 58 179t156 73t150.5 -72.5t52.5 -177.5v-11zM435 267q-7 91 -50.5 144.5t-120.5 53.5q-79 0 -126 -54.5t-55 -143.5h352zM247 565v82h33v-82h-33z" />
    <glyph glyph-name="Eogonek" unicode="&#x118;" horiz-adv-x="604" 
d="M455 0h-353v666h430v-31h-397v-273h371v-31h-371v-300h397v-31h-55q-67 -46 -67 -105q0 -53 54 -53q20 0 35 6l4 -21q-16 -8 -41 -8q-40 0 -60.5 21.5t-20.5 56.5q0 32 20.5 61t53.5 42z" />
    <glyph glyph-name="eogonek" unicode="&#x119;" horiz-adv-x="518" 
d="M411 -181q-40 0 -60.5 21.5t-20.5 56.5q0 31 19 59.5t48 46.5q-50 -11 -105 -11q-111 0 -176.5 71t-65.5 181q0 106 58 179t156 73t150.5 -72.5t52.5 -177.5v-11h-384q4 -99 60 -155.5t149 -56.5q70 0 148 21l8 -28q-89 -55 -89 -121q0 -53 54 -53q20 0 35 6l4 -21
q-16 -8 -41 -8zM435 267q-7 91 -50.5 144.5t-120.5 53.5q-79 0 -126 -54.5t-55 -143.5h352z" />
    <glyph glyph-name="Ecaron" unicode="&#x11a;" horiz-adv-x="604" 
d="M532 0h-430v666h430v-31h-397v-273h371v-31h-371v-300h397v-31zM195 841h34l86 -96l86 96h34l-105 -117h-30z" />
    <glyph glyph-name="ecaron" unicode="&#x11b;" horiz-adv-x="518" 
d="M467 235h-384q4 -99 60 -155.5t149 -56.5q70 0 148 21l8 -28q-77 -24 -156 -24q-111 0 -176.5 71t-65.5 181q0 106 58 179t156 73t150.5 -72.5t52.5 -177.5v-11zM435 267q-7 91 -50.5 144.5t-120.5 53.5q-79 0 -126 -54.5t-55 -143.5h352zM143 662h34l86 -96l86 96h34
l-105 -117h-30z" />
    <glyph glyph-name="Gcircumflex" unicode="&#x11c;" horiz-adv-x="676" 
d="M594 22q-82 -33 -187 -33q-158 0 -261.5 94t-103.5 249q0 158 94.5 251t256.5 93q101 0 187 -27l-6 -27q-98 24 -182 24q-143 0 -229.5 -83.5t-86.5 -230.5q0 -144 94.5 -228.5t236.5 -84.5q78 0 154 23v241h33v-261zM252 724l105 117h30l105 -117h-34l-86 96l-86 -96
h-34z" />
    <glyph glyph-name="gcircumflex" unicode="&#x11d;" horiz-adv-x="545" 
d="M463 38q0 -100 -53.5 -159t-161.5 -59q-88 0 -156 31l6 25q79 -27 150 -27q181 0 181 195v69q-25 -52 -71 -82t-99 -30q-104 0 -157.5 72.5t-53.5 174.5t53.5 175t157.5 73q53 0 99 -30t71 -82v103h34v-449zM429 248q0 91 -45.5 154t-129.5 63q-83 0 -127.5 -60.5
t-44.5 -156.5t44.5 -156t127.5 -60q84 0 129.5 62.5t45.5 153.5zM153 545l105 117h30l105 -117h-34l-86 96l-86 -96h-34z" />
    <glyph glyph-name="Gbreve" unicode="&#x11e;" horiz-adv-x="676" 
d="M594 22q-82 -33 -187 -33q-158 0 -261.5 94t-103.5 249q0 158 94.5 251t256.5 93q101 0 187 -27l-6 -27q-98 24 -182 24q-143 0 -229.5 -83.5t-86.5 -230.5q0 -144 94.5 -228.5t236.5 -84.5q78 0 154 23v241h33v-261zM253 834h25q0 -36 27 -59.5t71 -23.5t71 23.5
t27 59.5h25q0 -46 -34.5 -75.5t-88.5 -29.5t-88.5 29.5t-34.5 75.5z" />
    <glyph glyph-name="gbreve" unicode="&#x11f;" horiz-adv-x="545" 
d="M463 38q0 -100 -53.5 -159t-161.5 -59q-88 0 -156 31l6 25q79 -27 150 -27q181 0 181 195v69q-25 -52 -71 -82t-99 -30q-104 0 -157.5 72.5t-53.5 174.5t53.5 175t157.5 73q53 0 99 -30t71 -82v103h34v-449zM429 248q0 91 -45.5 154t-129.5 63q-83 0 -127.5 -60.5
t-44.5 -156.5t44.5 -156t127.5 -60q84 0 129.5 62.5t45.5 153.5zM149 655h25q0 -36 27 -59.5t71 -23.5t71 23.5t27 59.5h25q0 -46 -34.5 -75.5t-88.5 -29.5t-88.5 29.5t-34.5 75.5z" />
    <glyph glyph-name="Gdotaccent" unicode="&#x120;" horiz-adv-x="676" 
d="M594 22q-82 -33 -187 -33q-158 0 -261.5 94t-103.5 249q0 158 94.5 251t256.5 93q101 0 187 -27l-6 -27q-98 24 -182 24q-143 0 -229.5 -83.5t-86.5 -230.5q0 -144 94.5 -228.5t236.5 -84.5q78 0 154 23v241h33v-261zM356 744v82h33v-82h-33z" />
    <glyph glyph-name="gdotaccent" unicode="&#x121;" horiz-adv-x="545" 
d="M463 38q0 -100 -53.5 -159t-161.5 -59q-88 0 -156 31l6 25q79 -27 150 -27q181 0 181 195v69q-25 -52 -71 -82t-99 -30q-104 0 -157.5 72.5t-53.5 174.5t53.5 175t157.5 73q53 0 99 -30t71 -82v103h34v-449zM429 248q0 91 -45.5 154t-129.5 63q-83 0 -127.5 -60.5
t-44.5 -156.5t44.5 -156t127.5 -60q84 0 129.5 62.5t45.5 153.5zM248 565v82h33v-82h-33z" />
    <glyph glyph-name="uni0122" unicode="&#x122;" horiz-adv-x="676" 
d="M594 22q-82 -33 -187 -33q-158 0 -261.5 94t-103.5 249q0 158 94.5 251t256.5 93q101 0 187 -27l-6 -27q-98 24 -182 24q-143 0 -229.5 -83.5t-86.5 -230.5q0 -144 94.5 -228.5t236.5 -84.5q78 0 154 23v241h33v-261zM378 -58h46v-76l-23 -74h-22l22 74h-23v76z" />
    <glyph glyph-name="uni0123" unicode="&#x123;" horiz-adv-x="545" 
d="M463 38q0 -100 -53.5 -159t-161.5 -59q-88 0 -156 31l6 25q79 -27 150 -27q181 0 181 195v69q-25 -52 -71 -82t-99 -30q-104 0 -157.5 72.5t-53.5 174.5t53.5 175t157.5 73q53 0 99 -30t71 -82v103h34v-449zM429 248q0 91 -45.5 154t-129.5 63q-83 0 -127.5 -60.5
t-44.5 -156.5t44.5 -156t127.5 -60q84 0 129.5 62.5t45.5 153.5zM244 545l103 117h31l-88 -117h-46z" />
    <glyph glyph-name="Hcircumflex" unicode="&#x124;" horiz-adv-x="672" 
d="M570 0h-33v331h-402v-331h-33v666h33v-304h402v304h33v-666zM216 724l105 117h30l105 -117h-34l-86 96l-86 -96h-34z" />
    <glyph glyph-name="hcircumflex" unicode="&#x125;" horiz-adv-x="546" 
d="M464 0h-33v323q0 64 -33 101.5t-101 37.5q-71 0 -123.5 -58t-52.5 -152v-252h-34v666h34v-287q24 52 73 84.5t108 32.5q77 0 119.5 -47.5t42.5 -123.5v-325zM-15 724l105 117h30l105 -117h-34l-86 96l-86 -96h-34z" />
    <glyph glyph-name="Hbar" unicode="&#x126;" horiz-adv-x="718" 
d="M158 362h402v141h-402v-141zM158 331v-331h-33v503h-80v28h80v135h33v-135h402v135h33v-135h80v-28h-80v-503h-33v331h-402z" />
    <glyph glyph-name="hbar" unicode="&#x127;" horiz-adv-x="546" 
d="M121 252v-252h-34v560h-60v27h60v79h34v-79h132v-27h-132v-181q24 52 73 84.5t108 32.5q77 0 119.5 -47.5t42.5 -123.5v-325h-33v323q0 64 -33 101.5t-101 37.5q-71 0 -123.5 -58t-52.5 -152z" />
    <glyph glyph-name="Itilde" unicode="&#x128;" horiz-adv-x="247" 
d="M140 0h-33v666h33v-666zM-21 744q21 82 72 82q9 0 18 -2t19 -6.5t16 -7t18 -9.5t14 -8q4 -2 15.5 -9t17 -9.5t14 -5.5t15.5 -3q13 0 22.5 10.5t12.5 19t11 33.5l24 -7q-22 -82 -67 -82q-21 0 -73 27q-5 2 -23 13t-29.5 15.5t-23.5 4.5q-13 0 -22.5 -9.5t-13.5 -19
t-13 -34.5z" />
    <glyph glyph-name="itilde" unicode="&#x129;" horiz-adv-x="207" 
d="M120 0h-33v487h33v-487zM-41 565q21 82 72 82q9 0 18 -2t19 -6.5t16 -7t18 -9.5t14 -8q49 -27 62 -27t22.5 10.5t12.5 19t11 33.5l24 -7q-22 -82 -67 -82q-21 0 -73 27q-5 2 -23 13t-29.5 15.5t-23.5 4.5q-13 0 -22.5 -9.5t-13.5 -19t-13 -34.5z" />
    <glyph glyph-name="Imacron" unicode="&#x12a;" horiz-adv-x="247" 
d="M140 0h-33v666h33v-666zM-6 773v27h259v-27h-259z" />
    <glyph glyph-name="imacron" unicode="&#x12b;" horiz-adv-x="207" 
d="M120 0h-33v487h33v-487zM-26 594v27h259v-27h-259z" />
    <glyph glyph-name="Ibreve" unicode="&#x12c;" horiz-adv-x="247" 
d="M140 0h-33v666h33v-666zM2 834h25q0 -36 27 -59.5t71 -23.5t71 23.5t27 59.5h25q0 -46 -34.5 -75.5t-88.5 -29.5t-88.5 29.5t-34.5 75.5z" />
    <glyph glyph-name="ibreve" unicode="&#x12d;" horiz-adv-x="207" 
d="M120 0h-33v487h33v-487zM-19 655h26q0 -36 27 -59.5t71 -23.5t71 23.5t27 59.5h25q0 -46 -34.5 -75.5t-88.5 -29.5q-55 0 -89.5 29.5t-34.5 75.5z" />
    <glyph glyph-name="Iogonek" unicode="&#x12e;" horiz-adv-x="247" 
d="M107 0v666h33v-666h-11q-55 -46 -55 -103q0 -55 50 -55q15 0 27 4l4 -21q-14 -6 -33 -6q-77 0 -77 78q0 33 17 61.5t45 41.5z" />
    <glyph glyph-name="iogonek" unicode="&#x12f;" horiz-adv-x="207" 
d="M120 568h-33v92h33v-92zM87 0v487h33v-487h-11q-49 -52 -49 -106q0 -52 46 -52q11 0 25 4l4 -21q-15 -6 -31 -6q-36 0 -54.5 20.5t-18.5 54.5q0 32 15 60.5t41 45.5z" />
    <glyph glyph-name="Idotaccent" unicode="&#x130;" horiz-adv-x="247" 
d="M140 0h-33v666h33v-666zM107 744v82h33v-82h-33z" />
    <glyph glyph-name="dotlessi" unicode="&#x131;" horiz-adv-x="207" 
d="M120 0h-33v487h33v-487z" />
    <glyph glyph-name="IJ" unicode="&#x132;" horiz-adv-x="702" 
d="M140 0h-33v666h33v-666zM610 184q0 -78 -48.5 -131t-130.5 -53h-127v31h125q72 0 109.5 44.5t37.5 108.5v451h-254v31h288v-482z" />
    <glyph glyph-name="ij" unicode="&#x133;" horiz-adv-x="438" 
d="M120 0h-33v487h33v-487zM120 568h-33v92h33v-92zM356 -58q0 -123 -109 -123q-31 0 -68 12l6 27q40 -10 65 -10q73 0 73 92v547h33v-545zM356 568h-33v92h33v-92z" />
    <glyph glyph-name="Jcircumflex" unicode="&#x134;" horiz-adv-x="455" 
d="M363 184q0 -78 -48.5 -131t-130.5 -53h-127v31h125q72 0 109.5 44.5t37.5 108.5v451h-254v31h288v-482zM108 724l105 117h30l105 -117h-34l-86 96l-86 -96h-34z" />
    <glyph glyph-name="jcircumflex" unicode="&#x135;" horiz-adv-x="231" 
d="M149 -58q0 -123 -109 -123q-30 0 -68 12l6 27q40 -10 65 -10q73 0 73 92v547h33v-545zM10 545l105 117h30l105 -117h-34l-86 96l-86 -96h-34z" />
    <glyph glyph-name="uni0136" unicode="&#x136;" horiz-adv-x="596" 
d="M579 0h-46l-397 330v-330h-34v666h34v-308l370 308h46l-385 -323zM296 -58h46v-76l-23 -74h-22l22 74h-23v76z" />
    <glyph glyph-name="uni0137" unicode="&#x137;" horiz-adv-x="451" 
d="M439 0h-50l-268 229v-229h-34v666h34v-389l246 210h49l-277 -235zM222 -58h46v-76l-23 -74h-22l22 74h-23v76z" />
    <glyph glyph-name="kgreenlandic" unicode="&#x138;" horiz-adv-x="451" 
d="M439 0h-50l-268 229v-229h-34v487h34v-210l246 210h49l-277 -235z" />
    <glyph glyph-name="Lacute" unicode="&#x139;" horiz-adv-x="525" 
d="M493 0h-391v666h33v-635h358v-31zM108 724l88 117h46l-103 -117h-31z" />
    <glyph glyph-name="lacute" unicode="&#x13a;" horiz-adv-x="281" 
d="M234 -6h-40q-112 0 -112 125v547h33v-556q0 -87 75 -87h44v-29zM89 724l88 117h46l-103 -117h-31z" />
    <glyph glyph-name="uni013B" unicode="&#x13b;" horiz-adv-x="525" 
d="M493 0h-391v666h33v-635h358v-31zM286 -58h46v-76l-23 -74h-22l22 74h-23v76z" />
    <glyph glyph-name="uni013C" unicode="&#x13c;" horiz-adv-x="281" 
d="M234 -6h-40q-112 0 -112 125v547h33v-556q0 -87 75 -87h44v-29zM123 -58h46v-76l-23 -74h-22l22 74h-23v76z" />
    <glyph glyph-name="Lcaron" unicode="&#x13d;" horiz-adv-x="525" 
d="M493 0h-391v666h33v-635h358v-31zM330 666h46v-76l-23 -74h-22l22 74h-23v76z" />
    <glyph glyph-name="lcaron" unicode="&#x13e;" horiz-adv-x="306" 
d="M234 -6h-40q-112 0 -112 125v547h33v-556q0 -87 75 -87h44v-29zM245 666h46v-76l-23 -74h-22l22 74h-23v76z" />
    <glyph glyph-name="Ldot" unicode="&#x13f;" horiz-adv-x="525" 
d="M493 0h-391v666h33v-635h358v-31zM346 252h-47v94h47v-94z" />
    <glyph glyph-name="ldot" unicode="&#x140;" horiz-adv-x="354" 
d="M234 -6h-40q-112 0 -112 125v547h33v-556q0 -87 75 -87h44v-29zM304 246h-47v94h47v-94z" />
    <glyph glyph-name="Lslash" unicode="&#x141;" horiz-adv-x="537" 
d="M505 0h-391v292l-84 -59v34l84 59v340h33v-317l211 148v-34l-211 -148v-284h358v-31z" />
    <glyph glyph-name="lslash" unicode="&#x142;" horiz-adv-x="286" 
d="M239 -6h-40q-112 0 -112 125v218l-65 -60v40l65 60v289h33v-258l96 89v-40l-96 -89v-258q0 -87 75 -87h44v-29z" />
    <glyph glyph-name="Nacute" unicode="&#x143;" horiz-adv-x="720" 
d="M618 0h-31l-454 615v-615h-31v666h31l454 -614v614h31v-666zM330 724l88 117h46l-103 -117h-31z" />
    <glyph glyph-name="nacute" unicode="&#x144;" horiz-adv-x="546" 
d="M464 0h-33v323q0 64 -32.5 101.5t-100.5 37.5q-71 0 -124 -58t-53 -152v-252h-34v487h34v-108q24 52 73 84.5t108 32.5q77 0 119.5 -47.5t42.5 -123.5v-325zM243 545l88 117h46l-103 -117h-31z" />
    <glyph glyph-name="uni0145" unicode="&#x145;" horiz-adv-x="720" 
d="M618 0h-31l-454 615v-615h-31v666h31l454 -614v614h31v-666zM337 -58h46v-76l-23 -74h-22l22 74h-23v76z" />
    <glyph glyph-name="uni0146" unicode="&#x146;" horiz-adv-x="546" 
d="M464 0h-33v323q0 64 -32.5 101.5t-100.5 37.5q-71 0 -124 -58t-53 -152v-252h-34v487h34v-108q24 52 73 84.5t108 32.5q77 0 119.5 -47.5t42.5 -123.5v-325zM259 -58h46v-76l-23 -74h-22l22 74h-23v76z" />
    <glyph glyph-name="Ncaron" unicode="&#x147;" horiz-adv-x="720" 
d="M618 0h-31l-454 615v-615h-31v666h31l454 -614v614h31v-666zM240 841h34l86 -96l86 96h34l-105 -117h-30z" />
    <glyph glyph-name="ncaron" unicode="&#x148;" horiz-adv-x="546" 
d="M464 0h-33v323q0 64 -32.5 101.5t-100.5 37.5q-71 0 -124 -58t-53 -152v-252h-34v487h34v-108q24 52 73 84.5t108 32.5q77 0 119.5 -47.5t42.5 -123.5v-325zM146 662h34l86 -96l86 96h34l-105 -117h-30z" />
    <glyph glyph-name="napostrophe" unicode="&#x149;" horiz-adv-x="653" 
d="M571 0h-33v323q0 64 -32.5 101.5t-100.5 37.5q-71 0 -124 -58t-53 -152v-252h-34v487h34v-108q24 52 73 84.5t108 32.5q77 0 119.5 -47.5t42.5 -123.5v-325zM35 666h46v-76l-23 -74h-22l22 74h-23v76z" />
    <glyph glyph-name="Eng" unicode="&#x14a;" horiz-adv-x="720" 
d="M509 -181q-31 0 -68 12l6 27q40 -10 65 -10q75 0 75 92v60l-454 615v-615h-31v666h31l454 -614v614h31v-724q0 -123 -109 -123z" />
    <glyph glyph-name="eng" unicode="&#x14b;" horiz-adv-x="546" 
d="M355 -180q-31 0 -68 12l6 27q40 -10 65 -10q73 0 73 92v382q0 64 -32.5 101.5t-100.5 37.5q-71 0 -124 -58t-53 -152v-252h-34v487h34v-108q24 52 73 84.5t108 32.5q77 0 119.5 -47.5t42.5 -123.5v-382q0 -123 -109 -123z" />
    <glyph glyph-name="Omacron" unicode="&#x14c;" horiz-adv-x="726" 
d="M669 332q0 -145 -84 -244t-222 -99t-222 99t-84 244t84 244.5t222 99.5t222 -99.5t84 -244.5zM636 332q0 133 -76.5 224t-196.5 91t-196.5 -91t-76.5 -224t76.5 -223.5t196.5 -90.5t196.5 90.5t76.5 223.5zM234 773v27h258v-27h-258z" />
    <glyph glyph-name="omacron" unicode="&#x14d;" horiz-adv-x="533" 
d="M481 244q0 -107 -57 -179.5t-157 -72.5t-157.5 73t-57.5 179t57.5 179t157.5 73t157 -72.5t57 -179.5zM448 244q0 99 -48.5 160t-132.5 61t-132.5 -61t-48.5 -160t48.5 -160t132.5 -61t132.5 61t48.5 160zM138 594v27h258v-27h-258z" />
    <glyph glyph-name="Obreve" unicode="&#x14e;" horiz-adv-x="726" 
d="M669 332q0 -145 -84 -244t-222 -99t-222 99t-84 244t84 244.5t222 99.5t222 -99.5t84 -244.5zM636 332q0 133 -76.5 224t-196.5 91t-196.5 -91t-76.5 -224t76.5 -223.5t196.5 -90.5t196.5 90.5t76.5 223.5zM241 834h25q0 -36 27 -59.5t71 -23.5t71 23.5t27 59.5h25
q0 -46 -34.5 -75.5t-88.5 -29.5t-88.5 29.5t-34.5 75.5z" />
    <glyph glyph-name="obreve" unicode="&#x14f;" horiz-adv-x="533" 
d="M481 244q0 -107 -57 -179.5t-157 -72.5t-157.5 73t-57.5 179t57.5 179t157.5 73t157 -72.5t57 -179.5zM448 244q0 99 -48.5 160t-132.5 61t-132.5 -61t-48.5 -160t48.5 -160t132.5 -61t132.5 61t48.5 160zM145 655h25q0 -36 27 -59.5t71 -23.5t71 23.5t27 59.5h25
q0 -46 -34.5 -75.5t-88.5 -29.5t-88.5 29.5t-34.5 75.5z" />
    <glyph glyph-name="Ohungarumlaut" unicode="&#x150;" horiz-adv-x="726" 
d="M669 332q0 -145 -84 -244t-222 -99t-222 99t-84 244t84 244.5t222 99.5t222 -99.5t84 -244.5zM636 332q0 133 -76.5 224t-196.5 91t-196.5 -91t-76.5 -224t76.5 -223.5t196.5 -90.5t196.5 90.5t76.5 223.5zM255 724l77 117h45l-90 -117h-32zM432 724l77 117h45l-90 -117
h-32z" />
    <glyph glyph-name="ohungarumlaut" unicode="&#x151;" horiz-adv-x="533" 
d="M481 244q0 -107 -57 -179.5t-157 -72.5t-157.5 73t-57.5 179t57.5 179t157.5 73t157 -72.5t57 -179.5zM448 244q0 99 -48.5 160t-132.5 61t-132.5 -61t-48.5 -160t48.5 -160t132.5 -61t132.5 61t48.5 160zM168 545l77 117h45l-90 -117h-32zM345 545l77 117h45l-90 -117
h-32z" />
    <glyph glyph-name="OE" unicode="&#x152;" horiz-adv-x="998" 
d="M926 0h-563q-139 0 -222.5 94.5t-83.5 238.5q0 143 82 238t219 95h568v-31h-397v-273h371v-31h-371v-300h397v-31zM496 29v608h-134q-121 0 -196.5 -86t-75.5 -218t76 -218t197 -86h133z" />
    <glyph glyph-name="oe" unicode="&#x153;" horiz-adv-x="916" 
d="M866 235h-385q4 -99 59.5 -155.5t148.5 -56.5q80 0 149 21l7 -28q-77 -24 -156 -24q-82 0 -140.5 40t-83.5 109q-23 -68 -74 -108.5t-125 -40.5q-100 0 -157 72.5t-57 179.5t57 179.5t157 72.5q74 0 124.5 -40t73.5 -108q23 67 74.5 107.5t123.5 40.5q99 0 151.5 -72.5
t52.5 -177.5v-11zM447 244q0 98 -48.5 159t-132.5 61t-132.5 -61t-48.5 -159q0 -99 48.5 -160t132.5 -61t132.5 61t48.5 160zM832 267q-7 91 -50 144t-120 53q-79 0 -126 -54.5t-55 -142.5h351z" />
    <glyph glyph-name="Racute" unicode="&#x154;" horiz-adv-x="690" 
d="M558 483q0 69 -45 110.5t-110 41.5h-268v-304h268q65 0 110 41.5t45 110.5zM663 0h-39l-221 300h-268v-300h-33v666h293q93 0 144.5 -52.5t51.5 -130.5q0 -67 -40 -117.5t-112 -62.5zM297 724l88 117h46l-103 -117h-31z" />
    <glyph glyph-name="racute" unicode="&#x155;" horiz-adv-x="332" 
d="M314 462q-83 0 -138 -61t-55 -134v-267h-34v487h34v-114q29 54 78.5 88.5t114.5 34.5v-34zM160 545l88 117h46l-103 -117h-31z" />
    <glyph glyph-name="uni0156" unicode="&#x156;" horiz-adv-x="690" 
d="M558 483q0 69 -45 110.5t-110 41.5h-268v-304h268q65 0 110 41.5t45 110.5zM663 0h-39l-221 300h-268v-300h-33v666h293q93 0 144.5 -52.5t51.5 -130.5q0 -67 -40 -117.5t-112 -62.5zM325 -58h46v-76l-23 -74h-22l22 74h-23v76z" />
    <glyph glyph-name="uni0157" unicode="&#x157;" horiz-adv-x="332" 
d="M314 462q-83 0 -138 -61t-55 -134v-267h-34v487h34v-114q29 54 78.5 88.5t114.5 34.5v-34zM81 -58h46v-76l-23 -74h-22l22 74h-23v76z" />
    <glyph glyph-name="Rcaron" unicode="&#x158;" horiz-adv-x="690" 
d="M558 483q0 69 -45 110.5t-110 41.5h-268v-304h268q65 0 110 41.5t45 110.5zM663 0h-39l-221 300h-268v-300h-33v666h293q93 0 144.5 -52.5t51.5 -130.5q0 -67 -40 -117.5t-112 -62.5zM198 841h34l86 -96l86 96h34l-105 -117h-30z" />
    <glyph glyph-name="rcaron" unicode="&#x159;" horiz-adv-x="332" 
d="M314 462q-83 0 -138 -61t-55 -134v-267h-34v487h34v-114q29 54 78.5 88.5t114.5 34.5v-34zM70 662h34l86 -96l86 96h34l-105 -117h-30z" />
    <glyph glyph-name="Sacute" unicode="&#x15a;" 
d="M563 151q0 -68 -63 -115t-172 -47q-131 0 -261 52l8 26q131 -49 251 -49q93 0 148 39t55 93q0 53 -41.5 91.5t-164.5 85.5q-143 55 -190 99.5t-47 114.5q0 135 230 135q117 0 227 -32l-6 -26q-109 29 -219 29q-104 0 -152 -26t-48 -82q0 -61 44 -98t181 -91
q93 -36 142.5 -70t63.5 -62t14 -67zM301 724l88 117h46l-103 -117h-31z" />
    <glyph glyph-name="sacute" unicode="&#x15b;" horiz-adv-x="448" 
d="M401 115q0 -55 -50 -89t-133 -34q-93 0 -170 44l11 26q82 -39 157 -39q66 0 108.5 24t42.5 70q0 38 -34 61.5t-142 67.5q-74 30 -101 62t-27 79q0 54 45.5 81.5t121.5 27.5q69 0 149 -22l-7 -28q-80 19 -140 19q-69 0 -102 -19.5t-33 -62.5q0 -35 26 -60.5t96 -53.5
q111 -45 146.5 -74t35.5 -80zM206 545l88 117h46l-103 -117h-31z" />
    <glyph glyph-name="Scircumflex" unicode="&#x15c;" 
d="M563 151q0 -68 -63 -115t-172 -47q-131 0 -261 52l8 26q131 -49 251 -49q93 0 148 39t55 93q0 53 -41.5 91.5t-164.5 85.5q-143 55 -190 99.5t-47 114.5q0 135 230 135q117 0 227 -32l-6 -26q-109 29 -219 29q-104 0 -152 -26t-48 -82q0 -61 44 -98t181 -91
q93 -36 142.5 -70t63.5 -62t14 -67zM195 724l105 117h30l105 -117h-34l-86 96l-86 -96h-34z" />
    <glyph glyph-name="scircumflex" unicode="&#x15d;" horiz-adv-x="448" 
d="M401 115q0 -55 -50 -89t-133 -34q-93 0 -170 44l11 26q82 -39 157 -39q66 0 108.5 24t42.5 70q0 38 -34 61.5t-142 67.5q-74 30 -101 62t-27 79q0 54 45.5 81.5t121.5 27.5q69 0 149 -22l-7 -28q-80 19 -140 19q-69 0 -102 -19.5t-33 -62.5q0 -35 26 -60.5t96 -53.5
q111 -45 146.5 -74t35.5 -80zM106 545l105 117h30l105 -117h-34l-86 96l-86 -96h-34z" />
    <glyph glyph-name="uni015E" unicode="&#x15e;" 
d="M323 -182q-39 0 -70 14l4 20q27 -12 64 -12q54 0 54 42q0 40 -49 40q-29 0 -49 -4l22 72q-114 4 -232 51l8 26q131 -49 251 -49q93 0 148 39t55 93q0 53 -41.5 91.5t-164.5 85.5q-143 55 -190 99.5t-47 114.5q0 135 230 135q117 0 227 -32l-6 -26q-109 29 -219 29
q-104 0 -152 -26t-48 -82q0 -61 44 -98t181 -91q93 -36 142.5 -70t63.5 -62t14 -67q0 -68 -63 -115t-172 -47h-7l-13 -47q8 2 29 2q29 0 47.5 -17.5t18.5 -45.5q0 -30 -23 -46.5t-57 -16.5z" />
    <glyph glyph-name="uni015F" unicode="&#x15f;" horiz-adv-x="448" 
d="M236 -181q-38 0 -70 14l4 20q27 -12 64 -12q54 0 54 42q0 40 -49 40q-29 0 -49 -4l23 73q-89 2 -165 44l11 26q82 -39 157 -39q66 0 108.5 24t42.5 70q0 38 -34 61.5t-142 67.5q-74 30 -101 62t-27 79q0 54 45.5 81.5t121.5 27.5q69 0 149 -22l-7 -28q-80 19 -140 19
q-69 0 -102 -19.5t-33 -62.5q0 -35 26 -60.5t96 -53.5q111 -45 146.5 -74t35.5 -80q0 -52 -45 -85.5t-121 -37.5l-14 -49q8 2 29 2q31 0 48.5 -17t17.5 -46q0 -30 -23 -46.5t-57 -16.5z" />
    <glyph glyph-name="Scaron" unicode="&#x160;" 
d="M563 151q0 -68 -63 -115t-172 -47q-131 0 -261 52l8 26q131 -49 251 -49q93 0 148 39t55 93q0 53 -41.5 91.5t-164.5 85.5q-143 55 -190 99.5t-47 114.5q0 135 230 135q117 0 227 -32l-6 -26q-109 29 -219 29q-104 0 -152 -26t-48 -82q0 -61 44 -98t181 -91
q93 -36 142.5 -70t63.5 -62t14 -67zM198 841h34l86 -96l86 96h34l-105 -117h-30z" />
    <glyph glyph-name="scaron" unicode="&#x161;" horiz-adv-x="448" 
d="M401 115q0 -55 -50 -89t-133 -34q-93 0 -170 44l11 26q82 -39 157 -39q66 0 108.5 24t42.5 70q0 38 -34 61.5t-142 67.5q-74 30 -101 62t-27 79q0 54 45.5 81.5t121.5 27.5q69 0 149 -22l-7 -28q-80 19 -140 19q-69 0 -102 -19.5t-33 -62.5q0 -35 26 -60.5t96 -53.5
q111 -45 146.5 -74t35.5 -80zM106 662h34l86 -96l86 96h34l-105 -117h-30z" />
    <glyph glyph-name="Tcommaaccent" unicode="&#x162;" horiz-adv-x="531" 
d="M514 637h-232v-637h-33v637h-232v29h497v-29zM243 -58h46v-76l-23 -74h-22l22 74h-23v76z" />
    <glyph glyph-name="tcommaaccent" unicode="&#x163;" horiz-adv-x="308" 
d="M266 3q-33 -11 -67 -11q-93 0 -93 114v350h-69v31h69v138h34v-138h103v-31h-104v-350q0 -44 14.5 -64t45.5 -20q28 0 63 7zM149 -58h46v-76l-23 -74h-22l22 74h-23v76z" />
    <glyph glyph-name="Tcaron" unicode="&#x164;" horiz-adv-x="531" 
d="M514 637h-232v-637h-33v637h-232v29h497v-29zM146 841h34l86 -96l86 96h34l-105 -117h-30z" />
    <glyph glyph-name="tcaron" unicode="&#x165;" horiz-adv-x="318" 
d="M262 686h46v-78l-21 -66h-22l20 66h-23v78zM266 3q-33 -11 -67 -11q-93 0 -93 114v350h-69v31h69v138h34v-138h103v-31h-104v-350q0 -44 14.5 -64t45.5 -20q28 0 63 7z" />
    <glyph glyph-name="Tbar" unicode="&#x166;" horiz-adv-x="531" 
d="M426 323h-144v-323h-33v323h-144v27h144v287h-232v29h497v-29h-232v-287h144v-27z" />
    <glyph glyph-name="tbar" unicode="&#x167;" horiz-adv-x="308" 
d="M266 3q-33 -11 -67 -11q-93 0 -93 114v126h-69v32h69v192h-69v31h69v138h34v-138h103v-31h-104v-192h104v-32h-104v-126q0 -44 14.5 -64t45.5 -20q28 0 63 7z" />
    <glyph glyph-name="Utilde" unicode="&#x168;" horiz-adv-x="684" 
d="M592 219q0 -96 -66 -163t-184 -67t-184 67.5t-66 162.5v447h33v-452q0 -87 61 -141.5t156 -54.5q94 0 155 54.5t61 141.5v452h34v-447zM198 744q21 82 72 82q9 0 18 -2t19 -6.5t16 -7t18 -9.5t14 -8q49 -27 62 -27t22.5 10.5t12.5 19t11 33.5l24 -7q-22 -82 -67 -82
q-21 0 -73 27q-5 2 -23 13t-29.5 15.5t-23.5 4.5q-13 0 -22.5 -9.5t-13.5 -19t-13 -34.5z" />
    <glyph glyph-name="utilde" unicode="&#x169;" horiz-adv-x="542" 
d="M455 0h-33v108q-24 -51 -73 -83.5t-108 -32.5q-77 0 -120 47t-43 123v325h33v-323q0 -64 33 -101.5t101 -37.5q71 0 124 58t53 152v252h33v-487zM127 565q21 82 72 82q9 0 18 -2t19 -6.5t16 -7t18 -9.5t14 -8q49 -27 62 -27t22.5 10.5t12.5 19t11 33.5l24 -7
q-22 -82 -67 -82q-21 0 -73 27q-5 2 -23 13t-29.5 15.5t-23.5 4.5q-13 0 -22.5 -9.5t-13.5 -19t-13 -34.5z" />
    <glyph glyph-name="Umacron" unicode="&#x16a;" horiz-adv-x="684" 
d="M592 219q0 -96 -66 -163t-184 -67t-184 67.5t-66 162.5v447h33v-452q0 -87 61 -141.5t156 -54.5q94 0 155 54.5t61 141.5v452h34v-447zM213 773v27h258v-27h-258z" />
    <glyph glyph-name="umacron" unicode="&#x16b;" horiz-adv-x="542" 
d="M455 0h-33v108q-24 -51 -73 -83.5t-108 -32.5q-77 0 -120 47t-43 123v325h33v-323q0 -64 33 -101.5t101 -37.5q71 0 124 58t53 152v252h33v-487zM142 594v27h258v-27h-258z" />
    <glyph glyph-name="Ubreve" unicode="&#x16c;" horiz-adv-x="684" 
d="M592 219q0 -96 -66 -163t-184 -67t-184 67.5t-66 162.5v447h33v-452q0 -87 61 -141.5t156 -54.5q94 0 155 54.5t61 141.5v452h34v-447zM220 834h25q0 -36 27 -59.5t71 -23.5t71 23.5t27 59.5h25q0 -46 -34.5 -75.5t-88.5 -29.5t-88.5 29.5t-34.5 75.5z" />
    <glyph glyph-name="ubreve" unicode="&#x16d;" horiz-adv-x="542" 
d="M455 0h-33v108q-24 -51 -73 -83.5t-108 -32.5q-77 0 -120 47t-43 123v325h33v-323q0 -64 33 -101.5t101 -37.5q71 0 124 58t53 152v252h33v-487zM153 655h25q0 -36 27 -59.5t71 -23.5t71 23.5t27 59.5h25q0 -46 -34.5 -75.5t-88.5 -29.5t-88.5 29.5t-34.5 75.5z" />
    <glyph glyph-name="Uring" unicode="&#x16e;" horiz-adv-x="684" 
d="M592 219q0 -96 -66 -163t-184 -67t-184 67.5t-66 162.5v447h33v-452q0 -87 61 -141.5t156 -54.5q94 0 155 54.5t61 141.5v452h34v-447zM343 724q-30 0 -50 19.5t-20 46.5t20 47t50 20t49.5 -20t19.5 -47t-19.5 -46.5t-49.5 -19.5zM343 744q21 0 34.5 13t13.5 33
t-13.5 33.5t-34.5 13.5t-34.5 -13.5t-13.5 -33.5t13.5 -33t34.5 -13z" />
    <glyph glyph-name="uring" unicode="&#x16f;" horiz-adv-x="542" 
d="M455 0h-33v108q-24 -51 -73 -83.5t-108 -32.5q-77 0 -120 47t-43 123v325h33v-323q0 -64 33 -101.5t101 -37.5q71 0 124 58t53 152v252h33v-487zM272 545q-30 0 -50 19.5t-20 46.5t20 47t50 20t49.5 -20t19.5 -47t-19.5 -46.5t-49.5 -19.5zM272 565q21 0 34.5 13t13.5 33
t-13.5 33.5t-34.5 13.5t-34.5 -13.5t-13.5 -33.5t13.5 -33t34.5 -13z" />
    <glyph glyph-name="Uhungarumlaut" unicode="&#x170;" horiz-adv-x="684" 
d="M592 219q0 -96 -66 -163t-184 -67t-184 67.5t-66 162.5v447h33v-452q0 -87 61 -141.5t156 -54.5q94 0 155 54.5t61 141.5v452h34v-447zM234 724l77 117h45l-90 -117h-32zM411 724l77 117h45l-90 -117h-32z" />
    <glyph glyph-name="uhungarumlaut" unicode="&#x171;" horiz-adv-x="542" 
d="M455 0h-33v108q-24 -51 -73 -83.5t-108 -32.5q-77 0 -120 47t-43 123v325h33v-323q0 -64 33 -101.5t101 -37.5q71 0 124 58t53 152v252h33v-487zM159 545l77 117h45l-90 -117h-32zM336 545l77 117h45l-90 -117h-32z" />
    <glyph glyph-name="Uogonek" unicode="&#x172;" horiz-adv-x="684" 
d="M421 -181q-81 0 -81 77q0 31 22 57.5t53 43.5q-35 -8 -73 -8q-118 0 -184 67.5t-66 162.5v447h33v-452q0 -87 61 -141.5t156 -54.5q94 0 155 54.5t61 141.5v452h34v-447q0 -124 -115 -199q-34 -22 -53 -36.5t-37 -40t-18 -51.5q0 -50 54 -50q20 0 35 6l4 -21
q-16 -8 -41 -8z" />
    <glyph glyph-name="uogonek" unicode="&#x173;" horiz-adv-x="542" 
d="M422 0v108q-24 -51 -73 -83.5t-108 -32.5q-77 0 -120 47t-43 123v325h33v-323q0 -64 33 -101.5t101 -37.5q71 0 124 58t53 152v252h33v-487h-11q-67 -46 -67 -105q0 -53 54 -53q20 0 35 6l4 -21q-16 -8 -41 -8q-40 0 -60.5 21.5t-20.5 56.5q0 32 20.5 61t53.5 42z" />
    <glyph glyph-name="Wcircumflex" unicode="&#x174;" horiz-adv-x="865" 
d="M853 666l-199 -666h-31l-191 640l-190 -640h-31l-199 666h31l183 -619l184 619h44l184 -619l184 619h31zM313 724l105 117h30l105 -117h-34l-86 96l-86 -96h-34z" />
    <glyph glyph-name="wcircumflex" unicode="&#x175;" horiz-adv-x="662" 
d="M657 487l-166 -487h-28l-132 430l-132 -430h-28l-166 487h34l146 -429l129 429h32l133 -421l145 421h33zM211 545l105 117h30l105 -117h-34l-86 96l-86 -96h-34z" />
    <glyph glyph-name="Ycircumflex" unicode="&#x176;" horiz-adv-x="592" 
d="M595 666l-282 -387v-279h-34v279l-282 387h36l263 -360l262 360h37zM176 724l105 117h30l105 -117h-34l-86 96l-86 -96h-34z" />
    <glyph glyph-name="ycircumflex" unicode="&#x177;" horiz-adv-x="446" 
d="M434 487l-268 -660h-33l70 173l-199 487h35l180 -449l181 449h34zM103 545l105 117h30l105 -117h-34l-86 96l-86 -96h-34z" />
    <glyph glyph-name="Ydieresis" unicode="&#x178;" horiz-adv-x="592" 
d="M595 666l-282 -387v-279h-34v279l-282 387h36l263 -360l262 360h37zM367 750v65h41v-65h-41zM184 750v65h41v-65h-41z" />
    <glyph glyph-name="Zacute" unicode="&#x179;" horiz-adv-x="642" 
d="M590 635l-491 -604h488v-31h-525v31l490 604h-475v31h513v-31zM303 724l88 117h46l-103 -117h-31z" />
    <glyph glyph-name="zacute" unicode="&#x17a;" horiz-adv-x="510" 
d="M448 0h-391v31l343 425h-319v31h359v-31l-344 -425h352v-31zM232 545l88 117h46l-103 -117h-31z" />
    <glyph glyph-name="Zdotaccent" unicode="&#x17b;" horiz-adv-x="642" 
d="M590 635l-491 -604h488v-31h-525v31l490 604h-475v31h513v-31zM305 744v82h33v-82h-33z" />
    <glyph glyph-name="zdotaccent" unicode="&#x17c;" horiz-adv-x="510" 
d="M448 0h-391v31l343 425h-319v31h359v-31l-344 -425h352v-31zM239 565v82h33v-82h-33z" />
    <glyph glyph-name="Zcaron" unicode="&#x17d;" horiz-adv-x="642" 
d="M590 635l-491 -604h488v-31h-525v31l490 604h-475v31h513v-31zM201 841h34l86 -96l86 96h34l-105 -117h-30z" />
    <glyph glyph-name="zcaron" unicode="&#x17e;" horiz-adv-x="510" 
d="M448 0h-391v31l343 425h-319v31h359v-31l-344 -425h352v-31zM135 662h34l86 -96l86 96h34l-105 -117h-30z" />
    <glyph glyph-name="uni0192" unicode="&#x192;" horiz-adv-x="433" 
d="M421 683l-9 -27q-33 6 -63 6q-43 0 -66.5 -26t-33.5 -82l-12 -67h119l-6 -31h-119l-88 -500q-23 -137 -143 -137q-31 0 -60 8l6 26q29 -8 55 -8q48 0 73.5 27.5t35.5 83.5l88 500h-79l5 31h79l12 67q13 71 47 104t96 33q34 0 63 -8z" />
    <glyph glyph-name="Aringacute" unicode="&#x1fa;" 
d="M308 666q21 0 34.5 13t13.5 33t-13.5 33.5t-34.5 13.5t-34.5 -13.5t-13.5 -33.5t13.5 -33t34.5 -13zM467 229l-159 386l-159 -386h318zM137 200l-84 -200h-33l271 648q-24 5 -38.5 23t-14.5 41q0 27 20 47t50 20t49.5 -20t19.5 -47q0 -23 -14.5 -41.5t-38.5 -22.5
l271 -648h-33l-83 200h-342zM297 810l54 72h46l-69 -72h-31z" />
    <glyph glyph-name="aringacute" unicode="&#x1fb;" horiz-adv-x="496" 
d="M240 700l54 72h46l-69 -72h-31zM253 535q-30 0 -50 19.5t-20 46.5t20 47t50 20t49.5 -20t19.5 -47t-19.5 -46.5t-49.5 -19.5zM253 555q21 0 34.5 13t13.5 33t-13.5 33.5t-34.5 13.5t-34.5 -13.5t-13.5 -33.5t13.5 -33t34.5 -13zM424 0h-34v65q-57 -73 -170 -73
q-68 0 -116.5 36t-48.5 106q0 65 45 99t112 34h178v66q0 64 -35 98t-116 34q-78 0 -153 -15l-5 29q79 17 157 17q94 0 140 -41.5t46 -114.5v-340zM390 161v75h-178q-60 0 -92 -27.5t-32 -79.5q0 -49 38 -77.5t94 -28.5q71 0 120.5 38.5t49.5 99.5z" />
    <glyph glyph-name="AEacute" unicode="&#x1fc;" horiz-adv-x="875" 
d="M419 229l-112 383l-159 -383h271zM803 0h-316l-56 200h-295l-84 -200h-32l279 666h504v-31h-473l83 -273h363v-31h-354l91 -300h290v-31zM316 724l88 117h46l-103 -117h-31z" />
    <glyph glyph-name="aeacute" unicode="&#x1fd;" horiz-adv-x="854" 
d="M804 236h-385q4 -99 59.5 -156t148.5 -57q80 0 149 21l7 -28q-77 -24 -156 -24q-76 0 -131.5 34t-83.5 93q-16 -58 -65.5 -92.5t-127.5 -34.5q-68 0 -118.5 36t-50.5 106q0 66 41 99.5t107 33.5h187v66q0 64 -35 97.5t-116 33.5q-75 0 -153 -14l-6 29q78 17 158 17
q157 0 182 -118q59 118 185 118q99 0 151.5 -72.5t52.5 -177.5v-10zM385 169v67h-186q-115 0 -115 -107q0 -49 39 -77.5t96 -28.5q79 0 122.5 38.5t43.5 107.5zM770 267q-7 91 -50 144t-120 53q-79 0 -126 -54.5t-55 -142.5h351zM407 545l88 117h46l-103 -117h-31z" />
    <glyph glyph-name="Oslashacute" unicode="&#x1fe;" horiz-adv-x="726" 
d="M669 332q0 -145 -84 -244t-222 -99q-127 0 -211 87l-77 -87l-18 16l79 89q-79 96 -79 238q0 145 84 244.5t222 99.5q127 0 211 -87l77 87l18 -16l-79 -89q79 -96 79 -239zM553 564q-76 83 -190 83q-120 0 -196 -91t-76 -224q0 -124 68 -213zM636 332q0 125 -68 214
l-394 -445q76 -83 189 -83q120 0 196.5 90.5t76.5 223.5zM347 724l88 117h46l-103 -117h-31z" />
    <glyph glyph-name="oslashacute" unicode="&#x1ff;" horiz-adv-x="533" 
d="M481 244q0 -107 -57 -179.5t-157 -72.5q-89 0 -147 60l-50 -60l-18 15l53 63q-53 70 -53 174q0 106 57.5 179t157.5 73q88 0 145 -59l51 61l18 -16l-53 -63q53 -70 53 -175zM448 244q0 92 -41 150l-266 -318q48 -53 126 -53q84 0 132.5 61t48.5 160zM392 412
q-49 52 -125 52q-84 0 -132.5 -61t-48.5 -159q0 -91 40 -149zM243 545l88 117h46l-103 -117h-31z" />
    <glyph glyph-name="uni0218" unicode="&#x218;" 
d="M563 151q0 -68 -63 -115t-172 -47q-131 0 -261 52l8 26q131 -49 251 -49q93 0 148 39t55 93q0 53 -41.5 91.5t-164.5 85.5q-143 55 -190 99.5t-47 114.5q0 135 230 135q117 0 227 -32l-6 -26q-109 29 -219 29q-104 0 -152 -26t-48 -82q0 -61 44 -98t181 -91
q93 -36 142.5 -70t63.5 -62t14 -67zM295 -58h46v-76l-23 -74h-22l22 74h-23v76z" />
    <glyph glyph-name="uni0219" unicode="&#x219;" horiz-adv-x="448" 
d="M401 115q0 -55 -50 -89t-133 -34q-93 0 -170 44l11 26q82 -39 157 -39q66 0 108.5 24t42.5 70q0 38 -34 61.5t-142 67.5q-74 30 -101 62t-27 79q0 54 45.5 81.5t121.5 27.5q69 0 149 -22l-7 -28q-80 19 -140 19q-69 0 -102 -19.5t-33 -62.5q0 -35 26 -60.5t96 -53.5
q111 -45 146.5 -74t35.5 -80zM196 -58h46v-76l-23 -74h-22l22 74h-23v76z" />
    <glyph glyph-name="circumflex" unicode="&#x2c6;" horiz-adv-x="400" 
d="M80 545l105 117h30l105 -117h-34l-86 96l-86 -96h-34z" />
    <glyph glyph-name="caron" unicode="&#x2c7;" horiz-adv-x="400" 
d="M80 662h34l86 -96l86 96h34l-105 -117h-30z" />
    <glyph glyph-name="breve" unicode="&#x2d8;" horiz-adv-x="406" 
d="M80 655h25q0 -36 27 -59.5t71 -23.5t71 23.5t27 59.5h25q0 -46 -34.5 -75.5t-88.5 -29.5t-88.5 29.5t-34.5 75.5z" />
    <glyph glyph-name="dotaccent" unicode="&#x2d9;" horiz-adv-x="193" 
d="M80 565v82h33v-82h-33z" />
    <glyph glyph-name="ring" unicode="&#x2da;" horiz-adv-x="299" 
d="M150 545q-30 0 -50 19.5t-20 46.5t20 47t50 20t49.5 -20t19.5 -47t-19.5 -46.5t-49.5 -19.5zM150 565q21 0 34.5 13t13.5 33t-13.5 33.5t-34.5 13.5t-34.5 -13.5t-13.5 -33.5t13.5 -33t34.5 -13z" />
    <glyph glyph-name="ogonek" unicode="&#x2db;" horiz-adv-x="282" 
d="M154 0h22q-67 -46 -67 -105q0 -53 54 -53q20 0 35 6l4 -21q-16 -8 -41 -8q-40 0 -60.5 21.5t-20.5 56.5q0 32 20.5 61t53.5 42z" />
    <glyph glyph-name="tilde" unicode="&#x2dc;" horiz-adv-x="449" 
d="M80 565q21 82 72 82q9 0 18 -2t19 -6.5t16 -7t18 -9.5t14 -8q49 -27 62 -27t22.5 10.5t12.5 19t11 33.5l24 -7q-22 -82 -67 -82q-21 0 -73 27q-5 2 -23 13t-29.5 15.5t-23.5 4.5q-13 0 -22.5 -9.5t-13.5 -19t-13 -34.5z" />
    <glyph glyph-name="hungarumlaut" unicode="&#x2dd;" horiz-adv-x="459" 
d="M80 545l77 117h45l-90 -117h-32zM257 545l77 117h45l-90 -117h-32z" />
    <glyph glyph-name="uni0312" unicode="&#x312;" horiz-adv-x="294" 
d="M80 545l103 117h31l-88 -117h-46z" />
    <glyph glyph-name="uni0315" unicode="&#x315;" horiz-adv-x="206" 
d="M80 666h46v-76l-23 -74h-22l22 74h-23v76z" />
    <glyph glyph-name="uni0326" unicode="&#x326;" horiz-adv-x="206" 
d="M80 -58h46v-76l-23 -74h-22l22 74h-23v76z" />
    <glyph glyph-name="uni03A9" unicode="&#x3a9;" horiz-adv-x="583" 
d="M521 262l-15 -15l-384 384v-318h-20v353h353v-20h-319z" />
    <glyph glyph-name="pi" unicode="&#x3c0;" horiz-adv-x="584" 
d="M482 353l-1 -353h-352v20h318l-385 384l15 15l385 -384v318h20z" />
    <glyph glyph-name="Wgrave" unicode="&#x1e80;" horiz-adv-x="865" 
d="M853 666l-199 -666h-31l-191 640l-190 -640h-31l-199 666h31l183 -619l184 619h44l184 -619l184 619h31zM413 724l-106 117h46l91 -117h-31z" />
    <glyph glyph-name="wgrave" unicode="&#x1e81;" horiz-adv-x="662" 
d="M657 487l-166 -487h-28l-132 430l-132 -430h-28l-166 487h34l146 -429l129 429h32l133 -421l145 421h33zM311 545l-106 117h46l91 -117h-31z" />
    <glyph glyph-name="Wacute" unicode="&#x1e82;" horiz-adv-x="865" 
d="M853 666l-199 -666h-31l-191 640l-190 -640h-31l-199 666h31l183 -619l184 619h44l184 -619l184 619h31zM423 724l88 117h46l-103 -117h-31z" />
    <glyph glyph-name="wacute" unicode="&#x1e83;" horiz-adv-x="662" 
d="M657 487l-166 -487h-28l-132 430l-132 -430h-28l-166 487h34l146 -429l129 429h32l133 -421l145 421h33zM321 545l88 117h46l-103 -117h-31z" />
    <glyph glyph-name="Wdieresis" unicode="&#x1e84;" horiz-adv-x="865" 
d="M853 666l-199 -666h-31l-191 640l-190 -640h-31l-199 666h31l183 -619l184 619h44l184 -619l184 619h31zM504 750v65h41v-65h-41zM321 750v65h41v-65h-41z" />
    <glyph glyph-name="wdieresis" unicode="&#x1e85;" horiz-adv-x="662" 
d="M657 487l-166 -487h-28l-132 430l-132 -430h-28l-166 487h34l146 -429l129 429h32l133 -421l145 421h33zM402 571v65h41v-65h-41zM219 571v65h41v-65h-41z" />
    <glyph glyph-name="Ygrave" unicode="&#x1ef2;" horiz-adv-x="592" 
d="M595 666l-282 -387v-279h-34v279l-282 387h36l263 -360l262 360h37zM276 724l-106 117h46l91 -117h-31z" />
    <glyph glyph-name="ygrave" unicode="&#x1ef3;" horiz-adv-x="446" 
d="M434 487l-268 -660h-33l70 173l-199 487h35l180 -449l181 449h34zM203 545l-106 117h46l91 -117h-31z" />
    <glyph glyph-name="endash" unicode="&#x2013;" horiz-adv-x="533" 
d="M476 260h-419v35h419v-35z" />
    <glyph glyph-name="emdash" unicode="&#x2014;" horiz-adv-x="715" 
d="M658 260h-601v35h601v-35z" />
    <glyph glyph-name="quoteleft" unicode="&#x2018;" horiz-adv-x="214" 
d="M127 666l-25 -97h22v-94h-47v94l25 97h25z" />
    <glyph glyph-name="quoteright" unicode="&#x2019;" horiz-adv-x="214" 
d="M137 572l-25 -97h-25l25 97h-23v94h48v-94z" />
    <glyph glyph-name="quotesinglbase" unicode="&#x201a;" horiz-adv-x="213" 
d="M126 0l-25 -97h-24l24 97h-22v94h47v-94z" />
    <glyph glyph-name="quotedblleft" unicode="&#x201c;" horiz-adv-x="328" 
d="M251 666l-25 -97h22v-94h-47v94l25 97h25zM136 666l-24 -97h22v-94h-47v94l25 97h24z" />
    <glyph glyph-name="quotedblright" unicode="&#x201d;" horiz-adv-x="328" 
d="M241 572l-25 -97h-25l25 97h-23v94h48v-94zM127 572l-25 -97h-25l25 97h-23v94h48v-94z" />
    <glyph glyph-name="quotedblbase" unicode="&#x201e;" horiz-adv-x="328" 
d="M241 0l-25 -97h-25l25 97h-23v94h48v-94zM127 0l-25 -97h-25l25 97h-23v94h48v-94z" />
    <glyph glyph-name="dagger" unicode="&#x2020;" horiz-adv-x="450" 
d="M398 472l-171 19l19 -171l-19 -451h-4l-19 451l19 171l-171 -19v42l171 -19l-19 171h42l-19 -171l171 19v-42z" />
    <glyph glyph-name="daggerdbl" unicode="&#x2021;" horiz-adv-x="449" 
d="M397 -31l-170 18l18 -170h-41l18 170l-170 -18v41l170 -18l-18 170v158l18 171l-170 -19v42l170 -19l-18 171h41l-18 -171l170 19v-42l-170 19l18 -171v-158l-18 -170l170 18v-41z" />
    <glyph glyph-name="bullet" unicode="&#x2022;" horiz-adv-x="316" 
d="M259 365q0 -42 -29.5 -72t-71.5 -30t-71.5 30t-29.5 72t29.5 71t71.5 29t71.5 -29t29.5 -71z" />
    <glyph glyph-name="ellipsis" unicode="&#x2026;" horiz-adv-x="665" 
d="M578 0h-48v94h48v-94zM135 0h-48v94h48v-94zM357 0h-48v94h48v-94z" />
    <glyph glyph-name="perthousand" unicode="&#x2030;" horiz-adv-x="1198" 
d="M750 156q0 -64 -42 -115.5t-111 -51.5q-68 0 -109.5 51.5t-41.5 115.5t41.5 116t109.5 52q69 0 111 -52t42 -116zM354 507q0 -64 -41 -116t-109 -52t-110 52t-42 116t42 116.5t110 52.5t109 -52.5t41 -116.5zM1131 156q0 -64 -41.5 -115.5t-109.5 -51.5
q-69 0 -110.5 51.5t-41.5 115.5t42 116t110 52t109.5 -52t41.5 -116zM325 507q0 57 -33 99.5t-88 42.5t-88.5 -42.5t-33.5 -99.5t33.5 -99t88.5 -42t88 42t33 99zM719 156q0 57 -33.5 99.5t-88.5 42.5t-87.5 -42t-32.5 -100q0 -57 32.5 -99t87.5 -42t88.5 42t33.5 99z
M1100 156q0 58 -32.5 100t-87.5 42t-88.5 -42.5t-33.5 -99.5t33.5 -99t88.5 -42t87.5 42t32.5 99zM591 666l-350 -666h-30l349 666h31z" />
    <glyph glyph-name="guilsinglleft" unicode="&#x2039;" horiz-adv-x="378" 
d="M286 17l-17 -17l-232 240l232 240l17 -17l-215 -223z" />
    <glyph glyph-name="guilsinglright" unicode="&#x203a;" horiz-adv-x="378" 
d="M341 240l-232 -240l-17 17l215 223l-215 223l17 17z" />
    <glyph glyph-name="fraction" unicode="&#x2044;" horiz-adv-x="385" 
d="M400 666l-395 -666h-20l396 666h19z" />
    <glyph glyph-name="Euro" unicode="&#x20ac;" horiz-adv-x="719" 
d="M652 10q-70 -21 -150 -21q-139 0 -235.5 71t-122.5 191h-112v27h107q-3 26 -3 54q0 34 4 59h-108v27h113q27 118 123 188t234 70q83 0 150 -20l-5 -26q-71 17 -155 17q-109 0 -197.5 -60.5t-115.5 -168.5h208v-27h-213q-5 -30 -5 -59q0 -31 4 -54h214v-27h-209
q26 -110 115 -171.5t199 -61.5q87 0 154 18z" />
    <glyph glyph-name="trademark" unicode="&#x2122;" horiz-adv-x="638" 
d="M586 362h-14v273l-115 -238h-9l-116 238v-273h-14v304h14l120 -246l120 246h14v-304zM264 652h-106v-290h-16v290h-105v14h227v-14z" />
    <glyph glyph-name="partialdiff" unicode="&#x2202;" horiz-adv-x="593" 
d="M546 426l-14 -14l-225 225v-543h-20v543l-226 -225l-14 14l250 250z" />
    <glyph glyph-name="Delta" unicode="&#x2206;" horiz-adv-x="593" 
d="M546 239l-250 -250l-249 250l14 14l225 -225v543h20v-543l226 225z" />
    <glyph glyph-name="product" unicode="&#x220f;" horiz-adv-x="584" 
d="M522 404l-385 -384h318v-20h-352l-1 353h20v-318l385 384z" />
    <glyph glyph-name="summation" unicode="&#x2211;" horiz-adv-x="584" 
d="M522 404l-385 -384h318v-20h-352l-1 353h20v-318l385 384z" />
    <glyph glyph-name="minus" unicode="&#x2212;" horiz-adv-x="328" 
d="M271 260h-214v35h214v-35z" />
    <glyph glyph-name="radical" unicode="&#x221a;" horiz-adv-x="716" 
d="M664 318l-250 -249l-14 14l225 225h-543v20h543l-225 226l14 14z" />
    <glyph glyph-name="infinity" unicode="&#x221e;" horiz-adv-x="716" 
d="M634 308h-543l225 -225l-14 -14l-250 249l250 250l14 -14l-225 -226h543v-20z" />
    <glyph glyph-name="integral" unicode="&#x222b;" horiz-adv-x="584" 
d="M482 353l-1 -353h-352v20h318l-385 384l15 15l385 -384v318h20z" />
    <glyph glyph-name="approxequal" unicode="&#x2248;" horiz-adv-x="583" 
d="M481 313h-19v318l-385 -384l-15 15l385 384h-319v20h353v-353z" />
    <glyph glyph-name="notequal" unicode="&#x2260;" horiz-adv-x="876" 
d="M786 333h-333v-333h-333v666h666v-333z" />
    <glyph glyph-name="lessequal" unicode="&#x2264;" horiz-adv-x="716" 
d="M634 308h-543l225 -225l-14 -14l-250 249l250 250l14 -14l-225 -226h543v-20z" />
    <glyph glyph-name="greaterequal" unicode="&#x2265;" horiz-adv-x="716" 
d="M664 318l-250 -249l-14 14l225 225h-543v20h543l-225 226l14 14z" />
    <glyph glyph-name="lozenge" unicode="&#x25ca;" horiz-adv-x="716" 
d="M664 318l-250 -249l-14 14l225 225h-543v20h543l-225 226l14 14z" />
    <glyph glyph-name="apple" horiz-adv-x="876" 
d="M786 333h-333v-333h-333v666h666v-333z" />
    <glyph glyph-name="nbspace" horiz-adv-x="220" 
 />
    <glyph glyph-name="i.dot" horiz-adv-x="207" 
d="M120 0h-33v487h33v-487zM87 565v82h33v-82h-33z" />
    </font>
</defs>
</svg>
