<?xml version="1.0" standalone="no"?>
<!DOCTYPE svg PUBLIC "-//W3C//DTD SVG 1.1//EN" "http://www.w3.org/Graphics/SVG/1.1/DTD/svg11.dtd" >
<svg>
<metadata>
Created by FontForge 20120731 at Fri Aug 19 20:56:57 2016
 By ,,,
(c) 2015 Process Type Foundry. All Rights Reserved.
</metadata>
<defs>
<font id="Locator-BoldItalic" horiz-adv-x="560" >
  <font-face 
    font-family="Locator"
    font-weight="700"
    font-style="italic"
    font-stretch="normal"
    units-per-em="1000"
    panose-1="2 0 8 0 5 0 0 9 0 4"
    ascent="750"
    descent="-250"
    x-height="487"
    cap-height="666"
    bbox="-80 -296 1247 910"
    underline-thickness="20"
    underline-position="-103"
    unicode-range="U+0020-FB02"
  />
<missing-glyph horiz-adv-x="646" 
d="M90 0v666h466v-666h-466zM507 616h-340l340 -527v527zM139 576v-527h339z" />
    <glyph glyph-name="fi" unicode="fi" horiz-adv-x="641" 
d="M438 676l-33 -99q-25 5 -55 5q-61 0 -72 -70l-6 -35h99l-23 -93h-93l-69 -384h-141l68 384h-64l17 93h64l5 30q14 88 65 136t135 48q53 0 103 -15zM615 486l-86 -486h-141l86 486h141zM651 691l-21 -121h-141l21 121h141z" />
    <glyph glyph-name="fl" unicode="fl" horiz-adv-x="693" 
d="M438 676l-33 -99q-25 5 -55 5q-61 0 -72 -70l-6 -35h99l-23 -93h-93l-69 -384h-141l68 384h-64l17 93h64l5 30q14 88 65 136t135 48q53 0 103 -15zM648 22q-47 -30 -110 -30q-64 0 -102.5 31t-38.5 92q0 22 4 43l90 508h141l-88 -494q-3 -21 -3 -34q0 -38 36 -38
q22 0 43 12z" />
    <glyph glyph-name=".notdef" horiz-adv-x="646" 
d="M90 0v666h466v-666h-466zM507 616h-340l340 -527v527zM139 576v-527h339z" />
    <glyph glyph-name=".null" horiz-adv-x="0" 
 />
    <glyph glyph-name="nonmarkingreturn" horiz-adv-x="333" 
 />
    <glyph glyph-name="space" unicode=" " horiz-adv-x="215" 
 />
    <glyph glyph-name="exclam" unicode="!" horiz-adv-x="328" 
d="M318 666l-28 -159l-89 -281h-66l8 281l28 159h147zM232 154l-27 -154h-155l27 154h155z" />
    <glyph glyph-name="quotedbl" unicode="&#x22;" horiz-adv-x="413" 
d="M438 666l-52 -297h-100l52 297h100zM232 666l-52 -297h-100l52 297h100z" />
    <glyph glyph-name="numbersign" unicode="#" horiz-adv-x="705" 
d="M715 480l-25 -84h-127l-38 -125h127l-25 -85h-127l-57 -186h-91l56 186h-149l-57 -186h-91l56 186h-127l25 85h127l38 125h-127l25 84h127l57 186h91l-56 -186h149l57 186h91l-56 -186h127zM471 396h-149l-38 -125h149z" />
    <glyph glyph-name="dollar" unicode="$" horiz-adv-x="631" 
d="M636 637l-39 -115q-109 26 -193 26q-27 0 -43 -1.5t-40.5 -7t-37 -20t-12.5 -38.5q0 -23 31.5 -42.5t77 -36.5t91 -37.5t77 -55.5t31.5 -80q0 -106 -75.5 -166.5t-191.5 -66.5l-17 -95h-95l17 96q-96 10 -192 52l39 110q107 -42 230 -42q136 0 136 81q0 22 -31.5 41
t-77 37.5t-91 40.5t-77 59.5t-31.5 84.5q0 102 61 149.5t179 57.5l17 97h95l-17 -96q91 -5 179 -32z" />
    <glyph glyph-name="percent" unicode="%" horiz-adv-x="883" 
d="M233 317q-75 0 -119 52.5t-44 128.5q0 75 44.5 126.5t118.5 51.5q75 0 119 -52t44 -128q0 -75 -44.5 -127t-118.5 -52zM695 -11q-75 0 -119 52.5t-44 128.5q0 75 44.5 126.5t118.5 51.5q75 0 119 -52t44 -128q0 -75 -44.5 -127t-118.5 -52zM698 666l-368 -666h-99
l368 666h99zM233 595q-35 0 -51.5 -29t-16.5 -68t16.5 -69.5t51.5 -30.5t51.5 30.5t16.5 68.5q0 39 -16 68.5t-52 29.5zM695 267q-35 0 -51.5 -29t-16.5 -68t16.5 -69.5t51.5 -30.5t51.5 30.5t16.5 68.5q0 39 -16 68.5t-52 29.5z" />
    <glyph glyph-name="ampersand" unicode="&#x26;" horiz-adv-x="717" 
d="M657 345q-43 -117 -118 -205l103 -140h-164l-36 52q-94 -63 -197 -63q-85 0 -145 45t-60 128q0 144 174 221q-41 76 -41 120q0 86 58.5 129.5t152.5 43.5q63 0 106 -30t43 -85q0 -62 -47 -114t-112 -85q61 -80 102 -136q41 52 85 157zM381 139q-19 27 -57 82.5t-58 83.5
q-82 -45 -82 -125q0 -34 24.5 -54t61.5 -20q67 0 111 33zM420 539q0 21 -15 32.5t-37 11.5q-33 0 -52 -18.5t-19 -50.5q0 -44 38 -86q36 18 60.5 47.5t24.5 63.5z" />
    <glyph glyph-name="quotesingle" unicode="'" horiz-adv-x="207" 
d="M233 666l-53 -298h-100l53 298h100z" />
    <glyph glyph-name="parenleft" unicode="(" horiz-adv-x="358" 
d="M408 714q-188 -282 -188 -570q0 -114 43 -250l-96 -48q-87 139 -87 318q0 163 64.5 319t178.5 279z" />
    <glyph glyph-name="parenright" unicode=")" horiz-adv-x="358" 
d="M313 446q0 -167 -65.5 -323t-183.5 -277l-79 48q188 282 188 570q0 114 -43 250l102 48q81 -141 81 -316z" />
    <glyph glyph-name="asterisk" unicode="*" horiz-adv-x="479" 
d="M489 524l-136 -58l116 -59l-64 -83l-99 80l-11 -139h-97l38 139l-128 -80l-33 83l136 59l-116 58l63 84l99 -81l12 139h97l-38 -139l127 81z" />
    <glyph glyph-name="plus" unicode="+" horiz-adv-x="584" 
d="M544 188h-185v-188h-103v188h-186v100h186v189h103v-189h185v-100z" />
    <glyph glyph-name="comma" unicode="," horiz-adv-x="297" 
d="M222 156l-27 -156l-111 -167h-64l97 168h-77l27 155h155z" />
    <glyph glyph-name="hyphen" unicode="-" horiz-adv-x="384" 
d="M354 340l-20 -117h-274l20 117h274z" />
    <glyph glyph-name="period" unicode="." horiz-adv-x="302" 
d="M222 156l-28 -156h-154l28 156h154z" />
    <glyph glyph-name="slash" unicode="/" horiz-adv-x="513" 
d="M543 676l-428 -793h-120l428 793h120z" />
    <glyph glyph-name="zero" unicode="0" horiz-adv-x="653" 
d="M628 415q0 -57 -14 -116t-43 -114.5t-68.5 -99t-95.5 -70t-120 -26.5q-104 0 -163 71.5t-59 181.5q0 79 23 154t64.5 135.5t107.5 97.5t146 37q109 0 165.5 -69.5t56.5 -181.5zM486 406q0 137 -101 137q-47 0 -83 -30.5t-56 -77t-29.5 -94t-9.5 -90.5q0 -139 102 -139
q56 0 98.5 52.5t60.5 117.5t18 124z" />
    <glyph glyph-name="one" unicode="1" horiz-adv-x="462" 
d="M427 656l-116 -656h-141l93 536l-173 -30v112l195 38h142z" />
    <glyph glyph-name="two" unicode="2" horiz-adv-x="630" 
d="M605 504q0 -56 -26 -104t-65 -79.5t-87 -61t-90.5 -49.5t-77 -43t-44.5 -44h329l-22 -123h-500l7 37q17 91 50 138t111 93q23 13 66.5 36.5t62.5 34.5q5 3 26 14t30.5 16.5t27 17.5t26.5 21.5t18 23.5t11 28q2 10 2 17q0 66 -128 66q-71 0 -188 -25l-3 114q117 34 229 34
q44 0 82.5 -7.5t74.5 -24.5t57 -50.5t21 -79.5z" />
    <glyph glyph-name="three" unicode="3" horiz-adv-x="572" 
d="M550 520q0 -55 -34 -102.5t-86 -74.5q44 -16 71 -49.5t27 -78.5q0 -104 -92.5 -165t-232.5 -61q-95 0 -183 36l33 104q77 -23 160 -23q68 0 119.5 26.5t51.5 79.5q0 67 -120 67h-115l20 113q237 -22 237 93q0 66 -126 66q-75 0 -147 -19l-11 105q92 29 193 29
q60 0 109.5 -12t87.5 -46.5t38 -87.5z" />
    <glyph glyph-name="four" unicode="4" horiz-adv-x="652" 
d="M607 259l-21 -117h-95l-25 -142h-136l25 142h-337l22 125l388 389h154l-70 -397h95zM419 503l-246 -244h203z" />
    <glyph glyph-name="five" unicode="5" horiz-adv-x="618" 
d="M608 656l-22 -123h-283l-36 -137q52 19 114 19q85 0 139.5 -41.5t54.5 -123.5q0 -121 -91 -191t-232 -70q-105 0 -217 48l40 107q93 -36 193 -36q74 0 118 30.5t44 84.5q0 40 -31 56.5t-74 16.5q-57 0 -107 -23l-104 63l90 320h404z" />
    <glyph glyph-name="six" unicode="6" horiz-adv-x="619" 
d="M614 645l-41 -113q-48 15 -108 15q-97 0 -151.5 -49t-87.5 -145q67 54 163 54q78 0 128 -43t50 -119q0 -113 -79.5 -184.5t-199.5 -71.5q-103 0 -168 62t-65 163q0 200 114.5 326t297.5 126q85 0 147 -21zM422 218q0 38 -28 56.5t-68 18.5q-56 0 -90.5 -30.5t-34.5 -75.5
q0 -37 24 -58t65 -21q59 0 95.5 30.5t36.5 79.5z" />
    <glyph glyph-name="seven" unicode="7" horiz-adv-x="544" 
d="M594 656l-22 -124l-354 -532h-143l354 533h-336l22 123h479z" />
    <glyph glyph-name="eight" unicode="8" horiz-adv-x="611" 
d="M591 523q0 -99 -102 -166q85 -47 85 -133q0 -110 -88.5 -172.5t-209.5 -62.5q-90 0 -158 45t-68 127q0 65 39.5 116t102.5 80q-53 43 -53 109q0 65 38 112t95 67.5t124 20.5q80 0 137.5 -34.5t57.5 -108.5zM433 208q0 39 -31 58.5t-73 19.5q-51 0 -94.5 -28.5
t-43.5 -77.5q0 -38 32.5 -57t73.5 -19q51 0 93.5 27.5t42.5 76.5zM455 490q0 33 -22.5 49t-56.5 16q-45 0 -77 -26.5t-32 -70.5q0 -33 23 -51.5t57 -18.5q43 0 75.5 29.5t32.5 72.5z" />
    <glyph glyph-name="nine" unicode="9" horiz-adv-x="619" 
d="M614 441q0 -200 -114.5 -326t-297.5 -126q-85 0 -147 21l41 113q48 -15 108 -15q95 0 151.5 50t88.5 144q-67 -54 -164 -54q-77 0 -127.5 47.5t-50.5 124.5q0 113 77 179.5t202 66.5q103 0 168 -62t65 -163zM469 468q0 34 -25.5 56.5t-66.5 22.5q-59 0 -94.5 -30.5
t-35.5 -79.5q0 -36 27 -55.5t69 -19.5q53 0 89.5 31t36.5 75z" />
    <glyph glyph-name="colon" unicode=":" horiz-adv-x="303" 
d="M278 477l-27 -155h-154l27 155h154zM221 155l-27 -155h-154l27 155h154z" />
    <glyph glyph-name="semicolon" unicode=";" horiz-adv-x="304" 
d="M222 155l-27 -155l-111 -167h-64l96 168h-76l27 154h155zM279 477l-27 -154h-155l27 154h155z" />
    <glyph glyph-name="less" unicode="&#x3c;" horiz-adv-x="561" 
d="M510 492v-103l-345 -148l345 -148v-103l-484 215v72z" />
    <glyph glyph-name="equal" unicode="=" horiz-adv-x="565" 
d="M525 400v-106h-465v106h465zM525 171v-106h-465v106h465z" />
    <glyph glyph-name="greater" unicode="&#x3e;" horiz-adv-x="561" 
d="M554 277v-72l-484 -215v103l345 148l-345 148v103z" />
    <glyph glyph-name="question" unicode="?" 
d="M560 520q0 -174 -277 -311l-48 86q8 5 34 22.5t37 25.5t32.5 24t31.5 28t22.5 28t17.5 32.5t5 34.5q0 63 -121 63q-87 0 -190 -27l-4 112q127 38 233 38q43 0 80 -7t72 -23t55 -48.5t20 -77.5zM330 155l-27 -155h-154l27 155h154z" />
    <glyph glyph-name="at" unicode="@" horiz-adv-x="754" 
d="M704 49q-134 -60 -302 -60q-134 0 -225.5 71t-91.5 201q0 107 41 200.5t124.5 154t192.5 60.5q80 0 130 -41t50 -119q0 -15 -4 -43q-9 -59 -28.5 -167t-24.5 -140h-86l12 67q-17 -30 -46.5 -51.5t-61.5 -21.5q-49 0 -71.5 32.5t-22.5 84.5q0 81 47.5 150.5t124.5 69.5
q47 0 76 -23q5 22 5 39q0 88 -116 88q-60 0 -110.5 -30.5t-81.5 -79.5t-48.5 -106.5t-17.5 -113.5q0 -209 246 -209q128 0 267 49zM523 414q-22 11 -44 11q-47 0 -70.5 -46t-23.5 -98q0 -48 30 -48q23 0 43 20.5t33 52t20.5 58.5t11.5 50z" />
    <glyph glyph-name="A" unicode="A" horiz-adv-x="661" 
d="M616 0h-145l-27 137h-248l-76 -137h-145l370 666h137zM427 249l-39 271l-137 -271h176z" />
    <glyph glyph-name="B" unicode="B" horiz-adv-x="682" 
d="M673 528q0 -61 -35 -108.5t-99 -69.5q52 -16 77.5 -51.5t25.5 -78.5q1 -89 -67 -154.5t-171 -65.5h-354l118 666h330q83 0 129 -37t46 -101zM495 219q0 63 -79 63h-172l-29 -165h172q48 0 78 27t30 75zM520 493q0 57 -80 57h-149l-28 -158h149q48 0 78 27t30 74z" />
    <glyph glyph-name="C" unicode="C" horiz-adv-x="654" 
d="M674 647l-43 -123q-83 21 -147 21q-128 0 -206.5 -67t-78.5 -189q0 -84 54.5 -126.5t155.5 -42.5q62 0 155 21l-4 -121q-85 -31 -189 -31q-138 0 -229.5 81.5t-91.5 203.5q0 177 123.5 289.5t312.5 112.5q102 0 188 -29z" />
    <glyph glyph-name="D" unicode="D" horiz-adv-x="702" 
d="M540 377q0 80 -59.5 119t-153.5 39h-35l-71 -404h35q55 0 104 13.5t90.5 41t65.5 77t24 114.5zM695 387q0 -171 -133.5 -279t-356.5 -108h-155l118 666h155q165 0 268.5 -77.5t103.5 -201.5z" />
    <glyph glyph-name="E" unicode="E" horiz-adv-x="637" 
d="M655 666l-23 -127h-339l-23 -132h320l-22 -127h-320l-27 -153h339l-23 -127h-487l118 666h487z" />
    <glyph glyph-name="F" unicode="F" horiz-adv-x="639" 
d="M679 666l-22 -127h-364l-23 -132h327l-22 -127h-327l-50 -280h-148l118 666h511z" />
    <glyph glyph-name="G" unicode="G" horiz-adv-x="702" 
d="M679 655l-42 -125q-81 15 -151 15q-137 0 -211.5 -66t-74.5 -192q0 -77 45.5 -122t136.5 -45q47 0 99 4l39 218h138l-58 -326q-107 -27 -220 -27q-147 0 -238.5 79t-91.5 199q0 192 123.5 300.5t317.5 108.5q105 0 188 -21z" />
    <glyph glyph-name="H" unicode="H" horiz-adv-x="764" 
d="M754 666l-117 -666h-148l47 270h-292l-47 -270h-147l117 666h147l-47 -265h293l46 265h148z" />
    <glyph glyph-name="I" unicode="I" horiz-adv-x="335" 
d="M320 666l-117 -666h-148l117 666h148z" />
    <glyph glyph-name="J" unicode="J" horiz-adv-x="441" 
d="M441 666l-80 -455q-37 -215 -260 -215h-93l20 114h89q78 0 96 103l58 332h-154l22 121h302z" />
    <glyph glyph-name="K" unicode="K" horiz-adv-x="709" 
d="M760 666l-382 -323l278 -343h-196l-214 275l-48 -275h-148l117 666h148l-46 -261l296 261h195z" />
    <glyph glyph-name="L" unicode="L" horiz-adv-x="581" 
d="M541 127l-22 -127h-469l117 666h148l-95 -539h321z" />
    <glyph glyph-name="M" unicode="M" horiz-adv-x="874" 
d="M864 666l-118 -666h-142l72 405l-217 -282h-79l-116 283l-72 -406h-142l118 666h142l144 -350l267 350h143z" />
    <glyph glyph-name="N" unicode="N" horiz-adv-x="791" 
d="M781 666l-117 -666h-145l-245 443l-78 -443h-146l117 666h145l245 -444l78 444h146z" />
    <glyph glyph-name="O" unicode="O" horiz-adv-x="748" 
d="M738 394q0 -164 -116 -284.5t-289 -120.5q-121 0 -202 80t-81 199q0 175 121 291.5t284 116.5q125 0 204 -80t79 -202zM590 384q0 73 -41.5 117t-117.5 44q-95 0 -163.5 -74t-68.5 -193q0 -71 41.5 -114.5t116.5 -43.5q95 0 164 72.5t69 191.5z" />
    <glyph glyph-name="P" unicode="P" horiz-adv-x="685" 
d="M705 488q0 -110 -77 -185t-189 -75h-202l-40 -228h-147l117 666h341q90 0 143.5 -50.5t53.5 -127.5zM552 467q0 35 -23.5 58t-58.5 23h-176l-36 -201h177q51 0 84 37t33 83z" />
    <glyph glyph-name="Q" unicode="Q" horiz-adv-x="748" 
d="M738 393q0 -146 -93.5 -259.5t-239.5 -138.5l-32 -185h-142l33 187q-95 22 -154.5 96t-59.5 174q0 177 117 293t287 116q125 0 204.5 -80.5t79.5 -202.5zM589 384q0 73 -41 117t-117 44q-95 0 -163.5 -74.5t-68.5 -193.5q0 -71 41 -114t116 -43q95 0 164 72.5t69 191.5z
" />
    <glyph glyph-name="R" unicode="R" horiz-adv-x="759" 
d="M558 471q0 34 -23 55t-58 21h-183l-33 -192h183q50 0 82 36.5t32 79.5zM712 493q1 -80 -45.5 -141.5t-114.5 -90.5l145 -261h-180l-132 240h-145l-42 -240h-148l117 666h361q82 0 132.5 -49t51.5 -124z" />
    <glyph glyph-name="S" unicode="S" horiz-adv-x="647" 
d="M650 645l-33 -123q-101 27 -214 27q-71 0 -104.5 -12.5t-33.5 -41.5q0 -12 4 -22.5t15.5 -20t20.5 -16t32.5 -16.5t37 -15t46.5 -18q108 -41 144 -80.5t36 -98.5q0 -105 -83 -162t-239 -57q-130 0 -259 52l40 116q131 -43 239 -43q67 0 108.5 18t41.5 53q0 23 -26 42.5
t-119 53.5q-97 36 -144 77.5t-47 109.5q0 104 82 156t228 52q131 0 227 -31z" />
    <glyph glyph-name="T" unicode="T" horiz-adv-x="608" 
d="M674 666l-23 -129h-218l-95 -537h-148l95 537h-219l23 129h585z" />
    <glyph glyph-name="U" unicode="U" horiz-adv-x="751" 
d="M751 666l-68 -389q-21 -122 -115.5 -205t-234.5 -83q-117 0 -185 67t-68 169q0 28 4 52l69 389h148l-69 -389q-3 -18 -3 -34q0 -57 34.5 -89.5t92.5 -32.5q71 0 118 42t60 114l69 389h148z" />
    <glyph glyph-name="V" unicode="V" horiz-adv-x="636" 
d="M708 666l-349 -666h-153l-116 666h148l75 -491l247 491h148z" />
    <glyph glyph-name="W" unicode="W" horiz-adv-x="864" 
d="M924 666l-279 -666h-118l-63 420l-210 -420h-117l-44 666h146l22 -393l196 393h102l58 -393l161 393h146z" />
    <glyph glyph-name="X" unicode="X" horiz-adv-x="632" 
d="M697 666l-282 -330l169 -336h-163l-107 223l-187 -223h-162l287 336l-165 330h161l106 -215l181 215h162z" />
    <glyph glyph-name="Y" unicode="Y" horiz-adv-x="600" 
d="M688 666l-297 -404l-46 -262h-148l46 262l-155 404h148l104 -274l200 274h148z" />
    <glyph glyph-name="Z" unicode="Z" horiz-adv-x="646" 
d="M672 666l-24 -132l-435 -407h377l-23 -127h-554l24 134l436 405h-356l23 127h532z" />
    <glyph glyph-name="bracketleft" unicode="[" horiz-adv-x="351" 
d="M451 790l-20 -112h-115l-122 -691h115l-20 -113h-259l162 916h259z" />
    <glyph glyph-name="backslash" unicode="\" horiz-adv-x="510" 
d="M410 -117h-121l-149 793h121z" />
    <glyph glyph-name="bracketright" unicode="]" horiz-adv-x="351" 
d="M371 790l-162 -916h-259l20 113h115l122 691h-115l20 112h259z" />
    <glyph glyph-name="asciicircum" unicode="^" horiz-adv-x="480" 
d="M485 327h-108l-104 234l-105 -234h-108l168 339h90z" />
    <glyph glyph-name="underscore" unicode="_" horiz-adv-x="442" 
d="M457 -11l-8 -46h-464l8 46h464z" />
    <glyph glyph-name="grave" unicode="`" horiz-adv-x="371" 
d="M244 537l-108 133h165l60 -133h-117z" />
    <glyph glyph-name="a" unicode="a" 
d="M538 487l-86 -487h-142l19 100q-26 -47 -70.5 -77.5t-91.5 -30.5q-76 0 -109 50.5t-33 124.5q0 76 29.5 150t90.5 126.5t139 52.5q62 0 107 -34l4 25h143zM375 372q-36 17 -66 17q-68 0 -104.5 -66.5t-36.5 -149.5q0 -34 9 -53t36 -19q54 0 102.5 81t58.5 180z" />
    <glyph glyph-name="b" unicode="b" horiz-adv-x="562" 
d="M537 321q0 -79 -28.5 -152.5t-88.5 -125t-138 -51.5q-30 0 -62.5 15t-45.5 35l-7 -42h-142l118 666h141l-50 -279q26 47 70.5 78t91.5 31q76 0 108.5 -50.5t32.5 -124.5zM394 315q0 34 -8.5 52.5t-35.5 18.5q-47 0 -91 -78t-70 -183l-2 -8q36 -17 63 -17q46 0 80.5 37
t49 84.5t14.5 93.5z" />
    <glyph glyph-name="c" unicode="c" horiz-adv-x="446" 
d="M433 482l-29 -103q-45 9 -75 9q-72 0 -114.5 -49t-42.5 -137q0 -102 86 -102q48 0 110 25l29 -98q-79 -35 -164 -35q-95 0 -149 58t-54 146q0 132 78 216t214 84q59 0 111 -14z" />
    <glyph glyph-name="d" unicode="d" horiz-adv-x="564" 
d="M572 666l-118 -666h-141l18 100q-26 -47 -70.5 -77.5t-91.5 -30.5q-76 0 -108.5 50.5t-32.5 124.5q0 56 17.5 113.5t49.5 106t82 79t109 30.5q54 0 107 -34l37 204h142zM378 371q-38 18 -67 18q-68 0 -104 -66.5t-36 -149.5q0 -34 8.5 -53t35.5 -19q51 0 94.5 77
t66.5 184z" />
    <glyph glyph-name="e" unicode="e" horiz-adv-x="505" 
d="M490 373q0 -97 -81 -142.5t-250 -42.5q0 -86 125 -86q62 0 130 22l21 -97q-77 -35 -172 -35q-115 0 -176.5 56t-61.5 150q0 134 81.5 216t204.5 82q88 0 133.5 -35t45.5 -88zM363 354q0 36 -58 36q-97 0 -129 -93q187 -3 187 57z" />
    <glyph glyph-name="f" unicode="f" horiz-adv-x="348" 
d="M438 676l-33 -99q-25 5 -55 5q-61 0 -72 -70l-6 -35h99l-23 -93h-93l-69 -384h-141l68 384h-64l17 93h64l5 30q14 88 65 136t135 48q53 0 103 -15z" />
    <glyph glyph-name="g" unicode="g" horiz-adv-x="568" 
d="M550 487l-75 -397q-26 -138 -94.5 -200t-204.5 -62q-90 0 -168 29l25 94q73 -22 136 -22q84 0 117 38.5t55 153.5q-29 -51 -71.5 -79.5t-90.5 -28.5q-76 0 -109 50.5t-33 124.5q0 71 29.5 140t90.5 118.5t139 49.5q67 0 107 -32l4 23h143zM388 373q-34 16 -67 16
q-46 0 -79.5 -33t-47.5 -76t-14 -86q0 -34 9 -52.5t36 -18.5q53 0 96.5 67.5t64.5 172.5z" />
    <glyph glyph-name="h" unicode="h" horiz-adv-x="579" 
d="M532 354q0 -32 -5 -58l-52 -296h-142l48 275q4 21 4 44q0 52 -45 52q-106 0 -163 -311l-11 -60h-141l118 666h137l-51 -279q26 42 76.5 75.5t95.5 33.5q131 0 131 -142z" />
    <glyph glyph-name="i" unicode="i" horiz-adv-x="282" 
d="M256 487l-85 -487h-141l85 487h141zM292 691l-21 -121h-141l21 121h141z" />
    <glyph glyph-name="j" unicode="j" horiz-adv-x="271" 
d="M255 487l-86 -491q-15 -84 -66.5 -125.5t-130.5 -41.5q-30 0 -52 3l16 111q12 -2 28 -2q32 0 45 15.5t21 57.5l83 473h142zM291 692l-21 -122h-142l21 122h142z" />
    <glyph glyph-name="k" unicode="k" horiz-adv-x="537" 
d="M562 487l-244 -241l165 -246h-163l-120 193l-34 -193h-141l117 666h141l-64 -365l179 186h164z" />
    <glyph glyph-name="l" unicode="l" horiz-adv-x="336" 
d="M291 22q-47 -30 -110 -30q-64 0 -102.5 31t-38.5 92q0 22 4 43l90 508h141l-88 -494q-3 -21 -3 -34q0 -38 36 -38q22 0 43 12z" />
    <glyph glyph-name="m" unicode="m" horiz-adv-x="884" 
d="M837 356q0 -28 -6 -60l-52 -296h-142l49 275q4 20 4 41q0 55 -46 55q-101 0 -158 -311l-11 -60h-142l49 275q4 20 4 41q0 55 -46 55q-101 0 -158 -311l-11 -60h-141l86 487h137l-19 -100q26 43 74 76t93 33q115 0 129 -109q29 45 79 77t96 32q66 0 99 -37t33 -103z" />
    <glyph glyph-name="n" unicode="n" horiz-adv-x="584" 
d="M537 352q0 -16 -6 -56l-51 -296h-142l48 275q4 21 4 44q0 52 -46 52q-51 0 -93.5 -75t-69.5 -236l-10 -60h-141l85 487h137l-19 -100q26 42 76.5 75.5t95.5 33.5q132 0 132 -144z" />
    <glyph glyph-name="o" unicode="o" horiz-adv-x="550" 
d="M525 292q0 -121 -78.5 -210.5t-212.5 -89.5q-95 0 -149.5 58t-54.5 146q0 127 85 213.5t207 86.5q94 0 148.5 -58t54.5 -146zM384 283q0 105 -81 105q-55 0 -92.5 -50t-37.5 -136q0 -102 80 -102q55 0 93 50t38 133z" />
    <glyph glyph-name="p" unicode="p" horiz-adv-x="556" 
d="M531 321q0 -76 -29.5 -150t-90.5 -126.5t-139 -52.5q-54 0 -107 34l-34 -188h-141l114 649h142l-19 -99q26 47 70.5 77.5t91.5 30.5q76 0 109 -50.5t33 -124.5zM388 315q0 34 -9 53t-36 19q-54 0 -102 -80.5t-59 -180.5l-1 -9q38 -18 66 -18q68 0 104.5 66.5t36.5 149.5z
" />
    <glyph glyph-name="q" unicode="q" horiz-adv-x="567" 
d="M545 487l-115 -649h-141l47 262q-26 -47 -70.5 -77.5t-91.5 -30.5q-76 0 -108.5 50.5t-32.5 124.5q0 79 28.5 152.5t88.5 125t138 51.5q29 0 62 -15t46 -35l7 41h142zM383 371q-36 17 -63 17q-46 0 -80.5 -37t-49 -84.5t-14.5 -93.5q0 -34 8.5 -52.5t35.5 -18.5
q47 0 91 78t70 183z" />
    <glyph glyph-name="r" unicode="r" horiz-adv-x="379" 
d="M414 493l-37 -134q-16 2 -23 2q-54 0 -102 -74.5t-73 -226.5l-10 -60h-141l85 487h137l-19 -100q24 44 64 76.5t90 32.5q14 0 29 -3z" />
    <glyph glyph-name="s" unicode="s" horiz-adv-x="468" 
d="M443 472l-23 -101q-70 19 -149 19q-44 0 -58 -7.5t-14 -26.5q0 -17 11.5 -25.5t73.5 -39.5q81 -41 106.5 -68t25.5 -73q0 -158 -233 -158q-89 0 -175 38l30 95q81 -29 160 -29q45 0 62 10t17 32q0 12 -11.5 22.5t-50.5 31.5q-48 26 -68 38t-44 31.5t-31.5 38.5t-7.5 46
q0 81 54 115.5t165 34.5q80 0 160 -24z" />
    <glyph glyph-name="t" unicode="t" horiz-adv-x="344" 
d="M344 487l-16 -91h-85l-39 -219q-4 -21 -4 -39q0 -38 29 -38q22 0 50 10l22 -93q-45 -25 -105 -25q-64 0 -102.5 31t-38.5 92q0 23 4 44l42 237h-61l16 91h62l24 136h141l-24 -136h85z" />
    <glyph glyph-name="u" unicode="u" horiz-adv-x="582" 
d="M552 487l-86 -487h-137l19 100q-26 -42 -76 -75t-95 -33q-132 0 -132 139q0 34 5 60l52 296h142l-48 -275q-4 -28 -4 -39q0 -28 10 -42.5t35 -14.5q106 0 163 311l11 60h141z" />
    <glyph glyph-name="v" unicode="v" horiz-adv-x="490" 
d="M530 487l-263 -487h-141l-91 487h137l50 -344l172 344h136z" />
    <glyph glyph-name="w" unicode="w" horiz-adv-x="712" 
d="M747 487l-220 -487h-137l-25 322l-142 -322h-137l-46 487h130l16 -334l146 334h123l26 -334l134 334h132z" />
    <glyph glyph-name="x" unicode="x" horiz-adv-x="483" 
d="M518 487l-202 -239l119 -248h-144l-66 139l-115 -139h-145l207 248l-117 239h145l62 -137l110 137h146z" />
    <glyph glyph-name="y" unicode="y" horiz-adv-x="485" 
d="M525 487l-351 -650h-137l88 163l-95 487h137l54 -335l167 335h137z" />
    <glyph glyph-name="z" unicode="z" horiz-adv-x="516" 
d="M511 487l-18 -103l-305 -280h260l-19 -104h-424l19 104l298 280h-228l18 103h399z" />
    <glyph glyph-name="braceleft" unicode="{" horiz-adv-x="356" 
d="M471 790l-18 -102q-8 0 -30 1t-30 0t-21.5 -5t-20.5 -15.5t-10 -29.5l-30 -168q-13 -69 -60.5 -107.5t-118.5 -38.5v-2q59 0 94.5 -28.5t35.5 -85.5q0 -35 -17.5 -111t-17.5 -108q0 -13 6.5 -20.5t19.5 -10t23.5 -2.5t27 1t21.5 1l-18 -102h-136q-93 0 -93 88
q0 47 22 142t22 142q0 31 -14 38.5t-48 7.5l17 98q45 0 61.5 16.5t25.5 63.5l38 219q9 55 43.5 86.5t89.5 31.5h136z" />
    <glyph glyph-name="bar" unicode="|" horiz-adv-x="300" 
d="M230 800v-1000h-100v1000h100z" />
    <glyph glyph-name="braceright" unicode="}" horiz-adv-x="356" 
d="M352 373l-19 -98q-45 0 -61.5 -16.5t-24.5 -63.5l-38 -220q-9 -55 -43.5 -86.5t-89.5 -31.5h-136l18 102q8 0 30 -1t30 0t21.5 5t20.5 15.5t10 29.5l30 168q13 69 60.5 108t118.5 39v2q-59 0 -94.5 28t-35.5 85q0 35 17.5 111t17.5 108q0 13 -6.5 21t-19 10t-23.5 2
t-27 -1t-22 -1l18 102h136q94 0 94 -88q0 -46 -22.5 -142t-22.5 -142q0 -16 4 -26t14.5 -13.5t18.5 -4.5t26 -1z" />
    <glyph glyph-name="asciitilde" unicode="~" horiz-adv-x="476" 
d="M469 327q-28 -56 -70 -97.5t-92 -41.5q-29 0 -55 15t-47 30.5t-36 15.5q-37 0 -72 -63l-62 32q28 56 70 98t92 42q29 0 55 -15.5t47 -31t36 -15.5q37 0 72 63z" />
    <glyph glyph-name="exclamdown" unicode="&#xa1;" horiz-adv-x="334" 
d="M239 440l-9 -281l-28 -159h-147l28 159l90 281h66zM324 666l-28 -154h-155l28 154h155z" />
    <glyph glyph-name="cent" unicode="&#xa2;" horiz-adv-x="446" 
d="M433 482l-29 -103q-45 9 -75 9q-9 0 -27 -2l-50 -285q1 0 3 -0.5t3 -0.5q48 0 110 25l29 -98q-79 -35 -164 -35l-12 -65h-20l12 66q-86 7 -134.5 63.5t-48.5 139.5q0 126 72.5 209.5t199.5 90.5l10 59h20l-10 -59q59 0 111 -14zM281 381q-52 -14 -80.5 -60t-28.5 -119
q0 -86 60 -99z" />
    <glyph glyph-name="sterling" unicode="&#xa3;" horiz-adv-x="707" 
d="M727 635l-33 -113q-97 27 -208 27q-84 0 -116 -20t-32 -73q0 -44 11 -99h198l-13 -73h-188q-9 -52 -24 -90t-47 -78h334l-21 -116h-548l21 116h66q56 89 69 168h-90l13 73h81q-11 55 -11 91q0 128 70 178t236 50q49 0 117 -11.5t115 -29.5z" />
    <glyph glyph-name="currency" unicode="&#xa4;" horiz-adv-x="712" 
d="M732 647l-42 -123q-79 21 -148 21q-173 0 -247 -123h169l-11 -59h-183q-3 -10 -7 -30q-2 -11 -4 -33h183l-10 -60h-167q33 -120 203 -120q61 0 154 21l-2 -121q-100 -31 -197 -31q-133 0 -216.5 70t-95.5 181h-91l10 60h80q1 11 5 33l6 30h-80l11 59h91q114 254 402 254
q101 0 187 -29z" />
    <glyph glyph-name="yen" unicode="&#xa5;" horiz-adv-x="623" 
d="M711 666l-206 -280h88l-14 -79h-132l-34 -45l-4 -24h158l-14 -80h-158l-28 -158h-148l28 158h-159l14 80h159l4 24l-16 45h-135l14 79h90l-108 280h148l104 -275l201 275h148z" />
    <glyph glyph-name="brokenbar" unicode="&#xa6;" horiz-adv-x="300" 
d="M230 800v-407h-100v407h100zM230 207v-407h-100v407h100z" />
    <glyph glyph-name="section" unicode="&#xa7;" horiz-adv-x="581" 
d="M586 647l-37 -104q-82 24 -182 24h-5q-22 0 -36 -1t-35 -5.5t-32 -16.5t-11 -31q0 -20 30 -37.5t72 -33t84.5 -34t72.5 -48.5t30 -68q0 -51 -28.5 -94t-74.5 -70q57 -34 57 -92q0 -70 -43.5 -119t-103.5 -68.5t-129 -19.5q-119 0 -230 48l43 98q112 -39 204 -39
q130 0 130 69q0 19 -29.5 35t-72 31t-84.5 34.5t-71.5 53.5t-29.5 79q0 105 94 154q-50 36 -50 92q0 107 69 149.5t197 42.5q121 0 201 -29zM407 262q0 19 -24 32q-16 10 -37 18.5t-47 18t-39 15.5q-23 -12 -39 -34t-16 -46q0 -13 8.5 -25t26.5 -23t29.5 -17t35 -15
t25.5 -10q29 11 53 34.5t24 51.5z" />
    <glyph glyph-name="dieresis" unicode="&#xa8;" horiz-adv-x="446" 
d="M329 541l22 123h123l-22 -123h-123zM116 541l22 123h123l-22 -123h-123z" />
    <glyph glyph-name="copyright" unicode="&#xa9;" horiz-adv-x="729" 
d="M719 333q0 -143 -94.5 -243.5t-237.5 -100.5t-237.5 100.5t-94.5 243.5q0 142 94.5 242.5t237.5 100.5t237.5 -100.5t94.5 -242.5zM661 333q0 117 -76.5 203t-197.5 86t-197.5 -86t-76.5 -203t76.5 -203.5t197.5 -86.5t197.5 86.5t76.5 203.5zM507 491l-11 -61
q-41 10 -75 10q-61 0 -92 -29t-31 -78t31 -78.5t92 -29.5q32 0 75 10l10 -60q-52 -16 -96 -16q-81 0 -133.5 50.5t-52.5 123.5t52.5 123t133.5 50q48 0 97 -15z" />
    <glyph glyph-name="ordfeminine" unicode="&#xaa;" horiz-adv-x="418" 
d="M438 671l-57 -327h-95l12 67q-17 -31 -47 -51.5t-61 -20.5q-50 0 -72.5 34t-22.5 83q0 81 48 150.5t125 69.5q43 0 72 -23l3 18h95zM329 587v6q-24 12 -44 12q-46 0 -70 -45t-24 -100q0 -48 30 -48q38 0 73 55t35 120z" />
    <glyph glyph-name="guillemotleft" unicode="&#xab;" horiz-adv-x="631" 
d="M365 431l-208 -187l142 -188l-70 -56l-184 243l270 244zM596 431l-208 -187l142 -188l-69 -56l-185 243l270 244z" />
    <glyph glyph-name="logicalnot" unicode="&#xac;" horiz-adv-x="556" 
d="M466 0h-104v188h-302v101h406v-289z" />
    <glyph glyph-name="registered" unicode="&#xae;" horiz-adv-x="729" 
d="M719 333q0 -143 -94.5 -243.5t-237.5 -100.5t-237.5 100.5t-94.5 243.5q0 142 94.5 242.5t237.5 100.5t237.5 -100.5t94.5 -242.5zM660 333q0 117 -76 203t-197 86t-197.5 -86t-76.5 -203t76.5 -203.5t197.5 -86.5t197 86.5t76 203.5zM542 392q0 -66 -64 -96l97 -131h-90
l-88 121h-73v-121h-74v335h182q47 0 78.5 -32t31.5 -76zM466 392q0 21 -14 35t-35 14h-93v-98h93q21 0 35 14t14 35z" />
    <glyph glyph-name="macron" unicode="&#xaf;" horiz-adv-x="421" 
d="M121 554l16 94h304l-17 -94h-303z" />
    <glyph glyph-name="degree" unicode="&#xb0;" horiz-adv-x="308" 
d="M190 459q-39 0 -64.5 25.5t-25.5 64.5q0 52 36.5 89.5t91.5 37.5q39 0 64.5 -25t25.5 -64q0 -52 -38.5 -90t-89.5 -38zM282 581q0 26 -17 43t-43 17q-34 0 -60 -26t-26 -60q0 -26 17 -43t43 -17q34 0 60 26t26 60z" />
    <glyph glyph-name="plusminus" unicode="&#xb1;" horiz-adv-x="585" 
d="M545 288v-100h-186v-100h186v-88h-475v88h186v100h-186v100h186v189h103v-189h186z" />
    <glyph glyph-name="twosuperior" unicode="&#xb2;" horiz-adv-x="666" 
d="M666 0h-167v167h-166v166h-167v167h167v-167h166v-166h167v-167zM666 333h-167v167h167v-167zM333 0h-167v167h167v-167zM499 500h-166v166h166v-166zM166 167h-166v166h166v-166zM166 500h-166v166h166v-166z" />
    <glyph glyph-name="threesuperior" unicode="&#xb3;" horiz-adv-x="666" 
d="M666 0h-167v167h-166v166h-167v167h167v-167h166v-166h167v-167zM666 333h-167v167h167v-167zM333 0h-167v167h167v-167zM499 500h-166v166h166v-166zM166 167h-166v166h166v-166zM166 500h-166v166h166v-166z" />
    <glyph glyph-name="acute" unicode="&#xb4;" horiz-adv-x="370" 
d="M121 537l106 133h169l-152 -133h-123z" />
    <glyph glyph-name="mu" unicode="&#xb5;" horiz-adv-x="650" 
d="M620 487l-86 -486h-138l14 75q-36 -41 -89.5 -64t-106.5 -19l-27 -155h-142l114 649h142l-49 -281q-2 -16 -2 -25q0 -63 64 -63q37 0 72.5 27t42.5 63l49 279h142z" />
    <glyph glyph-name="paragraph" unicode="&#xb6;" horiz-adv-x="466" 
d="M456 666l-118 -666h-67l110 625h-69l-110 -625h-66l64 359q-55 0 -92.5 36t-37.5 91q0 71 56 125.5t127 54.5h203z" />
    <glyph glyph-name="periodcentered" unicode="&#xb7;" horiz-adv-x="307" 
d="M252 378l-28 -156h-154l28 156h154z" />
    <glyph glyph-name="cedilla" unicode="&#xb8;" horiz-adv-x="302" 
d="M19 -167l15 46q18 -6 47 -6q40 0 40 24q0 19 -30 19q-17 0 -43 -2l43 86h52l-18 -40q9 3 23 3q66 0 66 -63q0 -37 -30.5 -59t-76.5 -22q-54 0 -88 14z" />
    <glyph glyph-name="onesuperior" unicode="&#xb9;" horiz-adv-x="666" 
d="M666 0h-167v167h-166v166h-167v167h167v-167h166v-166h167v-167zM666 333h-167v167h167v-167zM333 0h-167v167h167v-167zM499 500h-166v166h166v-166zM166 167h-166v166h166v-166zM166 500h-166v166h166v-166z" />
    <glyph glyph-name="ordmasculine" unicode="&#xba;" horiz-adv-x="397" 
d="M412 539q0 -81 -53 -141t-143 -60q-64 0 -100 39t-36 98q0 85 57 143t139 58q63 0 99.5 -39.5t36.5 -97.5zM317 534q0 69 -54 69q-37 0 -62.5 -33t-25.5 -91q0 -68 54 -68q37 0 62.5 33.5t25.5 89.5z" />
    <glyph glyph-name="guillemotright" unicode="&#xbb;" horiz-adv-x="631" 
d="M601 243l-270 -243l-50 56l208 188l-142 187l70 56zM370 243l-271 -243l-49 56l208 188l-142 187l70 56z" />
    <glyph glyph-name="onequarter" unicode="&#xbc;" horiz-adv-x="666" 
d="M666 0h-167v167h-166v166h-167v167h167v-167h166v-166h167v-167zM666 333h-167v167h167v-167zM333 0h-167v167h167v-167zM499 500h-166v166h166v-166zM166 167h-166v166h166v-166zM166 500h-166v166h166v-166z" />
    <glyph glyph-name="onehalf" unicode="&#xbd;" horiz-adv-x="666" 
d="M666 0h-167v167h-166v166h-167v167h167v-167h166v-166h167v-167zM666 333h-167v167h167v-167zM333 0h-167v167h167v-167zM499 500h-166v166h166v-166zM166 167h-166v166h166v-166zM166 500h-166v166h166v-166z" />
    <glyph glyph-name="threequarters" unicode="&#xbe;" horiz-adv-x="666" 
d="M666 0h-167v167h-166v166h-167v167h167v-167h166v-166h167v-167zM666 333h-167v167h167v-167zM333 0h-167v167h167v-167zM499 500h-166v166h166v-166zM166 167h-166v166h166v-166zM166 500h-166v166h166v-166z" />
    <glyph glyph-name="questiondown" unicode="&#xbf;" horiz-adv-x="580" 
d="M48 145q0 173 277 311l48 -86q-1 -1 -20 -13t-24 -15t-23 -15.5t-24.5 -18t-22 -18.5t-22 -21t-17 -21t-15 -23.5t-8.5 -23.5t-4 -26q0 -63 121 -63q85 0 190 27l4 -112q-123 -38 -233 -38q-43 0 -80 7t-72 23t-55 48.5t-20 77.5zM278 510l27 156h154l-27 -156h-154z" />
    <glyph glyph-name="Agrave" unicode="&#xc0;" horiz-adv-x="661" 
d="M616 0h-145l-27 137h-248l-76 -137h-145l370 666h137zM427 249l-39 271l-137 -271h176zM351 716l-108 133h165l60 -133h-117z" />
    <glyph glyph-name="Aacute" unicode="&#xc1;" horiz-adv-x="661" 
d="M616 0h-145l-27 137h-248l-76 -137h-145l370 666h137zM427 249l-39 271l-137 -271h176zM364 716l106 133h169l-152 -133h-123z" />
    <glyph glyph-name="Acircumflex" unicode="&#xc2;" horiz-adv-x="661" 
d="M616 0h-145l-27 137h-248l-76 -137h-145l370 666h137zM427 249l-39 271l-137 -271h176zM253 716l136 133h102l89 -133h-114l-36 56l-56 -56h-121z" />
    <glyph glyph-name="Atilde" unicode="&#xc3;" horiz-adv-x="661" 
d="M616 0h-145l-27 137h-248l-76 -137h-145l370 666h137zM427 249l-39 271l-137 -271h176zM235 736q8 58 36 91t75 33q36 0 86 -22q42 -20 57 -20q23 0 37 44l79 -24q-14 -59 -39.5 -89t-70.5 -30q-31 0 -78 18q-52 20 -64 20q-27 0 -37 -41z" />
    <glyph glyph-name="Adieresis" unicode="&#xc4;" horiz-adv-x="661" 
d="M616 0h-145l-27 137h-248l-76 -137h-145l370 666h137zM427 249l-39 271l-137 -271h176zM465 720l22 123h123l-22 -123h-123zM252 720l22 123h123l-22 -123h-123z" />
    <glyph glyph-name="Aring" unicode="&#xc5;" horiz-adv-x="661" 
d="M412 666q24 0 37.5 14t13.5 34q0 15 -9.5 26t-26.5 11q-24 0 -37.5 -14.5t-13.5 -35.5q0 -15 9.5 -25t26.5 -10zM427 249l-39 271l-137 -271h176zM196 137l-76 -137h-145l362 652q-14 20 -14 45q0 44 29 71.5t79 27.5q37 0 60.5 -21.5t23.5 -53.5q0 -45 -29 -72l130 -649
h-145l-27 137h-248z" />
    <glyph glyph-name="AE" unicode="&#xc6;" horiz-adv-x="915" 
d="M401 249l-11 271l-138 -271h149zM933 666l-23 -127h-386l10 -132h320l-22 -127h-289l12 -153h283l-23 -127h-403l-6 136h-209l-76 -136h-146l369 666h589z" />
    <glyph glyph-name="Ccedilla" unicode="&#xc7;" horiz-adv-x="654" 
d="M350 -181q-54 0 -88 14l15 46q18 -6 47 -6q40 0 40 24q0 19 -30 19q-17 0 -43 -2l39 77q-123 13 -201.5 92t-78.5 191q0 177 123.5 289.5t312.5 112.5q102 0 188 -29l-43 -123q-83 21 -147 21q-128 0 -206.5 -67t-78.5 -189q0 -84 54.5 -126.5t155.5 -42.5q62 0 155 21
l-4 -121q-81 -29 -179 -31l-13 -29q9 3 23 3q66 0 66 -63q0 -37 -30.5 -59t-76.5 -22z" />
    <glyph glyph-name="Egrave" unicode="&#xc8;" horiz-adv-x="637" 
d="M655 666l-23 -127h-339l-23 -132h320l-22 -127h-320l-27 -153h339l-23 -127h-487l118 666h487zM356 716l-108 133h165l60 -133h-117z" />
    <glyph glyph-name="Eacute" unicode="&#xc9;" horiz-adv-x="637" 
d="M655 666l-23 -127h-339l-23 -132h320l-22 -127h-320l-27 -153h339l-23 -127h-487l118 666h487zM346 716l106 133h169l-152 -133h-123z" />
    <glyph glyph-name="Ecircumflex" unicode="&#xca;" horiz-adv-x="637" 
d="M655 666l-23 -127h-339l-23 -132h320l-22 -127h-320l-27 -153h339l-23 -127h-487l118 666h487zM261 716l136 133h102l89 -133h-114l-36 56l-56 -56h-121z" />
    <glyph glyph-name="Edieresis" unicode="&#xcb;" horiz-adv-x="637" 
d="M655 666l-23 -127h-339l-23 -132h320l-22 -127h-320l-27 -153h339l-23 -127h-487l118 666h487zM468 720l22 123h123l-22 -123h-123zM255 720l22 123h123l-22 -123h-123z" />
    <glyph glyph-name="Igrave" unicode="&#xcc;" horiz-adv-x="335" 
d="M320 666l-117 -666h-148l117 666h148zM187 716l-108 133h165l60 -133h-117z" />
    <glyph glyph-name="Iacute" unicode="&#xcd;" horiz-adv-x="335" 
d="M320 666l-117 -666h-148l117 666h148zM195 716l106 133h169l-152 -133h-123z" />
    <glyph glyph-name="Icircumflex" unicode="&#xce;" horiz-adv-x="335" 
d="M320 666l-117 -666h-148l117 666h148zM88 716l136 133h102l89 -133h-114l-36 56l-56 -56h-121z" />
    <glyph glyph-name="Idieresis" unicode="&#xcf;" horiz-adv-x="335" 
d="M320 666l-117 -666h-148l117 666h148zM304 720l22 123h123l-22 -123h-123zM91 720l22 123h123l-22 -123h-123z" />
    <glyph glyph-name="Eth" unicode="&#xd0;" horiz-adv-x="714" 
d="M217 0h-154l48 277h-76l19 115h78l49 274h154q169 0 270.5 -75t101.5 -204q0 -178 -137.5 -282.5t-352.5 -104.5zM234 131h35q121 0 202 62.5t81 184.5q0 80 -59 118.5t-154 38.5h-35l-25 -143h135l-20 -115h-135z" />
    <glyph glyph-name="Ntilde" unicode="&#xd1;" horiz-adv-x="791" 
d="M781 666l-117 -666h-145l-245 443l-78 -443h-146l117 666h145l245 -444l78 444h146zM290 736q8 58 36 91t75 33q36 0 86 -22q42 -20 57 -20q23 0 37 44l79 -24q-14 -59 -39.5 -89t-70.5 -30q-31 0 -78 18q-52 20 -64 20q-27 0 -37 -41z" />
    <glyph glyph-name="Ograve" unicode="&#xd2;" horiz-adv-x="748" 
d="M738 394q0 -164 -116 -284.5t-289 -120.5q-121 0 -202 80t-81 199q0 175 121 291.5t284 116.5q125 0 204 -80t79 -202zM590 384q0 73 -41.5 117t-117.5 44q-95 0 -163.5 -74t-68.5 -193q0 -71 41.5 -114.5t116.5 -43.5q95 0 164 72.5t69 191.5zM385 716l-108 133h165
l60 -133h-117z" />
    <glyph glyph-name="Oacute" unicode="&#xd3;" horiz-adv-x="748" 
d="M738 394q0 -164 -116 -284.5t-289 -120.5q-121 0 -202 80t-81 199q0 175 121 291.5t284 116.5q125 0 204 -80t79 -202zM590 384q0 73 -41.5 117t-117.5 44q-95 0 -163.5 -74t-68.5 -193q0 -71 41.5 -114.5t116.5 -43.5q95 0 164 72.5t69 191.5zM400 716l106 133h169
l-152 -133h-123z" />
    <glyph glyph-name="Ocircumflex" unicode="&#xd4;" horiz-adv-x="748" 
d="M738 394q0 -164 -116 -284.5t-289 -120.5q-121 0 -202 80t-81 199q0 175 121 291.5t284 116.5q125 0 204 -80t79 -202zM590 384q0 73 -41.5 117t-117.5 44q-95 0 -163.5 -74t-68.5 -193q0 -71 41.5 -114.5t116.5 -43.5q95 0 164 72.5t69 191.5zM291 716l136 133h102
l89 -133h-114l-36 56l-56 -56h-121z" />
    <glyph glyph-name="Otilde" unicode="&#xd5;" horiz-adv-x="748" 
d="M738 394q0 -164 -116 -284.5t-289 -120.5q-121 0 -202 80t-81 199q0 175 121 291.5t284 116.5q125 0 204 -80t79 -202zM590 384q0 73 -41.5 117t-117.5 44q-95 0 -163.5 -74t-68.5 -193q0 -71 41.5 -114.5t116.5 -43.5q95 0 164 72.5t69 191.5zM286 736q8 58 36 91t75 33
q36 0 86 -22q42 -20 57 -20q23 0 37 44l79 -24q-14 -59 -39.5 -89t-70.5 -30q-31 0 -78 18q-52 20 -64 20q-27 0 -37 -41z" />
    <glyph glyph-name="Odieresis" unicode="&#xd6;" horiz-adv-x="748" 
d="M738 394q0 -164 -116 -284.5t-289 -120.5q-121 0 -202 80t-81 199q0 175 121 291.5t284 116.5q125 0 204 -80t79 -202zM590 384q0 73 -41.5 117t-117.5 44q-95 0 -163.5 -74t-68.5 -193q0 -71 41.5 -114.5t116.5 -43.5q95 0 164 72.5t69 191.5zM503 720l22 123h123
l-22 -123h-123zM290 720l22 123h123l-22 -123h-123z" />
    <glyph glyph-name="multiply" unicode="&#xd7;" horiz-adv-x="494" 
d="M464 372l-131 -133l131 -132l-73 -73l-132 132l-131 -132l-73 73l131 132l-131 133l73 73l131 -132l132 132z" />
    <glyph glyph-name="Oslash" unicode="&#xd8;" horiz-adv-x="845" 
d="M835 639l-96 -82q47 -70 47 -163q0 -173 -115 -289t-290 -116q-123 0 -205 82l-95 -82l-31 37l96 82q-47 70 -47 164q0 170 112 287t292 117q124 0 206 -83l95 83zM599 499q-43 46 -120 46q-103 0 -167.5 -78.5t-64.5 -183.5q0 -42 14 -76zM638 382q0 38 -14 75
l-338 -291q43 -46 119 -46q97 0 165 79.5t68 182.5z" />
    <glyph glyph-name="Ugrave" unicode="&#xd9;" horiz-adv-x="751" 
d="M751 666l-68 -389q-21 -122 -115.5 -205t-234.5 -83q-117 0 -185 67t-68 169q0 28 4 52l69 389h148l-69 -389q-3 -18 -3 -34q0 -57 34.5 -89.5t92.5 -32.5q71 0 118 42t60 114l69 389h148zM387 716l-108 133h165l60 -133h-117z" />
    <glyph glyph-name="Uacute" unicode="&#xda;" horiz-adv-x="751" 
d="M751 666l-68 -389q-21 -122 -115.5 -205t-234.5 -83q-117 0 -185 67t-68 169q0 28 4 52l69 389h148l-69 -389q-3 -18 -3 -34q0 -57 34.5 -89.5t92.5 -32.5q71 0 118 42t60 114l69 389h148zM385 716l106 133h169l-152 -133h-123z" />
    <glyph glyph-name="Ucircumflex" unicode="&#xdb;" horiz-adv-x="751" 
d="M751 666l-68 -389q-21 -122 -115.5 -205t-234.5 -83q-117 0 -185 67t-68 169q0 28 4 52l69 389h148l-69 -389q-3 -18 -3 -34q0 -57 34.5 -89.5t92.5 -32.5q71 0 118 42t60 114l69 389h148zM297 716l136 133h102l89 -133h-114l-36 56l-56 -56h-121z" />
    <glyph glyph-name="Udieresis" unicode="&#xdc;" horiz-adv-x="751" 
d="M751 666l-68 -389q-21 -122 -115.5 -205t-234.5 -83q-117 0 -185 67t-68 169q0 28 4 52l69 389h148l-69 -389q-3 -18 -3 -34q0 -57 34.5 -89.5t92.5 -32.5q71 0 118 42t60 114l69 389h148zM504 720l22 123h123l-22 -123h-123zM291 720l22 123h123l-22 -123h-123z" />
    <glyph glyph-name="Yacute" unicode="&#xdd;" horiz-adv-x="600" 
d="M688 666l-297 -404l-46 -262h-148l46 262l-155 404h148l104 -274l200 274h148zM328 716l106 133h169l-152 -133h-123z" />
    <glyph glyph-name="Thorn" unicode="&#xde;" horiz-adv-x="668" 
d="M220 121l-22 -121h-148l118 666h148l-19 -106h201q82 0 136 -49t54 -131q0 -105 -81 -182t-186 -77h-201zM534 359q0 35 -23 58t-58 23h-177l-35 -200h177q46 0 81 36.5t35 82.5z" />
    <glyph glyph-name="germandbls" unicode="&#xdf;" horiz-adv-x="645" 
d="M373 -11q-64 0 -120 27l41 96q48 -19 95 -19q27 0 48.5 11.5t21.5 35.5q0 16 -22 33t-48.5 30.5t-48.5 40.5t-22 62q0 32 14 57.5t33.5 43t39 34t33.5 38.5t14 49q0 54 -67 54q-33 0 -55 -19t-28 -52l-90 -511h-142l68 384h-63l16 91h63l5 31q14 88 82 136.5t161 48.5
q78 0 136 -37t58 -110q0 -43 -21 -80t-45.5 -57t-45.5 -41t-21 -38q0 -16 21.5 -31t47 -27t47 -38.5t21.5 -61.5q0 -89 -67 -135t-160 -46z" />
    <glyph glyph-name="agrave" unicode="&#xe0;" 
d="M538 487l-86 -487h-142l19 100q-26 -47 -70.5 -77.5t-91.5 -30.5q-76 0 -109 50.5t-33 124.5q0 76 29.5 150t90.5 126.5t139 52.5q62 0 107 -34l4 25h143zM375 372q-36 17 -66 17q-68 0 -104.5 -66.5t-36.5 -149.5q0 -34 9 -53t36 -19q54 0 102.5 81t58.5 180zM252 537
l-108 133h165l60 -133h-117z" />
    <glyph glyph-name="aacute" unicode="&#xe1;" 
d="M538 487l-86 -487h-142l19 100q-26 -47 -70.5 -77.5t-91.5 -30.5q-76 0 -109 50.5t-33 124.5q0 76 29.5 150t90.5 126.5t139 52.5q62 0 107 -34l4 25h143zM375 372q-36 17 -66 17q-68 0 -104.5 -66.5t-36.5 -149.5q0 -34 9 -53t36 -19q54 0 102.5 81t58.5 180zM273 537
l106 133h169l-152 -133h-123z" />
    <glyph glyph-name="acircumflex" unicode="&#xe2;" 
d="M538 487l-86 -487h-142l19 100q-26 -47 -70.5 -77.5t-91.5 -30.5q-76 0 -109 50.5t-33 124.5q0 76 29.5 150t90.5 126.5t139 52.5q62 0 107 -34l4 25h143zM375 372q-36 17 -66 17q-68 0 -104.5 -66.5t-36.5 -149.5q0 -34 9 -53t36 -19q54 0 102.5 81t58.5 180zM189 537
l136 133h102l89 -133h-114l-36 56l-56 -56h-121z" />
    <glyph glyph-name="atilde" unicode="&#xe3;" 
d="M538 487l-86 -487h-142l19 100q-26 -47 -70.5 -77.5t-91.5 -30.5q-76 0 -109 50.5t-33 124.5q0 76 29.5 150t90.5 126.5t139 52.5q62 0 107 -34l4 25h143zM375 372q-36 17 -66 17q-68 0 -104.5 -66.5t-36.5 -149.5q0 -34 9 -53t36 -19q54 0 102.5 81t58.5 180zM166 557
q8 58 36 91t75 33q36 0 86 -22q42 -20 57 -20q23 0 37 44l79 -24q-14 -59 -39.5 -89t-70.5 -30q-31 0 -78 18q-52 20 -64 20q-27 0 -37 -41z" />
    <glyph glyph-name="adieresis" unicode="&#xe4;" 
d="M538 487l-86 -487h-142l19 100q-26 -47 -70.5 -77.5t-91.5 -30.5q-76 0 -109 50.5t-33 124.5q0 76 29.5 150t90.5 126.5t139 52.5q62 0 107 -34l4 25h143zM375 372q-36 17 -66 17q-68 0 -104.5 -66.5t-36.5 -149.5q0 -34 9 -53t36 -19q54 0 102.5 81t58.5 180zM390 541
l22 123h123l-22 -123h-123zM177 541l22 123h123l-22 -123h-123z" />
    <glyph glyph-name="aring" unicode="&#xe5;" 
d="M538 487l-86 -487h-142l19 100q-26 -47 -70.5 -77.5t-91.5 -30.5q-76 0 -109 50.5t-33 124.5q0 76 29.5 150t90.5 126.5t139 52.5q62 0 107 -34l4 25h143zM375 372q-36 17 -66 17q-68 0 -104.5 -66.5t-36.5 -149.5q0 -34 9 -53t36 -19q54 0 102.5 81t58.5 180zM349 537
q-41 0 -64.5 21.5t-23.5 54.5q0 44 29 71.5t79 27.5q37 0 60.5 -21.5t23.5 -53.5q0 -44 -29 -72t-75 -28zM350 582q24 0 37.5 14t13.5 34q0 15 -9.5 26t-26.5 11q-24 0 -37.5 -14.5t-13.5 -35.5q0 -15 9.5 -25t26.5 -10z" />
    <glyph glyph-name="ae" unicode="&#xe6;" horiz-adv-x="812" 
d="M797 373q0 -97 -81 -142.5t-250 -42.5q0 -86 124 -86q63 0 131 22l20 -97q-77 -35 -172 -35q-121 0 -184 63q-71 -63 -183 -63q-90 0 -138.5 37t-48.5 94q0 71 44.5 114.5t138.5 43.5h140l6 36q6 38 -14 53t-83 15q-77 0 -145 -8l1 102q95 17 178 17q120 0 172 -48
q71 48 164 48q88 0 134 -35t46 -88zM322 192h-88q-76 0 -76 -63q0 -39 58 -39q90 0 104 89zM670 354q0 36 -59 36q-97 0 -129 -93q188 -3 188 57z" />
    <glyph glyph-name="ccedilla" unicode="&#xe7;" horiz-adv-x="446" 
d="M211 -181q-54 0 -88 14l15 46q18 -6 47 -6q40 0 40 24q0 19 -30 19q-17 0 -43 -2l41 81q-77 12 -120 67.5t-43 133.5q0 132 78 216t214 84q59 0 111 -14l-29 -103q-45 9 -75 9q-72 0 -114.5 -49t-42.5 -137q0 -102 86 -102q48 0 110 25l29 -98q-75 -34 -154 -35l-14 -32
q9 3 23 3q66 0 66 -63q0 -37 -30.5 -59t-76.5 -22z" />
    <glyph glyph-name="egrave" unicode="&#xe8;" horiz-adv-x="505" 
d="M490 373q0 -97 -81 -142.5t-250 -42.5q0 -86 125 -86q62 0 130 22l21 -97q-77 -35 -172 -35q-115 0 -176.5 56t-61.5 150q0 134 81.5 216t204.5 82q88 0 133.5 -35t45.5 -88zM363 354q0 36 -58 36q-97 0 -129 -93q187 -3 187 57zM231 537l-108 133h165l60 -133h-117z" />
    <glyph glyph-name="eacute" unicode="&#xe9;" horiz-adv-x="505" 
d="M490 373q0 -97 -81 -142.5t-250 -42.5q0 -86 125 -86q62 0 130 22l21 -97q-77 -35 -172 -35q-115 0 -176.5 56t-61.5 150q0 134 81.5 216t204.5 82q88 0 133.5 -35t45.5 -88zM363 354q0 36 -58 36q-97 0 -129 -93q187 -3 187 57zM261 537l106 133h169l-152 -133h-123z
" />
    <glyph glyph-name="ecircumflex" unicode="&#xea;" horiz-adv-x="505" 
d="M490 373q0 -97 -81 -142.5t-250 -42.5q0 -86 125 -86q62 0 130 22l21 -97q-77 -35 -172 -35q-115 0 -176.5 56t-61.5 150q0 134 81.5 216t204.5 82q88 0 133.5 -35t45.5 -88zM363 354q0 36 -58 36q-97 0 -129 -93q187 -3 187 57zM154 537l136 133h102l89 -133h-114
l-36 56l-56 -56h-121z" />
    <glyph glyph-name="edieresis" unicode="&#xeb;" horiz-adv-x="505" 
d="M490 373q0 -97 -81 -142.5t-250 -42.5q0 -86 125 -86q62 0 130 22l21 -97q-77 -35 -172 -35q-115 0 -176.5 56t-61.5 150q0 134 81.5 216t204.5 82q88 0 133.5 -35t45.5 -88zM363 354q0 36 -58 36q-97 0 -129 -93q187 -3 187 57zM355 541l22 123h123l-22 -123h-123z
M142 541l22 123h123l-22 -123h-123z" />
    <glyph glyph-name="igrave" unicode="&#xec;" horiz-adv-x="283" 
d="M255 487l-86 -487h-141l86 487h141zM124 537l-108 133h165l60 -133h-117z" />
    <glyph glyph-name="iacute" unicode="&#xed;" horiz-adv-x="283" 
d="M255 487l-86 -487h-141l86 487h141zM130 537l106 133h169l-152 -133h-123z" />
    <glyph glyph-name="icircumflex" unicode="&#xee;" horiz-adv-x="283" 
d="M255 487l-86 -487h-141l86 487h141zM21 537l136 133h102l89 -133h-114l-36 56l-56 -56h-121z" />
    <glyph glyph-name="idieresis" unicode="&#xef;" horiz-adv-x="283" 
d="M255 487l-86 -487h-141l86 487h141zM233 541l22 123h123l-22 -123h-123zM20 541l22 123h123l-22 -123h-123z" />
    <glyph glyph-name="eth" unicode="&#xf0;" horiz-adv-x="570" 
d="M236 -8q-98 0 -152 61.5t-54 150.5q0 116 68 193.5t186 77.5q84 0 130 -60q-8 59 -49 116l-124 -29l-19 83l82 19q-42 38 -77 62h157q26 -16 45 -34l100 23l19 -80l-58 -14q55 -87 55 -198q0 -73 -19 -138.5t-55.5 -118t-97 -83.5t-137.5 -31zM256 101q60 0 97 48.5
t37 127.5q0 42 -23.5 66.5t-63.5 24.5q-62 0 -96.5 -45t-34.5 -116q0 -48 21.5 -77t62.5 -29z" />
    <glyph glyph-name="ntilde" unicode="&#xf1;" horiz-adv-x="584" 
d="M537 352q0 -16 -6 -56l-51 -296h-142l48 275q4 21 4 44q0 52 -46 52q-51 0 -93.5 -75t-69.5 -236l-10 -60h-141l85 487h137l-19 -100q26 42 76.5 75.5t95.5 33.5q132 0 132 -144zM154 557q8 58 36 91t75 33q36 0 86 -22q42 -20 57 -20q23 0 37 44l79 -24
q-14 -59 -39.5 -89t-70.5 -30q-31 0 -78 18q-52 20 -64 20q-27 0 -37 -41z" />
    <glyph glyph-name="ograve" unicode="&#xf2;" horiz-adv-x="550" 
d="M525 292q0 -121 -78.5 -210.5t-212.5 -89.5q-95 0 -149.5 58t-54.5 146q0 127 85 213.5t207 86.5q94 0 148.5 -58t54.5 -146zM384 283q0 105 -81 105q-55 0 -92.5 -50t-37.5 -136q0 -102 80 -102q55 0 93 50t38 133zM248 537l-108 133h165l60 -133h-117z" />
    <glyph glyph-name="oacute" unicode="&#xf3;" horiz-adv-x="550" 
d="M525 292q0 -121 -78.5 -210.5t-212.5 -89.5q-95 0 -149.5 58t-54.5 146q0 127 85 213.5t207 86.5q94 0 148.5 -58t54.5 -146zM384 283q0 105 -81 105q-55 0 -92.5 -50t-37.5 -136q0 -102 80 -102q55 0 93 50t38 133zM269 537l106 133h169l-152 -133h-123z" />
    <glyph glyph-name="ocircumflex" unicode="&#xf4;" horiz-adv-x="550" 
d="M525 292q0 -121 -78.5 -210.5t-212.5 -89.5q-95 0 -149.5 58t-54.5 146q0 127 85 213.5t207 86.5q94 0 148.5 -58t54.5 -146zM384 283q0 105 -81 105q-55 0 -92.5 -50t-37.5 -136q0 -102 80 -102q55 0 93 50t38 133zM160 537l136 133h102l89 -133h-114l-36 56l-56 -56
h-121z" />
    <glyph glyph-name="otilde" unicode="&#xf5;" horiz-adv-x="550" 
d="M525 292q0 -121 -78.5 -210.5t-212.5 -89.5q-95 0 -149.5 58t-54.5 146q0 127 85 213.5t207 86.5q94 0 148.5 -58t54.5 -146zM384 283q0 105 -81 105q-55 0 -92.5 -50t-37.5 -136q0 -102 80 -102q55 0 93 50t38 133zM142 557q8 58 36 91t75 33q36 0 86 -22q42 -20 57 -20
q23 0 37 44l79 -24q-14 -59 -39.5 -89t-70.5 -30q-31 0 -78 18q-52 20 -64 20q-27 0 -37 -41z" />
    <glyph glyph-name="odieresis" unicode="&#xf6;" horiz-adv-x="550" 
d="M525 292q0 -121 -78.5 -210.5t-212.5 -89.5q-95 0 -149.5 58t-54.5 146q0 127 85 213.5t207 86.5q94 0 148.5 -58t54.5 -146zM384 283q0 105 -81 105q-55 0 -92.5 -50t-37.5 -136q0 -102 80 -102q55 0 93 50t38 133zM372 541l22 123h123l-22 -123h-123zM159 541l22 123
h123l-22 -123h-123z" />
    <glyph glyph-name="divide" unicode="&#xf7;" horiz-adv-x="575" 
d="M540 286v-94h-475v94h475zM374 410q0 -30 -21.5 -51.5t-50.5 -21.5t-50 21.5t-21 51.5t21 50.5t50 20.5t50.5 -21t21.5 -50zM374 68q0 -29 -21.5 -50t-50.5 -21t-50 20.5t-21 50.5t21 51t50 21t50.5 -21.5t21.5 -50.5z" />
    <glyph glyph-name="oslash" unicode="&#xf8;" horiz-adv-x="639" 
d="M614 468l-70 -59q35 -51 35 -120q0 -119 -91.5 -208t-209.5 -89q-95 0 -155 60l-70 -60l-23 28l70 59q-35 51 -35 120q0 121 86.5 209t214.5 88q96 0 156 -61l70 61zM434 315l-210 -177q26 -38 73 -38q65 0 102.5 57.5t37.5 126.5q0 16 -3 31zM420 350q-25 37 -73 37
q-65 0 -102.5 -57.5t-37.5 -126.5q0 -16 3 -31z" />
    <glyph glyph-name="ugrave" unicode="&#xf9;" horiz-adv-x="582" 
d="M552 487l-86 -487h-137l19 100q-26 -42 -76 -75t-95 -33q-132 0 -132 139q0 34 5 60l52 296h142l-48 -275q-4 -28 -4 -39q0 -28 10 -42.5t35 -14.5q106 0 163 311l11 60h141zM252 537l-108 133h165l60 -133h-117z" />
    <glyph glyph-name="uacute" unicode="&#xfa;" horiz-adv-x="582" 
d="M552 487l-86 -487h-137l19 100q-26 -42 -76 -75t-95 -33q-132 0 -132 139q0 34 5 60l52 296h142l-48 -275q-4 -28 -4 -39q0 -28 10 -42.5t35 -14.5q106 0 163 311l11 60h141zM257 537l106 133h169l-152 -133h-123z" />
    <glyph glyph-name="ucircumflex" unicode="&#xfb;" horiz-adv-x="582" 
d="M552 487l-86 -487h-137l19 100q-26 -42 -76 -75t-95 -33q-132 0 -132 139q0 34 5 60l52 296h142l-48 -275q-4 -28 -4 -39q0 -28 10 -42.5t35 -14.5q106 0 163 311l11 60h141zM177 537l136 133h102l89 -133h-114l-36 56l-56 -56h-121z" />
    <glyph glyph-name="udieresis" unicode="&#xfc;" horiz-adv-x="582" 
d="M552 487l-86 -487h-137l19 100q-26 -42 -76 -75t-95 -33q-132 0 -132 139q0 34 5 60l52 296h142l-48 -275q-4 -28 -4 -39q0 -28 10 -42.5t35 -14.5q106 0 163 311l11 60h141zM384 541l22 123h123l-22 -123h-123zM171 541l22 123h123l-22 -123h-123z" />
    <glyph glyph-name="yacute" unicode="&#xfd;" horiz-adv-x="485" 
d="M525 487l-351 -650h-137l88 163l-95 487h137l54 -335l167 335h137zM216 537l106 133h169l-152 -133h-123z" />
    <glyph glyph-name="thorn" unicode="&#xfe;" horiz-adv-x="551" 
d="M531 321q0 -56 -17.5 -113.5t-49.5 -106t-82 -79t-109 -30.5q-54 0 -107 34l-34 -188h-142l146 828h142l-50 -278q26 47 70.5 77.5t91.5 30.5q76 0 108.5 -50.5t32.5 -124.5zM388 315q0 34 -8.5 53t-35.5 19q-50 0 -91.5 -76t-69.5 -186l-2 -8q38 -18 67 -18
q68 0 104 66.5t36 149.5z" />
    <glyph glyph-name="ydieresis" unicode="&#xff;" horiz-adv-x="485" 
d="M525 487l-351 -650h-137l88 163l-95 487h137l54 -335l167 335h137zM335 541l22 123h123l-22 -123h-123zM122 541l22 123h123l-22 -123h-123z" />
    <glyph glyph-name="Amacron" unicode="&#x100;" horiz-adv-x="661" 
d="M616 0h-145l-27 137h-248l-76 -137h-145l370 666h137zM427 249l-39 271l-137 -271h176zM274 733l16 94h304l-17 -94h-303z" />
    <glyph glyph-name="amacron" unicode="&#x101;" 
d="M538 487l-86 -487h-142l19 100q-26 -47 -70.5 -77.5t-91.5 -30.5q-76 0 -109 50.5t-33 124.5q0 76 29.5 150t90.5 126.5t139 52.5q62 0 107 -34l4 25h143zM375 372q-36 17 -66 17q-68 0 -104.5 -66.5t-36.5 -149.5q0 -34 9 -53t36 -19q54 0 102.5 81t58.5 180zM202 554
l16 94h304l-17 -94h-303z" />
    <glyph glyph-name="Abreve" unicode="&#x102;" horiz-adv-x="661" 
d="M616 0h-145l-27 137h-248l-76 -137h-145l370 666h137zM427 249l-39 271l-137 -271h176zM300 842h87q-10 -57 46 -57q57 0 68 57h88q-10 -63 -53.5 -94.5t-107.5 -31.5t-101 35t-27 91z" />
    <glyph glyph-name="abreve" unicode="&#x103;" 
d="M538 487l-86 -487h-142l19 100q-26 -47 -70.5 -77.5t-91.5 -30.5q-76 0 -109 50.5t-33 124.5q0 76 29.5 150t90.5 126.5t139 52.5q62 0 107 -34l4 25h143zM375 372q-36 17 -66 17q-68 0 -104.5 -66.5t-36.5 -149.5q0 -34 9 -53t36 -19q54 0 102.5 81t58.5 180zM222 663
h87q-10 -57 46 -57q57 0 68 57h88q-10 -63 -53.5 -94.5t-107.5 -31.5t-101 35t-27 91z" />
    <glyph glyph-name="Aogonek" unicode="&#x104;" horiz-adv-x="661" 
d="M427 249l-39 271l-137 -271h176zM471 0l-27 137h-248l-76 -137h-145l370 666h137l134 -666h-84q-60 -42 -60 -88q0 -27 31 -27q15 0 30 5l-4 -59q-30 -12 -71 -12t-64 20t-23 52q0 39 28 68t72 41z" />
    <glyph glyph-name="aogonek" unicode="&#x105;" 
d="M375 372q-36 17 -66 17q-68 0 -104.5 -66.5t-36.5 -149.5q0 -34 9 -53t36 -19q54 0 102.5 81t58.5 180zM310 0l19 100q-26 -47 -70.5 -77.5t-91.5 -30.5q-76 0 -109 50.5t-33 124.5q0 76 29.5 150t90.5 126.5t139 52.5q62 0 107 -34l4 25h143l-86 -487h-81
q-60 -42 -60 -88q0 -27 31 -27q15 0 30 5l-4 -59q-30 -12 -71 -12t-64 20t-23 52q0 39 28 68t72 41z" />
    <glyph glyph-name="Cacute" unicode="&#x106;" horiz-adv-x="654" 
d="M674 647l-43 -123q-83 21 -147 21q-128 0 -206.5 -67t-78.5 -189q0 -84 54.5 -126.5t155.5 -42.5q62 0 155 21l-4 -121q-85 -31 -189 -31q-138 0 -229.5 81.5t-91.5 203.5q0 177 123.5 289.5t312.5 112.5q102 0 188 -29zM417 716l106 133h169l-152 -133h-123z" />
    <glyph glyph-name="cacute" unicode="&#x107;" horiz-adv-x="446" 
d="M433 482l-29 -103q-45 9 -75 9q-72 0 -114.5 -49t-42.5 -137q0 -102 86 -102q48 0 110 25l29 -98q-79 -35 -164 -35q-95 0 -149 58t-54 146q0 132 78 216t214 84q59 0 111 -14zM244 537l106 133h169l-152 -133h-123z" />
    <glyph glyph-name="Ccircumflex" unicode="&#x108;" horiz-adv-x="654" 
d="M674 647l-43 -123q-83 21 -147 21q-128 0 -206.5 -67t-78.5 -189q0 -84 54.5 -126.5t155.5 -42.5q62 0 155 21l-4 -121q-85 -31 -189 -31q-138 0 -229.5 81.5t-91.5 203.5q0 177 123.5 289.5t312.5 112.5q102 0 188 -29zM308 716l136 133h102l89 -133h-114l-36 56
l-56 -56h-121z" />
    <glyph glyph-name="ccircumflex" unicode="&#x109;" horiz-adv-x="446" 
d="M433 482l-29 -103q-45 9 -75 9q-72 0 -114.5 -49t-42.5 -137q0 -102 86 -102q48 0 110 25l29 -98q-79 -35 -164 -35q-95 0 -149 58t-54 146q0 132 78 216t214 84q59 0 111 -14zM130 537l136 133h102l89 -133h-114l-36 56l-56 -56h-121z" />
    <glyph glyph-name="Cdotaccent" unicode="&#x10a;" horiz-adv-x="654" 
d="M674 647l-43 -123q-83 21 -147 21q-128 0 -206.5 -67t-78.5 -189q0 -84 54.5 -126.5t155.5 -42.5q62 0 155 21l-4 -121q-85 -31 -189 -31q-138 0 -229.5 81.5t-91.5 203.5q0 177 123.5 289.5t312.5 112.5q102 0 188 -29zM403 723l22 121h143l-21 -121h-144z" />
    <glyph glyph-name="cdotaccent" unicode="&#x10b;" horiz-adv-x="446" 
d="M433 482l-29 -103q-45 9 -75 9q-72 0 -114.5 -49t-42.5 -137q0 -102 86 -102q48 0 110 25l29 -98q-79 -35 -164 -35q-95 0 -149 58t-54 146q0 132 78 216t214 84q59 0 111 -14zM237 544l22 121h143l-21 -121h-144z" />
    <glyph glyph-name="Ccaron" unicode="&#x10c;" horiz-adv-x="654" 
d="M674 647l-43 -123q-83 21 -147 21q-128 0 -206.5 -67t-78.5 -189q0 -84 54.5 -126.5t155.5 -42.5q62 0 155 21l-4 -121q-85 -31 -189 -31q-138 0 -229.5 81.5t-91.5 203.5q0 177 123.5 289.5t312.5 112.5q102 0 188 -29zM344 849h114l36 -57l56 57h121l-136 -133h-102z
" />
    <glyph glyph-name="ccaron" unicode="&#x10d;" horiz-adv-x="446" 
d="M433 482l-29 -103q-45 9 -75 9q-72 0 -114.5 -49t-42.5 -137q0 -102 86 -102q48 0 110 25l29 -98q-79 -35 -164 -35q-95 0 -149 58t-54 146q0 132 78 216t214 84q59 0 111 -14zM161 670h114l36 -57l56 57h121l-136 -133h-102z" />
    <glyph glyph-name="Dcaron" unicode="&#x10e;" horiz-adv-x="702" 
d="M540 377q0 80 -59.5 119t-153.5 39h-35l-71 -404h35q55 0 104 13.5t90.5 41t65.5 77t24 114.5zM695 387q0 -171 -133.5 -279t-356.5 -108h-155l118 666h155q165 0 268.5 -77.5t103.5 -201.5zM258 849h114l36 -57l56 57h121l-136 -133h-102z" />
    <glyph glyph-name="dcaron" unicode="&#x10f;" horiz-adv-x="755" 
d="M572 666l-118 -666h-141l18 100q-26 -47 -70.5 -77.5t-91.5 -30.5q-76 0 -108.5 50.5t-32.5 124.5q0 56 17.5 113.5t49.5 106t82 79t109 30.5q54 0 107 -34l37 204h142zM378 371q-38 18 -67 18q-68 0 -104 -66.5t-36 -149.5q0 -34 8.5 -53t35.5 -19q51 0 94.5 77
t66.5 184zM657 666h143l-23 -130l-82 -111h-67l69 111h-62z" />
    <glyph glyph-name="Dcroat" unicode="&#x110;" horiz-adv-x="714" 
d="M217 0h-154l48 277h-76l19 115h78l49 274h154q169 0 270.5 -75t101.5 -204q0 -178 -137.5 -282.5t-352.5 -104.5zM234 131h35q121 0 202 62.5t81 184.5q0 80 -59 118.5t-154 38.5h-35l-25 -143h135l-20 -115h-135z" />
    <glyph glyph-name="dcroat" unicode="&#x111;" horiz-adv-x="575" 
d="M378 371q-38 18 -67 18q-68 0 -104 -66.5t-36 -149.5q0 -34 8.5 -53t35.5 -19q51 0 94.5 77t66.5 184zM331 100q-26 -47 -70.5 -77.5t-91.5 -30.5q-76 0 -108.5 50.5t-32.5 124.5q0 56 17.5 113.5t49.5 106t82 79t109 30.5q54 0 107 -34l12 64h-99l17 91h98l9 49h142
l-9 -49h67l-15 -91h-68l-93 -526h-141z" />
    <glyph glyph-name="Emacron" unicode="&#x112;" horiz-adv-x="637" 
d="M655 666l-23 -127h-339l-23 -132h320l-22 -127h-320l-27 -153h339l-23 -127h-487l118 666h487zM272 733l16 94h304l-17 -94h-303z" />
    <glyph glyph-name="emacron" unicode="&#x113;" horiz-adv-x="505" 
d="M490 373q0 -97 -81 -142.5t-250 -42.5q0 -86 125 -86q62 0 130 22l21 -97q-77 -35 -172 -35q-115 0 -176.5 56t-61.5 150q0 134 81.5 216t204.5 82q88 0 133.5 -35t45.5 -88zM363 354q0 36 -58 36q-97 0 -129 -93q187 -3 187 57zM164 554l16 94h304l-17 -94h-303z" />
    <glyph glyph-name="Ebreve" unicode="&#x114;" horiz-adv-x="637" 
d="M655 666l-23 -127h-339l-23 -132h320l-22 -127h-320l-27 -153h339l-23 -127h-487l118 666h487zM302 842h87q-10 -57 46 -57q57 0 68 57h88q-10 -63 -53.5 -94.5t-107.5 -31.5t-101 35t-27 91z" />
    <glyph glyph-name="ebreve" unicode="&#x115;" horiz-adv-x="505" 
d="M490 373q0 -97 -81 -142.5t-250 -42.5q0 -86 125 -86q62 0 130 22l21 -97q-77 -35 -172 -35q-115 0 -176.5 56t-61.5 150q0 134 81.5 216t204.5 82q88 0 133.5 -35t45.5 -88zM363 354q0 36 -58 36q-97 0 -129 -93q187 -3 187 57zM190 663h87q-10 -57 46 -57q57 0 68 57
h88q-10 -63 -53.5 -94.5t-107.5 -31.5t-101 35t-27 91z" />
    <glyph glyph-name="Edotaccent" unicode="&#x116;" horiz-adv-x="637" 
d="M655 666l-23 -127h-339l-23 -132h320l-22 -127h-320l-27 -153h339l-23 -127h-487l118 666h487zM349 723l22 121h143l-21 -121h-144z" />
    <glyph glyph-name="edotaccent" unicode="&#x117;" horiz-adv-x="505" 
d="M490 373q0 -97 -81 -142.5t-250 -42.5q0 -86 125 -86q62 0 130 22l21 -97q-77 -35 -172 -35q-115 0 -176.5 56t-61.5 150q0 134 81.5 216t204.5 82q88 0 133.5 -35t45.5 -88zM363 354q0 36 -58 36q-97 0 -129 -93q187 -3 187 57zM252 544l22 121h143l-21 -121h-144z" />
    <glyph glyph-name="Eogonek" unicode="&#x118;" horiz-adv-x="637" 
d="M438 0h-388l118 666h487l-23 -127h-339l-23 -132h320l-22 -127h-320l-27 -153h339l-23 -127h-38q-60 -42 -60 -88q0 -27 31 -27q15 0 30 5l-4 -59q-30 -12 -71 -12t-64 20t-23 52q0 39 28 68t72 41z" />
    <glyph glyph-name="eogonek" unicode="&#x119;" horiz-adv-x="505" 
d="M363 354q0 36 -58 36q-97 0 -129 -93q187 -3 187 57zM401 -169q-30 -12 -71 -12t-64 20t-23 52q0 35 29 65t71 43q-45 -7 -80 -7q-115 0 -176.5 56t-61.5 150q0 134 81.5 216t204.5 82q88 0 133.5 -35t45.5 -88q0 -97 -81 -142.5t-250 -42.5q0 -86 125 -86q62 0 130 22
l21 -97q-48 -29 -69.5 -55.5t-21.5 -59.5q0 -27 31 -27q15 0 30 5z" />
    <glyph glyph-name="Ecaron" unicode="&#x11a;" horiz-adv-x="637" 
d="M655 666l-23 -127h-339l-23 -132h320l-22 -127h-320l-27 -153h339l-23 -127h-487l118 666h487zM287 849h114l36 -57l56 57h121l-136 -133h-102z" />
    <glyph glyph-name="ecaron" unicode="&#x11b;" horiz-adv-x="505" 
d="M490 373q0 -97 -81 -142.5t-250 -42.5q0 -86 125 -86q62 0 130 22l21 -97q-77 -35 -172 -35q-115 0 -176.5 56t-61.5 150q0 134 81.5 216t204.5 82q88 0 133.5 -35t45.5 -88zM363 354q0 36 -58 36q-97 0 -129 -93q187 -3 187 57zM183 670h114l36 -57l56 57h121l-136 -133
h-102z" />
    <glyph glyph-name="Gcircumflex" unicode="&#x11c;" horiz-adv-x="702" 
d="M679 655l-42 -125q-81 15 -151 15q-137 0 -211.5 -66t-74.5 -192q0 -77 45.5 -122t136.5 -45q47 0 99 4l39 218h138l-58 -326q-107 -27 -220 -27q-147 0 -238.5 79t-91.5 199q0 192 123.5 300.5t317.5 108.5q105 0 188 -21zM301 716l136 133h102l89 -133h-114l-36 56
l-56 -56h-121z" />
    <glyph glyph-name="gcircumflex" unicode="&#x11d;" horiz-adv-x="568" 
d="M550 487l-75 -397q-26 -138 -94.5 -200t-204.5 -62q-90 0 -168 29l25 94q73 -22 136 -22q84 0 117 38.5t55 153.5q-29 -51 -71.5 -79.5t-90.5 -28.5q-76 0 -109 50.5t-33 124.5q0 71 29.5 140t90.5 118.5t139 49.5q67 0 107 -32l4 23h143zM388 373q-34 16 -67 16
q-46 0 -79.5 -33t-47.5 -76t-14 -86q0 -34 9 -52.5t36 -18.5q53 0 96.5 67.5t64.5 172.5zM199 537l136 133h102l89 -133h-114l-36 56l-56 -56h-121z" />
    <glyph glyph-name="Gbreve" unicode="&#x11e;" horiz-adv-x="702" 
d="M679 655l-42 -125q-81 15 -151 15q-137 0 -211.5 -66t-74.5 -192q0 -77 45.5 -122t136.5 -45q47 0 99 4l39 218h138l-58 -326q-107 -27 -220 -27q-147 0 -238.5 79t-91.5 199q0 192 123.5 300.5t317.5 108.5q105 0 188 -21zM348 842h87q-10 -57 46 -57q57 0 68 57h88
q-10 -63 -53.5 -94.5t-107.5 -31.5t-101 35t-27 91z" />
    <glyph glyph-name="gbreve" unicode="&#x11f;" horiz-adv-x="568" 
d="M550 487l-75 -397q-26 -138 -94.5 -200t-204.5 -62q-90 0 -168 29l25 94q73 -22 136 -22q84 0 117 38.5t55 153.5q-29 -51 -71.5 -79.5t-90.5 -28.5q-76 0 -109 50.5t-33 124.5q0 71 29.5 140t90.5 118.5t139 49.5q67 0 107 -32l4 23h143zM388 373q-34 16 -67 16
q-46 0 -79.5 -33t-47.5 -76t-14 -86q0 -34 9 -52.5t36 -18.5q53 0 96.5 67.5t64.5 172.5zM233 663h87q-10 -57 46 -57q57 0 68 57h88q-10 -63 -53.5 -94.5t-107.5 -31.5t-101 35t-27 91z" />
    <glyph glyph-name="Gdotaccent" unicode="&#x120;" horiz-adv-x="702" 
d="M679 655l-42 -125q-81 15 -151 15q-137 0 -211.5 -66t-74.5 -192q0 -77 45.5 -122t136.5 -45q47 0 99 4l39 218h138l-58 -326q-107 -27 -220 -27q-147 0 -238.5 79t-91.5 199q0 192 123.5 300.5t317.5 108.5q105 0 188 -21zM394 723l22 121h143l-21 -121h-144z" />
    <glyph glyph-name="gdotaccent" unicode="&#x121;" horiz-adv-x="568" 
d="M550 487l-75 -397q-26 -138 -94.5 -200t-204.5 -62q-90 0 -168 29l25 94q73 -22 136 -22q84 0 117 38.5t55 153.5q-29 -51 -71.5 -79.5t-90.5 -28.5q-76 0 -109 50.5t-33 124.5q0 71 29.5 140t90.5 118.5t139 49.5q67 0 107 -32l4 23h143zM388 373q-34 16 -67 16
q-46 0 -79.5 -33t-47.5 -76t-14 -86q0 -34 9 -52.5t36 -18.5q53 0 96.5 67.5t64.5 172.5zM283 544l22 121h143l-21 -121h-144z" />
    <glyph glyph-name="uni0122" unicode="&#x122;" horiz-adv-x="702" 
d="M679 655l-42 -125q-81 15 -151 15q-137 0 -211.5 -66t-74.5 -192q0 -77 45.5 -122t136.5 -45q47 0 99 4l39 218h138l-58 -326q-107 -27 -220 -27q-147 0 -238.5 79t-91.5 199q0 192 123.5 300.5t317.5 108.5q105 0 188 -21zM305 -66h139l-21 -123l-86 -107h-66l70 107
h-57z" />
    <glyph glyph-name="uni0123" unicode="&#x123;" horiz-adv-x="568" 
d="M550 487l-75 -397q-26 -138 -94.5 -200t-204.5 -62q-90 0 -168 29l25 94q73 -22 136 -22q84 0 117 38.5t55 153.5q-29 -51 -71.5 -79.5t-90.5 -28.5q-76 0 -109 50.5t-33 124.5q0 71 29.5 140t90.5 118.5t139 49.5q67 0 107 -32l4 23h143zM388 373q-34 16 -67 16
q-46 0 -79.5 -33t-47.5 -76t-14 -86q0 -34 9 -52.5t36 -18.5q53 0 96.5 67.5t64.5 172.5zM259 537l155 133h120l-106 -133h-169z" />
    <glyph glyph-name="Hcircumflex" unicode="&#x124;" horiz-adv-x="764" 
d="M754 666l-117 -666h-148l47 270h-292l-47 -270h-147l117 666h147l-47 -265h293l46 265h148zM294 716l136 133h102l89 -133h-114l-36 56l-56 -56h-121z" />
    <glyph glyph-name="hcircumflex" unicode="&#x125;" horiz-adv-x="579" 
d="M532 354q0 -32 -5 -58l-52 -296h-142l48 275q4 21 4 44q0 52 -45 52q-106 0 -163 -311l-11 -60h-141l118 666h137l-51 -279q26 42 76.5 75.5t95.5 33.5q131 0 131 -142zM52 716l136 133h102l89 -133h-114l-36 56l-56 -56h-121z" />
    <glyph glyph-name="Hbar" unicode="&#x126;" horiz-adv-x="783" 
d="M276 401h292l14 80h-291zM253 270l-47 -270h-146l84 481h-76l19 101h74l15 84h147l-15 -84h292l14 84h148l-15 -84h75l-19 -101h-73l-85 -481h-147l46 270h-291z" />
    <glyph glyph-name="hbar" unicode="&#x127;" horiz-adv-x="599" 
d="M197 60l-11 -60h-141l93 526h-80l17 91h79l9 49h137l-9 -49h91l-15 -91h-93l-25 -139q26 42 76.5 75.5t95.5 33.5q131 0 131 -142q0 -32 -5 -58l-52 -296h-142l48 275q4 21 4 44q0 52 -45 52q-106 0 -163 -311z" />
    <glyph glyph-name="Itilde" unicode="&#x128;" horiz-adv-x="335" 
d="M320 666l-117 -666h-148l117 666h148zM75 736q8 58 36 91t75 33q36 0 86 -22q42 -20 57 -20q23 0 37 44l79 -24q-14 -59 -39.5 -89t-70.5 -30q-31 0 -78 18q-52 20 -64 20q-27 0 -37 -41z" />
    <glyph glyph-name="itilde" unicode="&#x129;" horiz-adv-x="283" 
d="M255 487l-86 -487h-141l86 487h141zM3 557q8 58 36 91t75 33q36 0 86 -22q42 -20 57 -20q23 0 37 44l79 -24q-14 -59 -39.5 -89t-70.5 -30q-31 0 -78 18q-52 20 -64 20q-27 0 -37 -41z" />
    <glyph glyph-name="Imacron" unicode="&#x12a;" horiz-adv-x="335" 
d="M320 666l-117 -666h-148l117 666h148zM102 733l16 94h304l-17 -94h-303z" />
    <glyph glyph-name="imacron" unicode="&#x12b;" horiz-adv-x="283" 
d="M255 487l-86 -487h-141l86 487h141zM38 554l16 94h304l-17 -94h-303z" />
    <glyph glyph-name="Ibreve" unicode="&#x12c;" horiz-adv-x="335" 
d="M320 666l-117 -666h-148l117 666h148zM136 842h87q-10 -57 46 -57q57 0 68 57h88q-10 -63 -53.5 -94.5t-107.5 -31.5t-101 35t-27 91z" />
    <glyph glyph-name="ibreve" unicode="&#x12d;" horiz-adv-x="283" 
d="M255 487l-86 -487h-141l86 487h141zM68 663h87q-10 -57 46 -57q57 0 68 57h88q-10 -63 -53.5 -94.5t-107.5 -31.5t-101 35t-27 91z" />
    <glyph glyph-name="Iogonek" unicode="&#x12e;" horiz-adv-x="335" 
d="M55 0l117 666h148l-117 -666h-87q-49 -44 -49 -88q0 -27 28 -27q13 0 22 4l-4 -59q-24 -11 -61 -11q-41 0 -63.5 20t-22.5 52q0 73 89 109z" />
    <glyph glyph-name="iogonek" unicode="&#x12f;" horiz-adv-x="282" 
d="M292 691l-21 -121h-141l21 121h141zM30 0l85 487h141l-85 -487h-80q-49 -44 -49 -88q0 -27 28 -27q13 0 22 4l-4 -59q-24 -11 -61 -11q-41 0 -63.5 20t-22.5 52q0 73 89 109z" />
    <glyph glyph-name="Idotaccent" unicode="&#x130;" horiz-adv-x="335" 
d="M320 666l-117 -666h-148l117 666h148zM180 723l22 121h143l-21 -121h-144z" />
    <glyph glyph-name="dotlessi" unicode="&#x131;" horiz-adv-x="283" 
d="M255 487l-86 -487h-141l86 487h141z" />
    <glyph glyph-name="IJ" unicode="&#x132;" horiz-adv-x="776" 
d="M320 666l-117 -666h-148l117 666h148zM776 666l-80 -455q-37 -215 -260 -215h-93l20 114h89q78 0 96 103l58 332h-154l22 121h302z" />
    <glyph glyph-name="ij" unicode="&#x133;" horiz-adv-x="553" 
d="M256 487l-85 -487h-141l85 487h141zM292 691l-21 -121h-141l21 121h141zM537 487l-86 -491q-15 -84 -66.5 -125.5t-130.5 -41.5q-30 0 -52 3l16 111q12 -2 28 -2q32 0 45 15.5t21 57.5l83 473h142zM573 692l-21 -122h-142l21 122h142z" />
    <glyph glyph-name="Jcircumflex" unicode="&#x134;" horiz-adv-x="441" 
d="M441 666l-80 -455q-37 -215 -260 -215h-93l20 114h89q78 0 96 103l58 332h-154l22 121h302zM142 716l136 133h102l89 -133h-114l-36 56l-56 -56h-121z" />
    <glyph glyph-name="jcircumflex" unicode="&#x135;" horiz-adv-x="271" 
d="M255 487l-86 -491q-15 -84 -66.5 -125.5t-130.5 -41.5q-30 0 -52 3l16 111q12 -2 28 -2q32 0 45 15.5t21 57.5l83 473h142zM24 537l136 133h102l89 -133h-114l-36 56l-56 -56h-121z" />
    <glyph glyph-name="uni0136" unicode="&#x136;" horiz-adv-x="709" 
d="M760 666l-382 -323l278 -343h-196l-214 275l-48 -275h-148l117 666h148l-46 -261l296 261h195zM249 -66h139l-21 -123l-86 -107h-66l70 107h-57z" />
    <glyph glyph-name="uni0137" unicode="&#x137;" horiz-adv-x="537" 
d="M562 487l-244 -241l165 -246h-163l-120 193l-34 -193h-141l117 666h141l-64 -365l179 186h164zM164 -66h139l-21 -123l-86 -107h-66l70 107h-57z" />
    <glyph glyph-name="kgreenlandic" unicode="&#x138;" horiz-adv-x="537" 
d="M562 487l-244 -241l165 -246h-163l-120 193l-34 -193h-141l86 487h141l-33 -186l179 186h164z" />
    <glyph glyph-name="Lacute" unicode="&#x139;" horiz-adv-x="581" 
d="M541 127l-22 -127h-469l117 666h148l-95 -539h321zM187 716l106 133h169l-152 -133h-123z" />
    <glyph glyph-name="lacute" unicode="&#x13a;" horiz-adv-x="336" 
d="M291 22q-47 -30 -110 -30q-64 0 -102.5 31t-38.5 92q0 22 4 43l90 508h141l-88 -494q-3 -21 -3 -34q0 -38 36 -38q22 0 43 12zM150 716l106 133h169l-152 -133h-123z" />
    <glyph glyph-name="uni013B" unicode="&#x13b;" horiz-adv-x="581" 
d="M541 127l-22 -127h-469l117 666h148l-95 -539h321zM215 -66h139l-21 -123l-86 -107h-66l70 107h-57z" />
    <glyph glyph-name="uni013C" unicode="&#x13c;" horiz-adv-x="336" 
d="M291 22q-47 -30 -110 -30q-64 0 -102.5 31t-38.5 92q0 22 4 43l90 508h141l-88 -494q-3 -21 -3 -34q0 -38 36 -38q22 0 43 12zM72 -66h139l-21 -123l-86 -107h-66l70 107h-57z" />
    <glyph glyph-name="Lcaron" unicode="&#x13d;" horiz-adv-x="581" 
d="M540 127l-22 -127h-469l117 666h148l-95 -539h321zM437 667h143l-23 -130l-82 -111h-67l69 111h-62z" />
    <glyph glyph-name="lcaron" unicode="&#x13e;" horiz-adv-x="460" 
d="M291 22q-47 -30 -110 -30q-64 0 -102.5 31t-38.5 92q0 22 4 43l90 508h141l-88 -494q-3 -21 -3 -34q0 -38 36 -38q22 0 43 12zM357 666h143l-23 -130l-82 -111h-67l69 111h-62z" />
    <glyph glyph-name="Ldot" unicode="&#x13f;" horiz-adv-x="581" 
d="M541 127l-22 -127h-469l117 666h148l-95 -539h321zM520 408l-28 -156h-154l28 156h154z" />
    <glyph glyph-name="ldot" unicode="&#x140;" horiz-adv-x="463" 
d="M291 22q-47 -30 -110 -30q-64 0 -102.5 31t-38.5 92q0 22 4 43l90 508h141l-88 -494q-3 -21 -3 -34q0 -38 36 -38q22 0 43 12zM465 378l-28 -156h-154l28 156h154z" />
    <glyph glyph-name="Lslash" unicode="&#x141;" horiz-adv-x="598" 
d="M536 0h-468l37 215l-90 -39l23 133l91 39l55 318h149l-46 -255l200 86l-22 -133l-201 -86l-27 -151h321z" />
    <glyph glyph-name="lslash" unicode="&#x142;" horiz-adv-x="353" 
d="M198 -8q-65 0 -103 29.5t-38 90.5q0 23 4 43l19 112l-68 -29l26 131l65 27l48 270h141l-38 -212l105 43l-26 -130l-102 -42l-28 -159q-3 -19 -3 -29q0 -38 36 -38q22 0 44 12l28 -90q-48 -29 -110 -29z" />
    <glyph glyph-name="Nacute" unicode="&#x143;" horiz-adv-x="791" 
d="M781 666l-117 -666h-145l-245 443l-78 -443h-146l117 666h145l245 -444l78 444h146zM406 716l106 133h169l-152 -133h-123z" />
    <glyph glyph-name="nacute" unicode="&#x144;" horiz-adv-x="584" 
d="M537 352q0 -16 -6 -56l-51 -296h-142l48 275q4 21 4 44q0 52 -46 52q-51 0 -93.5 -75t-69.5 -236l-10 -60h-141l85 487h137l-19 -100q26 42 76.5 75.5t95.5 33.5q132 0 132 -144zM250 537l106 133h169l-152 -133h-123z" />
    <glyph glyph-name="uni0145" unicode="&#x145;" horiz-adv-x="791" 
d="M781 666l-117 -666h-145l-245 443l-78 -443h-146l117 666h145l245 -444l78 444h146zM274 -66h139l-21 -123l-86 -107h-66l70 107h-57z" />
    <glyph glyph-name="uni0146" unicode="&#x146;" horiz-adv-x="584" 
d="M537 352q0 -16 -6 -56l-51 -296h-142l48 275q4 21 4 44q0 52 -46 52q-51 0 -93.5 -75t-69.5 -236l-10 -60h-141l85 487h137l-19 -100q26 42 76.5 75.5t95.5 33.5q132 0 132 -144zM181 -66h139l-21 -123l-86 -107h-66l70 107h-57z" />
    <glyph glyph-name="Ncaron" unicode="&#x147;" horiz-adv-x="791" 
d="M781 666l-117 -666h-145l-245 443l-78 -443h-146l117 666h145l245 -444l78 444h146zM341 849h114l36 -57l56 57h121l-136 -133h-102z" />
    <glyph glyph-name="ncaron" unicode="&#x148;" horiz-adv-x="584" 
d="M537 352q0 -16 -6 -56l-51 -296h-142l48 275q4 21 4 44q0 52 -46 52q-51 0 -93.5 -75t-69.5 -236l-10 -60h-141l85 487h137l-19 -100q26 42 76.5 75.5t95.5 33.5q132 0 132 -144zM199 670h114l36 -57l56 57h121l-136 -133h-102z" />
    <glyph glyph-name="napostrophe" unicode="&#x149;" horiz-adv-x="735" 
d="M688 352q0 -16 -6 -56l-51 -296h-142l48 275q4 21 4 44q0 52 -46 52q-51 0 -93.5 -75t-69.5 -236l-10 -60h-141l85 487h137l-19 -100q26 42 76.5 75.5t95.5 33.5q132 0 132 -144zM84 666h143l-23 -130l-82 -111h-67l69 111h-62z" />
    <glyph glyph-name="Eng" unicode="&#x14a;" horiz-adv-x="791" 
d="M466 -171q-30 0 -52 3l16 111q12 -2 28 -2q29 0 41.5 13t19.5 46l-245 443l-78 -443h-146l117 666h145l245 -444l78 444h146l-117 -666q-15 -85 -67 -128t-131 -43z" />
    <glyph glyph-name="eng" unicode="&#x14b;" horiz-adv-x="584" 
d="M282 -171q-22 0 -52 4l16 111q18 -3 28 -3q32 0 45 15.5t21 57.5l46 261q4 21 4 44q0 52 -46 52q-51 0 -93.5 -75t-69.5 -236l-10 -60h-141l85 487h137l-19 -100q26 42 76.5 75.5t95.5 33.5q132 0 132 -144q0 -16 -6 -56l-52 -300q-15 -84 -66.5 -125.5t-130.5 -41.5z
" />
    <glyph glyph-name="Omacron" unicode="&#x14c;" horiz-adv-x="748" 
d="M738 394q0 -164 -116 -284.5t-289 -120.5q-121 0 -202 80t-81 199q0 175 121 291.5t284 116.5q125 0 204 -80t79 -202zM590 384q0 73 -41.5 117t-117.5 44q-95 0 -163.5 -74t-68.5 -193q0 -71 41.5 -114.5t116.5 -43.5q95 0 164 72.5t69 191.5zM312 733l16 94h304
l-17 -94h-303z" />
    <glyph glyph-name="omacron" unicode="&#x14d;" horiz-adv-x="550" 
d="M525 292q0 -121 -78.5 -210.5t-212.5 -89.5q-95 0 -149.5 58t-54.5 146q0 127 85 213.5t207 86.5q94 0 148.5 -58t54.5 -146zM384 283q0 105 -81 105q-55 0 -92.5 -50t-37.5 -136q0 -102 80 -102q55 0 93 50t38 133zM181 554l16 94h304l-17 -94h-303z" />
    <glyph glyph-name="Obreve" unicode="&#x14e;" horiz-adv-x="748" 
d="M738 394q0 -164 -116 -284.5t-289 -120.5q-121 0 -202 80t-81 199q0 175 121 291.5t284 116.5q125 0 204 -80t79 -202zM590 384q0 73 -41.5 117t-117.5 44q-95 0 -163.5 -74t-68.5 -193q0 -71 41.5 -114.5t116.5 -43.5q95 0 164 72.5t69 191.5zM338 842h87
q-10 -57 46 -57q57 0 68 57h88q-10 -63 -53.5 -94.5t-107.5 -31.5t-101 35t-27 91z" />
    <glyph glyph-name="obreve" unicode="&#x14f;" horiz-adv-x="550" 
d="M525 292q0 -121 -78.5 -210.5t-212.5 -89.5q-95 0 -149.5 58t-54.5 146q0 127 85 213.5t207 86.5q94 0 148.5 -58t54.5 -146zM384 283q0 105 -81 105q-55 0 -92.5 -50t-37.5 -136q0 -102 80 -102q55 0 93 50t38 133zM207 663h87q-10 -57 46 -57q57 0 68 57h88
q-10 -63 -53.5 -94.5t-107.5 -31.5t-101 35t-27 91z" />
    <glyph glyph-name="Ohungarumlaut" unicode="&#x150;" horiz-adv-x="748" 
d="M738 394q0 -164 -116 -284.5t-289 -120.5q-121 0 -202 80t-81 199q0 175 121 291.5t284 116.5q125 0 204 -80t79 -202zM590 384q0 73 -41.5 117t-117.5 44q-95 0 -163.5 -74t-68.5 -193q0 -71 41.5 -114.5t116.5 -43.5q95 0 164 72.5t69 191.5zM511 716l112 133h158
l-160 -133h-110zM277 716l112 133h157l-159 -133h-110z" />
    <glyph glyph-name="ohungarumlaut" unicode="&#x151;" horiz-adv-x="550" 
d="M525 292q0 -121 -78.5 -210.5t-212.5 -89.5q-95 0 -149.5 58t-54.5 146q0 127 85 213.5t207 86.5q94 0 148.5 -58t54.5 -146zM384 283q0 105 -81 105q-55 0 -92.5 -50t-37.5 -136q0 -102 80 -102q55 0 93 50t38 133zM380 537l112 133h158l-160 -133h-110zM146 537
l112 133h157l-159 -133h-110z" />
    <glyph glyph-name="OE" unicode="&#x152;" horiz-adv-x="1008" 
d="M1026 666l-23 -127h-339l-23 -132h321l-22 -127h-321l-27 -153h339l-23 -127h-573q-123 0 -204 75.5t-81 197.5q0 163 115.5 278t287.5 115h573zM516 535h-86q-104 0 -168 -73t-64 -178q0 -74 43 -113.5t117 -39.5h86z" />
    <glyph glyph-name="oe" unicode="&#x153;" horiz-adv-x="864" 
d="M849 373q0 -97 -81 -142.5t-250 -42.5q0 -86 124 -86q63 0 131 22l20 -97q-77 -35 -172 -35q-130 0 -192 72q-79 -72 -195 -72q-95 0 -149.5 58t-54.5 146q0 129 82 214.5t211 85.5q99 0 156 -68q77 68 190 68q88 0 134 -35t46 -88zM384 284q0 104 -81 104
q-55 0 -92.5 -50t-37.5 -136q0 -102 80 -102q55 0 93 50.5t38 133.5zM722 354q0 36 -59 36q-97 0 -129 -93q188 -3 188 57z" />
    <glyph glyph-name="Racute" unicode="&#x154;" horiz-adv-x="759" 
d="M558 471q0 34 -23 55t-58 21h-183l-33 -192h183q50 0 82 36.5t32 79.5zM712 493q1 -80 -45.5 -141.5t-114.5 -90.5l145 -261h-180l-132 240h-145l-42 -240h-148l117 666h361q82 0 132.5 -49t51.5 -124zM358 716l106 133h169l-152 -133h-123z" />
    <glyph glyph-name="racute" unicode="&#x155;" horiz-adv-x="379" 
d="M414 493l-37 -134q-16 2 -23 2q-54 0 -102 -74.5t-73 -226.5l-10 -60h-141l85 487h137l-19 -100q24 44 64 76.5t90 32.5q14 0 29 -3zM202 537l106 133h169l-152 -133h-123z" />
    <glyph glyph-name="uni0156" unicode="&#x156;" horiz-adv-x="759" 
d="M558 471q0 34 -23 55t-58 21h-183l-33 -192h183q50 0 82 36.5t32 79.5zM712 493q1 -80 -45.5 -141.5t-114.5 -90.5l145 -261h-180l-132 240h-145l-42 -240h-148l117 666h361q82 0 132.5 -49t51.5 -124zM283 -66h139l-21 -123l-86 -107h-66l70 107h-57z" />
    <glyph glyph-name="uni0157" unicode="&#x157;" horiz-adv-x="379" 
d="M414 493l-37 -134q-16 2 -23 2q-54 0 -102 -74.5t-73 -226.5l-10 -60h-141l85 487h137l-19 -100q24 44 64 76.5t90 32.5q14 0 29 -3zM18 -66h139l-21 -123l-86 -107h-66l70 107h-57z" />
    <glyph glyph-name="Rcaron" unicode="&#x158;" horiz-adv-x="759" 
d="M558 471q0 34 -23 55t-58 21h-183l-33 -192h183q50 0 82 36.5t32 79.5zM712 493q1 -80 -45.5 -141.5t-114.5 -90.5l145 -261h-180l-132 240h-145l-42 -240h-148l117 666h361q82 0 132.5 -49t51.5 -124zM293 849h114l36 -57l56 57h121l-136 -133h-102z" />
    <glyph glyph-name="rcaron" unicode="&#x159;" horiz-adv-x="379" 
d="M414 493l-37 -134q-16 2 -23 2q-54 0 -102 -74.5t-73 -226.5l-10 -60h-141l85 487h137l-19 -100q24 44 64 76.5t90 32.5q14 0 29 -3zM142 670h114l36 -57l56 57h121l-136 -133h-102z" />
    <glyph glyph-name="Sacute" unicode="&#x15a;" horiz-adv-x="647" 
d="M650 645l-33 -123q-101 27 -214 27q-71 0 -104.5 -12.5t-33.5 -41.5q0 -12 4 -22.5t15.5 -20t20.5 -16t32.5 -16.5t37 -15t46.5 -18q108 -41 144 -80.5t36 -98.5q0 -105 -83 -162t-239 -57q-130 0 -259 52l40 116q131 -43 239 -43q67 0 108.5 18t41.5 53q0 23 -26 42.5
t-119 53.5q-97 36 -144 77.5t-47 109.5q0 104 82 156t228 52q131 0 227 -31zM348 716l106 133h169l-152 -133h-123z" />
    <glyph glyph-name="sacute" unicode="&#x15b;" horiz-adv-x="468" 
d="M443 472l-23 -101q-70 19 -149 19q-44 0 -58 -7.5t-14 -26.5q0 -17 11.5 -25.5t73.5 -39.5q81 -41 106.5 -68t25.5 -73q0 -158 -233 -158q-89 0 -175 38l30 95q81 -29 160 -29q45 0 62 10t17 32q0 12 -11.5 22.5t-50.5 31.5q-48 26 -68 38t-44 31.5t-31.5 38.5t-7.5 46
q0 81 54 115.5t165 34.5q80 0 160 -24zM207 537l106 133h169l-152 -133h-123z" />
    <glyph glyph-name="Scircumflex" unicode="&#x15c;" horiz-adv-x="647" 
d="M650 645l-33 -123q-101 27 -214 27q-71 0 -104.5 -12.5t-33.5 -41.5q0 -12 4 -22.5t15.5 -20t20.5 -16t32.5 -16.5t37 -15t46.5 -18q108 -41 144 -80.5t36 -98.5q0 -105 -83 -162t-239 -57q-130 0 -259 52l40 116q131 -43 239 -43q67 0 108.5 18t41.5 53q0 23 -26 42.5
t-119 53.5q-97 36 -144 77.5t-47 109.5q0 104 82 156t228 52q131 0 227 -31zM253 716l136 133h102l89 -133h-114l-36 56l-56 -56h-121z" />
    <glyph glyph-name="scircumflex" unicode="&#x15d;" horiz-adv-x="468" 
d="M443 472l-23 -101q-70 19 -149 19q-44 0 -58 -7.5t-14 -26.5q0 -17 11.5 -25.5t73.5 -39.5q81 -41 106.5 -68t25.5 -73q0 -158 -233 -158q-89 0 -175 38l30 95q81 -29 160 -29q45 0 62 10t17 32q0 12 -11.5 22.5t-50.5 31.5q-48 26 -68 38t-44 31.5t-31.5 38.5t-7.5 46
q0 81 54 115.5t165 34.5q80 0 160 -24zM120 537l136 133h102l89 -133h-114l-36 56l-56 -56h-121z" />
    <glyph glyph-name="uni015E" unicode="&#x15e;" horiz-adv-x="647" 
d="M266 -181q-54 0 -88 14l15 46q18 -6 47 -6q40 0 40 24q0 19 -30 19q-17 0 -43 -2l38 76q-111 6 -225 51l40 116q131 -43 239 -43q67 0 108.5 18t41.5 53q0 23 -26 42.5t-119 53.5q-97 36 -144 77.5t-47 109.5q0 104 82 156t228 52q131 0 227 -31l-33 -123
q-101 27 -214 27q-71 0 -104.5 -12.5t-33.5 -41.5q0 -12 4 -22.5t15.5 -20t20.5 -16t32.5 -16.5t37 -15t46.5 -18q108 -41 144 -80.5t36 -98.5q0 -102 -78 -158.5t-226 -60.5l-13 -29q9 3 23 3q66 0 66 -63q0 -37 -30.5 -59t-76.5 -22z" />
    <glyph glyph-name="uni015F" unicode="&#x15f;" horiz-adv-x="468" 
d="M177 -181q-54 0 -88 14l15 46q18 -6 47 -6q40 0 40 24q0 19 -30 19q-17 0 -43 -2l39 79q-76 4 -149 37l30 95q81 -29 160 -29q45 0 62 10t17 32q0 12 -11.5 22.5t-50.5 31.5q-48 26 -68 38t-44 31.5t-31.5 38.5t-7.5 46q0 81 54 115.5t165 34.5q80 0 160 -24l-23 -101
q-70 19 -149 19q-44 0 -58 -7.5t-14 -26.5q0 -17 11.5 -25.5t73.5 -39.5q81 -41 106.5 -68t25.5 -73q0 -149 -206 -157l-15 -33q9 3 23 3q66 0 66 -63q0 -37 -30.5 -59t-76.5 -22z" />
    <glyph glyph-name="Scaron" unicode="&#x160;" horiz-adv-x="647" 
d="M650 645l-33 -123q-101 27 -214 27q-71 0 -104.5 -12.5t-33.5 -41.5q0 -12 4 -22.5t15.5 -20t20.5 -16t32.5 -16.5t37 -15t46.5 -18q108 -41 144 -80.5t36 -98.5q0 -105 -83 -162t-239 -57q-130 0 -259 52l40 116q131 -43 239 -43q67 0 108.5 18t41.5 53q0 23 -26 42.5
t-119 53.5q-97 36 -144 77.5t-47 109.5q0 104 82 156t228 52q131 0 227 -31zM270 849h114l36 -57l56 57h121l-136 -133h-102z" />
    <glyph glyph-name="scaron" unicode="&#x161;" horiz-adv-x="468" 
d="M443 472l-23 -101q-70 19 -149 19q-44 0 -58 -7.5t-14 -26.5q0 -17 11.5 -25.5t73.5 -39.5q81 -41 106.5 -68t25.5 -73q0 -158 -233 -158q-89 0 -175 38l30 95q81 -29 160 -29q45 0 62 10t17 32q0 12 -11.5 22.5t-50.5 31.5q-48 26 -68 38t-44 31.5t-31.5 38.5t-7.5 46
q0 81 54 115.5t165 34.5q80 0 160 -24zM136 670h114l36 -57l56 57h121l-136 -133h-102z" />
    <glyph glyph-name="Tcommaaccent" unicode="&#x162;" horiz-adv-x="608" 
d="M674 666l-23 -129h-218l-95 -537h-148l95 537h-219l23 129h585zM186 -66h139l-21 -123l-86 -107h-66l70 107h-57z" />
    <glyph glyph-name="tcommaaccent" unicode="&#x163;" horiz-adv-x="344" 
d="M344 487l-16 -91h-85l-39 -219q-4 -21 -4 -39q0 -38 29 -38q22 0 50 10l22 -93q-45 -25 -105 -25q-64 0 -102.5 31t-38.5 92q0 23 4 44l42 237h-61l16 91h62l24 136h141l-24 -136h85zM75 -66h139l-21 -123l-86 -107h-66l70 107h-57z" />
    <glyph glyph-name="Tcaron" unicode="&#x164;" horiz-adv-x="608" 
d="M674 666l-23 -129h-218l-95 -537h-148l95 537h-219l23 129h585zM246 849h114l36 -57l56 57h121l-136 -133h-102z" />
    <glyph glyph-name="tcaron" unicode="&#x165;" horiz-adv-x="410" 
d="M347 758h143l-20 -121l-74 -94h-67l61 94h-62zM344 487l-16 -91h-85l-39 -219q-4 -21 -4 -39q0 -38 29 -38q22 0 50 10l22 -93q-45 -25 -105 -25q-64 0 -102.5 31t-38.5 92q0 23 4 44l42 237h-61l16 91h62l24 136h141l-24 -136h85z" />
    <glyph glyph-name="Tbar" unicode="&#x166;" horiz-adv-x="608" 
d="M508 245h-129l-43 -245h-148l44 245h-130l20 117h130l31 174h-219l23 130h586l-24 -130h-218l-31 -174h130z" />
    <glyph glyph-name="tbar" unicode="&#x167;" horiz-adv-x="344" 
d="M299 16q-48 -24 -102 -24q-72 0 -107.5 33.5t-35.5 88.5q0 16 3 32l12 70h-60l18 98h60l15 84h-61l16 89h61l25 136h140l-24 -136h86l-16 -89h-85l-15 -84h85l-17 -98h-86l-9 -49q-3 -23 -3 -33q0 -34 31 -34q22 0 47 10z" />
    <glyph glyph-name="Utilde" unicode="&#x168;" horiz-adv-x="751" 
d="M751 666l-68 -389q-21 -122 -115.5 -205t-234.5 -83q-117 0 -185 67t-68 169q0 28 4 52l69 389h148l-69 -389q-3 -18 -3 -34q0 -57 34.5 -89.5t92.5 -32.5q71 0 118 42t60 114l69 389h148zM283 736q8 58 36 91t75 33q36 0 86 -22q42 -20 57 -20q23 0 37 44l79 -24
q-14 -59 -39.5 -89t-70.5 -30q-31 0 -78 18q-52 20 -64 20q-27 0 -37 -41z" />
    <glyph glyph-name="utilde" unicode="&#x169;" horiz-adv-x="582" 
d="M552 487l-86 -487h-137l19 100q-26 -42 -76 -75t-95 -33q-132 0 -132 139q0 34 5 60l52 296h142l-48 -275q-4 -28 -4 -39q0 -28 10 -42.5t35 -14.5q106 0 163 311l11 60h141zM158 557q8 58 36 91t75 33q36 0 86 -22q42 -20 57 -20q23 0 37 44l79 -24q-14 -59 -39.5 -89
t-70.5 -30q-31 0 -78 18q-52 20 -64 20q-27 0 -37 -41z" />
    <glyph glyph-name="Umacron" unicode="&#x16a;" horiz-adv-x="751" 
d="M751 666l-68 -389q-21 -122 -115.5 -205t-234.5 -83q-117 0 -185 67t-68 169q0 28 4 52l69 389h148l-69 -389q-3 -18 -3 -34q0 -57 34.5 -89.5t92.5 -32.5q71 0 118 42t60 114l69 389h148zM310 733l16 94h304l-17 -94h-303z" />
    <glyph glyph-name="umacron" unicode="&#x16b;" horiz-adv-x="582" 
d="M552 487l-86 -487h-137l19 100q-26 -42 -76 -75t-95 -33q-132 0 -132 139q0 34 5 60l52 296h142l-48 -275q-4 -28 -4 -39q0 -28 10 -42.5t35 -14.5q106 0 163 311l11 60h141zM185 554l16 94h304l-17 -94h-303z" />
    <glyph glyph-name="Ubreve" unicode="&#x16c;" horiz-adv-x="751" 
d="M751 666l-68 -389q-21 -122 -115.5 -205t-234.5 -83q-117 0 -185 67t-68 169q0 28 4 52l69 389h148l-69 -389q-3 -18 -3 -34q0 -57 34.5 -89.5t92.5 -32.5q71 0 118 42t60 114l69 389h148zM336 842h87q-10 -57 46 -57q57 0 68 57h88q-10 -63 -53.5 -94.5t-107.5 -31.5
t-101 35t-27 91z" />
    <glyph glyph-name="ubreve" unicode="&#x16d;" horiz-adv-x="582" 
d="M552 487l-86 -487h-137l19 100q-26 -42 -76 -75t-95 -33q-132 0 -132 139q0 34 5 60l52 296h142l-48 -275q-4 -28 -4 -39q0 -28 10 -42.5t35 -14.5q106 0 163 311l11 60h141zM211 663h87q-10 -57 46 -57q57 0 68 57h88q-10 -63 -53.5 -94.5t-107.5 -31.5t-101 35t-27 91z
" />
    <glyph glyph-name="Uring" unicode="&#x16e;" horiz-adv-x="751" 
d="M751 666l-68 -389q-21 -122 -115.5 -205t-234.5 -83q-117 0 -185 67t-68 169q0 28 4 52l69 389h148l-69 -389q-3 -18 -3 -34q0 -57 34.5 -89.5t92.5 -32.5q71 0 118 42t60 114l69 389h148zM455 716q-41 0 -64.5 21.5t-23.5 54.5q0 44 29 71.5t79 27.5q37 0 60.5 -21.5
t23.5 -53.5q0 -44 -29 -72t-75 -28zM456 761q24 0 37.5 14t13.5 34q0 15 -9.5 26t-26.5 11q-24 0 -37.5 -14.5t-13.5 -35.5q0 -15 9.5 -25t26.5 -10z" />
    <glyph glyph-name="uring" unicode="&#x16f;" horiz-adv-x="582" 
d="M552 487l-86 -487h-137l19 100q-26 -42 -76 -75t-95 -33q-132 0 -132 139q0 34 5 60l52 296h142l-48 -275q-4 -28 -4 -39q0 -28 10 -42.5t35 -14.5q106 0 163 311l11 60h141zM334 537q-41 0 -64.5 21.5t-23.5 54.5q0 44 29 71.5t79 27.5q37 0 60.5 -21.5t23.5 -53.5
q0 -44 -29 -72t-75 -28zM335 582q24 0 37.5 14t13.5 34q0 15 -9.5 26t-26.5 11q-24 0 -37.5 -14.5t-13.5 -35.5q0 -15 9.5 -25t26.5 -10z" />
    <glyph glyph-name="Uhungarumlaut" unicode="&#x170;" horiz-adv-x="751" 
d="M751 666l-68 -389q-21 -122 -115.5 -205t-234.5 -83q-117 0 -185 67t-68 169q0 28 4 52l69 389h148l-69 -389q-3 -18 -3 -34q0 -57 34.5 -89.5t92.5 -32.5q71 0 118 42t60 114l69 389h148zM505 716l112 133h158l-160 -133h-110zM271 716l112 133h157l-159 -133h-110z" />
    <glyph glyph-name="uhungarumlaut" unicode="&#x171;" horiz-adv-x="582" 
d="M552 487l-86 -487h-137l19 100q-26 -42 -76 -75t-95 -33q-132 0 -132 139q0 34 5 60l52 296h142l-48 -275q-4 -28 -4 -39q0 -28 10 -42.5t35 -14.5q106 0 163 311l11 60h141zM382 537l112 133h158l-160 -133h-110zM148 537l112 133h157l-159 -133h-110z" />
    <glyph glyph-name="Uogonek" unicode="&#x172;" horiz-adv-x="751" 
d="M383 -181q-41 0 -64 20t-23 52q0 66 74 100q-24 -2 -37 -2q-117 0 -185 67t-68 169q0 28 4 52l69 389h148l-69 -389q-3 -18 -3 -34q0 -57 34.5 -89.5t92.5 -32.5q71 0 118 42t60 114l69 389h148l-68 -389q-14 -79 -62.5 -145.5t-123.5 -105.5q-52 -27 -76 -54t-24 -60
q0 -27 31 -27q15 0 30 5l-4 -59q-30 -12 -71 -12z" />
    <glyph glyph-name="uogonek" unicode="&#x173;" horiz-adv-x="582" 
d="M329 0l19 100q-26 -42 -76 -75t-95 -33q-132 0 -132 139q0 34 5 60l52 296h142l-48 -275q-4 -28 -4 -39q0 -28 10 -42.5t35 -14.5q106 0 163 311l11 60h141l-86 -487h-76q-60 -42 -60 -88q0 -27 31 -27q15 0 30 5l-4 -59q-30 -12 -71 -12t-64 20t-23 52q0 39 28 68t72 41
z" />
    <glyph glyph-name="Wcircumflex" unicode="&#x174;" horiz-adv-x="864" 
d="M924 666l-279 -666h-118l-63 420l-210 -420h-117l-44 666h146l22 -393l196 393h102l58 -393l161 393h146zM353 716l136 133h102l89 -133h-114l-36 56l-56 -56h-121z" />
    <glyph glyph-name="wcircumflex" unicode="&#x175;" horiz-adv-x="712" 
d="M747 487l-220 -487h-137l-25 322l-142 -322h-137l-46 487h130l16 -334l146 334h123l26 -334l134 334h132zM229 537l136 133h102l89 -133h-114l-36 56l-56 -56h-121z" />
    <glyph glyph-name="Ycircumflex" unicode="&#x176;" horiz-adv-x="600" 
d="M688 666l-297 -404l-46 -262h-148l46 262l-155 404h148l104 -274l200 274h148zM223 716l136 133h102l89 -133h-114l-36 56l-56 -56h-121z" />
    <glyph glyph-name="ycircumflex" unicode="&#x177;" horiz-adv-x="485" 
d="M525 487l-351 -650h-137l88 163l-95 487h137l54 -335l167 335h137zM123 537l136 133h102l89 -133h-114l-36 56l-56 -56h-121z" />
    <glyph glyph-name="Ydieresis" unicode="&#x178;" horiz-adv-x="600" 
d="M688 666l-297 -404l-46 -262h-148l46 262l-155 404h148l104 -274l200 274h148zM445 720l22 123h123l-22 -123h-123zM232 720l22 123h123l-22 -123h-123z" />
    <glyph glyph-name="Zacute" unicode="&#x179;" horiz-adv-x="646" 
d="M672 666l-24 -132l-435 -407h377l-23 -127h-554l24 134l436 405h-356l23 127h532zM337 716l106 133h169l-152 -133h-123z" />
    <glyph glyph-name="zacute" unicode="&#x17a;" horiz-adv-x="516" 
d="M511 487l-18 -103l-305 -280h260l-19 -104h-424l19 104l298 280h-228l18 103h399zM239 537l106 133h169l-152 -133h-123z" />
    <glyph glyph-name="Zdotaccent" unicode="&#x17b;" horiz-adv-x="646" 
d="M672 666l-24 -132l-435 -407h377l-23 -127h-554l24 134l436 405h-356l23 127h532zM340 723l22 121h143l-21 -121h-144z" />
    <glyph glyph-name="zdotaccent" unicode="&#x17c;" horiz-adv-x="516" 
d="M511 487l-18 -103l-305 -280h260l-19 -104h-424l19 104l298 280h-228l18 103h399zM243 544l22 121h143l-21 -121h-144z" />
    <glyph glyph-name="Zcaron" unicode="&#x17d;" horiz-adv-x="646" 
d="M672 666l-24 -132l-435 -407h377l-23 -127h-554l24 134l436 405h-356l23 127h532zM263 849h114l36 -57l56 57h121l-136 -133h-102z" />
    <glyph glyph-name="zcaron" unicode="&#x17e;" horiz-adv-x="516" 
d="M511 487l-18 -103l-305 -280h260l-19 -104h-424l19 104l298 280h-228l18 103h399zM175 670h114l36 -57l56 57h121l-136 -133h-102z" />
    <glyph glyph-name="uni0192" unicode="&#x192;" horiz-adv-x="488" 
d="M508 677l-33 -100q-25 5 -54 5q-62 0 -73 -70l-6 -36h88l-16 -92h-88l-65 -369q-15 -89 -65.5 -137.5t-133.5 -48.5q-39 0 -87 15l33 93q6 -1 11.5 -2.5t7.5 -1.5q10 -2 18 -2q60 0 73 70l66 383h-63l16 92h64l5 30q14 88 65 136.5t135 48.5q56 0 102 -14z" />
    <glyph glyph-name="Aringacute" unicode="&#x1fa;" horiz-adv-x="661" 
d="M412 666q24 0 37.5 14t13.5 34q0 15 -9.5 26t-26.5 11q-24 0 -37.5 -14.5t-13.5 -35.5q0 -15 9.5 -25t26.5 -10zM427 249l-39 271l-137 -271h176zM196 137l-76 -137h-145l362 652q-14 20 -14 45q0 44 29 71.5t79 27.5q37 0 60.5 -21.5t23.5 -53.5q0 -45 -29 -72l130 -649
h-145l-27 137h-248zM379 821l71 89h169l-117 -89h-123z" />
    <glyph glyph-name="aringacute" unicode="&#x1fb;" 
d="M538 487l-86 -487h-142l19 100q-26 -47 -70.5 -77.5t-91.5 -30.5q-76 0 -109 50.5t-33 124.5q0 76 29.5 150t90.5 126.5t139 52.5q62 0 107 -34l4 25h143zM375 372q-36 17 -66 17q-68 0 -104.5 -66.5t-36.5 -149.5q0 -34 9 -53t36 -19q54 0 102.5 81t58.5 180zM348 531
q-41 0 -64.5 21.5t-23.5 54.5q0 44 29 71.5t79 27.5q37 0 60.5 -21.5t23.5 -53.5q0 -44 -29 -72t-75 -28zM349 576q24 0 37.5 14t13.5 34q0 15 -9.5 26t-26.5 11q-24 0 -37.5 -14.5t-13.5 -35.5q0 -15 9.5 -25t26.5 -10zM323 731l71 89h169l-117 -89h-123z" />
    <glyph glyph-name="AEacute" unicode="&#x1fc;" horiz-adv-x="915" 
d="M401 249l-11 271l-138 -271h149zM933 666l-23 -127h-386l10 -132h320l-22 -127h-289l12 -153h283l-23 -127h-403l-6 136h-209l-76 -136h-146l369 666h589zM384 716l106 133h169l-152 -133h-123z" />
    <glyph glyph-name="aeacute" unicode="&#x1fd;" horiz-adv-x="812" 
d="M797 373q0 -97 -81 -142.5t-250 -42.5q0 -86 124 -86q63 0 131 22l20 -97q-77 -35 -172 -35q-121 0 -184 63q-71 -63 -183 -63q-90 0 -138.5 37t-48.5 94q0 71 44.5 114.5t138.5 43.5h140l6 36q6 38 -14 53t-83 15q-77 0 -145 -8l1 102q95 17 178 17q120 0 172 -48
q71 48 164 48q88 0 134 -35t46 -88zM322 192h-88q-76 0 -76 -63q0 -39 58 -39q90 0 104 89zM670 354q0 36 -59 36q-97 0 -129 -93q188 -3 188 57zM398 537l106 133h169l-152 -133h-123z" />
    <glyph glyph-name="Oslashacute" unicode="&#x1fe;" horiz-adv-x="845" 
d="M835 639l-96 -82q47 -70 47 -163q0 -173 -115 -289t-290 -116q-123 0 -205 82l-95 -82l-31 37l96 82q-47 70 -47 164q0 170 112 287t292 117q124 0 206 -83l95 83zM599 499q-43 46 -120 46q-103 0 -167.5 -78.5t-64.5 -183.5q0 -42 14 -76zM638 382q0 38 -14 75
l-338 -291q43 -46 119 -46q97 0 165 79.5t68 182.5zM433 716l106 133h169l-152 -133h-123z" />
    <glyph glyph-name="oslashacute" unicode="&#x1ff;" horiz-adv-x="639" 
d="M614 468l-70 -59q35 -51 35 -120q0 -119 -91.5 -208t-209.5 -89q-95 0 -155 60l-70 -60l-23 28l70 59q-35 51 -35 120q0 121 86.5 209t214.5 88q96 0 156 -61l70 61zM434 315l-210 -177q26 -38 73 -38q65 0 102.5 57.5t37.5 126.5q0 16 -3 31zM420 350q-25 37 -73 37
q-65 0 -102.5 -57.5t-37.5 -126.5q0 -16 3 -31zM294 537l106 133h169l-152 -133h-123z" />
    <glyph glyph-name="uni0218" unicode="&#x218;" horiz-adv-x="647" 
d="M650 645l-33 -123q-101 27 -214 27q-71 0 -104.5 -12.5t-33.5 -41.5q0 -12 4 -22.5t15.5 -20t20.5 -16t32.5 -16.5t37 -15t46.5 -18q108 -41 144 -80.5t36 -98.5q0 -105 -83 -162t-239 -57q-130 0 -259 52l40 116q131 -43 239 -43q67 0 108.5 18t41.5 53q0 23 -26 42.5
t-119 53.5q-97 36 -144 77.5t-47 109.5q0 104 82 156t228 52q131 0 227 -31zM204 -66h139l-21 -123l-86 -107h-66l70 107h-57z" />
    <glyph glyph-name="uni0219" unicode="&#x219;" horiz-adv-x="468" 
d="M443 472l-23 -101q-70 19 -149 19q-44 0 -58 -7.5t-14 -26.5q0 -17 11.5 -25.5t73.5 -39.5q81 -41 106.5 -68t25.5 -73q0 -158 -233 -158q-89 0 -175 38l30 95q81 -29 160 -29q45 0 62 10t17 32q0 12 -11.5 22.5t-50.5 31.5q-48 26 -68 38t-44 31.5t-31.5 38.5t-7.5 46
q0 81 54 115.5t165 34.5q80 0 160 -24zM115 -66h139l-21 -123l-86 -107h-66l70 107h-57z" />
    <glyph glyph-name="circumflex" unicode="&#x2c6;" horiz-adv-x="445" 
d="M115 537l136 133h102l89 -133h-114l-36 56l-56 -56h-121z" />
    <glyph glyph-name="caron" unicode="&#x2c7;" horiz-adv-x="445" 
d="M135 670h114l36 -57l56 57h121l-136 -133h-102z" />
    <glyph glyph-name="breve" unicode="&#x2d8;" horiz-adv-x="408" 
d="M143 663h87q-10 -57 46 -57q57 0 68 57h88q-10 -63 -53.5 -94.5t-107.5 -31.5t-101 35t-27 91z" />
    <glyph glyph-name="dotaccent" unicode="&#x2d9;" horiz-adv-x="262" 
d="M115 544l22 121h143l-21 -121h-144z" />
    <glyph glyph-name="ring" unicode="&#x2da;" horiz-adv-x="307" 
d="M212 537q-41 0 -64.5 21.5t-23.5 54.5q0 44 29 71.5t79 27.5q37 0 60.5 -21.5t23.5 -53.5q0 -44 -29 -72t-75 -28zM213 582q24 0 37.5 14t13.5 34q0 15 -9.5 26t-26.5 11q-24 0 -37.5 -14.5t-13.5 -35.5q0 -15 9.5 -25t26.5 -10z" />
    <glyph glyph-name="ogonek" unicode="&#x2db;" horiz-adv-x="289" 
d="M118 0h61q-60 -42 -60 -88q0 -27 31 -27q15 0 30 5l-4 -59q-30 -12 -71 -12t-64 20t-23 52q0 39 28 68t72 41z" />
    <glyph glyph-name="tilde" unicode="&#x2dc;" horiz-adv-x="471" 
d="M117 557q8 58 36 91t75 33q36 0 86 -22q42 -20 57 -20q23 0 37 44l79 -24q-14 -59 -39.5 -89t-70.5 -30q-31 0 -78 18q-52 20 -64 20q-27 0 -37 -41z" />
    <glyph glyph-name="hungarumlaut" unicode="&#x2dd;" horiz-adv-x="585" 
d="M349 537l112 133h158l-160 -133h-110zM115 537l112 133h157l-159 -133h-110z" />
    <glyph glyph-name="uni0312" unicode="&#x312;" horiz-adv-x="370" 
d="M121 537l155 133h120l-106 -133h-169z" />
    <glyph glyph-name="uni0315" unicode="&#x315;" horiz-adv-x="260" 
d="M137 666h143l-23 -130l-82 -111h-67l69 111h-62z" />
    <glyph glyph-name="uni0326" unicode="&#x326;" horiz-adv-x="257" 
d="M32 -66h139l-21 -123l-86 -107h-66l70 107h-57z" />
    <glyph glyph-name="uni03A9" unicode="&#x3a9;" horiz-adv-x="620" 
d="M570 246l-69 -60l-276 339l-38 -214h-82l63 355h354l-15 -82h-213z" />
    <glyph glyph-name="pi" unicode="&#x3c0;" horiz-adv-x="601" 
d="M546 355l-62 -355h-354l14 82h213l-277 338l70 60l277 -339l37 214h82z" />
    <glyph glyph-name="Wgrave" unicode="&#x1e80;" horiz-adv-x="864" 
d="M924 666l-279 -666h-118l-63 420l-210 -420h-117l-44 666h146l22 -393l196 393h102l58 -393l161 393h146zM443 716l-108 133h165l60 -133h-117z" />
    <glyph glyph-name="wgrave" unicode="&#x1e81;" horiz-adv-x="712" 
d="M747 487l-220 -487h-137l-25 322l-142 -322h-137l-46 487h130l16 -334l146 334h123l26 -334l134 334h132zM317 537l-108 133h165l60 -133h-117z" />
    <glyph glyph-name="Wacute" unicode="&#x1e82;" horiz-adv-x="864" 
d="M924 666l-279 -666h-118l-63 420l-210 -420h-117l-44 666h146l22 -393l196 393h102l58 -393l161 393h146zM459 716l106 133h169l-152 -133h-123z" />
    <glyph glyph-name="wacute" unicode="&#x1e83;" horiz-adv-x="712" 
d="M747 487l-220 -487h-137l-25 322l-142 -322h-137l-46 487h130l16 -334l146 334h123l26 -334l134 334h132zM338 537l106 133h169l-152 -133h-123z" />
    <glyph glyph-name="Wdieresis" unicode="&#x1e84;" horiz-adv-x="864" 
d="M924 666l-279 -666h-118l-63 420l-210 -420h-117l-44 666h146l22 -393l196 393h102l58 -393l161 393h146zM555 720l22 123h123l-22 -123h-123zM342 720l22 123h123l-22 -123h-123z" />
    <glyph glyph-name="wdieresis" unicode="&#x1e85;" horiz-adv-x="712" 
d="M747 487l-220 -487h-137l-25 322l-142 -322h-137l-46 487h130l16 -334l146 334h123l26 -334l134 334h132zM441 541l22 123h123l-22 -123h-123zM228 541l22 123h123l-22 -123h-123z" />
    <glyph glyph-name="Ygrave" unicode="&#x1ef2;" horiz-adv-x="600" 
d="M688 666l-297 -404l-46 -262h-148l46 262l-155 404h148l104 -274l200 274h148zM324 716l-108 133h165l60 -133h-117z" />
    <glyph glyph-name="ygrave" unicode="&#x1ef3;" horiz-adv-x="485" 
d="M525 487l-351 -650h-137l88 163l-95 487h137l54 -335l167 335h137zM213 537l-108 133h165l60 -133h-117z" />
    <glyph glyph-name="endash" unicode="&#x2013;" horiz-adv-x="575" 
d="M545 340l-20 -117h-465l20 117h465z" />
    <glyph glyph-name="emdash" unicode="&#x2014;" horiz-adv-x="799" 
d="M769 340l-20 -117h-689l20 117h689z" />
    <glyph glyph-name="quoteleft" unicode="&#x2018;" horiz-adv-x="296" 
d="M291 666l-97 -168h77l-27 -155h-154l27 156l110 167h64z" />
    <glyph glyph-name="quoteright" unicode="&#x2019;" horiz-adv-x="297" 
d="M312 666l-27 -156l-110 -167h-65l98 168h-77l27 155h154z" />
    <glyph glyph-name="quotesinglbase" unicode="&#x201a;" horiz-adv-x="297" 
d="M222 156l-27 -156l-111 -167h-64l97 168h-77l27 155h155z" />
    <glyph glyph-name="quotedblleft" unicode="&#x201c;" horiz-adv-x="532" 
d="M292 666l-97 -168h76l-27 -155h-154l27 156l110 167h65zM527 666l-97 -168h77l-27 -155h-154l27 156l110 167h64z" />
    <glyph glyph-name="quotedblright" unicode="&#x201d;" horiz-adv-x="532" 
d="M312 666l-27 -156l-110 -167h-65l97 168h-76l27 155h154zM547 666l-27 -156l-110 -167h-65l98 168h-77l27 155h154z" />
    <glyph glyph-name="quotedblbase" unicode="&#x201e;" horiz-adv-x="532" 
d="M222 156l-27 -156l-110 -167h-65l97 168h-76l27 155h154zM457 156l-27 -156l-110 -167h-65l98 168h-77l27 155h154z" />
    <glyph glyph-name="dagger" unicode="&#x2020;" horiz-adv-x="481" 
d="M486 521l-24 -134l-154 39l8 -185l-121 -377h-27l12 377l73 185l-168 -39l24 134l154 -38l-8 183h135l-72 -183z" />
    <glyph glyph-name="daggerdbl" unicode="&#x2021;" horiz-adv-x="576" 
d="M531 521l-24 -134l-153 39l6 -185l-71 -184l167 39l-24 -135l-153 39l6 -184h-135l72 184l-167 -39l24 135l153 -39l-8 184l73 185l-167 -39l24 134l153 -38l-7 183h135l-71 -183z" />
    <glyph glyph-name="bullet" unicode="&#x2022;" horiz-adv-x="300" 
d="M285 356q0 -45 -32 -76.5t-76 -31.5t-75.5 31.5t-31.5 76.5t31.5 77t75.5 32t76 -32t32 -77z" />
    <glyph glyph-name="ellipsis" unicode="&#x2026;" horiz-adv-x="912" 
d="M832 156l-28 -156h-154l28 156h154zM222 156l-28 -156h-154l28 156h154zM527 156l-28 -156h-154l28 156h154z" />
    <glyph glyph-name="perthousand" unicode="&#x2030;" horiz-adv-x="1272" 
d="M857 170q0 -77 -44.5 -129t-117.5 -52t-118 52t-45 129t44.5 127.5t118.5 50.5q73 0 117.5 -50.5t44.5 -127.5zM395 497q0 -77 -44.5 -128.5t-117.5 -51.5t-118 51.5t-45 128.5t45 128t118 51t117.5 -51t44.5 -128zM1247 170q0 -77 -45 -129t-118 -52t-117.5 52
t-44.5 129t44.5 127.5t117.5 50.5q74 0 118.5 -50.5t44.5 -127.5zM697 666l-368 -666h-99l369 666h98zM1152 170q0 41 -16.5 69t-51.5 28t-51 -28t-16 -69t16 -70.5t51 -29.5t51.5 29.5t16.5 70.5zM762 170q0 41 -16 69t-51 28t-51.5 -28t-16.5 -69t16.5 -70.5t51.5 -29.5
t51 29.5t16 70.5zM300 497q0 41 -16 69t-51 28t-51.5 -28t-16.5 -69t16.5 -70t51.5 -29t51 29t16 70z" />
    <glyph glyph-name="guilsinglleft" unicode="&#x2039;" horiz-adv-x="400" 
d="M365 431l-208 -187l142 -188l-70 -56l-184 243l270 244z" />
    <glyph glyph-name="guilsinglright" unicode="&#x203a;" horiz-adv-x="400" 
d="M370 243l-270 -243l-50 56l208 188l-142 187l70 56z" />
    <glyph glyph-name="fraction" unicode="&#x2044;" horiz-adv-x="457" 
d="M547 666l-511 -666h-56l512 666h55z" />
    <glyph glyph-name="Euro" unicode="&#x20ac;" horiz-adv-x="712" 
d="M732 647l-42 -123q-79 21 -148 21q-173 0 -247 -123h169l-11 -59h-183q-3 -10 -7 -30q-2 -11 -4 -33h183l-10 -60h-167q33 -120 203 -120q61 0 154 21l-2 -121q-100 -31 -197 -31q-133 0 -216.5 70t-95.5 181h-91l10 60h80q1 11 5 33l6 30h-80l11 59h91q114 254 402 254
q101 0 187 -29z" />
    <glyph glyph-name="trademark" unicode="&#x2122;" horiz-adv-x="711" 
d="M726 666v-304h-63v187l-77 -131h-35l-79 131v-187h-63v304h61l98 -165l97 165h61zM346 666v-58h-99v-246h-67v246h-100v58h266z" />
    <glyph glyph-name="partialdiff" unicode="&#x2202;" horiz-adv-x="572" 
d="M572 424l-58 -58l-151 152v-477h-84v477l-150 -152l-59 58l251 252z" />
    <glyph glyph-name="Delta" unicode="&#x2206;" horiz-adv-x="572" 
d="M557 241l-251 -252l-251 252l58 58l151 -152v477h84v-477l150 152z" />
    <glyph glyph-name="product" unicode="&#x220f;" horiz-adv-x="611" 
d="M601 420l-395 -338h212l-14 -82h-354l62 355h82l-37 -214l395 339z" />
    <glyph glyph-name="summation" unicode="&#x2211;" horiz-adv-x="611" 
d="M601 420l-395 -338h212l-14 -82h-354l62 355h82l-37 -214l395 339z" />
    <glyph glyph-name="minus" unicode="&#x2212;" horiz-adv-x="364" 
d="M334 340v-117h-274v117h274z" />
    <glyph glyph-name="radical" unicode="&#x221a;" horiz-adv-x="745" 
d="M715 358l-14 -84h-476l125 -151l-68 -59l-207 252l295 252l48 -58l-178 -152h475z" />
    <glyph glyph-name="infinity" unicode="&#x221e;" horiz-adv-x="745" 
d="M715 358l-14 -84h-476l125 -151l-68 -59l-207 252l295 252l48 -58l-178 -152h475z" />
    <glyph glyph-name="integral" unicode="&#x222b;" horiz-adv-x="601" 
d="M546 355l-62 -355h-354l14 82h213l-277 338l70 60l277 -339l37 214h82z" />
    <glyph glyph-name="approxequal" unicode="&#x2248;" horiz-adv-x="620" 
d="M620 666l-62 -355h-82l37 214l-395 -339l-48 60l395 338h-213l14 82h354z" />
    <glyph glyph-name="notequal" unicode="&#x2260;" horiz-adv-x="876" 
d="M786 333h-333v-333h-333v666h666v-333z" />
    <glyph glyph-name="lessequal" unicode="&#x2264;" horiz-adv-x="745" 
d="M715 358l-15 -84h-475l124 -151l-68 -59l-206 252l295 252l47 -58l-177 -152h475z" />
    <glyph glyph-name="greaterequal" unicode="&#x2265;" horiz-adv-x="745" 
d="M715 316l-295 -252l-48 59l178 151h-475l14 84h476l-124 152l67 58z" />
    <glyph glyph-name="lozenge" unicode="&#x25ca;" horiz-adv-x="745" 
d="M715 316l-295 -252l-48 59l178 151h-475l14 84h476l-124 152l67 58z" />
    <glyph glyph-name="apple" horiz-adv-x="876" 
d="M786 333h-333v-333h-333v666h666v-333z" />
    <glyph glyph-name="nbspace" horiz-adv-x="215" 
 />
    <glyph glyph-name="i.dot" horiz-adv-x="283" 
d="M255 487l-86 -487h-141l86 487h141zM122 544l22 121h143l-21 -121h-144z" />
    </font>
</defs>
</svg>
