<?xml version="1.0" standalone="no"?>
<!DOCTYPE svg PUBLIC "-//W3C//DTD SVG 1.1//EN" "http://www.w3.org/Graphics/SVG/1.1/DTD/svg11.dtd" >
<svg>
<metadata>
Created by FontForge 20120731 at Fri Aug 19 20:56:50 2016
 By ,,,
(c) 2015 Process Type Foundry. All Rights Reserved.
</metadata>
<defs>
<font id="Locator-LightItalic" horiz-adv-x="558" >
  <font-face 
    font-family="Locator Light"
    font-weight="300"
    font-style="italic"
    font-stretch="normal"
    units-per-em="1000"
    panose-1="2 0 5 0 4 0 0 9 0 4"
    ascent="750"
    descent="-250"
    x-height="487"
    cap-height="666"
    bbox="-110 -229 1190 882"
    underline-thickness="20"
    underline-position="-103"
    unicode-range="U+0020-FB02"
  />
<missing-glyph horiz-adv-x="646" 
d="M90 0v666h466v-666h-466zM507 616h-340l340 -527v527zM139 576v-527h339z" />
    <glyph glyph-name="fi" unicode="fi" horiz-adv-x="514" 
d="M374 680l-11 -44q-29 8 -61 8q-48 0 -67 -23.5t-28 -76.5l-10 -58h113l-8 -46h-113l-78 -440h-56l78 440h-75l8 46h75l9 55q14 87 50 118.5t104 31.5q37 0 70 -11zM476 486l-86 -486h-56l86 486h56zM508 666l-17 -96h-56l17 96h56z" />
    <glyph glyph-name="fl" unicode="fl" horiz-adv-x="556" 
d="M374 680l-11 -44q-29 8 -61 8q-48 0 -67 -23.5t-28 -76.5l-10 -58h113l-8 -46h-113l-78 -440h-56l78 440h-75l8 46h75l9 55q14 87 50 118.5t104 31.5q37 0 70 -11zM511 22q-33 -28 -83 -28q-41 0 -64.5 23.5t-23.5 64.5q0 14 3 29l98 555h56l-95 -542q-5 -23 -5 -44
t9.5 -29.5t30.5 -8.5q30 0 59 18z" />
    <glyph glyph-name=".notdef" horiz-adv-x="646" 
d="M90 0v666h466v-666h-466zM507 616h-340l340 -527v527zM139 576v-527h339z" />
    <glyph glyph-name=".null" horiz-adv-x="0" 
 />
    <glyph glyph-name="nonmarkingreturn" horiz-adv-x="333" 
 />
    <glyph glyph-name="space" unicode=" " horiz-adv-x="210" 
 />
    <glyph glyph-name="exclam" unicode="!" horiz-adv-x="273" 
d="M248 666l-36 -200l-69 -310h-27l39 310l36 200h57zM155 92l-17 -92h-73l17 92h73z" />
    <glyph glyph-name="quotedbl" unicode="&#x22;" horiz-adv-x="388" 
d="M383 666l-48 -268h-56l48 268h56zM219 666l-48 -268h-56l48 268h56z" />
    <glyph glyph-name="numbersign" unicode="#" horiz-adv-x="661" 
d="M651 455l-14 -44h-118l-45 -150h118l-13 -43h-119l-66 -218h-48l66 218h-189l-66 -218h-48l66 218h-120l14 43h119l45 150h-119l13 44h120l63 211h48l-63 -211h190l63 211h48l-63 -211h118zM471 411h-190l-45 -150h190z" />
    <glyph glyph-name="dollar" unicode="$" horiz-adv-x="598" 
d="M588 644l-14 -44q-112 28 -195 28q-39 0 -68 -4t-58.5 -16t-45.5 -38.5t-16 -66.5q0 -39 35 -70.5t84.5 -54t99 -46t84.5 -59.5t35 -83q0 -92 -73.5 -144t-170.5 -56l-16 -91h-45l16 91q-116 7 -210 52l18 43q116 -48 227 -48q49 0 91.5 13.5t73.5 48t31 84.5
q0 37 -35 67t-84.5 52t-99 45.5t-84.5 61t-35 85.5q0 51 19 87.5t53.5 56t73.5 28t89 10.5l17 98h45l-17 -98q95 -5 175 -32z" />
    <glyph glyph-name="percent" unicode="%" horiz-adv-x="830" 
d="M243 335q-67 0 -110 51t-43 120t43 119.5t110 50.5t110 -50.5t43 -119.5q0 -68 -43 -119.5t-110 -51.5zM653 -8q-68 0 -111 50t-43 119t43.5 120t110.5 51t109.5 -51t42.5 -120t-42.5 -119t-109.5 -50zM243 638q-52 0 -81 -39t-29 -93q0 -53 29.5 -93t80.5 -40t80 40
t29 93t-29 92.5t-80 39.5zM653 294q-52 0 -81 -40t-29 -93t29.5 -92.5t80.5 -39.5q52 0 80.5 39.5t28.5 92.5t-29 93t-80 40zM646 666l-353 -666h-43l353 666h43z" />
    <glyph glyph-name="ampersand" unicode="&#x26;" horiz-adv-x="641" 
d="M601 332q-46 -123 -123 -207l75 -125h-66l-50 86q-107 -97 -228 -97q-65 0 -112 39.5t-47 103.5q0 62 32.5 115t73.5 85t102 67q-49 93 -49 136q0 66 38.5 103.5t104.5 37.5q47 0 81 -26t34 -72q0 -111 -142 -193l131 -220q63 68 108 179zM414 125q-119 206 -135 235
q-81 -45 -126.5 -95.5t-45.5 -126.5q0 -99 117 -99q95 0 190 86zM418 575q0 29 -18.5 43.5t-47.5 14.5q-43 0 -68 -24t-25 -66t46 -121q113 58 113 153z" />
    <glyph glyph-name="quotesingle" unicode="'" horiz-adv-x="224" 
d="M219 666l-48 -268h-56l48 268h56z" />
    <glyph glyph-name="parenleft" unicode="(" horiz-adv-x="332" 
d="M372 734q-111 -137 -168.5 -271t-57.5 -291q0 -137 74 -298l-46 -28q-84 162 -84 325q0 308 246 591z" />
    <glyph glyph-name="parenright" unicode=")" horiz-adv-x="332" 
d="M31 -154l-36 28q111 137 168.5 271t57.5 291q0 137 -74 298l46 28q84 -162 84 -325q0 -308 -246 -591z" />
    <glyph glyph-name="asterisk" unicode="*" horiz-adv-x="484" 
d="M489 537l-171 -71l145 -71l-37 -51l-128 97l-17 -175h-58l45 175l-164 -97l-19 51l171 71l-145 71l37 51l128 -97l17 175h58l-45 -175l164 97z" />
    <glyph glyph-name="plus" unicode="+" horiz-adv-x="595" 
d="M550 261v-45h-213v-216h-48v216h-214v45h214v216h48v-216h213z" />
    <glyph glyph-name="comma" unicode="," horiz-adv-x="233" 
d="M138 94l-17 -94l-55 -106h-31l54 106h-41l17 94h73z" />
    <glyph glyph-name="hyphen" unicode="-" horiz-adv-x="356" 
d="M316 300l-10 -56h-241l10 56h241z" />
    <glyph glyph-name="period" unicode="." horiz-adv-x="229" 
d="M139 94l-16 -94h-73l16 94h73z" />
    <glyph glyph-name="slash" unicode="/" horiz-adv-x="459" 
d="M479 676l-429 -793h-50l429 793h50z" />
    <glyph glyph-name="zero" unicode="0" horiz-adv-x="600" 
d="M570 431q0 -71 -19 -145.5t-55 -142t-97.5 -111t-138.5 -43.5q-99 0 -144.5 66.5t-45.5 170.5q0 57 11 116t35.5 117.5t59.5 104t88 74t116 28.5q98 0 144 -66t46 -169zM516 430q0 82 -33 134t-110 52q-65 0 -115.5 -41t-77.5 -104.5t-40.5 -128t-13.5 -124.5
q0 -179 145 -179q50 0 92 27.5t69.5 70.5t47 96t28 103t8.5 94z" />
    <glyph glyph-name="one" unicode="1" horiz-adv-x="396" 
d="M351 656l-116 -656h-56l107 607l-184 -32l-2 43l194 38h57z" />
    <glyph glyph-name="two" unicode="2" horiz-adv-x="592" 
d="M557 524q0 -51 -23 -93t-61 -72t-84 -56.5t-94 -52t-89 -53t-70.5 -65t-37.5 -82.5h389l-9 -50h-446l7 46q3 21 10 41.5t14 36t21.5 32.5t23.5 28t29.5 26t29.5 22.5t34 22t34 19t37 19.5t35 19q97 53 131 83q64 56 64 126q0 95 -166 95q-75 0 -181 -27l-8 46
q99 31 210 31q50 0 92.5 -12t75 -45.5t32.5 -84.5z" />
    <glyph glyph-name="three" unicode="3" horiz-adv-x="537" 
d="M505 524q0 -56 -37 -102t-92 -70q48 -15 77 -51.5t29 -85.5q0 -72 -45 -125t-109 -77t-133 -24q-90 0 -170 31l15 46q87 -27 164 -27q82 0 151 46t69 124q0 24 -8.5 43t-20.5 31t-33.5 20.5t-38.5 12.5t-44.5 6t-43 2t-42.5 -0.5t-36 -0.5l9 48h109q68 0 120.5 40
t52.5 106q0 53 -41.5 76t-98.5 23q-70 0 -158 -27l-8 44q90 33 173 33q49 0 90 -13t70.5 -46t29.5 -83z" />
    <glyph glyph-name="four" unicode="4" horiz-adv-x="599" 
d="M544 232l-9 -50h-109l-32 -182h-56l32 182h-342l9 50l416 424h57l-75 -424h109zM439 577l-335 -345h275z" />
    <glyph glyph-name="five" unicode="5" horiz-adv-x="581" 
d="M561 656l-9 -50h-295l-72 -234q71 41 161 41q75 0 124 -41t49 -114q0 -13 -4 -39q-20 -106 -96 -168t-185 -62q-108 0 -189 49l17 41q83 -41 180 -41q90 0 154.5 60.5t64.5 150.5q0 58 -36 86t-96 28q-75 0 -164 -50l-40 26l98 317h338z" />
    <glyph glyph-name="six" unicode="6" horiz-adv-x="574" 
d="M559 659l-13 -48q-42 7 -75 7q-132 0 -216 -81t-120 -216q82 88 199 88q77 0 128 -44t51 -120q0 -105 -76 -180.5t-181 -75.5q-91 0 -141 56t-50 149q0 38 8 80q33 180 133.5 286t275.5 106q42 0 77 -7zM456 240q0 58 -36.5 88t-96.5 30q-83 0 -145.5 -51.5t-62.5 -132.5
q0 -65 41 -100t107 -35q83 0 138 59t55 142z" />
    <glyph glyph-name="seven" unicode="7" horiz-adv-x="500" 
d="M540 656l-9 -51l-394 -605h-57l395 608h-362l9 48h418z" />
    <glyph glyph-name="eight" unicode="8" horiz-adv-x="590" 
d="M560 524q0 -56 -33.5 -102t-86.5 -70q96 -41 96 -136q0 -103 -83 -165t-189 -62q-84 0 -144 42.5t-60 122.5q0 70 43.5 122t112.5 76q-68 44 -68 116q0 89 72.5 143.5t163.5 54.5q72 0 124 -36.5t52 -105.5zM479 210q0 60 -46 86.5t-110 26.5q-83 0 -144.5 -43
t-61.5 -122q0 -61 45.5 -90t110.5 -29q81 0 143.5 46t62.5 125zM503 517q0 50 -37.5 75t-90.5 25q-68 0 -119 -39.5t-51 -105.5q0 -51 36.5 -76t90.5 -25q69 0 120 39.5t51 106.5z" />
    <glyph glyph-name="nine" unicode="9" horiz-adv-x="578" 
d="M548 462q0 -39 -8 -82q-31 -175 -135.5 -283t-274.5 -108q-37 0 -75 8l11 46q36 -6 73 -6q132 0 217 81t121 215q-81 -87 -199 -87q-76 0 -127 47.5t-51 122.5q0 102 77 176t179 74q94 0 143 -54.5t49 -149.5zM496 482q0 65 -40.5 99.5t-106.5 34.5q-81 0 -137.5 -60
t-56.5 -142q0 -58 36.5 -88t96.5 -30q83 0 145.5 52.5t62.5 133.5z" />
    <glyph glyph-name="colon" unicode=":" horiz-adv-x="242" 
d="M207 477l-16 -92h-73l16 92h73zM139 92l-16 -92h-73l16 92h73z" />
    <glyph glyph-name="semicolon" unicode=";" horiz-adv-x="233" 
d="M131 93l-17 -93l-53 -106h-31l53 106h-42l17 93h73zM198 477l-16 -92h-73l16 92h73z" />
    <glyph glyph-name="less" unicode="&#x3c;" horiz-adv-x="568" 
d="M508 495v-54l-405 -197l405 -196v-55l-473 234v35z" />
    <glyph glyph-name="equal" unicode="=" horiz-adv-x="540" 
d="M490 344v-50h-425v50h425zM490 157v-50h-425v50h425z" />
    <glyph glyph-name="greater" unicode="&#x3e;" horiz-adv-x="568" 
d="M553 262v-36l-473 -237v56l405 199l-405 199v55z" />
    <glyph glyph-name="question" unicode="?" horiz-adv-x="483" 
d="M478 562q0 -19 -5.5 -40.5t-13 -40.5t-22.5 -43.5t-25.5 -41t-32.5 -43t-32.5 -39.5t-36 -39.5t-33 -34t-32.5 -33t-27 -27.5l-29 28q10 10 43 45t52 55.5t48.5 56.5t46 63t29 60.5t12.5 61.5q0 25 -11 41t-31 23t-38.5 9.5t-42.5 2.5q-85 0 -178 -19l-9 44
q103 25 202 25q43 0 77.5 -8.5t61.5 -35.5t27 -70zM220 91l-16 -91h-73l16 91h73z" />
    <glyph glyph-name="at" unicode="@" horiz-adv-x="723" 
d="M668 43q-136 -54 -276 -54q-131 0 -216.5 76.5t-85.5 202.5q0 170 99.5 289t243.5 119q100 0 141 -53t25 -141l-56 -319h-46l17 96q-21 -44 -56.5 -72.5t-75.5 -28.5q-82 0 -82 104q0 81 44 149t118 68q43 0 86 -25l5 30q11 69 -14.5 110.5t-112.5 41.5
q-118 0 -204.5 -106.5t-86.5 -253.5q0 -114 68.5 -181.5t195.5 -67.5q118 0 259 47zM542 419q-38 29 -78 29q-58 0 -93.5 -56t-35.5 -130q0 -72 53 -72q49 0 93 68.5t60 154.5l1 3v3z" />
    <glyph glyph-name="A" unicode="A" horiz-adv-x="635" 
d="M580 0h-56l-41 187h-329l-107 -187h-61l394 666h42zM472 234l-81 366l-208 -366h289z" />
    <glyph glyph-name="B" unicode="B" horiz-adv-x="652" 
d="M632 525q0 -61 -38 -108t-98 -67q101 -36 101 -132t-70 -157t-167 -61h-300l118 666h267q76 0 131.5 -35t55.5 -106zM539 214q0 54 -36 80t-92 26h-236l-48 -270h238q75 0 124.5 45t49.5 119zM571 518q0 53 -38 75.5t-95 22.5h-211l-44 -248h207q75 0 128 38.5t53 111.5z
" />
    <glyph glyph-name="C" unicode="C" horiz-adv-x="630" 
d="M645 655l-15 -46q-76 17 -149 17q-154 0 -258 -100t-104 -253q0 -112 72 -173t186 -61q77 0 150 18l6 -45q-81 -23 -163 -23q-130 0 -220 78t-90 206q0 35 5 60q29 163 144 253t283 90q80 0 153 -21z" />
    <glyph glyph-name="D" unicode="D" horiz-adv-x="657" 
d="M588 382q0 74 -40.5 128.5t-102.5 80t-134 25.5h-83l-100 -566h83q148 0 262.5 93.5t114.5 238.5zM647 386q0 -30 -4 -53q-19 -106 -87 -183t-161.5 -113.5t-201.5 -36.5h-133l119 666h132q86 0 161 -30.5t125 -96t50 -153.5z" />
    <glyph glyph-name="E" unicode="E" horiz-adv-x="610" 
d="M620 666l-9 -50h-383l-43 -246h358l-9 -50h-358l-48 -270h383l-9 -50h-442l118 666h442z" />
    <glyph glyph-name="F" unicode="F" horiz-adv-x="594" 
d="M624 666l-9 -50h-387l-43 -246h361l-9 -50h-361l-57 -320h-59l118 666h446z" />
    <glyph glyph-name="G" unicode="G" horiz-adv-x="686" 
d="M656 658l-11 -46q-79 15 -162 15q-159 0 -262 -98t-103 -257q0 -112 72.5 -172.5t186.5 -60.5q69 0 148 18l43 240h52l-49 -275q-97 -33 -200 -33q-132 0 -221.5 76.5t-89.5 206.5q0 31 6 61q29 167 141.5 255t284.5 88q89 0 164 -18z" />
    <glyph glyph-name="H" unicode="H" horiz-adv-x="696" 
d="M676 666l-118 -666h-59l57 319h-381l-57 -319h-58l118 666h58l-52 -296h381l52 296h59z" />
    <glyph glyph-name="I" unicode="I" horiz-adv-x="266" 
d="M241 666l-118 -666h-58l118 666h58z" />
    <glyph glyph-name="J" unicode="J" horiz-adv-x="452" 
d="M442 666l-84 -475q-34 -191 -222 -191h-118l9 50h116q66 0 106 39.5t51 101.5l75 425h-225l9 50h283z" />
    <glyph glyph-name="K" unicode="K" horiz-adv-x="618" 
d="M653 666l-429 -327l331 -339h-70l-310 319l-57 -319h-58l118 666h58l-53 -299l397 299h73z" />
    <glyph glyph-name="L" unicode="L" horiz-adv-x="537" 
d="M477 50l-9 -50h-408l118 666h58l-109 -616h350z" />
    <glyph glyph-name="M" unicode="M" horiz-adv-x="812" 
d="M792 666l-118 -666h-56l99 561l-316 -473h-36l-150 473l-99 -561h-56l118 666h56l159 -503l338 503h61z" />
    <glyph glyph-name="N" unicode="N" horiz-adv-x="727" 
d="M707 666l-118 -666h-57l-314 577l-102 -577h-56l118 666h56l314 -576l102 576h57z" />
    <glyph glyph-name="O" unicode="O" horiz-adv-x="719" 
d="M641 398q0 100 -55.5 164t-153.5 64q-92 0 -165.5 -55.5t-111 -138.5t-37.5 -173q0 -102 54.5 -161t155.5 -59q88 0 161.5 54.5t112.5 136.5t39 168zM699 403q0 -105 -48.5 -199.5t-137 -154.5t-194.5 -60q-118 0 -188.5 77t-70.5 196q0 106 48.5 200.5t137 154
t195.5 59.5q118 0 188 -76.5t70 -196.5z" />
    <glyph glyph-name="P" unicode="P" horiz-adv-x="629" 
d="M649 505q0 -17 -3 -32q-16 -88 -80.5 -139.5t-154.5 -51.5h-243l-50 -282h-58l118 666h301q73 0 121.5 -44.5t48.5 -116.5zM590 503q0 53 -33 83t-87 30h-243l-51 -286h243q73 0 122 49.5t49 123.5z" />
    <glyph glyph-name="Q" unicode="Q" horiz-adv-x="720" 
d="M700 403q0 -156 -100 -278.5t-252 -134.5l-31 -177h-59l31 177q-107 10 -168 86t-61 186q0 106 48 200.5t136.5 154t195.5 59.5q119 0 189.5 -77t70.5 -196zM641 398q0 100 -56 164t-154 64q-91 0 -164 -55t-110.5 -137.5t-37.5 -171.5q0 -101 54.5 -161.5t154.5 -60.5
q90 0 163 53.5t111.5 135t38.5 169.5z" />
    <glyph glyph-name="R" unicode="R" horiz-adv-x="688" 
d="M590 506q0 52 -34.5 81t-86.5 29h-242l-49 -278h242q70 0 120 49t50 119zM648 508q0 -79 -53 -138t-131 -74l166 -296h-65l-162 290h-234l-51 -290h-58l118 666h300q72 0 121 -43.5t49 -114.5z" />
    <glyph glyph-name="S" unicode="S" horiz-adv-x="616" 
d="M606 644l-14 -46q-112 28 -207 28q-29 0 -47.5 -1t-44.5 -4t-42 -11.5t-32 -21.5t-23.5 -34.5t-7.5 -50.5q0 -39 37 -69.5t89.5 -52.5t105 -45.5t89.5 -60.5t37 -85q0 -54 -24 -94.5t-64.5 -63t-86.5 -33t-97 -10.5q-121 0 -244 52l16 45q116 -47 235 -47q50 0 94 12
t78 46.5t34 85.5q0 39 -37 69.5t-89.5 53t-105.5 46.5t-90 61.5t-37 86.5q0 46 16 79.5t40 51.5t61.5 28.5t70 13.5t76.5 3q119 0 214 -32z" />
    <glyph glyph-name="T" unicode="T" horiz-adv-x="545" 
d="M600 666l-9 -50h-229l-109 -616h-58l109 616h-229l9 50h516z" />
    <glyph glyph-name="U" unicode="U" horiz-adv-x="704" 
d="M694 666l-77 -433q-21 -115 -103 -179.5t-201 -64.5q-98 0 -160.5 51t-62.5 146q0 27 4 47l77 433h59l-77 -437q-4 -21 -4 -48q0 -142 173 -142q92 0 157 50.5t80 139.5l77 437h58z" />
    <glyph glyph-name="V" unicode="V" horiz-adv-x="583" 
d="M663 666l-383 -666h-43l-147 666h54l126 -587l334 587h59z" />
    <glyph glyph-name="W" unicode="W" horiz-adv-x="864" 
d="M929 666l-312 -666h-48l-71 596l-285 -596h-48l-75 666h51l62 -575l278 575h56l71 -575l264 573z" />
    <glyph glyph-name="X" unicode="X" horiz-adv-x="651" 
d="M706 666l-335 -339l218 -327h-70l-184 291l-289 -291h-71l331 335l-211 331h63l185 -293l292 293h71z" />
    <glyph glyph-name="Y" unicode="Y" horiz-adv-x="592" 
d="M682 666l-339 -395l-48 -271h-59l48 271l-199 395h60l175 -345l293 345h69z" />
    <glyph glyph-name="Z" unicode="Z" horiz-adv-x="638" 
d="M668 666l-9 -51l-565 -566h463l-6 -49h-531l9 51l561 567h-447l9 48h516z" />
    <glyph glyph-name="bracketleft" unicode="[" horiz-adv-x="289" 
d="M369 790l-9 -50h-111l-144 -816h111l-9 -50h-167l162 916h167z" />
    <glyph glyph-name="backslash" unicode="\" horiz-adv-x="459" 
d="M344 -117h-50l-149 793h50z" />
    <glyph glyph-name="bracketright" unicode="]" horiz-adv-x="289" 
d="M294 790l-162 -916h-167l9 50h111l144 816h-111l9 50h167z" />
    <glyph glyph-name="asciicircum" unicode="^" horiz-adv-x="453" 
d="M448 327h-50l-141 273l-141 -273h-51l178 339h27z" />
    <glyph glyph-name="underscore" unicode="_" horiz-adv-x="420" 
d="M430 -11l-6 -33h-434l6 33h434z" />
    <glyph glyph-name="grave" unicode="`" horiz-adv-x="314" 
d="M229 543l-88 121h67l68 -121h-47z" />
    <glyph glyph-name="a" unicode="a" horiz-adv-x="524" 
d="M492 487l-86 -487h-57l26 149q-32 -68 -87.5 -112.5t-118.5 -44.5q-67 0 -98 43.5t-31 118.5q0 80 28.5 156.5t88 131t137.5 54.5q65 0 135 -42l5 33h58zM420 400q-58 45 -122 45q-91 0 -146.5 -88t-55.5 -203q0 -57 19.5 -84.5t63.5 -27.5q76 0 145.5 107t94.5 242
q0 1 0.5 4t0.5 5z" />
    <glyph glyph-name="b" unicode="b" horiz-adv-x="529" 
d="M497 333q0 -80 -28.5 -156.5t-88 -130.5t-137.5 -54q-68 0 -132 51l-9 -43h-57l117 666h57l-57 -328q32 68 87.5 113t118.5 45q66 0 97.5 -44t31.5 -119zM441 333q0 57 -19.5 85t-63.5 28q-76 0 -144 -102.5t-93 -236.5q0 -1 -0.5 -3.5t-0.5 -4.5q19 -23 53.5 -40
t65.5 -17q91 0 146.5 88t55.5 203z" />
    <glyph glyph-name="c" unicode="c" horiz-adv-x="434" 
d="M424 466l-21 -44q-50 24 -108 24q-83 0 -141 -72.5t-58 -191.5q0 -140 127 -140q50 0 116 23l13 -44q-66 -29 -137 -29q-83 0 -129 54.5t-46 139.5q0 133 74.5 221.5t188.5 88.5q69 0 121 -30z" />
    <glyph glyph-name="d" unicode="d" horiz-adv-x="533" 
d="M528 666l-117 -666h-57l26 149q-32 -68 -87.5 -112.5t-118.5 -44.5q-67 0 -98 43.5t-31 118.5q0 80 28.5 156.5t88 131t137.5 54.5q65 0 135 -42l37 212h57zM425 399q-60 47 -122 47q-91 0 -146.5 -88.5t-55.5 -203.5q0 -57 19 -84.5t63 -27.5q76 0 145.5 107t94.5 242
q0 1 1 3.5t1 4.5z" />
    <glyph glyph-name="e" unicode="e" horiz-adv-x="469" 
d="M444 392q0 -150 -341 -169q-5 -86 39.5 -133.5t121.5 -47.5q57 0 127 27l16 -42q-70 -35 -150 -35q-87 0 -149.5 59.5t-62.5 150.5q0 120 72.5 207t187.5 87q66 0 102.5 -30t36.5 -74zM386 388q0 58 -89 58q-70 0 -118 -47.5t-67 -126.5q124 5 199 35.5t75 80.5z" />
    <glyph glyph-name="f" unicode="f" horiz-adv-x="289" 
d="M374 680l-11 -44q-29 8 -61 8q-48 0 -67 -23.5t-28 -76.5l-10 -58h113l-8 -46h-113l-78 -440h-56l78 440h-75l8 46h75l9 55q14 87 50 118.5t104 31.5q37 0 70 -11z" />
    <glyph glyph-name="g" unicode="g" horiz-adv-x="540" 
d="M500 487l-77 -440q-19 -112 -77 -170t-177 -58q-71 0 -149 30l12 42q75 -27 139 -27q91 0 135 43.5t59 131.5l19 110q-38 -65 -90 -103.5t-112 -38.5q-67 0 -100.5 43t-33.5 117q0 80 28.5 153.5t88 124.5t137.5 51q67 0 135 -41l6 32h57zM428 400q-59 46 -122 46
q-92 0 -147 -83t-55 -196q0 -57 19.5 -83.5t63.5 -26.5q75 0 145 101.5t95 233.5q0 1 0.5 3.5t0.5 4.5z" />
    <glyph glyph-name="h" unicode="h" 
d="M503 392q0 -26 -4 -46l-61 -346h-56l60 333q6 34 6 52q0 58 -67 58q-52 0 -99 -37t-79 -93.5t-53 -112t-30 -104.5l-18 -96h-57l118 666h57l-58 -333q40 69 101.5 116t133.5 47q106 0 106 -104z" />
    <glyph glyph-name="i" unicode="i" horiz-adv-x="224" 
d="M187 487l-86 -487h-56l86 487h56zM219 666l-17 -96h-56l17 96h56z" />
    <glyph glyph-name="j" unicode="j" horiz-adv-x="235" 
d="M198 487l-93 -529q-13 -72 -48 -105.5t-99 -33.5q-40 0 -68 13l11 43q29 -9 61 -9q41 0 59.5 21.5t26.5 66.5l94 533h56zM230 666l-17 -97h-56l17 97h56z" />
    <glyph glyph-name="k" unicode="k" horiz-adv-x="463" 
d="M478 487l-296 -239l223 -248h-69l-195 221l-39 -221h-57l118 666h57l-68 -385l252 206h74z" />
    <glyph glyph-name="l" unicode="l" horiz-adv-x="266" 
d="M221 22q-33 -28 -83 -28q-41 0 -64.5 23.5t-23.5 64.5q0 14 3 29l98 555h56l-95 -542q-5 -23 -5 -44t9.5 -29.5t30.5 -8.5q30 0 59 18z" />
    <glyph glyph-name="m" unicode="m" horiz-adv-x="881" 
d="M826 391q0 -25 -4 -45l-61 -346h-56l59 333q6 34 6 52q0 58 -67 58q-50 0 -96 -35t-76.5 -88t-50.5 -106.5t-28 -100.5l-20 -113h-56l59 333q6 34 6 53q0 31 -16.5 44t-49.5 13q-51 0 -98 -37t-78 -93.5t-51.5 -112.5t-28.5 -104l-17 -96h-57l86 487h57l-26 -154
q40 71 98 117t130 46q107 0 107 -105q0 -25 -7 -60q40 71 98.5 118t130.5 47q107 0 107 -105z" />
    <glyph glyph-name="n" unicode="n" 
d="M503 391q0 -25 -4 -45l-61 -346h-56l59 333q6 34 6 53q0 31 -16.5 44t-49.5 13q-52 0 -99.5 -37t-79.5 -93.5t-53 -112.5t-30 -104l-17 -96h-57l86 487h57l-27 -154q40 69 101.5 116t133.5 47q107 0 107 -105z" />
    <glyph glyph-name="o" unicode="o" horiz-adv-x="517" 
d="M482 300q0 -120 -74.5 -214t-187.5 -94q-83 0 -129 54.5t-46 139.5q0 132 76 221t187 89q84 0 129 -54.5t45 -141.5zM426 302q0 68 -31.5 106t-94.5 38q-79 0 -139 -73.5t-60 -191.5q0 -66 31.5 -102.5t95.5 -36.5q83 0 140.5 75t57.5 185z" />
    <glyph glyph-name="p" unicode="p" horiz-adv-x="522" 
d="M487 334q0 -80 -28.5 -156.5t-88 -131t-137.5 -54.5q-67 0 -135 41l-36 -206h-57l116 660h57l-26 -148q32 68 88 112.5t119 44.5q128 0 128 -162zM431 334q0 57 -19 84.5t-63 27.5q-76 0 -145.5 -107.5t-94.5 -242.5q0 -1 -1 -3.5t-1 -4.5q59 -46 122 -46
q91 0 146.5 88.5t55.5 203.5z" />
    <glyph glyph-name="q" unicode="q" horiz-adv-x="529" 
d="M494 487l-116 -660h-57l57 323q-32 -68 -87.5 -113t-118.5 -45q-66 0 -97.5 44t-31.5 119q0 80 28.5 156.5t88 130.5t137.5 54q67 0 132 -52l8 43h57zM420 389q-19 23 -53.5 40t-65.5 17q-91 0 -146.5 -88t-55.5 -203q0 -57 19.5 -85t63.5 -28q76 0 144 102.5t93 236.5
q0 1 0.5 3.5t0.5 4.5z" />
    <glyph glyph-name="r" unicode="r" horiz-adv-x="341" 
d="M361 495l-8 -51q-71 -8 -139.5 -109.5t-93.5 -238.5l-18 -96h-57l86 487h57l-28 -157q77 149 201 165z" />
    <glyph glyph-name="s" unicode="s" horiz-adv-x="436" 
d="M404 471l-11 -44q-71 19 -132 19q-29 0 -47 -2t-37.5 -8t-29 -21t-9.5 -39q0 -10 1.5 -18t6.5 -16t8.5 -13t15.5 -14t18.5 -13.5t25 -17t28.5 -19.5q87 -60 107 -82q22 -26 22 -56q0 -63 -51.5 -99t-130.5 -36q-36 0 -84.5 12.5t-84.5 33.5l18 44q88 -40 157 -40
q55 0 88.5 21.5t33.5 60.5q0 22 -20 40t-75 54q-11 7 -17 11q-61 39 -91 72t-30 74q0 65 46 93t136 28q71 0 138 -25z" />
    <glyph glyph-name="t" unicode="t" horiz-adv-x="318" 
d="M303 487l-9 -51h-100l-58 -329q-7 -38 2 -53.5t34 -15.5q40 0 84 22l16 -38q-50 -30 -106 -30q-107 0 -83 135l54 309h-67l9 51h67l25 138h57l-25 -138h100z" />
    <glyph glyph-name="u" unicode="u" 
d="M513 487l-86 -487h-57l26 155q-40 -69 -101.5 -116t-133.5 -47q-106 0 -106 104q0 26 4 46l61 345h56l-60 -332q-6 -34 -6 -52q0 -58 67 -58q42 0 81 25t68 63.5t52.5 86.5t38 91.5t21.5 80.5l18 95h57z" />
    <glyph glyph-name="v" unicode="v" horiz-adv-x="441" 
d="M476 487l-271 -487h-56l-104 487h57l83 -429l234 429h57z" />
    <glyph glyph-name="w" unicode="w" horiz-adv-x="662" 
d="M692 487l-229 -487h-52l-49 416l-194 -416h-52l-66 487h50l51 -418l196 418h54l49 -410l183 410h59z" />
    <glyph glyph-name="x" unicode="x" horiz-adv-x="479" 
d="M504 487l-231 -244l146 -243h-60l-121 205l-194 -205h-69l238 249l-140 238h58l119 -203l191 203h63z" />
    <glyph glyph-name="y" unicode="y" horiz-adv-x="454" 
d="M484 487l-377 -660h-54l100 173l-113 487h54l93 -428l238 428h59z" />
    <glyph glyph-name="z" unicode="z" horiz-adv-x="487" 
d="M472 487l-9 -51l-377 -388h319l-9 -48h-381l9 51l377 390h-299l9 46h361z" />
    <glyph glyph-name="braceleft" unicode="{" horiz-adv-x="270" 
d="M360 790l-8 -44h-14h-14t-12 -0.5t-12 -1.5t-9.5 -3t-10 -5t-7.5 -7t-7 -9.5t-4.5 -12.5t-4.5 -16l-51 -286q-15 -80 -94 -80v-2q68 0 68 -57q0 -8 -2 -24l-51 -286q-1 -5 -1 -15q0 -12 4 -20t8 -12t15 -6t15.5 -2.5t18.5 0t17 0.5l-8 -44h-39q-40 0 -63.5 20.5
t-23.5 59.5q0 9 2 25l51 287q2 10 2 16q0 24 -12 29.5t-39 5.5l8 48q32 0 46.5 10t20.5 41l51 287q8 48 40 76t81 28h39z" />
    <glyph glyph-name="bar" unicode="|" horiz-adv-x="268" 
d="M188 800v-1000h-48v1000h48z" />
    <glyph glyph-name="braceright" unicode="}" horiz-adv-x="270" 
d="M195 383q0 -24 12 -29.5t39 -5.5l-8 -48q-32 0 -46.5 -10t-20.5 -41l-51 -287q-8 -49 -40 -77t-81 -28h-39l8 44h14h14t12 0.5t12 1.5t9.5 3t10 5t7.5 7t7 9.5t4.5 12.5t4.5 16l51 286q15 81 94 81v2q-68 0 -68 56q0 8 2 24l51 286q1 5 1 15q0 12 -4 20t-8 12t-15 6
t-15.5 2.5t-18.5 0t-17 -0.5l8 44h39q40 0 63.5 -20t23.5 -59q0 -9 -2 -25l-51 -287q-2 -10 -2 -16z" />
    <glyph glyph-name="asciitilde" unicode="~" horiz-adv-x="505" 
d="M495 287q-67 -112 -149 -112q-27 0 -51 11.5t-39 26t-35 26t-39 11.5q-20 0 -41 -15t-32.5 -29.5t-26.5 -37.5l-37 23q66 111 148 111q27 0 51 -12t39 -26.5t35 -26.5t39 -12q22 0 43 15t32 29.5t26 38.5z" />
    <glyph glyph-name="exclamdown" unicode="&#xa1;" horiz-adv-x="268" 
d="M197 510l-39 -310l-36 -200h-57l36 200l69 310h27zM248 666l-17 -92h-73l17 92h73z" />
    <glyph glyph-name="cent" unicode="&#xa2;" horiz-adv-x="450" 
d="M440 480l-14 -46q-44 12 -93 12q-16 0 -23 -1l-71 -403h18q58 0 118 25l15 -43q-64 -32 -139 -32q-3 0 -10 0.5t-11 0.5l-14 -81h-22l15 83q-79 12 -124 66t-45 133q0 119 70 203t187 97l14 82h22l-14 -80h16q60 0 105 -16zM287 442q-89 -15 -140 -83.5t-51 -162.5
q0 -132 121 -151z" />
    <glyph glyph-name="sterling" unicode="&#xa3;" horiz-adv-x="630" 
d="M625 647l-15 -45q-92 24 -166 24q-100 0 -157.5 -38.5t-57.5 -113.5q0 -42 31 -144h215l-9 -48h-204q1 -106 -79 -232h358l-9 -50h-472l9 50h56q88 121 81 232h-102l9 48h90q-30 87 -30 129q0 105 72 161t191 56q111 0 189 -29z" />
    <glyph glyph-name="currency" unicode="&#xa4;" horiz-adv-x="713" 
d="M728 651l-13 -46q-81 21 -152 21q-107 0 -195 -54.5t-133 -150.5h214l-7 -40h-223q-17 -50 -18 -99h223l-7 -40h-214q12 -99 82.5 -151t173.5 -52q74 0 148 17l9 -44q-81 -23 -163 -23q-123 0 -210 67t-99 186h-114l7 40h106q1 49 17 99h-105l7 40h114q53 119 157 187
t242 68q83 0 153 -25z" />
    <glyph glyph-name="yen" unicode="&#xa5;" horiz-adv-x="593" 
d="M683 666l-251 -292h113l-7 -42h-142l-53 -61l-8 -47h184l-8 -42h-184l-32 -182h-58l32 182h-183l8 42h183l8 47l-30 61h-142l7 42h113l-148 292h62l177 -341l294 341h65z" />
    <glyph glyph-name="brokenbar" unicode="&#xa6;" horiz-adv-x="268" 
d="M188 800v-424h-48v424h48zM188 224v-424h-48v424h48z" />
    <glyph glyph-name="section" unicode="&#xa7;" horiz-adv-x="564" 
d="M529 651l-15 -53q-78 20 -155 20q-152 0 -152 -98q0 -29 29 -52t70.5 -40.5t83 -36.5t70.5 -48.5t29 -67.5q0 -54 -36.5 -98.5t-90.5 -74.5q38 -22 58.5 -45t20.5 -58q0 -47 -22 -82.5t-58 -56t-77 -30.5t-85 -10q-101 0 -189 53l21 49q88 -44 176 -44q41 0 75.5 8
t63.5 34t29 67q0 26 -29 47.5t-70.5 38.5t-83.5 36t-71 50.5t-29 73.5q0 107 125 165q-76 45 -76 111q0 167 224 167q83 0 164 -25zM424 264q0 15 -10.5 29.5t-32.5 27.5t-36 20t-41.5 18t-29.5 12q-48 -18 -82 -50t-34 -76q0 -17 9.5 -32t30.5 -28.5t35 -20.5t41.5 -19
t30.5 -13q44 15 81.5 52.5t37.5 79.5z" />
    <glyph glyph-name="dieresis" unicode="&#xa8;" horiz-adv-x="399" 
d="M313 564l14 79h60l-14 -79h-60zM123 564l14 79h60l-14 -79h-60z" />
    <glyph glyph-name="copyright" unicode="&#xa9;" horiz-adv-x="770" 
d="M750 333q0 -142 -100.5 -243t-242.5 -101t-242 101t-100 243t100.5 242.5t242.5 100.5t242 -100.5t100 -242.5zM723 333q0 130 -91 223t-224 93t-224.5 -93t-91.5 -223t91 -223.5t224 -93.5t224.5 93.5t91.5 223.5zM511 496l-4 -23q-40 9 -76 9q-67 0 -110.5 -41
t-43.5 -107t43 -106.5t111 -40.5q45 0 76 8l4 -22q-36 -10 -79 -10q-79 0 -131 49t-52 122t52 123t131 50q42 0 79 -11z" />
    <glyph glyph-name="ordfeminine" unicode="&#xaa;" horiz-adv-x="377" 
d="M392 671l-57 -326h-38l17 100q-22 -45 -59 -75t-79 -30q-86 0 -86 108q0 54 19 105t59 87t92 36q45 0 90 -27l4 22h38zM344 612q-40 31 -82 31q-61 0 -97.5 -59t-36.5 -136q0 -75 55 -75q51 0 97 71.5t63 162.5l1 1v4z" />
    <glyph glyph-name="guillemotleft" unicode="&#xab;" horiz-adv-x="577" 
d="M351 459l-240 -215l164 -215l-36 -29l-184 244l270 243zM532 459l-240 -215l164 -215l-35 -29l-185 244l270 243z" />
    <glyph glyph-name="logicalnot" unicode="&#xac;" horiz-adv-x="532" 
d="M432 262v-262h-48v223h-314v39h362z" />
    <glyph glyph-name="registered" unicode="&#xae;" horiz-adv-x="770" 
d="M750 333q0 -142 -100.5 -243t-242.5 -101t-242 101t-100 243t100 242.5t242 100.5t242.5 -100.5t100.5 -242.5zM723 333q0 130 -91.5 223t-224.5 93t-224 -93t-91 -223t91 -223.5t224 -93.5t224.5 93.5t91.5 223.5zM537 408q0 -32 -20 -57t-56 -33l109 -148h-30l-108 145
h-118v-145h-29v333h151q46 0 73.5 -28t27.5 -67zM508 408q0 31 -21 50.5t-51 19.5h-122v-140h122q34 0 53 19t19 51z" />
    <glyph glyph-name="macron" unicode="&#xaf;" horiz-adv-x="419" 
d="M122 584l8 43h272l-7 -43h-273z" />
    <glyph glyph-name="degree" unicode="&#xb0;" horiz-adv-x="328" 
d="M200 459q-39 0 -64.5 25.5t-25.5 64.5q0 50 39 88.5t89 38.5q39 0 64.5 -25t25.5 -64q0 -50 -39 -89t-89 -39zM311 584q0 34 -21 56.5t-54 22.5q-42 0 -75.5 -34.5t-33.5 -76.5q0 -34 21 -56.5t54 -22.5q42 0 75.5 34.5t33.5 76.5z" />
    <glyph glyph-name="plusminus" unicode="&#xb1;" horiz-adv-x="595" 
d="M550 261v-45h-214v-172h214v-44h-475v44h213v172h-213v45h213v216h48v-216h214z" />
    <glyph glyph-name="twosuperior" unicode="&#xb2;" horiz-adv-x="664" 
d="M664 334h-165v165h165v-165zM331 334h-165v165h165v-165zM331 0h-165v165h165v-165zM664 0h-165v165h165v-165zM497 168h-164v164h164v-164zM497 502h-164v164h164v-164zM164 502h-164v164h164v-164zM164 168h-164v164h164v-164z" />
    <glyph glyph-name="threesuperior" unicode="&#xb3;" horiz-adv-x="664" 
d="M664 334h-165v165h165v-165zM331 334h-165v165h165v-165zM331 0h-165v165h165v-165zM664 0h-165v165h165v-165zM497 168h-164v164h164v-164zM497 502h-164v164h164v-164zM164 502h-164v164h164v-164zM164 168h-164v164h164v-164z" />
    <glyph glyph-name="acute" unicode="&#xb4;" horiz-adv-x="312" 
d="M120 543l108 121h79l-130 -121h-57z" />
    <glyph glyph-name="mu" unicode="&#xb5;" horiz-adv-x="610" 
d="M565 487l-86 -486h-56l17 94q-78 -102 -190 -102q-66 0 -103 33l-35 -199h-57l116 660h57l-56 -319q-4 -26 -4 -39q0 -84 99 -84q75 0 130 59t69 136l43 247h56z" />
    <glyph glyph-name="paragraph" unicode="&#xb6;" horiz-adv-x="411" 
d="M391 666l-118 -666h-41l112 633h-79l-112 -633h-42l73 415q-45 0 -74.5 29.5t-29.5 74.5q0 58 45 102.5t103 44.5h163z" />
    <glyph glyph-name="periodcentered" unicode="&#xb7;" horiz-adv-x="234" 
d="M169 374l-16 -94h-73l16 94h73z" />
    <glyph glyph-name="cedilla" unicode="&#xb8;" horiz-adv-x="308" 
d="M21 -167l10 32q28 -11 57 -11q57 0 57 32q0 29 -40 29q-32 0 -52 -4l40 89h35l-24 -53q10 2 21 2q29 0 47.5 -16.5t18.5 -43.5q0 -34 -26.5 -52t-68.5 -18t-75 14z" />
    <glyph glyph-name="onesuperior" unicode="&#xb9;" horiz-adv-x="664" 
d="M664 334h-165v165h165v-165zM331 334h-165v165h165v-165zM331 0h-165v165h165v-165zM664 0h-165v165h165v-165zM497 168h-164v164h164v-164zM497 502h-164v164h164v-164zM164 502h-164v164h164v-164zM164 168h-164v164h164v-164z" />
    <glyph glyph-name="ordmasculine" unicode="&#xba;" horiz-adv-x="372" 
d="M392 545q0 -80 -50 -143t-126 -63q-55 0 -85.5 36.5t-30.5 93.5q0 88 50.5 147.5t124.5 59.5q56 0 86.5 -37t30.5 -94zM355 546q0 45 -21.5 71t-63.5 26q-53 0 -93 -49t-40 -128q0 -93 85 -93q55 0 94 49.5t39 123.5z" />
    <glyph glyph-name="guillemotright" unicode="&#xbb;" horiz-adv-x="577" 
d="M537 244l-270 -244l-26 29l240 215l-164 215l36 28zM356 244l-271 -244l-25 29l240 215l-164 215l36 28z" />
    <glyph glyph-name="onequarter" unicode="&#xbc;" horiz-adv-x="664" 
d="M664 334h-165v165h165v-165zM331 334h-165v165h165v-165zM331 0h-165v165h165v-165zM664 0h-165v165h165v-165zM497 168h-164v164h164v-164zM497 502h-164v164h164v-164zM164 502h-164v164h164v-164zM164 168h-164v164h164v-164z" />
    <glyph glyph-name="onehalf" unicode="&#xbd;" horiz-adv-x="664" 
d="M664 334h-165v165h165v-165zM331 334h-165v165h165v-165zM331 0h-165v165h165v-165zM664 0h-165v165h165v-165zM497 168h-164v164h164v-164zM497 502h-164v164h164v-164zM164 502h-164v164h164v-164zM164 168h-164v164h164v-164z" />
    <glyph glyph-name="threequarters" unicode="&#xbe;" horiz-adv-x="664" 
d="M664 334h-165v165h165v-165zM331 334h-165v165h165v-165zM331 0h-165v165h165v-165zM664 0h-165v165h165v-165zM497 168h-164v164h164v-164zM497 502h-164v164h164v-164zM164 502h-164v164h164v-164zM164 168h-164v164h164v-164z" />
    <glyph glyph-name="questiondown" unicode="&#xbf;" horiz-adv-x="500" 
d="M410 15q-102 -25 -199 -25q-166 0 -166 114q0 33 15 72t31 66.5t53 72t52.5 61t61 62.5t47.5 48l29 -28q-5 -6 -51 -53.5t-66 -71t-52.5 -66.5t-47 -79.5t-14.5 -70.5q0 -77 123 -77q82 0 182 20zM392 666l-16 -91h-73l16 91h73z" />
    <glyph glyph-name="Agrave" unicode="&#xc0;" horiz-adv-x="635" 
d="M580 0h-56l-41 187h-329l-107 -187h-61l394 666h42zM472 234l-81 366l-208 -366h289zM367 722l-88 121h67l68 -121h-47z" />
    <glyph glyph-name="Aacute" unicode="&#xc1;" horiz-adv-x="635" 
d="M580 0h-56l-41 187h-329l-107 -187h-61l394 666h42zM472 234l-81 366l-208 -366h289zM385 722l108 121h79l-130 -121h-57z" />
    <glyph glyph-name="Acircumflex" unicode="&#xc2;" horiz-adv-x="635" 
d="M580 0h-56l-41 187h-329l-107 -187h-61l394 666h42zM472 234l-81 366l-208 -366h289zM274 722l128 121h47l85 -121h-51l-60 87l-93 -87h-56z" />
    <glyph glyph-name="Atilde" unicode="&#xc3;" horiz-adv-x="635" 
d="M580 0h-56l-41 187h-329l-107 -187h-61l394 666h42zM472 234l-81 366l-208 -366h289zM249 744q28 89 89 89q29 0 79 -28q49 -28 62 -28t22.5 8.5t13.5 17t15 33.5l36 -13q-15 -43 -34.5 -66t-50.5 -23q-22 0 -79 31q-4 2 -13 7.5t-13.5 7.5t-11.5 5t-13 4t-13 1
q-19 0 -30 -13t-24 -46z" />
    <glyph glyph-name="Adieresis" unicode="&#xc4;" horiz-adv-x="635" 
d="M580 0h-56l-41 187h-329l-107 -187h-61l394 666h42zM472 234l-81 366l-208 -366h289zM481 743l14 79h60l-14 -79h-60zM291 743l14 79h60l-14 -79h-60z" />
    <glyph glyph-name="Aring" unicode="&#xc5;" horiz-adv-x="635" 
d="M400 666q26 0 40.5 15t14.5 36q0 17 -11 28.5t-29 11.5q-25 0 -40 -14.5t-15 -37.5q0 -17 10.5 -28t29.5 -11zM472 234l-81 366l-208 -366h289zM154 187l-107 -187h-61l382 646q-37 16 -37 58q0 34 23 56.5t63 22.5q28 0 47 -18t19 -45q0 -58 -56 -76l153 -644h-56
l-41 187h-329z" />
    <glyph glyph-name="AE" unicode="&#xc6;" horiz-adv-x="849" 
d="M427 234l-38 363l-209 -363h247zM859 666l-9 -50h-418l29 -246h321l-9 -50h-306l30 -270h253l-9 -50h-289l-20 187h-281l-107 -187h-59l395 666h479z" />
    <glyph glyph-name="Ccedilla" unicode="&#xc7;" horiz-adv-x="630" 
d="M335 -181q-42 0 -75 14l10 32q28 -11 57 -11q57 0 57 32q0 29 -40 29q-32 0 -52 -4l36 80q-116 13 -192 89t-76 193q0 35 5 60q29 163 144 253t283 90q80 0 153 -21l-15 -46q-76 17 -149 17q-154 0 -258 -100t-104 -253q0 -112 72 -173t186 -61q77 0 150 18l6 -45
q-81 -23 -163 -23h-8l-19 -42q10 2 21 2q29 0 47.5 -16.5t18.5 -43.5q0 -34 -26.5 -52t-68.5 -18z" />
    <glyph glyph-name="Egrave" unicode="&#xc8;" horiz-adv-x="610" 
d="M620 666l-9 -50h-383l-43 -246h358l-9 -50h-358l-48 -270h383l-9 -50h-442l118 666h442zM371 722l-88 121h67l68 -121h-47z" />
    <glyph glyph-name="Eacute" unicode="&#xc9;" horiz-adv-x="610" 
d="M620 666l-9 -50h-383l-43 -246h358l-9 -50h-358l-48 -270h383l-9 -50h-442l118 666h442zM369 722l108 121h79l-130 -121h-57z" />
    <glyph glyph-name="Ecircumflex" unicode="&#xca;" horiz-adv-x="610" 
d="M620 666l-9 -50h-383l-43 -246h358l-9 -50h-358l-48 -270h383l-9 -50h-442l118 666h442zM278 722l128 121h47l85 -121h-51l-60 87l-93 -87h-56z" />
    <glyph glyph-name="Edieresis" unicode="&#xcb;" horiz-adv-x="610" 
d="M620 666l-9 -50h-383l-43 -246h358l-9 -50h-358l-48 -270h383l-9 -50h-442l118 666h442zM485 743l14 79h60l-14 -79h-60zM295 743l14 79h60l-14 -79h-60z" />
    <glyph glyph-name="Igrave" unicode="&#xcc;" horiz-adv-x="266" 
d="M241 666l-118 -666h-58l118 666h58zM187 722l-88 121h67l68 -121h-47z" />
    <glyph glyph-name="Iacute" unicode="&#xcd;" horiz-adv-x="266" 
d="M241 666l-118 -666h-58l118 666h58zM191 722l108 121h79l-130 -121h-57z" />
    <glyph glyph-name="Icircumflex" unicode="&#xce;" horiz-adv-x="266" 
d="M241 666l-118 -666h-58l118 666h58zM88 722l128 121h47l85 -121h-51l-60 87l-93 -87h-56z" />
    <glyph glyph-name="Idieresis" unicode="&#xcf;" horiz-adv-x="266" 
d="M241 666l-118 -666h-58l118 666h58zM290 743l14 79h60l-14 -79h-60zM100 743l14 79h60l-14 -79h-60z" />
    <glyph glyph-name="Eth" unicode="&#xd0;" horiz-adv-x="683" 
d="M219 0h-133l56 311h-87l8 47h87l55 308h132q86 0 161 -30.5t125 -96t50 -153.5q0 -30 -4 -53q-19 -106 -87 -183t-161.5 -113.5t-201.5 -36.5zM154 50h83q148 0 262.5 93.5t114.5 238.5q0 74 -40.5 128.5t-102.5 80t-134 25.5h-83l-46 -258h162l-8 -47h-162z" />
    <glyph glyph-name="Ntilde" unicode="&#xd1;" horiz-adv-x="727" 
d="M707 666l-118 -666h-57l-314 577l-102 -577h-56l118 666h56l314 -576l102 576h57zM300 744q28 89 89 89q29 0 79 -28q49 -28 62 -28t22.5 8.5t13.5 17t15 33.5l36 -13q-15 -43 -34.5 -66t-50.5 -23q-22 0 -79 31q-4 2 -13 7.5t-13.5 7.5t-11.5 5t-13 4t-13 1
q-19 0 -30 -13t-24 -46z" />
    <glyph glyph-name="Ograve" unicode="&#xd2;" horiz-adv-x="719" 
d="M641 398q0 100 -55.5 164t-153.5 64q-92 0 -165.5 -55.5t-111 -138.5t-37.5 -173q0 -102 54.5 -161t155.5 -59q88 0 161.5 54.5t112.5 136.5t39 168zM699 403q0 -105 -48.5 -199.5t-137 -154.5t-194.5 -60q-118 0 -188.5 77t-70.5 196q0 106 48.5 200.5t137 154
t195.5 59.5q118 0 188 -76.5t70 -196.5zM405 722l-88 121h67l68 -121h-47z" />
    <glyph glyph-name="Oacute" unicode="&#xd3;" horiz-adv-x="719" 
d="M641 398q0 100 -55.5 164t-153.5 64q-92 0 -165.5 -55.5t-111 -138.5t-37.5 -173q0 -102 54.5 -161t155.5 -59q88 0 161.5 54.5t112.5 136.5t39 168zM699 403q0 -105 -48.5 -199.5t-137 -154.5t-194.5 -60q-118 0 -188.5 77t-70.5 196q0 106 48.5 200.5t137 154
t195.5 59.5q118 0 188 -76.5t70 -196.5zM423 722l108 121h79l-130 -121h-57z" />
    <glyph glyph-name="Ocircumflex" unicode="&#xd4;" horiz-adv-x="719" 
d="M641 398q0 100 -55.5 164t-153.5 64q-92 0 -165.5 -55.5t-111 -138.5t-37.5 -173q0 -102 54.5 -161t155.5 -59q88 0 161.5 54.5t112.5 136.5t39 168zM699 403q0 -105 -48.5 -199.5t-137 -154.5t-194.5 -60q-118 0 -188.5 77t-70.5 196q0 106 48.5 200.5t137 154
t195.5 59.5q118 0 188 -76.5t70 -196.5zM312 722l128 121h47l85 -121h-51l-60 87l-93 -87h-56z" />
    <glyph glyph-name="Otilde" unicode="&#xd5;" horiz-adv-x="719" 
d="M641 398q0 100 -55.5 164t-153.5 64q-92 0 -165.5 -55.5t-111 -138.5t-37.5 -173q0 -102 54.5 -161t155.5 -59q88 0 161.5 54.5t112.5 136.5t39 168zM699 403q0 -105 -48.5 -199.5t-137 -154.5t-194.5 -60q-118 0 -188.5 77t-70.5 196q0 106 48.5 200.5t137 154
t195.5 59.5q118 0 188 -76.5t70 -196.5zM300 744q28 89 89 89q29 0 79 -28q49 -28 62 -28t22.5 8.5t13.5 17t15 33.5l36 -13q-15 -43 -34.5 -66t-50.5 -23q-22 0 -79 31q-4 2 -13 7.5t-13.5 7.5t-11.5 5t-13 4t-13 1q-19 0 -30 -13t-24 -46z" />
    <glyph glyph-name="Odieresis" unicode="&#xd6;" horiz-adv-x="719" 
d="M641 398q0 100 -55.5 164t-153.5 64q-92 0 -165.5 -55.5t-111 -138.5t-37.5 -173q0 -102 54.5 -161t155.5 -59q88 0 161.5 54.5t112.5 136.5t39 168zM699 403q0 -105 -48.5 -199.5t-137 -154.5t-194.5 -60q-118 0 -188.5 77t-70.5 196q0 106 48.5 200.5t137 154
t195.5 59.5q118 0 188 -76.5t70 -196.5zM519 743l14 79h60l-14 -79h-60zM329 743l14 79h60l-14 -79h-60z" />
    <glyph glyph-name="multiply" unicode="&#xd7;" horiz-adv-x="471" 
d="M436 372l-151 -152l151 -152l-34 -34l-151 152l-151 -152l-35 34l151 152l-151 152l35 35l151 -152l151 152z" />
    <glyph glyph-name="Oslash" unicode="&#xd8;" horiz-adv-x="819" 
d="M643 552q-58 74 -162 74q-89 0 -162.5 -53.5t-112 -135t-38.5 -169.5q0 -72 30 -128zM690 399q0 70 -29 125l-445 -411q58 -74 161 -74q87 0 160.5 55t113 137.5t39.5 167.5zM799 652l-94 -87q44 -68 44 -163q0 -164 -110 -288.5t-271 -124.5q-122 0 -195 85l-92 -85
l-21 24l94 86q-44 70 -44 164q0 167 108 290t272 123q123 0 196 -85l91 84z" />
    <glyph glyph-name="Ugrave" unicode="&#xd9;" horiz-adv-x="704" 
d="M694 666l-77 -433q-21 -115 -103 -179.5t-201 -64.5q-98 0 -160.5 51t-62.5 146q0 27 4 47l77 433h59l-77 -437q-4 -21 -4 -48q0 -142 173 -142q92 0 157 50.5t80 139.5l77 437h58zM409 722l-88 121h67l68 -121h-47z" />
    <glyph glyph-name="Uacute" unicode="&#xda;" horiz-adv-x="704" 
d="M694 666l-77 -433q-21 -115 -103 -179.5t-201 -64.5q-98 0 -160.5 51t-62.5 146q0 27 4 47l77 433h59l-77 -437q-4 -21 -4 -48q0 -142 173 -142q92 0 157 50.5t80 139.5l77 437h58zM388 722l108 121h79l-130 -121h-57z" />
    <glyph glyph-name="Ucircumflex" unicode="&#xdb;" horiz-adv-x="704" 
d="M694 666l-77 -433q-21 -115 -103 -179.5t-201 -64.5q-98 0 -160.5 51t-62.5 146q0 27 4 47l77 433h59l-77 -437q-4 -21 -4 -48q0 -142 173 -142q92 0 157 50.5t80 139.5l77 437h58zM309 722l128 121h47l85 -121h-51l-60 87l-93 -87h-56z" />
    <glyph glyph-name="Udieresis" unicode="&#xdc;" horiz-adv-x="704" 
d="M694 666l-77 -433q-21 -115 -103 -179.5t-201 -64.5q-98 0 -160.5 51t-62.5 146q0 27 4 47l77 433h59l-77 -437q-4 -21 -4 -48q0 -142 173 -142q92 0 157 50.5t80 139.5l77 437h58zM510 743l14 79h60l-14 -79h-60zM320 743l14 79h60l-14 -79h-60z" />
    <glyph glyph-name="Yacute" unicode="&#xdd;" horiz-adv-x="592" 
d="M682 666l-339 -395l-48 -271h-59l48 271l-199 395h60l175 -345l293 345h69zM340 722l108 121h79l-130 -121h-57z" />
    <glyph glyph-name="Thorn" unicode="&#xde;" horiz-adv-x="625" 
d="M147 158l-28 -158h-59l118 666h59l-25 -139h242q74 0 122.5 -40t48.5 -112q0 -17 -3 -34q-15 -83 -80 -133t-153 -50h-242zM566 367q0 51 -34.5 80t-86.5 29h-242l-47 -269h242q66 0 117 45t51 115z" />
    <glyph glyph-name="germandbls" unicode="&#xdf;" horiz-adv-x="602" 
d="M547 149q0 -75 -56.5 -116t-134.5 -41q-74 0 -136 32l17 44q62 -28 127 -28q53 0 89.5 25t36.5 76q0 31 -27 54.5t-59.5 36.5t-59.5 38.5t-27 60.5q0 31 15 56t36.5 43t43 35.5t36.5 42.5t15 55q0 39 -29.5 59.5t-69.5 20.5q-53 0 -89.5 -31t-45.5 -83l-93 -529h-56
l77 440h-75l8 46h75q19 103 64.5 154t143.5 51q60 0 103 -32t43 -90q0 -44 -22.5 -79.5t-50 -55.5t-50 -45.5t-22.5 -50.5q0 -20 27 -39t59.5 -33.5t59.5 -45t27 -71.5z" />
    <glyph glyph-name="agrave" unicode="&#xe0;" horiz-adv-x="524" 
d="M492 487l-86 -487h-57l26 149q-32 -68 -87.5 -112.5t-118.5 -44.5q-67 0 -98 43.5t-31 118.5q0 80 28.5 156.5t88 131t137.5 54.5q65 0 135 -42l5 33h58zM420 400q-58 45 -122 45q-91 0 -146.5 -88t-55.5 -203q0 -57 19.5 -84.5t63.5 -27.5q76 0 145.5 107t94.5 242
q0 1 0.5 4t0.5 5zM292 543l-88 121h67l68 -121h-47z" />
    <glyph glyph-name="aacute" unicode="&#xe1;" horiz-adv-x="524" 
d="M492 487l-86 -487h-57l26 149q-32 -68 -87.5 -112.5t-118.5 -44.5q-67 0 -98 43.5t-31 118.5q0 80 28.5 156.5t88 131t137.5 54.5q65 0 135 -42l5 33h58zM420 400q-58 45 -122 45q-91 0 -146.5 -88t-55.5 -203q0 -57 19.5 -84.5t63.5 -27.5q76 0 145.5 107t94.5 242
q0 1 0.5 4t0.5 5zM304 543l108 121h79l-130 -121h-57z" />
    <glyph glyph-name="acircumflex" unicode="&#xe2;" horiz-adv-x="524" 
d="M492 487l-86 -487h-57l26 149q-32 -68 -87.5 -112.5t-118.5 -44.5q-67 0 -98 43.5t-31 118.5q0 80 28.5 156.5t88 131t137.5 54.5q65 0 135 -42l5 33h58zM420 400q-58 45 -122 45q-91 0 -146.5 -88t-55.5 -203q0 -57 19.5 -84.5t63.5 -27.5q76 0 145.5 107t94.5 242
q0 1 0.5 4t0.5 5zM206 543l128 121h47l85 -121h-51l-60 87l-93 -87h-56z" />
    <glyph glyph-name="atilde" unicode="&#xe3;" horiz-adv-x="524" 
d="M492 487l-86 -487h-57l26 149q-32 -68 -87.5 -112.5t-118.5 -44.5q-67 0 -98 43.5t-31 118.5q0 80 28.5 156.5t88 131t137.5 54.5q65 0 135 -42l5 33h58zM420 400q-58 45 -122 45q-91 0 -146.5 -88t-55.5 -203q0 -57 19.5 -84.5t63.5 -27.5q76 0 145.5 107t94.5 242
q0 1 0.5 4t0.5 5zM180 565q28 89 89 89q29 0 79 -28q49 -28 62 -28t22.5 8.5t13.5 17t15 33.5l36 -13q-15 -43 -34.5 -66t-50.5 -23q-22 0 -79 31q-4 2 -13 7.5t-13.5 7.5t-11.5 5t-13 4t-13 1q-19 0 -30 -13t-24 -46z" />
    <glyph glyph-name="adieresis" unicode="&#xe4;" horiz-adv-x="524" 
d="M492 487l-86 -487h-57l26 149q-32 -68 -87.5 -112.5t-118.5 -44.5q-67 0 -98 43.5t-31 118.5q0 80 28.5 156.5t88 131t137.5 54.5q65 0 135 -42l5 33h58zM420 400q-58 45 -122 45q-91 0 -146.5 -88t-55.5 -203q0 -57 19.5 -84.5t63.5 -27.5q76 0 145.5 107t94.5 242
q0 1 0.5 4t0.5 5zM406 564l14 79h60l-14 -79h-60zM216 564l14 79h60l-14 -79h-60z" />
    <glyph glyph-name="aring" unicode="&#xe5;" horiz-adv-x="524" 
d="M492 487l-86 -487h-57l26 149q-32 -68 -87.5 -112.5t-118.5 -44.5q-67 0 -98 43.5t-31 118.5q0 80 28.5 156.5t88 131t137.5 54.5q65 0 135 -42l5 33h58zM420 400q-58 45 -122 45q-91 0 -146.5 -88t-55.5 -203q0 -57 19.5 -84.5t63.5 -27.5q76 0 145.5 107t94.5 242
q0 1 0.5 4t0.5 5zM342 543q-30 0 -48.5 18t-18.5 46q0 34 23 56.5t63 22.5q28 0 47 -18t19 -45q0 -35 -23.5 -57.5t-61.5 -22.5zM344 569q26 0 40.5 15t14.5 36q0 17 -11 28.5t-29 11.5q-25 0 -40 -15t-15 -37q0 -17 10.5 -28t29.5 -11z" />
    <glyph glyph-name="ae" unicode="&#xe6;" horiz-adv-x="817" 
d="M792 391q0 -71 -91 -114t-263 -54q-5 -86 40.5 -133.5t120.5 -47.5q69 0 142 28l13 -43q-75 -35 -162 -35q-62 0 -113 31t-77 84q-29 -51 -85 -83t-132 -32q-62 0 -103.5 33.5t-41.5 89.5q0 73 47.5 115t134.5 42h165l10 57q10 55 -18 86t-104 31q-55 0 -149 -15l-4 46
q76 19 163 19q141 0 167 -93q78 93 200 93q66 0 103 -30.5t37 -74.5zM378 222h-161q-123 0 -123 -106q0 -36 26.5 -55t71.5 -19q74 0 122 38t58 105zM733 387q0 25 -21.5 42t-67.5 17q-71 0 -125 -48.5t-72 -125.5q127 5 206.5 36t79.5 79z" />
    <glyph glyph-name="ccedilla" unicode="&#xe7;" horiz-adv-x="434" 
d="M191 -181q-42 0 -75 14l10 32q28 -11 57 -11q57 0 57 32q0 29 -40 29q-32 0 -52 -4l37 83q-69 10 -107 62.5t-38 129.5q0 133 74.5 221.5t188.5 88.5q69 0 121 -30l-21 -44q-50 24 -108 24q-83 0 -141 -72.5t-58 -191.5q0 -140 127 -140q50 0 116 23l13 -44
q-66 -29 -133 -29l-20 -45q10 2 21 2q29 0 47.5 -16.5t18.5 -43.5q0 -34 -26.5 -52t-68.5 -18z" />
    <glyph glyph-name="egrave" unicode="&#xe8;" horiz-adv-x="469" 
d="M444 392q0 -150 -341 -169q-5 -86 39.5 -133.5t121.5 -47.5q57 0 127 27l16 -42q-70 -35 -150 -35q-87 0 -149.5 59.5t-62.5 150.5q0 120 72.5 207t187.5 87q66 0 102.5 -30t36.5 -74zM386 388q0 58 -89 58q-70 0 -118 -47.5t-67 -126.5q124 5 199 35.5t75 80.5zM264 543
l-88 121h67l68 -121h-47z" />
    <glyph glyph-name="eacute" unicode="&#xe9;" horiz-adv-x="469" 
d="M444 392q0 -150 -341 -169q-5 -86 39.5 -133.5t121.5 -47.5q57 0 127 27l16 -42q-70 -35 -150 -35q-87 0 -149.5 59.5t-62.5 150.5q0 120 72.5 207t187.5 87q66 0 102.5 -30t36.5 -74zM386 388q0 58 -89 58q-70 0 -118 -47.5t-67 -126.5q124 5 199 35.5t75 80.5zM282 543
l108 121h79l-130 -121h-57z" />
    <glyph glyph-name="ecircumflex" unicode="&#xea;" horiz-adv-x="469" 
d="M444 392q0 -150 -341 -169q-5 -86 39.5 -133.5t121.5 -47.5q57 0 127 27l16 -42q-70 -35 -150 -35q-87 0 -149.5 59.5t-62.5 150.5q0 120 72.5 207t187.5 87q66 0 102.5 -30t36.5 -74zM386 388q0 58 -89 58q-70 0 -118 -47.5t-67 -126.5q124 5 199 35.5t75 80.5zM171 543
l128 121h47l85 -121h-51l-60 87l-93 -87h-56z" />
    <glyph glyph-name="edieresis" unicode="&#xeb;" horiz-adv-x="469" 
d="M444 392q0 -150 -341 -169q-5 -86 39.5 -133.5t121.5 -47.5q57 0 127 27l16 -42q-70 -35 -150 -35q-87 0 -149.5 59.5t-62.5 150.5q0 120 72.5 207t187.5 87q66 0 102.5 -30t36.5 -74zM386 388q0 58 -89 58q-70 0 -118 -47.5t-67 -126.5q124 5 199 35.5t75 80.5zM378 564
l14 79h60l-14 -79h-60zM188 564l14 79h60l-14 -79h-60z" />
    <glyph glyph-name="igrave" unicode="&#xec;" horiz-adv-x="228" 
d="M185 487l-86 -487h-56l86 487h56zM134 543l-88 121h67l68 -121h-47z" />
    <glyph glyph-name="iacute" unicode="&#xed;" horiz-adv-x="228" 
d="M185 487l-86 -487h-56l86 487h56zM140 543l108 121h79l-130 -121h-57z" />
    <glyph glyph-name="icircumflex" unicode="&#xee;" horiz-adv-x="228" 
d="M185 487l-86 -487h-56l86 487h56zM28 543l128 121h47l85 -121h-51l-60 87l-93 -87h-56z" />
    <glyph glyph-name="idieresis" unicode="&#xef;" horiz-adv-x="228" 
d="M185 487l-86 -487h-56l86 487h56zM233 564l14 79h60l-14 -79h-60zM43 564l14 79h60l-14 -79h-60z" />
    <glyph glyph-name="eth" unicode="&#xf0;" horiz-adv-x="535" 
d="M225 -8q-85 0 -132 58.5t-47 142.5q0 55 16 106.5t47 93.5t81.5 67.5t112.5 25.5q50 0 89 -27t51 -68q-11 110 -71 180l-116 -32l-11 38l101 27q-29 30 -67 62h65q32 -25 53 -49l97 25l12 -36l-82 -22q71 -101 71 -232q0 -66 -17 -128.5t-49 -115t-85 -84.5t-119 -32z
M230 39q91 0 146 77.5t55 178.5q0 63 -35 102.5t-95 39.5q-91 0 -145 -70.5t-54 -173.5q0 -69 32 -111.5t96 -42.5z" />
    <glyph glyph-name="ntilde" unicode="&#xf1;" 
d="M503 391q0 -25 -4 -45l-61 -346h-56l59 333q6 34 6 53q0 31 -16.5 44t-49.5 13q-52 0 -99.5 -37t-79.5 -93.5t-53 -112.5t-30 -104l-17 -96h-57l86 487h57l-27 -154q40 69 101.5 116t133.5 47q107 0 107 -105zM172 565q28 89 89 89q29 0 79 -28q49 -28 62 -28t22.5 8.5
t13.5 17t15 33.5l36 -13q-15 -43 -34.5 -66t-50.5 -23q-22 0 -79 31q-4 2 -13 7.5t-13.5 7.5t-11.5 5t-13 4t-13 1q-19 0 -30 -13t-24 -46z" />
    <glyph glyph-name="ograve" unicode="&#xf2;" horiz-adv-x="517" 
d="M482 300q0 -120 -74.5 -214t-187.5 -94q-83 0 -129 54.5t-46 139.5q0 132 76 221t187 89q84 0 129 -54.5t45 -141.5zM426 302q0 68 -31.5 106t-94.5 38q-79 0 -139 -73.5t-60 -191.5q0 -66 31.5 -102.5t95.5 -36.5q83 0 140.5 75t57.5 185zM272 543l-88 121h67l68 -121
h-47z" />
    <glyph glyph-name="oacute" unicode="&#xf3;" horiz-adv-x="517" 
d="M482 300q0 -120 -74.5 -214t-187.5 -94q-83 0 -129 54.5t-46 139.5q0 132 76 221t187 89q84 0 129 -54.5t45 -141.5zM426 302q0 68 -31.5 106t-94.5 38q-79 0 -139 -73.5t-60 -191.5q0 -66 31.5 -102.5t95.5 -36.5q83 0 140.5 75t57.5 185zM293 543l108 121h79l-130 -121
h-57z" />
    <glyph glyph-name="ocircumflex" unicode="&#xf4;" horiz-adv-x="517" 
d="M482 300q0 -120 -74.5 -214t-187.5 -94q-83 0 -129 54.5t-46 139.5q0 132 76 221t187 89q84 0 129 -54.5t45 -141.5zM426 302q0 68 -31.5 106t-94.5 38q-79 0 -139 -73.5t-60 -191.5q0 -66 31.5 -102.5t95.5 -36.5q83 0 140.5 75t57.5 185zM179 543l128 121h47l85 -121
h-51l-60 87l-93 -87h-56z" />
    <glyph glyph-name="otilde" unicode="&#xf5;" horiz-adv-x="517" 
d="M482 300q0 -120 -74.5 -214t-187.5 -94q-83 0 -129 54.5t-46 139.5q0 132 76 221t187 89q84 0 129 -54.5t45 -141.5zM426 302q0 68 -31.5 106t-94.5 38q-79 0 -139 -73.5t-60 -191.5q0 -66 31.5 -102.5t95.5 -36.5q83 0 140.5 75t57.5 185zM154 565q28 89 89 89
q29 0 79 -28q49 -28 62 -28t22.5 8.5t13.5 17t15 33.5l36 -13q-15 -43 -34.5 -66t-50.5 -23q-22 0 -79 31q-4 2 -13 7.5t-13.5 7.5t-11.5 5t-13 4t-13 1q-19 0 -30 -13t-24 -46z" />
    <glyph glyph-name="odieresis" unicode="&#xf6;" horiz-adv-x="517" 
d="M482 300q0 -120 -74.5 -214t-187.5 -94q-83 0 -129 54.5t-46 139.5q0 132 76 221t187 89q84 0 129 -54.5t45 -141.5zM426 302q0 68 -31.5 106t-94.5 38q-79 0 -139 -73.5t-60 -191.5q0 -66 31.5 -102.5t95.5 -36.5q83 0 140.5 75t57.5 185zM386 564l14 79h60l-14 -79h-60
zM196 564l14 79h60l-14 -79h-60z" />
    <glyph glyph-name="divide" unicode="&#xf7;" horiz-adv-x="535" 
d="M500 223v-42h-425v42h425zM339 356q0 -21 -15 -36.5t-36 -15.5t-36 15.5t-15 36.5t15 36t36 15t36 -15t15 -36zM339 48q0 -21 -15 -36t-36 -15t-36 15t-15 36t15 36t36 15t36 -15t15 -36z" />
    <glyph glyph-name="oslash" unicode="&#xf8;" horiz-adv-x="614" 
d="M579 475l-65 -61q29 -48 29 -115q0 -120 -79 -213.5t-196 -93.5q-88 0 -140 59l-62 -59l-21 21l65 61q-29 48 -29 115q0 122 75.5 214.5t199.5 92.5q88 0 140 -59l62 59zM455 399q-37 47 -107 47q-95 0 -153 -77t-58 -176q0 -42 16 -78zM487 294q0 43 -16 79l-302 -284
q37 -47 107 -47q89 0 150 78t61 174z" />
    <glyph glyph-name="ugrave" unicode="&#xf9;" 
d="M513 487l-86 -487h-57l26 155q-40 -69 -101.5 -116t-133.5 -47q-106 0 -106 104q0 26 4 46l61 345h56l-60 -332q-6 -34 -6 -52q0 -58 67 -58q42 0 81 25t68 63.5t52.5 86.5t38 91.5t21.5 80.5l18 95h57zM288 543l-88 121h67l68 -121h-47z" />
    <glyph glyph-name="uacute" unicode="&#xfa;" 
d="M513 487l-86 -487h-57l26 155q-40 -69 -101.5 -116t-133.5 -47q-106 0 -106 104q0 26 4 46l61 345h56l-60 -332q-6 -34 -6 -52q0 -58 67 -58q42 0 81 25t68 63.5t52.5 86.5t38 91.5t21.5 80.5l18 95h57zM270 543l108 121h79l-130 -121h-57z" />
    <glyph glyph-name="ucircumflex" unicode="&#xfb;" 
d="M513 487l-86 -487h-57l26 155q-40 -69 -101.5 -116t-133.5 -47q-106 0 -106 104q0 26 4 46l61 345h56l-60 -332q-6 -34 -6 -52q0 -58 67 -58q42 0 81 25t68 63.5t52.5 86.5t38 91.5t21.5 80.5l18 95h57zM195 543l128 121h47l85 -121h-51l-60 87l-93 -87h-56z" />
    <glyph glyph-name="udieresis" unicode="&#xfc;" 
d="M513 487l-86 -487h-57l26 155q-40 -69 -101.5 -116t-133.5 -47q-106 0 -106 104q0 26 4 46l61 345h56l-60 -332q-6 -34 -6 -52q0 -58 67 -58q42 0 81 25t68 63.5t52.5 86.5t38 91.5t21.5 80.5l18 95h57zM402 564l14 79h60l-14 -79h-60zM212 564l14 79h60l-14 -79h-60z
" />
    <glyph glyph-name="yacute" unicode="&#xfd;" horiz-adv-x="454" 
d="M484 487l-377 -660h-54l100 173l-113 487h54l93 -428l238 428h59zM230 543l108 121h79l-130 -121h-57z" />
    <glyph glyph-name="thorn" unicode="&#xfe;" horiz-adv-x="562" 
d="M527 334q0 -80 -28.5 -156.5t-88 -131t-137.5 -54.5q-67 0 -135 41l-37 -205h-56l147 839h57l-58 -328q32 68 88 112.5t119 44.5q67 0 98 -43.5t31 -118.5zM471 334q0 57 -19.5 84.5t-63.5 27.5q-76 0 -145.5 -107.5t-94.5 -242.5q0 -1 -0.5 -3.5t-0.5 -4.5
q59 -46 122 -46q91 0 146.5 88.5t55.5 203.5z" />
    <glyph glyph-name="ydieresis" unicode="&#xff;" horiz-adv-x="454" 
d="M484 487l-377 -660h-54l100 173l-113 487h54l93 -428l238 428h59zM336 564l14 79h60l-14 -79h-60zM146 564l14 79h60l-14 -79h-60z" />
    <glyph glyph-name="Amacron" unicode="&#x100;" horiz-adv-x="635" 
d="M580 0h-56l-41 187h-329l-107 -187h-61l394 666h42zM472 234l-81 366l-208 -366h289zM277 763l8 43h272l-7 -43h-273z" />
    <glyph glyph-name="amacron" unicode="&#x101;" horiz-adv-x="524" 
d="M492 487l-86 -487h-57l26 149q-32 -68 -87.5 -112.5t-118.5 -44.5q-67 0 -98 43.5t-31 118.5q0 80 28.5 156.5t88 131t137.5 54.5q65 0 135 -42l5 33h58zM420 400q-58 45 -122 45q-91 0 -146.5 -88t-55.5 -203q0 -57 19.5 -84.5t63.5 -27.5q76 0 145.5 107t94.5 242
q0 1 0.5 4t0.5 5zM209 584l8 43h272l-7 -43h-273z" />
    <glyph glyph-name="Abreve" unicode="&#x102;" horiz-adv-x="635" 
d="M580 0h-56l-41 187h-329l-107 -187h-61l394 666h42zM472 234l-81 366l-208 -366h289zM297 836h40q-5 -35 13.5 -56t59.5 -21t68 20.5t35 56.5h41q-9 -50 -49 -80t-98 -30q-56 0 -86 30.5t-24 79.5z" />
    <glyph glyph-name="abreve" unicode="&#x103;" horiz-adv-x="524" 
d="M492 487l-86 -487h-57l26 149q-32 -68 -87.5 -112.5t-118.5 -44.5q-67 0 -98 43.5t-31 118.5q0 80 28.5 156.5t88 131t137.5 54.5q65 0 135 -42l5 33h58zM420 400q-58 45 -122 45q-91 0 -146.5 -88t-55.5 -203q0 -57 19.5 -84.5t63.5 -27.5q76 0 145.5 107t94.5 242
q0 1 0.5 4t0.5 5zM230 657h40q-5 -35 13.5 -56t59.5 -21t68 20.5t35 56.5h41q-9 -50 -49 -80t-98 -30q-56 0 -86 30.5t-24 79.5z" />
    <glyph glyph-name="Aogonek" unicode="&#x104;" horiz-adv-x="635" 
d="M472 234l-81 366l-208 -366h289zM524 0l-41 187h-329l-107 -187h-61l394 666h42l158 -666h-25q-81 -53 -81 -109q0 -38 43 -38q19 0 35 6l-1 -31q-18 -9 -48 -9q-37 0 -56 19t-19 48q0 37 26.5 67.5t69.5 46.5z" />
    <glyph glyph-name="aogonek" unicode="&#x105;" horiz-adv-x="524" 
d="M420 400q-58 45 -122 45q-91 0 -146.5 -88t-55.5 -203q0 -57 19.5 -84.5t63.5 -27.5q76 0 145.5 107t94.5 242q0 1 0.5 4t0.5 5zM349 0l26 149q-32 -68 -87.5 -112.5t-118.5 -44.5q-67 0 -98 43.5t-31 118.5q0 80 28.5 156.5t88 131t137.5 54.5q65 0 135 -42l5 33h58
l-86 -487h-26q-81 -53 -81 -109q0 -38 43 -38q18 0 35 6l-1 -31q-18 -9 -48 -9q-37 0 -56 19t-19 48q0 37 26.5 67.5t69.5 46.5z" />
    <glyph glyph-name="Cacute" unicode="&#x106;" horiz-adv-x="630" 
d="M645 655l-15 -46q-76 17 -149 17q-154 0 -258 -100t-104 -253q0 -112 72 -173t186 -61q77 0 150 18l6 -45q-81 -23 -163 -23q-130 0 -220 78t-90 206q0 35 5 60q29 163 144 253t283 90q80 0 153 -21zM449 722l108 121h79l-130 -121h-57z" />
    <glyph glyph-name="cacute" unicode="&#x107;" horiz-adv-x="434" 
d="M424 466l-21 -44q-50 24 -108 24q-83 0 -141 -72.5t-58 -191.5q0 -140 127 -140q50 0 116 23l13 -44q-66 -29 -137 -29q-83 0 -129 54.5t-46 139.5q0 133 74.5 221.5t188.5 88.5q69 0 121 -30zM275 543l108 121h79l-130 -121h-57z" />
    <glyph glyph-name="Ccircumflex" unicode="&#x108;" horiz-adv-x="630" 
d="M645 655l-15 -46q-76 17 -149 17q-154 0 -258 -100t-104 -253q0 -112 72 -173t186 -61q77 0 150 18l6 -45q-81 -23 -163 -23q-130 0 -220 78t-90 206q0 35 5 60q29 163 144 253t283 90q80 0 153 -21zM333 722l128 121h47l85 -121h-51l-60 87l-93 -87h-56z" />
    <glyph glyph-name="ccircumflex" unicode="&#x109;" horiz-adv-x="434" 
d="M424 466l-21 -44q-50 24 -108 24q-83 0 -141 -72.5t-58 -191.5q0 -140 127 -140q50 0 116 23l13 -44q-66 -29 -137 -29q-83 0 -129 54.5t-46 139.5q0 133 74.5 221.5t188.5 88.5q69 0 121 -30zM164 543l128 121h47l85 -121h-51l-60 87l-93 -87h-56z" />
    <glyph glyph-name="Cdotaccent" unicode="&#x10a;" horiz-adv-x="630" 
d="M645 655l-15 -46q-76 17 -149 17q-154 0 -258 -100t-104 -253q0 -112 72 -173t186 -61q77 0 150 18l6 -45q-81 -23 -163 -23q-130 0 -220 78t-90 206q0 35 5 60q29 163 144 253t283 90q80 0 153 -21zM432 739l16 91h59l-16 -91h-59z" />
    <glyph glyph-name="cdotaccent" unicode="&#x10b;" horiz-adv-x="434" 
d="M424 466l-21 -44q-50 24 -108 24q-83 0 -141 -72.5t-58 -191.5q0 -140 127 -140q50 0 116 23l13 -44q-66 -29 -137 -29q-83 0 -129 54.5t-46 139.5q0 133 74.5 221.5t188.5 88.5q69 0 121 -30zM275 560l16 91h59l-16 -91h-59z" />
    <glyph glyph-name="Ccaron" unicode="&#x10c;" horiz-adv-x="630" 
d="M645 655l-15 -46q-76 17 -149 17q-154 0 -258 -100t-104 -253q0 -112 72 -173t186 -61q77 0 150 18l6 -45q-81 -23 -163 -23q-130 0 -220 78t-90 206q0 35 5 60q29 163 144 253t283 90q80 0 153 -21zM364 843h51l61 -88l92 88h57l-128 -121h-47z" />
    <glyph glyph-name="ccaron" unicode="&#x10d;" horiz-adv-x="434" 
d="M424 466l-21 -44q-50 24 -108 24q-83 0 -141 -72.5t-58 -191.5q0 -140 127 -140q50 0 116 23l13 -44q-66 -29 -137 -29q-83 0 -129 54.5t-46 139.5q0 133 74.5 221.5t188.5 88.5q69 0 121 -30zM183 664h51l61 -88l92 88h57l-128 -121h-47z" />
    <glyph glyph-name="Dcaron" unicode="&#x10e;" horiz-adv-x="657" 
d="M588 382q0 74 -40.5 128.5t-102.5 80t-134 25.5h-83l-100 -566h83q148 0 262.5 93.5t114.5 238.5zM647 386q0 -30 -4 -53q-19 -106 -87 -183t-161.5 -113.5t-201.5 -36.5h-133l119 666h132q86 0 161 -30.5t125 -96t50 -153.5zM275 843h51l61 -88l92 88h57l-128 -121h-47z
" />
    <glyph glyph-name="dcaron" unicode="&#x10f;" horiz-adv-x="669" 
d="M528 666l-117 -666h-57l26 149q-32 -68 -87.5 -112.5t-118.5 -44.5q-67 0 -98 43.5t-31 118.5q0 80 28.5 156.5t88 131t137.5 54.5q65 0 135 -42l37 212h57zM425 399q-60 47 -122 47q-91 0 -146.5 -88.5t-55.5 -203.5q0 -57 19 -84.5t63 -27.5q76 0 145.5 107t94.5 242
q0 1 1 3.5t1 4.5zM635 666h69l-16 -89l-47 -83h-32l43 83h-32z" />
    <glyph glyph-name="Dcroat" unicode="&#x110;" horiz-adv-x="683" 
d="M219 0h-133l56 311h-87l8 47h87l55 308h132q86 0 161 -30.5t125 -96t50 -153.5q0 -30 -4 -53q-19 -106 -87 -183t-161.5 -113.5t-201.5 -36.5zM154 50h83q148 0 262.5 93.5t114.5 238.5q0 74 -40.5 128.5t-102.5 80t-134 25.5h-83l-46 -258h162l-8 -47h-162z" />
    <glyph glyph-name="dcroat" unicode="&#x111;" horiz-adv-x="553" 
d="M425 399q-60 47 -122 47q-91 0 -146.5 -88.5t-55.5 -203.5q0 -57 19 -84.5t63 -27.5q76 0 145.5 107t94.5 242q0 1 1 3.5t1 4.5zM380 149q-32 -68 -87.5 -112.5t-118.5 -44.5q-67 0 -98 43.5t-31 118.5q0 80 28.5 156.5t88 131t137.5 54.5q65 0 135 -42l18 102h-137l8 41
h136l12 69h57l-12 -69h72l-7 -41h-72l-98 -556h-57z" />
    <glyph glyph-name="Emacron" unicode="&#x112;" horiz-adv-x="610" 
d="M620 666l-9 -50h-383l-43 -246h358l-9 -50h-358l-48 -270h383l-9 -50h-442l118 666h442zM288 763l8 43h272l-7 -43h-273z" />
    <glyph glyph-name="emacron" unicode="&#x113;" horiz-adv-x="469" 
d="M444 392q0 -150 -341 -169q-5 -86 39.5 -133.5t121.5 -47.5q57 0 127 27l16 -42q-70 -35 -150 -35q-87 0 -149.5 59.5t-62.5 150.5q0 120 72.5 207t187.5 87q66 0 102.5 -30t36.5 -74zM386 388q0 58 -89 58q-70 0 -118 -47.5t-67 -126.5q124 5 199 35.5t75 80.5zM181 584
l8 43h272l-7 -43h-273z" />
    <glyph glyph-name="Ebreve" unicode="&#x114;" horiz-adv-x="610" 
d="M620 666l-9 -50h-383l-43 -246h358l-9 -50h-358l-48 -270h383l-9 -50h-442l118 666h442zM309 836h40q-5 -35 13.5 -56t59.5 -21t68 20.5t35 56.5h41q-9 -50 -49 -80t-98 -30q-56 0 -86 30.5t-24 79.5z" />
    <glyph glyph-name="ebreve" unicode="&#x115;" horiz-adv-x="469" 
d="M444 392q0 -150 -341 -169q-5 -86 39.5 -133.5t121.5 -47.5q57 0 127 27l16 -42q-70 -35 -150 -35q-87 0 -149.5 59.5t-62.5 150.5q0 120 72.5 207t187.5 87q66 0 102.5 -30t36.5 -74zM386 388q0 58 -89 58q-70 0 -118 -47.5t-67 -126.5q124 5 199 35.5t75 80.5zM202 657
h40q-5 -35 13.5 -56t59.5 -21t68 20.5t35 56.5h41q-9 -50 -49 -80t-98 -30q-56 0 -86 30.5t-24 79.5z" />
    <glyph glyph-name="Edotaccent" unicode="&#x116;" horiz-adv-x="610" 
d="M620 666l-9 -50h-383l-43 -246h358l-9 -50h-358l-48 -270h383l-9 -50h-442l118 666h442zM389 739l16 91h59l-16 -91h-59z" />
    <glyph glyph-name="edotaccent" unicode="&#x117;" horiz-adv-x="469" 
d="M444 392q0 -150 -341 -169q-5 -86 39.5 -133.5t121.5 -47.5q57 0 127 27l16 -42q-70 -35 -150 -35q-87 0 -149.5 59.5t-62.5 150.5q0 120 72.5 207t187.5 87q66 0 102.5 -30t36.5 -74zM386 388q0 58 -89 58q-70 0 -118 -47.5t-67 -126.5q124 5 199 35.5t75 80.5zM282 560
l16 91h59l-16 -91h-59z" />
    <glyph glyph-name="Eogonek" unicode="&#x118;" horiz-adv-x="610" 
d="M439 0h-379l118 666h442l-9 -50h-383l-43 -246h358l-9 -50h-358l-48 -270h383l-9 -50h-32q-81 -53 -81 -109q0 -38 43 -38q18 0 35 6l-1 -31q-18 -9 -48 -9q-37 0 -56 19t-19 48q0 37 26.5 67.5t69.5 46.5z" />
    <glyph glyph-name="eogonek" unicode="&#x119;" horiz-adv-x="469" 
d="M318 -181q-36 0 -55.5 19.5t-19.5 48.5q0 65 76 110q-33 -5 -62 -5q-87 0 -149.5 59.5t-62.5 150.5q0 120 72.5 207t187.5 87q66 0 102.5 -30t36.5 -74q0 -150 -341 -169q-5 -86 39.5 -133.5t121.5 -47.5q57 0 127 27l16 -42q-118 -63 -118 -137q0 -37 43 -37q18 0 35 6
l-1 -31q-18 -9 -48 -9zM386 388q0 58 -89 58q-70 0 -118 -47.5t-67 -126.5q124 5 199 35.5t75 80.5z" />
    <glyph glyph-name="Ecaron" unicode="&#x11a;" horiz-adv-x="610" 
d="M620 666l-9 -50h-383l-43 -246h358l-9 -50h-358l-48 -270h383l-9 -50h-442l118 666h442zM297 843h51l61 -88l92 88h57l-128 -121h-47z" />
    <glyph glyph-name="ecaron" unicode="&#x11b;" horiz-adv-x="469" 
d="M444 392q0 -150 -341 -169q-5 -86 39.5 -133.5t121.5 -47.5q57 0 127 27l16 -42q-70 -35 -150 -35q-87 0 -149.5 59.5t-62.5 150.5q0 120 72.5 207t187.5 87q66 0 102.5 -30t36.5 -74zM386 388q0 58 -89 58q-70 0 -118 -47.5t-67 -126.5q124 5 199 35.5t75 80.5zM190 664
h51l61 -88l92 88h57l-128 -121h-47z" />
    <glyph glyph-name="Gcircumflex" unicode="&#x11c;" horiz-adv-x="686" 
d="M656 658l-11 -46q-79 15 -162 15q-159 0 -262 -98t-103 -257q0 -112 72.5 -172.5t186.5 -60.5q69 0 148 18l43 240h52l-49 -275q-97 -33 -200 -33q-132 0 -221.5 76.5t-89.5 206.5q0 31 6 61q29 167 141.5 255t284.5 88q89 0 164 -18zM341 722l128 121h47l85 -121h-51
l-60 87l-93 -87h-56z" />
    <glyph glyph-name="gcircumflex" unicode="&#x11d;" horiz-adv-x="540" 
d="M500 487l-77 -440q-19 -112 -77 -170t-177 -58q-71 0 -149 30l12 42q75 -27 139 -27q91 0 135 43.5t59 131.5l19 110q-38 -65 -90 -103.5t-112 -38.5q-67 0 -100.5 43t-33.5 117q0 80 28.5 153.5t88 124.5t137.5 51q67 0 135 -41l6 32h57zM428 400q-59 46 -122 46
q-92 0 -147 -83t-55 -196q0 -57 19.5 -83.5t63.5 -26.5q75 0 145 101.5t95 233.5q0 1 0.5 3.5t0.5 4.5zM202 543l128 121h47l85 -121h-51l-60 87l-93 -87h-56z" />
    <glyph glyph-name="Gbreve" unicode="&#x11e;" horiz-adv-x="686" 
d="M656 658l-11 -46q-79 15 -162 15q-159 0 -262 -98t-103 -257q0 -112 72.5 -172.5t186.5 -60.5q69 0 148 18l43 240h52l-49 -275q-97 -33 -200 -33q-132 0 -221.5 76.5t-89.5 206.5q0 31 6 61q29 167 141.5 255t284.5 88q89 0 164 -18zM378 836h40q-5 -35 13.5 -56
t59.5 -21t68 20.5t35 56.5h41q-9 -50 -49 -80t-98 -30q-56 0 -86 30.5t-24 79.5z" />
    <glyph glyph-name="gbreve" unicode="&#x11f;" horiz-adv-x="540" 
d="M500 487l-77 -440q-19 -112 -77 -170t-177 -58q-71 0 -149 30l12 42q75 -27 139 -27q91 0 135 43.5t59 131.5l19 110q-38 -65 -90 -103.5t-112 -38.5q-67 0 -100.5 43t-33.5 117q0 80 28.5 153.5t88 124.5t137.5 51q67 0 135 -41l6 32h57zM428 400q-59 46 -122 46
q-92 0 -147 -83t-55 -196q0 -57 19.5 -83.5t63.5 -26.5q75 0 145 101.5t95 233.5q0 1 0.5 3.5t0.5 4.5zM233 657h40q-5 -35 13.5 -56t59.5 -21t68 20.5t35 56.5h41q-9 -50 -49 -80t-98 -30q-56 0 -86 30.5t-24 79.5z" />
    <glyph glyph-name="Gdotaccent" unicode="&#x120;" horiz-adv-x="686" 
d="M656 658l-11 -46q-79 15 -162 15q-159 0 -262 -98t-103 -257q0 -112 72.5 -172.5t186.5 -60.5q69 0 148 18l43 240h52l-49 -275q-97 -33 -200 -33q-132 0 -221.5 76.5t-89.5 206.5q0 31 6 61q29 167 141.5 255t284.5 88q89 0 164 -18zM458 739l16 91h59l-16 -91h-59z" />
    <glyph glyph-name="gdotaccent" unicode="&#x121;" horiz-adv-x="540" 
d="M500 487l-77 -440q-19 -112 -77 -170t-177 -58q-71 0 -149 30l12 42q75 -27 139 -27q91 0 135 43.5t59 131.5l19 110q-38 -65 -90 -103.5t-112 -38.5q-67 0 -100.5 43t-33.5 117q0 80 28.5 153.5t88 124.5t137.5 51q67 0 135 -41l6 32h57zM428 400q-59 46 -122 46
q-92 0 -147 -83t-55 -196q0 -57 19.5 -83.5t63.5 -26.5q75 0 145 101.5t95 233.5q0 1 0.5 3.5t0.5 4.5zM313 560l16 91h59l-16 -91h-59z" />
    <glyph glyph-name="uni0122" unicode="&#x122;" horiz-adv-x="686" 
d="M656 658l-11 -46q-79 15 -162 15q-159 0 -262 -98t-103 -257q0 -112 72.5 -172.5t186.5 -60.5q69 0 148 18l43 240h52l-49 -275q-97 -33 -200 -33q-132 0 -221.5 76.5t-89.5 206.5q0 31 6 61q29 167 141.5 255t284.5 88q89 0 164 -18zM327 -60h68l-15 -87l-48 -82h-33
l44 82h-31z" />
    <glyph glyph-name="uni0123" unicode="&#x123;" horiz-adv-x="540" 
d="M500 487l-77 -440q-19 -112 -77 -170t-177 -58q-71 0 -149 30l12 42q75 -27 139 -27q91 0 135 43.5t59 131.5l19 110q-38 -65 -90 -103.5t-112 -38.5q-67 0 -100.5 43t-33.5 117q0 80 28.5 153.5t88 124.5t137.5 51q67 0 135 -41l6 32h57zM428 400q-59 46 -122 46
q-92 0 -147 -83t-55 -196q0 -57 19.5 -83.5t63.5 -26.5q75 0 145 101.5t95 233.5q0 1 0.5 3.5t0.5 4.5zM295 543l131 121h52l-109 -121h-74z" />
    <glyph glyph-name="Hcircumflex" unicode="&#x124;" horiz-adv-x="696" 
d="M676 666l-118 -666h-59l57 319h-381l-57 -319h-58l118 666h58l-52 -296h381l52 296h59zM305 722l128 121h47l85 -121h-51l-60 87l-93 -87h-56z" />
    <glyph glyph-name="hcircumflex" unicode="&#x125;" 
d="M503 392q0 -26 -4 -46l-61 -346h-56l60 333q6 34 6 52q0 58 -67 58q-52 0 -99 -37t-79 -93.5t-53 -112t-30 -104.5l-18 -96h-57l118 666h57l-58 -333q40 69 101.5 116t133.5 47q106 0 106 -104zM64 722l128 121h47l85 -121h-51l-60 87l-93 -87h-56z" />
    <glyph glyph-name="Hbar" unicode="&#x126;" horiz-adv-x="735" 
d="M204 370h381l25 140h-381zM195 319l-57 -319h-58l90 510h-85l8 44h85l20 112h58l-20 -112h381l20 112h59l-20 -112h84l-8 -44h-84l-90 -510h-59l57 319h-381z" />
    <glyph glyph-name="hbar" unicode="&#x127;" horiz-adv-x="568" 
d="M130 96l-18 -96h-57l99 556h-81l8 41h80l12 69h57l-12 -69h123l-7 -41h-123l-39 -223q40 69 101.5 116t133.5 47q106 0 106 -104q0 -26 -4 -46l-61 -346h-56l60 333q6 34 6 52q0 58 -67 58q-52 0 -99 -37t-79 -93.5t-53 -112t-30 -104.5z" />
    <glyph glyph-name="Itilde" unicode="&#x128;" horiz-adv-x="266" 
d="M241 666l-118 -666h-58l118 666h58zM58 744q28 89 89 89q29 0 79 -28q49 -28 62 -28t22.5 8.5t13.5 17t15 33.5l36 -13q-15 -43 -34.5 -66t-50.5 -23q-22 0 -79 31q-4 2 -13 7.5t-13.5 7.5t-11.5 5t-13 4t-13 1q-19 0 -30 -13t-24 -46z" />
    <glyph glyph-name="itilde" unicode="&#x129;" horiz-adv-x="228" 
d="M185 487l-86 -487h-56l86 487h56zM3 565q28 89 89 89q29 0 79 -28q49 -28 62 -28t22.5 8.5t13.5 17t15 33.5l36 -13q-15 -43 -34.5 -66t-50.5 -23q-22 0 -79 31q-4 2 -13 7.5t-13.5 7.5t-11.5 5t-13 4t-13 1q-19 0 -30 -13t-24 -46z" />
    <glyph glyph-name="Imacron" unicode="&#x12a;" horiz-adv-x="266" 
d="M241 666l-118 -666h-58l118 666h58zM93 763l8 43h272l-7 -43h-273z" />
    <glyph glyph-name="imacron" unicode="&#x12b;" horiz-adv-x="228" 
d="M185 487l-86 -487h-56l86 487h56zM31 584l8 43h272l-7 -43h-273z" />
    <glyph glyph-name="Ibreve" unicode="&#x12c;" horiz-adv-x="266" 
d="M241 666l-118 -666h-58l118 666h58zM114 836h40q-5 -35 13.5 -56t59.5 -21t68 20.5t35 56.5h41q-9 -50 -49 -80t-98 -30q-56 0 -86 30.5t-24 79.5z" />
    <glyph glyph-name="ibreve" unicode="&#x12d;" horiz-adv-x="228" 
d="M185 487l-86 -487h-56l86 487h56zM59 657h40q-5 -35 13.5 -56t59.5 -21t68 20.5t35 56.5h41q-9 -50 -49 -80t-98 -30q-56 0 -86 30.5t-24 79.5z" />
    <glyph glyph-name="Iogonek" unicode="&#x12e;" horiz-adv-x="266" 
d="M65 0l118 666h58l-118 -666h-27q-67 -52 -67 -112q0 -33 30 -33q17 0 34 6l-1 -34q-16 -8 -42 -8q-31 0 -49 17t-18 45q0 37 22 69t60 50z" />
    <glyph glyph-name="iogonek" unicode="&#x12f;" horiz-adv-x="224" 
d="M219 666l-17 -96h-56l17 96h56zM45 0l86 487h56l-86 -487h-25q-67 -52 -67 -112q0 -33 30 -33q18 0 34 6l-1 -34q-16 -8 -42 -8q-31 0 -49 17t-18 45q0 37 22 69t60 50z" />
    <glyph glyph-name="Idotaccent" unicode="&#x130;" horiz-adv-x="266" 
d="M241 666l-118 -666h-58l118 666h58zM194 739l16 91h59l-16 -91h-59z" />
    <glyph glyph-name="dotlessi" unicode="&#x131;" horiz-adv-x="228" 
d="M185 487l-86 -487h-56l86 487h56z" />
    <glyph glyph-name="IJ" unicode="&#x132;" horiz-adv-x="718" 
d="M241 666l-118 -666h-58l118 666h58zM708 666l-84 -475q-34 -191 -222 -191h-118l9 50h116q66 0 106 39.5t51 101.5l75 425h-225l9 50h283z" />
    <glyph glyph-name="ij" unicode="&#x133;" horiz-adv-x="459" 
d="M187 487l-86 -487h-56l86 487h56zM219 666l-17 -96h-56l17 96h56zM422 487l-93 -529q-13 -72 -48 -105.5t-99 -33.5q-40 0 -68 13l11 43q28 -9 61 -9q41 0 59.5 21.5t26.5 66.5l94 533h56zM454 666l-17 -97h-56l17 97h56z" />
    <glyph glyph-name="Jcircumflex" unicode="&#x134;" horiz-adv-x="452" 
d="M442 666l-84 -475q-34 -191 -222 -191h-118l9 50h116q66 0 106 39.5t51 101.5l75 425h-225l9 50h283zM190 722l128 121h47l85 -121h-51l-60 87l-93 -87h-56z" />
    <glyph glyph-name="jcircumflex" unicode="&#x135;" horiz-adv-x="235" 
d="M198 487l-93 -529q-13 -72 -48 -105.5t-99 -33.5q-40 0 -68 13l11 43q29 -9 61 -9q41 0 59.5 21.5t26.5 66.5l94 533h56zM41 543l128 121h47l85 -121h-51l-60 87l-93 -87h-56z" />
    <glyph glyph-name="uni0136" unicode="&#x136;" horiz-adv-x="618" 
d="M653 666l-429 -327l331 -339h-70l-310 319l-57 -319h-58l118 666h58l-53 -299l397 299h73zM250 -60h68l-15 -87l-48 -82h-33l44 82h-31z" />
    <glyph glyph-name="uni0137" unicode="&#x137;" horiz-adv-x="463" 
d="M478 487l-296 -239l223 -248h-69l-195 221l-39 -221h-57l118 666h57l-68 -385l252 206h74zM173 -60h68l-15 -87l-48 -82h-33l44 82h-31z" />
    <glyph glyph-name="kgreenlandic" unicode="&#x138;" horiz-adv-x="463" 
d="M478 487l-296 -239l223 -248h-69l-195 221l-39 -221h-57l87 487h57l-37 -206l252 206h74z" />
    <glyph glyph-name="Lacute" unicode="&#x139;" horiz-adv-x="537" 
d="M477 50l-9 -50h-408l118 666h58l-109 -616h350zM190 722l108 121h79l-130 -121h-57z" />
    <glyph glyph-name="lacute" unicode="&#x13a;" horiz-adv-x="266" 
d="M221 22q-33 -28 -83 -28q-41 0 -64.5 23.5t-23.5 64.5q0 14 3 29l98 555h56l-95 -542q-5 -23 -5 -44t9.5 -29.5t30.5 -8.5q30 0 59 18zM158 722l108 121h79l-130 -121h-57z" />
    <glyph glyph-name="uni013B" unicode="&#x13b;" horiz-adv-x="537" 
d="M477 50l-9 -50h-408l118 666h58l-109 -616h350zM226 -60h68l-15 -87l-48 -82h-33l44 82h-31z" />
    <glyph glyph-name="uni013C" unicode="&#x13c;" horiz-adv-x="266" 
d="M221 22q-33 -28 -83 -28q-41 0 -64.5 23.5t-23.5 64.5q0 14 3 29l98 555h56l-95 -542q-5 -23 -5 -44t9.5 -29.5t30.5 -8.5q30 0 59 18zM66 -60h68l-15 -87l-48 -82h-33l44 82h-31z" />
    <glyph glyph-name="Lcaron" unicode="&#x13d;" horiz-adv-x="537" 
d="M477 50l-9 -50h-408l118 666h58l-109 -616h350zM400 666h69l-16 -89l-47 -83h-32l43 83h-32z" />
    <glyph glyph-name="lcaron" unicode="&#x13e;" horiz-adv-x="327" 
d="M221 22q-33 -28 -83 -28q-41 0 -64.5 23.5t-23.5 64.5q0 14 3 29l98 555h56l-95 -542q-5 -23 -5 -44t9.5 -29.5t30.5 -8.5q30 0 59 18zM313 666h69l-16 -89l-47 -83h-32l43 83h-32z" />
    <glyph glyph-name="Ldot" unicode="&#x13f;" horiz-adv-x="537" 
d="M477 50l-9 -50h-408l118 666h58l-109 -616h350zM400 327l-16 -94h-73l16 94h73z" />
    <glyph glyph-name="ldot" unicode="&#x140;" horiz-adv-x="368" 
d="M221 22q-33 -28 -83 -28q-41 0 -64.5 23.5t-23.5 64.5q0 14 3 29l98 555h56l-95 -542q-5 -23 -5 -44t9.5 -29.5t30.5 -8.5q30 0 59 18zM348 344l-16 -94h-73l16 94h73z" />
    <glyph glyph-name="Lslash" unicode="&#x141;" horiz-adv-x="554" 
d="M485 0h-408l50 283l-97 -57l10 59l98 57l57 324h58l-51 -286l202 117l-10 -59l-202 -118l-48 -270h350z" />
    <glyph glyph-name="lslash" unicode="&#x142;" horiz-adv-x="277" 
d="M148 -6q-89 0 -89 78q0 14 3 27l45 263l-67 -40l11 56l66 39l45 249h56l-39 -218l90 52l-11 -56l-89 -52l-51 -294q-1 -8 -1 -21q0 -37 40 -37q30 0 59 19l16 -38q-32 -27 -84 -27z" />
    <glyph glyph-name="Nacute" unicode="&#x143;" horiz-adv-x="727" 
d="M707 666l-118 -666h-57l-314 577l-102 -577h-56l118 666h56l314 -576l102 576h57zM400 722l108 121h79l-130 -121h-57z" />
    <glyph glyph-name="nacute" unicode="&#x144;" 
d="M503 391q0 -25 -4 -45l-61 -346h-56l59 333q6 34 6 53q0 31 -16.5 44t-49.5 13q-52 0 -99.5 -37t-79.5 -93.5t-53 -112.5t-30 -104l-17 -96h-57l86 487h57l-27 -154q40 69 101.5 116t133.5 47q107 0 107 -105zM273 543l108 121h79l-130 -121h-57z" />
    <glyph glyph-name="uni0145" unicode="&#x145;" horiz-adv-x="727" 
d="M707 666l-118 -666h-57l-314 577l-102 -577h-56l118 666h56l314 -576l102 576h57zM284 -60h68l-15 -87l-48 -82h-33l44 82h-31z" />
    <glyph glyph-name="uni0146" unicode="&#x146;" 
d="M503 391q0 -25 -4 -45l-61 -346h-56l59 333q6 34 6 53q0 31 -16.5 44t-49.5 13q-52 0 -99.5 -37t-79.5 -93.5t-53 -112.5t-30 -104l-17 -96h-57l86 487h57l-27 -154q40 69 101.5 116t133.5 47q107 0 107 -105zM212 -60h68l-15 -87l-48 -82h-33l44 82h-31z" />
    <glyph glyph-name="Ncaron" unicode="&#x147;" horiz-adv-x="727" 
d="M707 666l-118 -666h-57l-314 577l-102 -577h-56l118 666h56l314 -576l102 576h57zM339 843h51l61 -88l92 88h57l-128 -121h-47z" />
    <glyph glyph-name="ncaron" unicode="&#x148;" 
d="M503 391q0 -25 -4 -45l-61 -346h-56l59 333q6 34 6 53q0 31 -16.5 44t-49.5 13q-52 0 -99.5 -37t-79.5 -93.5t-53 -112.5t-30 -104l-17 -96h-57l86 487h57l-27 -154q40 69 101.5 116t133.5 47q107 0 107 -105zM211 664h51l61 -88l92 88h57l-128 -121h-47z" />
    <glyph glyph-name="napostrophe" unicode="&#x149;" horiz-adv-x="657" 
d="M602 391q0 -25 -4 -45l-61 -346h-56l59 333q6 34 6 53q0 31 -16.5 44t-49.5 13q-52 0 -99.5 -37t-79.5 -93.5t-53 -112.5t-30 -104l-17 -96h-57l86 487h57l-27 -154q40 69 101.5 116t133.5 47q107 0 107 -105zM91 666h69l-16 -89l-47 -83h-32l43 83h-32z" />
    <glyph glyph-name="Eng" unicode="&#x14a;" horiz-adv-x="727" 
d="M435 -181q-40 0 -68 13l11 44q28 -9 61 -9q41 0 59 21t26 66l8 46l-314 577l-102 -577h-56l118 666h56l314 -576l102 576h57l-125 -708q-13 -72 -48 -105.5t-99 -33.5z" />
    <glyph glyph-name="eng" unicode="&#x14b;" 
d="M284 -181q-40 0 -68 13l11 43q28 -9 61 -9q38 0 58 22t28 66l67 379q6 34 6 53q0 31 -16.5 44t-49.5 13q-52 0 -99.5 -37t-79.5 -93.5t-53 -112.5t-30 -104l-17 -96h-57l86 487h57l-27 -154q40 69 101.5 116t133.5 47q107 0 107 -105q0 -25 -4 -45l-68 -388
q-13 -72 -48 -105.5t-99 -33.5z" />
    <glyph glyph-name="Omacron" unicode="&#x14c;" horiz-adv-x="719" 
d="M641 398q0 100 -55.5 164t-153.5 64q-92 0 -165.5 -55.5t-111 -138.5t-37.5 -173q0 -102 54.5 -161t155.5 -59q88 0 161.5 54.5t112.5 136.5t39 168zM699 403q0 -105 -48.5 -199.5t-137 -154.5t-194.5 -60q-118 0 -188.5 77t-70.5 196q0 106 48.5 200.5t137 154
t195.5 59.5q118 0 188 -76.5t70 -196.5zM322 763l8 43h272l-7 -43h-273z" />
    <glyph glyph-name="omacron" unicode="&#x14d;" horiz-adv-x="517" 
d="M482 300q0 -120 -74.5 -214t-187.5 -94q-83 0 -129 54.5t-46 139.5q0 132 76 221t187 89q84 0 129 -54.5t45 -141.5zM426 302q0 68 -31.5 106t-94.5 38q-79 0 -139 -73.5t-60 -191.5q0 -66 31.5 -102.5t95.5 -36.5q83 0 140.5 75t57.5 185zM189 584l8 43h272l-7 -43h-273
z" />
    <glyph glyph-name="Obreve" unicode="&#x14e;" horiz-adv-x="719" 
d="M641 398q0 100 -55.5 164t-153.5 64q-92 0 -165.5 -55.5t-111 -138.5t-37.5 -173q0 -102 54.5 -161t155.5 -59q88 0 161.5 54.5t112.5 136.5t39 168zM699 403q0 -105 -48.5 -199.5t-137 -154.5t-194.5 -60q-118 0 -188.5 77t-70.5 196q0 106 48.5 200.5t137 154
t195.5 59.5q118 0 188 -76.5t70 -196.5zM352 836h40q-5 -35 13.5 -56t59.5 -21t68 20.5t35 56.5h41q-9 -50 -49 -80t-98 -30q-56 0 -86 30.5t-24 79.5z" />
    <glyph glyph-name="obreve" unicode="&#x14f;" horiz-adv-x="517" 
d="M482 300q0 -120 -74.5 -214t-187.5 -94q-83 0 -129 54.5t-46 139.5q0 132 76 221t187 89q84 0 129 -54.5t45 -141.5zM426 302q0 68 -31.5 106t-94.5 38q-79 0 -139 -73.5t-60 -191.5q0 -66 31.5 -102.5t95.5 -36.5q83 0 140.5 75t57.5 185zM215 657h40q-5 -35 13.5 -56
t59.5 -21t68 20.5t35 56.5h41q-9 -50 -49 -80t-98 -30q-56 0 -86 30.5t-24 79.5z" />
    <glyph glyph-name="Ohungarumlaut" unicode="&#x150;" horiz-adv-x="719" 
d="M641 398q0 100 -55.5 164t-153.5 64q-92 0 -165.5 -55.5t-111 -138.5t-37.5 -173q0 -102 54.5 -161t155.5 -59q88 0 161.5 54.5t112.5 136.5t39 168zM699 403q0 -105 -48.5 -199.5t-137 -154.5t-194.5 -60q-118 0 -188.5 77t-70.5 196q0 106 48.5 200.5t137 154
t195.5 59.5q118 0 188 -76.5t70 -196.5zM324 722l101 121h71l-123 -121h-49zM513 722l101 121h71l-122 -121h-50z" />
    <glyph glyph-name="ohungarumlaut" unicode="&#x151;" horiz-adv-x="517" 
d="M482 300q0 -120 -74.5 -214t-187.5 -94q-83 0 -129 54.5t-46 139.5q0 132 76 221t187 89q84 0 129 -54.5t45 -141.5zM426 302q0 68 -31.5 106t-94.5 38q-79 0 -139 -73.5t-60 -191.5q0 -66 31.5 -102.5t95.5 -36.5q83 0 140.5 75t57.5 185zM191 543l101 121h71l-123 -121
h-49zM380 543l101 121h71l-122 -121h-50z" />
    <glyph glyph-name="OE" unicode="&#x152;" horiz-adv-x="1019" 
d="M1029 666l-9 -50h-384l-43 -246h358l-9 -51h-358l-48 -269h383l-9 -50h-590q-118 0 -189 72.5t-71 191.5q0 166 107 284t271 118h591zM578 616h-149q-135 0 -223 -105t-88 -243q0 -99 56.5 -158.5t154.5 -59.5h149z" />
    <glyph glyph-name="oe" unicode="&#x153;" horiz-adv-x="855" 
d="M830 392q0 -72 -91.5 -115t-262.5 -54q-5 -86 40.5 -133.5t120.5 -47.5q69 0 142 28l13 -43q-75 -35 -162 -35q-66 0 -120 35t-77 95q-36 -60 -91 -95t-122 -35q-83 0 -129 54.5t-46 139.5q0 132 76 221t187 89q126 0 163 -117q79 117 219 117q66 0 103 -30t37 -74z
M427 302q0 67 -32 105.5t-95 38.5q-79 0 -139 -73.5t-60 -191.5q0 -66 31.5 -102.5t95.5 -36.5q83 0 141 75t58 185zM772 388q0 25 -21.5 41.5t-68.5 16.5q-71 0 -125 -48.5t-72 -125.5q127 5 207 36.5t80 79.5z" />
    <glyph glyph-name="Racute" unicode="&#x154;" horiz-adv-x="688" 
d="M590 506q0 52 -34.5 81t-86.5 29h-242l-49 -278h242q70 0 120 49t50 119zM648 508q0 -79 -53 -138t-131 -74l166 -296h-65l-162 290h-234l-51 -290h-58l118 666h300q72 0 121 -43.5t49 -114.5zM364 722l108 121h79l-130 -121h-57z" />
    <glyph glyph-name="racute" unicode="&#x155;" horiz-adv-x="341" 
d="M361 495l-8 -51q-71 -8 -139.5 -109.5t-93.5 -238.5l-18 -96h-57l86 487h57l-28 -157q77 149 201 165zM211 543l108 121h79l-130 -121h-57z" />
    <glyph glyph-name="uni0156" unicode="&#x156;" horiz-adv-x="688" 
d="M590 506q0 52 -34.5 81t-86.5 29h-242l-49 -278h242q70 0 120 49t50 119zM648 508q0 -79 -53 -138t-131 -74l166 -296h-65l-162 290h-234l-51 -290h-58l118 666h300q72 0 121 -43.5t49 -114.5zM279 -60h68l-15 -87l-48 -82h-33l44 82h-31z" />
    <glyph glyph-name="uni0157" unicode="&#x157;" horiz-adv-x="341" 
d="M361 495l-8 -51q-71 -8 -139.5 -109.5t-93.5 -238.5l-18 -96h-57l86 487h57l-28 -157q77 149 201 165zM33 -60h68l-15 -87l-48 -82h-33l44 82h-31z" />
    <glyph glyph-name="Rcaron" unicode="&#x158;" horiz-adv-x="688" 
d="M590 506q0 52 -34.5 81t-86.5 29h-242l-49 -278h242q70 0 120 49t50 119zM648 508q0 -79 -53 -138t-131 -74l166 -296h-65l-162 290h-234l-51 -290h-58l118 666h300q72 0 121 -43.5t49 -114.5zM294 843h51l61 -88l92 88h57l-128 -121h-47z" />
    <glyph glyph-name="rcaron" unicode="&#x159;" horiz-adv-x="341" 
d="M361 495l-8 -51q-71 -8 -139.5 -109.5t-93.5 -238.5l-18 -96h-57l86 487h57l-28 -157q77 149 201 165zM142 664h51l61 -88l92 88h57l-128 -121h-47z" />
    <glyph glyph-name="Sacute" unicode="&#x15a;" horiz-adv-x="616" 
d="M606 644l-14 -46q-112 28 -207 28q-29 0 -47.5 -1t-44.5 -4t-42 -11.5t-32 -21.5t-23.5 -34.5t-7.5 -50.5q0 -39 37 -69.5t89.5 -52.5t105 -45.5t89.5 -60.5t37 -85q0 -54 -24 -94.5t-64.5 -63t-86.5 -33t-97 -10.5q-121 0 -244 52l16 45q116 -47 235 -47q50 0 94 12
t78 46.5t34 85.5q0 39 -37 69.5t-89.5 53t-105.5 46.5t-90 61.5t-37 86.5q0 46 16 79.5t40 51.5t61.5 28.5t70 13.5t76.5 3q119 0 214 -32zM359 722l108 121h79l-130 -121h-57z" />
    <glyph glyph-name="sacute" unicode="&#x15b;" horiz-adv-x="436" 
d="M404 471l-11 -44q-71 19 -132 19q-29 0 -47 -2t-37.5 -8t-29 -21t-9.5 -39q0 -10 1.5 -18t6.5 -16t8.5 -13t15.5 -14t18.5 -13.5t25 -17t28.5 -19.5q87 -60 107 -82q22 -26 22 -56q0 -63 -51.5 -99t-130.5 -36q-36 0 -84.5 12.5t-84.5 33.5l18 44q88 -40 157 -40
q55 0 88.5 21.5t33.5 60.5q0 22 -20 40t-75 54q-11 7 -17 11q-61 39 -91 72t-30 74q0 65 46 93t136 28q71 0 138 -25zM230 543l108 121h79l-130 -121h-57z" />
    <glyph glyph-name="Scircumflex" unicode="&#x15c;" horiz-adv-x="616" 
d="M606 644l-14 -46q-112 28 -207 28q-29 0 -47.5 -1t-44.5 -4t-42 -11.5t-32 -21.5t-23.5 -34.5t-7.5 -50.5q0 -39 37 -69.5t89.5 -52.5t105 -45.5t89.5 -60.5t37 -85q0 -54 -24 -94.5t-64.5 -63t-86.5 -33t-97 -10.5q-121 0 -244 52l16 45q116 -47 235 -47q50 0 94 12
t78 46.5t34 85.5q0 39 -37 69.5t-89.5 53t-105.5 46.5t-90 61.5t-37 86.5q0 46 16 79.5t40 51.5t61.5 28.5t70 13.5t76.5 3q119 0 214 -32zM268 722l128 121h47l85 -121h-51l-60 87l-93 -87h-56z" />
    <glyph glyph-name="scircumflex" unicode="&#x15d;" horiz-adv-x="436" 
d="M404 471l-11 -44q-71 19 -132 19q-29 0 -47 -2t-37.5 -8t-29 -21t-9.5 -39q0 -10 1.5 -18t6.5 -16t8.5 -13t15.5 -14t18.5 -13.5t25 -17t28.5 -19.5q87 -60 107 -82q22 -26 22 -56q0 -63 -51.5 -99t-130.5 -36q-36 0 -84.5 12.5t-84.5 33.5l18 44q88 -40 157 -40
q55 0 88.5 21.5t33.5 60.5q0 22 -20 40t-75 54q-11 7 -17 11q-61 39 -91 72t-30 74q0 65 46 93t136 28q71 0 138 -25zM137 543l128 121h47l85 -121h-51l-60 87l-93 -87h-56z" />
    <glyph glyph-name="uni015E" unicode="&#x15e;" horiz-adv-x="616" 
d="M247 -181q-42 0 -75 14l10 32q28 -11 57 -11q57 0 57 32q0 29 -40 29q-32 0 -52 -4l36 79q-106 6 -210 51l16 45q116 -47 235 -47q50 0 94 12t78 46.5t34 85.5q0 39 -37 69.5t-89.5 53t-105.5 46.5t-90 61.5t-37 86.5q0 46 16 79.5t40 51.5t61.5 28.5t70 13.5t76.5 3
q119 0 214 -32l-14 -46q-112 28 -207 28q-29 0 -47.5 -1t-44.5 -4t-42 -11.5t-32 -21.5t-23.5 -34.5t-7.5 -50.5q0 -39 37 -69.5t89.5 -52.5t105 -45.5t89.5 -60.5t37 -85q0 -54 -24 -94.5t-64.5 -63t-86.5 -33t-97 -10.5l-19 -42q10 2 21 2q29 0 47.5 -16.5t18.5 -43.5
q0 -34 -26.5 -52t-68.5 -18z" />
    <glyph glyph-name="uni015F" unicode="&#x15f;" horiz-adv-x="436" 
d="M165 -181q-42 0 -75 14l10 32q28 -11 57 -11q57 0 57 32q0 29 -40 29q-32 0 -52 -4l37 83q-78 9 -139 44l18 44q88 -40 157 -40q55 0 88.5 21.5t33.5 60.5q0 22 -20 40t-75 54q-11 7 -17 11q-61 39 -91 72t-30 74q0 65 46 93t136 28q71 0 138 -25l-11 -44q-71 19 -132 19
q-29 0 -47 -2t-37.5 -8t-29 -21t-9.5 -39q0 -10 1.5 -18t6.5 -16t8.5 -13t15.5 -14t18.5 -13.5t25 -17t28.5 -19.5q87 -60 107 -82q22 -26 22 -56q0 -63 -51 -99t-127 -36l-20 -45q10 2 21 2q29 0 47.5 -16.5t18.5 -43.5q0 -34 -26.5 -52t-68.5 -18z" />
    <glyph glyph-name="Scaron" unicode="&#x160;" horiz-adv-x="616" 
d="M606 644l-14 -46q-112 28 -207 28q-29 0 -47.5 -1t-44.5 -4t-42 -11.5t-32 -21.5t-23.5 -34.5t-7.5 -50.5q0 -39 37 -69.5t89.5 -52.5t105 -45.5t89.5 -60.5t37 -85q0 -54 -24 -94.5t-64.5 -63t-86.5 -33t-97 -10.5q-121 0 -244 52l16 45q116 -47 235 -47q50 0 94 12
t78 46.5t34 85.5q0 39 -37 69.5t-89.5 53t-105.5 46.5t-90 61.5t-37 86.5q0 46 16 79.5t40 51.5t61.5 28.5t70 13.5t76.5 3q119 0 214 -32zM291 843h51l61 -88l92 88h57l-128 -121h-47z" />
    <glyph glyph-name="scaron" unicode="&#x161;" horiz-adv-x="436" 
d="M404 471l-11 -44q-71 19 -132 19q-29 0 -47 -2t-37.5 -8t-29 -21t-9.5 -39q0 -10 1.5 -18t6.5 -16t8.5 -13t15.5 -14t18.5 -13.5t25 -17t28.5 -19.5q87 -60 107 -82q22 -26 22 -56q0 -63 -51.5 -99t-130.5 -36q-36 0 -84.5 12.5t-84.5 33.5l18 44q88 -40 157 -40
q55 0 88.5 21.5t33.5 60.5q0 22 -20 40t-75 54q-11 7 -17 11q-61 39 -91 72t-30 74q0 65 46 93t136 28q71 0 138 -25zM154 664h51l61 -88l92 88h57l-128 -121h-47z" />
    <glyph glyph-name="Tcommaaccent" unicode="&#x162;" horiz-adv-x="545" 
d="M600 666l-9 -50h-229l-109 -616h-58l109 616h-229l9 50h516zM181 -60h68l-15 -87l-48 -82h-33l44 82h-31z" />
    <glyph glyph-name="tcommaaccent" unicode="&#x163;" horiz-adv-x="318" 
d="M303 487l-9 -51h-100l-58 -329q-7 -38 2 -53.5t34 -15.5q40 0 84 22l16 -38q-50 -30 -106 -30q-107 0 -83 135l54 309h-67l9 51h67l25 138h57l-25 -138h100zM115 -60h68l-15 -87l-48 -82h-33l44 82h-31z" />
    <glyph glyph-name="Tcaron" unicode="&#x164;" horiz-adv-x="545" 
d="M600 666l-9 -50h-229l-109 -616h-58l109 616h-229l9 50h516zM237 843h51l61 -88l92 88h57l-128 -121h-47z" />
    <glyph glyph-name="tcaron" unicode="&#x165;" horiz-adv-x="345" 
d="M303 487l-9 -51h-100l-58 -329q-7 -38 2 -53.5t34 -15.5q40 0 84 22l16 -38q-50 -30 -106 -30q-107 0 -83 135l54 309h-67l9 51h67l25 138h57l-25 -138h100zM339 727h69l-14 -78l-41 -69h-32l37 69h-32z" />
    <glyph glyph-name="Tbar" unicode="&#x166;" horiz-adv-x="545" 
d="M455 321h-145l-57 -321h-58l57 321h-143l9 49h142l44 246h-229l9 50h516l-9 -50h-229l-44 -246h146z" />
    <glyph glyph-name="tbar" unicode="&#x167;" horiz-adv-x="318" 
d="M272 22q-50 -30 -106 -30q-107 0 -83 135l20 112h-65l8 51h65l26 146h-67l9 51h67l25 138h57l-25 -138h100l-9 -51h-100l-26 -146h101l-8 -51h-102l-23 -132q-7 -38 2 -53.5t34 -15.5q40 0 84 22z" />
    <glyph glyph-name="Utilde" unicode="&#x168;" horiz-adv-x="704" 
d="M694 666l-77 -433q-21 -115 -103 -179.5t-201 -64.5q-98 0 -160.5 51t-62.5 146q0 27 4 47l77 433h59l-77 -437q-4 -21 -4 -48q0 -142 173 -142q92 0 157 50.5t80 139.5l77 437h58zM285 744q28 89 89 89q29 0 79 -28q49 -28 62 -28t22.5 8.5t13.5 17t15 33.5l36 -13
q-15 -43 -34.5 -66t-50.5 -23q-22 0 -79 31q-4 2 -13 7.5t-13.5 7.5t-11.5 5t-13 4t-13 1q-19 0 -30 -13t-24 -46z" />
    <glyph glyph-name="utilde" unicode="&#x169;" 
d="M513 487l-86 -487h-57l26 155q-40 -69 -101.5 -116t-133.5 -47q-106 0 -106 104q0 26 4 46l61 345h56l-60 -332q-6 -34 -6 -52q0 -58 67 -58q42 0 81 25t68 63.5t52.5 86.5t38 91.5t21.5 80.5l18 95h57zM170 565q28 89 89 89q29 0 79 -28q49 -28 62 -28t22.5 8.5t13.5 17
t15 33.5l36 -13q-15 -43 -34.5 -66t-50.5 -23q-22 0 -79 31q-4 2 -13 7.5t-13.5 7.5t-11.5 5t-13 4t-13 1q-19 0 -30 -13t-24 -46z" />
    <glyph glyph-name="Umacron" unicode="&#x16a;" horiz-adv-x="704" 
d="M694 666l-77 -433q-21 -115 -103 -179.5t-201 -64.5q-98 0 -160.5 51t-62.5 146q0 27 4 47l77 433h59l-77 -437q-4 -21 -4 -48q0 -142 173 -142q92 0 157 50.5t80 139.5l77 437h58zM315 763l8 43h272l-7 -43h-273z" />
    <glyph glyph-name="umacron" unicode="&#x16b;" 
d="M513 487l-86 -487h-57l26 155q-40 -69 -101.5 -116t-133.5 -47q-106 0 -106 104q0 26 4 46l61 345h56l-60 -332q-6 -34 -6 -52q0 -58 67 -58q42 0 81 25t68 63.5t52.5 86.5t38 91.5t21.5 80.5l18 95h57zM205 584l8 43h272l-7 -43h-273z" />
    <glyph glyph-name="Ubreve" unicode="&#x16c;" horiz-adv-x="704" 
d="M694 666l-77 -433q-21 -115 -103 -179.5t-201 -64.5q-98 0 -160.5 51t-62.5 146q0 27 4 47l77 433h59l-77 -437q-4 -21 -4 -48q0 -142 173 -142q92 0 157 50.5t80 139.5l77 437h58zM336 836h40q-5 -35 13.5 -56t59.5 -21t68 20.5t35 56.5h41q-9 -50 -49 -80t-98 -30
q-56 0 -86 30.5t-24 79.5z" />
    <glyph glyph-name="ubreve" unicode="&#x16d;" 
d="M513 487l-86 -487h-57l26 155q-40 -69 -101.5 -116t-133.5 -47q-106 0 -106 104q0 26 4 46l61 345h56l-60 -332q-6 -34 -6 -52q0 -58 67 -58q42 0 81 25t68 63.5t52.5 86.5t38 91.5t21.5 80.5l18 95h57zM223 657h40q-5 -35 13.5 -56t59.5 -21t68 20.5t35 56.5h41
q-9 -50 -49 -80t-98 -30q-56 0 -86 30.5t-24 79.5z" />
    <glyph glyph-name="Uring" unicode="&#x16e;" horiz-adv-x="704" 
d="M694 666l-77 -433q-21 -115 -103 -179.5t-201 -64.5q-98 0 -160.5 51t-62.5 146q0 27 4 47l77 433h59l-77 -437q-4 -21 -4 -48q0 -142 173 -142q92 0 157 50.5t80 139.5l77 437h58zM439 722q-30 0 -48.5 18t-18.5 46q0 34 23 56.5t63 22.5q28 0 47 -18t19 -45
q0 -35 -23.5 -57.5t-61.5 -22.5zM441 748q26 0 40.5 15t14.5 36q0 17 -11 28.5t-29 11.5q-26 0 -40.5 -14.5t-14.5 -37.5q0 -17 10.5 -28t29.5 -11z" />
    <glyph glyph-name="uring" unicode="&#x16f;" 
d="M513 487l-86 -487h-57l26 155q-40 -69 -101.5 -116t-133.5 -47q-106 0 -106 104q0 26 4 46l61 345h56l-60 -332q-6 -34 -6 -52q0 -58 67 -58q42 0 81 25t68 63.5t52.5 86.5t38 91.5t21.5 80.5l18 95h57zM330 543q-30 0 -48.5 18t-18.5 46q0 34 23 56.5t63 22.5
q28 0 47 -18t19 -45q0 -35 -23.5 -57.5t-61.5 -22.5zM332 569q26 0 40.5 15t14.5 36q0 17 -11 28.5t-29 11.5q-25 0 -40 -15t-15 -37q0 -17 10.5 -28t29.5 -11z" />
    <glyph glyph-name="Uhungarumlaut" unicode="&#x170;" horiz-adv-x="704" 
d="M694 666l-77 -433q-21 -115 -103 -179.5t-201 -64.5q-98 0 -160.5 51t-62.5 146q0 27 4 47l77 433h59l-77 -437q-4 -21 -4 -48q0 -142 173 -142q92 0 157 50.5t80 139.5l77 437h58zM305 722l101 121h71l-123 -121h-49zM494 722l101 121h71l-122 -121h-50z" />
    <glyph glyph-name="uhungarumlaut" unicode="&#x171;" 
d="M513 487l-86 -487h-57l26 155q-40 -69 -101.5 -116t-133.5 -47q-106 0 -106 104q0 26 4 46l61 345h56l-60 -332q-6 -34 -6 -52q0 -58 67 -58q42 0 81 25t68 63.5t52.5 86.5t38 91.5t21.5 80.5l18 95h57zM201 543l101 121h71l-123 -121h-49zM390 543l101 121h71l-122 -121
h-50z" />
    <glyph glyph-name="Uogonek" unicode="&#x172;" horiz-adv-x="704" 
d="M376 -181q-37 0 -56 19t-19 48q0 33 19.5 61.5t48.5 45.5q-24 -4 -56 -4q-98 0 -160.5 51t-62.5 146q0 27 4 47l77 433h59l-77 -437q-4 -21 -4 -48q0 -142 173 -142q92 0 157 50.5t80 139.5l77 437h58l-77 -433q-14 -76 -55 -127t-111 -90q-104 -57 -104 -125
q0 -38 43 -38q18 0 35 6l-1 -31q-18 -9 -48 -9z" />
    <glyph glyph-name="uogonek" unicode="&#x173;" 
d="M370 0l26 155q-40 -69 -101.5 -116t-133.5 -47q-106 0 -106 104q0 26 4 46l61 345h56l-60 -332q-6 -34 -6 -52q0 -58 67 -58q42 0 81 25t68 63.5t52.5 86.5t38 91.5t21.5 80.5l18 95h57l-86 -487h-26q-81 -53 -81 -109q0 -38 43 -38q19 0 35 6l-1 -31q-18 -9 -48 -9
q-37 0 -56 19t-19 48q0 37 26.5 67.5t69.5 46.5z" />
    <glyph glyph-name="Wcircumflex" unicode="&#x174;" horiz-adv-x="864" 
d="M929 666l-312 -666h-48l-71 596l-285 -596h-48l-75 666h51l62 -575l278 575h56l71 -575l264 573zM384 722l128 121h47l85 -121h-51l-60 87l-93 -87h-56z" />
    <glyph glyph-name="wcircumflex" unicode="&#x175;" horiz-adv-x="662" 
d="M692 487l-229 -487h-52l-49 416l-194 -416h-52l-66 487h50l51 -418l196 418h54l49 -410l183 410h59zM242 543l128 121h47l85 -121h-51l-60 87l-93 -87h-56z" />
    <glyph glyph-name="Ycircumflex" unicode="&#x176;" horiz-adv-x="592" 
d="M682 666l-339 -395l-48 -271h-59l48 271l-199 395h60l175 -345l293 345h69zM261 722l128 121h47l85 -121h-51l-60 87l-93 -87h-56z" />
    <glyph glyph-name="ycircumflex" unicode="&#x177;" horiz-adv-x="454" 
d="M484 487l-377 -660h-54l100 173l-113 487h54l93 -428l238 428h59zM129 543l128 121h47l85 -121h-51l-60 87l-93 -87h-56z" />
    <glyph glyph-name="Ydieresis" unicode="&#x178;" horiz-adv-x="592" 
d="M682 666l-339 -395l-48 -271h-59l48 271l-199 395h60l175 -345l293 345h69zM456 743l14 79h60l-14 -79h-60zM266 743l14 79h60l-14 -79h-60z" />
    <glyph glyph-name="Zacute" unicode="&#x179;" horiz-adv-x="638" 
d="M668 666l-9 -51l-565 -566h463l-6 -49h-531l9 51l561 567h-447l9 48h516zM350 722l108 121h79l-130 -121h-57z" />
    <glyph glyph-name="zacute" unicode="&#x17a;" horiz-adv-x="487" 
d="M472 487l-9 -51l-377 -388h319l-9 -48h-381l9 51l377 390h-299l9 46h361zM253 543l108 121h79l-130 -121h-57z" />
    <glyph glyph-name="Zdotaccent" unicode="&#x17b;" horiz-adv-x="638" 
d="M668 666l-9 -51l-565 -566h463l-6 -49h-531l9 51l561 567h-447l9 48h516zM377 739l16 91h59l-16 -91h-59z" />
    <glyph glyph-name="zdotaccent" unicode="&#x17c;" horiz-adv-x="487" 
d="M472 487l-9 -51l-377 -388h319l-9 -48h-381l9 51l377 390h-299l9 46h361zM263 560l16 91h59l-16 -91h-59z" />
    <glyph glyph-name="Zcaron" unicode="&#x17d;" horiz-adv-x="638" 
d="M668 666l-9 -51l-565 -566h463l-6 -49h-531l9 51l561 567h-447l9 48h516zM300 843h51l61 -88l92 88h57l-128 -121h-47z" />
    <glyph glyph-name="zcaron" unicode="&#x17e;" horiz-adv-x="487" 
d="M472 487l-9 -51l-377 -388h319l-9 -48h-381l9 51l377 390h-299l9 46h361zM182 664h51l61 -88l92 88h57l-128 -121h-47z" />
    <glyph glyph-name="uni0192" unicode="&#x192;" horiz-adv-x="441" 
d="M461 681l-16 -45q-37 7 -61 7q-77 0 -95 -99l-10 -57h113l-9 -47h-112l-83 -470q-14 -83 -59.5 -117t-102.5 -34q-27 0 -51 8l17 45q27 -5 44 -5q77 0 95 98l83 475h-75l9 47h75l9 53q14 83 59.5 117t102.5 34q32 0 67 -10z" />
    <glyph glyph-name="Aringacute" unicode="&#x1fa;" horiz-adv-x="635" 
d="M405 811l64 71h76l-85 -71h-55zM400 666q26 0 40.5 15t14.5 36q0 17 -11 28.5t-29 11.5q-25 0 -40 -14.5t-15 -37.5q0 -17 10.5 -28t29.5 -11zM472 234l-81 366l-208 -366h289zM154 187l-107 -187h-61l382 646q-37 16 -37 58q0 34 23 56.5t63 22.5q28 0 47 -18t19 -45
q0 -58 -56 -76l153 -644h-56l-41 187h-329z" />
    <glyph glyph-name="aringacute" unicode="&#x1fb;" horiz-adv-x="524" 
d="M492 487l-86 -487h-57l26 149q-32 -68 -87.5 -112.5t-118.5 -44.5q-67 0 -98 43.5t-31 118.5q0 80 28.5 156.5t88 131t137.5 54.5q65 0 135 -42l5 33h58zM420 400q-58 45 -122 45q-91 0 -146.5 -88t-55.5 -203q0 -57 19.5 -84.5t63.5 -27.5q76 0 145.5 107t94.5 242
q0 1 0.5 4t0.5 5zM340 535q-30 0 -48.5 18t-18.5 46q0 34 23 56.5t63 22.5q28 0 47 -18t19 -45q0 -35 -23.5 -57.5t-61.5 -22.5zM342 561q26 0 40.5 15t14.5 36q0 17 -11 28.5t-29 11.5q-25 0 -40 -15t-15 -37q0 -17 10.5 -28t29.5 -11zM343 709l64 71h76l-85 -71h-55z" />
    <glyph glyph-name="AEacute" unicode="&#x1fc;" horiz-adv-x="849" 
d="M427 234l-38 363l-209 -363h247zM859 666l-9 -50h-418l29 -246h321l-9 -50h-306l30 -270h253l-9 -50h-289l-20 187h-281l-107 -187h-59l395 666h479zM401 722l108 121h79l-130 -121h-57z" />
    <glyph glyph-name="aeacute" unicode="&#x1fd;" horiz-adv-x="817" 
d="M792 391q0 -71 -91 -114t-263 -54q-5 -86 40.5 -133.5t120.5 -47.5q69 0 142 28l13 -43q-75 -35 -162 -35q-62 0 -113 31t-77 84q-29 -51 -85 -83t-132 -32q-62 0 -103.5 33.5t-41.5 89.5q0 73 47.5 115t134.5 42h165l10 57q10 55 -18 86t-104 31q-55 0 -149 -15l-4 46
q76 19 163 19q141 0 167 -93q78 93 200 93q66 0 103 -30.5t37 -74.5zM378 222h-161q-123 0 -123 -106q0 -36 26.5 -55t71.5 -19q74 0 122 38t58 105zM733 387q0 25 -21.5 42t-67.5 17q-71 0 -125 -48.5t-72 -125.5q127 5 206.5 36t79.5 79zM437 543l108 121h79l-130 -121
h-57z" />
    <glyph glyph-name="Oslashacute" unicode="&#x1fe;" horiz-adv-x="819" 
d="M643 552q-58 74 -162 74q-89 0 -162.5 -53.5t-112 -135t-38.5 -169.5q0 -72 30 -128zM690 399q0 70 -29 125l-445 -411q58 -74 161 -74q87 0 160.5 55t113 137.5t39.5 167.5zM799 652l-94 -87q44 -68 44 -163q0 -164 -110 -288.5t-271 -124.5q-122 0 -195 85l-92 -85
l-21 24l94 86q-44 70 -44 164q0 167 108 290t272 123q123 0 196 -85l91 84zM457 722l108 121h79l-130 -121h-57z" />
    <glyph glyph-name="oslashacute" unicode="&#x1ff;" horiz-adv-x="614" 
d="M579 475l-65 -61q29 -48 29 -115q0 -120 -79 -213.5t-196 -93.5q-88 0 -140 59l-62 -59l-21 21l65 61q-29 48 -29 115q0 122 75.5 214.5t199.5 92.5q88 0 140 -59l62 59zM455 399q-37 47 -107 47q-95 0 -153 -77t-58 -176q0 -42 16 -78zM487 294q0 43 -16 79l-302 -284
q37 -47 107 -47q89 0 150 78t61 174zM331 543l108 121h79l-130 -121h-57z" />
    <glyph glyph-name="uni0218" unicode="&#x218;" horiz-adv-x="616" 
d="M606 644l-14 -46q-112 28 -207 28q-29 0 -47.5 -1t-44.5 -4t-42 -11.5t-32 -21.5t-23.5 -34.5t-7.5 -50.5q0 -39 37 -69.5t89.5 -52.5t105 -45.5t89.5 -60.5t37 -85q0 -54 -24 -94.5t-64.5 -63t-86.5 -33t-97 -10.5q-121 0 -244 52l16 45q116 -47 235 -47q50 0 94 12
t78 46.5t34 85.5q0 39 -37 69.5t-89.5 53t-105.5 46.5t-90 61.5t-37 86.5q0 46 16 79.5t40 51.5t61.5 28.5t70 13.5t76.5 3q119 0 214 -32zM226 -60h68l-15 -87l-48 -82h-33l44 82h-31z" />
    <glyph glyph-name="uni0219" unicode="&#x219;" horiz-adv-x="436" 
d="M404 471l-11 -44q-71 19 -132 19q-29 0 -47 -2t-37.5 -8t-29 -21t-9.5 -39q0 -10 1.5 -18t6.5 -16t8.5 -13t15.5 -14t18.5 -13.5t25 -17t28.5 -19.5q87 -60 107 -82q22 -26 22 -56q0 -63 -51.5 -99t-130.5 -36q-36 0 -84.5 12.5t-84.5 33.5l18 44q88 -40 157 -40
q55 0 88.5 21.5t33.5 60.5q0 22 -20 40t-75 54q-11 7 -17 11q-61 39 -91 72t-30 74q0 65 46 93t136 28q71 0 138 -25zM143 -60h68l-15 -87l-48 -82h-33l44 82h-31z" />
    <glyph glyph-name="circumflex" unicode="&#x2c6;" horiz-adv-x="411" 
d="M123 543l128 121h47l85 -121h-51l-60 87l-93 -87h-56z" />
    <glyph glyph-name="caron" unicode="&#x2c7;" horiz-adv-x="411" 
d="M143 664h51l61 -88l92 88h57l-128 -121h-47z" />
    <glyph glyph-name="breve" unicode="&#x2d8;" horiz-adv-x="406" 
d="M143 657h40q-5 -35 13.5 -56t59.5 -21t68 20.5t35 56.5h41q-9 -50 -49 -80t-98 -30q-56 0 -86 30.5t-24 79.5z" />
    <glyph glyph-name="dotaccent" unicode="&#x2d9;" horiz-adv-x="209" 
d="M123 560l16 91h59l-16 -91h-59z" />
    <glyph glyph-name="ring" unicode="&#x2da;" horiz-adv-x="301" 
d="M199 543q-30 0 -48.5 18t-18.5 46q0 34 23 56.5t63 22.5q28 0 47 -18t19 -45q0 -35 -23.5 -57.5t-61.5 -22.5zM201 569q26 0 40.5 15t14.5 36q0 17 -11 28.5t-29 11.5q-26 0 -40.5 -15t-14.5 -37q0 -17 10.5 -28t29.5 -11z" />
    <glyph glyph-name="ogonek" unicode="&#x2db;" horiz-adv-x="284" 
d="M128 0h31q-81 -53 -81 -109q0 -38 43 -38q19 0 35 6l-1 -31q-18 -9 -48 -9q-37 0 -56 19t-19 48q0 37 26.5 67.5t69.5 46.5z" />
    <glyph glyph-name="tilde" unicode="&#x2dc;" horiz-adv-x="454" 
d="M125 565q28 89 89 89q29 0 79 -28q49 -28 62 -28t22.5 8.5t13.5 17t15 33.5l36 -13q-15 -43 -34.5 -66t-50.5 -23q-22 0 -79 31q-4 2 -13 7.5t-13.5 7.5t-11.5 5t-13 4t-13 1q-19 0 -30 -13t-24 -46z" />
    <glyph glyph-name="hungarumlaut" unicode="&#x2dd;" horiz-adv-x="489" 
d="M127 543l101 121h71l-123 -121h-49zM316 543l101 121h71l-122 -121h-50z" />
    <glyph glyph-name="uni0312" unicode="&#x312;" horiz-adv-x="312" 
d="M124 543l131 121h52l-109 -121h-74z" />
    <glyph glyph-name="uni0315" unicode="&#x315;" horiz-adv-x="219" 
d="M154 666h69l-16 -89l-47 -83h-32l43 83h-32z" />
    <glyph glyph-name="uni0326" unicode="&#x326;" horiz-adv-x="216" 
d="M37 -60h68l-15 -87l-48 -82h-33l44 82h-31z" />
    <glyph glyph-name="uni03A9" unicode="&#x3a9;" horiz-adv-x="612" 
d="M552 246l-36 -30l-310 379l-50 -283h-41l63 354h351l-8 -42h-280z" />
    <glyph glyph-name="pi" unicode="&#x3c0;" horiz-adv-x="592" 
d="M527 354l-63 -354h-352l8 42h281l-311 378l36 30l310 -379l50 283h41z" />
    <glyph glyph-name="Wgrave" unicode="&#x1e80;" horiz-adv-x="864" 
d="M929 666l-312 -666h-48l-71 596l-285 -596h-48l-75 666h51l62 -575l278 575h56l71 -575l264 573zM483 722l-88 121h67l68 -121h-47z" />
    <glyph glyph-name="wgrave" unicode="&#x1e81;" horiz-adv-x="662" 
d="M692 487l-229 -487h-52l-49 416l-194 -416h-52l-66 487h50l51 -418l196 418h54l49 -410l183 410h59zM339 543l-88 121h67l68 -121h-47z" />
    <glyph glyph-name="Wacute" unicode="&#x1e82;" horiz-adv-x="864" 
d="M929 666l-312 -666h-48l-71 596l-285 -596h-48l-75 666h51l62 -575l278 575h56l71 -575l264 573zM498 722l108 121h79l-130 -121h-57z" />
    <glyph glyph-name="wacute" unicode="&#x1e83;" horiz-adv-x="662" 
d="M692 487l-229 -487h-52l-49 416l-194 -416h-52l-66 487h50l51 -418l196 418h54l49 -410l183 410h59zM361 543l108 121h79l-130 -121h-57z" />
    <glyph glyph-name="Wdieresis" unicode="&#x1e84;" horiz-adv-x="864" 
d="M929 666l-312 -666h-48l-71 596l-285 -596h-48l-75 666h51l62 -575l278 575h56l71 -575l264 573zM586 743l14 79h60l-14 -79h-60zM396 743l14 79h60l-14 -79h-60z" />
    <glyph glyph-name="wdieresis" unicode="&#x1e85;" horiz-adv-x="662" 
d="M692 487l-229 -487h-52l-49 416l-194 -416h-52l-66 487h50l51 -418l196 418h54l49 -410l183 410h59zM448 564l14 79h60l-14 -79h-60zM258 564l14 79h60l-14 -79h-60z" />
    <glyph glyph-name="Ygrave" unicode="&#x1ef2;" horiz-adv-x="592" 
d="M682 666l-339 -395l-48 -271h-59l48 271l-199 395h60l175 -345l293 345h69zM342 722l-88 121h67l68 -121h-47z" />
    <glyph glyph-name="ygrave" unicode="&#x1ef3;" horiz-adv-x="454" 
d="M484 487l-377 -660h-54l100 173l-113 487h54l93 -428l238 428h59zM231 543l-88 121h67l68 -121h-47z" />
    <glyph glyph-name="endash" unicode="&#x2013;" horiz-adv-x="556" 
d="M516 300l-10 -56h-441l10 56h441z" />
    <glyph glyph-name="emdash" unicode="&#x2014;" horiz-adv-x="783" 
d="M743 300l-10 -56h-668l10 56h668z" />
    <glyph glyph-name="quoteleft" unicode="&#x2018;" horiz-adv-x="198" 
d="M203 666l-55 -107h42l-17 -93h-73l17 94l54 106h32z" />
    <glyph glyph-name="quoteright" unicode="&#x2019;" horiz-adv-x="198" 
d="M223 666l-17 -94l-55 -106h-31l54 107h-41l17 93h73z" />
    <glyph glyph-name="quotesinglbase" unicode="&#x201a;" horiz-adv-x="233" 
d="M138 94l-17 -94l-55 -106h-31l54 106h-41l17 94h73z" />
    <glyph glyph-name="quotedblleft" unicode="&#x201c;" horiz-adv-x="352" 
d="M357 666l-55 -107h42l-17 -93h-73l17 94l54 106h32zM203 666l-55 -107h42l-17 -93h-73l17 94l54 106h32z" />
    <glyph glyph-name="quotedblright" unicode="&#x201d;" horiz-adv-x="352" 
d="M377 666l-17 -94l-55 -106h-31l54 107h-41l17 93h73zM223 666l-17 -94l-55 -106h-31l54 107h-41l17 93h73z" />
    <glyph glyph-name="quotedblbase" unicode="&#x201e;" horiz-adv-x="387" 
d="M292 94l-17 -94l-55 -106h-31l54 106h-41l17 94h73zM138 94l-17 -94l-55 -106h-31l54 106h-41l17 94h73z" />
    <glyph glyph-name="dagger" unicode="&#x2020;" horiz-adv-x="485" 
d="M480 516l-11 -60l-177 26l-2 -64l-3 -129l-108 -420h-2l14 140l27 280l43 129l21 64l-187 -26l11 60l177 -26l4 176h63l-57 -176z" />
    <glyph glyph-name="daggerdbl" unicode="&#x2021;" horiz-adv-x="570" 
d="M565 516l-10 -60l-178 26l-6 -193l-17 -96l-61 -192l186 25l-10 -59l-178 26l-4 -176h-64l58 176l-186 -26l10 59l178 -25l3 192l17 96l64 193l-186 -26l10 60l178 -26l4 176h63l-57 -176z" />
    <glyph glyph-name="bullet" unicode="&#x2022;" horiz-adv-x="320" 
d="M295 357q0 -45 -32 -77t-76 -32t-75.5 32t-31.5 77t31.5 76.5t75.5 31.5t76 -31.5t32 -76.5z" />
    <glyph glyph-name="ellipsis" unicode="&#x2026;" horiz-adv-x="708" 
d="M618 94l-16 -94h-73l16 94h73zM139 94l-16 -94h-73l16 94h73zM378 94l-16 -94h-73l16 94h73z" />
    <glyph glyph-name="perthousand" unicode="&#x2030;" horiz-adv-x="1215" 
d="M807 158q0 -69 -43 -119t-111 -50q-67 0 -110 50t-43 119t43 120t110 51t110.5 -51t43.5 -120zM396 506q0 -69 -42.5 -120t-109.5 -51t-110.5 51t-43.5 120t43 119.5t111 50.5q67 0 109.5 -50.5t42.5 -119.5zM1190 158q0 -69 -43 -119t-110 -50t-110 50t-43 119t43 120
t110 51t110 -51t43 -120zM763 158q0 53 -29 93.5t-81 40.5q-51 0 -80 -40.5t-29 -93.5t28.5 -92.5t80.5 -39.5t81 39.5t29 92.5zM1146 158q0 53 -29 93.5t-80 40.5q-52 0 -81 -40.5t-29 -93.5t29.5 -92.5t80.5 -39.5q52 0 80.5 39.5t28.5 92.5zM353 506q0 53 -28.5 92.5
t-80.5 39.5q-51 0 -80.5 -39.5t-29.5 -92.5t29 -93t81 -40q51 0 80 40t29 93zM647 666l-353 -666h-44l353 666h44z" />
    <glyph glyph-name="guilsinglleft" unicode="&#x2039;" horiz-adv-x="396" 
d="M351 459l-239 -215l163 -215l-35 -29l-185 244l271 243z" />
    <glyph glyph-name="guilsinglright" unicode="&#x203a;" horiz-adv-x="396" 
d="M356 244l-271 -244l-25 29l239 215l-163 215l35 28z" />
    <glyph glyph-name="fraction" unicode="&#x2044;" horiz-adv-x="446" 
d="M526 666l-512 -666h-24l513 666h23z" />
    <glyph glyph-name="Euro" unicode="&#x20ac;" horiz-adv-x="713" 
d="M728 651l-13 -46q-81 21 -152 21q-107 0 -195 -54.5t-133 -150.5h214l-7 -40h-223q-17 -50 -18 -99h223l-7 -40h-214q12 -99 82.5 -151t173.5 -52q74 0 148 17l9 -44q-81 -23 -163 -23q-123 0 -210 67t-99 186h-114l7 40h106q1 49 17 99h-105l7 40h114q53 119 157 187
t242 68q83 0 153 -25z" />
    <glyph glyph-name="trademark" unicode="&#x2122;" horiz-adv-x="678" 
d="M683 666v-305h-25v259l-109 -219h-15l-110 219v-259h-24v305h24l117 -232l117 232h25zM331 666v-22h-109v-283h-25v283h-107v22h241z" />
    <glyph glyph-name="partialdiff" unicode="&#x2202;" horiz-adv-x="588" 
d="M578 425l-30 -29l-198 199v-534h-42v534l-199 -198l-29 28l249 251z" />
    <glyph glyph-name="Delta" unicode="&#x2206;" horiz-adv-x="588" 
d="M563 240l-249 -251l-249 251l30 29l198 -199v534h42v-534l199 198z" />
    <glyph glyph-name="product" unicode="&#x220f;" horiz-adv-x="602" 
d="M582 420l-443 -378h281l-8 -42h-352l63 354h41l-50 -283l444 379z" />
    <glyph glyph-name="summation" unicode="&#x2211;" horiz-adv-x="602" 
d="M582 420l-443 -378h281l-8 -42h-352l63 354h41l-50 -283l444 379z" />
    <glyph glyph-name="minus" unicode="&#x2212;" horiz-adv-x="346" 
d="M306 300v-56h-241v56h241z" />
    <glyph glyph-name="radical" unicode="&#x221a;" horiz-adv-x="742" 
d="M702 318l-294 -250l-24 29l233 200h-532l8 42h532l-163 199l34 30z" />
    <glyph glyph-name="infinity" unicode="&#x221e;" horiz-adv-x="742" 
d="M702 339l-8 -42h-532l163 -200l-34 -29l-206 250l294 250l24 -30l-233 -199h532z" />
    <glyph glyph-name="integral" unicode="&#x222b;" horiz-adv-x="592" 
d="M527 354l-63 -354h-352l8 42h281l-311 378l36 30l310 -379l50 283h41z" />
    <glyph glyph-name="approxequal" unicode="&#x2248;" horiz-adv-x="612" 
d="M602 666l-63 -354h-41l50 283l-444 -379l-24 30l443 378h-280l8 42h351z" />
    <glyph glyph-name="notequal" unicode="&#x2260;" horiz-adv-x="874" 
d="M784 666v-332h-333v-334h-331v666h664z" />
    <glyph glyph-name="lessequal" unicode="&#x2264;" horiz-adv-x="742" 
d="M702 339l-8 -42h-532l163 -200l-34 -29l-206 250l294 250l24 -30l-233 -199h532z" />
    <glyph glyph-name="greaterequal" unicode="&#x2265;" horiz-adv-x="742" 
d="M702 318l-294 -250l-24 29l233 200h-532l8 42h532l-163 199l34 30z" />
    <glyph glyph-name="lozenge" unicode="&#x25ca;" horiz-adv-x="742" 
d="M702 318l-294 -250l-24 29l233 200h-532l8 42h532l-163 199l34 30z" />
    <glyph glyph-name="apple" horiz-adv-x="874" 
d="M784 666v-332h-333v-334h-331v666h664z" />
    <glyph glyph-name="nbspace" horiz-adv-x="210" 
 />
    <glyph glyph-name="i.dot" horiz-adv-x="228" 
d="M185 487l-86 -487h-56l86 487h56zM139 560l16 91h59l-16 -91h-59z" />
    </font>
</defs>
</svg>
