<?xml version="1.0" standalone="no"?>
<!DOCTYPE svg PUBLIC "-//W3C//DTD SVG 1.1//EN" "http://www.w3.org/Graphics/SVG/1.1/DTD/svg11.dtd" >
<svg>
<metadata>
Created by FontForge 20120731 at Fri Aug 19 20:56:59 2016
 By ,,,
(c) 2015 Process Type Foundry. All Rights Reserved.
</metadata>
<defs>
<font id="Locator-UltraLightItalic" horiz-adv-x="547" >
  <font-face 
    font-family="Locator Ultralight"
    font-weight="200"
    font-style="italic"
    font-stretch="normal"
    units-per-em="1000"
    panose-1="2 0 5 0 2 0 0 9 0 4"
    ascent="750"
    descent="-250"
    x-height="487"
    cap-height="666"
    bbox="-108 -208 1169 877"
    underline-thickness="20"
    underline-position="-103"
    unicode-range="U+0020-FB02"
  />
<missing-glyph horiz-adv-x="646" 
d="M90 0v666h466v-666h-466zM507 616h-340l340 -527v527zM139 576v-527h339z" />
    <glyph glyph-name="fi" unicode="fi" horiz-adv-x="470" 
d="M357 683l-7 -25q-33 6 -62 6q-48 0 -70 -25.5t-32 -83.5l-12 -68h119l-5 -30h-119l-81 -457h-31l81 457h-79l5 30h79l14 78q13 69 44.5 97.5t93.5 28.5q36 0 62 -8zM432 487l-86 -487h-31l86 487h31zM463 660l-16 -90h-31l16 90h31z" />
    <glyph glyph-name="fl" unicode="fl" horiz-adv-x="517" 
d="M357 683l-7 -25q-33 6 -62 6q-48 0 -70 -25.5t-32 -83.5l-12 -68h119l-5 -30h-119l-81 -457h-31l81 457h-79l5 30h79l14 78q13 69 44.5 97.5t93.5 28.5q36 0 62 -8zM476 18q-30 -27 -75 -27q-73 0 -73 65q0 8 2 22l103 588h30l-103 -593q-1 -6 -1 -18q0 -37 42 -37
q31 0 64 21z" />
    <glyph glyph-name=".notdef" horiz-adv-x="646" 
d="M90 0v666h466v-666h-466zM507 616h-340l340 -527v527zM139 576v-527h339z" />
    <glyph glyph-name=".null" horiz-adv-x="0" 
 />
    <glyph glyph-name="nonmarkingreturn" horiz-adv-x="333" 
 />
    <glyph glyph-name="space" unicode=" " horiz-adv-x="210" 
 />
    <glyph glyph-name="exclam" unicode="!" horiz-adv-x="253" 
d="M226 666l-46 -258l-57 -267h-17l37 267l46 258h37zM130 92l-17 -92h-46l17 92h46z" />
    <glyph glyph-name="quotedbl" unicode="&#x22;" horiz-adv-x="301" 
d="M294 666l-38 -213h-31l38 213h31zM186 666l-38 -213h-31l38 213h31z" />
    <glyph glyph-name="numbersign" unicode="#" horiz-adv-x="632" 
d="M620 444l-7 -23h-125l-47 -156h125l-7 -23h-125l-74 -242h-25l72 242h-185l-74 -242h-26l73 242h-138l7 23h138l47 156h-138l7 23h138l67 222h26l-66 -222h185l67 222h26l-66 -222h125zM462 421h-187l-46 -156h185z" />
    <glyph glyph-name="dollar" unicode="$" horiz-adv-x="585" 
d="M573 646l-7 -23q-108 30 -194 30q-104 0 -157 -31.5t-53 -112.5q0 -46 33.5 -74.5t123.5 -75.5q105 -54 148.5 -92t43.5 -89q0 -84 -65 -135.5t-171 -54.5l-16 -89h-30l16 89q-56 2 -116 16.5t-97 33.5l9 23q113 -48 226 -48q92 0 153 43t61 116q0 43 -37 78.5t-141 86.5
q-93 45 -130.5 82.5t-37.5 87.5q0 90 59.5 129.5t173.5 41.5l17 98h30l-17 -98q100 -5 175 -32z" />
    <glyph glyph-name="percent" unicode="%" horiz-adv-x="814" 
d="M392 508q0 -64 -41 -116t-109 -52t-109 52t-41 116t41 116t109 52t109 -52t41 -116zM787 158q0 -64 -41.5 -115t-109.5 -51t-109 51t-41 115t41 116t109 52t109.5 -52t41.5 -116zM758 158q0 58 -33 100.5t-89 42.5t-88.5 -42.5t-32.5 -100.5t32.5 -100t88.5 -42t89 42
t33 100zM363 508q0 58 -32.5 100.5t-88.5 42.5t-88.5 -42.5t-32.5 -100.5t32.5 -100.5t88.5 -42.5t88.5 42.5t32.5 100.5zM627 666l-349 -666h-26l348 666h27z" />
    <glyph glyph-name="ampersand" unicode="&#x26;" horiz-adv-x="642" 
d="M600 332q-64 -143 -141 -221l63 -111h-34l-51 89q-40 -41 -101.5 -70.5t-121.5 -29.5q-70 0 -116 40t-46 107q0 88 55.5 150.5t159.5 108.5q-47 90 -47 138q0 68 39.5 105.5t100.5 37.5q46 0 74 -27t28 -67q0 -58 -37.5 -104.5t-120.5 -92.5l143 -251q63 62 131 206z
M424 112l-144 259v1h-1q-102 -47 -149.5 -103.5t-47.5 -133.5q0 -58 38.5 -88.5t100.5 -30.5q48 0 102.5 25.5t100.5 70.5zM433 576q0 31 -19 52.5t-56 21.5q-46 0 -78 -30t-32 -81q0 -48 45 -130q140 71 140 167z" />
    <glyph glyph-name="quotesingle" unicode="'" horiz-adv-x="193" 
d="M186 666l-38 -213h-31l38 213h31z" />
    <glyph glyph-name="parenleft" unicode="(" horiz-adv-x="320" 
d="M358 746q-235 -268 -235 -572q0 -160 80 -312l-26 -16q-85 158 -85 322q0 317 246 594z" />
    <glyph glyph-name="parenright" unicode=")" horiz-adv-x="320" 
d="M263 440q0 -317 -246 -594l-20 16q235 268 235 572q0 160 -80 312l26 16q85 -158 85 -322z" />
    <glyph glyph-name="asterisk" unicode="*" horiz-adv-x="418" 
d="M421 562l-151 -63l129 -63l-25 -34l-115 86l-16 -156h-37l39 156l-145 -86l-13 34l152 63l-130 63l25 34l115 -86l16 156h37l-39 -156l146 86z" />
    <glyph glyph-name="plus" unicode="+" horiz-adv-x="599" 
d="M552 223h-222v-223h-31v223h-222v31h222v223h31v-223h222v-31z" />
    <glyph glyph-name="comma" unicode="," horiz-adv-x="215" 
d="M118 94l-17 -94l-42 -97h-22l42 98h-23l17 93h45z" />
    <glyph glyph-name="hyphen" unicode="-" horiz-adv-x="327" 
d="M285 295l-6 -35h-212l6 35h212z" />
    <glyph glyph-name="period" unicode="." horiz-adv-x="205" 
d="M113 94l-16 -94h-45l16 94h45z" />
    <glyph glyph-name="slash" unicode="/" horiz-adv-x="436" 
d="M454 676l-428 -793h-24l428 793h24z" />
    <glyph glyph-name="zero" unicode="0" horiz-adv-x="584" 
d="M552 433q0 -185 -90.5 -314.5t-209.5 -129.5q-88 0 -134 63t-46 169q0 196 87.5 320.5t211.5 124.5q90 0 135.5 -63t45.5 -170zM521 434q0 94 -39 149.5t-115 55.5q-106 0 -185.5 -117t-79.5 -304q0 -202 155 -202q99 0 181.5 117.5t82.5 300.5z" />
    <glyph glyph-name="one" unicode="1" horiz-adv-x="373" 
d="M326 656l-116 -656h-31l111 628l-187 -34l-1 24l192 38h32z" />
    <glyph glyph-name="two" unicode="2" horiz-adv-x="573" 
d="M536 541q0 -76 -47 -132t-146 -110q-92 -51 -138.5 -79.5t-77 -60t-40 -57t-17.5 -73.5h392l-5 -29h-423l9 49q15 81 63 130t187 124q119 65 166 114.5t47 122.5q0 97 -173 97q-69 0 -173 -25l-4 27q98 27 192 27q95 0 141.5 -34.5t46.5 -90.5z" />
    <glyph glyph-name="three" unicode="3" horiz-adv-x="527" 
d="M493 535q0 -61 -41.5 -110.5t-101.5 -71.5q52 -14 85.5 -52t33.5 -90q0 -17 -2 -26q-16 -94 -93.5 -145t-177.5 -51t-169 27l9 25q78 -23 165 -23q92 0 164.5 52t72.5 139q0 31 -10.5 54.5t-33 37t-42.5 22t-55 11t-54.5 3.5t-56.5 0t-45 -1l5 29h128q73 0 130 48.5
t57 120.5q0 39 -23.5 63.5t-54.5 32.5t-70 8q-71 0 -156 -20l-5 24q83 24 163 24q73 0 125.5 -31.5t52.5 -99.5z" />
    <glyph glyph-name="four" unicode="4" horiz-adv-x="590" 
d="M533 224l-6 -29h-114l-34 -195h-31l34 195h-352l5 27l432 434h28l-76 -432h114zM455 603l-377 -379h310z" />
    <glyph glyph-name="five" unicode="5" horiz-adv-x="571" 
d="M549 656l-6 -29h-298l-82 -260q82 41 173 41q75 0 123.5 -41.5t48.5 -115.5q0 -111 -83.5 -186.5t-194.5 -75.5q-94 0 -185 47l11 24q92 -42 179 -42q98 0 169.5 67t71.5 164q0 64 -40 97t-105 33q-54 0 -93.5 -12.5t-91.5 -41.5l-22 11l102 320h323z" />
    <glyph glyph-name="six" unicode="6" horiz-adv-x="560" 
d="M543 660l-6 -27q-44 4 -68 4q-152 0 -237 -90t-123 -249q83 111 216 111q77 0 124.5 -41t47.5 -117q0 -103 -74 -182.5t-176 -79.5q-89 0 -134.5 53.5t-45.5 144.5q0 43 7 81q69 398 410 398q30 0 59 -6zM465 247q0 66 -39 100t-106 34q-91 0 -158 -61.5t-67 -151.5
q0 -71 42.5 -111.5t114.5 -40.5q89 0 151 70.5t62 160.5z" />
    <glyph glyph-name="seven" unicode="7" horiz-adv-x="486" 
d="M524 656l-5 -29l-405 -627h-35l406 627h-365l5 29h399z" />
    <glyph glyph-name="eight" unicode="8" horiz-adv-x="575" 
d="M545 530q0 -60 -39.5 -108t-98.5 -71q51 -15 82 -52.5t31 -88.5q0 -98 -81 -159.5t-182 -61.5q-82 0 -138.5 41t-56.5 119q0 74 49 129t123 73q-84 38 -84 124q0 87 69 139t158 52q70 0 119 -34.5t49 -101.5zM488 207q0 65 -50.5 97t-119.5 32q-89 0 -157 -49.5
t-68 -135.5q0 -67 49 -101t120 -34q86 0 156 53.5t70 137.5zM513 525q0 55 -42 84t-99 29q-75 0 -132.5 -44.5t-57.5 -116.5q0 -57 41 -84.5t101 -27.5q74 0 131.5 44.5t57.5 115.5z" />
    <glyph glyph-name="nine" unicode="9" horiz-adv-x="566" 
d="M534 468q0 -38 -8 -81q-32 -183 -133 -290.5t-278 -107.5q-31 0 -58 9l6 26q37 -7 66 -7q75 0 137 26.5t105.5 73.5t72.5 106.5t45 132.5q-36 -52 -92 -81t-120 -29q-77 0 -124.5 47t-47.5 124q0 107 71 178t177 71q90 0 135.5 -53t45.5 -145zM504 487q0 71 -42 111.5
t-114 40.5q-92 0 -152 -66t-60 -159q0 -67 39 -103.5t107 -36.5q91 0 156.5 61.5t65.5 151.5z" />
    <glyph glyph-name="colon" unicode=":" horiz-adv-x="218" 
d="M181 477l-16 -92h-45l16 92h45zM113 92l-16 -92h-45l16 92h45z" />
    <glyph glyph-name="semicolon" unicode=";" horiz-adv-x="217" 
d="M112 93l-17 -94l-41 -96h-22l41 97h-22l16 93h45zM180 477l-17 -92h-45l17 92h45z" />
    <glyph glyph-name="less" unicode="&#x3c;" horiz-adv-x="569" 
d="M507 -7l-470 240v24l470 238v-32l-436 -219l436 -220v-31z" />
    <glyph glyph-name="equal" unicode="=" horiz-adv-x="534" 
d="M482 310h-415v29h415v-29zM482 135h-415v29h415v-29z" />
    <glyph glyph-name="greater" unicode="&#x3e;" horiz-adv-x="569" 
d="M552 233l-470 -240v31l436 220l-436 219v32l470 -238v-24z" />
    <glyph glyph-name="question" unicode="?" horiz-adv-x="454" 
d="M447 573q0 -37 -18.5 -82.5t-40 -81t-63 -86.5t-60.5 -72.5t-61 -65.5q-8 -9 -12 -13l-19 15q114 125 157 185q84 118 84 196q0 25 -10.5 42t-30 24.5t-38.5 10t-44 2.5q-77 0 -179 -19v25q92 23 187 23q148 0 148 -103zM188 92l-17 -92h-46l17 92h46z" />
    <glyph glyph-name="at" unicode="@" horiz-adv-x="705" 
d="M648 41q-133 -52 -258 -52q-134 0 -216 72t-82 204q0 72 23 144t64.5 132t106.5 97.5t141 37.5q150 0 150 -134q0 -25 -5 -55l-54 -308h-26l16 96q-22 -43 -56.5 -72t-77.5 -29q-81 0 -81 103q0 80 43 149.5t118 69.5q48 0 87 -30q9 59 9 79q0 59 -32.5 82.5t-94.5 23.5
q-69 0 -128 -36t-96.5 -93t-58.5 -123.5t-21 -131.5q0 -125 74 -189t201 -64q115 0 246 48zM537 442q-36 33 -86 33q-43 0 -75 -35t-46 -79t-14 -85q0 -80 57 -80q36 0 66.5 26t50 67t31 79.5t16.5 73.5z" />
    <glyph glyph-name="A" unicode="A" horiz-adv-x="616" 
d="M475 228l-92 389l-230 -389h322zM559 0h-30l-48 201h-343l-120 -201h-33l398 666h16z" />
    <glyph glyph-name="B" unicode="B" horiz-adv-x="640" 
d="M618 532q0 -62 -37.5 -111.5t-97.5 -70.5q99 -34 99 -130q0 -99 -69 -159.5t-169 -60.5h-282l118 666h247q51 0 90.5 -10t70 -41.5t30.5 -82.5zM551 214q0 60 -39 89t-102 29h-257l-54 -305h252q83 0 141.5 52.5t58.5 134.5zM586 527q0 59 -43 85.5t-106 26.5h-230
l-49 -280h226q80 0 141 45t61 123z" />
    <glyph glyph-name="C" unicode="C" horiz-adv-x="626" 
d="M639 658l-7 -25q-65 16 -145 16q-77 0 -146.5 -24.5t-125.5 -70.5t-89 -120t-33 -166q0 -118 77.5 -185t197.5 -67q82 0 154 18l4 -24q-74 -21 -152 -21q-142 0 -227 76.5t-85 202.5q0 183 121 295.5t312 112.5q81 0 144 -18z" />
    <glyph glyph-name="D" unicode="D" horiz-adv-x="644" 
d="M601 387q0 119 -88 184.5t-211 65.5h-97l-107 -608h97q99 0 191.5 43.5t153.5 127.5t61 187zM632 389q0 -113 -66 -204t-167 -138t-212 -47h-125l117 666h125q135 0 231.5 -73t96.5 -204z" />
    <glyph glyph-name="E" unicode="E" horiz-adv-x="600" 
d="M608 666l-5 -29h-396l-49 -276h370l-5 -29h-370l-54 -303h396l-5 -29h-428l118 666h428z" />
    <glyph glyph-name="F" unicode="F" horiz-adv-x="587" 
d="M615 666l-5 -29h-403l-49 -276h376l-5 -29h-376l-59 -332h-32l118 666h435z" />
    <glyph glyph-name="G" unicode="G" horiz-adv-x="684" 
d="M652 661l-4 -25q-77 13 -162 13q-61 0 -116.5 -13t-106 -43t-88 -74t-59.5 -109.5t-22 -146.5q0 -116 76.5 -181.5t205.5 -65.5q69 0 159 22l43 244h31l-46 -260q-86 -33 -192 -33q-138 0 -223.5 74.5t-85.5 200.5q0 195 119.5 303.5t310.5 108.5q90 0 160 -15z" />
    <glyph glyph-name="H" unicode="H" horiz-adv-x="667" 
d="M645 666l-117 -666h-31l58 332h-404l-58 -332h-31l117 666h31l-54 -305h404l54 305h31z" />
    <glyph glyph-name="I" unicode="I" horiz-adv-x="243" 
d="M216 666l-118 -666h-31l118 666h31z" />
    <glyph glyph-name="J" unicode="J" horiz-adv-x="454" 
d="M442 666l-85 -483q-15 -82 -67.5 -132.5t-143.5 -50.5h-126l6 29h124q79 0 121 43.5t54 110.5l80 454h-254l5 29h286z" />
    <glyph glyph-name="K" unicode="K" horiz-adv-x="594" 
d="M627 666l-442 -324l351 -342h-43l-340 332l-59 -332h-32l118 666h32l-55 -310l425 310h45z" />
    <glyph glyph-name="L" unicode="L" horiz-adv-x="518" 
d="M456 29l-5 -29h-389l118 666h31l-113 -637h358z" />
    <glyph glyph-name="M" unicode="M" horiz-adv-x="787" 
d="M766 666l-118 -666h-30l108 608l-347 -530h-20l-160 533l-108 -611h-29l118 666h31l163 -550l359 550h33z" />
    <glyph glyph-name="N" unicode="N" horiz-adv-x="716" 
d="M694 666l-118 -666h-28l-347 621l-110 -621h-29l118 666h29l347 -621l109 621h29z" />
    <glyph glyph-name="O" unicode="O" horiz-adv-x="707" 
d="M654 401q0 107 -59.5 177.5t-164.5 70.5q-97 0 -176 -59.5t-120 -148.5t-41 -184q0 -108 59 -174.5t166 -66.5q97 0 175.5 57.5t119.5 145t41 182.5zM685 404q0 -106 -45.5 -200.5t-132 -154.5t-193.5 -60q-118 0 -185 74.5t-67 193.5q0 106 45.5 201.5t132.5 156.5
t195 61q116 0 183 -77t67 -195z" />
    <glyph glyph-name="P" unicode="P" horiz-adv-x="611" 
d="M631 516q0 -18 -3 -34q-15 -85 -77.5 -135t-149.5 -50h-256l-52 -297h-31l117 666h286q73 0 119.5 -39.5t46.5 -110.5zM600 515q0 58 -36.5 90t-95.5 32h-263l-55 -311h264q77 0 131.5 55.5t54.5 133.5z" />
    <glyph glyph-name="Q" unicode="Q" horiz-adv-x="708" 
d="M686 408q0 -100 -44.5 -194.5t-128 -158t-185.5 -65.5l-32 -179h-29l32 179q-112 5 -174.5 79.5t-62.5 188.5q0 106 45 200.5t132 156t195 61.5q118 0 185 -74.5t67 -193.5zM654 403q0 108 -59.5 177t-165.5 69q-73 0 -137 -34.5t-106.5 -90.5t-67 -125.5t-24.5 -139.5
q0 -109 57.5 -176t166.5 -67q92 0 171 58.5t122 147t43 181.5z" />
    <glyph glyph-name="R" unicode="R" horiz-adv-x="679" 
d="M606 516q0 57 -37 89t-95 32h-269l-54 -307h269q75 0 130.5 55t55.5 131zM637 519q0 -82 -53 -141.5t-134 -73.5l170 -304h-37l-168 301q0 -1 -135 -1l-134 1l-53 -301h-31l117 666h292q73 0 119.5 -38t46.5 -109z" />
    <glyph glyph-name="S" unicode="S" horiz-adv-x="619" 
d="M607 645l-7 -25q-111 29 -213 29q-110 0 -166.5 -32t-56.5 -107q0 -47 37 -77t147 -79t154 -88t44 -88q0 -85 -75 -137t-190 -52q-127 0 -249 51l10 25q120 -49 241 -49q99 0 164.5 45t65.5 112q0 43 -38 78t-139 77q-117 48 -159.5 88.5t-42.5 93.5q0 166 256 166
q112 0 217 -31z" />
    <glyph glyph-name="T" unicode="T" horiz-adv-x="524" 
d="M577 666l-5 -29h-232l-113 -637h-31l113 637h-232l5 29h495z" />
    <glyph glyph-name="U" unicode="U" horiz-adv-x="685" 
d="M673 666l-79 -447q-19 -109 -98 -169.5t-192 -60.5q-93 0 -152.5 48.5t-59.5 138.5q0 24 4 43l79 447h31l-80 -452q-4 -28 -4 -42q0 -79 52.5 -117.5t134.5 -38.5q92 0 163.5 52.5t88.5 145.5l80 452h32z" />
    <glyph glyph-name="V" unicode="V" horiz-adv-x="572" 
d="M650 666l-389 -666h-17l-152 666h28l140 -614l360 614h30z" />
    <glyph glyph-name="W" unicode="W" horiz-adv-x="867" 
d="M930 666l-315 -666h-30l-77 650l-306 -650h-29l-81 666h29l72 -629l296 629h43l73 -629l297 629h28z" />
    <glyph glyph-name="X" unicode="X" horiz-adv-x="645" 
d="M698 666l-345 -334l225 -332h-34l-210 313l-321 -313h-36l341 333l-224 333h34l211 -313l322 313h37z" />
    <glyph glyph-name="Y" unicode="Y" horiz-adv-x="593" 
d="M681 666l-349 -387l-50 -279h-32l50 279l-213 387h32l199 -362l328 362h35z" />
    <glyph glyph-name="Z" unicode="Z" horiz-adv-x="638" 
d="M666 666l-6 -30l-595 -609h485l-5 -27h-523l5 30l598 609h-476l5 27h512z" />
    <glyph glyph-name="bracketleft" unicode="[" horiz-adv-x="270" 
d="M348 790l-5 -29h-112l-152 -858h112l-5 -29h-144l162 916h144z" />
    <glyph glyph-name="backslash" unicode="\" horiz-adv-x="438" 
d="M321 -117h-25l-149 793h25z" />
    <glyph glyph-name="bracketright" unicode="]" horiz-adv-x="270" 
d="M273 790l-162 -916h-144l5 29h112l152 858h-112l5 29h144z" />
    <glyph glyph-name="asciicircum" unicode="^" horiz-adv-x="444" 
d="M437 327h-28l-157 301l-157 -301h-28l181 339h8z" />
    <glyph glyph-name="underscore" unicode="_" horiz-adv-x="351" 
d="M361 -11l-2 -17h-369l2 17h369z" />
    <glyph glyph-name="grave" unicode="`" horiz-adv-x="297" 
d="M236 545l-81 117h37l70 -117h-26z" />
    <glyph glyph-name="a" unicode="a" horiz-adv-x="507" 
d="M473 487l-86 -487h-29l30 175q-35 -81 -95 -132t-128 -51q-125 0 -125 159q0 81 28 158t88 132t137 55q74 0 142 -52l7 43h31zM429 414q-61 55 -140 55q-93 0 -156.5 -97.5t-63.5 -222.5q0 -130 95 -130q94 0 161 100.5t98 258.5q4 20 6 36z" />
    <glyph glyph-name="b" unicode="b" horiz-adv-x="514" 
d="M480 337q0 -81 -28 -158t-88 -132t-137 -55q-73 0 -141 52l-8 -44h-31l117 666h29l-61 -354q36 82 94 133t129 51q125 0 125 -159zM451 339q0 130 -95 130t-162.5 -101t-96.5 -259q-4 -20 -6 -36q60 -54 141 -54q93 0 156 97.5t63 222.5z" />
    <glyph glyph-name="c" unicode="c" horiz-adv-x="423" 
d="M418 463l-12 -23q-59 29 -119 29q-90 0 -153 -81t-63 -212q0 -66 37.5 -111.5t100.5 -45.5q60 0 118 24l9 -24q-61 -27 -126 -27q-77 0 -122.5 54t-45.5 137q0 139 70 226t183 87q66 0 123 -33z" />
    <glyph glyph-name="d" unicode="d" horiz-adv-x="519" 
d="M512 666l-117 -666h-29l30 175q-38 -83 -96 -133t-128 -50q-125 0 -125 159q0 81 28 158t88 132t137 55q76 0 142 -50l40 220h30zM437 414q-61 55 -141 55q-93 0 -156.5 -97.5t-63.5 -222.5q0 -130 96 -130q63 0 116.5 49t89 129t53.5 181q4 20 6 36z" />
    <glyph glyph-name="e" unicode="e" horiz-adv-x="454" 
d="M427 398q0 -28 -12 -49t-46 -45.5t-107 -45.5t-184 -39q-11 -92 28 -146t116 -54q79 0 155 41l10 -22q-79 -46 -166 -46q-80 0 -127 54t-47 137q0 136 71 224.5t183 88.5q60 0 93 -28t33 -70zM396 398q0 29 -23.5 50t-74.5 21q-84 0 -141.5 -61t-74.5 -161q128 22 200 48
t93 49.5t21 53.5z" />
    <glyph glyph-name="f" unicode="f" horiz-adv-x="274" 
d="M357 683l-7 -25q-33 6 -62 6q-48 0 -70 -25.5t-32 -83.5l-12 -68h119l-5 -30h-119l-81 -457h-31l81 457h-79l5 30h79l14 78q13 69 44.5 97.5t93.5 28.5q36 0 62 -8z" />
    <glyph glyph-name="g" unicode="g" horiz-adv-x="525" 
d="M483 487l-84 -479q-32 -188 -234 -188q-71 0 -143 30l8 24q71 -27 135 -27q94 0 142.5 42t62.5 123l31 175q-35 -82 -94 -132.5t-130 -50.5q-126 0 -126 155q0 81 28 156.5t87.5 128t136.5 52.5q76 0 142 -51l8 42h30zM440 415q-60 54 -141 54q-93 0 -156 -93.5
t-63 -218.5q0 -126 96 -126q94 0 162 98t96 254q1 8 3 16.5t3 15.5z" />
    <glyph glyph-name="h" unicode="h" 
d="M490 404q0 -12 -4 -38l-64 -366h-30l65 366q4 24 4 36q0 65 -76 65q-59 0 -109.5 -30.5t-84.5 -80t-56 -104t-32 -110.5l-26 -142h-30l117 666h32l-61 -354q40 80 106.5 132t148.5 52q100 0 100 -92z" />
    <glyph glyph-name="i" unicode="i" horiz-adv-x="202" 
d="M164 487l-86 -487h-31l86 487h31zM195 660l-16 -90h-31l16 90h31z" />
    <glyph glyph-name="j" unicode="j" horiz-adv-x="218" 
d="M180 487l-96 -545q-11 -63 -42 -93t-88 -30q-32 0 -62 15l8 23q27 -11 61 -11q75 0 92 94l96 547h31zM211 660l-16 -90h-31l16 90h31z" />
    <glyph glyph-name="k" unicode="k" horiz-adv-x="434" 
d="M447 487l-307 -238l236 -249h-40l-218 230l-40 -230h-31l118 666h31l-70 -392l275 213h46z" />
    <glyph glyph-name="l" unicode="l" horiz-adv-x="247" 
d="M200 18q-30 -27 -75 -27q-73 0 -73 65q0 8 2 22l103 588h30l-103 -593q-1 -6 -1 -18q0 -37 42 -37q31 0 64 21z" />
    <glyph glyph-name="m" unicode="m" horiz-adv-x="873" 
d="M816 403q0 -12 -4 -38l-65 -365h-29l65 365q4 24 4 36q0 66 -76 66q-57 0 -106 -31.5t-81.5 -82t-54 -104t-30.5 -107.5l-25 -142h-29l65 366q4 24 4 36q0 65 -76 65q-57 0 -106.5 -31t-83 -81t-54.5 -104t-31 -109l-25 -142h-31l86 487h32l-30 -175q36 81 100.5 132.5
t146.5 51.5q100 0 100 -94q0 -20 -12 -87q35 78 100 129.5t146 51.5q100 0 100 -93z" />
    <glyph glyph-name="n" unicode="n" 
d="M490 402q0 -18 -3 -36l-65 -366h-29l65 366q4 24 4 36q0 36 -19.5 50.5t-57.5 14.5q-47 0 -89.5 -20.5t-73.5 -53.5t-56 -76.5t-40 -87t-23 -87.5l-25 -142h-31l86 487h32l-30 -175q40 81 106 132.5t149 51.5q100 0 100 -94z" />
    <glyph glyph-name="o" unicode="o" horiz-adv-x="503" 
d="M466 303q0 -121 -72 -216t-181 -95q-79 0 -122.5 53.5t-43.5 137.5q0 134 73 223.5t181 89.5q81 0 123 -53.5t42 -139.5zM437 308q0 74 -35 117.5t-105 43.5q-88 0 -154.5 -81.5t-66.5 -212.5q0 -70 38 -113t104 -43q89 0 154 85.5t65 203.5z" />
    <glyph glyph-name="p" unicode="p" horiz-adv-x="507" 
d="M470 337q0 -81 -28 -158t-88 -132t-137 -55q-76 0 -142 50l-38 -212h-30l115 658h30l-30 -175q35 82 93.5 132.5t129.5 50.5q125 0 125 -159zM441 339q0 130 -95 130t-162.5 -101t-96.5 -258q-1 -8 -3.5 -19t-3.5 -18q64 -54 141 -54q93 0 156.5 97.5t63.5 222.5z" />
    <glyph glyph-name="q" unicode="q" horiz-adv-x="515" 
d="M478 487l-116 -657h-29l60 345q-35 -82 -94 -132.5t-130 -50.5q-124 0 -124 159q0 81 28 158t88 132t137 55q73 0 141 -52l8 43h31zM434 414q-61 55 -141 55q-93 0 -156.5 -97.5t-63.5 -222.5q0 -130 96 -130q95 0 162.5 101t96.5 258q4 20 6 36z" />
    <glyph glyph-name="r" unicode="r" horiz-adv-x="326" 
d="M344 496l-2 -30q-84 -6 -151.5 -107.5t-89.5 -227.5l-23 -131h-31l86 487h32l-30 -173q34 74 88.5 125t120.5 57z" />
    <glyph glyph-name="s" unicode="s" horiz-adv-x="423" 
d="M389 475l-6 -24q-66 19 -128 19q-74 0 -107.5 -19.5t-33.5 -68.5q0 -35 21 -57t91 -68q54 -36 74.5 -51t37 -37.5t16.5 -48.5q0 -59 -52.5 -93.5t-117.5 -34.5q-80 0 -164 45l10 22q82 -41 156 -41q57 0 99 29t42 73q0 28 -24 50t-104 73q-63 40 -87.5 69.5t-24.5 69.5
q0 61 42.5 87.5t127.5 26.5q71 0 132 -21z" />
    <glyph glyph-name="t" unicode="t" horiz-adv-x="296" 
d="M276 487l-5 -27h-105l-65 -370q-3 -18 -3 -27q0 -45 46 -45q35 0 79 22l9 -22q-43 -26 -87 -26q-77 0 -77 73q0 16 4 36l64 359h-69l5 27h68l26 139h30l-25 -139h105z" />
    <glyph glyph-name="u" unicode="u" 
d="M500 487l-86 -487h-32l31 175q-39 -79 -107 -131t-149 -52q-100 0 -100 93q0 13 4 37l64 365h30l-65 -365q-4 -24 -4 -36q0 -66 76 -66q57 0 107.5 31t85 81t57 104.5t32.5 108.5l26 142h30z" />
    <glyph glyph-name="v" unicode="v" horiz-adv-x="441" 
d="M474 487l-283 -487h-32l-112 487h32l100 -456l262 456h33z" />
    <glyph glyph-name="w" unicode="w" horiz-adv-x="674" 
d="M702 487l-252 -487h-26l-56 440l-210 -440h-26l-80 487h32l67 -437l210 437h30l55 -427l225 427h31z" />
    <glyph glyph-name="x" unicode="x" horiz-adv-x="461" 
d="M484 487l-229 -235l154 -252h-34l-140 229l-221 -229h-37l243 252l-144 235h35l130 -214l207 214h36z" />
    <glyph glyph-name="y" unicode="y" horiz-adv-x="441" 
d="M469 487l-384 -660h-31l100 172l-112 488h33l99 -452l263 452h32z" />
    <glyph glyph-name="z" unicode="z" horiz-adv-x="485" 
d="M468 487l-5 -30l-410 -432h339l-2 -25h-373l5 30l409 431h-317l3 26h351z" />
    <glyph glyph-name="braceleft" unicode="{" horiz-adv-x="261" 
d="M349 790l-5 -29q-51 0 -77 -14t-34 -60l-54 -309q-9 -53 -65 -53v-2q47 0 47 -38q0 -10 -1 -15l-55 -309q-2 -14 -2 -20q0 -16 6 -27t12 -16.5t21 -8t22 -2.5h26l-5 -30h-26q-40 0 -63.5 20.5t-23.5 59.5q0 9 2 25l55 310q1 3 1 10q0 13 -7.5 19.5t-15.5 7.5t-22 1l4 27
q26 0 40 7.5t18 31.5l55 310q11 59 47.5 81.5t99.5 22.5z" />
    <glyph glyph-name="bar" unicode="|" horiz-adv-x="243" 
d="M161 -200h-19v1000h19v-1000z" />
    <glyph glyph-name="braceright" unicode="}" horiz-adv-x="261" 
d="M239 711q0 -9 -2 -25l-55 -310q-1 -3 -1 -10q0 -19 12 -24t33 -5l-4 -27q-26 0 -40 -7.5t-18 -30.5l-55 -310q-11 -60 -47 -82.5t-100 -22.5l5 30q51 0 77 14t34 60l55 309q9 53 64 53v2q-47 0 -47 38q0 5 2 15l54 309q2 14 2 20q0 16 -6 27t-12 16.5t-21 8t-22 2.5h-26
l5 29h26q40 0 63.5 -20t23.5 -59z" />
    <glyph glyph-name="asciitilde" unicode="~" horiz-adv-x="499" 
d="M487 310q-18 -41 -55.5 -71.5t-78.5 -30.5q-39 0 -94 36t-87 36q-31 0 -54 -21t-46 -57l-25 11q19 41 56 71.5t78 30.5q39 0 94.5 -36t87.5 -36q54 0 100 78z" />
    <glyph glyph-name="exclamdown" unicode="&#xa1;" horiz-adv-x="248" 
d="M187 525l-37 -267l-46 -258h-37l46 258l57 267h17zM226 666l-17 -92h-46l17 92h46z" />
    <glyph glyph-name="cent" unicode="&#xa2;" horiz-adv-x="424" 
d="M419 464l-12 -23q-56 27 -109 28l-79 -450q44 1 109 24l9 -24q-56 -25 -123 -27l-18 -104h-18l19 105q-73 5 -114 57.5t-41 132.5q0 132 67.5 220.5t175.5 92.5l18 98h17l-17 -98q61 -2 116 -32zM281 469q-88 -3 -149 -84t-61 -209q0 -65 33.5 -108.5t96.5 -47.5z" />
    <glyph glyph-name="sterling" unicode="&#xa3;" horiz-adv-x="616" 
d="M609 646l-7 -25q-95 26 -172 26q-112 0 -169 -41.5t-57 -139.5q0 -59 35 -149h206l-5 -29h-196q12 -107 -86 -259h352l-5 -29h-443l4 29h57q105 151 88 259h-105l5 29h94q-32 86 -32 154q0 205 249 205q97 0 187 -30z" />
    <glyph glyph-name="currency" unicode="&#xa4;" horiz-adv-x="733" 
d="M47 392l4 25h117q44 119 152.5 189t255.5 70q81 0 144 -18l-7 -25q-65 16 -145 16q-123 0 -224 -60.5t-144 -171.5h200l-4 -25h-205q-16 -54 -17 -115h211l-4 -25h-207q6 -111 82 -173.5t193 -62.5q82 0 154 18l4 -24q-73 -21 -152 -21q-138 0 -222 72t-90 191h-111l4 25
h107q1 59 17 115h-113z" />
    <glyph glyph-name="yen" unicode="&#xa5;" horiz-adv-x="593" 
d="M681 666l-253 -280h103l-5 -29h-124l-70 -78l-11 -57h181l-5 -30h-181l-34 -192h-31l34 192h-181l5 30h181l11 57l-43 78h-125l5 29h103l-154 280h34l199 -362l327 362h34z" />
    <glyph glyph-name="brokenbar" unicode="&#xa6;" horiz-adv-x="243" 
d="M161 371h-19v429h19v-429zM161 -200h-19v429h19v-429z" />
    <glyph glyph-name="section" unicode="&#xa7;" horiz-adv-x="552" 
d="M515 654l-7 -24q-76 20 -153 20q-84 0 -133 -28t-49 -86q0 -41 28 -67t108 -58q93 -37 129.5 -69t36.5 -76q0 -99 -161 -169q64 -32 87.5 -58.5t23.5 -64.5q0 -74 -66.5 -114.5t-167.5 -40.5t-179 47l10 22q88 -43 170 -43q51 0 95 12t76 42.5t32 75.5q0 36 -36.5 61.5
t-144.5 73.5q-121 53 -121 136q0 54 35 94t104 74q-87 45 -87 122q0 70 58 105t150 35q93 0 162 -22zM444 264q0 37 -36.5 63t-143.5 72q-75 -34 -108 -69t-33 -84q0 -38 32.5 -67.5t125.5 -67.5q163 71 163 153z" />
    <glyph glyph-name="dieresis" unicode="&#xa8;" horiz-adv-x="384" 
d="M308 571l11 65h41l-11 -65h-41zM125 571l11 65h41l-11 -65h-41z" />
    <glyph glyph-name="copyright" unicode="&#xa9;" horiz-adv-x="781" 
d="M759 333q0 -142 -102.5 -243t-244.5 -101q-141 0 -243 101t-102 243t101.5 242.5t243.5 100.5t244.5 -100.5t102.5 -242.5zM741 333q0 133 -96.5 229.5t-232.5 96.5t-231.5 -96t-95.5 -230t95.5 -230.5t231.5 -96.5t232.5 96.5t96.5 230.5zM511 170q-33 -10 -75 -10
q-81 0 -132 48t-51 124q0 77 50.5 124.5t132.5 47.5q45 0 75 -8l-3 -12q-31 8 -77 8q-66 0 -115 -42.5t-49 -117.5q0 -74 49 -116.5t115 -42.5q47 0 77 8z" />
    <glyph glyph-name="ordfeminine" unicode="&#xaa;" horiz-adv-x="369" 
d="M382 670l-57 -325h-20l20 117q-66 -123 -149 -123q-84 0 -84 106q0 86 46.5 158.5t122.5 72.5q49 0 95 -35l5 29h21zM353 622q-41 36 -94 36q-62 0 -104.5 -65t-42.5 -149q0 -87 63 -87q57 0 106.5 70t67.5 171q1 4 2 9t1.5 8t0.5 7z" />
    <glyph glyph-name="guillemotleft" unicode="&#xab;" horiz-adv-x="553" 
d="M344 463l-258 -223l176 -226l-17 -14l-188 240l272 240zM507 463l-258 -223l177 -226l-17 -14l-189 240l273 240z" />
    <glyph glyph-name="logicalnot" unicode="&#xac;" horiz-adv-x="522" 
d="M420 0h-23v233h-325v21h348v-254z" />
    <glyph glyph-name="registered" unicode="&#xae;" horiz-adv-x="781" 
d="M759 333q0 -142 -102.5 -243t-244.5 -101q-141 0 -243 101t-102 243t101.5 242.5t243.5 100.5t244.5 -100.5t102.5 -242.5zM741 333q0 133 -96.5 229.5t-232.5 96.5t-231.5 -96t-95.5 -230t95.5 -230.5t231.5 -96.5t232.5 96.5t96.5 230.5zM576 166h-16l-112 151h-137
v-151h-14v333h147q46 0 71.5 -26t25.5 -65q0 -34 -20 -58.5t-57 -31.5zM526 408q0 36 -22.5 56.5t-55.5 20.5h-137v-155h137q33 0 55.5 21t22.5 57z" />
    <glyph glyph-name="macron" unicode="&#xaf;" horiz-adv-x="418" 
d="M125 594l5 27h258l-5 -27h-258z" />
    <glyph glyph-name="degree" unicode="&#xb0;" horiz-adv-x="316" 
d="M314 594q0 -46 -37 -83t-83 -37q-36 0 -59 24t-23 60q0 46 36 82t82 36q36 0 60 -23t24 -59zM304 592q0 32 -22 53t-54 21q-42 0 -74 -32t-32 -74q0 -32 21 -54t53 -22q42 0 75 33t33 75z" />
    <glyph glyph-name="plusminus" unicode="&#xb1;" horiz-adv-x="598" 
d="M551 0h-474v29h222v194h-222v31h222v223h31v-223h221v-31h-221v-194h221v-29z" />
    <glyph glyph-name="twosuperior" unicode="&#xb2;" horiz-adv-x="664" 
d="M664 334h-165v165h165v-165zM331 334h-165v165h165v-165zM331 0h-165v165h165v-165zM664 0h-165v165h165v-165zM497 168h-164v164h164v-164zM497 502h-164v164h164v-164zM164 502h-164v164h164v-164zM164 168h-164v164h164v-164z" />
    <glyph glyph-name="threesuperior" unicode="&#xb3;" horiz-adv-x="664" 
d="M664 334h-165v165h165v-165zM331 334h-165v165h165v-165zM331 0h-165v165h165v-165zM664 0h-165v165h165v-165zM497 168h-164v164h164v-164zM497 502h-164v164h164v-164zM164 502h-164v164h164v-164zM164 168h-164v164h164v-164z" />
    <glyph glyph-name="acute" unicode="&#xb4;" horiz-adv-x="294" 
d="M125 545l109 117h45l-123 -117h-31z" />
    <glyph glyph-name="mu" unicode="&#xb5;" horiz-adv-x="595" 
d="M548 487l-86 -487h-32l30 175q-39 -79 -106.5 -131t-148.5 -52q-60 0 -85 35l-34 -197h-29l116 657h29l-65 -365q-4 -24 -4 -36q0 -66 76 -66q59 0 109.5 30.5t84.5 80t56.5 104t32.5 110.5l25 142h31z" />
    <glyph glyph-name="paragraph" unicode="&#xb6;" horiz-adv-x="375" 
d="M353 666l-118 -666h-25l114 643h-79l-114 -643h-27l77 432q-42 0 -70.5 27.5t-28.5 69.5q0 53 43 95t96 42h132z" />
    <glyph glyph-name="periodcentered" unicode="&#xb7;" horiz-adv-x="210" 
d="M143 390l-16 -94h-45l16 94h45z" />
    <glyph glyph-name="cedilla" unicode="&#xb8;" horiz-adv-x="310" 
d="M37 -167l8 22q26 -12 60 -12q63 0 63 44q0 34 -42 34q-31 0 -51 -4l39 83h24l-26 -57q10 2 20 2q30 0 48 -15.5t18 -42.5q0 -33 -26 -50.5t-66 -17.5q-39 0 -69 14z" />
    <glyph glyph-name="onesuperior" unicode="&#xb9;" horiz-adv-x="664" 
d="M664 334h-165v165h165v-165zM331 334h-165v165h165v-165zM331 0h-165v165h165v-165zM664 0h-165v165h165v-165zM497 168h-164v164h164v-164zM497 502h-164v164h164v-164zM164 502h-164v164h164v-164zM164 168h-164v164h164v-164z" />
    <glyph glyph-name="ordmasculine" unicode="&#xba;" horiz-adv-x="363" 
d="M381 553q0 -77 -46 -138.5t-121 -61.5q-54 0 -83 34t-29 88q0 77 46.5 139t121.5 62q54 0 82.5 -34t28.5 -89zM362 552q0 48 -24 77t-71 29q-67 0 -106.5 -56t-39.5 -126q0 -47 24.5 -76t71.5 -29q67 0 106 55.5t39 125.5z" />
    <glyph glyph-name="guillemotright" unicode="&#xbb;" horiz-adv-x="553" 
d="M511 240l-272 -240l-15 17l256 223l-174 226l17 14zM348 240l-273 -240l-14 17l256 223l-174 226l16 14z" />
    <glyph glyph-name="onequarter" unicode="&#xbc;" horiz-adv-x="664" 
d="M664 334h-165v165h165v-165zM331 334h-165v165h165v-165zM331 0h-165v165h165v-165zM664 0h-165v165h165v-165zM497 168h-164v164h164v-164zM497 502h-164v164h164v-164zM164 502h-164v164h164v-164zM164 168h-164v164h164v-164z" />
    <glyph glyph-name="onehalf" unicode="&#xbd;" horiz-adv-x="664" 
d="M664 334h-165v165h165v-165zM331 334h-165v165h165v-165zM331 0h-165v165h165v-165zM664 0h-165v165h165v-165zM497 168h-164v164h164v-164zM497 502h-164v164h164v-164zM164 502h-164v164h164v-164zM164 168h-164v164h164v-164z" />
    <glyph glyph-name="threequarters" unicode="&#xbe;" horiz-adv-x="664" 
d="M664 334h-165v165h165v-165zM331 334h-165v165h165v-165zM331 0h-165v165h165v-165zM664 0h-165v165h165v-165zM497 168h-164v164h164v-164zM497 502h-164v164h164v-164zM164 502h-164v164h164v-164zM164 168h-164v164h164v-164z" />
    <glyph glyph-name="questiondown" unicode="&#xbf;" horiz-adv-x="474" 
d="M382 12q-92 -23 -187 -23q-148 0 -148 103q0 38 20.5 87t42 84t67.5 90.5t62.5 73.5t61.5 66l20 -15q-114 -125 -157 -185q-84 -118 -84 -196q0 -25 10.5 -42t30 -24.5t38 -10t43.5 -2.5q78 0 180 19v-25zM369 666l-17 -93h-46l17 93h46z" />
    <glyph glyph-name="Agrave" unicode="&#xc0;" horiz-adv-x="616" 
d="M475 228l-92 389l-230 -389h322zM559 0h-30l-48 201h-343l-120 -201h-33l398 666h16zM376 724l-81 117h37l70 -117h-26z" />
    <glyph glyph-name="Aacute" unicode="&#xc1;" horiz-adv-x="616" 
d="M475 228l-92 389l-230 -389h322zM559 0h-30l-48 201h-343l-120 -201h-33l398 666h16zM391 724l109 117h45l-123 -117h-31z" />
    <glyph glyph-name="Acircumflex" unicode="&#xc2;" horiz-adv-x="616" 
d="M475 228l-92 389l-230 -389h322zM559 0h-30l-48 201h-343l-120 -201h-33l398 666h16zM271 724l126 117h30l84 -117h-32l-69 96l-104 -96h-35z" />
    <glyph glyph-name="Atilde" unicode="&#xc3;" horiz-adv-x="616" 
d="M475 228l-92 389l-230 -389h322zM559 0h-30l-48 201h-343l-120 -201h-33l398 666h16zM256 746q31 80 83 80q9 0 17 -1.5t17.5 -6t13 -6t15.5 -8.5l13 -8q50 -30 63 -30q14 0 24.5 9.5t16 19.5t16.5 34l22 -9q-17 -39 -34.5 -59.5t-44.5 -20.5q-20 0 -78 35q-2 1 -11.5 7
t-13 7.5t-10.5 5t-13.5 4.5t-13.5 1q-20 0 -32.5 -14t-27.5 -49z" />
    <glyph glyph-name="Adieresis" unicode="&#xc4;" horiz-adv-x="616" 
d="M475 228l-92 389l-230 -389h322zM559 0h-30l-48 201h-343l-120 -201h-33l398 666h16zM463 750l11 65h41l-11 -65h-41zM280 750l11 65h41l-11 -65h-41z" />
    <glyph glyph-name="Aring" unicode="&#xc5;" horiz-adv-x="616" 
d="M391 666q26 0 41 15t15 37q0 18 -11 29.5t-30 11.5q-25 0 -40.5 -15t-15.5 -38q0 -17 11 -28.5t30 -11.5zM475 228l-92 389l-230 -389h322zM138 201l-120 -201h-33l387 648q-20 5 -32 20.5t-12 37.5q0 31 21 52t58 21q26 0 43.5 -17t17.5 -42q0 -29 -17.5 -49t-46.5 -24
l155 -647h-30l-48 201h-343z" />
    <glyph glyph-name="AE" unicode="&#xc6;" horiz-adv-x="877" 
d="M426 228l-45 388l-229 -388h274zM885 666l-5 -29h-474l35 -276h363l-5 -29h-355l39 -303h289l-5 -29h-314l-21 201h-296l-119 -201h-30l395 666h503z" />
    <glyph glyph-name="Ccedilla" unicode="&#xc7;" horiz-adv-x="626" 
d="M349 -181q-39 0 -69 14l8 22q26 -12 60 -12q63 0 63 44q0 34 -42 34q-31 0 -51 -4l34 73q-133 6 -211.5 81.5t-78.5 196.5q0 183 121 295.5t312 112.5q81 0 144 -18l-7 -25q-65 16 -145 16q-77 0 -146.5 -24.5t-125.5 -70.5t-89 -120t-33 -166q0 -118 77.5 -185
t197.5 -67q82 0 154 18l4 -24q-74 -21 -150 -21l-21 -46q10 2 20 2q30 0 48 -15.5t18 -42.5q0 -33 -26 -50.5t-66 -17.5z" />
    <glyph glyph-name="Egrave" unicode="&#xc8;" horiz-adv-x="600" 
d="M608 666l-5 -29h-396l-49 -276h370l-5 -29h-370l-54 -303h396l-5 -29h-428l118 666h428zM392 724l-81 117h37l70 -117h-26z" />
    <glyph glyph-name="Eacute" unicode="&#xc9;" horiz-adv-x="600" 
d="M608 666l-5 -29h-396l-49 -276h370l-5 -29h-370l-54 -303h396l-5 -29h-428l118 666h428zM364 724l109 117h45l-123 -117h-31z" />
    <glyph glyph-name="Ecircumflex" unicode="&#xca;" horiz-adv-x="600" 
d="M608 666l-5 -29h-396l-49 -276h370l-5 -29h-370l-54 -303h396l-5 -29h-428l118 666h428zM286 724l126 117h30l84 -117h-32l-69 96l-104 -96h-35z" />
    <glyph glyph-name="Edieresis" unicode="&#xcb;" horiz-adv-x="600" 
d="M608 666l-5 -29h-396l-49 -276h370l-5 -29h-370l-54 -303h396l-5 -29h-428l118 666h428zM486 750l11 65h41l-11 -65h-41zM303 750l11 65h41l-11 -65h-41z" />
    <glyph glyph-name="Igrave" unicode="&#xcc;" horiz-adv-x="243" 
d="M216 666l-118 -666h-31l118 666h31zM188 724l-81 117h37l70 -117h-26z" />
    <glyph glyph-name="Iacute" unicode="&#xcd;" horiz-adv-x="243" 
d="M216 666l-118 -666h-31l118 666h31zM198 724l109 117h45l-123 -117h-31z" />
    <glyph glyph-name="Icircumflex" unicode="&#xce;" horiz-adv-x="243" 
d="M216 666l-118 -666h-31l118 666h31zM87 724l126 117h30l84 -117h-32l-69 96l-104 -96h-35z" />
    <glyph glyph-name="Idieresis" unicode="&#xcf;" horiz-adv-x="243" 
d="M216 666l-118 -666h-31l118 666h31zM287 750l11 65h41l-11 -65h-41zM104 750l11 65h41l-11 -65h-41z" />
    <glyph glyph-name="Eth" unicode="&#xd0;" horiz-adv-x="658" 
d="M201 0h-125l56 321h-90l5 27h90l56 318h125q135 0 231.5 -73t96.5 -204q0 -113 -66 -204t-167 -138t-212 -47zM112 29h97q99 0 191.5 43.5t153.5 127.5t61 187q0 119 -88 184.5t-211 65.5h-97l-51 -289h170l-5 -27h-170z" />
    <glyph glyph-name="Ntilde" unicode="&#xd1;" horiz-adv-x="716" 
d="M694 666l-118 -666h-28l-347 621l-110 -621h-29l118 666h29l347 -621l109 621h29zM298 746q31 80 83 80q9 0 17 -1.5t17.5 -6t13 -6t15.5 -8.5l13 -8q50 -30 63 -30q14 0 24.5 9.5t16 19.5t16.5 34l22 -9q-17 -39 -34.5 -59.5t-44.5 -20.5q-20 0 -78 35q-2 1 -11.5 7
t-13 7.5t-10.5 5t-13.5 4.5t-13.5 1q-20 0 -32.5 -14t-27.5 -49z" />
    <glyph glyph-name="Ograve" unicode="&#xd2;" horiz-adv-x="707" 
d="M654 401q0 107 -59.5 177.5t-164.5 70.5q-97 0 -176 -59.5t-120 -148.5t-41 -184q0 -108 59 -174.5t166 -66.5q97 0 175.5 57.5t119.5 145t41 182.5zM685 404q0 -106 -45.5 -200.5t-132 -154.5t-193.5 -60q-118 0 -185 74.5t-67 193.5q0 106 45.5 201.5t132.5 156.5
t195 61q116 0 183 -77t67 -195zM429 724l-81 117h37l70 -117h-26z" />
    <glyph glyph-name="Oacute" unicode="&#xd3;" horiz-adv-x="707" 
d="M654 401q0 107 -59.5 177.5t-164.5 70.5q-97 0 -176 -59.5t-120 -148.5t-41 -184q0 -108 59 -174.5t166 -66.5q97 0 175.5 57.5t119.5 145t41 182.5zM685 404q0 -106 -45.5 -200.5t-132 -154.5t-193.5 -60q-118 0 -185 74.5t-67 193.5q0 106 45.5 201.5t132.5 156.5
t195 61q116 0 183 -77t67 -195zM429 724l109 117h45l-123 -117h-31z" />
    <glyph glyph-name="Ocircumflex" unicode="&#xd4;" horiz-adv-x="707" 
d="M654 401q0 107 -59.5 177.5t-164.5 70.5q-97 0 -176 -59.5t-120 -148.5t-41 -184q0 -108 59 -174.5t166 -66.5q97 0 175.5 57.5t119.5 145t41 182.5zM685 404q0 -106 -45.5 -200.5t-132 -154.5t-193.5 -60q-118 0 -185 74.5t-67 193.5q0 106 45.5 201.5t132.5 156.5
t195 61q116 0 183 -77t67 -195zM320 724l126 117h30l84 -117h-32l-69 96l-104 -96h-35z" />
    <glyph glyph-name="Otilde" unicode="&#xd5;" horiz-adv-x="707" 
d="M654 401q0 107 -59.5 177.5t-164.5 70.5q-97 0 -176 -59.5t-120 -148.5t-41 -184q0 -108 59 -174.5t166 -66.5q97 0 175.5 57.5t119.5 145t41 182.5zM685 404q0 -106 -45.5 -200.5t-132 -154.5t-193.5 -60q-118 0 -185 74.5t-67 193.5q0 106 45.5 201.5t132.5 156.5
t195 61q116 0 183 -77t67 -195zM301 746q31 80 83 80q9 0 17 -1.5t17.5 -6t13 -6t16.5 -8.5l12 -8q50 -30 63 -30q14 0 24.5 9.5t16 19.5t16.5 34l22 -9q-17 -39 -34.5 -59.5t-44.5 -20.5q-20 0 -78 35q-2 1 -11.5 7t-13 7.5t-10.5 5t-13.5 4.5t-13.5 1q-20 0 -32.5 -14
t-27.5 -49z" />
    <glyph glyph-name="Odieresis" unicode="&#xd6;" horiz-adv-x="707" 
d="M654 401q0 107 -59.5 177.5t-164.5 70.5q-97 0 -176 -59.5t-120 -148.5t-41 -184q0 -108 59 -174.5t166 -66.5q97 0 175.5 57.5t119.5 145t41 182.5zM685 404q0 -106 -45.5 -200.5t-132 -154.5t-193.5 -60q-118 0 -185 74.5t-67 193.5q0 106 45.5 201.5t132.5 156.5
t195 61q116 0 183 -77t67 -195zM520 750l11 65h41l-11 -65h-41zM337 750l11 65h41l-11 -65h-41z" />
    <glyph glyph-name="multiply" unicode="&#xd7;" horiz-adv-x="463" 
d="M426 57l-22 -23l-157 158l-157 -158l-23 23l157 157l-157 158l23 23l157 -158l157 158l22 -23l-157 -158z" />
    <glyph glyph-name="Oslash" unicode="&#xd8;" horiz-adv-x="808" 
d="M656 565q-62 84 -176 84q-95 0 -173.5 -58.5t-120 -146.5t-41.5 -181q0 -83 37 -146zM704 401q0 84 -37 147l-474 -448q62 -84 175 -84q90 0 168.5 57.5t123 146.5t44.5 181zM786 661l-94 -89q44 -70 44 -165q0 -104 -46 -199.5t-133.5 -157t-193.5 -61.5q-126 0 -195 88
l-93 -88l-13 15l94 89q-44 70 -44 164q0 105 44.5 200t132 157t196.5 62q126 0 195 -88l93 88z" />
    <glyph glyph-name="Ugrave" unicode="&#xd9;" horiz-adv-x="685" 
d="M673 666l-79 -447q-19 -109 -98 -169.5t-192 -60.5q-93 0 -152.5 48.5t-59.5 138.5q0 24 4 43l79 447h31l-80 -452q-4 -28 -4 -42q0 -79 52.5 -117.5t134.5 -38.5q92 0 163.5 52.5t88.5 145.5l80 452h32zM400 724l-81 117h37l70 -117h-26z" />
    <glyph glyph-name="Uacute" unicode="&#xda;" horiz-adv-x="685" 
d="M673 666l-79 -447q-19 -109 -98 -169.5t-192 -60.5q-93 0 -152.5 48.5t-59.5 138.5q0 24 4 43l79 447h31l-80 -452q-4 -28 -4 -42q0 -79 52.5 -117.5t134.5 -38.5q92 0 163.5 52.5t88.5 145.5l80 452h32zM397 724l109 117h45l-123 -117h-31z" />
    <glyph glyph-name="Ucircumflex" unicode="&#xdb;" horiz-adv-x="685" 
d="M673 666l-79 -447q-19 -109 -98 -169.5t-192 -60.5q-93 0 -152.5 48.5t-59.5 138.5q0 24 4 43l79 447h31l-80 -452q-4 -28 -4 -42q0 -79 52.5 -117.5t134.5 -38.5q92 0 163.5 52.5t88.5 145.5l80 452h32zM305 724l126 117h30l84 -117h-32l-69 96l-104 -96h-35z" />
    <glyph glyph-name="Udieresis" unicode="&#xdc;" horiz-adv-x="685" 
d="M673 666l-79 -447q-19 -109 -98 -169.5t-192 -60.5q-93 0 -152.5 48.5t-59.5 138.5q0 24 4 43l79 447h31l-80 -452q-4 -28 -4 -42q0 -79 52.5 -117.5t134.5 -38.5q92 0 163.5 52.5t88.5 145.5l80 452h32zM505 750l11 65h41l-11 -65h-41zM322 750l11 65h41l-11 -65h-41z
" />
    <glyph glyph-name="Yacute" unicode="&#xdd;" horiz-adv-x="593" 
d="M681 666l-349 -387l-50 -279h-32l50 279l-213 387h32l199 -362l328 362h35zM367 724l109 117h45l-123 -117h-31z" />
    <glyph glyph-name="Thorn" unicode="&#xde;" horiz-adv-x="608" 
d="M606 375q0 -18 -3 -36q-15 -84 -77.5 -134.5t-148.5 -50.5h-256l-28 -154h-31l118 666h31l-25 -141h255q73 0 119 -39t46 -111zM575 370q0 57 -37 90.5t-95 33.5h-263l-54 -310h264q76 0 130.5 54.5t54.5 131.5z" />
    <glyph glyph-name="germandbls" unicode="&#xdf;" horiz-adv-x="590" 
d="M533 145q0 -73 -52.5 -113t-127.5 -40q-77 0 -143 33l11 24q59 -28 135 -28q59 0 102 31.5t43 88.5q0 29 -19 50.5t-46.5 35t-54.5 27t-46 34.5t-19 49q0 31 15.5 56t38 43t44.5 36t37.5 44.5t15.5 59.5q0 44 -31 65t-77 21q-60 0 -100 -34t-51 -94l-94 -534h-32l81 458
h-77l5 29h77q9 50 21 83.5t33.5 63t57 43.5t85.5 14q56 0 95 -28.5t39 -82.5q0 -37 -15.5 -66.5t-38 -49.5t-45 -38t-38 -39.5t-15.5 -46.5q0 -26 29 -46.5t64 -34t64 -43t29 -71.5z" />
    <glyph glyph-name="agrave" unicode="&#xe0;" horiz-adv-x="507" 
d="M473 487l-86 -487h-29l30 175q-35 -81 -95 -132t-128 -51q-125 0 -125 159q0 81 28 158t88 132t137 55q74 0 142 -52l7 43h31zM429 414q-61 55 -140 55q-93 0 -156.5 -97.5t-63.5 -222.5q0 -130 95 -130q94 0 161 100.5t98 258.5q4 20 6 36zM299 545l-81 117h37l70 -117
h-26z" />
    <glyph glyph-name="aacute" unicode="&#xe1;" horiz-adv-x="507" 
d="M473 487l-86 -487h-29l30 175q-35 -81 -95 -132t-128 -51q-125 0 -125 159q0 81 28 158t88 132t137 55q74 0 142 -52l7 43h31zM429 414q-61 55 -140 55q-93 0 -156.5 -97.5t-63.5 -222.5q0 -130 95 -130q94 0 161 100.5t98 258.5q4 20 6 36zM291 545l109 117h45
l-123 -117h-31z" />
    <glyph glyph-name="acircumflex" unicode="&#xe2;" horiz-adv-x="507" 
d="M473 487l-86 -487h-29l30 175q-35 -81 -95 -132t-128 -51q-125 0 -125 159q0 81 28 158t88 132t137 55q74 0 142 -52l7 43h31zM429 414q-61 55 -140 55q-93 0 -156.5 -97.5t-63.5 -222.5q0 -130 95 -130q94 0 161 100.5t98 258.5q4 20 6 36zM196 545l126 117h30l84 -117
h-32l-69 96l-104 -96h-35z" />
    <glyph glyph-name="atilde" unicode="&#xe3;" horiz-adv-x="507" 
d="M473 487l-86 -487h-29l30 175q-35 -81 -95 -132t-128 -51q-125 0 -125 159q0 81 28 158t88 132t137 55q74 0 142 -52l7 43h31zM429 414q-61 55 -140 55q-93 0 -156.5 -97.5t-63.5 -222.5q0 -130 95 -130q94 0 161 100.5t98 258.5q4 20 6 36zM184 567q31 80 83 80
q9 0 17 -1.5t17.5 -6t13 -6t15.5 -9.5l13 -7q50 -30 63 -30q14 0 24.5 9.5t16 19.5t16.5 34l22 -9q-17 -39 -34.5 -59.5t-44.5 -20.5q-20 0 -78 35q-2 1 -11.5 7t-13 7.5t-10.5 5t-13.5 4.5t-13.5 1q-20 0 -32.5 -14t-27.5 -49z" />
    <glyph glyph-name="adieresis" unicode="&#xe4;" horiz-adv-x="507" 
d="M473 487l-86 -487h-29l30 175q-35 -81 -95 -132t-128 -51q-125 0 -125 159q0 81 28 158t88 132t137 55q74 0 142 -52l7 43h31zM429 414q-61 55 -140 55q-93 0 -156.5 -97.5t-63.5 -222.5q0 -130 95 -130q94 0 161 100.5t98 258.5q4 20 6 36zM396 571l11 65h41l-11 -65
h-41zM213 571l11 65h41l-11 -65h-41z" />
    <glyph glyph-name="aring" unicode="&#xe5;" horiz-adv-x="507" 
d="M473 487l-86 -487h-29l30 175q-35 -81 -95 -132t-128 -51q-125 0 -125 159q0 81 28 158t88 132t137 55q74 0 142 -52l7 43h31zM429 414q-61 55 -140 55q-93 0 -156.5 -97.5t-63.5 -222.5q0 -130 95 -130q94 0 161 100.5t98 258.5q4 20 6 36zM330 545q-27 0 -44 17t-17 43
q0 31 21 52t58 21q26 0 43.5 -17t17.5 -42q0 -33 -21.5 -53.5t-57.5 -20.5zM332 565q26 0 41 15t15 37q0 18 -11 29.5t-30 11.5q-25 0 -40.5 -15t-15.5 -38q0 -17 11 -28.5t30 -11.5z" />
    <glyph glyph-name="ae" unicode="&#xe6;" horiz-adv-x="775" 
d="M750 410q0 -27 -13.5 -48t-49.5 -43.5t-107 -43t-177 -37.5q-11 -94 28 -156.5t116 -62.5t153 41l10 -22q-73 -46 -166 -46q-64 0 -106 34.5t-59 93.5q-45 -128 -196 -128q-58 0 -99.5 33t-41.5 90q0 78 50 114.5t123 36.5h162l12 67q23 134 -129 134q-58 0 -143 -15
l-3 27q88 17 150 17q78 0 118 -29.5t43 -82.5q73 112 205 112q55 0 87.5 -23t32.5 -63zM372 237h-162q-62 0 -100 -29.5t-38 -91.5q0 -42 32 -68.5t85 -26.5q142 0 169 140zM719 410q0 26 -23.5 42t-69.5 16q-70 0 -129.5 -45t-82.5 -126q-1 -5 -2.5 -15.5t-2.5 -15.5
q310 48 310 144z" />
    <glyph glyph-name="ccedilla" unicode="&#xe7;" horiz-adv-x="423" 
d="M161 -181q-39 0 -69 14l8 22q26 -12 60 -12q63 0 63 44q0 34 -42 34q-31 0 -51 -4l38 80q-59 14 -92.5 64.5t-33.5 121.5q0 139 70 226t183 87q66 0 123 -33l-12 -23q-59 29 -119 29q-90 0 -153 -81t-63 -212q0 -66 37.5 -111.5t100.5 -45.5q60 0 118 24l9 -24
q-61 -27 -126 -27q-12 0 -20 1l-23 -50q10 2 20 2q30 0 48 -15.5t18 -42.5q0 -33 -26 -50.5t-66 -17.5z" />
    <glyph glyph-name="egrave" unicode="&#xe8;" horiz-adv-x="454" 
d="M427 398q0 -28 -12 -49t-46 -45.5t-107 -45.5t-184 -39q-11 -92 28 -146t116 -54q79 0 155 41l10 -22q-79 -46 -166 -46q-80 0 -127 54t-47 137q0 136 71 224.5t183 88.5q60 0 93 -28t33 -70zM396 398q0 29 -23.5 50t-74.5 21q-84 0 -141.5 -61t-74.5 -161q128 22 200 48
t93 49.5t21 53.5zM274 545l-81 117h37l70 -117h-26z" />
    <glyph glyph-name="eacute" unicode="&#xe9;" horiz-adv-x="454" 
d="M427 398q0 -28 -12 -49t-46 -45.5t-107 -45.5t-184 -39q-11 -92 28 -146t116 -54q79 0 155 41l10 -22q-79 -46 -166 -46q-80 0 -127 54t-47 137q0 136 71 224.5t183 88.5q60 0 93 -28t33 -70zM396 398q0 29 -23.5 50t-74.5 21q-84 0 -141.5 -61t-74.5 -161q128 22 200 48
t93 49.5t21 53.5zM283 545l109 117h45l-123 -117h-31z" />
    <glyph glyph-name="ecircumflex" unicode="&#xea;" horiz-adv-x="454" 
d="M427 398q0 -28 -12 -49t-46 -45.5t-107 -45.5t-184 -39q-11 -92 28 -146t116 -54q79 0 155 41l10 -22q-79 -46 -166 -46q-80 0 -127 54t-47 137q0 136 71 224.5t183 88.5q60 0 93 -28t33 -70zM396 398q0 29 -23.5 50t-74.5 21q-84 0 -141.5 -61t-74.5 -161q128 22 200 48
t93 49.5t21 53.5zM179 545l126 117h30l84 -117h-32l-69 96l-104 -96h-35z" />
    <glyph glyph-name="edieresis" unicode="&#xeb;" horiz-adv-x="454" 
d="M427 398q0 -28 -12 -49t-46 -45.5t-107 -45.5t-184 -39q-11 -92 28 -146t116 -54q79 0 155 41l10 -22q-79 -46 -166 -46q-80 0 -127 54t-47 137q0 136 71 224.5t183 88.5q60 0 93 -28t33 -70zM396 398q0 29 -23.5 50t-74.5 21q-84 0 -141.5 -61t-74.5 -161q128 22 200 48
t93 49.5t21 53.5zM379 571l11 65h41l-11 -65h-41zM196 571l11 65h41l-11 -65h-41z" />
    <glyph glyph-name="igrave" unicode="&#xec;" horiz-adv-x="207" 
d="M162 487l-86 -487h-31l86 487h31zM133 545l-81 117h37l70 -117h-26z" />
    <glyph glyph-name="iacute" unicode="&#xed;" horiz-adv-x="207" 
d="M162 487l-86 -487h-31l86 487h31zM138 545l109 117h45l-123 -117h-31z" />
    <glyph glyph-name="icircumflex" unicode="&#xee;" horiz-adv-x="207" 
d="M162 487l-86 -487h-31l86 487h31zM33 545l126 117h30l84 -117h-32l-69 96l-104 -96h-35z" />
    <glyph glyph-name="idieresis" unicode="&#xef;" horiz-adv-x="207" 
d="M162 487l-86 -487h-31l86 487h31zM233 571l11 65h41l-11 -65h-41zM50 571l11 65h41l-11 -65h-41z" />
    <glyph glyph-name="eth" unicode="&#xf0;" horiz-adv-x="522" 
d="M217 -8q-82 0 -126.5 57.5t-44.5 139.5q0 75 26.5 141.5t87 113t144.5 46.5q52 0 92 -31.5t51 -77.5q-14 122 -77 202l-114 -32l-8 23l106 30q-26 29 -64 62h37q32 -25 56 -54l91 25l9 -22l-84 -24q76 -105 76 -242q0 -87 -27 -166t-88 -135t-143 -56zM218 20
q97 0 159 87t62 194q0 69 -39 115t-104 46q-97 0 -158.5 -81t-61.5 -193q0 -73 37.5 -120.5t104.5 -47.5z" />
    <glyph glyph-name="ntilde" unicode="&#xf1;" 
d="M490 402q0 -18 -3 -36l-65 -366h-29l65 366q4 24 4 36q0 36 -19.5 50.5t-57.5 14.5q-47 0 -89.5 -20.5t-73.5 -53.5t-56 -76.5t-40 -87t-23 -87.5l-25 -142h-31l86 487h32l-30 -175q40 81 106 132.5t149 51.5q100 0 100 -94zM171 567q31 80 83 80q9 0 17 -1.5t17.5 -6
t13 -6t16.5 -9.5l12 -7q50 -30 63 -30q14 0 24.5 9.5t16 19.5t16.5 34l22 -9q-17 -39 -34.5 -59.5t-44.5 -20.5q-21 0 -78 35q-2 1 -11.5 7t-13 7.5t-10.5 5t-13.5 4.5t-13.5 1q-20 0 -32.5 -14t-27.5 -49z" />
    <glyph glyph-name="ograve" unicode="&#xf2;" horiz-adv-x="503" 
d="M466 303q0 -121 -72 -216t-181 -95q-79 0 -122.5 53.5t-43.5 137.5q0 134 73 223.5t181 89.5q81 0 123 -53.5t42 -139.5zM437 308q0 74 -35 117.5t-105 43.5q-88 0 -154.5 -81.5t-66.5 -212.5q0 -70 38 -113t104 -43q89 0 154 85.5t65 203.5zM279 545l-81 117h37l70 -117
h-26z" />
    <glyph glyph-name="oacute" unicode="&#xf3;" horiz-adv-x="503" 
d="M466 303q0 -121 -72 -216t-181 -95q-79 0 -122.5 53.5t-43.5 137.5q0 134 73 223.5t181 89.5q81 0 123 -53.5t42 -139.5zM437 308q0 74 -35 117.5t-105 43.5q-88 0 -154.5 -81.5t-66.5 -212.5q0 -70 38 -113t104 -43q89 0 154 85.5t65 203.5zM293 545l109 117h45
l-123 -117h-31z" />
    <glyph glyph-name="ocircumflex" unicode="&#xf4;" horiz-adv-x="503" 
d="M466 303q0 -121 -72 -216t-181 -95q-79 0 -122.5 53.5t-43.5 137.5q0 134 73 223.5t181 89.5q81 0 123 -53.5t42 -139.5zM437 308q0 74 -35 117.5t-105 43.5q-88 0 -154.5 -81.5t-66.5 -212.5q0 -70 38 -113t104 -43q89 0 154 85.5t65 203.5zM184 545l126 117h30l84 -117
h-32l-69 96l-104 -96h-35z" />
    <glyph glyph-name="otilde" unicode="&#xf5;" horiz-adv-x="503" 
d="M466 303q0 -121 -72 -216t-181 -95q-79 0 -122.5 53.5t-43.5 137.5q0 134 73 223.5t181 89.5q81 0 123 -53.5t42 -139.5zM437 308q0 74 -35 117.5t-105 43.5q-88 0 -154.5 -81.5t-66.5 -212.5q0 -70 38 -113t104 -43q89 0 154 85.5t65 203.5zM165 567q31 80 83 80
q9 0 17 -1.5t17.5 -6t13 -6t16.5 -9.5l12 -7q50 -30 63 -30q14 0 24.5 9.5t16 19.5t16.5 34l22 -9q-17 -39 -34.5 -59.5t-44.5 -20.5q-21 0 -78 35q-2 1 -11.5 7t-13 7.5t-10.5 5t-13.5 4.5t-13.5 1q-20 0 -32.5 -14t-27.5 -49z" />
    <glyph glyph-name="odieresis" unicode="&#xf6;" horiz-adv-x="503" 
d="M466 303q0 -121 -72 -216t-181 -95q-79 0 -122.5 53.5t-43.5 137.5q0 134 73 223.5t181 89.5q81 0 123 -53.5t42 -139.5zM437 308q0 74 -35 117.5t-105 43.5q-88 0 -154.5 -81.5t-66.5 -212.5q0 -70 38 -113t104 -43q89 0 154 85.5t65 203.5zM384 571l11 65h41l-11 -65
h-41zM201 571l11 65h41l-11 -65h-41z" />
    <glyph glyph-name="divide" unicode="&#xf7;" horiz-adv-x="524" 
d="M487 178h-410v26h410v-26zM327 42q0 -19 -12.5 -32t-31.5 -13t-32 13t-13 32t13 32t32 13t31.5 -13t12.5 -32zM327 340q0 -19 -12.5 -32t-31.5 -13t-32 13t-13 32t13 32t32 13t31.5 -13t12.5 -32z" />
    <glyph glyph-name="oslash" unicode="&#xf8;" horiz-adv-x="595" 
d="M558 483l-64 -63q27 -46 27 -115q0 -121 -73 -217t-190 -96q-89 0 -136 61l-61 -61l-14 14l64 63q-27 47 -27 116q0 76 31 146.5t92.5 117.5t139.5 47q88 0 135 -60l62 62zM490 302q0 55 -20 94l-324 -321q39 -54 118 -54q70 0 123 43.5t78 106t25 131.5zM459 413
q-39 53 -117 53q-104 0 -165.5 -86.5t-61.5 -194.5q0 -51 20 -92z" />
    <glyph glyph-name="ugrave" unicode="&#xf9;" 
d="M500 487l-86 -487h-32l31 175q-39 -79 -107 -131t-149 -52q-100 0 -100 93q0 13 4 37l64 365h30l-65 -365q-4 -24 -4 -36q0 -66 76 -66q57 0 107.5 31t85 81t57 104.5t32.5 108.5l26 142h30zM311 545l-81 117h37l70 -117h-26z" />
    <glyph glyph-name="uacute" unicode="&#xfa;" 
d="M500 487l-86 -487h-32l31 175q-39 -79 -107 -131t-149 -52q-100 0 -100 93q0 13 4 37l64 365h30l-65 -365q-4 -24 -4 -36q0 -66 76 -66q57 0 107.5 31t85 81t57 104.5t32.5 108.5l26 142h30zM285 545l109 117h45l-123 -117h-31z" />
    <glyph glyph-name="ucircumflex" unicode="&#xfb;" 
d="M500 487l-86 -487h-32l31 175q-39 -79 -107 -131t-149 -52q-100 0 -100 93q0 13 4 37l64 365h30l-65 -365q-4 -24 -4 -36q0 -66 76 -66q57 0 107.5 31t85 81t57 104.5t32.5 108.5l26 142h30zM200 545l126 117h30l84 -117h-32l-69 96l-104 -96h-35z" />
    <glyph glyph-name="udieresis" unicode="&#xfc;" 
d="M500 487l-86 -487h-32l31 175q-39 -79 -107 -131t-149 -52q-100 0 -100 93q0 13 4 37l64 365h30l-65 -365q-4 -24 -4 -36q0 -66 76 -66q57 0 107.5 31t85 81t57 104.5t32.5 108.5l26 142h30zM400 571l11 65h41l-11 -65h-41zM217 571l11 65h41l-11 -65h-41z" />
    <glyph glyph-name="yacute" unicode="&#xfd;" horiz-adv-x="441" 
d="M469 487l-384 -660h-31l100 172l-112 488h33l99 -452l263 452h32zM228 545l109 117h45l-123 -117h-31z" />
    <glyph glyph-name="thorn" unicode="&#xfe;" 
d="M510 337q0 -81 -28 -158t-88 -132t-137 -55q-76 0 -142 50l-37 -212h-31l147 837h29l-61 -354q35 82 93.5 132.5t129.5 50.5q125 0 125 -159zM481 339q0 130 -95 130t-162.5 -101t-96.5 -259q-4 -20 -6 -36q60 -54 140 -54q93 0 156.5 97.5t63.5 222.5z" />
    <glyph glyph-name="ydieresis" unicode="&#xff;" horiz-adv-x="441" 
d="M469 487l-384 -660h-31l100 172l-112 488h33l99 -452l263 452h32zM338 571l11 65h41l-11 -65h-41zM155 571l11 65h41l-11 -65h-41z" />
    <glyph glyph-name="Amacron" unicode="&#x100;" horiz-adv-x="616" 
d="M475 228l-92 389l-230 -389h322zM559 0h-30l-48 201h-343l-120 -201h-33l398 666h16zM276 773l5 27h258l-5 -27h-258z" />
    <glyph glyph-name="amacron" unicode="&#x101;" horiz-adv-x="507" 
d="M473 487l-86 -487h-29l30 175q-35 -81 -95 -132t-128 -51q-125 0 -125 159q0 81 28 158t88 132t137 55q74 0 142 -52l7 43h31zM429 414q-61 55 -140 55q-93 0 -156.5 -97.5t-63.5 -222.5q0 -130 95 -130q94 0 161 100.5t98 258.5q4 20 6 36zM200 594l5 27h258l-5 -27
h-258z" />
    <glyph glyph-name="Abreve" unicode="&#x102;" horiz-adv-x="616" 
d="M475 228l-92 389l-230 -389h322zM559 0h-30l-48 201h-343l-120 -201h-33l398 666h16zM302 834h25q-6 -37 15.5 -60t65.5 -23t74.5 23.5t39.5 59.5h26q-8 -46 -47 -75.5t-95 -29.5q-54 0 -82.5 29.5t-21.5 75.5z" />
    <glyph glyph-name="abreve" unicode="&#x103;" horiz-adv-x="507" 
d="M473 487l-86 -487h-29l30 175q-35 -81 -95 -132t-128 -51q-125 0 -125 159q0 81 28 158t88 132t137 55q74 0 142 -52l7 43h31zM429 414q-61 55 -140 55q-93 0 -156.5 -97.5t-63.5 -222.5q0 -130 95 -130q94 0 161 100.5t98 258.5q4 20 6 36zM229 655h25q-6 -37 15.5 -60
t65.5 -23t74.5 23.5t39.5 59.5h26q-8 -46 -47 -75.5t-95 -29.5q-54 0 -82.5 29.5t-21.5 75.5z" />
    <glyph glyph-name="Aogonek" unicode="&#x104;" horiz-adv-x="616" 
d="M475 228l-92 389l-230 -389h322zM529 0l-48 201h-343l-120 -201h-33l398 666h16l160 -666h-8q-46 -31 -66.5 -57.5t-20.5 -58.5q0 -42 46 -42q20 0 36 6v-21q-16 -8 -40 -8q-36 0 -53.5 18t-17.5 46q0 75 94 117z" />
    <glyph glyph-name="aogonek" unicode="&#x105;" horiz-adv-x="507" 
d="M429 414q-61 55 -140 55q-93 0 -156.5 -97.5t-63.5 -222.5q0 -130 95 -130q94 0 161 100.5t98 258.5q4 20 6 36zM358 0l30 175q-35 -81 -95 -132t-128 -51q-125 0 -125 159q0 81 28 158t88 132t137 55q74 0 142 -52l7 43h31l-86 -487h-7q-46 -31 -66.5 -57.5t-20.5 -58.5
q0 -42 46 -42q20 0 36 6v-21q-16 -8 -40 -8q-36 0 -53.5 18t-17.5 46q0 75 94 117z" />
    <glyph glyph-name="Cacute" unicode="&#x106;" horiz-adv-x="626" 
d="M639 658l-7 -25q-65 16 -145 16q-77 0 -146.5 -24.5t-125.5 -70.5t-89 -120t-33 -166q0 -118 77.5 -185t197.5 -67q82 0 154 18l4 -24q-74 -21 -152 -21q-142 0 -227 76.5t-85 202.5q0 183 121 295.5t312 112.5q81 0 144 -18zM468 724l109 117h45l-123 -117h-31z" />
    <glyph glyph-name="cacute" unicode="&#x107;" horiz-adv-x="423" 
d="M418 463l-12 -23q-59 29 -119 29q-90 0 -153 -81t-63 -212q0 -66 37.5 -111.5t100.5 -45.5q60 0 118 24l9 -24q-61 -27 -126 -27q-77 0 -122.5 54t-45.5 137q0 139 70 226t183 87q66 0 123 -33zM282 545l109 117h45l-123 -117h-31z" />
    <glyph glyph-name="Ccircumflex" unicode="&#x108;" horiz-adv-x="626" 
d="M639 658l-7 -25q-65 16 -145 16q-77 0 -146.5 -24.5t-125.5 -70.5t-89 -120t-33 -166q0 -118 77.5 -185t197.5 -67q82 0 154 18l4 -24q-74 -21 -152 -21q-142 0 -227 76.5t-85 202.5q0 183 121 295.5t312 112.5q81 0 144 -18zM359 724l126 117h30l84 -117h-32l-69 96
l-104 -96h-35z" />
    <glyph glyph-name="ccircumflex" unicode="&#x109;" horiz-adv-x="423" 
d="M418 463l-12 -23q-59 29 -119 29q-90 0 -153 -81t-63 -212q0 -66 37.5 -111.5t100.5 -45.5q60 0 118 24l9 -24q-61 -27 -126 -27q-77 0 -122.5 54t-45.5 137q0 139 70 226t183 87q66 0 123 -33zM173 545l126 117h30l84 -117h-32l-69 96l-104 -96h-35z" />
    <glyph glyph-name="Cdotaccent" unicode="&#x10a;" horiz-adv-x="626" 
d="M639 658l-7 -25q-65 16 -145 16q-77 0 -146.5 -24.5t-125.5 -70.5t-89 -120t-33 -166q0 -118 77.5 -185t197.5 -67q82 0 154 18l4 -24q-74 -21 -152 -21q-142 0 -227 76.5t-85 202.5q0 183 121 295.5t312 112.5q81 0 144 -18zM470 744l15 82h33l-15 -82h-33z" />
    <glyph glyph-name="cdotaccent" unicode="&#x10b;" horiz-adv-x="423" 
d="M418 463l-12 -23q-59 29 -119 29q-90 0 -153 -81t-63 -212q0 -66 37.5 -111.5t100.5 -45.5q60 0 118 24l9 -24q-61 -27 -126 -27q-77 0 -122.5 54t-45.5 137q0 139 70 226t183 87q66 0 123 -33zM284 565l15 82h33l-15 -82h-33z" />
    <glyph glyph-name="Ccaron" unicode="&#x10c;" horiz-adv-x="626" 
d="M639 658l-7 -25q-65 16 -145 16q-77 0 -146.5 -24.5t-125.5 -70.5t-89 -120t-33 -166q0 -118 77.5 -185t197.5 -67q82 0 154 18l4 -24q-74 -21 -152 -21q-142 0 -227 76.5t-85 202.5q0 183 121 295.5t312 112.5q81 0 144 -18zM386 841h31l69 -97l103 97h37l-126 -117h-30
z" />
    <glyph glyph-name="ccaron" unicode="&#x10d;" horiz-adv-x="423" 
d="M418 463l-12 -23q-59 29 -119 29q-90 0 -153 -81t-63 -212q0 -66 37.5 -111.5t100.5 -45.5q60 0 118 24l9 -24q-61 -27 -126 -27q-77 0 -122.5 54t-45.5 137q0 139 70 226t183 87q66 0 123 -33zM200 662h31l69 -97l103 97h37l-126 -117h-30z" />
    <glyph glyph-name="Dcaron" unicode="&#x10e;" horiz-adv-x="644" 
d="M601 387q0 119 -88 184.5t-211 65.5h-97l-107 -608h97q99 0 191.5 43.5t153.5 127.5t61 187zM632 389q0 -113 -66 -204t-167 -138t-212 -47h-125l117 666h125q135 0 231.5 -73t96.5 -204zM276 841h31l69 -97l103 97h37l-126 -117h-30z" />
    <glyph glyph-name="dcaron" unicode="&#x10f;" horiz-adv-x="642" 
d="M512 666l-117 -666h-29l30 175q-38 -83 -96 -133t-128 -50q-125 0 -125 159q0 81 28 158t88 132t137 55q76 0 142 -50l40 220h30zM437 414q-61 55 -141 55q-93 0 -156.5 -97.5t-63.5 -222.5q0 -130 96 -130q63 0 116.5 49t89 129t53.5 181q4 20 6 36zM621 666h46l-13 -76
l-36 -74h-22l35 74h-23z" />
    <glyph glyph-name="Dcroat" unicode="&#x110;" horiz-adv-x="658" 
d="M201 0h-125l56 321h-90l5 27h90l56 318h125q135 0 231.5 -73t96.5 -204q0 -113 -66 -204t-167 -138t-212 -47zM112 29h97q99 0 191.5 43.5t153.5 127.5t61 187q0 119 -88 184.5t-211 65.5h-97l-51 -289h170l-5 -27h-170z" />
    <glyph glyph-name="dcroat" unicode="&#x111;" horiz-adv-x="532" 
d="M437 414q-61 55 -141 55q-93 0 -156.5 -97.5t-63.5 -222.5q0 -130 96 -130q63 0 116.5 49t89 129t53.5 181q4 20 6 36zM396 175q-38 -83 -96 -133t-128 -50q-125 0 -125 159q0 81 28 158t88 132t137 55q76 0 142 -50l22 119h-148l4 24h148l14 77h30l-14 -77h74l-4 -24
h-74l-99 -565h-29z" />
    <glyph glyph-name="Emacron" unicode="&#x112;" horiz-adv-x="600" 
d="M608 666l-5 -29h-396l-49 -276h370l-5 -29h-370l-54 -303h396l-5 -29h-428l118 666h428zM290 773l5 27h258l-5 -27h-258z" />
    <glyph glyph-name="emacron" unicode="&#x113;" horiz-adv-x="454" 
d="M427 398q0 -28 -12 -49t-46 -45.5t-107 -45.5t-184 -39q-11 -92 28 -146t116 -54q79 0 155 41l10 -22q-79 -46 -166 -46q-80 0 -127 54t-47 137q0 136 71 224.5t183 88.5q60 0 93 -28t33 -70zM396 398q0 29 -23.5 50t-74.5 21q-84 0 -141.5 -61t-74.5 -161q128 22 200 48
t93 49.5t21 53.5zM183 594l5 27h258l-5 -27h-258z" />
    <glyph glyph-name="Ebreve" unicode="&#x114;" horiz-adv-x="600" 
d="M608 666l-5 -29h-396l-49 -276h370l-5 -29h-370l-54 -303h396l-5 -29h-428l118 666h428zM309 834h25q-6 -37 15.5 -60t65.5 -23t74.5 23.5t39.5 59.5h26q-8 -46 -47 -75.5t-95 -29.5q-54 0 -82.5 29.5t-21.5 75.5z" />
    <glyph glyph-name="ebreve" unicode="&#x115;" horiz-adv-x="454" 
d="M427 398q0 -28 -12 -49t-46 -45.5t-107 -45.5t-184 -39q-11 -92 28 -146t116 -54q79 0 155 41l10 -22q-79 -46 -166 -46q-80 0 -127 54t-47 137q0 136 71 224.5t183 88.5q60 0 93 -28t33 -70zM396 398q0 29 -23.5 50t-74.5 21q-84 0 -141.5 -61t-74.5 -161q128 22 200 48
t93 49.5t21 53.5zM201 655h25q-6 -37 15.5 -60t65.5 -23t74.5 23.5t39.5 59.5h26q-8 -46 -47 -75.5t-95 -29.5q-54 0 -82.5 29.5t-21.5 75.5z" />
    <glyph glyph-name="Edotaccent" unicode="&#x116;" horiz-adv-x="600" 
d="M608 666l-5 -29h-396l-49 -276h370l-5 -29h-370l-54 -303h396l-5 -29h-428l118 666h428zM397 744l15 82h33l-15 -82h-33z" />
    <glyph glyph-name="edotaccent" unicode="&#x117;" horiz-adv-x="454" 
d="M427 398q0 -28 -12 -49t-46 -45.5t-107 -45.5t-184 -39q-11 -92 28 -146t116 -54q79 0 155 41l10 -22q-79 -46 -166 -46q-80 0 -127 54t-47 137q0 136 71 224.5t183 88.5q60 0 93 -28t33 -70zM396 398q0 29 -23.5 50t-74.5 21q-84 0 -141.5 -61t-74.5 -161q128 22 200 48
t93 49.5t21 53.5zM290 565l15 82h33l-15 -82h-33z" />
    <glyph glyph-name="Eogonek" unicode="&#x118;" horiz-adv-x="600" 
d="M438 0h-376l118 666h428l-5 -29h-396l-49 -276h370l-5 -29h-370l-54 -303h396l-5 -29h-30q-87 -51 -87 -116q0 -42 46 -42q19 0 36 6v-21q-16 -8 -40 -8q-36 0 -53.5 18t-17.5 46q0 37 26 69.5t68 47.5z" />
    <glyph glyph-name="eogonek" unicode="&#x119;" horiz-adv-x="454" 
d="M288 -181q-32 0 -51.5 17.5t-19.5 47.5q0 36 23.5 68t62.5 51q-35 -11 -82 -11q-80 0 -127 54t-47 137q0 136 71 224.5t183 88.5q60 0 93 -28t33 -70q0 -28 -12 -49t-46 -45.5t-107 -45.5t-184 -39q-11 -92 28 -146t116 -54q79 0 155 41l10 -22q-36 -21 -56 -34.5
t-42.5 -33t-32.5 -41t-10 -46.5q0 -41 46 -41q20 0 36 6v-21q-16 -8 -40 -8zM396 398q0 29 -23.5 50t-74.5 21q-84 0 -141.5 -61t-74.5 -161q128 22 200 48t93 49.5t21 53.5z" />
    <glyph glyph-name="Ecaron" unicode="&#x11a;" horiz-adv-x="600" 
d="M608 666l-5 -29h-396l-49 -276h370l-5 -29h-370l-54 -303h396l-5 -29h-428l118 666h428zM313 841h31l69 -97l103 97h37l-126 -117h-30z" />
    <glyph glyph-name="ecaron" unicode="&#x11b;" horiz-adv-x="454" 
d="M427 398q0 -28 -12 -49t-46 -45.5t-107 -45.5t-184 -39q-11 -92 28 -146t116 -54q79 0 155 41l10 -22q-79 -46 -166 -46q-80 0 -127 54t-47 137q0 136 71 224.5t183 88.5q60 0 93 -28t33 -70zM396 398q0 29 -23.5 50t-74.5 21q-84 0 -141.5 -61t-74.5 -161q128 22 200 48
t93 49.5t21 53.5zM206 662h31l69 -97l103 97h37l-126 -117h-30z" />
    <glyph glyph-name="Gcircumflex" unicode="&#x11c;" horiz-adv-x="684" 
d="M652 661l-4 -25q-77 13 -162 13q-61 0 -116.5 -13t-106 -43t-88 -74t-59.5 -109.5t-22 -146.5q0 -116 76.5 -181.5t205.5 -65.5q69 0 159 22l43 244h31l-46 -260q-86 -33 -192 -33q-138 0 -223.5 74.5t-85.5 200.5q0 195 119.5 303.5t310.5 108.5q90 0 160 -15zM352 724
l126 117h30l84 -117h-32l-69 96l-104 -96h-35z" />
    <glyph glyph-name="gcircumflex" unicode="&#x11d;" horiz-adv-x="525" 
d="M483 487l-84 -479q-32 -188 -234 -188q-71 0 -143 30l8 24q71 -27 135 -27q94 0 142.5 42t62.5 123l31 175q-35 -82 -94 -132.5t-130 -50.5q-126 0 -126 155q0 81 28 156.5t87.5 128t136.5 52.5q76 0 142 -51l8 42h30zM440 415q-60 54 -141 54q-93 0 -156 -93.5
t-63 -218.5q0 -126 96 -126q94 0 162 98t96 254q1 8 3 16.5t3 15.5zM206 545l126 117h30l84 -117h-32l-69 96l-104 -96h-35z" />
    <glyph glyph-name="Gbreve" unicode="&#x11e;" horiz-adv-x="684" 
d="M652 661l-4 -25q-77 13 -162 13q-61 0 -116.5 -13t-106 -43t-88 -74t-59.5 -109.5t-22 -146.5q0 -116 76.5 -181.5t205.5 -65.5q69 0 159 22l43 244h31l-46 -260q-86 -33 -192 -33q-138 0 -223.5 74.5t-85.5 200.5q0 195 119.5 303.5t310.5 108.5q90 0 160 -15zM374 834
h25q-6 -37 15.5 -60t65.5 -23t74.5 23.5t39.5 59.5h26q-8 -46 -47 -75.5t-95 -29.5q-54 0 -82.5 29.5t-21.5 75.5z" />
    <glyph glyph-name="gbreve" unicode="&#x11f;" horiz-adv-x="525" 
d="M483 487l-84 -479q-32 -188 -234 -188q-71 0 -143 30l8 24q71 -27 135 -27q94 0 142.5 42t62.5 123l31 175q-35 -82 -94 -132.5t-130 -50.5q-126 0 -126 155q0 81 28 156.5t87.5 128t136.5 52.5q76 0 142 -51l8 42h30zM440 415q-60 54 -141 54q-93 0 -156 -93.5
t-63 -218.5q0 -126 96 -126q94 0 162 98t96 254q1 8 3 16.5t3 15.5zM229 655h25q-6 -37 15.5 -60t65.5 -23t74.5 23.5t39.5 59.5h26q-8 -46 -47 -75.5t-95 -29.5q-54 0 -82.5 29.5t-21.5 75.5z" />
    <glyph glyph-name="Gdotaccent" unicode="&#x120;" horiz-adv-x="684" 
d="M652 661l-4 -25q-77 13 -162 13q-61 0 -116.5 -13t-106 -43t-88 -74t-59.5 -109.5t-22 -146.5q0 -116 76.5 -181.5t205.5 -65.5q69 0 159 22l43 244h31l-46 -260q-86 -33 -192 -33q-138 0 -223.5 74.5t-85.5 200.5q0 195 119.5 303.5t310.5 108.5q90 0 160 -15zM463 744
l15 82h33l-15 -82h-33z" />
    <glyph glyph-name="gdotaccent" unicode="&#x121;" horiz-adv-x="525" 
d="M483 487l-84 -479q-32 -188 -234 -188q-71 0 -143 30l8 24q71 -27 135 -27q94 0 142.5 42t62.5 123l31 175q-35 -82 -94 -132.5t-130 -50.5q-126 0 -126 155q0 81 28 156.5t87.5 128t136.5 52.5q76 0 142 -51l8 42h30zM440 415q-60 54 -141 54q-93 0 -156 -93.5
t-63 -218.5q0 -126 96 -126q94 0 162 98t96 254q1 8 3 16.5t3 15.5zM318 565l14 82h33l-14 -82h-33z" />
    <glyph glyph-name="uni0122" unicode="&#x122;" horiz-adv-x="684" 
d="M652 661l-4 -25q-77 13 -162 13q-61 0 -116.5 -13t-106 -43t-88 -74t-59.5 -109.5t-22 -146.5q0 -116 76.5 -181.5t205.5 -65.5q69 0 159 22l43 244h31l-46 -260q-86 -33 -192 -33q-138 0 -223.5 74.5t-85.5 200.5q0 195 119.5 303.5t310.5 108.5q90 0 160 -15zM337 -58
h46l-13 -76l-36 -74h-22l35 74h-23z" />
    <glyph glyph-name="uni0123" unicode="&#x123;" horiz-adv-x="525" 
d="M483 487l-84 -479q-32 -188 -234 -188q-71 0 -143 30l8 24q71 -27 135 -27q94 0 142.5 42t62.5 123l31 175q-35 -82 -94 -132.5t-130 -50.5q-126 0 -126 155q0 81 28 156.5t87.5 128t136.5 52.5q76 0 142 -51l8 42h30zM440 415q-60 54 -141 54q-93 0 -156 -93.5
t-63 -218.5q0 -126 96 -126q94 0 162 98t96 254q1 8 3 16.5t3 15.5zM293 545l123 117h32l-111 -117h-44z" />
    <glyph glyph-name="Hcircumflex" unicode="&#x124;" horiz-adv-x="667" 
d="M645 666l-117 -666h-31l58 332h-404l-58 -332h-31l117 666h31l-54 -305h404l54 305h31zM302 724l126 117h30l84 -117h-32l-69 96l-104 -96h-35z" />
    <glyph glyph-name="hcircumflex" unicode="&#x125;" 
d="M490 404q0 -12 -4 -38l-64 -366h-30l65 366q4 24 4 36q0 65 -76 65q-59 0 -109.5 -30.5t-84.5 -80t-56 -104t-32 -110.5l-26 -142h-30l117 666h32l-61 -354q40 80 106.5 132t148.5 52q100 0 100 -92zM67 724l126 117h30l84 -117h-32l-69 96l-104 -96h-35z" />
    <glyph glyph-name="Hbar" unicode="&#x126;" horiz-adv-x="687" 
d="M166 361h404l28 158h-404zM161 332l-58 -332h-31l91 519h-90l5 26h90l21 121h31l-21 -121h404l21 121h31l-21 -121h90l-5 -26h-90l-91 -519h-31l58 332h-404z" />
    <glyph glyph-name="hbar" unicode="&#x127;" 
d="M103 142l-26 -142h-30l99 565h-80l4 24h80l14 77h32l-13 -77h129l-4 -24h-129l-44 -253q40 80 106.5 132t148.5 52q100 0 100 -92q0 -12 -4 -38l-64 -366h-30l65 366q4 24 4 36q0 65 -76 65q-59 0 -109.5 -30.5t-84.5 -80t-56 -104t-32 -110.5z" />
    <glyph glyph-name="Itilde" unicode="&#x128;" horiz-adv-x="243" 
d="M216 666l-118 -666h-31l118 666h31zM68 746q31 80 83 80q9 0 17 -1.5t17.5 -6t13 -6t15.5 -8.5l13 -8q50 -30 63 -30q14 0 24.5 9.5t16 19.5t16.5 34l22 -9q-17 -39 -34.5 -59.5t-44.5 -20.5q-20 0 -78 35q-2 1 -11.5 7t-13 7.5t-10.5 5t-13.5 4.5t-13.5 1
q-20 0 -32.5 -14t-27.5 -49z" />
    <glyph glyph-name="itilde" unicode="&#x129;" horiz-adv-x="207" 
d="M162 487l-86 -487h-31l86 487h31zM6 567q31 80 83 80q9 0 17 -1.5t17.5 -6t13 -6t15.5 -9.5l13 -7q50 -30 63 -30q14 0 24.5 9.5t16 19.5t16.5 34l22 -9q-17 -39 -34.5 -59.5t-44.5 -20.5q-20 0 -78 35q-2 1 -11.5 7t-13 7.5t-10.5 5t-13.5 4.5t-13.5 1q-20 0 -32.5 -14
t-27.5 -49z" />
    <glyph glyph-name="Imacron" unicode="&#x12a;" horiz-adv-x="243" 
d="M216 666l-118 -666h-31l118 666h31zM84 773l5 27h258l-5 -27h-258z" />
    <glyph glyph-name="imacron" unicode="&#x12b;" horiz-adv-x="207" 
d="M162 487l-86 -487h-31l86 487h31zM37 594l5 27h258l-5 -27h-258z" />
    <glyph glyph-name="Ibreve" unicode="&#x12c;" horiz-adv-x="243" 
d="M216 666l-118 -666h-31l118 666h31zM109 834h25q-6 -37 15.5 -60t65.5 -23t74.5 23.5t39.5 59.5h26q-8 -46 -47 -75.5t-95 -29.5q-54 0 -82.5 29.5t-21.5 75.5z" />
    <glyph glyph-name="ibreve" unicode="&#x12d;" horiz-adv-x="207" 
d="M162 487l-86 -487h-31l86 487h31zM55 655h25q-6 -37 15.5 -60t65.5 -23t74.5 23.5t39.5 59.5h26q-8 -46 -47 -75.5t-95 -29.5q-54 0 -82.5 29.5t-21.5 75.5z" />
    <glyph glyph-name="Iogonek" unicode="&#x12e;" horiz-adv-x="243" 
d="M67 0l118 666h31l-118 -666h-9q-75 -58 -75 -113q0 -21 12 -33t32 -12q12 0 26 4v-22q-10 -5 -31 -5q-32 0 -50 19.5t-18 47.5q0 71 82 114z" />
    <glyph glyph-name="iogonek" unicode="&#x12f;" horiz-adv-x="202" 
d="M195 660l-16 -90h-31l16 90h31zM47 0l86 487h31l-86 -487h-9q-75 -58 -75 -113q0 -21 12 -33t32 -12q12 0 26 4v-22q-10 -5 -31 -5q-32 0 -50 19.5t-18 47.5q0 71 82 114z" />
    <glyph glyph-name="Idotaccent" unicode="&#x130;" horiz-adv-x="243" 
d="M216 666l-118 -666h-31l118 666h31zM198 744l15 82h33l-15 -82h-33z" />
    <glyph glyph-name="dotlessi" unicode="&#x131;" horiz-adv-x="207" 
d="M162 487l-86 -487h-31l86 487h31z" />
    <glyph glyph-name="IJ" unicode="&#x132;" horiz-adv-x="697" 
d="M216 666l-118 -666h-31l118 666h31zM685 666l-85 -483q-15 -82 -67.5 -132.5t-143.5 -50.5h-126l6 29h124q79 0 121 43.5t54 110.5l80 454h-254l5 29h286z" />
    <glyph glyph-name="ij" unicode="&#x133;" horiz-adv-x="420" 
d="M164 487l-86 -487h-31l86 487h31zM195 660l-16 -90h-31l16 90h31zM382 487l-96 -545q-11 -63 -42 -93t-88 -30q-32 0 -62 15l8 23q27 -11 61 -11q75 0 92 94l96 547h31zM413 660l-16 -90h-31l16 90h31z" />
    <glyph glyph-name="Jcircumflex" unicode="&#x134;" horiz-adv-x="454" 
d="M442 666l-85 -483q-15 -82 -67.5 -132.5t-143.5 -50.5h-126l6 29h124q79 0 121 43.5t54 110.5l80 454h-254l5 29h286zM193 724l126 117h30l84 -117h-32l-69 96l-104 -96h-35z" />
    <glyph glyph-name="jcircumflex" unicode="&#x135;" horiz-adv-x="218" 
d="M180 487l-96 -545q-11 -63 -42 -93t-88 -30q-32 0 -62 15l8 23q27 -11 61 -11q75 0 92 94l96 547h31zM49 545l126 117h30l84 -117h-32l-69 96l-104 -96h-35z" />
    <glyph glyph-name="uni0136" unicode="&#x136;" horiz-adv-x="594" 
d="M627 666l-442 -324l351 -342h-43l-340 332l-59 -332h-32l118 666h32l-55 -310l425 310h45zM257 -58h46l-13 -76l-36 -74h-22l35 74h-23z" />
    <glyph glyph-name="uni0137" unicode="&#x137;" horiz-adv-x="434" 
d="M447 487l-307 -238l236 -249h-40l-218 230l-40 -230h-31l118 666h31l-70 -392l275 213h46zM175 -58h46l-13 -76l-36 -74h-22l35 74h-23z" />
    <glyph glyph-name="kgreenlandic" unicode="&#x138;" horiz-adv-x="434" 
d="M447 487l-307 -238l236 -249h-40l-218 230l-40 -230h-31l86 487h31l-38 -213l275 213h46z" />
    <glyph glyph-name="Lacute" unicode="&#x139;" horiz-adv-x="518" 
d="M456 29l-5 -29h-389l118 666h31l-113 -637h358zM193 724l109 117h45l-123 -117h-31z" />
    <glyph glyph-name="lacute" unicode="&#x13a;" horiz-adv-x="247" 
d="M200 18q-30 -27 -75 -27q-73 0 -73 65q0 8 2 22l103 588h30l-103 -593q-1 -6 -1 -18q0 -37 42 -37q31 0 64 21zM169 724l109 117h45l-123 -117h-31z" />
    <glyph glyph-name="uni013B" unicode="&#x13b;" horiz-adv-x="518" 
d="M456 29l-5 -29h-389l118 666h31l-113 -637h358zM236 -58h46l-13 -76l-36 -74h-22l35 74h-23z" />
    <glyph glyph-name="uni013C" unicode="&#x13c;" horiz-adv-x="247" 
d="M200 18q-30 -27 -75 -27q-73 0 -73 65q0 8 2 22l103 588h30l-103 -593q-1 -6 -1 -18q0 -37 42 -37q31 0 64 21zM77 -58h46l-13 -76l-36 -74h-22l35 74h-23z" />
    <glyph glyph-name="Lcaron" unicode="&#x13d;" horiz-adv-x="518" 
d="M456 29l-5 -29h-389l118 666h31l-113 -637h358zM398 666h46l-13 -76l-36 -74h-22l35 74h-23z" />
    <glyph glyph-name="lcaron" unicode="&#x13e;" horiz-adv-x="313" 
d="M200 18q-30 -27 -75 -27q-73 0 -73 65q0 8 2 22l103 588h30l-103 -593q-1 -6 -1 -18q0 -37 42 -37q31 0 64 21zM297 666h46l-13 -76l-36 -74h-22l35 74h-23z" />
    <glyph glyph-name="Ldot" unicode="&#x13f;" horiz-adv-x="518" 
d="M456 29l-5 -29h-389l118 666h31l-113 -637h358zM358 337l-16 -94h-45l16 94h45z" />
    <glyph glyph-name="ldot" unicode="&#x140;" horiz-adv-x="357" 
d="M200 18q-30 -27 -75 -27q-73 0 -73 65q0 8 2 22l103 588h30l-103 -593q-1 -6 -1 -18q0 -37 42 -37q31 0 64 21zM317 340l-16 -94h-45l16 94h45z" />
    <glyph glyph-name="Lslash" unicode="&#x141;" horiz-adv-x="518" 
d="M451 0h-389l54 306l-100 -65l6 36l101 66l57 323h31l-53 -301l202 132l-6 -36l-203 -132l-53 -300h358z" />
    <glyph glyph-name="lslash" unicode="&#x142;" horiz-adv-x="256" 
d="M134 -9q-73 0 -73 65q0 8 2 22l54 309l-67 -43l6 33l67 43l43 246h30l-39 -224l85 55l-6 -33l-85 -55l-58 -336q-1 -6 -1 -18q0 -37 42 -37q31 0 64 21l11 -21q-30 -27 -75 -27z" />
    <glyph glyph-name="Nacute" unicode="&#x143;" horiz-adv-x="716" 
d="M694 666l-118 -666h-28l-347 621l-110 -621h-29l118 666h29l347 -621l109 621h29zM413 724l109 117h45l-123 -117h-31z" />
    <glyph glyph-name="nacute" unicode="&#x144;" 
d="M490 402q0 -18 -3 -36l-65 -366h-29l65 366q4 24 4 36q0 36 -19.5 50.5t-57.5 14.5q-47 0 -89.5 -20.5t-73.5 -53.5t-56 -76.5t-40 -87t-23 -87.5l-25 -142h-31l86 487h32l-30 -175q40 81 106 132.5t149 51.5q100 0 100 -94zM286 545l109 117h45l-123 -117h-31z" />
    <glyph glyph-name="uni0145" unicode="&#x145;" horiz-adv-x="716" 
d="M694 666l-118 -666h-28l-347 621l-110 -621h-29l118 666h29l347 -621l109 621h29zM288 -58h46l-13 -76l-36 -74h-22l35 74h-23z" />
    <glyph glyph-name="uni0146" unicode="&#x146;" 
d="M490 402q0 -18 -3 -36l-65 -366h-29l65 366q4 24 4 36q0 36 -19.5 50.5t-57.5 14.5q-47 0 -89.5 -20.5t-73.5 -53.5t-56 -76.5t-40 -87t-23 -87.5l-25 -142h-31l86 487h32l-30 -175q40 81 106 132.5t149 51.5q100 0 100 -94zM216 -58h46l-13 -76l-36 -74h-22l35 74h-23z
" />
    <glyph glyph-name="Ncaron" unicode="&#x147;" horiz-adv-x="716" 
d="M694 666l-118 -666h-28l-347 621l-110 -621h-29l118 666h29l347 -621l109 621h29zM344 841h31l69 -97l103 97h37l-126 -117h-30z" />
    <glyph glyph-name="ncaron" unicode="&#x148;" 
d="M490 402q0 -18 -3 -36l-65 -366h-29l65 366q4 24 4 36q0 36 -19.5 50.5t-57.5 14.5q-47 0 -89.5 -20.5t-73.5 -53.5t-56 -76.5t-40 -87t-23 -87.5l-25 -142h-31l86 487h32l-30 -175q40 81 106 132.5t149 51.5q100 0 100 -94zM217 662h31l69 -97l103 97h37l-126 -117h-30z
" />
    <glyph glyph-name="napostrophe" unicode="&#x149;" horiz-adv-x="622" 
d="M565 402q0 -18 -3 -36l-65 -366h-29l65 366q4 24 4 36q0 36 -19.5 50.5t-57.5 14.5q-47 0 -89.5 -20.5t-73.5 -53.5t-56 -76.5t-40 -87t-23 -87.5l-25 -142h-31l86 487h32l-30 -175q40 81 106 132.5t149 51.5q100 0 100 -94zM85 666h46l-13 -76l-36 -74h-22l35 74h-23z
" />
    <glyph glyph-name="Eng" unicode="&#x14a;" horiz-adv-x="716" 
d="M439 -181q-40 0 -64 13l8 25q27 -11 61 -11q76 0 93 94l11 60l-345 617l-8 -47h-3l-101 -570h-29l118 666h29l347 -621l109 621h29l-128 -724q-12 -64 -40.5 -93.5t-86.5 -29.5z" />
    <glyph glyph-name="eng" unicode="&#x14b;" 
d="M285 -181q-40 0 -64 13l8 25q27 -11 61 -11q75 0 92 94l76 426q4 24 4 36q0 36 -19.5 50.5t-57.5 14.5q-47 0 -89.5 -20.5t-73.5 -53.5t-56 -76.5t-40 -87t-23 -87.5l-25 -142h-31l86 487h32l-30 -175q40 81 106 132.5t149 51.5q100 0 100 -94q0 -18 -3 -36l-75 -424
q-12 -64 -40.5 -93.5t-86.5 -29.5z" />
    <glyph glyph-name="Omacron" unicode="&#x14c;" horiz-adv-x="707" 
d="M654 401q0 107 -59.5 177.5t-164.5 70.5q-97 0 -176 -59.5t-120 -148.5t-41 -184q0 -108 59 -174.5t166 -66.5q97 0 175.5 57.5t119.5 145t41 182.5zM685 404q0 -106 -45.5 -200.5t-132 -154.5t-193.5 -60q-118 0 -185 74.5t-67 193.5q0 106 45.5 201.5t132.5 156.5
t195 61q116 0 183 -77t67 -195zM324 773l5 27h258l-5 -27h-258z" />
    <glyph glyph-name="omacron" unicode="&#x14d;" horiz-adv-x="503" 
d="M466 303q0 -121 -72 -216t-181 -95q-79 0 -122.5 53.5t-43.5 137.5q0 134 73 223.5t181 89.5q81 0 123 -53.5t42 -139.5zM437 308q0 74 -35 117.5t-105 43.5q-88 0 -154.5 -81.5t-66.5 -212.5q0 -70 38 -113t104 -43q89 0 154 85.5t65 203.5zM188 594l5 27h258l-5 -27
h-258z" />
    <glyph glyph-name="Obreve" unicode="&#x14e;" horiz-adv-x="707" 
d="M654 401q0 107 -59.5 177.5t-164.5 70.5q-97 0 -176 -59.5t-120 -148.5t-41 -184q0 -108 59 -174.5t166 -66.5q97 0 175.5 57.5t119.5 145t41 182.5zM685 404q0 -106 -45.5 -200.5t-132 -154.5t-193.5 -60q-118 0 -185 74.5t-67 193.5q0 106 45.5 201.5t132.5 156.5
t195 61q116 0 183 -77t67 -195zM356 834h25q-6 -37 15.5 -60t65.5 -23t74.5 23.5t39.5 59.5h26q-8 -46 -47 -75.5t-95 -29.5q-54 0 -82.5 29.5t-21.5 75.5z" />
    <glyph glyph-name="obreve" unicode="&#x14f;" horiz-adv-x="503" 
d="M466 303q0 -121 -72 -216t-181 -95q-79 0 -122.5 53.5t-43.5 137.5q0 134 73 223.5t181 89.5q81 0 123 -53.5t42 -139.5zM437 308q0 74 -35 117.5t-105 43.5q-88 0 -154.5 -81.5t-66.5 -212.5q0 -70 38 -113t104 -43q89 0 154 85.5t65 203.5zM206 655h25q-6 -37 15.5 -60
t65.5 -23t74.5 23.5t39.5 59.5h26q-8 -46 -47 -75.5t-95 -29.5q-54 0 -82.5 29.5t-21.5 75.5z" />
    <glyph glyph-name="Ohungarumlaut" unicode="&#x150;" horiz-adv-x="707" 
d="M654 401q0 107 -59.5 177.5t-164.5 70.5q-97 0 -176 -59.5t-120 -148.5t-41 -184q0 -108 59 -174.5t166 -66.5q97 0 175.5 57.5t119.5 145t41 182.5zM685 404q0 -106 -45.5 -200.5t-132 -154.5t-193.5 -60q-118 0 -185 74.5t-67 193.5q0 106 45.5 201.5t132.5 156.5
t195 61q116 0 183 -77t67 -195zM351 724l98 117h44l-111 -117h-31zM528 724l98 117h44l-111 -117h-31z" />
    <glyph glyph-name="ohungarumlaut" unicode="&#x151;" horiz-adv-x="503" 
d="M466 303q0 -121 -72 -216t-181 -95q-79 0 -122.5 53.5t-43.5 137.5q0 134 73 223.5t181 89.5q81 0 123 -53.5t42 -139.5zM437 308q0 74 -35 117.5t-105 43.5q-88 0 -154.5 -81.5t-66.5 -212.5q0 -70 38 -113t104 -43q89 0 154 85.5t65 203.5zM212 545l98 117h44
l-111 -117h-31zM389 545l98 117h44l-111 -117h-31z" />
    <glyph glyph-name="OE" unicode="&#x152;" horiz-adv-x="987" 
d="M995 666l-5 -29h-397l-49 -276h371l-5 -29h-371l-54 -303h397l-5 -29h-562q-117 0 -185 70.5t-68 188.5q0 104 45 196.5t130.5 151.5t190.5 59h567zM562 639h-135q-95 0 -173 -55t-119 -140t-41 -179q0 -106 60.5 -172t165.5 -66h134z" />
    <glyph glyph-name="oe" unicode="&#x153;" horiz-adv-x="833" 
d="M806 398q0 -28 -12 -49t-46.5 -44.5t-107 -45t-182.5 -40.5q-11 -92 28 -146t117 -54q77 0 153 41l10 -22q-79 -46 -165 -46q-71 0 -116 41.5t-56 110.5q-33 -69 -89 -110.5t-127 -41.5q-79 0 -122.5 53.5t-43.5 137.5q0 134 73 223.5t181 89.5q69 0 109.5 -39.5
t51.5 -106.5q32 68 89 107t129 39q61 0 93.5 -26.5t32.5 -71.5zM436 308q0 74 -35 117.5t-105 43.5q-88 0 -154 -81.5t-66 -212.5q0 -71 37 -113.5t105 -42.5q89 0 153.5 85.5t64.5 203.5zM776 398q0 31 -23.5 51t-75.5 20q-84 0 -141.5 -61t-74.5 -161q97 17 162 35t97 38
t44 38t12 40z" />
    <glyph glyph-name="Racute" unicode="&#x154;" horiz-adv-x="679" 
d="M606 516q0 57 -37 89t-95 32h-269l-54 -307h269q75 0 130.5 55t55.5 131zM637 519q0 -82 -53 -141.5t-134 -73.5l170 -304h-37l-168 301q0 -1 -135 -1l-134 1l-53 -301h-31l117 666h292q73 0 119.5 -38t46.5 -109zM370 724l109 117h45l-123 -117h-31z" />
    <glyph glyph-name="racute" unicode="&#x155;" horiz-adv-x="326" 
d="M344 496l-2 -30q-84 -6 -151.5 -107.5t-89.5 -227.5l-23 -131h-31l86 487h32l-30 -173q34 74 88.5 125t120.5 57zM212 545l109 117h45l-123 -117h-31z" />
    <glyph glyph-name="uni0156" unicode="&#x156;" horiz-adv-x="679" 
d="M606 516q0 57 -37 89t-95 32h-269l-54 -307h269q75 0 130.5 55t55.5 131zM637 519q0 -82 -53 -141.5t-134 -73.5l170 -304h-37l-168 301q0 -1 -135 -1l-134 1l-53 -301h-31l117 666h292q73 0 119.5 -38t46.5 -109zM292 -58h46l-13 -76l-36 -74h-22l35 74h-23z" />
    <glyph glyph-name="uni0157" unicode="&#x157;" horiz-adv-x="326" 
d="M344 496l-2 -30q-84 -6 -151.5 -107.5t-89.5 -227.5l-23 -131h-31l86 487h32l-30 -173q34 74 88.5 125t120.5 57zM32 -58h46l-13 -76l-36 -74h-22l35 74h-23z" />
    <glyph glyph-name="Rcaron" unicode="&#x158;" horiz-adv-x="679" 
d="M606 516q0 57 -37 89t-95 32h-269l-54 -307h269q75 0 130.5 55t55.5 131zM637 519q0 -82 -53 -141.5t-134 -73.5l170 -304h-37l-168 301q0 -1 -135 -1l-134 1l-53 -301h-31l117 666h292q73 0 119.5 -38t46.5 -109zM288 841h31l69 -97l103 97h37l-126 -117h-30z" />
    <glyph glyph-name="rcaron" unicode="&#x159;" horiz-adv-x="326" 
d="M344 496l-2 -30q-84 -6 -151.5 -107.5t-89.5 -227.5l-23 -131h-31l86 487h32l-30 -173q34 74 88.5 125t120.5 57zM144 662h31l69 -97l103 97h37l-126 -117h-30z" />
    <glyph glyph-name="Sacute" unicode="&#x15a;" horiz-adv-x="619" 
d="M607 645l-7 -25q-111 29 -213 29q-110 0 -166.5 -32t-56.5 -107q0 -47 37 -77t147 -79t154 -88t44 -88q0 -85 -75 -137t-190 -52q-127 0 -249 51l10 25q120 -49 241 -49q99 0 164.5 45t65.5 112q0 43 -38 78t-139 77q-117 48 -159.5 88.5t-42.5 93.5q0 166 256 166
q112 0 217 -31zM372 724l109 117h45l-123 -117h-31z" />
    <glyph glyph-name="sacute" unicode="&#x15b;" horiz-adv-x="423" 
d="M389 475l-6 -24q-66 19 -128 19q-74 0 -107.5 -19.5t-33.5 -68.5q0 -35 21 -57t91 -68q54 -36 74.5 -51t37 -37.5t16.5 -48.5q0 -59 -52.5 -93.5t-117.5 -34.5q-80 0 -164 45l10 22q82 -41 156 -41q57 0 99 29t42 73q0 28 -24 50t-104 73q-63 40 -87.5 69.5t-24.5 69.5
q0 61 42.5 87.5t127.5 26.5q71 0 132 -21zM231 545l109 117h45l-123 -117h-31z" />
    <glyph glyph-name="Scircumflex" unicode="&#x15c;" horiz-adv-x="619" 
d="M607 645l-7 -25q-111 29 -213 29q-110 0 -166.5 -32t-56.5 -107q0 -47 37 -77t147 -79t154 -88t44 -88q0 -85 -75 -137t-190 -52q-127 0 -249 51l10 25q120 -49 241 -49q99 0 164.5 45t65.5 112q0 43 -38 78t-139 77q-117 48 -159.5 88.5t-42.5 93.5q0 166 256 166
q112 0 217 -31zM280 724l126 117h30l84 -117h-32l-69 96l-104 -96h-35z" />
    <glyph glyph-name="scircumflex" unicode="&#x15d;" horiz-adv-x="423" 
d="M389 475l-6 -24q-66 19 -128 19q-74 0 -107.5 -19.5t-33.5 -68.5q0 -35 21 -57t91 -68q54 -36 74.5 -51t37 -37.5t16.5 -48.5q0 -59 -52.5 -93.5t-117.5 -34.5q-80 0 -164 45l10 22q82 -41 156 -41q57 0 99 29t42 73q0 28 -24 50t-104 73q-63 40 -87.5 69.5t-24.5 69.5
q0 61 42.5 87.5t127.5 26.5q71 0 132 -21zM131 545l126 117h30l84 -117h-32l-69 96l-104 -96h-35z" />
    <glyph glyph-name="uni015E" unicode="&#x15e;" horiz-adv-x="619" 
d="M244 -181q-39 0 -69 14l8 22q26 -12 60 -12q63 0 63 44q0 34 -42 34q-31 0 -51 -4l34 73q-110 6 -215 50l10 25q120 -49 241 -49q99 0 164.5 45t65.5 112q0 43 -38 78t-139 77q-117 48 -159.5 88.5t-42.5 93.5q0 166 256 166q112 0 217 -31l-7 -25q-111 29 -213 29
q-110 0 -166.5 -32t-56.5 -107q0 -47 37 -77t147 -79t154 -88t44 -88q0 -85 -75 -137t-190 -52h-10l-21 -46q10 2 20 2q30 0 48 -15.5t18 -42.5q0 -33 -26 -50.5t-66 -17.5z" />
    <glyph glyph-name="uni015F" unicode="&#x15f;" horiz-adv-x="423" 
d="M159 -181q-39 0 -69 14l8 22q26 -12 60 -12q63 0 63 44q0 34 -42 34q-31 0 -51 -4l36 76q-74 6 -144 44l10 22q82 -41 156 -41q57 0 99 29t42 73q0 28 -24 50t-104 73q-63 40 -87.5 69.5t-24.5 69.5q0 61 42.5 87.5t127.5 26.5q71 0 132 -21l-6 -24q-66 19 -128 19
q-74 0 -107.5 -19.5t-33.5 -68.5q0 -35 21 -57t91 -68q54 -36 74.5 -51t37 -37.5t16.5 -48.5q0 -59 -52 -93.5t-115 -34.5l-22 -49q10 2 20 2q30 0 48 -15.5t18 -42.5q0 -33 -26 -50.5t-66 -17.5z" />
    <glyph glyph-name="Scaron" unicode="&#x160;" horiz-adv-x="619" 
d="M607 645l-7 -25q-111 29 -213 29q-110 0 -166.5 -32t-56.5 -107q0 -47 37 -77t147 -79t154 -88t44 -88q0 -85 -75 -137t-190 -52q-127 0 -249 51l10 25q120 -49 241 -49q99 0 164.5 45t65.5 112q0 43 -38 78t-139 77q-117 48 -159.5 88.5t-42.5 93.5q0 166 256 166
q112 0 217 -31zM294 841h31l69 -97l103 97h37l-126 -117h-30z" />
    <glyph glyph-name="scaron" unicode="&#x161;" horiz-adv-x="423" 
d="M389 475l-6 -24q-66 19 -128 19q-74 0 -107.5 -19.5t-33.5 -68.5q0 -35 21 -57t91 -68q54 -36 74.5 -51t37 -37.5t16.5 -48.5q0 -59 -52.5 -93.5t-117.5 -34.5q-80 0 -164 45l10 22q82 -41 156 -41q57 0 99 29t42 73q0 28 -24 50t-104 73q-63 40 -87.5 69.5t-24.5 69.5
q0 61 42.5 87.5t127.5 26.5q71 0 132 -21zM158 662h31l69 -97l103 97h37l-126 -117h-30z" />
    <glyph glyph-name="Tcommaaccent" unicode="&#x162;" horiz-adv-x="524" 
d="M577 666l-5 -29h-232l-113 -637h-31l113 637h-232l5 29h495zM180 -58h46l-13 -76l-36 -74h-22l35 74h-23z" />
    <glyph glyph-name="tcommaaccent" unicode="&#x163;" horiz-adv-x="296" 
d="M276 487l-5 -27h-105l-65 -370q-3 -18 -3 -27q0 -45 46 -45q35 0 79 22l9 -22q-43 -26 -87 -26q-77 0 -77 73q0 16 4 36l64 359h-69l5 27h68l26 139h30l-25 -139h105zM103 -58h46l-13 -76l-36 -74h-22l35 74h-23z" />
    <glyph glyph-name="Tcaron" unicode="&#x164;" horiz-adv-x="524" 
d="M577 666l-5 -29h-232l-113 -637h-31l113 637h-232l5 29h495zM241 841h31l69 -97l103 97h37l-126 -117h-30z" />
    <glyph glyph-name="tcaron" unicode="&#x165;" horiz-adv-x="323" 
d="M276 487l-5 -27h-105l-65 -370q-3 -18 -3 -27q0 -45 46 -45q35 0 79 22l9 -22q-43 -26 -87 -26q-77 0 -77 73q0 16 4 36l64 359h-69l5 27h68l26 139h30l-25 -139h105zM328 721h45l-11 -68l-36 -72h-22l35 72h-23z" />
    <glyph glyph-name="Tbar" unicode="&#x166;" horiz-adv-x="524" 
d="M433 345h-145l-61 -345h-31l61 345h-146l6 27h145l47 265h-232l5 29h495l-5 -29h-232l-47 -265h146z" />
    <glyph glyph-name="tbar" unicode="&#x167;" horiz-adv-x="296" 
d="M232 18q-43 -26 -87 -26q-77 0 -77 73q0 16 4 36l29 161h-69l5 27h69l30 171h-69l5 27h68l26 139h30l-25 -139h105l-5 -27h-105l-30 -171h105l-5 -27h-105l-30 -172q-3 -18 -3 -27q0 -45 46 -45q35 0 79 22z" />
    <glyph glyph-name="Utilde" unicode="&#x168;" horiz-adv-x="685" 
d="M673 666l-79 -447q-19 -109 -98 -169.5t-192 -60.5q-93 0 -152.5 48.5t-59.5 138.5q0 24 4 43l79 447h31l-80 -452q-4 -28 -4 -42q0 -79 52.5 -117.5t134.5 -38.5q92 0 163.5 52.5t88.5 145.5l80 452h32zM290 746q31 80 83 80q9 0 17 -1.5t17.5 -6t13 -6t15.5 -8.5l13 -8
q50 -30 63 -30q14 0 24.5 9.5t16 19.5t16.5 34l22 -9q-17 -39 -34.5 -59.5t-44.5 -20.5q-21 0 -78 35q-2 1 -11.5 7t-13 7.5t-10.5 5t-13.5 4.5t-13.5 1q-20 0 -32.5 -14t-27.5 -49z" />
    <glyph glyph-name="utilde" unicode="&#x169;" 
d="M500 487l-86 -487h-32l31 175q-39 -79 -107 -131t-149 -52q-100 0 -100 93q0 13 4 37l64 365h30l-65 -365q-4 -24 -4 -36q0 -66 76 -66q57 0 107.5 31t85 81t57 104.5t32.5 108.5l26 142h30zM181 567q31 80 83 80q9 0 17 -1.5t17.5 -6t13 -6t16.5 -9.5l12 -7
q50 -30 63 -30q14 0 24.5 9.5t16 19.5t16.5 34l22 -9q-17 -39 -34.5 -59.5t-44.5 -20.5q-21 0 -78 35q-2 1 -11.5 7t-13 7.5t-10.5 5t-13.5 4.5t-13.5 1q-20 0 -32.5 -14t-27.5 -49z" />
    <glyph glyph-name="Umacron" unicode="&#x16a;" horiz-adv-x="685" 
d="M673 666l-79 -447q-19 -109 -98 -169.5t-192 -60.5q-93 0 -152.5 48.5t-59.5 138.5q0 24 4 43l79 447h31l-80 -452q-4 -28 -4 -42q0 -79 52.5 -117.5t134.5 -38.5q92 0 163.5 52.5t88.5 145.5l80 452h32zM309 773l5 27h258l-5 -27h-258z" />
    <glyph glyph-name="umacron" unicode="&#x16b;" 
d="M500 487l-86 -487h-32l31 175q-39 -79 -107 -131t-149 -52q-100 0 -100 93q0 13 4 37l64 365h30l-65 -365q-4 -24 -4 -36q0 -66 76 -66q57 0 107.5 31t85 81t57 104.5t32.5 108.5l26 142h30zM204 594l5 27h258l-5 -27h-258z" />
    <glyph glyph-name="Ubreve" unicode="&#x16c;" horiz-adv-x="685" 
d="M673 666l-79 -447q-19 -109 -98 -169.5t-192 -60.5q-93 0 -152.5 48.5t-59.5 138.5q0 24 4 43l79 447h31l-80 -452q-4 -28 -4 -42q0 -79 52.5 -117.5t134.5 -38.5q92 0 163.5 52.5t88.5 145.5l80 452h32zM327 834h25q-6 -37 15.5 -60t65.5 -23t74.5 23.5t39.5 59.5h26
q-8 -46 -47 -75.5t-95 -29.5q-54 0 -82.5 29.5t-21.5 75.5z" />
    <glyph glyph-name="ubreve" unicode="&#x16d;" 
d="M500 487l-86 -487h-32l31 175q-39 -79 -107 -131t-149 -52q-100 0 -100 93q0 13 4 37l64 365h30l-65 -365q-4 -24 -4 -36q0 -66 76 -66q57 0 107.5 31t85 81t57 104.5t32.5 108.5l26 142h30zM222 655h25q-6 -37 15.5 -60t65.5 -23t74.5 23.5t39.5 59.5h26
q-8 -46 -47 -75.5t-95 -29.5q-54 0 -82.5 29.5t-21.5 75.5z" />
    <glyph glyph-name="Uring" unicode="&#x16e;" horiz-adv-x="685" 
d="M673 666l-79 -447q-19 -109 -98 -169.5t-192 -60.5q-93 0 -152.5 48.5t-59.5 138.5q0 24 4 43l79 447h31l-80 -452q-4 -28 -4 -42q0 -79 52.5 -117.5t134.5 -38.5q92 0 163.5 52.5t88.5 145.5l80 452h32zM432 724q-27 0 -44 17t-17 43q0 31 21 52t58 21q26 0 43.5 -17
t17.5 -42q0 -33 -21.5 -53.5t-57.5 -20.5zM434 744q26 0 41 15t15 37q0 18 -11 29.5t-30 11.5q-25 0 -40.5 -15t-15.5 -38q0 -17 11 -28.5t30 -11.5z" />
    <glyph glyph-name="uring" unicode="&#x16f;" 
d="M500 487l-86 -487h-32l31 175q-39 -79 -107 -131t-149 -52q-100 0 -100 93q0 13 4 37l64 365h30l-65 -365q-4 -24 -4 -36q0 -66 76 -66q57 0 107.5 31t85 81t57 104.5t32.5 108.5l26 142h30zM327 545q-27 0 -44 17t-17 43q0 31 21 52t58 21q26 0 43.5 -17t17.5 -42
q0 -33 -21.5 -53.5t-57.5 -20.5zM329 565q26 0 41 15t15 37q0 18 -11 29.5t-30 11.5q-25 0 -40.5 -15t-15.5 -38q0 -17 11 -28.5t30 -11.5z" />
    <glyph glyph-name="Uhungarumlaut" unicode="&#x170;" horiz-adv-x="685" 
d="M673 666l-79 -447q-19 -109 -98 -169.5t-192 -60.5q-93 0 -152.5 48.5t-59.5 138.5q0 24 4 43l79 447h31l-80 -452q-4 -28 -4 -42q0 -79 52.5 -117.5t134.5 -38.5q92 0 163.5 52.5t88.5 145.5l80 452h32zM313 724l98 117h44l-111 -117h-31zM490 724l98 117h44l-111 -117
h-31z" />
    <glyph glyph-name="uhungarumlaut" unicode="&#x171;" 
d="M500 487l-86 -487h-32l31 175q-39 -79 -107 -131t-149 -52q-100 0 -100 93q0 13 4 37l64 365h30l-65 -365q-4 -24 -4 -36q0 -66 76 -66q57 0 107.5 31t85 81t57 104.5t32.5 108.5l26 142h30zM205 545l98 117h44l-111 -117h-31zM382 545l98 117h44l-111 -117h-31z" />
    <glyph glyph-name="Uogonek" unicode="&#x172;" horiz-adv-x="685" 
d="M361 -181q-36 0 -53.5 18t-17.5 46q0 33 24 64t61 49q-32 -7 -71 -7q-93 0 -152.5 48.5t-59.5 138.5q0 24 4 43l79 447h31l-80 -452q-4 -28 -4 -42q0 -79 52.5 -117.5t134.5 -38.5q92 0 163.5 52.5t88.5 145.5l80 452h32l-79 -447q-23 -135 -156 -204q-119 -61 -119 -131
q0 -42 46 -42q19 0 36 6v-21q-16 -8 -40 -8z" />
    <glyph glyph-name="uogonek" unicode="&#x173;" 
d="M382 0l31 175q-39 -79 -107 -131t-149 -52q-100 0 -100 93q0 13 4 37l64 365h30l-65 -365q-4 -24 -4 -36q0 -66 76 -66q57 0 107.5 31t85 81t57 104.5t32.5 108.5l26 142h30l-86 -487h-10q-46 -31 -66.5 -57.5t-20.5 -58.5q0 -42 46 -42q19 0 36 6v-21q-16 -8 -40 -8
q-36 0 -53.5 18t-17.5 46q0 75 94 117z" />
    <glyph glyph-name="Wcircumflex" unicode="&#x174;" horiz-adv-x="867" 
d="M930 666l-315 -666h-30l-77 650l-306 -650h-29l-81 666h29l72 -629l296 629h43l73 -629l297 629h28zM398 724l126 117h30l84 -117h-32l-69 96l-104 -96h-35z" />
    <glyph glyph-name="wcircumflex" unicode="&#x175;" horiz-adv-x="674" 
d="M702 487l-252 -487h-26l-56 440l-210 -440h-26l-80 487h32l67 -437l210 437h30l55 -427l225 427h31zM256 545l126 117h30l84 -117h-32l-69 96l-104 -96h-35z" />
    <glyph glyph-name="Ycircumflex" unicode="&#x176;" horiz-adv-x="593" 
d="M681 666l-349 -387l-50 -279h-32l50 279l-213 387h32l199 -362l328 362h35zM258 724l126 117h30l84 -117h-32l-69 96l-104 -96h-35z" />
    <glyph glyph-name="ycircumflex" unicode="&#x177;" horiz-adv-x="441" 
d="M469 487l-384 -660h-31l100 172l-112 488h33l99 -452l263 452h32zM146 545l126 117h30l84 -117h-32l-69 96l-104 -96h-35z" />
    <glyph glyph-name="Ydieresis" unicode="&#x178;" horiz-adv-x="593" 
d="M681 666l-349 -387l-50 -279h-32l50 279l-213 387h32l199 -362l328 362h35zM462 750l11 65h41l-11 -65h-41zM279 750l11 65h41l-11 -65h-41z" />
    <glyph glyph-name="Zacute" unicode="&#x179;" horiz-adv-x="638" 
d="M666 666l-6 -30l-595 -609h485l-5 -27h-523l5 30l598 609h-476l5 27h512zM383 724l109 117h45l-123 -117h-31z" />
    <glyph glyph-name="zacute" unicode="&#x17a;" horiz-adv-x="485" 
d="M468 487l-5 -30l-410 -432h339l-2 -25h-373l5 30l409 431h-317l3 26h351zM258 545l109 117h45l-123 -117h-31z" />
    <glyph glyph-name="Zdotaccent" unicode="&#x17b;" horiz-adv-x="638" 
d="M666 666l-6 -30l-595 -609h485l-5 -27h-523l5 30l598 609h-476l5 27h512zM382 744l14 82h33l-14 -82h-33z" />
    <glyph glyph-name="zdotaccent" unicode="&#x17c;" horiz-adv-x="485" 
d="M468 487l-5 -30l-410 -432h339l-2 -25h-373l5 30l409 431h-317l3 26h351zM278 565l14 82h33l-14 -82h-33z" />
    <glyph glyph-name="Zcaron" unicode="&#x17d;" horiz-adv-x="638" 
d="M666 666l-6 -30l-595 -609h485l-5 -27h-523l5 30l598 609h-476l5 27h512zM311 841h31l69 -97l103 97h37l-126 -117h-30z" />
    <glyph glyph-name="zcaron" unicode="&#x17e;" horiz-adv-x="485" 
d="M468 487l-5 -30l-410 -432h339l-2 -25h-373l5 30l409 431h-317l3 26h351zM194 662h31l69 -97l103 97h37l-126 -117h-30z" />
    <glyph glyph-name="uni0192" unicode="&#x192;" horiz-adv-x="438" 
d="M456 684l-8 -25q-28 5 -63 5q-49 0 -70 -25t-31 -84l-12 -68h119l-6 -29h-119l-88 -502q-24 -137 -142 -137q-31 0 -59 8l6 23q25 -7 54 -7q90 0 110 112l88 503h-79l5 29h79l12 68q13 74 45 105.5t97 31.5q35 0 62 -8z" />
    <glyph glyph-name="Aringacute" unicode="&#x1fa;" horiz-adv-x="616" 
d="M391 666q26 0 41 15t15 37q0 18 -11 29.5t-30 11.5q-25 0 -40.5 -15t-15.5 -38q0 -17 11 -28.5t30 -11.5zM475 228l-92 389l-230 -389h322zM138 201l-120 -201h-33l387 648q-20 5 -32 20.5t-12 37.5q0 31 21 52t58 21q26 0 43.5 -17t17.5 -42q0 -29 -17.5 -49t-46.5 -24
l155 -647h-30l-48 201h-343zM405 808l62 69h45l-76 -69h-31z" />
    <glyph glyph-name="aringacute" unicode="&#x1fb;" horiz-adv-x="507" 
d="M365 716l62 69h45l-76 -69h-31zM340 545q-27 0 -44 17t-17 43q0 31 21 52t58 21q26 0 43.5 -17t17.5 -42q0 -33 -21.5 -53.5t-57.5 -20.5zM342 565q26 0 41 15t15 37q0 18 -11 29.5t-30 11.5q-25 0 -40.5 -15t-15.5 -38q0 -17 11 -28.5t30 -11.5zM473 487l-86 -487h-29
l30 175q-35 -81 -95 -132t-128 -51q-125 0 -125 159q0 81 28 158t88 132t137 55q74 0 142 -52l7 43h31zM429 414q-61 55 -140 55q-93 0 -156.5 -97.5t-63.5 -222.5q0 -130 95 -130q94 0 161 100.5t98 258.5q4 20 6 36z" />
    <glyph glyph-name="AEacute" unicode="&#x1fc;" horiz-adv-x="877" 
d="M426 228l-45 388l-229 -388h274zM885 666l-5 -29h-474l35 -276h363l-5 -29h-355l39 -303h289l-5 -29h-314l-21 201h-296l-119 -201h-30l395 666h503zM404 724l109 117h45l-123 -117h-31z" />
    <glyph glyph-name="aeacute" unicode="&#x1fd;" horiz-adv-x="775" 
d="M750 410q0 -27 -13.5 -48t-49.5 -43.5t-107 -43t-177 -37.5q-11 -94 28 -156.5t116 -62.5t153 41l10 -22q-73 -46 -166 -46q-64 0 -106 34.5t-59 93.5q-45 -128 -196 -128q-58 0 -99.5 33t-41.5 90q0 78 50 114.5t123 36.5h162l12 67q23 134 -129 134q-58 0 -143 -15
l-3 27q88 17 150 17q78 0 118 -29.5t43 -82.5q73 112 205 112q55 0 87.5 -23t32.5 -63zM372 237h-162q-62 0 -100 -29.5t-38 -91.5q0 -42 32 -68.5t85 -26.5q142 0 169 140zM719 410q0 26 -23.5 42t-69.5 16q-70 0 -129.5 -45t-82.5 -126q-1 -5 -2.5 -15.5t-2.5 -15.5
q310 48 310 144zM440 545l109 117h45l-123 -117h-31z" />
    <glyph glyph-name="Oslashacute" unicode="&#x1fe;" horiz-adv-x="808" 
d="M656 565q-62 84 -176 84q-95 0 -173.5 -58.5t-120 -146.5t-41.5 -181q0 -83 37 -146zM704 401q0 84 -37 147l-474 -448q62 -84 175 -84q90 0 168.5 57.5t123 146.5t44.5 181zM786 661l-94 -89q44 -70 44 -165q0 -104 -46 -199.5t-133.5 -157t-193.5 -61.5q-126 0 -195 88
l-93 -88l-13 15l94 89q-44 70 -44 164q0 105 44.5 200t132 157t196.5 62q126 0 195 -88l93 88zM473 724l109 117h45l-123 -117h-31z" />
    <glyph glyph-name="oslashacute" unicode="&#x1ff;" horiz-adv-x="595" 
d="M558 483l-64 -63q27 -46 27 -115q0 -121 -73 -217t-190 -96q-89 0 -136 61l-61 -61l-14 14l64 63q-27 47 -27 116q0 76 31 146.5t92.5 117.5t139.5 47q88 0 135 -60l62 62zM490 302q0 55 -20 94l-324 -321q39 -54 118 -54q70 0 123 43.5t78 106t25 131.5zM459 413
q-39 53 -117 53q-104 0 -165.5 -86.5t-61.5 -194.5q0 -51 20 -92zM338 545l109 117h45l-123 -117h-31z" />
    <glyph glyph-name="uni0218" unicode="&#x218;" horiz-adv-x="619" 
d="M607 645l-7 -25q-111 29 -213 29q-110 0 -166.5 -32t-56.5 -107q0 -47 37 -77t147 -79t154 -88t44 -88q0 -85 -75 -137t-190 -52q-127 0 -249 51l10 25q120 -49 241 -49q99 0 164.5 45t65.5 112q0 43 -38 78t-139 77q-117 48 -159.5 88.5t-42.5 93.5q0 166 256 166
q112 0 217 -31zM245 -58h46l-13 -76l-36 -74h-22l35 74h-23z" />
    <glyph glyph-name="uni0219" unicode="&#x219;" horiz-adv-x="423" 
d="M389 475l-6 -24q-66 19 -128 19q-74 0 -107.5 -19.5t-33.5 -68.5q0 -35 21 -57t91 -68q54 -36 74.5 -51t37 -37.5t16.5 -48.5q0 -59 -52.5 -93.5t-117.5 -34.5q-80 0 -164 45l10 22q82 -41 156 -41q57 0 99 29t42 73q0 28 -24 50t-104 73q-63 40 -87.5 69.5t-24.5 69.5
q0 61 42.5 87.5t127.5 26.5q71 0 132 -21zM145 -58h46l-13 -76l-36 -74h-22l35 74h-23z" />
    <glyph glyph-name="circumflex" unicode="&#x2c6;" horiz-adv-x="400" 
d="M125 545l126 117h30l84 -117h-32l-69 96l-104 -96h-35z" />
    <glyph glyph-name="caron" unicode="&#x2c7;" horiz-adv-x="400" 
d="M146 662h31l69 -97l103 97h37l-126 -117h-30z" />
    <glyph glyph-name="breve" unicode="&#x2d8;" horiz-adv-x="406" 
d="M144 655h25q-6 -37 15.5 -60t65.5 -23t74.5 23.5t39.5 59.5h26q-8 -46 -47 -75.5t-95 -29.5q-54 0 -82.5 29.5t-21.5 75.5z" />
    <glyph glyph-name="dotaccent" unicode="&#x2d9;" horiz-adv-x="193" 
d="M125 565l14 82h33l-14 -82h-33z" />
    <glyph glyph-name="ring" unicode="&#x2da;" horiz-adv-x="299" 
d="M197 545q-27 0 -44 17t-17 43q0 31 21 52t58 21q26 0 43.5 -17t17.5 -42q0 -33 -21.5 -53.5t-57.5 -20.5zM199 565q26 0 41 15t15 37q0 18 -11 29.5t-30 11.5q-25 0 -40.5 -15t-15.5 -38q0 -17 11 -28.5t30 -11.5z" />
    <glyph glyph-name="ogonek" unicode="&#x2db;" horiz-adv-x="282" 
d="M131 0h22q-46 -31 -66.5 -57.5t-20.5 -58.5q0 -42 46 -42q20 0 36 6v-21q-16 -8 -40 -8q-36 0 -53.5 18t-17.5 46q0 75 94 117z" />
    <glyph glyph-name="tilde" unicode="&#x2dc;" horiz-adv-x="449" 
d="M127 567q31 80 83 80q9 0 17 -1.5t17.5 -6t13 -6t16.5 -9.5l12 -7q50 -30 63 -30q14 0 24.5 9.5t16 19.5t16.5 34l22 -9q-17 -39 -34.5 -59.5t-44.5 -20.5q-21 0 -78 35q-2 1 -11.5 7t-13 7.5t-10.5 5t-13.5 4.5t-13.5 1q-20 0 -32.5 -14t-27.5 -49z" />
    <glyph glyph-name="hungarumlaut" unicode="&#x2dd;" horiz-adv-x="459" 
d="M125 545l98 117h44l-111 -117h-31zM302 545l98 117h44l-111 -117h-31z" />
    <glyph glyph-name="uni0312" unicode="&#x312;" horiz-adv-x="294" 
d="M125 545l123 117h32l-111 -117h-44z" />
    <glyph glyph-name="uni0315" unicode="&#x315;" horiz-adv-x="206" 
d="M151 666h46l-13 -76l-36 -74h-22l35 74h-23z" />
    <glyph glyph-name="uni0326" unicode="&#x326;" horiz-adv-x="206" 
d="M45 -58h46l-13 -76l-36 -74h-22l35 74h-23z" />
    <glyph glyph-name="uni03A9" unicode="&#x3a9;" horiz-adv-x="592" 
d="M530 666l-3 -17h-322l319 -388l-16 -14l-317 387l-56 -321h-18l62 353h351z" />
    <glyph glyph-name="pi" unicode="&#x3c0;" horiz-adv-x="572" 
d="M505 353l-63 -353h-350l3 17h321l-319 388l16 14l318 -387l56 321h18z" />
    <glyph glyph-name="Wgrave" unicode="&#x1e80;" horiz-adv-x="867" 
d="M930 666l-315 -666h-30l-77 650l-306 -650h-29l-81 666h29l72 -629l296 629h43l73 -629l297 629h28zM493 724l-81 117h37l70 -117h-26z" />
    <glyph glyph-name="wgrave" unicode="&#x1e81;" horiz-adv-x="674" 
d="M702 487l-252 -487h-26l-56 440l-210 -440h-26l-80 487h32l67 -437l210 437h30l55 -427l225 427h31zM359 545l-81 117h37l70 -117h-26z" />
    <glyph glyph-name="Wacute" unicode="&#x1e82;" horiz-adv-x="867" 
d="M930 666l-315 -666h-30l-77 650l-306 -650h-29l-81 666h29l72 -629l296 629h43l73 -629l297 629h28zM507 724l109 117h45l-123 -117h-31z" />
    <glyph glyph-name="wacute" unicode="&#x1e83;" horiz-adv-x="674" 
d="M702 487l-252 -487h-26l-56 440l-210 -440h-26l-80 487h32l67 -437l210 437h30l55 -427l225 427h31zM376 545l109 117h45l-123 -117h-31z" />
    <glyph glyph-name="Wdieresis" unicode="&#x1e84;" horiz-adv-x="867" 
d="M930 666l-315 -666h-30l-77 650l-306 -650h-29l-81 666h29l72 -629l296 629h43l73 -629l297 629h28zM598 750l11 65h41l-11 -65h-41zM415 750l11 65h41l-11 -65h-41z" />
    <glyph glyph-name="wdieresis" unicode="&#x1e85;" horiz-adv-x="674" 
d="M702 487l-252 -487h-26l-56 440l-210 -440h-26l-80 487h32l67 -437l210 437h30l55 -427l225 427h31zM461 571l11 65h41l-11 -65h-41zM278 571l11 65h41l-11 -65h-41z" />
    <glyph glyph-name="Ygrave" unicode="&#x1ef2;" horiz-adv-x="593" 
d="M681 666l-349 -387l-50 -279h-32l50 279l-213 387h32l199 -362l328 362h35zM362 724l-81 117h37l70 -117h-26z" />
    <glyph glyph-name="ygrave" unicode="&#x1ef3;" horiz-adv-x="441" 
d="M469 487l-384 -660h-31l100 172l-112 488h33l99 -452l263 452h32zM249 545l-81 117h37l70 -117h-26z" />
    <glyph glyph-name="endash" unicode="&#x2013;" horiz-adv-x="532" 
d="M490 295l-6 -35h-417l6 35h417z" />
    <glyph glyph-name="emdash" unicode="&#x2014;" horiz-adv-x="714" 
d="M672 295l-6 -35h-599l6 35h599z" />
    <glyph glyph-name="quoteleft" unicode="&#x2018;" horiz-adv-x="181" 
d="M184 666l-43 -98h23l-17 -93h-45l17 94l42 97h23z" />
    <glyph glyph-name="quoteright" unicode="&#x2019;" horiz-adv-x="181" 
d="M204 666l-17 -94l-42 -97h-23l43 98h-24l17 93h46z" />
    <glyph glyph-name="quotesinglbase" unicode="&#x201a;" horiz-adv-x="215" 
d="M118 94l-17 -94l-42 -97h-22l42 98h-23l17 93h45z" />
    <glyph glyph-name="quotedblleft" unicode="&#x201c;" horiz-adv-x="295" 
d="M298 666l-43 -98h23l-17 -93h-45l17 94l42 97h23zM183 666l-42 -98h23l-17 -93h-45l17 94l42 97h22z" />
    <glyph glyph-name="quotedblright" unicode="&#x201d;" horiz-adv-x="295" 
d="M318 666l-17 -94l-42 -97h-23l43 98h-24l17 93h46zM204 666l-17 -94l-42 -97h-23l43 98h-24l17 93h46z" />
    <glyph glyph-name="quotedblbase" unicode="&#x201e;" horiz-adv-x="330" 
d="M233 94l-17 -94l-42 -97h-23l43 98h-24l17 93h46zM119 94l-17 -94l-42 -97h-23l43 98h-24l17 93h46z" />
    <glyph glyph-name="dagger" unicode="&#x2020;" horiz-adv-x="455" 
d="M448 514l-7 -40l-167 19l-12 -173l-98 -451h-2l60 451l50 173l-175 -19l7 40l168 -20l11 172h40l-49 -172z" />
    <glyph glyph-name="daggerdbl" unicode="&#x2021;" horiz-adv-x="543" 
d="M536 514l-7 -40l-167 19l-12 -173l-28 -158l-48 -172l173 18l-7 -39l-167 19l-12 -171h-39l48 171l-173 -19l7 39l167 -18l12 172l28 158l48 173l-173 -19l7 40l167 -20l12 172h39l-49 -172z" />
    <glyph glyph-name="bullet" unicode="&#x2022;" horiz-adv-x="309" 
d="M282 365q0 -42 -29.5 -72t-70.5 -30t-70.5 30t-29.5 72t29.5 71t70.5 29t70.5 -29t29.5 -71z" />
    <glyph glyph-name="ellipsis" unicode="&#x2026;" horiz-adv-x="649" 
d="M557 94l-16 -94h-46l16 94h46zM114 94l-16 -94h-46l16 94h46zM336 94l-16 -94h-46l16 94h46z" />
    <glyph glyph-name="perthousand" unicode="&#x2030;" horiz-adv-x="1196" 
d="M788 155q0 -63 -42 -114.5t-110 -51.5t-109 51t-41 115t41 116t109 52t110 -52t42 -116zM392 508q0 -64 -40.5 -116t-108.5 -52t-109.5 52t-41.5 116t41.5 116t109.5 52t108.5 -52t40.5 -116zM1169 155q0 -64 -41 -115t-109 -51t-109.5 51t-41.5 115t41.5 116t109.5 52
t109 -52t41 -116zM365 508q0 58 -33 100.5t-89 42.5t-89.5 -42.5t-33.5 -100.5t33.5 -100.5t89.5 -42.5t89 42.5t33 100.5zM759 155q0 58 -33.5 101t-89.5 43t-88.5 -43t-32.5 -101t32.5 -100t88.5 -42t89.5 42t33.5 100zM1140 155q0 58 -32.5 101t-88.5 43t-89.5 -43
t-33.5 -101t33.5 -100t89.5 -42t88.5 42t32.5 100zM628 666l-349 -666h-27l348 666h28z" />
    <glyph glyph-name="guilsinglleft" unicode="&#x2039;" horiz-adv-x="390" 
d="M345 462l-258 -223l175 -225l-16 -14l-189 240l273 240z" />
    <glyph glyph-name="guilsinglright" unicode="&#x203a;" horiz-adv-x="390" 
d="M348 240l-273 -240l-14 17l256 223l-174 226l16 14z" />
    <glyph glyph-name="fraction" unicode="&#x2044;" horiz-adv-x="443" 
d="M521 666l-511 -666h-18l512 666h17z" />
    <glyph glyph-name="Euro" unicode="&#x20ac;" horiz-adv-x="733" 
d="M47 392l4 25h117q44 119 152.5 189t255.5 70q81 0 144 -18l-7 -25q-65 16 -145 16q-123 0 -224 -60.5t-144 -171.5h200l-4 -25h-205q-16 -54 -17 -115h211l-4 -25h-207q6 -111 82 -173.5t193 -62.5q82 0 154 18l4 -24q-73 -21 -152 -21q-138 0 -222 72t-90 191h-111l4 25
h107q1 59 17 115h-113z" />
    <glyph glyph-name="trademark" unicode="&#x2122;" horiz-adv-x="636" 
d="M639 362h-12v278l-117 -243h-7l-118 243v-278h-12v304h12l121 -249l121 249h12v-304zM317 654h-106v-292h-14v292h-105v12h225v-12z" />
    <glyph glyph-name="partialdiff" unicode="&#x2202;" horiz-adv-x="590" 
d="M578 426l-13 -12l-226 226l1 -546h-18l-1 546l-227 -226l-12 12l248 250z" />
    <glyph glyph-name="Delta" unicode="&#x2206;" horiz-adv-x="590" 
d="M563 239l-248 -250l-248 250l13 12l226 -226l-1 546h18l1 -546l227 226z" />
    <glyph glyph-name="product" unicode="&#x220f;" horiz-adv-x="572" 
d="M550 405l-455 -388h320l-3 -17h-350l61 353h18l-56 -321l454 387z" />
    <glyph glyph-name="summation" unicode="&#x2211;" horiz-adv-x="572" 
d="M550 405l-455 -388h320l-3 -17h-350l61 353h18l-56 -321l454 387z" />
    <glyph glyph-name="minus" unicode="&#x2212;" horiz-adv-x="321" 
d="M279 260h-212v35h212v-35z" />
    <glyph glyph-name="radical" unicode="&#x221a;" horiz-adv-x="710" 
d="M667 318l-291 -249l-12 15l264 225h-541l4 18h545l-186 229l14 12z" />
    <glyph glyph-name="infinity" unicode="&#x221e;" horiz-adv-x="711" 
d="M669 327l-4 -18h-547l187 -229l-13 -11l-205 249l293 250l12 -15l-265 -226h542z" />
    <glyph glyph-name="integral" unicode="&#x222b;" horiz-adv-x="572" 
d="M505 353l-63 -353h-350l3 17h321l-319 388l16 14l318 -387l56 321h18z" />
    <glyph glyph-name="approxequal" unicode="&#x2248;" horiz-adv-x="582" 
d="M570 666l-62 -353h-17l56 321l-454 -387l-11 14l455 388h-321l3 17h351z" />
    <glyph glyph-name="notequal" unicode="&#x2260;" horiz-adv-x="874" 
d="M819 334h-333v-334h-331v666h664v-332z" />
    <glyph glyph-name="lessequal" unicode="&#x2264;" horiz-adv-x="711" 
d="M669 327l-4 -18h-547l187 -229l-13 -11l-205 249l293 250l12 -15l-265 -226h542z" />
    <glyph glyph-name="greaterequal" unicode="&#x2265;" horiz-adv-x="710" 
d="M667 318l-291 -249l-12 15l264 225h-541l4 18h545l-186 229l14 12z" />
    <glyph glyph-name="lozenge" unicode="&#x25ca;" horiz-adv-x="710" 
d="M667 318l-291 -249l-12 15l264 225h-541l4 18h545l-186 229l14 12z" />
    <glyph glyph-name="apple" horiz-adv-x="874" 
d="M819 334h-333v-334h-331v666h664v-332z" />
    <glyph glyph-name="nbspace" horiz-adv-x="210" 
 />
    <glyph glyph-name="i.dot" horiz-adv-x="207" 
d="M162 487l-86 -487h-31l86 487h31zM142 565l14 82h33l-14 -82h-33z" />
    </font>
</defs>
</svg>
