<?xml version="1.0" standalone="no"?>
<!DOCTYPE svg PUBLIC "-//W3C//DTD SVG 1.1//EN" "http://www.w3.org/Graphics/SVG/1.1/DTD/svg11.dtd" >
<svg>
<metadata>
Created by FontForge 20120731 at Fri Aug 19 20:56:54 2016
 By ,,,
(c) 2015 Process Type Foundry. All Rights Reserved.
</metadata>
<defs>
<font id="Locator-BlackItalic" horiz-adv-x="664" >
  <font-face 
    font-family="Locator Black"
    font-weight="900"
    font-style="italic"
    font-stretch="normal"
    units-per-em="1000"
    panose-1="2 0 9 0 5 0 0 9 0 4"
    ascent="750"
    descent="-250"
    x-height="487"
    cap-height="666"
    bbox="-72 -313 1262 913"
    underline-thickness="20"
    underline-position="-103"
    unicode-range="U+0020-FB02"
  />
<missing-glyph horiz-adv-x="646" 
d="M90 0v666h466v-666h-466zM507 616h-340l340 -527v527zM139 576v-527h339z" />
    <glyph glyph-name="fi" unicode="fi" horiz-adv-x="656" 
d="M448 677l-34 -116q-26 6 -45 6q-63 0 -74 -63l-5 -29h96l-27 -105h-88l-67 -370h-162l65 370h-61l19 105h61l4 24q15 89 69.5 140.5t142.5 51.5q60 0 106 -14zM633 487l-84 -487h-163l85 487h162zM670 697l-22 -127h-162l22 127h162z" />
    <glyph glyph-name="fl" unicode="fl" horiz-adv-x="701" 
d="M448 677l-34 -116q-26 6 -45 6q-63 0 -74 -63l-5 -29h96l-27 -105h-88l-67 -370h-162l65 370h-61l19 105h61l4 24q15 89 69.5 140.5t142.5 51.5q60 0 106 -14zM660 22q-52 -30 -117 -30q-71 0 -112.5 32t-41.5 99q0 24 4 47l88 496h162l-86 -482q-3 -21 -3 -31
q0 -38 35 -38q21 0 39 10z" />
    <glyph glyph-name=".notdef" horiz-adv-x="646" 
d="M90 0v666h466v-666h-466zM507 616h-340l340 -527v527zM139 576v-527h339z" />
    <glyph glyph-name=".null" horiz-adv-x="0" 
 />
    <glyph glyph-name="nonmarkingreturn" horiz-adv-x="333" 
 />
    <glyph glyph-name="space" unicode=" " horiz-adv-x="220" 
 />
    <glyph glyph-name="exclam" unicode="!" horiz-adv-x="342" 
d="M336 666l-26 -149l-95 -274h-76l1 274l27 149h169zM252 170l-30 -170h-176l30 170h176z" />
    <glyph glyph-name="quotedbl" unicode="&#x22;" horiz-adv-x="428" 
d="M457 666l-53 -304h-111l53 304h111zM241 666l-54 -304h-111l54 304h111z" />
    <glyph glyph-name="numbersign" unicode="#" horiz-adv-x="716" 
d="M731 486l-28 -94h-129l-36 -118h129l-28 -96h-129l-55 -178h-101l53 178h-139l-55 -178h-101l53 178h-129l28 96h129l36 118h-129l28 94h129l56 180h101l-54 -180h139l55 180h102l-54 -180h129zM471 392h-139l-36 -118h139z" />
    <glyph glyph-name="dollar" unicode="$" horiz-adv-x="635" 
d="M645 632l-41 -130q-106 25 -192 25h-7q-22 0 -36 -1t-34.5 -5t-31.5 -15.5t-11 -30.5q0 -22 31 -40.5t75.5 -35.5t88.5 -37.5t75 -56.5t31 -82q0 -108 -74.5 -163.5t-198.5 -62.5l-17 -96h-108l18 97q-92 11 -188 52l44 126q105 -40 231 -40q121 0 121 54
q0 15 -16.5 28.5t-43 24.5t-58.5 23.5t-64 29.5t-58.5 37.5t-43 53t-16.5 71.5q0 105 56 150t185 57l17 97h108l-17 -96q107 -8 175 -34z" />
    <glyph glyph-name="percent" unicode="%" horiz-adv-x="893" 
d="M872 170q0 -77 -45 -129.5t-120 -52.5q-76 0 -121 53.5t-45 130.5t45.5 128.5t120.5 51.5q76 0 120.5 -52t44.5 -130zM397 494q0 -76 -45 -128.5t-120 -52.5q-76 0 -121 52.5t-45 130.5q0 77 45.5 128.5t120.5 51.5q76 0 120.5 -52t44.5 -130zM712 666l-372 -666h-113
l372 666h113zM289 495q0 89 -57 89q-58 0 -58 -88q0 -36 13 -64t45 -28t44.5 27.5t12.5 63.5zM764 171q0 89 -57 89q-58 0 -58 -88q0 -36 13 -64t45 -28t44.5 27.5t12.5 63.5z" />
    <glyph glyph-name="ampersand" unicode="&#x26;" horiz-adv-x="724" 
d="M684 348q-37 -108 -117 -204l110 -144h-188l-33 44q-92 -55 -189 -55q-91 0 -154 47t-63 134q0 79 40 125t126 84q-39 76 -39 116q0 92 62 136.5t166 44.5q66 0 111.5 -30.5t45.5 -88.5q0 -62 -49 -116t-114 -85q61 -76 95 -115q47 57 79 152zM386 143q-86 116 -110 148
q-60 -33 -60 -97q0 -31 23 -51t61 -20q53 0 86 20zM433 530q0 19 -13.5 30t-34.5 11q-31 0 -48.5 -17.5t-17.5 -46.5q0 -43 36 -77q32 17 55 43.5t23 56.5z" />
    <glyph glyph-name="quotesingle" unicode="'" horiz-adv-x="211" 
d="M241 666l-54 -306h-111l54 306h111z" />
    <glyph glyph-name="parenleft" unicode="(" horiz-adv-x="361" 
d="M415 709q-178 -281 -178 -572q0 -106 35 -238l-109 -53q-87 132 -87 316q0 163 64.5 321.5t177.5 278.5z" />
    <glyph glyph-name="parenright" unicode=")" horiz-adv-x="361" 
d="M320 448q0 -167 -66 -325.5t-184 -276.5l-89 53q178 281 178 572q0 108 -35 238l116 53q80 -134 80 -314z" />
    <glyph glyph-name="asterisk" unicode="*" horiz-adv-x="471" 
d="M491 521l-127 -55l109 -56l-71 -91l-92 76l-9 -130h-107l36 130l-119 -76l-36 91l127 56l-109 55l70 92l91 -77l11 130h107l-36 -130l117 77z" />
    <glyph glyph-name="plus" unicode="+" horiz-adv-x="576" 
d="M540 181h-178v-181h-117v181h-179v114h179v182h117v-182h178v-114z" />
    <glyph glyph-name="comma" unicode="," horiz-adv-x="313" 
d="M243 172l-29 -172l-125 -182h-73l108 183h-86l30 171h175z" />
    <glyph glyph-name="hyphen" unicode="-" horiz-adv-x="387" 
d="M361 350l-23 -132h-282l22 132h283z" />
    <glyph glyph-name="period" unicode="." horiz-adv-x="317" 
d="M241 172l-31 -172h-174l31 172h174z" />
    <glyph glyph-name="slash" unicode="/" horiz-adv-x="521" 
d="M555 676l-428 -793h-137l428 793h137z" />
    <glyph glyph-name="zero" unicode="0" horiz-adv-x="661" 
d="M640 411q0 -73 -22 -145.5t-63.5 -135.5t-110 -102t-153.5 -39q-105 0 -167.5 72.5t-62.5 184.5q0 109 40.5 203.5t121.5 155.5t187 61q112 0 171 -70.5t59 -184.5zM476 400q0 125 -90 125q-42 0 -75 -28t-50.5 -71t-26.5 -86t-9 -81q0 -129 91 -129q50 0 88 47.5
t55 107.5t17 115z" />
    <glyph glyph-name="one" unicode="1" horiz-adv-x="480" 
d="M449 656l-116 -656h-162l91 516l-172 -29l-4 130l201 39h162z" />
    <glyph glyph-name="two" unicode="2" horiz-adv-x="634" 
d="M613 499q0 -70 -32.5 -125t-82 -89t-100 -58.5t-96 -46.5t-60.5 -39h313l-26 -141h-511l7 35q20 100 32 127q24 53 95 95q45 27 139 73q5 3 26 12.5t29.5 14t26 14t26 16.5t20 17.5t17.5 21t8 22.5t2 18q0 59 -119 59q-82 0 -210 -28l-9 132q132 37 262 37
q114 0 178.5 -43t64.5 -124z" />
    <glyph glyph-name="three" unicode="3" horiz-adv-x="580" 
d="M562 518q0 -55 -32.5 -102.5t-83.5 -74.5q43 -15 68 -48t25 -77q0 -18 -2 -26q-10 -56 -45 -97.5t-86 -63t-103 -31t-108 -9.5q-88 0 -179 32l37 121q68 -19 164 -19q35 0 66.5 6t60.5 27.5t29 56.5q0 54 -110 54h-129l23 130h121q116 0 116 83q0 55 -121 55
q-72 0 -154 -18l-12 117q94 32 207 32q41 0 79.5 -6t79 -21t65 -46t24.5 -75z" />
    <glyph glyph-name="four" unicode="4" 
d="M623 266l-24 -134h-92l-23 -132h-156l23 132h-335l25 144l381 380h178l-69 -390h92zM414 485l-224 -219h185z" />
    <glyph glyph-name="five" unicode="5" horiz-adv-x="624" 
d="M618 656l-25 -141h-280l-27 -113q47 14 102 14q86 0 142.5 -44t56.5 -124q0 -22 -3 -43q-15 -103 -103.5 -159.5t-225.5 -56.5q-117 0 -224 48l41 126q110 -39 199 -39q69 0 109 24t40 69q0 62 -98 62q-56 0 -93 -16l-120 72l88 321h421z" />
    <glyph glyph-name="six" unicode="6" horiz-adv-x="626" 
d="M626 642l-48 -130q-54 17 -116 17q-85 0 -139 -44.5t-76 -123.5q60 46 147 46q81 0 133 -45t52 -117q0 -115 -80.5 -185.5t-204.5 -70.5q-107 0 -175 63t-68 167q0 45 4 78q20 166 132.5 267.5t273.5 101.5q94 0 165 -24zM412 213q0 33 -25.5 48.5t-61.5 15.5
q-50 0 -77 -25.5t-27 -61.5q0 -29 23 -47t58 -18q48 0 79 24.5t31 63.5z" />
    <glyph glyph-name="seven" unicode="7" horiz-adv-x="551" 
d="M605 656l-26 -142l-344 -514h-164l344 514h-330l25 142h495z" />
    <glyph glyph-name="eight" unicode="8" horiz-adv-x="614" 
d="M598 523q0 -97 -98 -165q83 -47 83 -132q0 -111 -90 -174t-215 -63q-57 0 -108.5 18t-87.5 59t-36 97q0 66 37 117t102 78q-49 44 -49 108q0 67 38 113.5t95.5 66.5t128.5 20q78 0 139 -37.5t61 -105.5zM420 208q0 31 -28 50t-63 19q-48 0 -84.5 -24.5t-36.5 -66.5
q0 -33 29 -49.5t65 -16.5q47 0 82.5 23t35.5 65zM442 483q0 29 -18.5 43t-48.5 14q-39 0 -66.5 -23.5t-27.5 -61.5q0 -28 20 -45.5t49 -17.5q40 0 66 26.5t26 64.5z" />
    <glyph glyph-name="nine" unicode="9" horiz-adv-x="624" 
d="M624 436q0 -45 -4 -78q-20 -166 -132.5 -267.5t-273.5 -101.5q-97 0 -163 27l46 127q54 -17 116 -17q85 0 139 44.5t76 123.5q-59 -45 -147 -45q-80 0 -132.5 51t-52.5 124q0 115 75.5 178.5t203.5 63.5q116 0 182.5 -62t66.5 -168zM454 465q0 30 -24.5 47.5t-65.5 17.5
q-45 0 -73 -24t-28 -63q0 -31 25 -48t62 -17q50 0 77 25.5t27 61.5z" />
    <glyph glyph-name="colon" unicode=":" horiz-adv-x="315" 
d="M240 171l-30 -171h-174l29 171h175zM294 477l-30 -171h-174l30 171h174z" />
    <glyph glyph-name="semicolon" unicode=";" horiz-adv-x="318" 
d="M243 171l-30 -171l-125 -182h-72l106 183h-84l29 170h176zM297 477l-29 -169h-176l30 169h175z" />
    <glyph glyph-name="less" unicode="&#x3c;" horiz-adv-x="556" 
d="M509 -11l-487 211v81l487 210v-115l-330 -136l330 -136v-115z" />
    <glyph glyph-name="equal" unicode="=" horiz-adv-x="567" 
d="M531 294h-475v120h475v-120zM531 55h-475v120h475v-120z" />
    <glyph glyph-name="greater" unicode="&#x3e;" horiz-adv-x="555" 
d="M552 200l-486 -210v115l330 135l-330 136v115l486 -210v-81z" />
    <glyph glyph-name="question" unicode="?" horiz-adv-x="575" 
d="M579 510q0 -176 -282 -294l-52 101q90 47 119 71q48 41 48 87q0 60 -121 60q-87 0 -193 -29l-2 129q125 41 240 41q46 0 85.5 -7t77 -24.5t59 -51.5t21.5 -83zM356 171l-30 -171h-174l29 171h175z" />
    <glyph glyph-name="at" unicode="@" horiz-adv-x="744" 
d="M699 51q-146 -62 -308 -62q-86 0 -157 28t-117.5 90.5t-46.5 151.5q0 79 24 152.5t68 133t114.5 95.5t155.5 36q76 0 128 -38t55 -113q1 -19 -3 -44q-11 -71 -28.5 -167t-25.5 -147h-96l11 60q-16 -28 -44 -47t-58 -19q-51 0 -74 34t-23 86q0 80 48 150.5t126 70.5
q48 0 74 -23q5 21 4 41q-1 24 -12 39.5t-29.5 22t-34 8.5t-36.5 2q-63 0 -113 -31t-78.5 -80t-43.5 -103.5t-15 -107.5q0 -199 241 -199q122 0 269 49zM505 413q-14 6 -36 6q-31 0 -51.5 -24.5t-27 -52.5t-6.5 -56q0 -42 24 -42q66 0 96 165v3z" />
    <glyph glyph-name="A" unicode="A" 
d="M415 253l-29 233l-110 -233h139zM624 0h-170l-21 125h-218l-69 -125h-174l364 666h160z" />
    <glyph glyph-name="B" unicode="B" horiz-adv-x="686" 
d="M681 529q0 -61 -34 -108.5t-99 -70.5q54 -17 78.5 -52.5t24.5 -76.5q1 -87 -66.5 -154t-171.5 -67h-367l118 666h345q85 0 128.5 -37.5t43.5 -99.5zM482 220q0 53 -67 53h-156l-24 -139h156q41 0 66 22.5t25 63.5zM505 487q0 47 -66 47h-134l-24 -136h135q42 0 65.5 24
t23.5 65z" />
    <glyph glyph-name="C" unicode="C" horiz-adv-x="655" 
d="M675 647l-43 -142q-76 20 -148 20q-120 0 -193 -58t-73 -164q0 -73 45 -118t149 -45q80 0 154 24l21 -134q-91 -41 -200 -41q-154 0 -247.5 81.5t-93.5 203.5q0 189 118.5 295.5t319.5 106.5q106 0 191 -29z" />
    <glyph glyph-name="D" unicode="D" horiz-adv-x="705" 
d="M705 387q0 -180 -137.5 -283.5t-361.5 -103.5h-160l118 666h160q175 0 278 -75.5t103 -203.5zM526 376q0 72 -53.5 105.5t-143.5 33.5h-23l-63 -364h23q74 0 130 21t93 73t37 131z" />
    <glyph glyph-name="E" unicode="E" horiz-adv-x="640" 
d="M662 666l-27 -146h-328l-18 -104h311l-25 -146h-311l-22 -124h328l-26 -146h-498l118 666h498z" />
    <glyph glyph-name="F" unicode="F" horiz-adv-x="646" 
d="M691 666l-25 -146h-359l-18 -104h319l-25 -146h-319l-48 -270h-170l118 666h527z" />
    <glyph glyph-name="G" unicode="G" horiz-adv-x="693" 
d="M671 652l-38 -142q-81 15 -148 15q-137 0 -201.5 -62t-64.5 -163q0 -71 44 -115.5t130 -44.5q42 0 76 7l37 206h160l-60 -336q-100 -28 -217 -28q-159 0 -251 84.5t-92 201.5q0 198 120 299.5t323 101.5q97 0 182 -24z" />
    <glyph glyph-name="H" unicode="H" horiz-adv-x="778" 
d="M772 666l-117 -666h-170l44 258h-270l-44 -258h-169l116 666h170l-46 -257h271l44 257h171z" />
    <glyph glyph-name="I" unicode="I" horiz-adv-x="349" 
d="M338 666l-117 -666h-170l117 666h170z" />
    <glyph glyph-name="J" unicode="J" horiz-adv-x="434" 
d="M439 666l-79 -450q-19 -112 -78 -166.5t-191 -54.5h-87l16 130h89q37 0 54.5 21t26.5 72l53 309h-156l25 139h327z" />
    <glyph glyph-name="K" unicode="K" horiz-adv-x="725" 
d="M785 666l-370 -322l264 -344h-227l-190 264l-46 -264h-170l116 666h171l-44 -251l270 251h226z" />
    <glyph glyph-name="L" unicode="L" horiz-adv-x="590" 
d="M555 146l-25 -146h-484l116 666h171l-92 -520h314z" />
    <glyph glyph-name="M" unicode="M" horiz-adv-x="886" 
d="M880 666l-118 -666h-163l65 366l-192 -234h-90l-108 235l-65 -367h-163l118 666h163l140 -312l250 312h163z" />
    <glyph glyph-name="N" unicode="N" horiz-adv-x="804" 
d="M798 666l-117 -666h-167l-228 410l-72 -410h-168l116 666h168l227 -411l72 411h169z" />
    <glyph glyph-name="O" unicode="O" horiz-adv-x="752" 
d="M746 392q0 -168 -113 -285.5t-298 -117.5q-120 0 -204.5 83.5t-84.5 197.5q0 119 57 213t150.5 143.5t203.5 49.5q127 0 208 -81t81 -203zM576 381q0 66 -38 105t-109 39q-85 0 -148 -64t-63 -178q0 -64 38 -103.5t107 -39.5q86 0 149.5 64.5t63.5 176.5z" />
    <glyph glyph-name="P" unicode="P" horiz-adv-x="693" 
d="M717 484q0 -26 -2 -38q-13 -98 -89.5 -164.5t-181.5 -66.5h-192l-37 -215h-169l116 666h351q93 0 148.5 -52t55.5 -130zM541 458q0 31 -21 52t-52 21h-159l-32 -180h160q45 0 74.5 34t29.5 73z" />
    <glyph glyph-name="Q" unicode="Q" horiz-adv-x="752" 
d="M746 390q0 -145 -88 -253.5t-240 -140.5l-32 -187h-163l34 190q-92 25 -151.5 98.5t-59.5 170.5q0 182 116.5 295t293.5 113q126 0 208 -82t82 -204zM575 380q0 64 -37.5 104.5t-107.5 40.5q-85 0 -148.5 -65t-63.5 -179q0 -64 37.5 -102.5t106.5 -38.5q85 0 149 64.5
t64 175.5z" />
    <glyph glyph-name="R" unicode="R" horiz-adv-x="769" 
d="M548 462q0 30 -20 49t-51 19h-168l-29 -171h168q46 0 73 33.5t27 69.5zM726 489q1 -81 -43.5 -143t-110.5 -94l140 -252h-209l-124 228h-123l-40 -228h-170l116 666h377q85 0 135.5 -50.5t51.5 -126.5z" />
    <glyph glyph-name="S" unicode="S" horiz-adv-x="631" 
d="M639 642l-31 -139q-102 27 -216 27q-33 0 -57 -2.5t-36.5 -6.5t-19.5 -10t-8.5 -10.5t-1.5 -11.5q0 -26 28 -42.5t129 -55.5q59 -23 95.5 -45t53 -45t21 -41.5t4.5 -46.5q0 -110 -73.5 -167t-249.5 -57q-134 0 -252 58l42 128q116 -42 233 -42q125 0 125 55
q0 20 -24.5 35t-121.5 55q-98 40 -141.5 82t-43.5 110q0 107 68 156.5t238 49.5q109 0 239 -34z" />
    <glyph glyph-name="T" unicode="T" horiz-adv-x="621" 
d="M691 666l-27 -149h-215l-92 -517h-170l91 517h-216l26 149h603z" />
    <glyph glyph-name="U" unicode="U" horiz-adv-x="759" 
d="M764 666l-66 -378q-23 -136 -112 -217.5t-249 -81.5q-122 0 -191.5 71.5t-69.5 174.5q0 29 4 53l67 378h171l-68 -377q-2 -11 -2 -31q0 -117 115 -117q66 0 109 39.5t55 108.5l67 377h170z" />
    <glyph glyph-name="V" unicode="V" horiz-adv-x="640" 
d="M715 666l-340 -666h-181l-108 666h172l62 -467l225 467h170z" />
    <glyph glyph-name="W" unicode="W" horiz-adv-x="854" 
d="M919 666l-271 -666h-135l-61 376l-192 -376h-134l-36 666h170l11 -347l176 347h114l54 -347l136 347h168z" />
    <glyph glyph-name="X" unicode="X" horiz-adv-x="622" 
d="M692 666l-269 -328l157 -338h-186l-88 206l-162 -206h-184l276 336l-154 330h186l86 -195l153 195h185z" />
    <glyph glyph-name="Y" unicode="Y" horiz-adv-x="596" 
d="M686 666l-287 -406l-45 -260h-171l46 260l-144 406h170l86 -256l177 256h168z" />
    <glyph glyph-name="Z" unicode="Z" horiz-adv-x="642" 
d="M672 666l-28 -152l-402 -367h355l-27 -147h-560l28 155l405 364h-333l26 147h536z" />
    <glyph glyph-name="bracketleft" unicode="[" horiz-adv-x="364" 
d="M469 790l-23 -127h-116l-117 -660h116l-22 -129h-282l162 916h282z" />
    <glyph glyph-name="backslash" unicode="\" horiz-adv-x="518" 
d="M423 -117h-139l-149 793h139z" />
    <glyph glyph-name="bracketright" unicode="]" horiz-adv-x="364" 
d="M389 790l-162 -916h-282l23 129h116l117 660h-116l22 127h282z" />
    <glyph glyph-name="asciicircum" unicode="^" horiz-adv-x="480" 
d="M490 327h-122l-95 224l-96 -224h-122l165 339h106z" />
    <glyph glyph-name="underscore" unicode="_" horiz-adv-x="444" 
d="M462 -11l-9 -49h-471l8 49h472z" />
    <glyph glyph-name="grave" unicode="`" horiz-adv-x="385" 
d="M246 535l-114 136h193l58 -136h-137z" />
    <glyph glyph-name="a" unicode="a" horiz-adv-x="568" 
d="M550 487l-86 -487h-163l17 88q-24 -41 -66 -68.5t-85 -27.5q-41 0 -70.5 15.5t-45.5 42.5t-23 56.5t-7 63.5q0 75 30 148.5t91.5 125.5t139.5 52q29 0 57 -12.5t42 -30.5l5 34h164zM364 365q-25 10 -52 10q-62 0 -94 -61.5t-32 -135.5q0 -62 36 -62q48 0 90 73t51 166z
" />
    <glyph glyph-name="b" unicode="b" horiz-adv-x="567" 
d="M547 318q0 -79 -28.5 -152t-88.5 -123.5t-138 -50.5q-28 0 -57.5 14.5t-44.5 35.5l-7 -42h-163l118 666h162l-48 -267q25 43 64.5 70t86.5 27q41 0 70.5 -15.5t44.5 -42.5t22 -56.5t7 -63.5zM382 311q0 60 -34 60q-40 0 -78.5 -72t-63.5 -169l-2 -8q23 -7 49 -7
q61 0 95 65t34 131z" />
    <glyph glyph-name="c" unicode="c" horiz-adv-x="446" 
d="M446 478l-31 -116q-43 12 -85 12q-69 0 -106.5 -45t-37.5 -122q0 -92 91 -92q49 0 93 17l25 -113q-73 -27 -155 -27q-101 0 -160 59.5t-59 147.5q0 131 79 214t220 83q65 0 126 -18z" />
    <glyph glyph-name="d" unicode="d" horiz-adv-x="571" 
d="M586 666l-119 -666h-162l16 88q-24 -41 -66 -68.5t-85 -27.5q-41 0 -70.5 15.5t-44.5 42.5t-22 56.5t-7 63.5q0 75 29.5 148.5t90.5 125.5t139 52q62 0 99 -40l38 210h164zM369 364q-28 11 -54 11q-62 0 -93 -61t-31 -136q0 -62 34 -62q45 0 82.5 70t59.5 169z" />
    <glyph glyph-name="e" unicode="e" horiz-adv-x="523" 
d="M508 368q0 -92 -82 -139t-248 -41q3 -76 116 -76q58 0 127 28l35 -102q-80 -46 -186 -46q-123 0 -183.5 55.5t-60.5 149.5q0 139 83.5 219t208.5 80q93 0 141.5 -37t48.5 -91zM363 346q0 30 -50 30q-89 0 -118 -77q168 -6 168 47z" />
    <glyph glyph-name="f" unicode="f" horiz-adv-x="353" 
d="M448 677l-34 -116q-26 6 -45 6q-63 0 -74 -63l-5 -29h96l-27 -105h-88l-67 -370h-162l65 370h-61l19 105h61l4 24q15 89 69.5 140.5t142.5 51.5q60 0 106 -14z" />
    <glyph glyph-name="g" unicode="g" horiz-adv-x="573" 
d="M558 487l-75 -386q-28 -145 -103 -208t-225 -63q-74 0 -155 28l30 106q58 -19 122 -19q65 0 100.5 20.5t54.5 78.5q11 34 19 70q-57 -99 -152 -99q-54 0 -87.5 28.5t-45 66t-11.5 84.5q0 68 29.5 136t91 117t139.5 49q60 0 97 -42l6 33h165zM373 367q-21 8 -53 8
q-42 0 -72.5 -31.5t-42 -69t-11.5 -73.5q0 -61 36 -61q48 0 85.5 59t55.5 157z" />
    <glyph glyph-name="h" unicode="h" horiz-adv-x="583" 
d="M540 345q0 -28 -6 -61l-49 -284h-164l45 261q4 21 4 42q0 50 -40 50q-24 0 -44 -21.5t-45.5 -91.5t-48.5 -189l-10 -51h-162l118 666h157l-49 -265q24 38 68 66.5t88 28.5q70 0 104 -40t34 -111z" />
    <glyph glyph-name="i" unicode="i" horiz-adv-x="296" 
d="M273 487l-84 -487h-163l85 487h162zM310 697l-22 -127h-162l22 127h162z" />
    <glyph glyph-name="j" unicode="j" horiz-adv-x="282" 
d="M269 487l-84 -481q-15 -88 -70.5 -131t-138.5 -43h-14h-18.5h-15.5l17 128h20q30 0 42 14t19 55l80 458h163zM306 699l-22 -129h-163l22 129h163z" />
    <glyph glyph-name="k" unicode="k" horiz-adv-x="549" 
d="M584 487l-231 -241l151 -246h-187l-101 186l-33 -186h-162l117 666h162l-63 -360l161 181h186z" />
    <glyph glyph-name="l" unicode="l" horiz-adv-x="348" 
d="M307 22q-52 -30 -117 -30q-71 0 -112.5 32t-41.5 99q0 24 4 47l88 496h162l-86 -482q-3 -21 -3 -31q0 -38 35 -38q21 0 39 10z" />
    <glyph glyph-name="m" unicode="m" horiz-adv-x="881" 
d="M838 342q0 -21 -7 -58l-48 -284h-164l45 261q4 21 4 41q0 51 -41 51q-79 0 -126 -263l-16 -90h-163l45 261q3 16 3 41q0 51 -41 51q-85 0 -133 -302l-8 -51h-162l85 487h157l-17 -86q25 40 64.5 67.5t86.5 27.5q110 0 132 -95q73 95 165 95q139 0 139 -154z" />
    <glyph glyph-name="n" unicode="n" horiz-adv-x="588" 
d="M545 342q0 -26 -6 -58l-49 -284h-163l45 261q4 21 4 41q0 51 -41 51q-91 0 -139 -302l-8 -51h-162l85 487h157l-17 -86q25 39 67 67t89 28q138 0 138 -154z" />
    <glyph glyph-name="o" unicode="o" horiz-adv-x="555" 
d="M535 290q0 -77 -32.5 -143.5t-102 -110.5t-163.5 -44t-152.5 60t-58.5 147q0 130 81 213.5t218 83.5q96 0 153 -59t57 -147zM373 278q0 96 -70 96q-48 0 -80 -44.5t-32 -122.5q0 -92 68 -92q47 0 80.5 43.5t33.5 119.5z" />
    <glyph glyph-name="p" unicode="p" horiz-adv-x="562" 
d="M542 318q0 -55 -18 -112t-50 -105t-82.5 -78.5t-109.5 -30.5q-47 0 -100 32l-34 -183h-162l114 646h163l-17 -87q24 42 64.5 69t86.5 27q54 0 88 -28.5t45.5 -66t11.5 -83.5zM377 310q0 62 -35 62q-51 0 -92 -72t-50 -166l-1 -10q24 -11 52 -11q62 0 94 61.5t32 135.5z
" />
    <glyph glyph-name="q" unicode="q" horiz-adv-x="572" 
d="M554 487l-115 -646h-162l44 247q-24 -41 -66 -68.5t-85 -27.5q-41 0 -70.5 15.5t-44.5 42.5t-22 56.5t-7 63.5q0 79 29 152t89 123.5t138 50.5q58 0 102 -46l6 37h164zM370 367q-23 7 -49 7q-42 0 -73.5 -35t-44 -78t-12.5 -83q0 -61 34 -61q10 0 19.5 4.5t18.5 14
t16.5 19.5t16.5 27t15 30.5t14.5 35.5t14 36t14 38t13.5 37z" />
    <glyph glyph-name="r" unicode="r" horiz-adv-x="395" 
d="M430 492l-44 -155q-11 3 -23 3q-120 0 -166 -289l-8 -51h-163l85 487h157l-16 -86q50 95 150 95q10 0 28 -4z" />
    <glyph glyph-name="s" unicode="s" horiz-adv-x="469" 
d="M451 470l-26 -113q-70 19 -154 19q-59 0 -59 -25q0 -11 12 -19t68 -34q84 -39 108.5 -65.5t24.5 -76.5q0 -79 -55 -121.5t-191 -42.5q-90 0 -175 39l32 106q79 -27 161 -27q42 0 55 7t13 22q0 10 -9 18.5t-41 25.5q-50 27 -72 40t-46 33t-32 40.5t-8 48.5q0 86 54 118.5
t175 32.5q87 0 165 -26z" />
    <glyph glyph-name="t" unicode="t" horiz-adv-x="363" 
d="M358 487l-18 -101h-81l-37 -204q-7 -34 -2 -50t27 -16q17 0 41 7l24 -107q-50 -24 -105 -24q-89 0 -127 47t-26 116l41 231h-59l18 101h60l24 136h162l-24 -136h82z" />
    <glyph glyph-name="u" unicode="u" horiz-adv-x="586" 
d="M560 487l-85 -487h-157l17 86q-25 -39 -67 -66.5t-89 -27.5q-138 0 -138 153q0 27 6 59l49 283h163l-45 -260q-3 -16 -3 -42q0 -51 41 -51q28 0 49.5 21.5t45.5 91t43 189.5l8 51h162z" />
    <glyph glyph-name="v" unicode="v" horiz-adv-x="498" 
d="M542 487l-261 -487h-163l-87 487h157l41 -323l157 323h156z" />
    <glyph glyph-name="w" unicode="w" horiz-adv-x="720" 
d="M759 487l-218 -487h-158l-19 299l-129 -299h-158l-41 487h150l7 -313l133 313h141l20 -315l122 315h150z" />
    <glyph glyph-name="x" unicode="x" horiz-adv-x="489" 
d="M524 487l-195 -238l112 -249h-165l-52 123l-95 -123h-164l199 248l-111 239h166l48 -120l90 120h167z" />
    <glyph glyph-name="y" unicode="y" horiz-adv-x="489" 
d="M533 487l-344 -647h-158l85 160l-90 487h157l45 -312l149 312h156z" />
    <glyph glyph-name="z" unicode="z" horiz-adv-x="514" 
d="M519 487l-20 -116l-287 -253h245l-22 -118h-434l21 117l278 253h-210l20 117h409z" />
    <glyph glyph-name="braceleft" unicode="{" horiz-adv-x="377" 
d="M497 790l-21 -116q-10 0 -31 1.5t-31 0.5t-23 -4.5t-20.5 -15t-10.5 -30.5l-25 -138q-14 -76 -68 -119.5t-132 -43.5v-2q66 0 106 -32t40 -96q0 -3 -0.5 -8t-0.5 -7q-3 -39 -15.5 -86t-14.5 -83v-9q0 -13 7.5 -20.5t20.5 -9t25 -1.5t28 1.5t22 1.5l-20 -117h-160
q-95 0 -95 90v21q3 50 20.5 118t20.5 120v14q0 17 -4 27.5t-14 15t-19 5.5t-27 1l19 110q49 0 66 18t26 70l35 202q10 56 45 88.5t91 32.5h160z" />
    <glyph glyph-name="bar" unicode="|" horiz-adv-x="303" 
d="M238 -200h-113v1000h113v-1000z" />
    <glyph glyph-name="braceright" unicode="}" horiz-adv-x="377" 
d="M377 378l-19 -110q-49 0 -66 -18t-26 -70l-35 -202q-10 -56 -45 -88.5t-91 -32.5h-160l21 116q10 0 31 -1.5t31 -0.5t23 4.5t20.5 15t10.5 30.5l25 138q14 76 68 119.5t132 43.5v2q-66 0 -106 32t-40 96q0 2 0.5 7t0.5 8q3 39 15.5 86t14.5 83v9q0 13 -7.5 20.5t-20.5 9
t-25 1.5t-28 -1.5t-22 -1.5l20 117h160q95 0 95 -90v-21q-3 -50 -20.5 -118t-20.5 -120v-14q0 -17 4 -27.5t14 -15t19 -5.5t27 -1z" />
    <glyph glyph-name="asciitilde" unicode="~" horiz-adv-x="565" 
d="M563 335q-89 -185 -199 -185q-34 0 -67.5 18t-60 35.5t-44.5 17.5q-42 0 -83 -75l-79 35q89 185 198 185q34 0 68 -18t60.5 -35.5t44.5 -17.5q41 0 82 75z" />
    <glyph glyph-name="exclamdown" unicode="&#xa1;" horiz-adv-x="345" 
d="M247 423l-2 -274l-26 -149h-169l26 149l95 274h76zM340 666l-31 -169h-175l31 169h175z" />
    <glyph glyph-name="cent" unicode="&#xa2;" horiz-adv-x="446" 
d="M446 477l-31 -117q-43 12 -85 12h-3l-46 -259q43 1 89 18l25 -113q-66 -24 -135 -27l-13 -70h-20l12 70q-100 1 -159 59.5t-59 146.5q0 131 79 214.5t220 83.5h8l9 53h21l-10 -54q47 -3 98 -17zM306 371q-58 -7 -89 -51t-31 -114q0 -84 75 -92z" />
    <glyph glyph-name="sterling" unicode="&#xa3;" horiz-adv-x="688" 
d="M713 641l-33 -135q-104 24 -181 24q-87 0 -113 -15t-26 -63q0 -52 6 -88h194l-14 -79h-184q-2 -36 -21 -80.5t-48 -71.5h328l-24 -133h-567l24 133h68q67 80 73 152h-94l14 79h79q-6 37 -6 81q0 124 65.5 177.5t221.5 53.5q125 0 238 -35z" />
    <glyph glyph-name="currency" unicode="&#xa4;" horiz-adv-x="715" 
d="M735 647l-43 -142q-76 20 -148 20q-83 0 -146 -29t-94 -84h148l-11 -59h-158q-5 -27 -5 -50v-6h155l-11 -59h-133q35 -97 183 -97q83 0 154 23l21 -135q-41 -19 -100 -29.5t-107 -10.5q-141 0 -229 70t-102 179h-94l11 59h81q2 29 6 56h-79l11 59h82q40 126 151 195
t266 69q106 0 191 -29z" />
    <glyph glyph-name="yen" unicode="&#xa5;" horiz-adv-x="624" 
d="M714 666l-195 -277h82l-16 -88h-129l-29 -41l-3 -18h151l-15 -90h-152l-27 -152h-170l27 152h-153l15 90h153l3 18l-12 41h-134l16 88h84l-98 277h170l86 -258l177 258h169z" />
    <glyph glyph-name="brokenbar" unicode="&#xa6;" horiz-adv-x="305" 
d="M239 397h-113v403h113v-403zM239 -200h-113v403h113v-403z" />
    <glyph glyph-name="section" unicode="&#xa7;" horiz-adv-x="571" 
d="M581 645l-31 -116q-83 25 -189 25q-61 0 -86 -8.5t-25 -34.5q0 -20 30 -36.5t73 -31.5t85.5 -32.5t72.5 -47t30 -67.5q0 -50 -26.5 -93t-70.5 -69q51 -29 51 -99q0 -98 -75 -151t-209 -53q-129 0 -231 49l36 106q97 -38 198 -38q137 0 137 61q0 17 -30 32.5t-72.5 31.5
t-84.5 36.5t-72 56t-30 81.5q0 100 87 143q-44 35 -44 102q0 99 69 141.5t208 42.5q109 0 199 -31zM395 261q0 19 -25 31q-22 11 -64.5 26.5t-57.5 21.5q-40 -22 -40 -69q0 -21 20 -38t42.5 -26t57.5 -20q26 10 46.5 30t20.5 44z" />
    <glyph glyph-name="dieresis" unicode="&#xa8;" horiz-adv-x="458" 
d="M333 535l24 135h139l-24 -135h-139zM114 535l24 135h139l-24 -135h-139z" />
    <glyph glyph-name="copyright" unicode="&#xa9;" horiz-adv-x="713" 
d="M708 333q0 -143 -93 -243.5t-236 -100.5t-236 100.5t-93 243.5t93 243t236 100t236 -100t93 -243zM643 333q0 113 -73 197.5t-191 84.5t-191 -84.5t-73 -197.5t73 -198t191 -85t191 85t73 198zM503 490l-13 -71q-40 11 -74 11q-59 0 -87.5 -26.5t-28.5 -70.5t28.5 -71
t87.5 -27q30 0 74 10l12 -69q-54 -18 -100 -18q-82 0 -134.5 51t-52.5 124t52.5 123t134.5 50q52 0 101 -16z" />
    <glyph glyph-name="ordfeminine" unicode="&#xaa;" horiz-adv-x="420" 
d="M445 666l-58 -327h-109l11 59q-16 -28 -44 -46t-57 -18q-53 0 -75.5 34.5t-22.5 84.5q0 80 49 149.5t126 69.5q43 0 66 -29l4 23h110zM320 577v7q-18 7 -35 7q-42 0 -63 -41.5t-21 -91.5q0 -41 24 -41q34 0 64.5 50t30.5 110z" />
    <glyph glyph-name="guillemotleft" unicode="&#xab;" horiz-adv-x="639" 
d="M609 424l-200 -180l137 -181l-78 -63l-185 243l270 244zM366 424l-200 -180l136 -181l-78 -63l-184 243l270 244z" />
    <glyph glyph-name="logicalnot" unicode="&#xac;" horiz-adv-x="557" 
d="M472 0h-118v179h-299v117h417v-296z" />
    <glyph glyph-name="registered" unicode="&#xae;" horiz-adv-x="713" 
d="M708 333q0 -143 -93 -243.5t-236 -100.5t-236 100.5t-93 243.5t93 243t236 100t236 -100t93 -243zM641 333q0 113 -72 197.5t-190 84.5t-191 -84.5t-73 -197.5t73 -198t191 -85t190 85t72 198zM573 164h-105l-83 115h-61v-115h-86v335h190q47 0 79.5 -32.5t32.5 -78.5
q0 -64 -61 -97zM453 388q0 19 -13 31.5t-31 12.5h-85v-88h85q17 0 30.5 12.5t13.5 31.5z" />
    <glyph glyph-name="macron" unicode="&#xaf;" horiz-adv-x="422" 
d="M120 546l19 107h312l-19 -107h-312z" />
    <glyph glyph-name="degree" unicode="&#xb0;" horiz-adv-x="298" 
d="M313 587q0 -53 -38.5 -90.5t-89.5 -37.5q-39 0 -64.5 25.5t-25.5 64.5q0 52 36 89.5t92 37.5q39 0 64.5 -25t25.5 -64zM272 580q0 24 -16 40t-40 16q-32 0 -56.5 -24.5t-24.5 -55.5q0 -24 16.5 -39.5t40.5 -15.5q32 0 56 24t24 55z" />
    <glyph glyph-name="plusminus" unicode="&#xb1;" horiz-adv-x="577" 
d="M541 0h-475v99h179v82h-179v114h179v182h117v-182h179v-114h-179v-82h179v-99z" />
    <glyph glyph-name="twosuperior" unicode="&#xb2;" horiz-adv-x="667" 
d="M167 500h166v166h167v-166h167v-167h-167v-165h167v-168h-168v167h-165v-167h-168v167h-166v166h166v167h-166v166h167v-166zM334 333h165v167h-165v-167zM333 168v165h-166v-165h166z" />
    <glyph glyph-name="threesuperior" unicode="&#xb3;" horiz-adv-x="667" 
d="M167 500h166v166h167v-166h167v-167h-167v-165h167v-168h-168v167h-165v-167h-168v167h-166v166h166v167h-166v166h167v-166zM334 333h165v167h-165v-167zM333 168v165h-166v-165h166z" />
    <glyph glyph-name="acute" unicode="&#xb4;" horiz-adv-x="385" 
d="M120 535l106 136h193l-162 -136h-137z" />
    <glyph glyph-name="mu" unicode="&#xb5;" horiz-adv-x="643" 
d="M617 487l-85 -487h-157l17 87q-25 -39 -67 -67.5t-89 -28.5h-8l-25 -148h-162l112 644h163l-45 -260q-3 -16 -3 -42q0 -51 41 -51q28 0 49.5 21.5t45.5 91t43 189.5l8 51h162z" />
    <glyph glyph-name="paragraph" unicode="&#xb6;" horiz-adv-x="474" 
d="M469 666l-118 -666h-73l109 623h-66l-110 -623h-72l62 345q-58 0 -97 37.5t-39 95.5q0 75 58 131.5t133 56.5h213z" />
    <glyph glyph-name="periodcentered" unicode="&#xb7;" horiz-adv-x="325" 
d="M280 379l-31 -171h-174l31 171h174z" />
    <glyph glyph-name="cedilla" unicode="&#xb8;" horiz-adv-x="301" 
d="M24 -167l16 51q25 -5 45 -5q35 0 35 21q0 15 -27 15q-16 0 -42 -2l44 87h57l-16 -37q9 3 24 3q31 0 48.5 -16.5t17.5 -47.5q0 -37 -31.5 -60t-78.5 -23q-57 0 -92 14z" />
    <glyph glyph-name="onesuperior" unicode="&#xb9;" horiz-adv-x="667" 
d="M167 500h166v166h167v-166h167v-167h-167v-165h167v-168h-168v167h-165v-167h-168v167h-166v166h166v167h-166v166h167v-166zM334 333h165v167h-165v-167zM333 168v165h-166v-165h166z" />
    <glyph glyph-name="ordmasculine" unicode="&#xba;" horiz-adv-x="397" 
d="M417 538q0 -81 -53.5 -140.5t-147.5 -59.5q-66 0 -103.5 39.5t-37.5 99.5q0 84 58.5 141.5t142.5 57.5q64 0 102.5 -39.5t38.5 -98.5zM307 531q0 62 -46 62q-33 0 -55 -29.5t-22 -81.5q0 -61 47 -61q32 0 54 29.5t22 80.5z" />
    <glyph glyph-name="guillemotright" unicode="&#xbb;" horiz-adv-x="639" 
d="M371 243l-271 -243l-55 63l200 181l-137 180l79 63zM614 243l-270 -243l-56 63l200 181l-136 180l78 63z" />
    <glyph glyph-name="onequarter" unicode="&#xbc;" horiz-adv-x="667" 
d="M167 500h166v166h167v-166h167v-167h-167v-165h167v-168h-168v167h-165v-167h-168v167h-166v166h166v167h-166v166h167v-166zM334 333h165v167h-165v-167zM333 168v165h-166v-165h166z" />
    <glyph glyph-name="onehalf" unicode="&#xbd;" horiz-adv-x="667" 
d="M167 500h166v166h167v-166h167v-167h-167v-165h167v-168h-168v167h-165v-167h-168v167h-166v166h166v167h-166v166h167v-166zM334 333h165v167h-165v-167zM333 168v165h-166v-165h166z" />
    <glyph glyph-name="threequarters" unicode="&#xbe;" horiz-adv-x="667" 
d="M167 500h166v166h167v-166h167v-167h-167v-165h167v-168h-168v167h-165v-167h-168v167h-166v166h166v167h-166v166h167v-166zM334 333h165v167h-165v-167zM333 168v165h-166v-165h166z" />
    <glyph glyph-name="questiondown" unicode="&#xbf;" horiz-adv-x="599" 
d="M529 30q-130 -41 -242 -41q-46 0 -85 7.5t-76.5 24.5t-59 51.5t-21.5 82.5q0 180 281 294l53 -101l-42 -21t-41.5 -24t-43.5 -32.5t-27 -36t-13 -44.5q0 -60 120 -60q86 0 192 29zM472 666l-30 -172h-174l30 172h174z" />
    <glyph glyph-name="Agrave" unicode="&#xc0;" 
d="M415 253l-29 233l-110 -233h139zM624 0h-170l-21 125h-218l-69 -125h-174l364 666h160zM345 714l-114 136h193l58 -136h-137z" />
    <glyph glyph-name="Aacute" unicode="&#xc1;" 
d="M415 253l-29 233l-110 -233h139zM624 0h-170l-21 125h-218l-69 -125h-174l364 666h160zM357 714l106 136h193l-162 -136h-137z" />
    <glyph glyph-name="Acircumflex" unicode="&#xc2;" 
d="M415 253l-29 233l-110 -233h139zM624 0h-170l-21 125h-218l-69 -125h-174l364 666h160zM251 714l138 136h116l90 -136h-130l-29 49l-47 -49h-138z" />
    <glyph glyph-name="Atilde" unicode="&#xc3;" 
d="M415 253l-29 233l-110 -233h139zM624 0h-170l-21 125h-218l-69 -125h-174l364 666h160zM229 734q7 61 36.5 96.5t79.5 35.5q42 0 89 -20q42 -18 55 -18q11 0 18 9t15 31l90 -26q-16 -64 -42 -95.5t-74 -31.5q-34 0 -77 15q-57 19 -65 19q-23 0 -33 -37z" />
    <glyph glyph-name="Adieresis" unicode="&#xc4;" 
d="M415 253l-29 233l-110 -233h139zM624 0h-170l-21 125h-218l-69 -125h-174l364 666h160zM460 714l24 135h139l-24 -135h-139zM241 714l24 135h139l-24 -135h-139z" />
    <glyph glyph-name="Aring" unicode="&#xc5;" 
d="M414 666q23 0 36 14t13 34q0 15 -9 25.5t-26 10.5q-23 0 -36 -14.5t-13 -35.5q0 -15 9 -24.5t26 -9.5zM415 253l-29 233l-110 -233h139zM215 125l-69 -125h-174l358 656q-10 18 -10 39q0 47 30.5 76t82.5 29q39 0 63.5 -22.5t24.5 -56.5q0 -39 -23 -67l126 -654h-170
l-21 125h-218z" />
    <glyph glyph-name="AE" unicode="&#xc6;" horiz-adv-x="929" 
d="M394 253l-5 248l-120 -248h125zM951 666l-27 -146h-378l5 -104h320l-25 -146h-285l8 -124h290l-26 -146h-432l-2 123h-191l-69 -123h-167l362 666h617z" />
    <glyph glyph-name="Ccedilla" unicode="&#xc7;" horiz-adv-x="655" 
d="M359 -181q-57 0 -92 14l16 51q25 -5 45 -5q35 0 35 21q0 15 -27 15q-16 0 -42 -2l40 79q-132 14 -210 93t-78 189q0 189 118.5 295.5t319.5 106.5q106 0 191 -29l-43 -142q-76 20 -148 20q-120 0 -193 -58t-73 -164q0 -73 45 -118t149 -45q80 0 154 24l21 -134
q-91 -41 -197 -41l-11 -26q9 3 24 3q31 0 48.5 -16.5t17.5 -47.5q0 -37 -31.5 -60t-78.5 -23z" />
    <glyph glyph-name="Egrave" unicode="&#xc8;" horiz-adv-x="640" 
d="M662 666l-27 -146h-328l-18 -104h311l-25 -146h-311l-22 -124h328l-26 -146h-498l118 666h498zM357 714l-114 136h193l58 -136h-137z" />
    <glyph glyph-name="Eacute" unicode="&#xc9;" horiz-adv-x="640" 
d="M662 666l-27 -146h-328l-18 -104h311l-25 -146h-311l-22 -124h328l-26 -146h-498l118 666h498zM345 714l106 136h193l-162 -136h-137z" />
    <glyph glyph-name="Ecircumflex" unicode="&#xca;" horiz-adv-x="640" 
d="M662 666l-27 -146h-328l-18 -104h311l-25 -146h-311l-22 -124h328l-26 -146h-498l118 666h498zM250 714l138 136h116l90 -136h-130l-29 49l-47 -49h-138z" />
    <glyph glyph-name="Edieresis" unicode="&#xcb;" horiz-adv-x="640" 
d="M662 666l-27 -146h-328l-18 -104h311l-25 -146h-311l-22 -124h328l-26 -146h-498l118 666h498zM459 714l24 135h139l-24 -135h-139zM240 714l24 135h139l-24 -135h-139z" />
    <glyph glyph-name="Igrave" unicode="&#xcc;" horiz-adv-x="349" 
d="M338 666l-117 -666h-170l117 666h170zM185 714l-114 136h193l58 -136h-137z" />
    <glyph glyph-name="Iacute" unicode="&#xcd;" horiz-adv-x="349" 
d="M338 666l-117 -666h-170l117 666h170zM191 714l106 136h193l-162 -136h-137z" />
    <glyph glyph-name="Icircumflex" unicode="&#xce;" horiz-adv-x="349" 
d="M338 666l-117 -666h-170l117 666h170zM89 714l138 136h116l90 -136h-130l-29 49l-47 -49h-138z" />
    <glyph glyph-name="Idieresis" unicode="&#xcf;" horiz-adv-x="349" 
d="M338 666l-117 -666h-170l117 666h170zM302 714l24 135h139l-24 -135h-139zM83 714l24 135h139l-24 -135h-139z" />
    <glyph glyph-name="Eth" unicode="&#xd0;" horiz-adv-x="711" 
d="M212 0h-160l47 268h-74l22 132h76l47 266h160q175 0 278 -75.5t103 -203.5q0 -180 -137.5 -283.5t-361.5 -103.5zM249 151h23q74 0 130 21t93 73t37 131q0 72 -53.5 105.5t-143.5 33.5h-23l-20 -115h128l-23 -132h-128z" />
    <glyph glyph-name="Ntilde" unicode="&#xd1;" horiz-adv-x="804" 
d="M798 666l-117 -666h-167l-228 410l-72 -410h-168l116 666h168l227 -411l72 411h169zM293 734q7 61 36.5 96.5t79.5 35.5q42 0 89 -20q42 -18 55 -18q11 0 18 9t15 31l90 -26q-16 -64 -42 -95.5t-74 -31.5q-34 0 -77 15q-57 19 -65 19q-23 0 -33 -37z" />
    <glyph glyph-name="Ograve" unicode="&#xd2;" horiz-adv-x="752" 
d="M746 392q0 -168 -113 -285.5t-298 -117.5q-120 0 -204.5 83.5t-84.5 197.5q0 119 57 213t150.5 143.5t203.5 49.5q127 0 208 -81t81 -203zM576 381q0 66 -38 105t-109 39q-85 0 -148 -64t-63 -178q0 -64 38 -103.5t107 -39.5q86 0 149.5 64.5t63.5 176.5zM369 714
l-114 136h193l58 -136h-137z" />
    <glyph glyph-name="Oacute" unicode="&#xd3;" horiz-adv-x="752" 
d="M746 392q0 -168 -113 -285.5t-298 -117.5q-120 0 -204.5 83.5t-84.5 197.5q0 119 57 213t150.5 143.5t203.5 49.5q127 0 208 -81t81 -203zM576 381q0 66 -38 105t-109 39q-85 0 -148 -64t-63 -178q0 -64 38 -103.5t107 -39.5q86 0 149.5 64.5t63.5 176.5zM382 714
l106 136h193l-162 -136h-137z" />
    <glyph glyph-name="Ocircumflex" unicode="&#xd4;" horiz-adv-x="752" 
d="M746 392q0 -168 -113 -285.5t-298 -117.5q-120 0 -204.5 83.5t-84.5 197.5q0 119 57 213t150.5 143.5t203.5 49.5q127 0 208 -81t81 -203zM576 381q0 66 -38 105t-109 39q-85 0 -148 -64t-63 -178q0 -64 38 -103.5t107 -39.5q86 0 149.5 64.5t63.5 176.5zM277 714
l138 136h116l90 -136h-130l-29 49l-47 -49h-138z" />
    <glyph glyph-name="Otilde" unicode="&#xd5;" horiz-adv-x="752" 
d="M746 392q0 -168 -113 -285.5t-298 -117.5q-120 0 -204.5 83.5t-84.5 197.5q0 119 57 213t150.5 143.5t203.5 49.5q127 0 208 -81t81 -203zM576 381q0 66 -38 105t-109 39q-85 0 -148 -64t-63 -178q0 -64 38 -103.5t107 -39.5q86 0 149.5 64.5t63.5 176.5zM263 734
q7 61 36.5 96.5t79.5 35.5q42 0 89 -20q42 -18 55 -18q11 0 18 9t15 31l90 -26q-16 -64 -42 -95.5t-74 -31.5q-34 0 -77 15q-57 19 -65 19q-23 0 -33 -37z" />
    <glyph glyph-name="Odieresis" unicode="&#xd6;" horiz-adv-x="752" 
d="M746 392q0 -168 -113 -285.5t-298 -117.5q-120 0 -204.5 83.5t-84.5 197.5q0 119 57 213t150.5 143.5t203.5 49.5q127 0 208 -81t81 -203zM576 381q0 66 -38 105t-109 39q-85 0 -148 -64t-63 -178q0 -64 38 -103.5t107 -39.5q86 0 149.5 64.5t63.5 176.5zM486 714l24 135
h139l-24 -135h-139zM267 714l24 135h139l-24 -135h-139z" />
    <glyph glyph-name="multiply" unicode="&#xd7;" horiz-adv-x="495" 
d="M469 117l-83 -83l-127 127l-126 -127l-82 83l126 127l-126 128l82 83l126 -127l127 127l83 -83l-126 -128z" />
    <glyph glyph-name="Oslash" unicode="&#xd8;" horiz-adv-x="848" 
d="M842 636l-96 -81q47 -71 47 -163q0 -175 -116.5 -289t-294.5 -114q-125 0 -207 81l-96 -81l-33 40l96 81q-48 72 -48 164q0 171 112.5 286.5t297.5 115.5q126 0 209 -82l96 82zM586 486q-39 39 -109 39q-95 0 -153.5 -70.5t-58.5 -167.5q0 -34 10 -63zM623 378
q0 33 -10 62l-311 -261q39 -39 108 -39q89 0 151 71.5t62 166.5z" />
    <glyph glyph-name="Ugrave" unicode="&#xd9;" horiz-adv-x="759" 
d="M764 666l-66 -378q-23 -136 -112 -217.5t-249 -81.5q-122 0 -191.5 71.5t-69.5 174.5q0 29 4 53l67 378h171l-68 -377q-2 -11 -2 -31q0 -117 115 -117q66 0 109 39.5t55 108.5l67 377h170zM386 714l-114 136h193l58 -136h-137z" />
    <glyph glyph-name="Uacute" unicode="&#xda;" horiz-adv-x="759" 
d="M764 666l-66 -378q-23 -136 -112 -217.5t-249 -81.5q-122 0 -191.5 71.5t-69.5 174.5q0 29 4 53l67 378h171l-68 -377q-2 -11 -2 -31q0 -117 115 -117q66 0 109 39.5t55 108.5l67 377h170zM371 714l106 136h193l-162 -136h-137z" />
    <glyph glyph-name="Ucircumflex" unicode="&#xdb;" horiz-adv-x="759" 
d="M764 666l-66 -378q-23 -136 -112 -217.5t-249 -81.5q-122 0 -191.5 71.5t-69.5 174.5q0 29 4 53l67 378h171l-68 -377q-2 -11 -2 -31q0 -117 115 -117q66 0 109 39.5t55 108.5l67 377h170zM292 714l138 136h116l90 -136h-130l-29 49l-47 -49h-138z" />
    <glyph glyph-name="Udieresis" unicode="&#xdc;" horiz-adv-x="759" 
d="M764 666l-66 -378q-23 -136 -112 -217.5t-249 -81.5q-122 0 -191.5 71.5t-69.5 174.5q0 29 4 53l67 378h171l-68 -377q-2 -11 -2 -31q0 -117 115 -117q66 0 109 39.5t55 108.5l67 377h170zM506 714l24 135h139l-24 -135h-139zM287 714l24 135h139l-24 -135h-139z" />
    <glyph glyph-name="Yacute" unicode="&#xdd;" horiz-adv-x="596" 
d="M686 666l-287 -406l-45 -260h-171l46 260l-144 406h170l86 -256l177 256h168zM308 714l106 136h193l-162 -136h-137z" />
    <glyph glyph-name="Thorn" unicode="&#xde;" horiz-adv-x="678" 
d="M702 381q0 -14 -4 -40q-16 -94 -95.5 -161.5t-175.5 -67.5h-191l-20 -112h-170l118 666h170l-18 -98h191q84 0 139.5 -51.5t55.5 -135.5zM524 357q0 31 -20 52.5t-51 21.5h-161l-32 -183h161q41 0 72 34.5t31 74.5z" />
    <glyph glyph-name="germandbls" unicode="&#xdf;" horiz-adv-x="653" 
d="M613 538q0 -44 -20.5 -80.5t-44.5 -56.5t-44.5 -40.5t-20.5 -34.5t20 -28.5t44 -26.5t44 -37t20 -59q0 -92 -69.5 -139t-166.5 -47q-61 0 -116 25l47 109q48 -17 87 -17q21 0 38.5 8t17.5 26q0 13 -21 28t-45.5 29t-45.5 41.5t-21 61.5q0 32 13.5 57.5t33 43t38.5 33.5
t32.5 37.5t13.5 47.5q0 48 -59 48q-28 0 -46.5 -16.5t-23.5 -43.5l-89 -507h-164l66 370h-60l18 102h60q4 20 5 32q14 92 81.5 139.5t171.5 47.5q82 0 144 -38t62 -115z" />
    <glyph glyph-name="agrave" unicode="&#xe0;" horiz-adv-x="568" 
d="M550 487l-86 -487h-163l17 88q-24 -41 -66 -68.5t-85 -27.5q-41 0 -70.5 15.5t-45.5 42.5t-23 56.5t-7 63.5q0 75 30 148.5t91.5 125.5t139.5 52q29 0 57 -12.5t42 -30.5l5 34h164zM364 365q-25 10 -52 10q-62 0 -94 -61.5t-32 -135.5q0 -62 36 -62q48 0 90 73t51 166z
M263 535l-114 136h193l58 -136h-137z" />
    <glyph glyph-name="aacute" unicode="&#xe1;" horiz-adv-x="568" 
d="M550 487l-86 -487h-163l17 88q-24 -41 -66 -68.5t-85 -27.5q-41 0 -70.5 15.5t-45.5 42.5t-23 56.5t-7 63.5q0 75 30 148.5t91.5 125.5t139.5 52q29 0 57 -12.5t42 -30.5l5 34h164zM364 365q-25 10 -52 10q-62 0 -94 -61.5t-32 -135.5q0 -62 36 -62q48 0 90 73t51 166z
M261 535l106 136h193l-162 -136h-137z" />
    <glyph glyph-name="acircumflex" unicode="&#xe2;" horiz-adv-x="568" 
d="M550 487l-86 -487h-163l17 88q-24 -41 -66 -68.5t-85 -27.5q-41 0 -70.5 15.5t-45.5 42.5t-23 56.5t-7 63.5q0 75 30 148.5t91.5 125.5t139.5 52q29 0 57 -12.5t42 -30.5l5 34h164zM364 365q-25 10 -52 10q-62 0 -94 -61.5t-32 -135.5q0 -62 36 -62q48 0 90 73t51 166z
M176 535l138 136h116l90 -136h-130l-29 49l-47 -49h-138z" />
    <glyph glyph-name="atilde" unicode="&#xe3;" horiz-adv-x="568" 
d="M550 487l-86 -487h-163l17 88q-24 -41 -66 -68.5t-85 -27.5q-41 0 -70.5 15.5t-45.5 42.5t-23 56.5t-7 63.5q0 75 30 148.5t91.5 125.5t139.5 52q29 0 57 -12.5t42 -30.5l5 34h164zM364 365q-25 10 -52 10q-62 0 -94 -61.5t-32 -135.5q0 -62 36 -62q48 0 90 73t51 166z
M155 555q7 61 36.5 96.5t79.5 35.5q42 0 89 -20q42 -18 55 -18q11 0 18 9t15 31l90 -26q-16 -64 -42 -95.5t-74 -31.5q-34 0 -77 15q-57 19 -65 19q-23 0 -33 -37z" />
    <glyph glyph-name="adieresis" unicode="&#xe4;" horiz-adv-x="568" 
d="M550 487l-86 -487h-163l17 88q-24 -41 -66 -68.5t-85 -27.5q-41 0 -70.5 15.5t-45.5 42.5t-23 56.5t-7 63.5q0 75 30 148.5t91.5 125.5t139.5 52q29 0 57 -12.5t42 -30.5l5 34h164zM364 365q-25 10 -52 10q-62 0 -94 -61.5t-32 -135.5q0 -62 36 -62q48 0 90 73t51 166z
M383 535l24 135h139l-24 -135h-139zM164 535l24 135h139l-24 -135h-139z" />
    <glyph glyph-name="aring" unicode="&#xe5;" horiz-adv-x="568" 
d="M550 487l-86 -487h-163l17 88q-24 -41 -66 -68.5t-85 -27.5q-41 0 -70.5 15.5t-45.5 42.5t-23 56.5t-7 63.5q0 75 30 148.5t91.5 125.5t139.5 52q29 0 57 -12.5t42 -30.5l5 34h164zM364 365q-25 10 -52 10q-62 0 -94 -61.5t-32 -135.5q0 -62 36 -62q48 0 90 73t51 166z
M346 535q-44 0 -68.5 22.5t-24.5 56.5q0 47 30.5 76t82.5 29q39 0 63.5 -22.5t24.5 -56.5q0 -46 -30 -75.5t-78 -29.5zM347 585q23 0 36 14t13 34q0 15 -9 25.5t-26 10.5q-23 0 -36 -14.5t-13 -35.5q0 -15 9 -24.5t26 -9.5z" />
    <glyph glyph-name="ae" unicode="&#xe6;" horiz-adv-x="815" 
d="M800 369q0 -93 -86.5 -145.5t-238.5 -44.5q3 -62 114 -62q62 0 129 20l21 -110q-75 -35 -174 -35q-119 0 -183 50q-68 -50 -174 -50q-91 0 -144.5 39t-53.5 94q0 70 44.5 114t139.5 44h133l5 31q5 34 -12.5 45t-77.5 11q-86 0 -144 -6l2 116q91 16 182 16q117 0 173 -37
q68 37 155 37q94 0 142 -36t48 -91zM656 346q0 30 -52 30q-84 0 -112 -73q164 -6 164 43zM310 184h-70q-64 0 -64 -44q0 -19 13.5 -28.5t34.5 -9.5q73 0 85 76z" />
    <glyph glyph-name="ccedilla" unicode="&#xe7;" horiz-adv-x="446" 
d="M225 -181q-57 0 -92 14l16 51q25 -5 45 -5q35 0 35 21q0 15 -27 15q-16 0 -42 -2l41 82q-84 11 -132 68t-48 136q0 131 79 214t220 83q65 0 126 -18l-31 -116q-43 12 -85 12q-69 0 -106.5 -45t-37.5 -122q0 -92 91 -92q49 0 93 17l25 -113q-68 -24 -137 -27l-13 -29
q9 3 24 3q31 0 48.5 -16.5t17.5 -47.5q0 -37 -31.5 -60t-78.5 -23z" />
    <glyph glyph-name="egrave" unicode="&#xe8;" horiz-adv-x="523" 
d="M508 368q0 -92 -82 -139t-248 -41q3 -76 116 -76q58 0 127 28l35 -102q-80 -46 -186 -46q-123 0 -183.5 55.5t-60.5 149.5q0 139 83.5 219t208.5 80q93 0 141.5 -37t48.5 -91zM363 346q0 30 -50 30q-89 0 -118 -77q168 -6 168 47zM238 535l-114 136h193l58 -136h-137z
" />
    <glyph glyph-name="eacute" unicode="&#xe9;" horiz-adv-x="523" 
d="M508 368q0 -92 -82 -139t-248 -41q3 -76 116 -76q58 0 127 28l35 -102q-80 -46 -186 -46q-123 0 -183.5 55.5t-60.5 149.5q0 139 83.5 219t208.5 80q93 0 141.5 -37t48.5 -91zM363 346q0 30 -50 30q-89 0 -118 -77q168 -6 168 47zM252 535l106 136h193l-162 -136h-137z
" />
    <glyph glyph-name="ecircumflex" unicode="&#xea;" horiz-adv-x="523" 
d="M508 368q0 -92 -82 -139t-248 -41q3 -76 116 -76q58 0 127 28l35 -102q-80 -46 -186 -46q-123 0 -183.5 55.5t-60.5 149.5q0 139 83.5 219t208.5 80q93 0 141.5 -37t48.5 -91zM363 346q0 30 -50 30q-89 0 -118 -77q168 -6 168 47zM146 535l138 136h116l90 -136h-130
l-29 49l-47 -49h-138z" />
    <glyph glyph-name="edieresis" unicode="&#xeb;" horiz-adv-x="523" 
d="M508 368q0 -92 -82 -139t-248 -41q3 -76 116 -76q58 0 127 28l35 -102q-80 -46 -186 -46q-123 0 -183.5 55.5t-60.5 149.5q0 139 83.5 219t208.5 80q93 0 141.5 -37t48.5 -91zM363 346q0 30 -50 30q-89 0 -118 -77q168 -6 168 47zM352 535l24 135h139l-24 -135h-139z
M133 535l24 135h139l-24 -135h-139z" />
    <glyph glyph-name="igrave" unicode="&#xec;" horiz-adv-x="294" 
d="M279 487l-86 -487h-163l86 487h163zM130 535l-114 136h193l58 -136h-137z" />
    <glyph glyph-name="iacute" unicode="&#xed;" horiz-adv-x="294" 
d="M279 487l-86 -487h-163l86 487h163zM136 535l106 136h193l-162 -136h-137z" />
    <glyph glyph-name="icircumflex" unicode="&#xee;" horiz-adv-x="294" 
d="M279 487l-86 -487h-163l86 487h163zM34 535l138 136h116l90 -136h-130l-29 49l-47 -49h-138z" />
    <glyph glyph-name="idieresis" unicode="&#xef;" horiz-adv-x="294" 
d="M279 487l-86 -487h-163l86 487h163zM243 535l24 135h139l-24 -135h-139zM24 535l24 135h139l-24 -135h-139z" />
    <glyph glyph-name="eth" unicode="&#xf0;" horiz-adv-x="580" 
d="M257 -8q-99 0 -155.5 61t-56.5 151q0 113 69.5 190.5t183.5 77.5q88 0 128 -50q-9 48 -44 99l-126 -29l-21 95l77 17q-42 39 -79 62h180q20 -12 43 -30l101 22l22 -91l-53 -12q51 -84 51 -189q0 -75 -19.5 -141t-57.5 -119t-100.5 -83.5t-142.5 -30.5zM281 117
q52 0 84.5 42t32.5 113q0 37 -20 57.5t-56 20.5q-53 0 -83 -39.5t-30 -101.5q0 -42 18 -67t54 -25z" />
    <glyph glyph-name="ntilde" unicode="&#xf1;" horiz-adv-x="588" 
d="M545 342q0 -26 -6 -58l-49 -284h-163l45 261q4 21 4 41q0 51 -41 51q-91 0 -139 -302l-8 -51h-162l85 487h157l-17 -86q25 39 67 67t89 28q138 0 138 -154zM140 555q7 61 36.5 96.5t79.5 35.5q42 0 89 -20q42 -18 55 -18q11 0 18 9t15 31l90 -26q-16 -64 -42 -95.5
t-74 -31.5q-34 0 -77 15q-57 19 -65 19q-23 0 -33 -37z" />
    <glyph glyph-name="ograve" unicode="&#xf2;" horiz-adv-x="555" 
d="M535 290q0 -77 -32.5 -143.5t-102 -110.5t-163.5 -44t-152.5 60t-58.5 147q0 130 81 213.5t218 83.5q96 0 153 -59t57 -147zM373 278q0 96 -70 96q-48 0 -80 -44.5t-32 -122.5q0 -92 68 -92q47 0 80.5 43.5t33.5 119.5zM239 535l-114 136h193l58 -136h-137z" />
    <glyph glyph-name="oacute" unicode="&#xf3;" horiz-adv-x="555" 
d="M535 290q0 -77 -32.5 -143.5t-102 -110.5t-163.5 -44t-152.5 60t-58.5 147q0 130 81 213.5t218 83.5q96 0 153 -59t57 -147zM373 278q0 96 -70 96q-48 0 -80 -44.5t-32 -122.5q0 -92 68 -92q47 0 80.5 43.5t33.5 119.5zM263 535l106 136h193l-162 -136h-137z" />
    <glyph glyph-name="ocircumflex" unicode="&#xf4;" horiz-adv-x="555" 
d="M535 290q0 -77 -32.5 -143.5t-102 -110.5t-163.5 -44t-152.5 60t-58.5 147q0 130 81 213.5t218 83.5q96 0 153 -59t57 -147zM373 278q0 96 -70 96q-48 0 -80 -44.5t-32 -122.5q0 -92 68 -92q47 0 80.5 43.5t33.5 119.5zM155 535l138 136h116l90 -136h-130l-29 49l-47 -49
h-138z" />
    <glyph glyph-name="otilde" unicode="&#xf5;" horiz-adv-x="555" 
d="M535 290q0 -77 -32.5 -143.5t-102 -110.5t-163.5 -44t-152.5 60t-58.5 147q0 130 81 213.5t218 83.5q96 0 153 -59t57 -147zM373 278q0 96 -70 96q-48 0 -80 -44.5t-32 -122.5q0 -92 68 -92q47 0 80.5 43.5t33.5 119.5zM140 555q7 61 36.5 96.5t79.5 35.5q42 0 89 -20
q42 -18 55 -18q11 0 18 9t15 31l90 -26q-16 -64 -42 -95.5t-74 -31.5q-34 0 -77 15q-57 19 -65 19q-23 0 -33 -37z" />
    <glyph glyph-name="odieresis" unicode="&#xf6;" horiz-adv-x="555" 
d="M535 290q0 -77 -32.5 -143.5t-102 -110.5t-163.5 -44t-152.5 60t-58.5 147q0 130 81 213.5t218 83.5q96 0 153 -59t57 -147zM373 278q0 96 -70 96q-48 0 -80 -44.5t-32 -122.5q0 -92 68 -92q47 0 80.5 43.5t33.5 119.5zM360 535l24 135h139l-24 -135h-139zM141 535
l24 135h139l-24 -135h-139z" />
    <glyph glyph-name="divide" unicode="&#xf7;" horiz-adv-x="577" 
d="M547 195h-487v107h487v-107zM380 424q0 -32 -23 -55.5t-54 -23.5t-53.5 23.5t-22.5 55.5t22.5 54t53.5 22q32 0 54.5 -22.5t22.5 -53.5zM380 73q0 -31 -22.5 -53.5t-54.5 -22.5q-31 0 -53.5 22.5t-22.5 53.5q0 32 22.5 54.5t53.5 22.5t54 -23t23 -54z" />
    <glyph glyph-name="oslash" unicode="&#xf8;" horiz-adv-x="643" 
d="M623 466l-71 -58q36 -54 36 -121q0 -125 -83 -210t-224 -85q-98 0 -159 60l-72 -60l-24 30l72 58q-37 56 -37 121q0 127 80.5 211t227.5 84q98 0 160 -61l72 61zM425 281v19l-187 -150q21 -35 64 -35q60 0 91.5 52t31.5 114zM411 338q-20 34 -64 34q-59 0 -91 -52.5
t-32 -114.5v-19z" />
    <glyph glyph-name="ugrave" unicode="&#xf9;" horiz-adv-x="586" 
d="M560 487l-85 -487h-157l17 86q-25 -39 -67 -66.5t-89 -27.5q-138 0 -138 153q0 27 6 59l49 283h163l-45 -260q-3 -16 -3 -42q0 -51 41 -51q28 0 49.5 21.5t45.5 91t43 189.5l8 51h162zM254 535l-114 136h193l58 -136h-137z" />
    <glyph glyph-name="uacute" unicode="&#xfa;" horiz-adv-x="586" 
d="M560 487l-85 -487h-157l17 86q-25 -39 -67 -66.5t-89 -27.5q-138 0 -138 153q0 27 6 59l49 283h163l-45 -260q-3 -16 -3 -42q0 -51 41 -51q28 0 49.5 21.5t45.5 91t43 189.5l8 51h162zM254 535l106 136h193l-162 -136h-137z" />
    <glyph glyph-name="ucircumflex" unicode="&#xfb;" horiz-adv-x="586" 
d="M560 487l-85 -487h-157l17 86q-25 -39 -67 -66.5t-89 -27.5q-138 0 -138 153q0 27 6 59l49 283h163l-45 -260q-3 -16 -3 -42q0 -51 41 -51q28 0 49.5 21.5t45.5 91t43 189.5l8 51h162zM168 535l138 136h116l90 -136h-130l-29 49l-47 -49h-138z" />
    <glyph glyph-name="udieresis" unicode="&#xfc;" horiz-adv-x="586" 
d="M560 487l-85 -487h-157l17 86q-25 -39 -67 -66.5t-89 -27.5q-138 0 -138 153q0 27 6 59l49 283h163l-45 -260q-3 -16 -3 -42q0 -51 41 -51q28 0 49.5 21.5t45.5 91t43 189.5l8 51h162zM378 535l24 135h139l-24 -135h-139zM159 535l24 135h139l-24 -135h-139z" />
    <glyph glyph-name="yacute" unicode="&#xfd;" horiz-adv-x="489" 
d="M533 487l-344 -647h-158l85 160l-90 487h157l45 -312l149 312h156zM209 535l106 136h193l-162 -136h-137z" />
    <glyph glyph-name="thorn" unicode="&#xfe;" horiz-adv-x="563" 
d="M542 318q0 -75 -29.5 -148.5t-90.5 -125.5t-139 -52q-57 0 -100 32l-33 -184h-164l146 826h163l-48 -266q24 42 65 69t86 27q41 0 70.5 -15.5t44.5 -42.5t22 -56.5t7 -63.5zM377 310q0 62 -34 62q-14 0 -26 -6.5t-23.5 -22t-20 -30t-19 -40.5t-17 -43.5t-18 -49.5
t-17.5 -48l-3 -8q28 -11 54 -11q62 0 93 61t31 136z" />
    <glyph glyph-name="ydieresis" unicode="&#xff;" horiz-adv-x="489" 
d="M533 487l-344 -647h-158l85 160l-90 487h157l45 -312l149 312h156zM332 535l24 135h139l-24 -135h-139zM113 535l24 135h139l-24 -135h-139z" />
    <glyph glyph-name="Amacron" unicode="&#x100;" 
d="M415 253l-29 233l-110 -233h139zM624 0h-170l-21 125h-218l-69 -125h-174l364 666h160zM266 725l19 107h312l-19 -107h-312z" />
    <glyph glyph-name="amacron" unicode="&#x101;" horiz-adv-x="568" 
d="M550 487l-86 -487h-163l17 88q-24 -41 -66 -68.5t-85 -27.5q-41 0 -70.5 15.5t-45.5 42.5t-23 56.5t-7 63.5q0 75 30 148.5t91.5 125.5t139.5 52q29 0 57 -12.5t42 -30.5l5 34h164zM364 365q-25 10 -52 10q-62 0 -94 -61.5t-32 -135.5q0 -62 36 -62q48 0 90 73t51 166z
M183 546l19 107h312l-19 -107h-312z" />
    <glyph glyph-name="Abreve" unicode="&#x102;" 
d="M415 253l-29 233l-110 -233h139zM624 0h-170l-21 125h-218l-69 -125h-174l364 666h160zM298 843h99q-9 -52 40 -52t58 52h101q-11 -66 -55 -97.5t-111 -31.5q-66 0 -104 36t-28 93z" />
    <glyph glyph-name="abreve" unicode="&#x103;" horiz-adv-x="568" 
d="M550 487l-86 -487h-163l17 88q-24 -41 -66 -68.5t-85 -27.5q-41 0 -70.5 15.5t-45.5 42.5t-23 56.5t-7 63.5q0 75 30 148.5t91.5 125.5t139.5 52q29 0 57 -12.5t42 -30.5l5 34h164zM364 365q-25 10 -52 10q-62 0 -94 -61.5t-32 -135.5q0 -62 36 -62q48 0 90 73t51 166z
M211 664h99q-9 -52 40 -52t58 52h101q-11 -66 -55 -97.5t-111 -31.5q-66 0 -104 36t-28 93z" />
    <glyph glyph-name="Aogonek" unicode="&#x104;" 
d="M415 253l-29 233l-110 -233h139zM454 0l-21 125h-218l-69 -125h-174l364 666h160l128 -666h-102q-55 -43 -55 -81q0 -26 28 -26q14 0 29 5l-4 -66q-32 -13 -77 -13q-43 0 -67 20t-24 53q0 72 102 108z" />
    <glyph glyph-name="aogonek" unicode="&#x105;" horiz-adv-x="568" 
d="M364 365q-25 10 -52 10q-62 0 -94 -61.5t-32 -135.5q0 -62 36 -62q48 0 90 73t51 166zM301 0l17 88q-24 -41 -66 -68.5t-85 -27.5q-41 0 -70.5 15.5t-45.5 42.5t-23 56.5t-7 63.5q0 75 30 148.5t91.5 125.5t139.5 52q29 0 57 -12.5t42 -30.5l5 34h164l-86 -487h-95
q-55 -43 -55 -81q0 -26 28 -26q14 0 29 5l-4 -66q-32 -13 -77 -13q-43 0 -67 20t-24 53q0 72 102 108z" />
    <glyph glyph-name="Cacute" unicode="&#x106;" horiz-adv-x="655" 
d="M675 647l-43 -142q-76 20 -148 20q-120 0 -193 -58t-73 -164q0 -73 45 -118t149 -45q80 0 154 24l21 -134q-91 -41 -200 -41q-154 0 -247.5 81.5t-93.5 203.5q0 189 118.5 295.5t319.5 106.5q106 0 191 -29zM388 714l106 136h193l-162 -136h-137z" />
    <glyph glyph-name="cacute" unicode="&#x107;" horiz-adv-x="446" 
d="M446 478l-31 -116q-43 12 -85 12q-69 0 -106.5 -45t-37.5 -122q0 -92 91 -92q49 0 93 17l25 -113q-73 -27 -155 -27q-101 0 -160 59.5t-59 147.5q0 131 79 214t220 83q65 0 126 -18zM219 535l106 136h193l-162 -136h-137z" />
    <glyph glyph-name="Ccircumflex" unicode="&#x108;" horiz-adv-x="655" 
d="M675 647l-43 -142q-76 20 -148 20q-120 0 -193 -58t-73 -164q0 -73 45 -118t149 -45q80 0 154 24l21 -134q-91 -41 -200 -41q-154 0 -247.5 81.5t-93.5 203.5q0 189 118.5 295.5t319.5 106.5q106 0 191 -29zM292 714l138 136h116l90 -136h-130l-29 49l-47 -49h-138z" />
    <glyph glyph-name="ccircumflex" unicode="&#x109;" horiz-adv-x="446" 
d="M446 478l-31 -116q-43 12 -85 12q-69 0 -106.5 -45t-37.5 -122q0 -92 91 -92q49 0 93 17l25 -113q-73 -27 -155 -27q-101 0 -160 59.5t-59 147.5q0 131 79 214t220 83q65 0 126 -18zM118 535l138 136h116l90 -136h-130l-29 49l-47 -49h-138z" />
    <glyph glyph-name="Cdotaccent" unicode="&#x10a;" horiz-adv-x="655" 
d="M675 647l-43 -142q-76 20 -148 20q-120 0 -193 -58t-73 -164q0 -73 45 -118t149 -45q80 0 154 24l21 -134q-91 -41 -200 -41q-154 0 -247.5 81.5t-93.5 203.5q0 189 118.5 295.5t319.5 106.5q106 0 191 -29zM377 719l23 129h165l-23 -129h-165z" />
    <glyph glyph-name="cdotaccent" unicode="&#x10b;" horiz-adv-x="446" 
d="M446 478l-31 -116q-43 12 -85 12q-69 0 -106.5 -45t-37.5 -122q0 -92 91 -92q49 0 93 17l25 -113q-73 -27 -155 -27q-101 0 -160 59.5t-59 147.5q0 131 79 214t220 83q65 0 126 -18zM218 540l23 129h165l-23 -129h-165z" />
    <glyph glyph-name="Ccaron" unicode="&#x10c;" horiz-adv-x="655" 
d="M675 647l-43 -142q-76 20 -148 20q-120 0 -193 -58t-73 -164q0 -73 45 -118t149 -45q80 0 154 24l21 -134q-91 -41 -200 -41q-154 0 -247.5 81.5t-93.5 203.5q0 189 118.5 295.5t319.5 106.5q106 0 191 -29zM313 850h130l29 -49l47 49h138l-138 -136h-116z" />
    <glyph glyph-name="ccaron" unicode="&#x10d;" horiz-adv-x="446" 
d="M446 478l-31 -116q-43 12 -85 12q-69 0 -106.5 -45t-37.5 -122q0 -92 91 -92q49 0 93 17l25 -113q-73 -27 -155 -27q-101 0 -160 59.5t-59 147.5q0 131 79 214t220 83q65 0 126 -18zM146 671h130l29 -49l47 49h138l-138 -136h-116z" />
    <glyph glyph-name="Dcaron" unicode="&#x10e;" horiz-adv-x="705" 
d="M705 387q0 -180 -137.5 -283.5t-361.5 -103.5h-160l118 666h160q175 0 278 -75.5t103 -203.5zM526 376q0 72 -53.5 105.5t-143.5 33.5h-23l-63 -364h23q74 0 130 21t93 73t37 131zM268 850h130l29 -49l47 49h138l-138 -136h-116z" />
    <glyph glyph-name="dcaron" unicode="&#x10f;" horiz-adv-x="783" 
d="M586 666l-119 -666h-162l16 88q-24 -41 -66 -68.5t-85 -27.5q-41 0 -70.5 15.5t-44.5 42.5t-22 56.5t-7 63.5q0 75 29.5 148.5t90.5 125.5t139 52q62 0 99 -40l38 210h164zM369 364q-28 11 -54 11q-62 0 -93 -61t-31 -136q0 -62 34 -62q45 0 82.5 70t59.5 169zM668 666
h161l-25 -140l-91 -119h-76l76 119h-70z" />
    <glyph glyph-name="Dcroat" unicode="&#x110;" horiz-adv-x="711" 
d="M212 0h-160l47 268h-74l22 132h76l47 266h160q175 0 278 -75.5t103 -203.5q0 -180 -137.5 -283.5t-361.5 -103.5zM249 151h23q74 0 130 21t93 73t37 131q0 72 -53.5 105.5t-143.5 33.5h-23l-20 -115h128l-23 -132h-128z" />
    <glyph glyph-name="dcroat" unicode="&#x111;" horiz-adv-x="589" 
d="M369 364q-28 11 -54 11q-62 0 -93 -61t-31 -136q0 -62 34 -62q45 0 82.5 70t59.5 169zM321 88q-24 -41 -66 -68.5t-85 -27.5q-41 0 -70.5 15.5t-44.5 42.5t-22 56.5t-7 63.5q0 75 29.5 148.5t90.5 125.5t139 52q62 0 99 -40l11 63h-89l20 103h88l8 44h164l-8 -44h66
l-18 -103h-66l-93 -519h-162z" />
    <glyph glyph-name="Emacron" unicode="&#x112;" horiz-adv-x="640" 
d="M662 666l-27 -146h-328l-18 -104h311l-25 -146h-311l-22 -124h328l-26 -146h-498l118 666h498zM269 725l19 107h312l-19 -107h-312z" />
    <glyph glyph-name="emacron" unicode="&#x113;" horiz-adv-x="523" 
d="M508 368q0 -92 -82 -139t-248 -41q3 -76 116 -76q58 0 127 28l35 -102q-80 -46 -186 -46q-123 0 -183.5 55.5t-60.5 149.5q0 139 83.5 219t208.5 80q93 0 141.5 -37t48.5 -91zM363 346q0 30 -50 30q-89 0 -118 -77q168 -6 168 47zM162 546l19 107h312l-19 -107h-312z" />
    <glyph glyph-name="Ebreve" unicode="&#x114;" horiz-adv-x="640" 
d="M662 666l-27 -146h-328l-18 -104h311l-25 -146h-311l-22 -124h328l-26 -146h-498l118 666h498zM297 843h99q-9 -52 40 -52t58 52h101q-11 -66 -55 -97.5t-111 -31.5q-66 0 -104 36t-28 93z" />
    <glyph glyph-name="ebreve" unicode="&#x115;" horiz-adv-x="523" 
d="M508 368q0 -92 -82 -139t-248 -41q3 -76 116 -76q58 0 127 28l35 -102q-80 -46 -186 -46q-123 0 -183.5 55.5t-60.5 149.5q0 139 83.5 219t208.5 80q93 0 141.5 -37t48.5 -91zM363 346q0 30 -50 30q-89 0 -118 -77q168 -6 168 47zM190 664h99q-9 -52 40 -52t58 52h101
q-11 -66 -55 -97.5t-111 -31.5q-66 0 -104 36t-28 93z" />
    <glyph glyph-name="Edotaccent" unicode="&#x116;" horiz-adv-x="640" 
d="M662 666l-27 -146h-328l-18 -104h311l-25 -146h-311l-22 -124h328l-26 -146h-498l118 666h498zM335 719l23 129h165l-23 -129h-165z" />
    <glyph glyph-name="edotaccent" unicode="&#x117;" horiz-adv-x="523" 
d="M508 368q0 -92 -82 -139t-248 -41q3 -76 116 -76q58 0 127 28l35 -102q-80 -46 -186 -46q-123 0 -183.5 55.5t-60.5 149.5q0 139 83.5 219t208.5 80q93 0 141.5 -37t48.5 -91zM363 346q0 30 -50 30q-89 0 -118 -77q168 -6 168 47zM243 540l23 129h165l-23 -129h-165z" />
    <glyph glyph-name="Eogonek" unicode="&#x118;" horiz-adv-x="640" 
d="M434 0h-388l118 666h498l-27 -146h-328l-18 -104h311l-25 -146h-311l-22 -124h328l-26 -146h-42q-55 -43 -55 -81q0 -26 28 -26q14 0 29 5l-4 -66q-32 -13 -77 -13q-43 0 -67 20t-24 53q0 72 102 108z" />
    <glyph glyph-name="eogonek" unicode="&#x119;" horiz-adv-x="523" 
d="M363 346q0 30 -50 30q-89 0 -118 -77q168 -6 168 47zM405 -168q-32 -13 -77 -13q-43 0 -67 20t-24 53q0 69 87 104q-25 -4 -54 -4q-123 0 -183.5 55.5t-60.5 149.5q0 139 83.5 219t208.5 80q93 0 141.5 -37t48.5 -91q0 -92 -82 -139t-248 -41q3 -76 116 -76q58 0 127 28
l35 -102q-54 -35 -79 -61t-25 -58q0 -26 28 -26q14 0 29 5z" />
    <glyph glyph-name="Ecaron" unicode="&#x11a;" horiz-adv-x="640" 
d="M662 666l-27 -146h-328l-18 -104h311l-25 -146h-311l-22 -124h328l-26 -146h-498l118 666h498zM271 850h130l29 -49l47 49h138l-138 -136h-116z" />
    <glyph glyph-name="ecaron" unicode="&#x11b;" horiz-adv-x="523" 
d="M508 368q0 -92 -82 -139t-248 -41q3 -76 116 -76q58 0 127 28l35 -102q-80 -46 -186 -46q-123 0 -183.5 55.5t-60.5 149.5q0 139 83.5 219t208.5 80q93 0 141.5 -37t48.5 -91zM363 346q0 30 -50 30q-89 0 -118 -77q168 -6 168 47zM164 671h130l29 -49l47 49h138
l-138 -136h-116z" />
    <glyph glyph-name="Gcircumflex" unicode="&#x11c;" horiz-adv-x="693" 
d="M671 652l-38 -142q-81 15 -148 15q-137 0 -201.5 -62t-64.5 -163q0 -71 44 -115.5t130 -44.5q42 0 76 7l37 206h160l-60 -336q-100 -28 -217 -28q-159 0 -251 84.5t-92 201.5q0 198 120 299.5t323 101.5q97 0 182 -24zM269 714l138 136h116l90 -136h-130l-29 49l-47 -49
h-138z" />
    <glyph glyph-name="gcircumflex" unicode="&#x11d;" horiz-adv-x="573" 
d="M558 487l-75 -386q-28 -145 -103 -208t-225 -63q-74 0 -155 28l30 106q58 -19 122 -19q65 0 100.5 20.5t54.5 78.5q11 34 19 70q-57 -99 -152 -99q-54 0 -87.5 28.5t-45 66t-11.5 84.5q0 68 29.5 136t91 117t139.5 49q60 0 97 -42l6 33h165zM373 367q-21 8 -53 8
q-42 0 -72.5 -31.5t-42 -69t-11.5 -73.5q0 -61 36 -61q48 0 85.5 59t55.5 157zM180 535l138 136h116l90 -136h-130l-29 49l-47 -49h-138z" />
    <glyph glyph-name="Gbreve" unicode="&#x11e;" horiz-adv-x="693" 
d="M671 652l-38 -142q-81 15 -148 15q-137 0 -201.5 -62t-64.5 -163q0 -71 44 -115.5t130 -44.5q42 0 76 7l37 206h160l-60 -336q-100 -28 -217 -28q-159 0 -251 84.5t-92 201.5q0 198 120 299.5t323 101.5q97 0 182 -24zM316 843h99q-9 -52 40 -52t58 52h101
q-11 -66 -55 -97.5t-111 -31.5q-66 0 -104 36t-28 93z" />
    <glyph glyph-name="gbreve" unicode="&#x11f;" horiz-adv-x="573" 
d="M558 487l-75 -386q-28 -145 -103 -208t-225 -63q-74 0 -155 28l30 106q58 -19 122 -19q65 0 100.5 20.5t54.5 78.5q11 34 19 70q-57 -99 -152 -99q-54 0 -87.5 28.5t-45 66t-11.5 84.5q0 68 29.5 136t91 117t139.5 49q60 0 97 -42l6 33h165zM373 367q-21 8 -53 8
q-42 0 -72.5 -31.5t-42 -69t-11.5 -73.5q0 -61 36 -61q48 0 85.5 59t55.5 157zM220 664h99q-9 -52 40 -52t58 52h101q-11 -66 -55 -97.5t-111 -31.5q-66 0 -104 36t-28 93z" />
    <glyph glyph-name="Gdotaccent" unicode="&#x120;" horiz-adv-x="693" 
d="M671 652l-38 -142q-81 15 -148 15q-137 0 -201.5 -62t-64.5 -163q0 -71 44 -115.5t130 -44.5q42 0 76 7l37 206h160l-60 -336q-100 -28 -217 -28q-159 0 -251 84.5t-92 201.5q0 198 120 299.5t323 101.5q97 0 182 -24zM354 719l23 129h165l-23 -129h-165z" />
    <glyph glyph-name="gdotaccent" unicode="&#x121;" horiz-adv-x="573" 
d="M558 487l-75 -386q-28 -145 -103 -208t-225 -63q-74 0 -155 28l30 106q58 -19 122 -19q65 0 100.5 20.5t54.5 78.5q11 34 19 70q-57 -99 -152 -99q-54 0 -87.5 28.5t-45 66t-11.5 84.5q0 68 29.5 136t91 117t139.5 49q60 0 97 -42l6 33h165zM373 367q-21 8 -53 8
q-42 0 -72.5 -31.5t-42 -69t-11.5 -73.5q0 -61 36 -61q48 0 85.5 59t55.5 157zM268 540l23 129h165l-23 -129h-165z" />
    <glyph glyph-name="uni0122" unicode="&#x122;" horiz-adv-x="693" 
d="M671 652l-38 -142q-81 15 -148 15q-137 0 -201.5 -62t-64.5 -163q0 -71 44 -115.5t130 -44.5q42 0 76 7l37 206h160l-60 -336q-100 -28 -217 -28q-159 0 -251 84.5t-92 201.5q0 198 120 299.5t323 101.5q97 0 182 -24zM293 -68h157l-23 -132l-95 -113h-75l77 113h-64z
" />
    <glyph glyph-name="uni0123" unicode="&#x123;" horiz-adv-x="573" 
d="M558 487l-75 -386q-28 -145 -103 -208t-225 -63q-74 0 -155 28l30 106q58 -19 122 -19q65 0 100.5 20.5t54.5 78.5q11 34 19 70q-57 -99 -152 -99q-54 0 -87.5 28.5t-45 66t-11.5 84.5q0 68 29.5 136t91 117t139.5 49q60 0 97 -42l6 33h165zM373 367q-21 8 -53 8
q-42 0 -72.5 -31.5t-42 -69t-11.5 -73.5q0 -61 36 -61q48 0 85.5 59t55.5 157zM246 535l162 136h137l-106 -136h-193z" />
    <glyph glyph-name="Hcircumflex" unicode="&#x124;" horiz-adv-x="778" 
d="M772 666l-117 -666h-170l44 258h-270l-44 -258h-169l116 666h170l-46 -257h271l44 257h171zM291 714l138 136h116l90 -136h-130l-29 49l-47 -49h-138z" />
    <glyph glyph-name="hcircumflex" unicode="&#x125;" horiz-adv-x="583" 
d="M540 345q0 -28 -6 -61l-49 -284h-164l45 261q4 21 4 42q0 50 -40 50q-24 0 -44 -21.5t-45.5 -91.5t-48.5 -189l-10 -51h-162l118 666h157l-49 -265q24 38 68 66.5t88 28.5q70 0 104 -40t34 -111zM46 714l138 136h116l90 -136h-130l-29 49l-47 -49h-138z" />
    <glyph glyph-name="Hbar" unicode="&#x126;" horiz-adv-x="798" 
d="M296 409h271l11 65h-270zM269 258l-44 -258h-169l83 474h-73l22 115h71l13 77h170l-14 -77h270l13 77h171l-14 -77h72l-22 -115h-70l-83 -474h-170l44 258h-270z" />
    <glyph glyph-name="hbar" unicode="&#x127;" horiz-adv-x="598" 
d="M207 51l-10 -51h-162l92 519h-71l20 103h69l8 44h157l-8 -44h92l-18 -103h-93l-22 -118q24 38 68 66.5t88 28.5q70 0 104 -40t34 -111q0 -28 -6 -61l-49 -284h-164l45 261q4 21 4 42q0 50 -40 50q-24 0 -44 -21.5t-45.5 -91.5t-48.5 -189z" />
    <glyph glyph-name="Itilde" unicode="&#x128;" horiz-adv-x="349" 
d="M338 666l-117 -666h-170l117 666h170zM79 734q7 61 36.5 96.5t79.5 35.5q42 0 89 -20q42 -18 55 -18q11 0 18 9t15 31l90 -26q-16 -64 -42 -95.5t-74 -31.5q-34 0 -77 15q-57 19 -65 19q-23 0 -33 -37z" />
    <glyph glyph-name="itilde" unicode="&#x129;" horiz-adv-x="294" 
d="M279 487l-86 -487h-163l86 487h163zM20 555q7 61 36.5 96.5t79.5 35.5q42 0 89 -20q42 -18 55 -18q11 0 18 9t15 31l90 -26q-16 -64 -42 -95.5t-74 -31.5q-34 0 -77 15q-57 19 -65 19q-23 0 -33 -37z" />
    <glyph glyph-name="Imacron" unicode="&#x12a;" horiz-adv-x="349" 
d="M338 666l-117 -666h-170l117 666h170zM112 725l19 107h312l-19 -107h-312z" />
    <glyph glyph-name="imacron" unicode="&#x12b;" horiz-adv-x="294" 
d="M279 487l-86 -487h-163l86 487h163zM48 546l19 107h312l-19 -107h-312z" />
    <glyph glyph-name="Ibreve" unicode="&#x12c;" horiz-adv-x="349" 
d="M338 666l-117 -666h-170l117 666h170zM140 843h99q-9 -52 40 -52t58 52h101q-11 -66 -55 -97.5t-111 -31.5q-66 0 -104 36t-28 93z" />
    <glyph glyph-name="ibreve" unicode="&#x12d;" horiz-adv-x="294" 
d="M279 487l-86 -487h-163l86 487h163zM75 664h99q-9 -52 40 -52t58 52h101q-11 -66 -55 -97.5t-111 -31.5q-66 0 -104 36t-28 93z" />
    <glyph glyph-name="Iogonek" unicode="&#x12e;" horiz-adv-x="349" 
d="M51 0l117 666h170l-117 -666h-102q-45 -43 -45 -84q0 -23 21 -23q16 0 26 4l-4 -67q-22 -11 -73 -11q-39 0 -62 20t-23 53q0 74 92 108z" />
    <glyph glyph-name="iogonek" unicode="&#x12f;" horiz-adv-x="296" 
d="M273 487l-84 -487h-163l85 487h162zM310 697l-22 -127h-162l22 127h162zM26 0h68q-45 -43 -45 -84q0 -23 21 -23q16 0 26 4l-4 -67q-22 -11 -73 -11q-39 0 -62 20t-23 53q0 74 92 108z" />
    <glyph glyph-name="Idotaccent" unicode="&#x130;" horiz-adv-x="349" 
d="M338 666l-117 -666h-170l117 666h170zM178 719l23 129h165l-23 -129h-165z" />
    <glyph glyph-name="dotlessi" unicode="&#x131;" horiz-adv-x="294" 
d="M279 487l-86 -487h-163l86 487h163z" />
    <glyph glyph-name="IJ" unicode="&#x132;" horiz-adv-x="783" 
d="M338 666l-117 -666h-170l117 666h170zM788 666l-79 -450q-19 -112 -78 -166.5t-191 -54.5h-87l16 130h89q37 0 54.5 21t26.5 72l53 309h-156l25 139h327z" />
    <glyph glyph-name="ij" unicode="&#x133;" horiz-adv-x="578" 
d="M273 487l-84 -487h-163l85 487h162zM310 697l-22 -127h-162l22 127h162zM565 487l-84 -481q-15 -88 -70.5 -131t-138.5 -43h-48l17 128h20q30 0 42 14t19 55l80 458h163zM602 699l-22 -129h-163l22 129h163z" />
    <glyph glyph-name="Jcircumflex" unicode="&#x134;" horiz-adv-x="434" 
d="M439 666l-79 -450q-19 -112 -78 -166.5t-191 -54.5h-87l16 130h89q37 0 54.5 21t26.5 72l53 309h-156l25 139h327zM128 714l138 136h116l90 -136h-130l-29 49l-47 -49h-138z" />
    <glyph glyph-name="jcircumflex" unicode="&#x135;" horiz-adv-x="282" 
d="M269 487l-84 -481q-15 -88 -70.5 -131t-138.5 -43h-14h-18.5h-15.5l17 128h20q30 0 42 14t19 55l80 458h163zM20 535l138 136h116l90 -136h-130l-29 49l-47 -49h-138z" />
    <glyph glyph-name="uni0136" unicode="&#x136;" horiz-adv-x="725" 
d="M785 666l-370 -322l264 -344h-227l-190 264l-46 -264h-170l116 666h171l-44 -251l270 251h226zM241 -68h157l-23 -132l-95 -113h-75l77 113h-64z" />
    <glyph glyph-name="uni0137" unicode="&#x137;" horiz-adv-x="549" 
d="M584 487l-231 -241l151 -246h-187l-101 186l-33 -186h-162l117 666h162l-63 -360l161 181h186zM163 -68h157l-23 -132l-95 -113h-75l77 113h-64z" />
    <glyph glyph-name="kgreenlandic" unicode="&#x138;" horiz-adv-x="549" 
d="M584 487l-231 -241l151 -246h-187l-101 186l-33 -186h-162l85 487h162l-31 -181l161 181h186z" />
    <glyph glyph-name="Lacute" unicode="&#x139;" horiz-adv-x="590" 
d="M555 146l-25 -146h-484l116 666h171l-92 -520h314zM188 714l106 136h193l-162 -136h-137z" />
    <glyph glyph-name="lacute" unicode="&#x13a;" horiz-adv-x="348" 
d="M307 22q-52 -30 -117 -30q-71 0 -112.5 32t-41.5 99q0 24 4 47l88 496h162l-86 -482q-3 -21 -3 -31q0 -38 35 -38q21 0 39 10zM147 714l106 136h193l-162 -136h-137z" />
    <glyph glyph-name="uni013B" unicode="&#x13b;" horiz-adv-x="590" 
d="M555 146l-25 -146h-484l116 666h171l-92 -520h314zM206 -68h157l-23 -132l-95 -113h-75l77 113h-64z" />
    <glyph glyph-name="uni013C" unicode="&#x13c;" horiz-adv-x="348" 
d="M307 22q-52 -30 -117 -30q-71 0 -112.5 32t-41.5 99q0 24 4 47l88 496h162l-86 -482q-3 -21 -3 -31q0 -38 35 -38q21 0 39 10zM71 -68h157l-23 -132l-95 -113h-75l77 113h-64z" />
    <glyph glyph-name="Lcaron" unicode="&#x13d;" horiz-adv-x="590" 
d="M555 146l-25 -146h-484l116 666h171l-92 -520h314zM449 666h161l-25 -140l-91 -119h-76l76 119h-70z" />
    <glyph glyph-name="lcaron" unicode="&#x13e;" horiz-adv-x="482" 
d="M307 22q-52 -30 -117 -30q-71 0 -112.5 32t-41.5 99q0 24 4 47l88 496h162l-86 -482q-3 -21 -3 -31q0 -38 35 -38q21 0 39 10zM372 666h161l-25 -140l-91 -119h-76l76 119h-70z" />
    <glyph glyph-name="Ldot" unicode="&#x13f;" horiz-adv-x="590" 
d="M555 146l-25 -146h-484l116 666h171l-92 -520h314zM533 408l-31 -171h-174l31 171h174z" />
    <glyph glyph-name="ldot" unicode="&#x140;" horiz-adv-x="484" 
d="M307 22q-52 -30 -117 -30q-71 0 -112.5 32t-41.5 99q0 24 4 47l88 496h162l-86 -482q-3 -21 -3 -31q0 -38 35 -38q21 0 39 10zM494 379l-31 -171h-174l31 171h174z" />
    <glyph glyph-name="Lslash" unicode="&#x141;" horiz-adv-x="613" 
d="M553 0h-484l34 197l-88 -34l26 152l89 34l55 317h171l-44 -246l200 77l-26 -152l-200 -77l-22 -122h314z" />
    <glyph glyph-name="lslash" unicode="&#x142;" horiz-adv-x="379" 
d="M221 -8q-71 0 -112.5 32t-41.5 99q0 24 4 47l13 74l-69 -26l30 149l65 24l49 275h162l-37 -210l108 41l-30 -149l-105 -39l-22 -125q-3 -21 -3 -31q0 -38 35 -38q21 0 39 10l32 -103q-52 -30 -117 -30z" />
    <glyph glyph-name="Nacute" unicode="&#x143;" horiz-adv-x="804" 
d="M798 666l-117 -666h-167l-228 410l-72 -410h-168l116 666h168l227 -411l72 411h169zM400 714l106 136h193l-162 -136h-137z" />
    <glyph glyph-name="nacute" unicode="&#x144;" horiz-adv-x="588" 
d="M545 342q0 -26 -6 -58l-49 -284h-163l45 261q4 21 4 41q0 51 -41 51q-91 0 -139 -302l-8 -51h-162l85 487h157l-17 -86q25 39 67 67t89 28q138 0 138 -154zM250 535l106 136h193l-162 -136h-137z" />
    <glyph glyph-name="uni0145" unicode="&#x145;" horiz-adv-x="804" 
d="M798 666l-117 -666h-167l-228 410l-72 -410h-168l116 666h168l227 -411l72 411h169zM278 -68h157l-23 -132l-95 -113h-75l77 113h-64z" />
    <glyph glyph-name="uni0146" unicode="&#x146;" horiz-adv-x="588" 
d="M545 342q0 -26 -6 -58l-49 -284h-163l45 261q4 21 4 41q0 51 -41 51q-91 0 -139 -302l-8 -51h-162l85 487h157l-17 -86q25 39 67 67t89 28q138 0 138 -154zM173 -68h157l-23 -132l-95 -113h-75l77 113h-64z" />
    <glyph glyph-name="Ncaron" unicode="&#x147;" horiz-adv-x="804" 
d="M798 666l-117 -666h-167l-228 410l-72 -410h-168l116 666h168l227 -411l72 411h169zM326 850h130l29 -49l47 49h138l-138 -136h-116z" />
    <glyph glyph-name="ncaron" unicode="&#x148;" horiz-adv-x="588" 
d="M545 342q0 -26 -6 -58l-49 -284h-163l45 261q4 21 4 41q0 51 -41 51q-91 0 -139 -302l-8 -51h-162l85 487h157l-17 -86q25 39 67 67t89 28q138 0 138 -154zM182 671h130l29 -49l47 49h138l-138 -136h-116z" />
    <glyph glyph-name="napostrophe" unicode="&#x149;" horiz-adv-x="762" 
d="M719 342q0 -26 -6 -58l-49 -284h-163l45 261q4 21 4 41q0 51 -41 51q-91 0 -139 -302l-8 -51h-162l85 487h157l-17 -86q25 39 67 67t89 28q138 0 138 -154zM91 666h161l-25 -140l-91 -119h-76l76 119h-70z" />
    <glyph glyph-name="Eng" unicode="&#x14a;" horiz-adv-x="804" 
d="M473 -168h-14h-18.5h-15.5l17 128h20q23 0 34 9.5t17 31.5l-227 409l-72 -410h-168l116 666h168l227 -411l72 411h169l-118 -673q-15 -86 -66 -123.5t-141 -37.5z" />
    <glyph glyph-name="eng" unicode="&#x14b;" horiz-adv-x="588" 
d="M282 -168h-48l17 128h20q32 0 43 15t18 54l40 232q4 21 4 41q0 51 -41 51q-91 0 -139 -302l-8 -51h-162l85 487h157l-17 -86q25 39 67 67t89 28q138 0 138 -154q0 -26 -6 -58l-49 -285q-28 -167 -208 -167z" />
    <glyph glyph-name="Omacron" unicode="&#x14c;" horiz-adv-x="752" 
d="M746 392q0 -168 -113 -285.5t-298 -117.5q-120 0 -204.5 83.5t-84.5 197.5q0 119 57 213t150.5 143.5t203.5 49.5q127 0 208 -81t81 -203zM576 381q0 66 -38 105t-109 39q-85 0 -148 -64t-63 -178q0 -64 38 -103.5t107 -39.5q86 0 149.5 64.5t63.5 176.5zM296 725l19 107
h312l-19 -107h-312z" />
    <glyph glyph-name="omacron" unicode="&#x14d;" horiz-adv-x="555" 
d="M535 290q0 -77 -32.5 -143.5t-102 -110.5t-163.5 -44t-152.5 60t-58.5 147q0 130 81 213.5t218 83.5q96 0 153 -59t57 -147zM373 278q0 96 -70 96q-48 0 -80 -44.5t-32 -122.5q0 -92 68 -92q47 0 80.5 43.5t33.5 119.5zM174 546l19 107h312l-19 -107h-312z" />
    <glyph glyph-name="Obreve" unicode="&#x14e;" horiz-adv-x="752" 
d="M746 392q0 -168 -113 -285.5t-298 -117.5q-120 0 -204.5 83.5t-84.5 197.5q0 119 57 213t150.5 143.5t203.5 49.5q127 0 208 -81t81 -203zM576 381q0 66 -38 105t-109 39q-85 0 -148 -64t-63 -178q0 -64 38 -103.5t107 -39.5q86 0 149.5 64.5t63.5 176.5zM324 843h99
q-9 -52 40 -52t58 52h101q-11 -66 -55 -97.5t-111 -31.5q-66 0 -104 36t-28 93z" />
    <glyph glyph-name="obreve" unicode="&#x14f;" horiz-adv-x="555" 
d="M535 290q0 -77 -32.5 -143.5t-102 -110.5t-163.5 -44t-152.5 60t-58.5 147q0 130 81 213.5t218 83.5q96 0 153 -59t57 -147zM373 278q0 96 -70 96q-48 0 -80 -44.5t-32 -122.5q0 -92 68 -92q47 0 80.5 43.5t33.5 119.5zM202 664h99q-9 -52 40 -52t58 52h101
q-11 -66 -55 -97.5t-111 -31.5q-66 0 -104 36t-28 93z" />
    <glyph glyph-name="Ohungarumlaut" unicode="&#x150;" horiz-adv-x="752" 
d="M746 392q0 -168 -113 -285.5t-298 -117.5q-120 0 -204.5 83.5t-84.5 197.5q0 119 57 213t150.5 143.5t203.5 49.5q127 0 208 -81t81 -203zM576 381q0 66 -38 105t-109 39q-85 0 -148 -64t-63 -178q0 -64 38 -103.5t107 -39.5q86 0 149.5 64.5t63.5 176.5zM511 714
l115 136h180l-169 -136h-126zM268 714l115 136h179l-168 -136h-126z" />
    <glyph glyph-name="ohungarumlaut" unicode="&#x151;" horiz-adv-x="555" 
d="M535 290q0 -77 -32.5 -143.5t-102 -110.5t-163.5 -44t-152.5 60t-58.5 147q0 130 81 213.5t218 83.5q96 0 153 -59t57 -147zM373 278q0 96 -70 96q-48 0 -80 -44.5t-32 -122.5q0 -92 68 -92q47 0 80.5 43.5t33.5 119.5zM383 535l115 136h180l-169 -136h-126zM140 535
l115 136h179l-168 -136h-126z" />
    <glyph glyph-name="OE" unicode="&#x152;" horiz-adv-x="1001" 
d="M1023 666l-26 -146h-328l-18 -104h312l-25 -146h-312l-22 -124h328l-26 -146h-569q-124 0 -207.5 76t-83.5 199q0 162 117.5 276.5t291.5 114.5h568zM499 515h-71q-96 0 -154 -64.5t-58 -162.5q0 -67 39 -102t108 -35h71z" />
    <glyph glyph-name="oe" unicode="&#x153;" horiz-adv-x="869" 
d="M854 368q0 -90 -88 -142.5t-238 -46.5q3 -62 115 -62q62 0 129 20l21 -110q-75 -35 -174 -35q-126 0 -191 57q-78 -57 -191 -57q-98 0 -154.5 59.5t-56.5 147.5q0 128 84 212.5t217 84.5q93 0 154 -56q77 56 183 56q93 0 141.5 -37t48.5 -91zM373 279q0 94 -69 94
q-48 0 -80.5 -44t-32.5 -122q0 -93 68 -93q47 0 80.5 44.5t33.5 120.5zM709 346q0 30 -51 30q-84 0 -112 -73q163 -6 163 43z" />
    <glyph glyph-name="Racute" unicode="&#x154;" horiz-adv-x="769" 
d="M548 462q0 30 -20 49t-51 19h-168l-29 -171h168q46 0 73 33.5t27 69.5zM726 489q1 -81 -43.5 -143t-110.5 -94l140 -252h-209l-124 228h-123l-40 -228h-170l116 666h377q85 0 135.5 -50.5t51.5 -126.5zM351 714l106 136h193l-162 -136h-137z" />
    <glyph glyph-name="racute" unicode="&#x155;" horiz-adv-x="395" 
d="M430 492l-44 -155q-11 3 -23 3q-120 0 -166 -289l-8 -51h-163l85 487h157l-16 -86q50 95 150 95q10 0 28 -4zM200 535l106 136h193l-162 -136h-137z" />
    <glyph glyph-name="uni0156" unicode="&#x156;" horiz-adv-x="769" 
d="M548 462q0 30 -20 49t-51 19h-168l-29 -171h168q46 0 73 33.5t27 69.5zM726 489q1 -81 -43.5 -143t-110.5 -94l140 -252h-209l-124 228h-123l-40 -228h-170l116 666h377q85 0 135.5 -50.5t51.5 -126.5zM263 -68h157l-23 -132l-95 -113h-75l77 113h-64z" />
    <glyph glyph-name="uni0157" unicode="&#x157;" horiz-adv-x="395" 
d="M430 492l-44 -155q-11 3 -23 3q-120 0 -166 -289l-8 -51h-163l85 487h157l-16 -86q50 95 150 95q10 0 28 -4zM18 -68h157l-23 -132l-95 -113h-75l77 113h-64z" />
    <glyph glyph-name="Rcaron" unicode="&#x158;" horiz-adv-x="769" 
d="M548 462q0 30 -20 49t-51 19h-168l-29 -171h168q46 0 73 33.5t27 69.5zM726 489q1 -81 -43.5 -143t-110.5 -94l140 -252h-209l-124 228h-123l-40 -228h-170l116 666h377q85 0 135.5 -50.5t51.5 -126.5zM276 850h130l29 -49l47 49h138l-138 -136h-116z" />
    <glyph glyph-name="rcaron" unicode="&#x159;" horiz-adv-x="395" 
d="M430 492l-44 -155q-11 3 -23 3q-120 0 -166 -289l-8 -51h-163l85 487h157l-16 -86q50 95 150 95q10 0 28 -4zM134 671h130l29 -49l47 49h138l-138 -136h-116z" />
    <glyph glyph-name="Sacute" unicode="&#x15a;" horiz-adv-x="631" 
d="M639 642l-31 -139q-102 27 -216 27q-33 0 -57 -2.5t-36.5 -6.5t-19.5 -10t-8.5 -10.5t-1.5 -11.5q0 -26 28 -42.5t129 -55.5q59 -23 95.5 -45t53 -45t21 -41.5t4.5 -46.5q0 -110 -73.5 -167t-249.5 -57q-134 0 -252 58l42 128q116 -42 233 -42q125 0 125 55
q0 20 -24.5 35t-121.5 55q-98 40 -141.5 82t-43.5 110q0 107 68 156.5t238 49.5q109 0 239 -34zM309 714l106 136h193l-162 -136h-137z" />
    <glyph glyph-name="sacute" unicode="&#x15b;" horiz-adv-x="469" 
d="M451 470l-26 -113q-70 19 -154 19q-59 0 -59 -25q0 -11 12 -19t68 -34q84 -39 108.5 -65.5t24.5 -76.5q0 -79 -55 -121.5t-191 -42.5q-90 0 -175 39l32 106q79 -27 161 -27q42 0 55 7t13 22q0 10 -9 18.5t-41 25.5q-50 27 -72 40t-46 33t-32 40.5t-8 48.5q0 86 54 118.5
t175 32.5q87 0 165 -26zM190 535l106 136h193l-162 -136h-137z" />
    <glyph glyph-name="Scircumflex" unicode="&#x15c;" horiz-adv-x="631" 
d="M639 642l-31 -139q-102 27 -216 27q-33 0 -57 -2.5t-36.5 -6.5t-19.5 -10t-8.5 -10.5t-1.5 -11.5q0 -26 28 -42.5t129 -55.5q59 -23 95.5 -45t53 -45t21 -41.5t4.5 -46.5q0 -110 -73.5 -167t-249.5 -57q-134 0 -252 58l42 128q116 -42 233 -42q125 0 125 55
q0 20 -24.5 35t-121.5 55q-98 40 -141.5 82t-43.5 110q0 107 68 156.5t238 49.5q109 0 239 -34zM224 714l138 136h116l90 -136h-130l-29 49l-47 -49h-138z" />
    <glyph glyph-name="scircumflex" unicode="&#x15d;" horiz-adv-x="469" 
d="M451 470l-26 -113q-70 19 -154 19q-59 0 -59 -25q0 -11 12 -19t68 -34q84 -39 108.5 -65.5t24.5 -76.5q0 -79 -55 -121.5t-191 -42.5q-90 0 -175 39l32 106q79 -27 161 -27q42 0 55 7t13 22q0 10 -9 18.5t-41 25.5q-50 27 -72 40t-46 33t-32 40.5t-8 48.5q0 86 54 118.5
t175 32.5q87 0 165 -26zM109 535l138 136h116l90 -136h-130l-29 49l-47 -49h-138z" />
    <glyph glyph-name="uni015E" unicode="&#x15e;" horiz-adv-x="631" 
d="M273 -181q-57 0 -92 14l16 51q25 -5 45 -5q35 0 35 21q0 15 -27 15q-16 0 -42 -2l39 77q-120 7 -222 57l42 128q116 -42 233 -42q125 0 125 55q0 20 -24.5 35t-121.5 55q-98 40 -141.5 82t-43.5 110q0 107 68 156.5t238 49.5q109 0 239 -34l-31 -139q-102 27 -216 27
q-33 0 -57 -2.5t-36.5 -6.5t-19.5 -10t-8.5 -10.5t-1.5 -11.5q0 -26 28 -42.5t129 -55.5q59 -23 95.5 -45t53 -45t21 -41.5t4.5 -46.5q0 -105 -67 -162t-229 -62l-11 -26q9 3 24 3q31 0 48.5 -16.5t17.5 -47.5q0 -37 -31.5 -60t-78.5 -23z" />
    <glyph glyph-name="uni015F" unicode="&#x15f;" horiz-adv-x="469" 
d="M186 -181q-57 0 -92 14l16 51q25 -5 45 -5q35 0 35 21q0 15 -27 15q-16 0 -42 -2l40 80q-87 5 -157 38l32 106q79 -27 161 -27q42 0 55 7t13 22q0 10 -9 18.5t-41 25.5q-50 27 -72 40t-46 33t-32 40.5t-8 48.5q0 86 54 118.5t175 32.5q87 0 165 -26l-26 -113
q-70 19 -154 19q-59 0 -59 -25q0 -11 12 -19t68 -34q84 -39 108.5 -65.5t24.5 -76.5q0 -73 -46.5 -115t-159.5 -48l-13 -30q9 3 24 3q31 0 48.5 -16.5t17.5 -47.5q0 -37 -31.5 -60t-78.5 -23z" />
    <glyph glyph-name="Scaron" unicode="&#x160;" horiz-adv-x="631" 
d="M639 642l-31 -139q-102 27 -216 27q-33 0 -57 -2.5t-36.5 -6.5t-19.5 -10t-8.5 -10.5t-1.5 -11.5q0 -26 28 -42.5t129 -55.5q59 -23 95.5 -45t53 -45t21 -41.5t4.5 -46.5q0 -110 -73.5 -167t-249.5 -57q-134 0 -252 58l42 128q116 -42 233 -42q125 0 125 55
q0 20 -24.5 35t-121.5 55q-98 40 -141.5 82t-43.5 110q0 107 68 156.5t238 49.5q109 0 239 -34zM243 850h130l29 -49l47 49h138l-138 -136h-116z" />
    <glyph glyph-name="scaron" unicode="&#x161;" horiz-adv-x="469" 
d="M451 470l-26 -113q-70 19 -154 19q-59 0 -59 -25q0 -11 12 -19t68 -34q84 -39 108.5 -65.5t24.5 -76.5q0 -79 -55 -121.5t-191 -42.5q-90 0 -175 39l32 106q79 -27 161 -27q42 0 55 7t13 22q0 10 -9 18.5t-41 25.5q-50 27 -72 40t-46 33t-32 40.5t-8 48.5q0 86 54 118.5
t175 32.5q87 0 165 -26zM129 671h130l29 -49l47 49h138l-138 -136h-116z" />
    <glyph glyph-name="Tcommaaccent" unicode="&#x162;" horiz-adv-x="621" 
d="M691 666l-27 -149h-215l-92 -517h-170l91 517h-216l26 149h603zM181 -68h157l-23 -132l-95 -113h-75l77 113h-64z" />
    <glyph glyph-name="tcommaaccent" unicode="&#x163;" horiz-adv-x="363" 
d="M358 487l-18 -101h-81l-37 -204q-7 -34 -2 -50t27 -16q17 0 41 7l24 -107q-50 -24 -105 -24q-89 0 -127 47t-26 116l41 231h-59l18 101h60l24 136h162l-24 -136h82zM78 -68h157l-23 -132l-95 -113h-75l77 113h-64z" />
    <glyph glyph-name="Tcaron" unicode="&#x164;" horiz-adv-x="621" 
d="M691 666l-27 -149h-215l-92 -517h-170l91 517h-216l26 149h603zM248 850h130l29 -49l47 49h138l-138 -136h-116z" />
    <glyph glyph-name="tcaron" unicode="&#x165;" horiz-adv-x="455" 
d="M358 487l-18 -101h-81l-37 -204q-7 -34 -2 -50t27 -16q17 0 41 7l24 -107q-50 -24 -105 -24q-89 0 -127 47t-26 116l41 231h-59l18 101h60l24 136h162l-24 -136h82zM517 616l-81 -98h-76l66 98h-64l23 133h155z" />
    <glyph glyph-name="Tbar" unicode="&#x166;" horiz-adv-x="621" 
d="M523 226h-126l-40 -226h-170l40 226h-127l23 134h127l28 157h-216l26 149h603l-27 -149h-215l-28 -157h126z" />
    <glyph glyph-name="tbar" unicode="&#x167;" horiz-adv-x="363" 
d="M312 16q-50 -24 -105 -24q-89 0 -127 47t-26 116l9 52h-58l20 112h58l12 67h-59l18 101h60l24 136h162l-24 -136h82l-18 -101h-81l-12 -67h81l-19 -112h-82l-5 -25q-7 -34 -2 -50t27 -16q17 0 41 7z" />
    <glyph glyph-name="Utilde" unicode="&#x168;" horiz-adv-x="759" 
d="M764 666l-66 -378q-23 -136 -112 -217.5t-249 -81.5q-122 0 -191.5 71.5t-69.5 174.5q0 29 4 53l67 378h171l-68 -377q-2 -11 -2 -31q0 -117 115 -117q66 0 109 39.5t55 108.5l67 377h170zM286 734q7 61 36.5 96.5t79.5 35.5q42 0 89 -20q42 -18 55 -18q11 0 18 9t15 31
l90 -26q-16 -64 -42 -95.5t-74 -31.5q-34 0 -77 15q-57 19 -65 19q-23 0 -33 -37z" />
    <glyph glyph-name="utilde" unicode="&#x169;" horiz-adv-x="586" 
d="M560 487l-85 -487h-157l17 86q-25 -39 -67 -66.5t-89 -27.5q-138 0 -138 153q0 27 6 59l49 283h163l-45 -260q-3 -16 -3 -42q0 -51 41 -51q28 0 49.5 21.5t45.5 91t43 189.5l8 51h162zM152 555q7 61 36.5 96.5t79.5 35.5q42 0 89 -20q42 -18 55 -18q11 0 18 9t15 31
l90 -26q-16 -64 -42 -95.5t-74 -31.5q-34 0 -77 15q-57 19 -65 19q-23 0 -33 -37z" />
    <glyph glyph-name="Umacron" unicode="&#x16a;" horiz-adv-x="759" 
d="M764 666l-66 -378q-23 -136 -112 -217.5t-249 -81.5q-122 0 -191.5 71.5t-69.5 174.5q0 29 4 53l67 378h171l-68 -377q-2 -11 -2 -31q0 -117 115 -117q66 0 109 39.5t55 108.5l67 377h170zM306 725l19 107h312l-19 -107h-312z" />
    <glyph glyph-name="umacron" unicode="&#x16b;" horiz-adv-x="586" 
d="M560 487l-85 -487h-157l17 86q-25 -39 -67 -66.5t-89 -27.5q-138 0 -138 153q0 27 6 59l49 283h163l-45 -260q-3 -16 -3 -42q0 -51 41 -51q28 0 49.5 21.5t45.5 91t43 189.5l8 51h162zM185 546l19 107h312l-19 -107h-312z" />
    <glyph glyph-name="Ubreve" unicode="&#x16c;" horiz-adv-x="759" 
d="M764 666l-66 -378q-23 -136 -112 -217.5t-249 -81.5q-122 0 -191.5 71.5t-69.5 174.5q0 29 4 53l67 378h171l-68 -377q-2 -11 -2 -31q0 -117 115 -117q66 0 109 39.5t55 108.5l67 377h170zM329 843h99q-9 -52 40 -52t58 52h101q-11 -66 -55 -97.5t-111 -31.5
q-66 0 -104 36t-28 93z" />
    <glyph glyph-name="ubreve" unicode="&#x16d;" horiz-adv-x="586" 
d="M560 487l-85 -487h-157l17 86q-25 -39 -67 -66.5t-89 -27.5q-138 0 -138 153q0 27 6 59l49 283h163l-45 -260q-3 -16 -3 -42q0 -51 41 -51q28 0 49.5 21.5t45.5 91t43 189.5l8 51h162zM207 664h99q-9 -52 40 -52t58 52h101q-11 -66 -55 -97.5t-111 -31.5q-66 0 -104 36
t-28 93z" />
    <glyph glyph-name="Uring" unicode="&#x16e;" horiz-adv-x="759" 
d="M764 666l-66 -378q-23 -136 -112 -217.5t-249 -81.5q-122 0 -191.5 71.5t-69.5 174.5q0 29 4 53l67 378h171l-68 -377q-2 -11 -2 -31q0 -117 115 -117q66 0 109 39.5t55 108.5l67 377h170zM469 714q-44 0 -68.5 22.5t-24.5 56.5q0 47 30.5 76t82.5 29q39 0 63.5 -22.5
t24.5 -56.5q0 -46 -30 -75.5t-78 -29.5zM470 764q23 0 36 14t13 34q0 15 -9 25.5t-26 10.5q-23 0 -36 -14.5t-13 -35.5q0 -15 9 -24.5t26 -9.5z" />
    <glyph glyph-name="uring" unicode="&#x16f;" horiz-adv-x="586" 
d="M560 487l-85 -487h-157l17 86q-25 -39 -67 -66.5t-89 -27.5q-138 0 -138 153q0 27 6 59l49 283h163l-45 -260q-3 -16 -3 -42q0 -51 41 -51q28 0 49.5 21.5t45.5 91t43 189.5l8 51h162zM342 535q-44 0 -68.5 22.5t-24.5 56.5q0 47 30.5 76t82.5 29q39 0 63.5 -22.5
t24.5 -56.5q0 -46 -30 -75.5t-78 -29.5zM343 585q23 0 36 14t13 34q0 15 -9 25.5t-26 10.5q-23 0 -36 -14.5t-13 -35.5q0 -15 9 -24.5t26 -9.5z" />
    <glyph glyph-name="Uhungarumlaut" unicode="&#x170;" horiz-adv-x="759" 
d="M764 666l-66 -378q-23 -136 -112 -217.5t-249 -81.5q-122 0 -191.5 71.5t-69.5 174.5q0 29 4 53l67 378h171l-68 -377q-2 -11 -2 -31q0 -117 115 -117q66 0 109 39.5t55 108.5l67 377h170zM500 714l115 136h180l-169 -136h-126zM257 714l115 136h179l-168 -136h-126z" />
    <glyph glyph-name="uhungarumlaut" unicode="&#x171;" horiz-adv-x="586" 
d="M560 487l-85 -487h-157l17 86q-25 -39 -67 -66.5t-89 -27.5q-138 0 -138 153q0 27 6 59l49 283h163l-45 -260q-3 -16 -3 -42q0 -51 41 -51q28 0 49.5 21.5t45.5 91t43 189.5l8 51h162zM394 535l115 136h180l-169 -136h-126zM151 535l115 136h179l-168 -136h-126z" />
    <glyph glyph-name="Uogonek" unicode="&#x172;" horiz-adv-x="759" 
d="M394 -181q-43 0 -67 20t-24 53q0 65 76 99q-26 -2 -42 -2q-122 0 -191.5 71.5t-69.5 174.5q0 29 4 53l67 378h171l-68 -377q-2 -11 -2 -31q0 -117 115 -117q66 0 109 39.5t55 108.5l67 377h170l-66 -378q-16 -93 -57.5 -155t-126.5 -109q-48 -26 -72 -50.5t-24 -54.5
q0 -26 28 -26q14 0 29 5l-4 -66q-32 -13 -77 -13z" />
    <glyph glyph-name="uogonek" unicode="&#x173;" horiz-adv-x="586" 
d="M318 0l17 86q-25 -39 -67 -66.5t-89 -27.5q-138 0 -138 153q0 27 6 59l49 283h163l-45 -260q-3 -16 -3 -42q0 -51 41 -51q28 0 49.5 21.5t45.5 91t43 189.5l8 51h162l-85 -487h-89q-55 -43 -55 -81q0 -26 28 -26q14 0 29 5l-4 -66q-32 -13 -77 -13q-43 0 -67 20t-24 53
q0 72 102 108z" />
    <glyph glyph-name="Wcircumflex" unicode="&#x174;" horiz-adv-x="854" 
d="M919 666l-271 -666h-135l-61 376l-192 -376h-134l-36 666h170l11 -347l176 347h114l54 -347l136 347h168zM335 714l138 136h116l90 -136h-130l-29 49l-47 -49h-138z" />
    <glyph glyph-name="wcircumflex" unicode="&#x175;" horiz-adv-x="720" 
d="M759 487l-218 -487h-158l-19 299l-129 -299h-158l-41 487h150l7 -313l133 313h141l20 -315l122 315h150zM221 535l138 136h116l90 -136h-130l-29 49l-47 -49h-138z" />
    <glyph glyph-name="Ycircumflex" unicode="&#x176;" horiz-adv-x="596" 
d="M686 666l-287 -406l-45 -260h-171l46 260l-144 406h170l86 -256l177 256h168zM216 714l138 136h116l90 -136h-130l-29 49l-47 -49h-138z" />
    <glyph glyph-name="ycircumflex" unicode="&#x177;" horiz-adv-x="489" 
d="M533 487l-344 -647h-158l85 160l-90 487h157l45 -312l149 312h156zM117 535l138 136h116l90 -136h-130l-29 49l-47 -49h-138z" />
    <glyph glyph-name="Ydieresis" unicode="&#x178;" horiz-adv-x="596" 
d="M686 666l-287 -406l-45 -260h-171l46 260l-144 406h170l86 -256l177 256h168zM424 714l24 135h139l-24 -135h-139zM205 714l24 135h139l-24 -135h-139z" />
    <glyph glyph-name="Zacute" unicode="&#x179;" horiz-adv-x="642" 
d="M672 666l-28 -152l-402 -367h355l-27 -147h-560l28 155l405 364h-333l26 147h536zM321 714l106 136h193l-162 -136h-137z" />
    <glyph glyph-name="zacute" unicode="&#x17a;" horiz-adv-x="514" 
d="M519 487l-20 -116l-287 -253h245l-22 -118h-434l21 117l278 253h-210l20 117h409zM236 535l106 136h193l-162 -136h-137z" />
    <glyph glyph-name="Zdotaccent" unicode="&#x17b;" horiz-adv-x="642" 
d="M672 666l-28 -152l-402 -367h355l-27 -147h-560l28 155l405 364h-333l26 147h536zM322 719l23 129h165l-23 -129h-165z" />
    <glyph glyph-name="zdotaccent" unicode="&#x17c;" horiz-adv-x="514" 
d="M519 487l-20 -116l-287 -253h245l-22 -118h-434l21 117l278 253h-210l20 117h409zM237 540l23 129h165l-23 -129h-165z" />
    <glyph glyph-name="Zcaron" unicode="&#x17d;" horiz-adv-x="642" 
d="M672 666l-28 -152l-402 -367h355l-27 -147h-560l28 155l405 364h-333l26 147h536zM261 850h130l29 -49l47 49h138l-138 -136h-116z" />
    <glyph glyph-name="zcaron" unicode="&#x17e;" horiz-adv-x="514" 
d="M519 487l-20 -116l-287 -253h245l-22 -118h-434l21 117l278 253h-210l20 117h409zM169 671h130l29 -49l47 49h138l-138 -136h-116z" />
    <glyph glyph-name="uni0192" unicode="&#x192;" horiz-adv-x="489" 
d="M514 676l-37 -115q-31 6 -52 6q-58 0 -68 -63l-5 -31h82l-18 -103h-82l-60 -344q-34 -195 -208 -195q-55 0 -96 17l37 105q17 -6 35 -6q56 0 67 63l62 360h-60l18 103h61l4 24q32 194 210 194q62 0 110 -15z" />
    <glyph glyph-name="Aringacute" unicode="&#x1fa;" 
d="M414 666q23 0 36 14t13 34q0 15 -9 25.5t-26 10.5q-23 0 -36 -14.5t-13 -35.5q0 -15 9 -24.5t26 -9.5zM415 253l-29 233l-110 -233h139zM215 125l-69 -125h-174l358 656q-10 18 -10 39q0 47 30.5 76t82.5 29q39 0 63.5 -22.5t24.5 -56.5q0 -39 -23 -67l126 -654h-170
l-21 125h-218zM384 824l68 89h186l-117 -89h-137z" />
    <glyph glyph-name="aringacute" unicode="&#x1fb;" horiz-adv-x="568" 
d="M316 745l68 89h186l-117 -89h-137zM350 532q-44 0 -68.5 22.5t-24.5 56.5q0 47 30.5 76t82.5 29q39 0 63.5 -22.5t24.5 -56.5q0 -46 -30 -75.5t-78 -29.5zM351 582q23 0 36 14t13 34q0 15 -9 25.5t-26 10.5q-23 0 -36 -14.5t-13 -35.5q0 -15 9 -24.5t26 -9.5zM550 487
l-86 -487h-163l17 88q-24 -41 -66 -68.5t-85 -27.5q-41 0 -70.5 15.5t-45.5 42.5t-23 56.5t-7 63.5q0 75 30 148.5t91.5 125.5t139.5 52q29 0 57 -12.5t42 -30.5l5 34h164zM364 365q-25 10 -52 10q-62 0 -94 -61.5t-32 -135.5q0 -62 36 -62q48 0 90 73t51 166z" />
    <glyph glyph-name="AEacute" unicode="&#x1fc;" horiz-adv-x="929" 
d="M394 253l-5 248l-120 -248h125zM951 666l-27 -146h-378l5 -104h320l-25 -146h-285l8 -124h290l-26 -146h-432l-2 123h-191l-69 -123h-167l362 666h617zM388 714l106 136h193l-162 -136h-137z" />
    <glyph glyph-name="aeacute" unicode="&#x1fd;" horiz-adv-x="815" 
d="M800 369q0 -93 -86.5 -145.5t-238.5 -44.5q3 -62 114 -62q62 0 129 20l21 -110q-75 -35 -174 -35q-119 0 -183 50q-68 -50 -174 -50q-91 0 -144.5 39t-53.5 94q0 70 44.5 114t139.5 44h133l5 31q5 34 -12.5 45t-77.5 11q-86 0 -144 -6l2 116q91 16 182 16q117 0 173 -37
q68 37 155 37q94 0 142 -36t48 -91zM656 346q0 30 -52 30q-84 0 -112 -73q164 -6 164 43zM310 184h-70q-64 0 -64 -44q0 -19 13.5 -28.5t34.5 -9.5q73 0 85 76zM384 535l106 136h193l-162 -136h-137z" />
    <glyph glyph-name="Oslashacute" unicode="&#x1fe;" horiz-adv-x="848" 
d="M842 636l-96 -81q47 -71 47 -163q0 -175 -116.5 -289t-294.5 -114q-125 0 -207 81l-96 -81l-33 40l96 81q-48 72 -48 164q0 171 112.5 286.5t297.5 115.5q126 0 209 -82l96 82zM586 486q-39 39 -109 39q-95 0 -153.5 -70.5t-58.5 -167.5q0 -34 10 -63zM623 378
q0 33 -10 62l-311 -261q39 -39 108 -39q89 0 151 71.5t62 166.5zM422 714l106 136h193l-162 -136h-137z" />
    <glyph glyph-name="oslashacute" unicode="&#x1ff;" horiz-adv-x="643" 
d="M623 466l-71 -58q36 -54 36 -121q0 -125 -83 -210t-224 -85q-98 0 -159 60l-72 -60l-24 30l72 58q-37 56 -37 121q0 127 80.5 211t227.5 84q98 0 160 -61l72 61zM425 281v19l-187 -150q21 -35 64 -35q60 0 91.5 52t31.5 114zM411 338q-20 34 -64 34q-59 0 -91 -52.5
t-32 -114.5v-19zM296 535l106 136h193l-162 -136h-137z" />
    <glyph glyph-name="uni0218" unicode="&#x218;" horiz-adv-x="631" 
d="M639 642l-31 -139q-102 27 -216 27q-33 0 -57 -2.5t-36.5 -6.5t-19.5 -10t-8.5 -10.5t-1.5 -11.5q0 -26 28 -42.5t129 -55.5q59 -23 95.5 -45t53 -45t21 -41.5t4.5 -46.5q0 -110 -73.5 -167t-249.5 -57q-134 0 -252 58l42 128q116 -42 233 -42q125 0 125 55
q0 20 -24.5 35t-121.5 55q-98 40 -141.5 82t-43.5 110q0 107 68 156.5t238 49.5q109 0 239 -34zM203 -68h157l-23 -132l-95 -113h-75l77 113h-64z" />
    <glyph glyph-name="uni0219" unicode="&#x219;" horiz-adv-x="469" 
d="M451 470l-26 -113q-70 19 -154 19q-59 0 -59 -25q0 -11 12 -19t68 -34q84 -39 108.5 -65.5t24.5 -76.5q0 -79 -55 -121.5t-191 -42.5q-90 0 -175 39l32 106q79 -27 161 -27q42 0 55 7t13 22q0 10 -9 18.5t-41 25.5q-50 27 -72 40t-46 33t-32 40.5t-8 48.5q0 86 54 118.5
t175 32.5q87 0 165 -26zM120 -68h157l-23 -132l-95 -113h-75l77 113h-64z" />
    <glyph glyph-name="circumflex" unicode="&#x2c6;" horiz-adv-x="454" 
d="M113 535l138 136h116l90 -136h-130l-29 49l-47 -49h-138z" />
    <glyph glyph-name="caron" unicode="&#x2c7;" horiz-adv-x="454" 
d="M133 671h130l29 -49l47 49h138l-138 -136h-116z" />
    <glyph glyph-name="breve" unicode="&#x2d8;" horiz-adv-x="408" 
d="M143 664h99q-9 -52 40 -52t58 52h101q-11 -66 -55 -97.5t-111 -31.5q-66 0 -104 36t-28 93z" />
    <glyph glyph-name="dotaccent" unicode="&#x2d9;" horiz-adv-x="275" 
d="M113 540l23 129h165l-23 -129h-165z" />
    <glyph glyph-name="ring" unicode="&#x2da;" horiz-adv-x="309" 
d="M208 535q-44 0 -68.5 22.5t-24.5 56.5q0 47 30.5 76t82.5 29q39 0 63.5 -22.5t24.5 -56.5q0 -46 -30 -75.5t-78 -29.5zM209 585q23 0 36 14t13 34q0 15 -9 25.5t-26 10.5q-23 0 -36 -14.5t-13 -35.5q0 -15 9 -24.5t26 -9.5z" />
    <glyph glyph-name="ogonek" unicode="&#x2db;" horiz-adv-x="290" 
d="M116 0h68q-55 -43 -55 -81q0 -26 28 -26q14 0 29 5l-4 -66q-32 -13 -77 -13q-43 0 -67 20t-24 53q0 72 102 108z" />
    <glyph glyph-name="tilde" unicode="&#x2dc;" horiz-adv-x="475" 
d="M115 555q7 61 36.5 96.5t79.5 35.5q42 0 89 -20q42 -18 55 -18q11 0 18 9t15 31l90 -26q-16 -64 -42 -95.5t-74 -31.5q-34 0 -77 15q-57 19 -65 19q-23 0 -33 -37z" />
    <glyph glyph-name="hungarumlaut" unicode="&#x2dd;" horiz-adv-x="609" 
d="M350 535l115 136h180l-169 -136h-126zM107 535l115 136h179l-168 -136h-126z" />
    <glyph glyph-name="uni0312" unicode="&#x312;" horiz-adv-x="385" 
d="M120 535l162 136h137l-106 -136h-193z" />
    <glyph glyph-name="uni0315" unicode="&#x315;" horiz-adv-x="271" 
d="M166 666h161l-25 -140l-91 -119h-76l76 119h-70z" />
    <glyph glyph-name="uni0326" unicode="&#x326;" horiz-adv-x="267" 
d="M33 -68h157l-23 -132l-95 -113h-75l77 113h-64z" />
    <glyph glyph-name="uni03A9" unicode="&#x3a9;" horiz-adv-x="617" 
d="M572 246l-78 -67l-267 329l-35 -197h-92l63 355h354l-16 -92h-197z" />
    <glyph glyph-name="pi" unicode="&#x3c0;" horiz-adv-x="598" 
d="M548 355l-62 -355h-354l15 92h196l-268 328l78 68l269 -329l34 196h92z" />
    <glyph glyph-name="Wgrave" unicode="&#x1e80;" horiz-adv-x="854" 
d="M919 666l-271 -666h-135l-61 376l-192 -376h-134l-36 666h170l11 -347l176 347h114l54 -347l136 347h168zM433 714l-114 136h193l58 -136h-137z" />
    <glyph glyph-name="wgrave" unicode="&#x1e81;" horiz-adv-x="720" 
d="M759 487l-218 -487h-158l-19 299l-129 -299h-158l-41 487h150l7 -313l133 313h141l20 -315l122 315h150zM326 535l-114 136h193l58 -136h-137z" />
    <glyph glyph-name="Wacute" unicode="&#x1e82;" horiz-adv-x="854" 
d="M919 666l-271 -666h-135l-61 376l-192 -376h-134l-36 666h170l11 -347l176 347h114l54 -347l136 347h168zM446 714l106 136h193l-162 -136h-137z" />
    <glyph glyph-name="wacute" unicode="&#x1e83;" horiz-adv-x="720" 
d="M759 487l-218 -487h-158l-19 299l-129 -299h-158l-41 487h150l7 -313l133 313h141l20 -315l122 315h150zM342 535l106 136h193l-162 -136h-137z" />
    <glyph glyph-name="Wdieresis" unicode="&#x1e84;" horiz-adv-x="854" 
d="M919 666l-271 -666h-135l-61 376l-192 -376h-134l-36 666h170l11 -347l176 347h114l54 -347l136 347h168zM551 714l24 135h139l-24 -135h-139zM332 714l24 135h139l-24 -135h-139z" />
    <glyph glyph-name="wdieresis" unicode="&#x1e85;" horiz-adv-x="720" 
d="M759 487l-218 -487h-158l-19 299l-129 -299h-158l-41 487h150l7 -313l133 313h141l20 -315l122 315h150zM437 535l24 135h139l-24 -135h-139zM218 535l24 135h139l-24 -135h-139z" />
    <glyph glyph-name="Ygrave" unicode="&#x1ef2;" horiz-adv-x="596" 
d="M686 666l-287 -406l-45 -260h-171l46 260l-144 406h170l86 -256l177 256h168zM310 714l-114 136h193l58 -136h-137z" />
    <glyph glyph-name="ygrave" unicode="&#x1ef3;" horiz-adv-x="489" 
d="M533 487l-344 -647h-158l85 160l-90 487h157l45 -312l149 312h156zM211 535l-114 136h193l58 -136h-137z" />
    <glyph glyph-name="endash" unicode="&#x2013;" horiz-adv-x="575" 
d="M549 350l-22 -132h-471l22 132h471z" />
    <glyph glyph-name="emdash" unicode="&#x2014;" horiz-adv-x="799" 
d="M773 350l-23 -132h-694l22 132h695z" />
    <glyph glyph-name="quoteleft" unicode="&#x2018;" horiz-adv-x="310" 
d="M310 666l-107 -183h85l-29 -171h-174l29 172l124 182h72z" />
    <glyph glyph-name="quoteright" unicode="&#x2019;" horiz-adv-x="316" 
d="M331 666l-29 -171l-124 -183h-73l109 184h-86l29 170h174z" />
    <glyph glyph-name="quotesinglbase" unicode="&#x201a;" horiz-adv-x="313" 
d="M243 172l-29 -172l-125 -182h-73l108 183h-86l30 171h175z" />
    <glyph glyph-name="quotedblleft" unicode="&#x201c;" horiz-adv-x="567" 
d="M311 666l-107 -183h84l-29 -171h-174l29 172l124 182h73zM567 666l-108 -183h86l-30 -171h-174l30 172l124 182h72z" />
    <glyph glyph-name="quotedblright" unicode="&#x201d;" horiz-adv-x="567" 
d="M331 666l-29 -171l-124 -183h-73l107 184h-84l29 170h174zM587 666l-30 -171l-124 -183h-73l109 184h-86l29 170h175z" />
    <glyph glyph-name="quotedblbase" unicode="&#x201e;" horiz-adv-x="568" 
d="M243 172l-29 -172l-124 -182h-74l108 183h-85l30 171h174zM498 172l-29 -172l-124 -182h-73l109 183h-86l29 171h174z" />
    <glyph glyph-name="dagger" unicode="&#x2020;" horiz-adv-x="400" 
d="M445 522l-28 -152l-148 42l4 -61l7 -122l-83 -244l-41 -122h-33l1 122l4 244l75 183l-163 -42l27 152l148 -41l-11 185h153l-76 -185z" />
    <glyph glyph-name="daggerdbl" unicode="&#x2021;" horiz-adv-x="473" 
d="M488 522l-28 -152l-147 42l9 -183l-24 -51l-45 -107l162 43l-27 -154l-147 42l9 -186h-153l75 186l-162 -42l28 154l146 -43l-10 182l25 51l46 108l-163 -42l28 152l147 -41l-10 185h153l-75 -185z" />
    <glyph glyph-name="bullet" unicode="&#x2022;" horiz-adv-x="290" 
d="M280 356q0 -45 -32 -76.5t-76 -31.5t-75.5 31.5t-31.5 76.5t31.5 77t75.5 32t76 -32t32 -77z" />
    <glyph glyph-name="ellipsis" unicode="&#x2026;" horiz-adv-x="960" 
d="M884 172l-31 -172h-175l31 172h175zM241 172l-31 -172h-174l31 172h174zM562 172l-31 -172h-174l31 172h174z" />
    <glyph glyph-name="perthousand" unicode="&#x2030;" horiz-adv-x="1283" 
d="M871 173q0 -79 -44.5 -131.5t-119.5 -52.5t-120.5 52.5t-45.5 131.5t45.5 129.5t120.5 50.5t119.5 -50.5t44.5 -129.5zM1262 173q0 -79 -45 -131.5t-120 -52.5t-119.5 52.5t-44.5 131.5t44.5 129.5t119.5 50.5t120 -50.5t45 -129.5zM396 495q0 -79 -45 -130.5t-120 -51.5
t-120 51.5t-45 130.5t45 130t120 51t120 -51t45 -130zM711 666l-372 -666h-113l373 666h112zM1155 173q0 88 -58 88q-56 0 -56 -88q0 -92 56 -92q30 0 44 27t14 65zM763 173q0 88 -56 88q-58 0 -58 -88q0 -38 14 -65t44 -27q56 0 56 92zM288 495q0 88 -57 88t-57 -88
q0 -91 57 -91t57 91z" />
    <glyph glyph-name="guilsinglleft" unicode="&#x2039;" horiz-adv-x="396" 
d="M366 424l-201 -180l137 -181l-79 -63l-183 243l269 244z" />
    <glyph glyph-name="guilsinglright" unicode="&#x203a;" horiz-adv-x="396" 
d="M371 243l-270 -243l-56 63l200 181l-137 180l79 63z" />
    <glyph glyph-name="fraction" unicode="&#x2044;" horiz-adv-x="454" 
d="M549 666l-510 -666h-64l511 666h63z" />
    <glyph glyph-name="Euro" unicode="&#x20ac;" horiz-adv-x="715" 
d="M735 647l-43 -142q-76 20 -148 20q-83 0 -146 -29t-94 -84h148l-11 -59h-158q-5 -27 -5 -50v-6h155l-11 -59h-133q35 -97 183 -97q83 0 154 23l21 -135q-41 -19 -100 -29.5t-107 -10.5q-141 0 -229 70t-102 179h-94l11 59h81q2 29 6 56h-79l11 59h82q40 126 151 195
t266 69q106 0 191 -29z" />
    <glyph glyph-name="trademark" unicode="&#x2122;" horiz-adv-x="714" 
d="M734 362h-73v169l-69 -109h-40l-71 109v-169h-73v304h71l93 -148l92 148h70v-304zM347 599h-97v-237h-77v237h-98v67h272v-67z" />
    <glyph glyph-name="partialdiff" unicode="&#x2202;" horiz-adv-x="563" 
d="M568 424l-65 -65l-140 140v-463h-94v463l-138 -141l-66 66l251 252z" />
    <glyph glyph-name="Delta" unicode="&#x2206;" horiz-adv-x="563" 
d="M553 241l-252 -252l-251 252l65 66l139 -141v463h94v-463l138 141z" />
    <glyph glyph-name="product" unicode="&#x220f;" horiz-adv-x="608" 
d="M603 420l-383 -328h195l-16 -92h-354l61 355h93l-34 -196l383 329z" />
    <glyph glyph-name="summation" unicode="&#x2211;" horiz-adv-x="608" 
d="M603 420l-383 -328h195l-16 -92h-354l61 355h93l-34 -196l383 329z" />
    <glyph glyph-name="minus" unicode="&#x2212;" horiz-adv-x="364" 
d="M338 218h-282v132h282v-132z" />
    <glyph glyph-name="radical" unicode="&#x221a;" horiz-adv-x="740" 
d="M715 363l-16 -95h-461l114 -138l-76 -67l-206 253l295 252l53 -65l-163 -140h460z" />
    <glyph glyph-name="infinity" unicode="&#x221e;" horiz-adv-x="740" 
d="M715 363l-15 -95h-462l115 -138l-76 -67l-207 253l295 252l54 -65l-164 -140h460z" />
    <glyph glyph-name="integral" unicode="&#x222b;" horiz-adv-x="598" 
d="M548 355l-62 -355h-354l15 92h196l-268 328l78 68l269 -329l34 196h92z" />
    <glyph glyph-name="approxequal" unicode="&#x2248;" horiz-adv-x="617" 
d="M622 666l-62 -355h-92l33 197l-382 -329l-54 67l383 328h-197l16 92h355z" />
    <glyph glyph-name="notequal" unicode="&#x2260;" horiz-adv-x="882" 
d="M832 333h-333v-333h-334v666h667v-333z" />
    <glyph glyph-name="lessequal" unicode="&#x2264;" horiz-adv-x="740" 
d="M715 363l-16 -95h-461l114 -138l-76 -67l-206 253l295 252l53 -65l-163 -140h460z" />
    <glyph glyph-name="greaterequal" unicode="&#x2265;" horiz-adv-x="740" 
d="M715 316l-295 -253l-54 67l164 138h-460l15 95h462l-114 140l75 65z" />
    <glyph glyph-name="lozenge" unicode="&#x25ca;" horiz-adv-x="740" 
d="M715 316l-295 -253l-54 67l164 138h-460l15 95h462l-114 140l75 65z" />
    <glyph glyph-name="apple" horiz-adv-x="882" 
d="M832 333h-333v-333h-334v666h667v-333z" />
    <glyph glyph-name="nbspace" horiz-adv-x="220" 
 />
    <glyph glyph-name="i.dot" horiz-adv-x="294" 
d="M279 487l-86 -487h-163l86 487h163zM122 540l23 129h165l-23 -129h-165z" />
    </font>
</defs>
</svg>
