<?xml version="1.0" standalone="no"?>
<!DOCTYPE svg PUBLIC "-//W3C//DTD SVG 1.1//EN" "http://www.w3.org/Graphics/SVG/1.1/DTD/svg11.dtd" >
<svg>
<metadata>
Created by FontForge 20120731 at Fri Aug 19 20:56:52 2016
 By ,,,
(c) 2015 Process Type Foundry. All Rights Reserved.
</metadata>
<defs>
<font id="Locator-Bold" horiz-adv-x="760" >
  <font-face 
    font-family="Locator"
    font-weight="700"
    font-stretch="normal"
    units-per-em="1000"
    panose-1="2 0 8 0 4 0 0 2 0 4"
    ascent="750"
    descent="-250"
    x-height="487"
    cap-height="666"
    bbox="-57 -297 1219 915"
    underline-thickness="20"
    underline-position="-103"
    unicode-range="U+0020-FB02"
  />
<missing-glyph horiz-adv-x="646" 
d="M90 0v666h466v-666h-466zM507 616h-340l340 -527v527zM139 576v-527h339z" />
    <glyph glyph-name="fi" unicode="fi" horiz-adv-x="661" 
d="M368 676l-16 -101q-26 5 -56 5q-59 0 -59 -69v-34h88v-94h-88v-383h-144v383h-63v94h63v29q0 89 42 137t126 48q55 0 107 -15zM591 0h-143v487h143v-487zM591 568h-143v123h143v-123z" />
    <glyph glyph-name="fl" unicode="fl" horiz-adv-x="710" 
d="M368 676l-16 -101q-26 5 -56 5q-59 0 -59 -69v-34h88v-94h-88v-383h-144v383h-63v94h63v29q0 89 42 137t126 48q55 0 107 -15zM670 -4q-38 -5 -72 -5q-75 0 -121.5 42t-46.5 125v508h143v-489q0 -41 10.5 -56.5t42.5 -15.5t44 2v-111z" />
    <glyph glyph-name=".notdef" horiz-adv-x="646" 
d="M90 0v666h466v-666h-466zM507 616h-340l340 -527v527zM139 576v-527h339z" />
    <glyph glyph-name=".null" horiz-adv-x="0" 
 />
    <glyph glyph-name="nonmarkingreturn" horiz-adv-x="333" 
 />
    <glyph glyph-name="space" unicode=" " horiz-adv-x="225" 
 />
    <glyph glyph-name="exclam" unicode="!" horiz-adv-x="337" 
d="M243 506l-40 -281h-68l-41 281v160h149v-160zM247 0h-157v156h157v-156z" />
    <glyph glyph-name="quotedbl" unicode="&#x22;" horiz-adv-x="468" 
d="M388 369h-102v297h102v-297zM182 369h-102v297h102v-297z" />
    <glyph glyph-name="numbersign" unicode="#" horiz-adv-x="732" 
d="M697 481l-20 -86h-127l-28 -123h127l-20 -87h-127l-43 -185h-94l43 185h-147l-43 -185h-94l43 185h-127l20 87h127l28 123h-127l20 86h127l43 185h94l-43 -185h147l43 185h94l-43 -185h127zM456 395h-147l-28 -123h147z" />
    <glyph glyph-name="dollar" unicode="$" horiz-adv-x="633" 
d="M585 191q0 -78 -60 -132t-169 -63v-95h-97v96q-95 10 -204 53l28 114q135 -45 233 -45q64 0 93 16t29 52q0 29 -23.5 43t-122.5 51q-115 43 -163 87.5t-48 119.5q0 162 205 180v97h97v-96q104 -5 184 -32l-20 -120q-96 26 -204 26q-68 0 -91 -11t-23 -40t28 -46t134 -58
q109 -43 151.5 -83t42.5 -114z" />
    <glyph glyph-name="percent" unicode="%" horiz-adv-x="884" 
d="M829 170q0 -77 -44.5 -129t-118.5 -52t-119 52t-45 129t45 128t119 51t118.5 -51t44.5 -128zM367 497q0 -77 -44.5 -129t-118.5 -52t-119 52t-45 129t45 128t119 51t118.5 -51t44.5 -128zM670 666l-369 -666h-101l369 666h101zM270 497q0 41 -16 68.5t-50 27.5t-50.5 -28
t-16.5 -68q0 -41 16.5 -69.5t50.5 -28.5t50 28.5t16 69.5zM732 170q0 41 -16 68.5t-50 27.5t-50.5 -28t-16.5 -68q0 -41 16.5 -69.5t50.5 -28.5t50 28.5t16 69.5z" />
    <glyph glyph-name="ampersand" unicode="&#x26;" horiz-adv-x="722" 
d="M687 0h-167l-45 52q-84 -63 -186 -63q-105 0 -172 60t-67 149q0 119 137 185q-34 49 -48.5 79.5t-14.5 66.5q0 69 46 108t136 39q79 0 126 -39.5t47 -97.5q0 -108 -125 -177q35 -37 124 -134q39 64 58 156l106 -27q-24 -126 -84 -216q69 -76 129 -141zM397 140
q-31 36 -82.5 95t-60.5 69q-60 -36 -60 -104q0 -42 26 -67t74 -25q55 0 103 32zM367 527q0 24 -15 39t-44 15q-59 0 -59 -55q0 -48 53 -97q65 36 65 98z" />
    <glyph glyph-name="quotesingle" unicode="'" horiz-adv-x="262" 
d="M182 368h-102v298h102v-298z" />
    <glyph glyph-name="parenleft" unicode="(" horiz-adv-x="365" 
d="M325 -106l-89 -48q-156 193 -156 458q0 261 150 458l95 -48q-55 -111 -77.5 -203.5t-22.5 -206.5t22.5 -206.5t77.5 -203.5z" />
    <glyph glyph-name="parenright" unicode=")" horiz-adv-x="365" 
d="M285 304q0 -265 -156 -458l-89 48q55 111 77.5 203.5t22.5 206.5t-22.5 206.5t-77.5 203.5l95 48q150 -197 150 -458z" />
    <glyph glyph-name="asterisk" unicode="*" horiz-adv-x="487" 
d="M442 408l-50 -85l-112 79l13 -137h-99l13 137l-113 -79l-49 85l125 58l-125 57l49 86l113 -80l-13 137h99l-13 -137l112 80l50 -86l-125 -57z" />
    <glyph glyph-name="plus" unicode="+" horiz-adv-x="586" 
d="M531 187h-185v-187h-105v187h-186v102h186v188h105v-188h185v-102z" />
    <glyph glyph-name="comma" unicode="," horiz-adv-x="297" 
d="M222 0l-82 -167h-66l67 167h-76v156h157v-156z" />
    <glyph glyph-name="hyphen" unicode="-" horiz-adv-x="386" 
d="M331 223h-276v117h276v-117z" />
    <glyph glyph-name="period" unicode="." horiz-adv-x="306" 
d="M231 0h-156v156h156v-156z" />
    <glyph glyph-name="slash" unicode="/" horiz-adv-x="512" 
d="M462 676l-289 -793h-123l289 793h123z" />
    <glyph glyph-name="zero" unicode="0" horiz-adv-x="655" 
d="M602 328q0 -145 -72 -242t-202 -97t-202.5 97t-72.5 242t72.5 241.5t202.5 96.5t202 -96.5t72 -241.5zM459 328q0 91 -31 152t-100 61t-100.5 -61t-31.5 -152t31.5 -152.5t100.5 -61.5t100 61.5t31 152.5z" />
    <glyph glyph-name="one" unicode="1" horiz-adv-x="462" 
d="M357 0h-143l-1 534l-168 -30l-20 114l189 38h143v-656z" />
    <glyph glyph-name="two" unicode="2" horiz-adv-x="637" 
d="M567 0h-502v38q0 105 41 153t174 130q19 12 29 18q64 40 87.5 64t23.5 57q0 41 -33 61t-107 20q-76 0 -184 -25l-24 116q109 34 225 34q129 0 198 -53.5t69 -146.5q0 -66 -38.5 -113t-124.5 -103q-18 -12 -47.5 -30.5t-45.5 -28.5t-34.5 -23.5t-27.5 -23.5t-12 -19h333
v-125z" />
    <glyph glyph-name="three" unicode="3" horiz-adv-x="582" 
d="M532 189q0 -84 -81.5 -142t-214.5 -58q-99 0 -191 34l24 111q79 -24 166 -24q72 0 111.5 22.5t39.5 64.5q0 81 -132 81h-116v115h109q112 0 112 81q0 35 -35.5 55t-101.5 20q-70 0 -144 -22l-25 108q85 31 183 31q118 0 191.5 -45t73.5 -130q0 -43 -23 -83t-67 -65
q57 -18 89 -60.5t32 -93.5z" />
    <glyph glyph-name="four" unicode="4" horiz-adv-x="650" 
d="M605 142h-95v-142h-138v142h-337v126l320 388h155v-396h95v-118zM372 260v240l-200 -240h200z" />
    <glyph glyph-name="five" unicode="5" horiz-adv-x="633" 
d="M578 210q0 -94 -73 -157.5t-208 -63.5q-124 0 -237 48l33 112q111 -37 204 -37q66 0 101.5 26.5t35.5 67.5t-30.5 65t-87.5 24q-64 0 -109 -23l-116 63l33 321h412v-125h-289l-12 -134q52 19 116 19q107 0 167 -57.5t60 -148.5z" />
    <glyph glyph-name="six" unicode="6" horiz-adv-x="622" 
d="M567 206q0 -92 -69 -154.5t-177 -62.5q-131 0 -201 79t-70 215q0 172 92 277.5t246 105.5q88 0 152 -21l-21 -117q-54 15 -111 15q-102 0 -149 -49.5t-59 -144.5q56 59 156 59q93 0 152 -57t59 -145zM423 201q0 42 -30.5 66.5t-79.5 24.5q-51 0 -82 -26.5t-31 -66.5
q0 -43 32.5 -66t77.5 -23q52 0 82.5 27t30.5 64z" />
    <glyph glyph-name="seven" unicode="7" horiz-adv-x="541" 
d="M516 531l-261 -531h-145l260 531h-335v125h481v-125z" />
    <glyph glyph-name="eight" unicode="8" horiz-adv-x="611" 
d="M566 195q0 -88 -71 -147t-189 -59t-189.5 59t-71.5 147q0 51 28.5 93.5t81.5 68.5q-74 53 -74 134t62 128t163 47t162.5 -47t61.5 -128t-74 -134q53 -26 81.5 -68.5t28.5 -93.5zM424 195q0 35 -30.5 62.5t-87.5 27.5t-88 -27.5t-31 -62.5q0 -39 33 -64t86 -25t85.5 25
t32.5 64zM397 474q0 34 -23.5 56.5t-67.5 22.5t-68 -22.5t-24 -56.5q0 -38 26 -61.5t65 -23.5h1q39 0 65 23.5t26 61.5z" />
    <glyph glyph-name="nine" unicode="9" horiz-adv-x="621" 
d="M566 372q0 -172 -92 -277.5t-246 -105.5q-87 0 -151 21l20 116q54 -15 111 -15q102 0 149 49.5t59 144.5q-56 -59 -156 -59q-93 0 -151.5 57t-58.5 145q0 92 69 155t177 63q131 0 200.5 -79t69.5 -215zM416 455q0 43 -32.5 66.5t-77.5 23.5q-52 0 -82.5 -27t-30.5 -65
q0 -42 30.5 -66t80.5 -24q51 0 81.5 26t30.5 66z" />
    <glyph glyph-name="colon" unicode=":" horiz-adv-x="306" 
d="M231 321h-156v156h156v-156zM231 0h-156v156h156v-156z" />
    <glyph glyph-name="semicolon" unicode=";" horiz-adv-x="302" 
d="M227 0l-82 -167h-66l67 167h-76v156h157v-156zM227 321h-157v156h157v-156z" />
    <glyph glyph-name="less" unicode="&#x3c;" horiz-adv-x="561" 
d="M511 -11l-486 215v74l486 215v-105l-343 -147l343 -147v-105z" />
    <glyph glyph-name="equal" unicode="=" horiz-adv-x="567" 
d="M517 293h-467v107h467v-107zM517 65h-467v107h467v-107z" />
    <glyph glyph-name="greater" unicode="&#x3e;" horiz-adv-x="561" 
d="M536 204l-486 -215v105l343 147l-343 147v105l486 -215v-74z" />
    <glyph glyph-name="question" unicode="?" horiz-adv-x="581" 
d="M531 480q0 -143 -227 -272l-61 89q11 9 34 26.5t32 25t25.5 22t23 24t15 23t11.5 27t3 29.5q0 40 -32 58.5t-100 18.5q-91 0 -186 -27l-24 114q116 38 227 38q125 0 192 -51t67 -145zM362 0h-156v156h156v-156z" />
    <glyph glyph-name="at" unicode="@" horiz-adv-x="769" 
d="M739 50q-130 -61 -296 -61q-160 0 -269 97t-109 247q0 151 88.5 247t227.5 96q98 0 156 -51.5t58 -135.5v-316h-90v42q-38 -48 -96 -48q-64 0 -102 49.5t-38 118.5q0 66 38 117t102 51q62 0 103 -48v27q0 54 -33 84.5t-98 30.5q-109 0 -170 -71.5t-61 -192.5
q0 -116 79.5 -191.5t213.5 -75.5q142 0 275 50zM505 335q0 43 -19.5 69t-51.5 26q-33 0 -51.5 -27.5t-18.5 -67.5t18.5 -67t51.5 -27q32 0 51.5 25.5t19.5 68.5z" />
    <glyph glyph-name="A" unicode="A" horiz-adv-x="663" 
d="M653 0h-147l-51 137h-246l-52 -137h-147l253 666h138zM418 250l-86 266l-87 -266h173z" />
    <glyph glyph-name="B" unicode="B" horiz-adv-x="683" 
d="M648 192q0 -76 -54.5 -134t-140.5 -58h-363v666h331q94 0 149 -47t55 -126q0 -43 -25 -83t-79 -60q63 -19 95 -63.5t32 -94.5zM498 200q0 37 -23 59t-68 22h-171v-162h171q45 0 68 22t23 59zM475 473q0 75 -91 75h-148v-155h148q45 0 68 21.5t23 58.5z" />
    <glyph glyph-name="C" unicode="C" horiz-adv-x="660" 
d="M605 647l-33 -124q-71 20 -140 20q-119 0 -180.5 -57.5t-61.5 -152.5t61.5 -153t180.5 -58q69 0 140 20l30 -122q-87 -31 -191 -31q-162 0 -266.5 99.5t-104.5 244.5t104 244t267 99q113 0 194 -29z" />
    <glyph glyph-name="D" unicode="D" horiz-adv-x="703" 
d="M673 333q0 -147 -117.5 -240t-309.5 -93h-156v666h156q192 0 309.5 -93t117.5 -240zM517 333q0 101 -68.5 150.5t-174.5 49.5h-34v-400h34q106 0 174.5 49.5t68.5 150.5z" />
    <glyph glyph-name="E" unicode="E" horiz-adv-x="639" 
d="M579 0h-489v666h489v-129h-339v-129h320v-129h-320v-150h339v-129z" />
    <glyph glyph-name="F" unicode="F" horiz-adv-x="638" 
d="M603 537h-363v-129h327v-129h-327v-279h-150v666h513v-129z" />
    <glyph glyph-name="G" unicode="G" horiz-adv-x="702" 
d="M642 20q-38 -12 -107.5 -21.5t-117.5 -9.5q-172 0 -274.5 98t-102.5 245q0 152 106.5 248t268.5 96q106 0 193 -21l-20 -126q-78 14 -154 14q-122 0 -183 -54t-61 -157q0 -93 57 -151.5t157 -58.5q57 0 98 7v214h140v-323z" />
    <glyph glyph-name="H" unicode="H" horiz-adv-x="769" 
d="M679 0h-150v269h-289v-269h-150v666h150v-264h289v264h150v-666z" />
    <glyph glyph-name="I" unicode="I" horiz-adv-x="340" 
d="M245 0h-150v666h150v-666z" />
    <glyph glyph-name="J" unicode="J" horiz-adv-x="447" 
d="M367 212q0 -216 -223 -216h-94v116h90q77 0 77 102v329h-154v123h304v-454z" />
    <glyph glyph-name="K" unicode="K" horiz-adv-x="709" 
d="M699 0h-198l-261 273v-273h-150v666h150v-259l248 259h198l-326 -323z" />
    <glyph glyph-name="L" unicode="L" horiz-adv-x="581" 
d="M561 0h-471v666h150v-537h321v-129z" />
    <glyph glyph-name="M" unicode="M" horiz-adv-x="878" 
d="M788 0h-144v401l-165 -278h-81l-164 279v-402h-144v666h144l205 -348l205 348h144v-666z" />
    <glyph glyph-name="N" unicode="N" horiz-adv-x="796" 
d="M706 0h-146l-322 440v-440h-148v666h146l322 -441v441h148v-666z" />
    <glyph glyph-name="O" unicode="O" horiz-adv-x="759" 
d="M719 332q0 -143 -99 -243t-241 -100t-240.5 100t-98.5 243t98.5 243.5t240.5 100.5t241 -100.5t99 -243.5zM569 332q0 93 -50.5 152t-139.5 59t-139 -59t-50 -152t50 -151.5t139 -58.5t139.5 58.5t50.5 151.5z" />
    <glyph glyph-name="P" unicode="P" horiz-adv-x="685" 
d="M665 448q0 -91 -63.5 -156t-161.5 -65h-201v-227h-149v666h350q98 0 161.5 -63.5t63.5 -154.5zM511 448q0 42 -28.5 70t-67.5 28h-175v-198h175q39 0 67.5 29t28.5 71z" />
    <glyph glyph-name="Q" unicode="Q" horiz-adv-x="759" 
d="M719 333q0 -123 -75.5 -217t-192.5 -119v-186h-144v186q-117 25 -192 119t-75 217q0 143 98.5 243t240.5 100t241 -100t99 -243zM569 333q0 93 -50.5 151.5t-139.5 58.5t-139 -58.5t-50 -151.5t50 -152t139 -59t139.5 59t50.5 152z" />
    <glyph glyph-name="R" unicode="R" 
d="M517 452q0 41 -27.5 67t-67.5 26h-182v-189h182q40 0 67.5 27.5t27.5 68.5zM740 0h-186l-174 239h-140v-239h-150v666h362q94 0 156.5 -62.5t62.5 -151.5q0 -63 -33 -114t-90 -77z" />
    <glyph glyph-name="S" unicode="S" horiz-adv-x="665" 
d="M617 189q0 -92 -79 -146t-204 -54q-137 0 -279 56l31 115q137 -44 246 -44q135 0 135 69q0 25 -22 38.5t-95 40.5q-27 10 -43 16q-126 47 -175.5 88t-49.5 123q0 93 67 139t208 46q126 0 242 -34l-23 -122q-95 27 -217 27q-71 0 -99 -11.5t-28 -40.5q0 -27 26.5 -43
t115.5 -50q22 -8 34 -13q115 -45 146 -66q58 -40 62 -115q1 -9 1 -19z" />
    <glyph glyph-name="T" unicode="T" horiz-adv-x="607" 
d="M597 535h-218v-535h-150v535h-219v131h587v-131z" />
    <glyph glyph-name="U" unicode="U" 
d="M680 277q0 -119 -84 -203.5t-216 -84.5t-216 84.5t-84 203.5v389h150v-389q0 -71 42 -112.5t108 -41.5t108 41.5t42 112.5v389h150v-389z" />
    <glyph glyph-name="V" unicode="V" horiz-adv-x="637" 
d="M629 666l-233 -666h-154l-234 666h150l161 -487l160 487h150z" />
    <glyph glyph-name="W" unicode="W" horiz-adv-x="863" 
d="M848 666l-162 -666h-119l-136 416l-135 -416h-119l-162 666h148l91 -389l126 389h103l126 -389l91 389h148z" />
    <glyph glyph-name="X" unicode="X" horiz-adv-x="632" 
d="M627 0h-165l-146 221l-147 -221h-164l228 336l-224 330h164l143 -214l142 214h165l-225 -330z" />
    <glyph glyph-name="Y" unicode="Y" horiz-adv-x="603" 
d="M603 666l-226 -404v-262h-150v262l-227 404h150l152 -272l151 272h150z" />
    <glyph glyph-name="Z" unicode="Z" horiz-adv-x="646" 
d="M606 0h-556v135l364 402h-355v129h534v-133l-362 -404h375v-129z" />
    <glyph glyph-name="bracketleft" unicode="[" horiz-adv-x="361" 
d="M351 -126h-261v916h261v-114h-115v-687h115v-115z" />
    <glyph glyph-name="backslash" unicode="\" horiz-adv-x="512" 
d="M462 -117h-123l-289 793h123z" />
    <glyph glyph-name="bracketright" unicode="]" horiz-adv-x="361" 
d="M271 -126h-261v115h115v687h-115v114h261v-916z" />
    <glyph glyph-name="asciicircum" unicode="^" horiz-adv-x="479" 
d="M454 327h-111l-103 231l-104 -231h-111l169 339h92z" />
    <glyph glyph-name="underscore" unicode="_" horiz-adv-x="466" 
d="M466 -57h-466v46h466v-46z" />
    <glyph glyph-name="grave" unicode="`" horiz-adv-x="372" 
d="M192 537l-133 133h171l83 -133h-121z" />
    <glyph glyph-name="a" unicode="a" horiz-adv-x="526" 
d="M333 179v13h-88q-67 0 -67 -52q0 -50 67 -50q40 0 64 25t24 64zM476 0h-136v52q-50 -60 -141 -60q-72 0 -118 41.5t-46 103.5q0 70 41 107t117 37h140v36q0 38 -23 53t-86 15q-67 0 -150 -10l-11 104q92 17 175 17q238 0 238 -184v-312z" />
    <glyph glyph-name="b" unicode="b" horiz-adv-x="600" 
d="M568 244q0 -99 -57.5 -175.5t-153.5 -76.5q-82 0 -143 73v-65h-144v666h144v-241q57 71 143 71q97 0 154 -74.5t57 -177.5zM424 244q0 61 -27 101t-77 40q-49 0 -77.5 -38.5t-28.5 -102.5q0 -63 29.5 -102.5t76.5 -39.5q50 0 77 40.5t27 101.5z" />
    <glyph glyph-name="c" unicode="c" horiz-adv-x="486" 
d="M436 17q-62 -25 -129 -25q-121 0 -198 72t-77 180t77 180t198 72q68 0 129 -25l-23 -102q-49 14 -94 14q-71 0 -107.5 -38t-36.5 -101t36.5 -101.5t107.5 -38.5q41 0 94 15z" />
    <glyph glyph-name="d" unicode="d" horiz-adv-x="600" 
d="M530 0h-144v65q-61 -73 -143 -73q-96 0 -153.5 76.5t-57.5 175.5q0 103 57 177.5t154 74.5q86 0 143 -71v241h144v-666zM386 244q0 64 -28.5 102.5t-77.5 38.5q-50 0 -77 -40t-27 -101t27 -101.5t77 -40.5q47 0 76.5 39.5t29.5 102.5z" />
    <glyph glyph-name="e" unicode="e" horiz-adv-x="542" 
d="M504 202h-333q0 -45 36.5 -72.5t107.5 -27.5q67 0 137 19l25 -102q-74 -27 -164 -27q-134 0 -207.5 68t-73.5 184q0 104 66 178t175 74q106 0 168.5 -69.5t62.5 -186.5v-38zM369 291q-5 45 -29.5 71t-66.5 26q-40 0 -67 -25t-34 -72h197z" />
    <glyph glyph-name="f" unicode="f" horiz-adv-x="373" 
d="M368 676l-16 -101q-26 5 -56 5q-59 0 -59 -69v-34h88v-94h-88v-383h-144v383h-63v94h63v29q0 89 42 137t126 48q55 0 107 -15z" />
    <glyph glyph-name="g" unicode="g" horiz-adv-x="594" 
d="M529 63q0 -112 -74.5 -172.5t-203.5 -60.5q-99 0 -165 20l17 100q67 -18 131 -18q152 0 152 110v31q-53 -64 -144 -64q-96 0 -153 72.5t-57 170.5q0 102 56.5 173t153.5 71q87 0 144 -71v62h143v-424zM386 244q0 64 -28.5 102.5t-77.5 38.5q-50 0 -77 -36.5t-27 -96.5
t27 -96.5t77 -36.5q48 0 77 31.5t29 93.5z" />
    <glyph glyph-name="h" unicode="h" horiz-adv-x="597" 
d="M532 0h-143v281q0 88 -77 88q-36 0 -67 -27t-31 -63v-279h-144v666h139v-252q23 34 68.5 58t96.5 24q80 0 119 -51t39 -141v-304z" />
    <glyph glyph-name="i" unicode="i" horiz-adv-x="284" 
d="M214 0h-144v487h144v-487zM214 568h-144v123h144v-123z" />
    <glyph glyph-name="j" unicode="j" horiz-adv-x="285" 
d="M220 -4q0 -83 -46.5 -125t-121.5 -42q-42 0 -72 4v112q18 -3 44 -3q31 0 41.5 15t10.5 57v473h144v-491zM220 568h-144v123h144v-123z" />
    <glyph glyph-name="k" unicode="k" horiz-adv-x="568" 
d="M558 0h-166l-179 191v-191h-143v666h143v-362l171 183h167l-225 -240z" />
    <glyph glyph-name="l" unicode="l" horiz-adv-x="345" 
d="M305 -4q-37 -5 -72 -5q-75 0 -121.5 42t-46.5 125v508h143v-489q0 -41 10.5 -56.5t42.5 -15.5t44 2v-111z" />
    <glyph glyph-name="m" unicode="m" horiz-adv-x="903" 
d="M838 0h-144v281q0 88 -77 88q-35 0 -63 -26.5t-28 -63.5v-279h-144v281q0 88 -77 88q-35 0 -63 -26.5t-28 -63.5v-279h-144v487h140v-73q24 34 66 58t92 24q98 0 137 -82q25 32 74 57t100 25q80 0 119.5 -51t39.5 -141v-304z" />
    <glyph glyph-name="n" unicode="n" horiz-adv-x="597" 
d="M532 0h-144v281q0 88 -77 88q-36 0 -67 -27t-31 -63v-279h-143v487h139v-73q23 34 68.5 58t96.5 24q80 0 119 -51t39 -141v-304z" />
    <glyph glyph-name="o" unicode="o" horiz-adv-x="572" 
d="M540 244q0 -103 -72 -177.5t-182 -74.5t-182 74.5t-72 177.5t72 177.5t182 74.5t182 -74.5t72 -177.5zM396 244q0 64 -29.5 103t-80.5 39t-80.5 -39t-29.5 -103t29.5 -103t80.5 -39t80.5 39t29.5 103z" />
    <glyph glyph-name="p" unicode="p" horiz-adv-x="600" 
d="M568 244q0 -103 -56.5 -177.5t-153.5 -74.5q-87 0 -144 71v-225h-144v649h144v-64q61 73 144 73q96 0 153 -76.5t57 -175.5zM424 244q0 61 -27 101t-77 40q-47 0 -76.5 -39t-29.5 -102q0 -64 29 -103t77 -39q50 0 77 40.5t27 101.5z" />
    <glyph glyph-name="q" unicode="q" horiz-adv-x="600" 
d="M530 -162h-144v225q-57 -71 -144 -71q-97 0 -153.5 74.5t-56.5 177.5q0 99 57 175.5t153 76.5q83 0 144 -73v64h144v-649zM386 244q0 63 -29.5 102t-76.5 39q-50 0 -77 -40t-27 -101t27 -101.5t77 -40.5q48 0 77 39t29 103z" />
    <glyph glyph-name="r" unicode="r" horiz-adv-x="404" 
d="M379 493l-1 -127q-26 2 -37 2q-59 0 -93 -42.5t-34 -108.5v-217h-144v487h140v-83q16 36 51.5 64t85.5 28q13 0 32 -3z" />
    <glyph glyph-name="s" unicode="s" horiz-adv-x="493" 
d="M458 142q0 -68 -58 -109t-152 -41q-98 0 -208 44l27 99q105 -35 180 -35q72 0 72 35q0 16 -13.5 25t-60.5 28q-113 47 -149.5 75.5t-36.5 89.5q0 143 205 143q100 0 178 -27l-19 -105q-85 24 -157 24q-41 0 -55.5 -6.5t-14.5 -21.5q0 -5 1 -9t3.5 -7.5t5 -6t8 -6t10.5 -6
t14.5 -6.5t17 -7t22 -8.5t25.5 -9.5q95 -37 125 -64t30 -88z" />
    <glyph glyph-name="t" unicode="t" horiz-adv-x="362" 
d="M322 -1q-35 -7 -71 -7q-76 0 -122 37.5t-46 114.5v251h-63v92h63v136h143v-136h84v-92h-84v-239q0 -55 56 -55q3 0 27 3z" />
    <glyph glyph-name="u" unicode="u" horiz-adv-x="598" 
d="M528 0h-140v73q-23 -34 -68 -57.5t-96 -23.5q-80 0 -119.5 50.5t-39.5 140.5v304h144v-281q0 -87 77 -87q36 0 67 26.5t31 62.5v279h144v-487z" />
    <glyph glyph-name="v" unicode="v" horiz-adv-x="514" 
d="M506 487l-178 -487h-143l-177 487h139l110 -340l110 340h139z" />
    <glyph glyph-name="w" unicode="w" horiz-adv-x="719" 
d="M714 487l-134 -487h-139l-81 318l-84 -318h-139l-132 487h132l74 -329l86 329h125l84 -329l74 329h134z" />
    <glyph glyph-name="x" unicode="x" horiz-adv-x="504" 
d="M489 0h-147l-90 138l-89 -138h-148l164 248l-160 239h148l85 -136l86 136h148l-161 -239z" />
    <glyph glyph-name="y" unicode="y" horiz-adv-x="507" 
d="M500 487l-237 -650h-139l59 164l-181 486h139l112 -332l108 332h139z" />
    <glyph glyph-name="z" unicode="z" horiz-adv-x="553" 
d="M493 0h-433v105l255 277h-234v105h408v-104l-261 -277h265v-106z" />
    <glyph glyph-name="braceleft" unicode="{" horiz-adv-x="353" 
d="M348 -143h-137q-59 0 -86 34t-27 85v219q0 43 -12.5 61t-43.5 18h-16l-1 100h17q31 0 43.5 18t12.5 61v218q0 51 27 85t86 34h137v-104h-62q-24 0 -33 -11.5t-9 -36.5v-167q0 -63 -37 -104t-109 -43q72 -2 109 -43.5t37 -104.5v-167q0 -25 9 -36.5t33 -11.5h62v-104z" />
    <glyph glyph-name="bar" unicode="|" horiz-adv-x="302" 
d="M202 -200h-102v1000h102v-1000z" />
    <glyph glyph-name="braceright" unicode="}" horiz-adv-x="353" 
d="M328 374l-1 -100h-16q-31 0 -43.5 -18t-12.5 -61v-219q0 -51 -27 -85t-86 -34h-137v104h62q24 0 33 11.5t9 36.5v167q0 63 36.5 104.5t109.5 43.5q-73 2 -109.5 43t-36.5 104v167q0 25 -9 36.5t-33 11.5h-62v104h137q59 0 86 -34t27 -85v-218q0 -43 12.5 -61t43.5 -18h17
z" />
    <glyph glyph-name="asciitilde" unicode="~" horiz-adv-x="454" 
d="M434 327q-19 -56 -53.5 -97.5t-83.5 -41.5q-38 0 -86 30.5t-63 30.5q-36 0 -61 -63l-67 32q19 56 53.5 98t83.5 42q38 0 86 -31t63 -31q36 0 61 63z" />
    <glyph glyph-name="exclamdown" unicode="&#xa1;" horiz-adv-x="337" 
d="M243 0h-149v160l40 281h68l41 -281v-160zM247 510h-157v156h157v-156z" />
    <glyph glyph-name="cent" unicode="&#xa2;" horiz-adv-x="486" 
d="M436 17q-57 -23 -123 -25v-62h-24v63q-114 6 -185.5 77t-71.5 174t71.5 174t185.5 77v63h24v-62q65 -1 123 -25l-23 -102q-49 14 -94 14h-6v-278q1 0 3 -0.5t3 -0.5q41 0 94 15zM289 107v274q-56 -8 -84.5 -44.5t-28.5 -92.5t28.5 -92.5t84.5 -44.5z" />
    <glyph glyph-name="sterling" unicode="&#xa3;" horiz-adv-x="718" 
d="M648 643l-21 -123q-95 27 -219 27q-71 0 -99 -11t-28 -41q0 -41 31 -137h199v-75h-188v-4q0 -97 -41 -161h333v-118h-550v118h66q40 83 40 163v2h-90v75h80q-30 82 -30 133q0 94 67 139.5t208 45.5q146 0 242 -33z" />
    <glyph glyph-name="currency" unicode="&#xa4;" horiz-adv-x="718" 
d="M663 647l-21 -125q-81 21 -152 21q-172 0 -224 -120h168v-61h-183q-2 -20 -2 -29q0 -12 2 -32h183v-62h-166q53 -117 222 -117q68 0 152 21l19 -123q-95 -31 -192 -31q-133 0 -229.5 69.5t-127.5 180.5h-92v62h80q-1 10 -1 32q0 19 1 29h-80v61h91q31 112 127.5 182.5
t230.5 70.5q102 0 194 -29z" />
    <glyph glyph-name="yen" unicode="&#xa5;" horiz-adv-x="604" 
d="M604 666l-157 -279h88v-81h-133l-25 -44v-23h158v-81h-158v-158h-150v158h-159v81h159v23l-24 44h-135v81h89l-157 279h150l152 -273l152 273h150z" />
    <glyph glyph-name="brokenbar" unicode="&#xa6;" horiz-adv-x="302" 
d="M202 391h-102v409h102v-409zM202 -200h-102v409h102v-409z" />
    <glyph glyph-name="section" unicode="&#xa7;" horiz-adv-x="583" 
d="M533 0q0 -79 -67.5 -125t-175.5 -46q-120 0 -240 48l26 100q119 -39 212 -39q117 0 117 59q0 22 -21 34.5t-86 36.5q-20 7 -31 11q-103 38 -148 80t-45 113q0 81 68 120q-68 44 -68 124q0 160 236 160q124 0 207 -29l-18 -106q-89 24 -187 24q-61 0 -85.5 -10t-24.5 -35
q0 -23 23 -37t96 -42q21 -8 32 -12q104 -40 142 -71t38 -96q0 -85 -75 -134q40 -21 57.5 -49.5t17.5 -78.5zM405 254q0 22 -21 34.5t-86 36.5q-20 7 -31 11l-24 9q-40 -21 -40 -67q0 -31 27 -49.5t113 -51.5q28 11 45 32.5t17 44.5z" />
    <glyph glyph-name="dieresis" unicode="&#xa8;" horiz-adv-x="447" 
d="M264 540v125h124v-125h-124zM59 540v125h124v-125h-124z" />
    <glyph glyph-name="copyright" unicode="&#xa9;" horiz-adv-x="730" 
d="M698 333q0 -143 -95 -243.5t-238 -100.5t-238 100.5t-95 243.5t95 243t238 100t238 -100t95 -243zM638 333q0 116 -76 201.5t-197 85.5t-197 -85.5t-76 -201.5t76 -202t197 -86t197 86t76 202zM486 491l-11 -63q-46 11 -76 11q-60 0 -91 -29t-31 -77t31 -77.5t91 -29.5
q29 0 76 11l10 -62q-52 -16 -97 -16q-81 0 -134 50.5t-53 123.5t53 123t134 50q52 0 98 -15z" />
    <glyph glyph-name="ordfeminine" unicode="&#xaa;" horiz-adv-x="395" 
d="M340 344h-90v35q-34 -40 -95 -40q-48 0 -79 28t-31 69q0 47 27.5 71.5t78.5 24.5h93v24q0 25 -15 35.5t-57 10.5q-43 0 -101 -7l-7 70q57 11 117 11q159 0 159 -123v-209zM244 464v9h-58q-45 0 -45 -35q0 -34 45 -34q27 0 42.5 16.5t15.5 43.5z" />
    <glyph glyph-name="guillemotleft" unicode="&#xab;" horiz-adv-x="630" 
d="M319 57l-61 -57l-228 243l228 244l61 -57l-175 -186zM550 57l-60 -57l-229 243l228 244l61 -57l-175 -186z" />
    <glyph glyph-name="logicalnot" unicode="&#xac;" horiz-adv-x="558" 
d="M468 0h-106v187h-302v102h408v-289z" />
    <glyph glyph-name="registered" unicode="&#xae;" horiz-adv-x="730" 
d="M698 333q0 -143 -95 -243.5t-238 -100.5t-238 100.5t-95 243.5t95 243t238 100t238 -100t95 -243zM637 333q0 116 -75.5 201.5t-196.5 85.5t-197 -85.5t-76 -201.5t76 -202t197 -86t196.5 86t75.5 202zM555 164h-93l-88 121h-71v-121h-76v337h183q47 0 79 -32t32 -77
q0 -32 -17 -57.5t-46 -38.5zM443 392q0 21 -14 34.5t-34 13.5h-92v-96h92q20 0 34 13.5t14 34.5z" />
    <glyph glyph-name="macron" unicode="&#xaf;" horiz-adv-x="422" 
d="M59 553v95h304v-95h-304z" />
    <glyph glyph-name="degree" unicode="&#xb0;" horiz-adv-x="306" 
d="M261 568q0 -45 -31.5 -77t-76.5 -32t-76.5 32t-31.5 77t31.5 76.5t76.5 31.5t76.5 -31.5t31.5 -76.5zM224 568q0 29 -21 50t-50 21t-50 -21t-21 -50t21 -50t50 -21t50 21t21 50z" />
    <glyph glyph-name="plusminus" unicode="&#xb1;" horiz-adv-x="587" 
d="M532 0h-477v90h186v97h-186v102h186v188h105v-188h186v-102h-186v-97h186v-90z" />
    <glyph glyph-name="twosuperior" unicode="&#xb2;" horiz-adv-x="666" 
d="M666 0h-167v167h-166v166h-167v167h167v-167h166v-166h167v-167zM666 333h-167v167h167v-167zM333 0h-167v167h167v-167zM499 500h-166v166h166v-166zM166 167h-166v166h166v-166zM166 500h-166v166h166v-166z" />
    <glyph glyph-name="threesuperior" unicode="&#xb3;" horiz-adv-x="666" 
d="M666 0h-167v167h-166v166h-167v167h167v-167h166v-166h167v-167zM666 333h-167v167h167v-167zM333 0h-167v167h167v-167zM499 500h-166v166h166v-166zM166 167h-166v166h166v-166zM166 500h-166v166h166v-166z" />
    <glyph glyph-name="acute" unicode="&#xb4;" horiz-adv-x="372" 
d="M59 537l83 133h171l-133 -133h-121z" />
    <glyph glyph-name="mu" unicode="&#xb5;" horiz-adv-x="598" 
d="M528 0h-140v73q-23 -34 -68 -57.5t-96 -23.5h-15v-154h-144v649h144v-281q0 -87 77 -87q36 0 67 26.5t31 62.5v279h144v-487z" />
    <glyph glyph-name="paragraph" unicode="&#xb6;" horiz-adv-x="468" 
d="M378 0h-69v623h-67v-623h-68v358q-64 0 -109 45t-45 109t45 109t109 45h204v-666z" />
    <glyph glyph-name="periodcentered" unicode="&#xb7;" horiz-adv-x="306" 
d="M231 222h-156v156h156v-156z" />
    <glyph glyph-name="cedilla" unicode="&#xb8;" horiz-adv-x="303" 
d="M59 -169l8 48q30 -6 48 -6q35 0 35 23q0 20 -33 20q-15 0 -43 -2l29 86h53l-12 -40q9 3 24 3q35 0 55.5 -17.5t20.5 -50.5q0 -38 -27.5 -57t-74.5 -19t-83 12z" />
    <glyph glyph-name="onesuperior" unicode="&#xb9;" horiz-adv-x="666" 
d="M666 0h-167v167h-166v166h-167v167h167v-167h166v-166h167v-167zM666 333h-167v167h167v-167zM333 0h-167v167h167v-167zM499 500h-166v166h166v-166zM166 167h-166v166h166v-166zM166 500h-166v166h166v-166z" />
    <glyph glyph-name="ordmasculine" unicode="&#xba;" horiz-adv-x="410" 
d="M375 507q0 -68 -48.5 -118t-121.5 -50t-121.5 50t-48.5 118q0 69 48.5 119t121.5 50t121.5 -50t48.5 -119zM279 507q0 43 -20 69t-54 26t-54 -26t-20 -69t20 -68.5t54 -25.5t54 25.5t20 68.5z" />
    <glyph glyph-name="guillemotright" unicode="&#xbb;" horiz-adv-x="630" 
d="M600 243l-228 -243l-61 57l175 187l-175 186l61 57zM369 243l-229 -243l-60 57l175 187l-175 186l61 57z" />
    <glyph glyph-name="onequarter" unicode="&#xbc;" horiz-adv-x="666" 
d="M666 0h-167v167h-166v166h-167v167h167v-167h166v-166h167v-167zM666 333h-167v167h167v-167zM333 0h-167v167h167v-167zM499 500h-166v166h166v-166zM166 167h-166v166h166v-166zM166 500h-166v166h166v-166z" />
    <glyph glyph-name="onehalf" unicode="&#xbd;" horiz-adv-x="666" 
d="M666 0h-167v167h-166v166h-167v167h167v-167h166v-166h167v-167zM666 333h-167v167h167v-167zM333 0h-167v167h167v-167zM499 500h-166v166h166v-166zM166 167h-166v166h166v-166zM166 500h-166v166h166v-166z" />
    <glyph glyph-name="threequarters" unicode="&#xbe;" horiz-adv-x="666" 
d="M666 0h-167v167h-166v166h-167v167h167v-167h166v-166h167v-167zM666 333h-167v167h167v-167zM333 0h-167v167h167v-167zM499 500h-166v166h166v-166zM166 167h-166v166h166v-166zM166 500h-166v166h166v-166z" />
    <glyph glyph-name="questiondown" unicode="&#xbf;" horiz-adv-x="581" 
d="M536 27q-116 -38 -227 -38q-125 0 -192 51t-67 145q0 143 227 272l61 -89q-11 -9 -34 -26.5t-32 -25t-25.5 -22t-23 -24t-15 -23t-11.5 -27t-3 -29.5q0 -40 32 -58.5t100 -18.5q91 0 186 27zM375 510h-156v156h156v-156z" />
    <glyph glyph-name="Agrave" unicode="&#xc0;" horiz-adv-x="663" 
d="M653 0h-147l-51 137h-246l-52 -137h-147l253 666h138zM418 250l-86 266l-87 -266h173zM260 716l-133 133h171l83 -133h-121z" />
    <glyph glyph-name="Aacute" unicode="&#xc1;" horiz-adv-x="663" 
d="M653 0h-147l-51 137h-246l-52 -137h-147l253 666h138zM418 250l-86 266l-87 -266h173zM281 716l83 133h171l-133 -133h-121z" />
    <glyph glyph-name="Acircumflex" unicode="&#xc2;" horiz-adv-x="663" 
d="M653 0h-147l-51 137h-246l-52 -137h-147l253 666h138zM418 250l-86 266l-87 -266h173zM167 716l112 133h104l112 -133h-119l-45 56l-45 -56h-119z" />
    <glyph glyph-name="Atilde" unicode="&#xc3;" horiz-adv-x="663" 
d="M653 0h-147l-51 137h-246l-52 -137h-147l253 666h138zM418 250l-86 266l-87 -266h173zM150 736q8 60 29.5 92t64.5 32q31 0 87 -22q46 -19 58 -19q4 0 7 1t5.5 4t4 5.5t3.5 7t3 7.5l3 9l3 9l85 -20q-11 -62 -32 -92.5t-61 -30.5q-25 0 -67 14q-7 2 -20.5 7.5t-21.5 8.5
t-18.5 5.5t-17.5 2.5q-12 0 -17.5 -9t-12.5 -32z" />
    <glyph glyph-name="Adieresis" unicode="&#xc4;" horiz-adv-x="663" 
d="M653 0h-147l-51 137h-246l-52 -137h-147l253 666h138zM418 250l-86 266l-87 -266h173zM373 719v125h124v-125h-124zM168 719v125h124v-125h-124z" />
    <glyph glyph-name="Aring" unicode="&#xc5;" horiz-adv-x="663" 
d="M331 666q21 0 32 12t11 30t-11 30.5t-32 12.5q-20 0 -30.5 -12.5t-10.5 -30.5t10.5 -30t30.5 -12zM418 250l-86 274l-87 -274h173zM209 137l-52 -137h-147l247 651q-20 23 -20 57q0 38 26 63.5t68 25.5q43 0 69.5 -25.5t26.5 -63.5q0 -35 -21 -56l247 -652h-147l-51 137
h-246z" />
    <glyph glyph-name="AE" unicode="&#xc6;" horiz-adv-x="913" 
d="M393 250l-58 266l-89 -266h147zM853 0h-405l-30 136h-208l-52 -136h-148l253 666h590v-129h-386l33 -129h320v-129h-288l38 -150h283v-129z" />
    <glyph glyph-name="Ccedilla" unicode="&#xc7;" horiz-adv-x="660" 
d="M412 -181q-47 0 -83 12l8 48q30 -6 48 -6q35 0 35 23q0 20 -33 20q-15 0 -43 -2l26 77q-146 13 -238 110t-92 232q0 145 104 244t267 99q113 0 194 -29l-33 -124q-71 20 -140 20q-119 0 -180.5 -57.5t-61.5 -152.5t61.5 -153t180.5 -58q69 0 140 20l30 -122
q-82 -30 -179 -31l-9 -29q9 3 24 3q35 0 55.5 -17.5t20.5 -50.5q0 -38 -27.5 -57t-74.5 -19z" />
    <glyph glyph-name="Egrave" unicode="&#xc8;" horiz-adv-x="639" 
d="M579 0h-489v666h489v-129h-339v-129h320v-129h-320v-150h339v-129zM290 716l-133 133h171l83 -133h-121z" />
    <glyph glyph-name="Eacute" unicode="&#xc9;" horiz-adv-x="639" 
d="M579 0h-489v666h489v-129h-339v-129h320v-129h-320v-150h339v-129zM262 716l83 133h171l-133 -133h-121z" />
    <glyph glyph-name="Ecircumflex" unicode="&#xca;" horiz-adv-x="639" 
d="M579 0h-489v666h489v-129h-339v-129h320v-129h-320v-150h339v-129zM169 716l112 133h104l112 -133h-119l-45 56l-45 -56h-119z" />
    <glyph glyph-name="Edieresis" unicode="&#xcb;" horiz-adv-x="639" 
d="M579 0h-489v666h489v-129h-339v-129h320v-129h-320v-150h339v-129zM385 719v125h124v-125h-124zM180 719v125h124v-125h-124z" />
    <glyph glyph-name="Igrave" unicode="&#xcc;" horiz-adv-x="340" 
d="M245 0h-150v666h150v-666zM104 716l-133 133h171l83 -133h-121z" />
    <glyph glyph-name="Iacute" unicode="&#xcd;" horiz-adv-x="340" 
d="M245 0h-150v666h150v-666zM119 716l83 133h171l-133 -133h-121z" />
    <glyph glyph-name="Icircumflex" unicode="&#xce;" horiz-adv-x="340" 
d="M245 0h-150v666h150v-666zM5 716l112 133h104l112 -133h-119l-45 56l-45 -56h-119z" />
    <glyph glyph-name="Idieresis" unicode="&#xcf;" horiz-adv-x="340" 
d="M245 0h-150v666h150v-666zM211 719v125h124v-125h-124zM6 719v125h124v-125h-124z" />
    <glyph glyph-name="Eth" unicode="&#xd0;" horiz-adv-x="718" 
d="M261 0h-156v272h-80v125h80v269h156q192 0 309.5 -93t117.5 -240t-117.5 -240t-309.5 -93zM255 133h34q106 0 174.5 49.5t68.5 150.5t-68.5 150.5t-174.5 49.5h-34v-136h151v-125h-151v-139z" />
    <glyph glyph-name="Ntilde" unicode="&#xd1;" horiz-adv-x="796" 
d="M706 0h-146l-322 440v-440h-148v666h146l322 -441v441h148v-666zM216 736q8 60 29.5 92t64.5 32q31 0 87 -22q46 -19 58 -19q4 0 7 1t5.5 4t4 5.5t3.5 7t3 7.5l3 9l3 9l85 -20q-11 -62 -32 -92.5t-61 -30.5q-25 0 -67 14q-7 2 -20.5 7.5t-21.5 8.5t-18.5 5.5t-17.5 2.5
q-12 0 -17.5 -9t-12.5 -32z" />
    <glyph glyph-name="Ograve" unicode="&#xd2;" horiz-adv-x="759" 
d="M719 332q0 -143 -99 -243t-241 -100t-240.5 100t-98.5 243t98.5 243.5t240.5 100.5t241 -100.5t99 -243.5zM569 332q0 93 -50.5 152t-139.5 59t-139 -59t-50 -152t50 -151.5t139 -58.5t139.5 58.5t50.5 151.5zM308 716l-133 133h171l83 -133h-121z" />
    <glyph glyph-name="Oacute" unicode="&#xd3;" horiz-adv-x="759" 
d="M719 332q0 -143 -99 -243t-241 -100t-240.5 100t-98.5 243t98.5 243.5t240.5 100.5t241 -100.5t99 -243.5zM569 332q0 93 -50.5 152t-139.5 59t-139 -59t-50 -152t50 -151.5t139 -58.5t139.5 58.5t50.5 151.5zM329 716l83 133h171l-133 -133h-121z" />
    <glyph glyph-name="Ocircumflex" unicode="&#xd4;" horiz-adv-x="759" 
d="M719 332q0 -143 -99 -243t-241 -100t-240.5 100t-98.5 243t98.5 243.5t240.5 100.5t241 -100.5t99 -243.5zM569 332q0 93 -50.5 152t-139.5 59t-139 -59t-50 -152t50 -151.5t139 -58.5t139.5 58.5t50.5 151.5zM215 716l112 133h104l112 -133h-119l-45 56l-45 -56h-119z
" />
    <glyph glyph-name="Otilde" unicode="&#xd5;" horiz-adv-x="759" 
d="M719 332q0 -143 -99 -243t-241 -100t-240.5 100t-98.5 243t98.5 243.5t240.5 100.5t241 -100.5t99 -243.5zM569 332q0 93 -50.5 152t-139.5 59t-139 -59t-50 -152t50 -151.5t139 -58.5t139.5 58.5t50.5 151.5zM198 736q8 60 29.5 92t64.5 32q31 0 87 -22q46 -19 58 -19
q4 0 7 1t5.5 4t4 5.5t3.5 7t3 7.5l3 9l3 9l85 -20q-11 -62 -32 -92.5t-61 -30.5q-25 0 -67 14q-7 2 -20.5 7.5t-21.5 8.5t-18.5 5.5t-17.5 2.5q-12 0 -17.5 -9t-12.5 -32z" />
    <glyph glyph-name="Odieresis" unicode="&#xd6;" horiz-adv-x="759" 
d="M719 332q0 -143 -99 -243t-241 -100t-240.5 100t-98.5 243t98.5 243.5t240.5 100.5t241 -100.5t99 -243.5zM569 332q0 93 -50.5 152t-139.5 59t-139 -59t-50 -152t50 -151.5t139 -58.5t139.5 58.5t50.5 151.5zM421 719v125h124v-125h-124zM216 719v125h124v-125h-124z
" />
    <glyph glyph-name="multiply" unicode="&#xd7;" horiz-adv-x="501" 
d="M456 108l-74 -74l-132 131l-131 -131l-74 74l131 131l-131 132l74 74l131 -131l132 131l74 -74l-131 -132z" />
    <glyph glyph-name="Oslash" unicode="&#xd8;" horiz-adv-x="759" 
d="M719 333q0 -143 -99 -243.5t-241 -100.5q-126 0 -220 81l-80 -81l-39 38l81 82q-81 95 -81 224q0 143 98.5 243t240.5 100q126 0 221 -82l80 82l39 -38l-81 -82q81 -97 81 -223zM505 498q-50 45 -126 45q-89 0 -139 -58.5t-50 -151.5q0 -73 30 -124zM569 333
q0 71 -30 122l-285 -288q50 -45 125 -45q89 0 139.5 59t50.5 152z" />
    <glyph glyph-name="Ugrave" unicode="&#xd9;" 
d="M680 277q0 -119 -84 -203.5t-216 -84.5t-216 84.5t-84 203.5v389h150v-389q0 -71 42 -112.5t108 -41.5t108 41.5t42 112.5v389h150v-389zM308 716l-133 133h171l83 -133h-121z" />
    <glyph glyph-name="Uacute" unicode="&#xda;" 
d="M680 277q0 -119 -84 -203.5t-216 -84.5t-216 84.5t-84 203.5v389h150v-389q0 -71 42 -112.5t108 -41.5t108 41.5t42 112.5v389h150v-389zM318 716l83 133h171l-133 -133h-121z" />
    <glyph glyph-name="Ucircumflex" unicode="&#xdb;" 
d="M680 277q0 -119 -84 -203.5t-216 -84.5t-216 84.5t-84 203.5v389h150v-389q0 -71 42 -112.5t108 -41.5t108 41.5t42 112.5v389h150v-389zM215 716l112 133h104l112 -133h-119l-45 56l-45 -56h-119z" />
    <glyph glyph-name="Udieresis" unicode="&#xdc;" 
d="M680 277q0 -119 -84 -203.5t-216 -84.5t-216 84.5t-84 203.5v389h150v-389q0 -71 42 -112.5t108 -41.5t108 41.5t42 112.5v389h150v-389zM421 719v125h124v-125h-124zM216 719v125h124v-125h-124z" />
    <glyph glyph-name="Yacute" unicode="&#xdd;" horiz-adv-x="603" 
d="M603 666l-226 -404v-262h-150v262l-227 404h150l152 -272l151 272h150zM237 716l83 133h171l-133 -133h-121z" />
    <glyph glyph-name="Thorn" unicode="&#xde;" horiz-adv-x="686" 
d="M666 341q0 -91 -64 -155.5t-162 -64.5h-200v-121h-150v666h150v-106h200q98 0 162 -64t64 -155zM512 341q0 41 -28 69.5t-68 28.5h-176v-198h176q39 0 67.5 29t28.5 71z" />
    <glyph glyph-name="germandbls" unicode="&#xdf;" horiz-adv-x="647" 
d="M607 139q0 -69 -52.5 -109.5t-145.5 -40.5q-67 0 -126 27l25 98q51 -19 99 -19q30 0 45.5 11t15.5 26q0 17 -12 29t-51 32q-66 34 -88 66t-22 78q0 24 15.5 47.5t33.5 39.5t33.5 39t15.5 47q0 70 -77 70q-32 0 -50.5 -18.5t-18.5 -50.5v-511h-144v383h-63v93h63v30
q0 86 58 135.5t153 49.5q104 0 163.5 -51.5t59.5 -121.5q0 -38 -15.5 -69t-33.5 -47t-33.5 -33.5t-15.5 -31.5t8.5 -23.5t32.5 -22.5q71 -36 99 -65.5t28 -86.5z" />
    <glyph glyph-name="agrave" unicode="&#xe0;" horiz-adv-x="526" 
d="M333 179v13h-88q-67 0 -67 -52q0 -50 67 -50q40 0 64 25t24 64zM476 0h-136v52q-50 -60 -141 -60q-72 0 -118 41.5t-46 103.5q0 70 41 107t117 37h140v36q0 38 -23 53t-86 15q-67 0 -150 -10l-11 104q92 17 175 17q238 0 238 -184v-312zM194 537l-133 133h171l83 -133
h-121z" />
    <glyph glyph-name="aacute" unicode="&#xe1;" horiz-adv-x="526" 
d="M333 179v13h-88q-67 0 -67 -52q0 -50 67 -50q40 0 64 25t24 64zM476 0h-136v52q-50 -60 -141 -60q-72 0 -118 41.5t-46 103.5q0 70 41 107t117 37h140v36q0 38 -23 53t-86 15q-67 0 -150 -10l-11 104q92 17 175 17q238 0 238 -184v-312zM189 537l83 133h171l-133 -133
h-121z" />
    <glyph glyph-name="acircumflex" unicode="&#xe2;" horiz-adv-x="526" 
d="M333 179v13h-88q-67 0 -67 -52q0 -50 67 -50q40 0 64 25t24 64zM476 0h-136v52q-50 -60 -141 -60q-72 0 -118 41.5t-46 103.5q0 70 41 107t117 37h140v36q0 38 -23 53t-86 15q-67 0 -150 -10l-11 104q92 17 175 17q238 0 238 -184v-312zM93 537l112 133h104l112 -133
h-119l-45 56l-45 -56h-119z" />
    <glyph glyph-name="atilde" unicode="&#xe3;" horiz-adv-x="526" 
d="M333 179v13h-88q-67 0 -67 -52q0 -50 67 -50q40 0 64 25t24 64zM476 0h-136v52q-50 -60 -141 -60q-72 0 -118 41.5t-46 103.5q0 70 41 107t117 37h140v36q0 38 -23 53t-86 15q-67 0 -150 -10l-11 104q92 17 175 17q238 0 238 -184v-312zM83 557q8 60 29.5 92t64.5 32
q31 0 87 -22q46 -19 58 -19q4 0 7 1t5.5 4t4 5.5t3.5 7t3 7.5l3 9l3 9l85 -20q-11 -62 -32 -92.5t-61 -30.5q-25 0 -67 14q-7 2 -20.5 7.5t-21.5 8.5t-18.5 5.5t-17.5 2.5q-12 0 -17.5 -9t-12.5 -32z" />
    <glyph glyph-name="adieresis" unicode="&#xe4;" horiz-adv-x="526" 
d="M333 179v13h-88q-67 0 -67 -52q0 -50 67 -50q40 0 64 25t24 64zM476 0h-136v52q-50 -60 -141 -60q-72 0 -118 41.5t-46 103.5q0 70 41 107t117 37h140v36q0 38 -23 53t-86 15q-67 0 -150 -10l-11 104q92 17 175 17q238 0 238 -184v-312zM306 540v125h124v-125h-124z
M101 540v125h124v-125h-124z" />
    <glyph glyph-name="aring" unicode="&#xe5;" horiz-adv-x="526" 
d="M333 179v13h-88q-67 0 -67 -52q0 -50 67 -50q40 0 64 25t24 64zM476 0h-136v52q-50 -60 -141 -60q-72 0 -118 41.5t-46 103.5q0 70 41 107t117 37h140v36q0 38 -23 53t-86 15q-67 0 -150 -10l-11 104q92 17 175 17q238 0 238 -184v-312zM271 537q-42 0 -68 24.5t-26 62.5
t26 63.5t68 25.5q43 0 69.5 -25.5t26.5 -63.5t-26.5 -62.5t-69.5 -24.5zM271 582q21 0 32 12t11 30t-11 30.5t-32 12.5q-20 0 -30.5 -12.5t-10.5 -30.5t10.5 -30t30.5 -12z" />
    <glyph glyph-name="ae" unicode="&#xe6;" horiz-adv-x="843" 
d="M805 202h-333q0 -45 36.5 -72.5t107.5 -27.5q67 0 137 19l25 -102q-74 -27 -164 -27q-131 0 -206 66q-61 -66 -171 -66q-92 0 -147 44.5t-55 107.5q0 70 41 107t117 37h140v29q0 38 -23 53t-86 15q-67 0 -150 -10l-11 104q92 17 175 17q124 0 183 -53q64 53 153 53
q106 0 168.5 -69.5t62.5 -186.5v-38zM670 291q-5 45 -29.5 71t-66.5 26q-40 0 -67 -25t-34 -72h197zM333 179v19h-88q-66 0 -66 -54t66 -54q40 0 64 25t24 64z" />
    <glyph glyph-name="ccedilla" unicode="&#xe7;" horiz-adv-x="486" 
d="M306 -181q-47 0 -83 12l8 48q30 -6 48 -6q35 0 35 23q0 20 -33 20q-15 0 -43 -2l27 80q-105 13 -169 82.5t-64 167.5q0 108 77 180t198 72q68 0 129 -25l-23 -102q-49 14 -94 14q-71 0 -107.5 -38t-36.5 -101t36.5 -101.5t107.5 -38.5q41 0 94 15l23 -102
q-56 -23 -118 -25l-10 -32q9 3 24 3q35 0 55.5 -17.5t20.5 -50.5q0 -38 -27.5 -57t-74.5 -19z" />
    <glyph glyph-name="egrave" unicode="&#xe8;" horiz-adv-x="542" 
d="M504 202h-333q0 -45 36.5 -72.5t107.5 -27.5q67 0 137 19l25 -102q-74 -27 -164 -27q-134 0 -207.5 68t-73.5 184q0 104 66 178t175 74q106 0 168.5 -69.5t62.5 -186.5v-38zM369 291q-5 45 -29.5 71t-66.5 26q-40 0 -67 -25t-34 -72h197zM199 537l-133 133h171l83 -133
h-121z" />
    <glyph glyph-name="eacute" unicode="&#xe9;" horiz-adv-x="542" 
d="M504 202h-333q0 -45 36.5 -72.5t107.5 -27.5q67 0 137 19l25 -102q-74 -27 -164 -27q-134 0 -207.5 68t-73.5 184q0 104 66 178t175 74q106 0 168.5 -69.5t62.5 -186.5v-38zM369 291q-5 45 -29.5 71t-66.5 26q-40 0 -67 -25t-34 -72h197zM220 537l83 133h171l-133 -133
h-121z" />
    <glyph glyph-name="ecircumflex" unicode="&#xea;" horiz-adv-x="542" 
d="M504 202h-333q0 -45 36.5 -72.5t107.5 -27.5q67 0 137 19l25 -102q-74 -27 -164 -27q-134 0 -207.5 68t-73.5 184q0 104 66 178t175 74q106 0 168.5 -69.5t62.5 -186.5v-38zM369 291q-5 45 -29.5 71t-66.5 26q-40 0 -67 -25t-34 -72h197zM106 537l112 133h104l112 -133
h-119l-45 56l-45 -56h-119z" />
    <glyph glyph-name="edieresis" unicode="&#xeb;" horiz-adv-x="542" 
d="M504 202h-333q0 -45 36.5 -72.5t107.5 -27.5q67 0 137 19l25 -102q-74 -27 -164 -27q-134 0 -207.5 68t-73.5 184q0 104 66 178t175 74q106 0 168.5 -69.5t62.5 -186.5v-38zM369 291q-5 45 -29.5 71t-66.5 26q-40 0 -67 -25t-34 -72h197zM312 540v125h124v-125h-124z
M107 540v125h124v-125h-124z" />
    <glyph glyph-name="igrave" unicode="&#xec;" horiz-adv-x="283" 
d="M213 0h-143v487h143v-487zM76 537l-133 133h171l83 -133h-121z" />
    <glyph glyph-name="iacute" unicode="&#xed;" horiz-adv-x="283" 
d="M213 0h-143v487h143v-487zM83 537l83 133h171l-133 -133h-121z" />
    <glyph glyph-name="icircumflex" unicode="&#xee;" horiz-adv-x="283" 
d="M213 0h-143v487h143v-487zM-24 537l113 133h104l112 -133h-119l-45 56l-45 -56h-120z" />
    <glyph glyph-name="idieresis" unicode="&#xef;" horiz-adv-x="283" 
d="M213 0h-143v487h143v-487zM183 540v125h124v-125h-124zM-23 540v125h125v-125h-125z" />
    <glyph glyph-name="eth" unicode="&#xf0;" horiz-adv-x="564" 
d="M271 -8q-109 0 -173.5 76t-64.5 176q0 96 56.5 163.5t152.5 67.5q44 0 82 -14.5t57 -40.5q-13 47 -60 102l-116 -30l-25 93l60 15q-33 28 -89 66h165q25 -12 53 -34l99 25l25 -91l-48 -12q86 -120 86 -269q0 -81 -25 -144.5t-85.5 -106t-149.5 -42.5zM385 244
q0 53 -28.5 86t-75.5 33q-49 0 -76 -33t-27 -86q0 -61 27 -101t76 -40q47 0 75.5 38.5t28.5 102.5z" />
    <glyph glyph-name="ntilde" unicode="&#xf1;" horiz-adv-x="597" 
d="M532 0h-144v281q0 88 -77 88q-36 0 -67 -27t-31 -63v-279h-143v487h139v-73q23 34 68.5 58t96.5 24q80 0 119 -51t39 -141v-304zM117 557q8 60 29.5 92t64.5 32q31 0 87 -22q46 -19 58 -19q4 0 7 1t5.5 4t4 5.5t3.5 7t3 7.5l3 9l3 9l85 -20q-11 -62 -32 -92.5t-61 -30.5
q-25 0 -67 14q-7 2 -20.5 7.5t-21.5 8.5t-18.5 5.5t-17.5 2.5q-12 0 -17.5 -9t-12.5 -32z" />
    <glyph glyph-name="ograve" unicode="&#xf2;" horiz-adv-x="572" 
d="M540 244q0 -103 -72 -177.5t-182 -74.5t-182 74.5t-72 177.5t72 177.5t182 74.5t182 -74.5t72 -177.5zM396 244q0 64 -29.5 103t-80.5 39t-80.5 -39t-29.5 -103t29.5 -103t80.5 -39t80.5 39t29.5 103zM214 537l-133 133h171l83 -133h-121z" />
    <glyph glyph-name="oacute" unicode="&#xf3;" horiz-adv-x="572" 
d="M540 244q0 -103 -72 -177.5t-182 -74.5t-182 74.5t-72 177.5t72 177.5t182 74.5t182 -74.5t72 -177.5zM396 244q0 64 -29.5 103t-80.5 39t-80.5 -39t-29.5 -103t29.5 -103t80.5 -39t80.5 39t29.5 103zM235 537l83 133h171l-133 -133h-121z" />
    <glyph glyph-name="ocircumflex" unicode="&#xf4;" horiz-adv-x="572" 
d="M540 244q0 -103 -72 -177.5t-182 -74.5t-182 74.5t-72 177.5t72 177.5t182 74.5t182 -74.5t72 -177.5zM396 244q0 64 -29.5 103t-80.5 39t-80.5 -39t-29.5 -103t29.5 -103t80.5 -39t80.5 39t29.5 103zM121 537l112 133h104l112 -133h-119l-45 56l-45 -56h-119z" />
    <glyph glyph-name="otilde" unicode="&#xf5;" horiz-adv-x="572" 
d="M540 244q0 -103 -72 -177.5t-182 -74.5t-182 74.5t-72 177.5t72 177.5t182 74.5t182 -74.5t72 -177.5zM396 244q0 64 -29.5 103t-80.5 39t-80.5 -39t-29.5 -103t29.5 -103t80.5 -39t80.5 39t29.5 103zM104 557q8 60 29.5 92t64.5 32q31 0 87 -22q46 -19 58 -19q4 0 7 1
t5.5 4t4 5.5t3.5 7t3 7.5l3 9l3 9l85 -20q-11 -62 -32 -92.5t-61 -30.5q-25 0 -67 14q-7 2 -20.5 7.5t-21.5 8.5t-18.5 5.5t-17.5 2.5q-12 0 -17.5 -9t-12.5 -32z" />
    <glyph glyph-name="odieresis" unicode="&#xf6;" horiz-adv-x="572" 
d="M540 244q0 -103 -72 -177.5t-182 -74.5t-182 74.5t-72 177.5t72 177.5t182 74.5t182 -74.5t72 -177.5zM396 244q0 64 -29.5 103t-80.5 39t-80.5 -39t-29.5 -103t29.5 -103t80.5 -39t80.5 39t29.5 103zM327 540v125h124v-125h-124zM122 540v125h124v-125h-124z" />
    <glyph glyph-name="divide" unicode="&#xf7;" horiz-adv-x="577" 
d="M527 191h-477v96h477v-96zM361 409q0 -30 -21.5 -51.5t-51.5 -21.5t-51 21.5t-21 51.5t21 51t51 21t51.5 -21t21.5 -51zM361 69q0 -30 -21.5 -51t-51.5 -21t-51 21t-21 51t21 51t51 21t51.5 -21t21.5 -51z" />
    <glyph glyph-name="oslash" unicode="&#xf8;" horiz-adv-x="572" 
d="M540 244q0 -103 -72 -177.5t-182 -74.5q-96 0 -165 59l-60 -59l-29 29l60 59q-60 71 -60 164q0 103 72 177.5t182 74.5q96 0 166 -60l60 60l28 -29l-60 -59q60 -71 60 -164zM396 244q0 38 -11 69l-177 -175q30 -36 78 -36q51 0 80.5 39t29.5 103zM364 350q-29 35 -78 35
q-51 0 -80.5 -38.5t-29.5 -102.5q0 -39 11 -70z" />
    <glyph glyph-name="ugrave" unicode="&#xf9;" horiz-adv-x="598" 
d="M528 0h-140v73q-23 -34 -68 -57.5t-96 -23.5q-80 0 -119.5 50.5t-39.5 140.5v304h144v-281q0 -87 77 -87q36 0 67 26.5t31 62.5v279h144v-487zM236 537l-133 133h171l83 -133h-121z" />
    <glyph glyph-name="uacute" unicode="&#xfa;" horiz-adv-x="598" 
d="M528 0h-140v73q-23 -34 -68 -57.5t-96 -23.5q-80 0 -119.5 50.5t-39.5 140.5v304h144v-281q0 -87 77 -87q36 0 67 26.5t31 62.5v279h144v-487zM230 537l83 133h171l-133 -133h-121z" />
    <glyph glyph-name="ucircumflex" unicode="&#xfb;" horiz-adv-x="598" 
d="M528 0h-140v73q-23 -34 -68 -57.5t-96 -23.5q-80 0 -119.5 50.5t-39.5 140.5v304h144v-281q0 -87 77 -87q36 0 67 26.5t31 62.5v279h144v-487zM131 537l112 133h104l112 -133h-119l-45 56l-45 -56h-119z" />
    <glyph glyph-name="udieresis" unicode="&#xfc;" horiz-adv-x="598" 
d="M528 0h-140v73q-23 -34 -68 -57.5t-96 -23.5q-80 0 -119.5 50.5t-39.5 140.5v304h144v-281q0 -87 77 -87q36 0 67 26.5t31 62.5v279h144v-487zM337 540v125h124v-125h-124zM132 540v125h124v-125h-124z" />
    <glyph glyph-name="yacute" unicode="&#xfd;" horiz-adv-x="507" 
d="M500 487l-237 -650h-139l59 164l-181 486h139l112 -332l108 332h139zM183 537l83 133h171l-133 -133h-121z" />
    <glyph glyph-name="thorn" unicode="&#xfe;" horiz-adv-x="599" 
d="M567 244q0 -103 -56.5 -177.5t-153.5 -74.5q-86 0 -143 71v-225h-144v828h144v-243q61 73 143 73q96 0 153 -76.5t57 -175.5zM424 244q0 61 -27 101t-77 40q-47 0 -76.5 -39t-29.5 -102q0 -64 29 -103t77 -39q50 0 77 40.5t27 101.5z" />
    <glyph glyph-name="ydieresis" unicode="&#xff;" horiz-adv-x="507" 
d="M500 487l-237 -650h-139l59 164l-181 486h139l112 -332l108 332h139zM291 540v125h124v-125h-124zM86 540v125h124v-125h-124z" />
    <glyph glyph-name="Amacron" unicode="&#x100;" horiz-adv-x="663" 
d="M653 0h-147l-51 137h-246l-52 -137h-147l253 666h138zM418 250l-86 266l-87 -266h173zM180 732v95h304v-95h-304z" />
    <glyph glyph-name="amacron" unicode="&#x101;" horiz-adv-x="526" 
d="M333 179v13h-88q-67 0 -67 -52q0 -50 67 -50q40 0 64 25t24 64zM476 0h-136v52q-50 -60 -141 -60q-72 0 -118 41.5t-46 103.5q0 70 41 107t117 37h140v36q0 38 -23 53t-86 15q-67 0 -150 -10l-11 104q92 17 175 17q238 0 238 -184v-312zM114 553v95h304v-95h-304z" />
    <glyph glyph-name="Abreve" unicode="&#x102;" horiz-adv-x="663" 
d="M653 0h-147l-51 137h-246l-52 -137h-147l253 666h138zM418 250l-86 266l-87 -266h173zM187 842h88q0 -25 14 -41t42 -16q56 0 56 57h90q0 -58 -41.5 -92t-104.5 -34t-103.5 33.5t-40.5 92.5z" />
    <glyph glyph-name="abreve" unicode="&#x103;" horiz-adv-x="526" 
d="M333 179v13h-88q-67 0 -67 -52q0 -50 67 -50q40 0 64 25t24 64zM476 0h-136v52q-50 -60 -141 -60q-72 0 -118 41.5t-46 103.5q0 70 41 107t117 37h140v36q0 38 -23 53t-86 15q-67 0 -150 -10l-11 104q92 17 175 17q238 0 238 -184v-312zM120 663h88q0 -25 14 -41t42 -16
q56 0 56 57h90q0 -58 -41.5 -92t-104.5 -34t-103.5 33.5t-40.5 92.5z" />
    <glyph glyph-name="Aogonek" unicode="&#x104;" horiz-adv-x="663" 
d="M418 250l-86 266l-87 -266h173zM506 0l-51 137h-246l-52 -137h-147l253 666h138l252 -666h-86q-45 -40 -45 -79q0 -17 10 -26.5t27 -9.5q14 0 29 5l7 -59q-22 -12 -67 -12q-49 0 -76.5 23.5t-27.5 59.5q0 34 23 59.5t59 38.5z" />
    <glyph glyph-name="aogonek" unicode="&#x105;" horiz-adv-x="526" 
d="M333 179v13h-88q-67 0 -67 -52q0 -50 67 -50q40 0 64 25t24 64zM340 0v52q-50 -60 -141 -60q-72 0 -118 41.5t-46 103.5q0 70 41 107t117 37h140v36q0 38 -23 53t-86 15q-67 0 -150 -10l-11 104q92 17 175 17q238 0 238 -184v-312h-75q-45 -40 -45 -79q0 -17 10 -26.5
t27 -9.5q14 0 29 5l7 -59q-22 -12 -67 -12q-49 0 -76.5 23.5t-27.5 59.5q0 34 23 59.5t59 38.5z" />
    <glyph glyph-name="Cacute" unicode="&#x106;" horiz-adv-x="660" 
d="M605 647l-33 -124q-71 20 -140 20q-119 0 -180.5 -57.5t-61.5 -152.5t61.5 -153t180.5 -58q69 0 140 20l30 -122q-87 -31 -191 -31q-162 0 -266.5 99.5t-104.5 244.5t104 244t267 99q113 0 194 -29zM343 716l83 133h171l-133 -133h-121z" />
    <glyph glyph-name="cacute" unicode="&#x107;" horiz-adv-x="486" 
d="M436 17q-62 -25 -129 -25q-121 0 -198 72t-77 180t77 180t198 72q68 0 129 -25l-23 -102q-49 14 -94 14q-71 0 -107.5 -38t-36.5 -101t36.5 -101.5t107.5 -38.5q41 0 94 15zM223 537l83 133h171l-133 -133h-121z" />
    <glyph glyph-name="Ccircumflex" unicode="&#x108;" horiz-adv-x="660" 
d="M605 647l-33 -124q-71 20 -140 20q-119 0 -180.5 -57.5t-61.5 -152.5t61.5 -153t180.5 -58q69 0 140 20l30 -122q-87 -31 -191 -31q-162 0 -266.5 99.5t-104.5 244.5t104 244t267 99q113 0 194 -29zM220 716l112 133h104l112 -133h-119l-45 56l-45 -56h-119z" />
    <glyph glyph-name="ccircumflex" unicode="&#x109;" horiz-adv-x="486" 
d="M436 17q-62 -25 -129 -25q-121 0 -198 72t-77 180t77 180t198 72q68 0 129 -25l-23 -102q-49 14 -94 14q-71 0 -107.5 -38t-36.5 -101t36.5 -101.5t107.5 -38.5q41 0 94 15zM109 537l112 133h104l112 -133h-119l-45 56l-45 -56h-119z" />
    <glyph glyph-name="Cdotaccent" unicode="&#x10a;" horiz-adv-x="660" 
d="M605 647l-33 -124q-71 20 -140 20q-119 0 -180.5 -57.5t-61.5 -152.5t61.5 -153t180.5 -58q69 0 140 20l30 -122q-87 -31 -191 -31q-162 0 -266.5 99.5t-104.5 244.5t104 244t267 99q113 0 194 -29zM313 723v122h145v-122h-145z" />
    <glyph glyph-name="cdotaccent" unicode="&#x10b;" horiz-adv-x="486" 
d="M436 17q-62 -25 -129 -25q-121 0 -198 72t-77 180t77 180t198 72q68 0 129 -25l-23 -102q-49 14 -94 14q-71 0 -107.5 -38t-36.5 -101t36.5 -101.5t107.5 -38.5q41 0 94 15zM214 544v122h145v-122h-145z" />
    <glyph glyph-name="Ccaron" unicode="&#x10c;" horiz-adv-x="660" 
d="M605 647l-33 -124q-71 20 -140 20q-119 0 -180.5 -57.5t-61.5 -152.5t61.5 -153t180.5 -58q69 0 140 20l30 -122q-87 -31 -191 -31q-162 0 -266.5 99.5t-104.5 244.5t104 244t267 99q113 0 194 -29zM230 849h119l45 -56l45 56h119l-112 -133h-104z" />
    <glyph glyph-name="ccaron" unicode="&#x10d;" horiz-adv-x="486" 
d="M436 17q-62 -25 -129 -25q-121 0 -198 72t-77 180t77 180t198 72q68 0 129 -25l-23 -102q-49 14 -94 14q-71 0 -107.5 -38t-36.5 -101t36.5 -101.5t107.5 -38.5q41 0 94 15zM122 670h119l45 -56l45 56h119l-112 -133h-104z" />
    <glyph glyph-name="Dcaron" unicode="&#x10e;" horiz-adv-x="703" 
d="M673 333q0 -147 -117.5 -240t-309.5 -93h-156v666h156q192 0 309.5 -93t117.5 -240zM517 333q0 101 -68.5 150.5t-174.5 49.5h-34v-400h34q106 0 174.5 49.5t68.5 150.5zM177 849h119l45 -56l45 56h119l-112 -133h-104z" />
    <glyph glyph-name="dcaron" unicode="&#x10f;" horiz-adv-x="780" 
d="M530 0h-144v65q-61 -73 -143 -73q-96 0 -153.5 76.5t-57.5 175.5q0 103 57 177.5t154 74.5q86 0 143 -71v241h144v-666zM386 244q0 64 -28.5 102.5t-77.5 38.5q-50 0 -77 -40t-27 -101t27 -101.5t77 -40.5q47 0 76.5 39.5t29.5 102.5zM621 666h144v-130l-63 -113h-68
l50 113h-63v130z" />
    <glyph glyph-name="Dcroat" unicode="&#x110;" horiz-adv-x="718" 
d="M261 0h-156v272h-80v125h80v269h156q192 0 309.5 -93t117.5 -240t-117.5 -240t-309.5 -93zM255 133h34q106 0 174.5 49.5t68.5 150.5t-68.5 150.5t-174.5 49.5h-34v-136h151v-125h-151v-139z" />
    <glyph glyph-name="dcroat" unicode="&#x111;" horiz-adv-x="620" 
d="M386 244q0 64 -28.5 102.5t-77.5 38.5q-50 0 -77 -40t-27 -101t27 -101.5t77 -40.5q47 0 76.5 39.5t29.5 102.5zM386 65q-61 -73 -143 -73q-96 0 -153.5 76.5t-57.5 175.5q0 103 57 177.5t154 74.5q86 0 143 -71v91h-98v99h98v51h144v-51h70v-99h-70v-516h-144v65z" />
    <glyph glyph-name="Emacron" unicode="&#x112;" horiz-adv-x="639" 
d="M579 0h-489v666h489v-129h-339v-129h320v-129h-320v-150h339v-129zM192 732v95h304v-95h-304z" />
    <glyph glyph-name="emacron" unicode="&#x113;" horiz-adv-x="542" 
d="M504 202h-333q0 -45 36.5 -72.5t107.5 -27.5q67 0 137 19l25 -102q-74 -27 -164 -27q-134 0 -207.5 68t-73.5 184q0 104 66 178t175 74q106 0 168.5 -69.5t62.5 -186.5v-38zM369 291q-5 45 -29.5 71t-66.5 26q-40 0 -67 -25t-34 -72h197zM119 553v95h304v-95h-304z" />
    <glyph glyph-name="Ebreve" unicode="&#x114;" horiz-adv-x="639" 
d="M579 0h-489v666h489v-129h-339v-129h320v-129h-320v-150h339v-129zM199 842h88q0 -25 14 -41t42 -16q56 0 56 57h90q0 -58 -41.5 -92t-104.5 -34t-103.5 33.5t-40.5 92.5z" />
    <glyph glyph-name="ebreve" unicode="&#x115;" horiz-adv-x="542" 
d="M504 202h-333q0 -45 36.5 -72.5t107.5 -27.5q67 0 137 19l25 -102q-74 -27 -164 -27q-134 0 -207.5 68t-73.5 184q0 104 66 178t175 74q106 0 168.5 -69.5t62.5 -186.5v-38zM369 291q-5 45 -29.5 71t-66.5 26q-40 0 -67 -25t-34 -72h197zM126 663h88q0 -25 14 -41t42 -16
q56 0 56 57h90q0 -58 -41.5 -92t-104.5 -34t-103.5 33.5t-40.5 92.5z" />
    <glyph glyph-name="Edotaccent" unicode="&#x116;" horiz-adv-x="639" 
d="M579 0h-489v666h489v-129h-339v-129h320v-129h-320v-150h339v-129zM272 723v122h145v-122h-145z" />
    <glyph glyph-name="edotaccent" unicode="&#x117;" horiz-adv-x="542" 
d="M504 202h-333q0 -45 36.5 -72.5t107.5 -27.5q67 0 137 19l25 -102q-74 -27 -164 -27q-134 0 -207.5 68t-73.5 184q0 104 66 178t175 74q106 0 168.5 -69.5t62.5 -186.5v-38zM369 291q-5 45 -29.5 71t-66.5 26q-40 0 -67 -25t-34 -72h197zM199 544v122h145v-122h-145z" />
    <glyph glyph-name="Eogonek" unicode="&#x118;" horiz-adv-x="639" 
d="M470 0h-380v666h489v-129h-339v-129h320v-129h-320v-150h339v-129h-48q-45 -40 -45 -79q0 -17 10 -26.5t27 -9.5q14 0 29 5l7 -59q-22 -12 -67 -12q-49 0 -76.5 23.5t-27.5 59.5q0 34 23 59.5t59 38.5z" />
    <glyph glyph-name="eogonek" unicode="&#x119;" horiz-adv-x="542" 
d="M413 -181q-49 0 -76.5 23.5t-27.5 59.5q0 34 24.5 59.5t56.5 35.5q-40 -5 -77 -5q-134 0 -207.5 68t-73.5 184q0 104 66 178t175 74q106 0 168.5 -69.5t62.5 -186.5v-38h-333q0 -45 36.5 -72.5t107.5 -27.5q67 0 137 19l25 -102q-35 -26 -52.5 -48t-17.5 -50
q0 -17 10 -26.5t27 -9.5q14 0 29 5l7 -59q-22 -12 -67 -12zM369 291q-5 45 -29.5 71t-66.5 26q-40 0 -67 -25t-34 -72h197z" />
    <glyph glyph-name="Ecaron" unicode="&#x11a;" horiz-adv-x="639" 
d="M579 0h-489v666h489v-129h-339v-129h320v-129h-320v-150h339v-129zM180 849h119l45 -56l45 56h119l-112 -133h-104z" />
    <glyph glyph-name="ecaron" unicode="&#x11b;" horiz-adv-x="542" 
d="M504 202h-333q0 -45 36.5 -72.5t107.5 -27.5q67 0 137 19l25 -102q-74 -27 -164 -27q-134 0 -207.5 68t-73.5 184q0 104 66 178t175 74q106 0 168.5 -69.5t62.5 -186.5v-38zM369 291q-5 45 -29.5 71t-66.5 26q-40 0 -67 -25t-34 -72h197zM107 670h119l45 -56l45 56h119
l-112 -133h-104z" />
    <glyph glyph-name="Gcircumflex" unicode="&#x11c;" horiz-adv-x="702" 
d="M642 20q-38 -12 -107.5 -21.5t-117.5 -9.5q-172 0 -274.5 98t-102.5 245q0 152 106.5 248t268.5 96q106 0 193 -21l-20 -126q-78 14 -154 14q-122 0 -183 -54t-61 -157q0 -93 57 -151.5t157 -58.5q57 0 98 7v214h140v-323zM217 716l112 133h104l112 -133h-119l-45 56
l-45 -56h-119z" />
    <glyph glyph-name="gcircumflex" unicode="&#x11d;" horiz-adv-x="594" 
d="M529 63q0 -112 -74.5 -172.5t-203.5 -60.5q-99 0 -165 20l17 100q67 -18 131 -18q152 0 152 110v31q-53 -64 -144 -64q-96 0 -153 72.5t-57 170.5q0 102 56.5 173t153.5 71q87 0 144 -71v62h143v-424zM386 244q0 64 -28.5 102.5t-77.5 38.5q-50 0 -77 -36.5t-27 -96.5
t27 -96.5t77 -36.5q48 0 77 31.5t29 93.5zM132 537l112 133h104l112 -133h-119l-45 56l-45 -56h-119z" />
    <glyph glyph-name="Gbreve" unicode="&#x11e;" horiz-adv-x="702" 
d="M642 20q-38 -12 -107.5 -21.5t-117.5 -9.5q-172 0 -274.5 98t-102.5 245q0 152 106.5 248t268.5 96q106 0 193 -21l-20 -126q-78 14 -154 14q-122 0 -183 -54t-61 -157q0 -93 57 -151.5t157 -58.5q57 0 98 7v214h140v-323zM245 842h88q0 -25 14 -41t42 -16q56 0 56 57h90
q0 -58 -41.5 -92t-104.5 -34t-103.5 33.5t-40.5 92.5z" />
    <glyph glyph-name="gbreve" unicode="&#x11f;" horiz-adv-x="594" 
d="M529 63q0 -112 -74.5 -172.5t-203.5 -60.5q-99 0 -165 20l17 100q67 -18 131 -18q152 0 152 110v31q-53 -64 -144 -64q-96 0 -153 72.5t-57 170.5q0 102 56.5 173t153.5 71q87 0 144 -71v62h143v-424zM386 244q0 64 -28.5 102.5t-77.5 38.5q-50 0 -77 -36.5t-27 -96.5
t27 -96.5t77 -36.5q48 0 77 31.5t29 93.5zM152 663h88q0 -25 14 -41t42 -16q56 0 56 57h90q0 -58 -41.5 -92t-104.5 -34t-103.5 33.5t-40.5 92.5z" />
    <glyph glyph-name="Gdotaccent" unicode="&#x120;" horiz-adv-x="702" 
d="M642 20q-38 -12 -107.5 -21.5t-117.5 -9.5q-172 0 -274.5 98t-102.5 245q0 152 106.5 248t268.5 96q106 0 193 -21l-20 -126q-78 14 -154 14q-122 0 -183 -54t-61 -157q0 -93 57 -151.5t157 -58.5q57 0 98 7v214h140v-323zM310 723v122h145v-122h-145z" />
    <glyph glyph-name="gdotaccent" unicode="&#x121;" horiz-adv-x="594" 
d="M529 63q0 -112 -74.5 -172.5t-203.5 -60.5q-99 0 -165 20l17 100q67 -18 131 -18q152 0 152 110v31q-53 -64 -144 -64q-96 0 -153 72.5t-57 170.5q0 102 56.5 173t153.5 71q87 0 144 -71v62h143v-424zM386 244q0 64 -28.5 102.5t-77.5 38.5q-50 0 -77 -36.5t-27 -96.5
t27 -96.5t77 -36.5q48 0 77 31.5t29 93.5zM225 544v122h145v-122h-145z" />
    <glyph glyph-name="uni0122" unicode="&#x122;" horiz-adv-x="702" 
d="M642 20q-38 -12 -107.5 -21.5t-117.5 -9.5q-172 0 -274.5 98t-102.5 245q0 152 106.5 248t268.5 96q106 0 193 -21l-20 -126q-78 14 -154 14q-122 0 -183 -54t-61 -157q0 -93 57 -151.5t157 -58.5q57 0 98 7v214h140v-323zM347 -67h140v-123l-67 -107h-67l52 107h-58v123
z" />
    <glyph glyph-name="uni0123" unicode="&#x123;" horiz-adv-x="594" 
d="M529 63q0 -112 -74.5 -172.5t-203.5 -60.5q-99 0 -165 20l17 100q67 -18 131 -18q152 0 152 110v31q-53 -64 -144 -64q-96 0 -153 72.5t-57 170.5q0 102 56.5 173t153.5 71q87 0 144 -71v62h143v-424zM386 244q0 64 -28.5 102.5t-77.5 38.5q-50 0 -77 -36.5t-27 -96.5
t27 -96.5t77 -36.5q48 0 77 31.5t29 93.5zM206 537l133 133h121l-83 -133h-171z" />
    <glyph glyph-name="Hcircumflex" unicode="&#x124;" horiz-adv-x="769" 
d="M679 0h-150v269h-289v-269h-150v666h150v-264h289v264h150v-666zM220 716l112 133h104l112 -133h-119l-45 56l-45 -56h-119z" />
    <glyph glyph-name="hcircumflex" unicode="&#x125;" horiz-adv-x="597" 
d="M532 0h-143v281q0 88 -77 88q-36 0 -67 -27t-31 -63v-279h-144v666h139v-252q23 34 68.5 58t96.5 24q80 0 119 -51t39 -141v-304zM-26 716l112 133h104l112 -133h-119l-45 56l-45 -56h-119z" />
    <glyph glyph-name="Hbar" unicode="&#x126;" horiz-adv-x="809" 
d="M260 402h289v72h-289v-72zM260 269v-269h-150v474h-65v107h65v85h150v-85h289v85h150v-85h65v-107h-65v-474h-150v269h-289z" />
    <glyph glyph-name="hbar" unicode="&#x127;" horiz-adv-x="612" 
d="M229 279v-279h-144v516h-70v99h70v51h139v-51h92v-99h-92v-102q23 34 68.5 58t96.5 24q80 0 119 -51t39 -141v-304h-143v281q0 88 -77 88q-36 0 -67 -27t-31 -63z" />
    <glyph glyph-name="Itilde" unicode="&#x128;" horiz-adv-x="340" 
d="M245 0h-150v666h150v-666zM-12 736q8 60 29.5 92t64.5 32q31 0 87 -22q46 -19 58 -19q4 0 7 1t5.5 4t4 5.5t3.5 7t3 7.5l3 9l3 9l85 -20q-11 -62 -32 -92.5t-61 -30.5q-25 0 -67 14q-7 2 -20.5 7.5t-21.5 8.5t-18.5 5.5t-17.5 2.5q-12 0 -17.5 -9t-12.5 -32z" />
    <glyph glyph-name="itilde" unicode="&#x129;" horiz-adv-x="283" 
d="M213 0h-143v487h143v-487zM-41 557q8 60 30 92t65 32q31 0 87 -22q46 -19 58 -19q4 0 7 1t5.5 4t4 5.5t3.5 7t3 7.5l3 9l3 9l85 -20q-11 -62 -32 -92.5t-61 -30.5q-25 0 -67 14q-7 2 -20.5 7.5t-21.5 8.5t-18.5 5.5t-17.5 2.5q-12 0 -17.5 -9t-12.5 -32z" />
    <glyph glyph-name="Imacron" unicode="&#x12a;" horiz-adv-x="340" 
d="M245 0h-150v666h150v-666zM18 732v95h304v-95h-304z" />
    <glyph glyph-name="imacron" unicode="&#x12b;" horiz-adv-x="283" 
d="M213 0h-143v487h143v-487zM-11 553v95h305v-95h-305z" />
    <glyph glyph-name="Ibreve" unicode="&#x12c;" horiz-adv-x="340" 
d="M245 0h-150v666h150v-666zM25 842h88q0 -25 14 -41t42 -16q56 0 56 57h90q0 -58 -41.5 -92t-104.5 -34t-103.5 33.5t-40.5 92.5z" />
    <glyph glyph-name="ibreve" unicode="&#x12d;" horiz-adv-x="283" 
d="M213 0h-143v487h143v-487zM-4 663h89q0 -25 14 -41t42 -16q56 0 56 57h90q0 -58 -41.5 -92t-104.5 -34t-104 34t-41 92z" />
    <glyph glyph-name="Iogonek" unicode="&#x12e;" horiz-adv-x="340" 
d="M95 0v666h150v-666h-89q-25 -39 -25 -81q0 -34 27 -34q14 0 26 4l7 -59q-31 -11 -67 -11q-44 0 -67.5 23t-23.5 60q0 62 62 98z" />
    <glyph glyph-name="iogonek" unicode="&#x12f;" horiz-adv-x="284" 
d="M214 568h-144v123h144v-123zM70 0v487h144v-487h-83q-25 -39 -25 -81q0 -34 27 -34q14 0 26 4l7 -59q-31 -11 -67 -11q-44 0 -67.5 23t-23.5 60q0 62 62 98z" />
    <glyph glyph-name="Idotaccent" unicode="&#x130;" horiz-adv-x="340" 
d="M245 0h-150v666h150v-666zM98 723v122h145v-122h-145z" />
    <glyph glyph-name="dotlessi" unicode="&#x131;" horiz-adv-x="283" 
d="M213 0h-143v487h143v-487z" />
    <glyph glyph-name="IJ" unicode="&#x132;" horiz-adv-x="787" 
d="M245 0h-150v666h150v-666zM707 212q0 -216 -223 -216h-94v116h90q77 0 77 102v329h-154v123h304v-454z" />
    <glyph glyph-name="ij" unicode="&#x133;" horiz-adv-x="569" 
d="M214 0h-144v487h144v-487zM214 568h-144v123h144v-123zM504 -4q0 -83 -46.5 -125t-121.5 -42q-42 0 -72 4v112q18 -3 44 -3q31 0 41.5 15t10.5 57v473h144v-491zM504 568h-144v123h144v-123z" />
    <glyph glyph-name="Jcircumflex" unicode="&#x134;" horiz-adv-x="447" 
d="M367 212q0 -216 -223 -216h-94v116h90q77 0 77 102v329h-154v123h304v-454zM59 716l112 133h104l112 -133h-119l-45 56l-45 -56h-119z" />
    <glyph glyph-name="jcircumflex" unicode="&#x135;" horiz-adv-x="285" 
d="M220 -4q0 -83 -46.5 -125t-121.5 -42q-42 0 -72 4v112q18 -3 44 -3q31 0 41.5 15t10.5 57v473h144v-491zM-14 537l112 133h104l112 -133h-119l-45 56l-45 -56h-119z" />
    <glyph glyph-name="uni0136" unicode="&#x136;" horiz-adv-x="709" 
d="M699 0h-198l-261 273v-273h-150v666h150v-259l248 259h198l-326 -323zM290 -67h140v-123l-67 -107h-67l52 107h-58v123z" />
    <glyph glyph-name="uni0137" unicode="&#x137;" horiz-adv-x="568" 
d="M558 0h-166l-179 191v-191h-143v666h143v-362l171 183h167l-225 -240zM222 -67h140v-123l-67 -107h-67l52 107h-58v123z" />
    <glyph glyph-name="kgreenlandic" unicode="&#x138;" horiz-adv-x="568" 
d="M558 0h-166l-179 191v-191h-143v487h143v-183l171 183h167l-225 -240z" />
    <glyph glyph-name="Lacute" unicode="&#x139;" horiz-adv-x="581" 
d="M561 0h-471v666h150v-537h321v-129zM105 716l83 133h171l-133 -133h-121z" />
    <glyph glyph-name="lacute" unicode="&#x13a;" horiz-adv-x="345" 
d="M305 -4q-37 -5 -72 -5q-75 0 -121.5 42t-46.5 125v508h143v-489q0 -41 10.5 -56.5t42.5 -15.5t44 2v-111zM76 716l83 133h171l-133 -133h-121z" />
    <glyph glyph-name="uni013B" unicode="&#x13b;" horiz-adv-x="581" 
d="M561 0h-471v666h150v-537h321v-129zM261 -67h140v-123l-67 -107h-67l52 107h-58v123z" />
    <glyph glyph-name="uni013C" unicode="&#x13c;" horiz-adv-x="345" 
d="M305 -4q-37 -5 -72 -5q-75 0 -121.5 42t-46.5 125v508h143v-489q0 -41 10.5 -56.5t42.5 -15.5t44 2v-111zM112 -67h140v-123l-67 -107h-67l52 107h-58v123z" />
    <glyph glyph-name="Lcaron" unicode="&#x13d;" horiz-adv-x="581" 
d="M561 0h-471v666h150v-537h321v-129zM367 666h144v-130l-63 -113h-68l50 113h-63v130z" />
    <glyph glyph-name="lcaron" unicode="&#x13e;" horiz-adv-x="433" 
d="M305 -4q-37 -5 -72 -5q-75 0 -121.5 42t-46.5 125v508h143v-489q0 -41 10.5 -56.5t42.5 -15.5t44 2v-111zM289 666h144v-130l-63 -113h-68l50 113h-63v130z" />
    <glyph glyph-name="Ldot" unicode="&#x13f;" horiz-adv-x="581" 
d="M561 0h-471v666h150v-537h321v-129zM493 257h-156v156h156v-156z" />
    <glyph glyph-name="ldot" unicode="&#x140;" horiz-adv-x="471" 
d="M305 -4q-37 -5 -72 -5q-75 0 -121.5 42t-46.5 125v508h143v-489q0 -41 10.5 -56.5t42.5 -15.5t44 2v-111zM456 209h-156v156h156v-156z" />
    <glyph glyph-name="Lslash" unicode="&#x141;" horiz-adv-x="590" 
d="M570 0h-471v240l-79 -28v138l79 28v288h150v-234l182 65v-138l-182 -65v-165h321v-129z" />
    <glyph glyph-name="lslash" unicode="&#x142;" horiz-adv-x="347" 
d="M235 -9q-75 0 -121.5 42t-46.5 125v103l-52 -23v139l52 23v266h143v-203l76 34v-139l-76 -34v-147q0 -41 10.5 -56.5t42.5 -15.5t44 2v-111q-37 -5 -72 -5z" />
    <glyph glyph-name="Nacute" unicode="&#x143;" horiz-adv-x="796" 
d="M706 0h-146l-322 440v-440h-148v666h146l322 -441v441h148v-666zM322 716l83 133h171l-133 -133h-121z" />
    <glyph glyph-name="nacute" unicode="&#x144;" horiz-adv-x="597" 
d="M532 0h-144v281q0 88 -77 88q-36 0 -67 -27t-31 -63v-279h-143v487h139v-73q23 34 68.5 58t96.5 24q80 0 119 -51t39 -141v-304zM227 537l83 133h171l-133 -133h-121z" />
    <glyph glyph-name="uni0145" unicode="&#x145;" horiz-adv-x="796" 
d="M706 0h-146l-322 440v-440h-148v666h146l322 -441v441h148v-666zM328 -67h140v-123l-67 -107h-67l52 107h-58v123z" />
    <glyph glyph-name="uni0146" unicode="&#x146;" horiz-adv-x="597" 
d="M532 0h-144v281q0 88 -77 88q-36 0 -67 -27t-31 -63v-279h-143v487h139v-73q23 34 68.5 58t96.5 24q80 0 119 -51t39 -141v-304zM229 -67h140v-123l-67 -107h-67l52 107h-58v123z" />
    <glyph glyph-name="Ncaron" unicode="&#x147;" horiz-adv-x="796" 
d="M706 0h-146l-322 440v-440h-148v666h146l322 -441v441h148v-666zM234 849h119l45 -56l45 56h119l-112 -133h-104z" />
    <glyph glyph-name="ncaron" unicode="&#x148;" horiz-adv-x="597" 
d="M532 0h-144v281q0 88 -77 88q-36 0 -67 -27t-31 -63v-279h-143v487h139v-73q23 34 68.5 58t96.5 24q80 0 119 -51t39 -141v-304zM135 670h119l45 -56l45 56h119l-112 -133h-104z" />
    <glyph glyph-name="napostrophe" unicode="&#x149;" horiz-adv-x="753" 
d="M688 0h-144v281q0 88 -77 88q-36 0 -67 -27t-31 -63v-279h-143v487h139v-73q23 34 68.5 58t96.5 24q80 0 119 -51t39 -141v-304zM15 666h144v-130l-63 -113h-68l50 113h-63v130z" />
    <glyph glyph-name="Eng" unicode="&#x14a;" horiz-adv-x="796" 
d="M538 -171q-42 0 -72 4v112q18 -3 44 -3q28 0 38 12.5t12 45.5l-322 440v-440h-148v666h146l322 -441v441h148v-670q0 -83 -46.5 -125t-121.5 -42z" />
    <glyph glyph-name="eng" unicode="&#x14b;" horiz-adv-x="597" 
d="M364 -171q-42 0 -72 4v112q18 -3 44 -3q31 0 41.5 15t10.5 57v267q0 88 -77 88q-36 0 -67 -27t-31 -63v-279h-143v487h139v-73q23 34 68.5 58t96.5 24q80 0 119 -51t39 -141v-308q0 -83 -46.5 -125t-121.5 -42z" />
    <glyph glyph-name="Omacron" unicode="&#x14c;" horiz-adv-x="759" 
d="M719 332q0 -143 -99 -243t-241 -100t-240.5 100t-98.5 243t98.5 243.5t240.5 100.5t241 -100.5t99 -243.5zM569 332q0 93 -50.5 152t-139.5 59t-139 -59t-50 -152t50 -151.5t139 -58.5t139.5 58.5t50.5 151.5zM228 732v95h304v-95h-304z" />
    <glyph glyph-name="omacron" unicode="&#x14d;" horiz-adv-x="572" 
d="M540 244q0 -103 -72 -177.5t-182 -74.5t-182 74.5t-72 177.5t72 177.5t182 74.5t182 -74.5t72 -177.5zM396 244q0 64 -29.5 103t-80.5 39t-80.5 -39t-29.5 -103t29.5 -103t80.5 -39t80.5 39t29.5 103zM134 553v95h304v-95h-304z" />
    <glyph glyph-name="Obreve" unicode="&#x14e;" horiz-adv-x="759" 
d="M719 332q0 -143 -99 -243t-241 -100t-240.5 100t-98.5 243t98.5 243.5t240.5 100.5t241 -100.5t99 -243.5zM569 332q0 93 -50.5 152t-139.5 59t-139 -59t-50 -152t50 -151.5t139 -58.5t139.5 58.5t50.5 151.5zM235 842h88q0 -25 14 -41t42 -16q56 0 56 57h90
q0 -58 -41.5 -92t-104.5 -34t-103.5 33.5t-40.5 92.5z" />
    <glyph glyph-name="obreve" unicode="&#x14f;" horiz-adv-x="572" 
d="M540 244q0 -103 -72 -177.5t-182 -74.5t-182 74.5t-72 177.5t72 177.5t182 74.5t182 -74.5t72 -177.5zM396 244q0 64 -29.5 103t-80.5 39t-80.5 -39t-29.5 -103t29.5 -103t80.5 -39t80.5 39t29.5 103zM141 663h88q0 -25 14 -41t42 -16q56 0 56 57h90q0 -58 -41.5 -92
t-104.5 -34t-103.5 33.5t-40.5 92.5z" />
    <glyph glyph-name="Ohungarumlaut" unicode="&#x150;" horiz-adv-x="759" 
d="M719 332q0 -143 -99 -243t-241 -100t-240.5 100t-98.5 243t98.5 243.5t240.5 100.5t241 -100.5t99 -243.5zM569 332q0 93 -50.5 152t-139.5 59t-139 -59t-50 -152t50 -151.5t139 -58.5t139.5 58.5t50.5 151.5zM425 716l89 133h158l-137 -133h-110zM212 716l89 133h157
l-135 -133h-111z" />
    <glyph glyph-name="ohungarumlaut" unicode="&#x151;" horiz-adv-x="572" 
d="M540 244q0 -103 -72 -177.5t-182 -74.5t-182 74.5t-72 177.5t72 177.5t182 74.5t182 -74.5t72 -177.5zM396 244q0 64 -29.5 103t-80.5 39t-80.5 -39t-29.5 -103t29.5 -103t80.5 -39t80.5 39t29.5 103zM331 537l89 133h158l-137 -133h-110zM118 537l89 133h157l-135 -133
h-111z" />
    <glyph glyph-name="OE" unicode="&#x152;" horiz-adv-x="1014" 
d="M954 0h-574q-143 0 -241.5 95.5t-98.5 237.5t98.5 237.5t241.5 95.5h574v-129h-339v-129h321v-129h-321v-150h339v-129zM465 133v400h-85q-90 0 -140 -54t-50 -146t50 -146t140 -54h85z" />
    <glyph glyph-name="oe" unicode="&#x153;" horiz-adv-x="907" 
d="M869 202h-334q0 -45 36.5 -72.5t107.5 -27.5q68 0 138 19l25 -102q-74 -27 -165 -27q-137 0 -212 72q-74 -72 -179 -72q-110 0 -182 74.5t-72 177.5t72 177.5t182 74.5q107 0 179 -72q67 72 173 72t168.5 -69.5t62.5 -186.5v-38zM396 244q0 64 -29.5 103t-80.5 39
t-81 -39t-30 -103t30 -103t81 -39t80.5 39t29.5 103zM733 291q-5 46 -29 71.5t-66 25.5q-40 0 -67 -25t-34 -72h196z" />
    <glyph glyph-name="Racute" unicode="&#x154;" 
d="M517 452q0 41 -27.5 67t-67.5 26h-182v-189h182q40 0 67.5 27.5t27.5 68.5zM740 0h-186l-174 239h-140v-239h-150v666h362q94 0 156.5 -62.5t62.5 -151.5q0 -63 -33 -114t-90 -77zM299 716l83 133h171l-133 -133h-121z" />
    <glyph glyph-name="racute" unicode="&#x155;" horiz-adv-x="404" 
d="M379 493l-1 -127q-26 2 -37 2q-59 0 -93 -42.5t-34 -108.5v-217h-144v487h140v-83q16 36 51.5 64t85.5 28q13 0 32 -3zM155 537l83 133h171l-133 -133h-121z" />
    <glyph glyph-name="uni0156" unicode="&#x156;" 
d="M517 452q0 41 -27.5 67t-67.5 26h-182v-189h182q40 0 67.5 27.5t27.5 68.5zM740 0h-186l-174 239h-140v-239h-150v666h362q94 0 156.5 -62.5t62.5 -151.5q0 -63 -33 -114t-90 -77zM310 -67h140v-123l-67 -107h-67l52 107h-58v123z" />
    <glyph glyph-name="uni0157" unicode="&#x157;" horiz-adv-x="404" 
d="M379 493l-1 -127q-26 2 -37 2q-59 0 -93 -42.5t-34 -108.5v-217h-144v487h140v-83q16 36 51.5 64t85.5 28q13 0 32 -3zM71 -67h140v-123l-67 -107h-67l52 107h-58v123z" />
    <glyph glyph-name="Rcaron" unicode="&#x158;" 
d="M517 452q0 41 -27.5 67t-67.5 26h-182v-189h182q40 0 67.5 27.5t27.5 68.5zM740 0h-186l-174 239h-140v-239h-150v666h362q94 0 156.5 -62.5t62.5 -151.5q0 -63 -33 -114t-90 -77zM186 849h119l45 -56l45 56h119l-112 -133h-104z" />
    <glyph glyph-name="rcaron" unicode="&#x159;" horiz-adv-x="404" 
d="M379 493l-1 -127q-26 2 -37 2q-59 0 -93 -42.5t-34 -108.5v-217h-144v487h140v-83q16 36 51.5 64t85.5 28q13 0 32 -3zM67 670h119l45 -56l45 56h119l-112 -133h-104z" />
    <glyph glyph-name="Sacute" unicode="&#x15a;" horiz-adv-x="665" 
d="M617 189q0 -92 -79 -146t-204 -54q-137 0 -279 56l31 115q137 -44 246 -44q135 0 135 69q0 25 -22 38.5t-95 40.5q-27 10 -43 16q-126 47 -175.5 88t-49.5 123q0 93 67 139t208 46q126 0 242 -34l-23 -122q-95 27 -217 27q-71 0 -99 -11.5t-28 -40.5q0 -27 26.5 -43
t115.5 -50q22 -8 34 -13q115 -45 146 -66q58 -40 62 -115q1 -9 1 -19zM282 716l83 133h171l-133 -133h-121z" />
    <glyph glyph-name="sacute" unicode="&#x15b;" horiz-adv-x="493" 
d="M458 142q0 -68 -58 -109t-152 -41q-98 0 -208 44l27 99q105 -35 180 -35q72 0 72 35q0 16 -13.5 25t-60.5 28q-113 47 -149.5 75.5t-36.5 89.5q0 143 205 143q100 0 178 -27l-19 -105q-85 24 -157 24q-41 0 -55.5 -6.5t-14.5 -21.5q0 -5 1 -9t3.5 -7.5t5 -6t8 -6t10.5 -6
t14.5 -6.5t17 -7t22 -8.5t25.5 -9.5q95 -37 125 -64t30 -88zM193 537l83 133h171l-133 -133h-121z" />
    <glyph glyph-name="Scircumflex" unicode="&#x15c;" horiz-adv-x="665" 
d="M617 189q0 -92 -79 -146t-204 -54q-137 0 -279 56l31 115q137 -44 246 -44q135 0 135 69q0 25 -22 38.5t-95 40.5q-27 10 -43 16q-126 47 -175.5 88t-49.5 123q0 93 67 139t208 46q126 0 242 -34l-23 -122q-95 27 -217 27q-71 0 -99 -11.5t-28 -40.5q0 -27 26.5 -43
t115.5 -50q22 -8 34 -13q115 -45 146 -66q58 -40 62 -115q1 -9 1 -19zM168 716l112 133h104l112 -133h-119l-45 56l-45 -56h-119z" />
    <glyph glyph-name="scircumflex" unicode="&#x15d;" horiz-adv-x="493" 
d="M458 142q0 -68 -58 -109t-152 -41q-98 0 -208 44l27 99q105 -35 180 -35q72 0 72 35q0 16 -13.5 25t-60.5 28q-113 47 -149.5 75.5t-36.5 89.5q0 143 205 143q100 0 178 -27l-19 -105q-85 24 -157 24q-41 0 -55.5 -6.5t-14.5 -21.5q0 -5 1 -9t3.5 -7.5t5 -6t8 -6t10.5 -6
t14.5 -6.5t17 -7t22 -8.5t25.5 -9.5q95 -37 125 -64t30 -88zM87 537l112 133h104l112 -133h-119l-45 56l-45 -56h-119z" />
    <glyph glyph-name="uni015E" unicode="&#x15e;" horiz-adv-x="665" 
d="M332 -181q-47 0 -83 12l8 48q30 -6 48 -6q35 0 35 23q0 20 -33 20q-15 0 -43 -2l26 77q-117 8 -235 54l31 115q137 -44 246 -44q135 0 135 69q0 25 -22 38.5t-95 40.5q-27 10 -43 16q-126 47 -175.5 88t-49.5 123q0 93 67 139t208 46q126 0 242 -34l-23 -122
q-95 27 -217 27q-71 0 -99 -11.5t-28 -40.5q0 -27 26.5 -43t115.5 -50q22 -8 34 -13q115 -45 146 -66q58 -40 62 -115q1 -9 1 -19q0 -90 -76 -144t-198 -56l-9 -29q9 3 24 3q35 0 55.5 -17.5t20.5 -50.5q0 -38 -27.5 -57t-74.5 -19z" />
    <glyph glyph-name="uni015F" unicode="&#x15f;" horiz-adv-x="493" 
d="M249 -181q-47 0 -83 12l8 48q30 -6 48 -6q35 0 35 23q0 20 -33 20q-15 0 -43 -2l27 80q-83 8 -168 42l27 99q105 -35 180 -35q72 0 72 35q0 16 -13.5 25t-60.5 28q-113 47 -149.5 75.5t-36.5 89.5q0 143 205 143q100 0 178 -27l-19 -105q-85 24 -157 24q-41 0 -55.5 -6.5
t-14.5 -21.5q0 -5 1 -9t3.5 -7.5t5 -6t8 -6t10.5 -6t14.5 -6.5t17 -7t22 -8.5t25.5 -9.5q95 -37 125 -64t30 -88q0 -66 -54 -106.5t-143 -43.5l-10 -32q9 3 24 3q35 0 55.5 -17.5t20.5 -50.5q0 -38 -27.5 -57t-74.5 -19z" />
    <glyph glyph-name="Scaron" unicode="&#x160;" horiz-adv-x="665" 
d="M617 189q0 -92 -79 -146t-204 -54q-137 0 -279 56l31 115q137 -44 246 -44q135 0 135 69q0 25 -22 38.5t-95 40.5q-27 10 -43 16q-126 47 -175.5 88t-49.5 123q0 93 67 139t208 46q126 0 242 -34l-23 -122q-95 27 -217 27q-71 0 -99 -11.5t-28 -40.5q0 -27 26.5 -43
t115.5 -50q22 -8 34 -13q115 -45 146 -66q58 -40 62 -115q1 -9 1 -19zM169 849h119l45 -56l45 56h119l-112 -133h-104z" />
    <glyph glyph-name="scaron" unicode="&#x161;" horiz-adv-x="493" 
d="M458 142q0 -68 -58 -109t-152 -41q-98 0 -208 44l27 99q105 -35 180 -35q72 0 72 35q0 16 -13.5 25t-60.5 28q-113 47 -149.5 75.5t-36.5 89.5q0 143 205 143q100 0 178 -27l-19 -105q-85 24 -157 24q-41 0 -55.5 -6.5t-14.5 -21.5q0 -5 1 -9t3.5 -7.5t5 -6t8 -6t10.5 -6
t14.5 -6.5t17 -7t22 -8.5t25.5 -9.5q95 -37 125 -64t30 -88zM88 670h119l45 -56l45 56h119l-112 -133h-104z" />
    <glyph glyph-name="Tcommaaccent" unicode="&#x162;" horiz-adv-x="607" 
d="M597 535h-218v-535h-150v535h-219v131h587v-131zM234 -67h140v-123l-67 -107h-67l52 107h-58v123z" />
    <glyph glyph-name="tcommaaccent" unicode="&#x163;" horiz-adv-x="362" 
d="M322 -1q-35 -7 -71 -7q-76 0 -122 37.5t-46 114.5v251h-63v92h63v136h143v-136h84v-92h-84v-239q0 -55 56 -55q3 0 27 3zM121 -67h140v-123l-67 -107h-67l52 107h-58v123z" />
    <glyph glyph-name="Tcaron" unicode="&#x164;" horiz-adv-x="607" 
d="M597 535h-218v-535h-150v535h-219v131h587v-131zM140 849h119l45 -56l45 56h119l-112 -133h-104z" />
    <glyph glyph-name="tcaron" unicode="&#x165;" horiz-adv-x="400" 
d="M322 -1q-35 -7 -71 -7q-76 0 -122 37.5t-46 114.5v251h-63v92h63v136h143v-136h84v-92h-84v-239q0 -55 56 -55q3 0 27 3zM279 735h131v-119l-50 -83h-68l42 83h-55v119z" />
    <glyph glyph-name="Tbar" unicode="&#x166;" horiz-adv-x="607" 
d="M499 237h-120v-237h-150v237h-120v124h120v174h-219v131h587v-131h-218v-174h120v-124z" />
    <glyph glyph-name="tbar" unicode="&#x167;" horiz-adv-x="362" 
d="M322 -1q-35 -7 -71 -7q-76 0 -122 37.5t-46 114.5v75h-63v92h63v84h-63v92h63v136h143v-136h84v-92h-84v-84h84v-92h-84v-63q0 -55 56 -55q3 0 27 3z" />
    <glyph glyph-name="Utilde" unicode="&#x168;" 
d="M680 277q0 -119 -84 -203.5t-216 -84.5t-216 84.5t-84 203.5v389h150v-389q0 -71 42 -112.5t108 -41.5t108 41.5t42 112.5v389h150v-389zM198 736q8 60 29.5 92t64.5 32q31 0 87 -22q46 -19 58 -19q4 0 7 1t5.5 4t4 5.5t3.5 7t3 7.5l3 9l3 9l85 -20q-11 -62 -32 -92.5
t-61 -30.5q-25 0 -67 14q-7 2 -20.5 7.5t-21.5 8.5t-18.5 5.5t-17.5 2.5q-12 0 -17.5 -9t-12.5 -32z" />
    <glyph glyph-name="utilde" unicode="&#x169;" horiz-adv-x="598" 
d="M528 0h-140v73q-23 -34 -68 -57.5t-96 -23.5q-80 0 -119.5 50.5t-39.5 140.5v304h144v-281q0 -87 77 -87q36 0 67 26.5t31 62.5v279h144v-487zM126 557q8 60 29.5 92t64.5 32q31 0 87 -22q46 -19 58 -19q4 0 7 1t5.5 4t4 5.5t3.5 7t3 7.5l3 9l3 9l85 -20
q-11 -62 -32 -92.5t-61 -30.5q-25 0 -67 14q-7 2 -20.5 7.5t-21.5 8.5t-18.5 5.5t-17.5 2.5q-12 0 -17.5 -9t-12.5 -32z" />
    <glyph glyph-name="Umacron" unicode="&#x16a;" 
d="M680 277q0 -119 -84 -203.5t-216 -84.5t-216 84.5t-84 203.5v389h150v-389q0 -71 42 -112.5t108 -41.5t108 41.5t42 112.5v389h150v-389zM228 732v95h304v-95h-304z" />
    <glyph glyph-name="umacron" unicode="&#x16b;" horiz-adv-x="598" 
d="M528 0h-140v73q-23 -34 -68 -57.5t-96 -23.5q-80 0 -119.5 50.5t-39.5 140.5v304h144v-281q0 -87 77 -87q36 0 67 26.5t31 62.5v279h144v-487zM144 553v95h304v-95h-304z" />
    <glyph glyph-name="Ubreve" unicode="&#x16c;" 
d="M680 277q0 -119 -84 -203.5t-216 -84.5t-216 84.5t-84 203.5v389h150v-389q0 -71 42 -112.5t108 -41.5t108 41.5t42 112.5v389h150v-389zM235 842h88q0 -25 14 -41t42 -16q56 0 56 57h90q0 -58 -41.5 -92t-104.5 -34t-103.5 33.5t-40.5 92.5z" />
    <glyph glyph-name="ubreve" unicode="&#x16d;" horiz-adv-x="598" 
d="M528 0h-140v73q-23 -34 -68 -57.5t-96 -23.5q-80 0 -119.5 50.5t-39.5 140.5v304h144v-281q0 -87 77 -87q36 0 67 26.5t31 62.5v279h144v-487zM151 663h88q0 -25 14 -41t42 -16q56 0 56 57h90q0 -58 -41.5 -92t-104.5 -34t-103.5 33.5t-40.5 92.5z" />
    <glyph glyph-name="Uring" unicode="&#x16e;" 
d="M680 277q0 -119 -84 -203.5t-216 -84.5t-216 84.5t-84 203.5v389h150v-389q0 -71 42 -112.5t108 -41.5t108 41.5t42 112.5v389h150v-389zM379 716q-42 0 -68 24.5t-26 62.5t26 63.5t68 25.5q43 0 69.5 -25.5t26.5 -63.5t-26.5 -62.5t-69.5 -24.5zM379 761q21 0 32 12
t11 30t-11 30.5t-32 12.5q-20 0 -30.5 -12.5t-10.5 -30.5t10.5 -30t30.5 -12z" />
    <glyph glyph-name="uring" unicode="&#x16f;" horiz-adv-x="598" 
d="M528 0h-140v73q-23 -34 -68 -57.5t-96 -23.5q-80 0 -119.5 50.5t-39.5 140.5v304h144v-281q0 -87 77 -87q36 0 67 26.5t31 62.5v279h144v-487zM295 537q-42 0 -68 24.5t-26 62.5t26 63.5t68 25.5q43 0 69.5 -25.5t26.5 -63.5t-26.5 -62.5t-69.5 -24.5zM295 582
q21 0 32 12t11 30t-11 30.5t-32 12.5q-20 0 -30.5 -12.5t-10.5 -30.5t10.5 -30t30.5 -12z" />
    <glyph glyph-name="Uhungarumlaut" unicode="&#x170;" 
d="M680 277q0 -119 -84 -203.5t-216 -84.5t-216 84.5t-84 203.5v389h150v-389q0 -71 42 -112.5t108 -41.5t108 41.5t42 112.5v389h150v-389zM425 716l89 133h158l-137 -133h-110zM212 716l89 133h157l-135 -133h-111z" />
    <glyph glyph-name="uhungarumlaut" unicode="&#x171;" horiz-adv-x="598" 
d="M528 0h-140v73q-23 -34 -68 -57.5t-96 -23.5q-80 0 -119.5 50.5t-39.5 140.5v304h144v-281q0 -87 77 -87q36 0 67 26.5t31 62.5v279h144v-487zM341 537l89 133h158l-137 -133h-110zM128 537l89 133h157l-135 -133h-111z" />
    <glyph glyph-name="Uogonek" unicode="&#x172;" 
d="M464 -181q-49 0 -76.5 23.5t-27.5 59.5q0 56 62 90q-20 -3 -42 -3q-132 0 -216 84.5t-84 203.5v389h150v-389q0 -71 42 -112.5t108 -41.5t108 41.5t42 112.5v389h150v-389q0 -74 -35.5 -133.5t-107.5 -115.5q-26 -21 -34 -27.5t-22 -21.5t-18.5 -28t-4.5 -30t10 -26.5
t27 -9.5q14 0 29 5l7 -59q-22 -12 -67 -12z" />
    <glyph glyph-name="uogonek" unicode="&#x173;" horiz-adv-x="598" 
d="M388 0v73q-23 -34 -68 -57.5t-96 -23.5q-80 0 -119.5 50.5t-39.5 140.5v304h144v-281q0 -87 77 -87q36 0 67 26.5t31 62.5v279h144v-487h-79q-45 -40 -45 -79q0 -17 10 -26.5t27 -9.5q14 0 29 5l7 -59q-22 -12 -67 -12q-49 0 -76.5 23.5t-27.5 59.5q0 34 23 59.5t59 38.5
z" />
    <glyph glyph-name="Wcircumflex" unicode="&#x174;" horiz-adv-x="863" 
d="M848 666l-162 -666h-119l-136 416l-135 -416h-119l-162 666h148l91 -389l126 389h103l126 -389l91 389h148zM267 716l112 133h104l112 -133h-119l-45 56l-45 -56h-119z" />
    <glyph glyph-name="wcircumflex" unicode="&#x175;" horiz-adv-x="719" 
d="M714 487l-134 -487h-139l-81 318l-84 -318h-139l-132 487h132l74 -329l86 329h125l84 -329l74 329h134zM195 537l112 133h104l112 -133h-119l-45 56l-45 -56h-119z" />
    <glyph glyph-name="Ycircumflex" unicode="&#x176;" horiz-adv-x="603" 
d="M603 666l-226 -404v-262h-150v262l-227 404h150l152 -272l151 272h150zM137 716l112 133h104l112 -133h-119l-45 56l-45 -56h-119z" />
    <glyph glyph-name="ycircumflex" unicode="&#x177;" horiz-adv-x="507" 
d="M500 487l-237 -650h-139l59 164l-181 486h139l112 -332l108 332h139zM85 537l112 133h104l112 -133h-119l-45 56l-45 -56h-119z" />
    <glyph glyph-name="Ydieresis" unicode="&#x178;" horiz-adv-x="603" 
d="M603 666l-226 -404v-262h-150v262l-227 404h150l152 -272l151 272h150zM343 719v125h124v-125h-124zM138 719v125h124v-125h-124z" />
    <glyph glyph-name="Zacute" unicode="&#x179;" horiz-adv-x="646" 
d="M606 0h-556v135l364 402h-355v129h534v-133l-362 -404h375v-129zM255 716l83 133h171l-133 -133h-121z" />
    <glyph glyph-name="zacute" unicode="&#x17a;" horiz-adv-x="553" 
d="M493 0h-433v105l255 277h-234v105h408v-104l-261 -277h265v-106zM211 537l83 133h171l-133 -133h-121z" />
    <glyph glyph-name="Zdotaccent" unicode="&#x17b;" horiz-adv-x="646" 
d="M606 0h-556v135l364 402h-355v129h534v-133l-362 -404h375v-129zM251 723v122h145v-122h-145z" />
    <glyph glyph-name="zdotaccent" unicode="&#x17c;" horiz-adv-x="553" 
d="M493 0h-433v105l255 277h-234v105h408v-104l-261 -277h265v-106zM205 544v122h145v-122h-145z" />
    <glyph glyph-name="Zcaron" unicode="&#x17d;" horiz-adv-x="646" 
d="M606 0h-556v135l364 402h-355v129h534v-133l-362 -404h375v-129zM159 849h119l45 -56l45 56h119l-112 -133h-104z" />
    <glyph glyph-name="zcaron" unicode="&#x17e;" horiz-adv-x="553" 
d="M493 0h-433v105l255 277h-234v105h408v-104l-261 -277h265v-106zM113 670h119l45 -56l45 56h119l-112 -133h-104z" />
    <glyph glyph-name="uni0192" unicode="&#x192;" horiz-adv-x="486" 
d="M486 677l-34 -102q-25 5 -55 5q-59 0 -72 -69l-6 -34h88l-16 -94h-88l-65 -368q-15 -89 -65.5 -137.5t-134.5 -48.5q-39 0 -88 15l33 95q30 -6 38 -6q61 0 72 69l66 381h-63l16 94h64l5 29q15 89 66 137t135 48q58 0 104 -14z" />
    <glyph glyph-name="Aringacute" unicode="&#x1fa;" horiz-adv-x="663" 
d="M331 666q21 0 32 12t11 30t-11 30.5t-32 12.5q-20 0 -30.5 -12.5t-10.5 -30.5t10.5 -30t30.5 -12zM418 250l-86 275l-87 -275h173zM209 137l-52 -137h-147l247 651q-20 23 -20 57q0 38 26 63.5t68 25.5q43 0 69.5 -25.5t26.5 -63.5q0 -35 -21 -56l247 -652h-147l-51 137
h-246zM283 820l56 95h171l-106 -95h-121z" />
    <glyph glyph-name="aringacute" unicode="&#x1fb;" horiz-adv-x="526" 
d="M207 738l61 103h171l-111 -103h-121zM257 530q-42 0 -68 24.5t-26 62.5t26 63.5t68 25.5q43 0 69.5 -25.5t26.5 -63.5t-26.5 -62.5t-69.5 -24.5zM257 575q21 0 32 12t11 30t-11 30.5t-32 12.5q-20 0 -30.5 -12.5t-10.5 -30.5t10.5 -30t30.5 -12zM333 179v13h-88
q-67 0 -67 -52q0 -50 67 -50q40 0 64 25t24 64zM476 0h-136v52q-50 -60 -141 -60q-72 0 -118 41.5t-46 103.5q0 70 41 107t117 37h140v36q0 38 -23 53t-86 15q-67 0 -150 -10l-11 104q92 17 175 17q238 0 238 -184v-312z" />
    <glyph glyph-name="AEacute" unicode="&#x1fc;" horiz-adv-x="913" 
d="M393 250l-58 266l-89 -266h147zM853 0h-405l-30 136h-208l-52 -136h-148l253 666h590v-129h-386l33 -129h320v-129h-288l38 -150h283v-129zM289 716l83 133h171l-133 -133h-121z" />
    <glyph glyph-name="aeacute" unicode="&#x1fd;" horiz-adv-x="843" 
d="M805 202h-333q0 -45 36.5 -72.5t107.5 -27.5q67 0 137 19l25 -102q-74 -27 -164 -27q-131 0 -206 66q-61 -66 -171 -66q-92 0 -147 44.5t-55 107.5q0 70 41 107t117 37h140v29q0 38 -23 53t-86 15q-67 0 -150 -10l-11 104q92 17 175 17q124 0 183 -53q64 53 153 53
q106 0 168.5 -69.5t62.5 -186.5v-38zM670 291q-5 45 -29.5 71t-66.5 26q-40 0 -67 -25t-34 -72h197zM333 179v19h-88q-66 0 -66 -54t66 -54q40 0 64 25t24 64zM359 537l83 133h171l-133 -133h-121z" />
    <glyph glyph-name="Oslashacute" unicode="&#x1fe;" horiz-adv-x="759" 
d="M719 333q0 -143 -99 -243.5t-241 -100.5q-126 0 -220 81l-80 -81l-39 38l81 82q-81 95 -81 224q0 143 98.5 243t240.5 100q126 0 221 -82l80 82l39 -38l-81 -82q81 -97 81 -223zM505 498q-50 45 -126 45q-89 0 -139 -58.5t-50 -151.5q0 -73 30 -124zM569 333
q0 71 -30 122l-285 -288q50 -45 125 -45q89 0 139.5 59t50.5 152zM329 716l83 133h171l-133 -133h-121z" />
    <glyph glyph-name="oslashacute" unicode="&#x1ff;" horiz-adv-x="572" 
d="M540 244q0 -103 -72 -177.5t-182 -74.5q-96 0 -165 59l-60 -59l-29 29l60 59q-60 71 -60 164q0 103 72 177.5t182 74.5q96 0 166 -60l60 60l28 -29l-60 -59q60 -71 60 -164zM396 244q0 38 -11 69l-177 -175q30 -36 78 -36q51 0 80.5 39t29.5 103zM364 350q-29 35 -78 35
q-51 0 -80.5 -38.5t-29.5 -102.5q0 -39 11 -70zM218 537l83 133h171l-133 -133h-121z" />
    <glyph glyph-name="uni0218" unicode="&#x218;" horiz-adv-x="665" 
d="M617 189q0 -92 -79 -146t-204 -54q-137 0 -279 56l31 115q137 -44 246 -44q135 0 135 69q0 25 -22 38.5t-95 40.5q-27 10 -43 16q-126 47 -175.5 88t-49.5 123q0 93 67 139t208 46q126 0 242 -34l-23 -122q-95 27 -217 27q-71 0 -99 -11.5t-28 -40.5q0 -27 26.5 -43
t115.5 -50q22 -8 34 -13q115 -45 146 -66q58 -40 62 -115q1 -9 1 -19zM263 -67h140v-123l-67 -107h-67l52 107h-58v123z" />
    <glyph glyph-name="uni0219" unicode="&#x219;" horiz-adv-x="493" 
d="M458 142q0 -68 -58 -109t-152 -41q-98 0 -208 44l27 99q105 -35 180 -35q72 0 72 35q0 16 -13.5 25t-60.5 28q-113 47 -149.5 75.5t-36.5 89.5q0 143 205 143q100 0 178 -27l-19 -105q-85 24 -157 24q-41 0 -55.5 -6.5t-14.5 -21.5q0 -5 1 -9t3.5 -7.5t5 -6t8 -6t10.5 -6
t14.5 -6.5t17 -7t22 -8.5t25.5 -9.5q95 -37 125 -64t30 -88zM177 -67h140v-123l-67 -107h-67l52 107h-58v123z" />
    <glyph glyph-name="circumflex" unicode="&#x2c6;" horiz-adv-x="446" 
d="M59 537l112 133h104l112 -133h-119l-45 56l-45 -56h-119z" />
    <glyph glyph-name="caron" unicode="&#x2c7;" horiz-adv-x="446" 
d="M59 670h119l45 -56l45 56h119l-112 -133h-104z" />
    <glyph glyph-name="breve" unicode="&#x2d8;" horiz-adv-x="408" 
d="M59 663h88q0 -25 14 -41t42 -16q56 0 56 57h90q0 -58 -41.5 -92t-104.5 -34t-103.5 33.5t-40.5 92.5z" />
    <glyph glyph-name="dotaccent" unicode="&#x2d9;" horiz-adv-x="263" 
d="M59 544v122h145v-122h-145z" />
    <glyph glyph-name="ring" unicode="&#x2da;" horiz-adv-x="308" 
d="M153 537q-42 0 -68 24.5t-26 62.5t26 63.5t68 25.5q43 0 69.5 -25.5t26.5 -63.5t-26.5 -62.5t-69.5 -24.5zM153 582q21 0 32 12t11 30t-11 30.5t-32 12.5q-20 0 -30.5 -12.5t-10.5 -30.5t10.5 -30t30.5 -12z" />
    <glyph glyph-name="ogonek" unicode="&#x2db;" horiz-adv-x="289" 
d="M141 0h61q-45 -40 -45 -79q0 -17 10 -26.5t27 -9.5q14 0 29 5l7 -59q-22 -12 -67 -12q-49 0 -76.5 23.5t-27.5 59.5q0 34 23 59.5t59 38.5z" />
    <glyph glyph-name="tilde" unicode="&#x2dc;" horiz-adv-x="471" 
d="M59 557q8 60 29.5 92t64.5 32q31 0 87 -22q46 -19 58 -19q4 0 7 1t5.5 4t4 5.5t3.5 7t3 7.5l3 9l3 9l85 -20q-11 -62 -32 -92.5t-61 -30.5q-25 0 -67 14q-7 2 -20.5 7.5t-21.5 8.5t-18.5 5.5t-17.5 2.5q-12 0 -17.5 -9t-12.5 -32z" />
    <glyph glyph-name="hungarumlaut" unicode="&#x2dd;" horiz-adv-x="534" 
d="M272 537l89 133h158l-137 -133h-110zM59 537l89 133h157l-135 -133h-111z" />
    <glyph glyph-name="uni0312" unicode="&#x312;" horiz-adv-x="371" 
d="M59 537l133 133h121l-83 -133h-171z" />
    <glyph glyph-name="uni0315" unicode="&#x315;" horiz-adv-x="262" 
d="M59 666h144v-130l-63 -113h-68l50 113h-63v130z" />
    <glyph glyph-name="uni0326" unicode="&#x326;" horiz-adv-x="258" 
d="M59 -67h140v-123l-67 -107h-67l52 107h-58v123z" />
    <glyph glyph-name="uni03A9" unicode="&#x3a9;" horiz-adv-x="619" 
d="M569 247l-60 -61l-335 336v-212h-84v356h356v-84h-212z" />
    <glyph glyph-name="pi" unicode="&#x3c0;" horiz-adv-x="620" 
d="M530 0h-356v84h211l-335 335l61 61l335 -336v212h84v-356z" />
    <glyph glyph-name="Wgrave" unicode="&#x1e80;" horiz-adv-x="863" 
d="M848 666l-162 -666h-119l-136 416l-135 -416h-119l-162 666h148l91 -389l126 389h103l126 -389l91 389h148zM360 716l-133 133h171l83 -133h-121z" />
    <glyph glyph-name="wgrave" unicode="&#x1e81;" horiz-adv-x="719" 
d="M714 487l-134 -487h-139l-81 318l-84 -318h-139l-132 487h132l74 -329l86 329h125l84 -329l74 329h134zM295 537l-133 133h171l83 -133h-121z" />
    <glyph glyph-name="Wacute" unicode="&#x1e82;" horiz-adv-x="863" 
d="M848 666l-162 -666h-119l-136 416l-135 -416h-119l-162 666h148l91 -389l126 389h103l126 -389l91 389h148zM381 716l83 133h171l-133 -133h-121z" />
    <glyph glyph-name="wacute" unicode="&#x1e83;" horiz-adv-x="719" 
d="M714 487l-134 -487h-139l-81 318l-84 -318h-139l-132 487h132l74 -329l86 329h125l84 -329l74 329h134zM309 537l83 133h171l-133 -133h-121z" />
    <glyph glyph-name="Wdieresis" unicode="&#x1e84;" horiz-adv-x="863" 
d="M848 666l-162 -666h-119l-136 416l-135 -416h-119l-162 666h148l91 -389l126 389h103l126 -389l91 389h148zM473 719v125h124v-125h-124zM268 719v125h124v-125h-124z" />
    <glyph glyph-name="wdieresis" unicode="&#x1e85;" horiz-adv-x="719" 
d="M714 487l-134 -487h-139l-81 318l-84 -318h-139l-132 487h132l74 -329l86 329h125l84 -329l74 329h134zM401 540v125h124v-125h-124zM196 540v125h124v-125h-124z" />
    <glyph glyph-name="Ygrave" unicode="&#x1ef2;" horiz-adv-x="603" 
d="M603 666l-226 -404v-262h-150v262l-227 404h150l152 -272l151 272h150zM230 716l-133 133h171l83 -133h-121z" />
    <glyph glyph-name="ygrave" unicode="&#x1ef3;" horiz-adv-x="507" 
d="M500 487l-237 -650h-139l59 164l-181 486h139l112 -332l108 332h139zM190 537l-133 133h171l83 -133h-121z" />
    <glyph glyph-name="endash" unicode="&#x2013;" horiz-adv-x="577" 
d="M522 223h-467v117h467v-117z" />
    <glyph glyph-name="emdash" unicode="&#x2014;" horiz-adv-x="801" 
d="M746 223h-691v117h691v-117z" />
    <glyph glyph-name="quoteleft" unicode="&#x2018;" horiz-adv-x="296" 
d="M231 343h-156v156l81 167h66l-67 -167h76v-156z" />
    <glyph glyph-name="quoteright" unicode="&#x2019;" horiz-adv-x="296" 
d="M221 510l-81 -167h-67l68 167h-76v156h156v-156z" />
    <glyph glyph-name="quotesinglbase" unicode="&#x201a;" horiz-adv-x="297" 
d="M222 0l-82 -167h-66l67 167h-76v156h157v-156z" />
    <glyph glyph-name="quotedblleft" unicode="&#x201c;" horiz-adv-x="532" 
d="M231 343h-156v156l81 167h67l-67 -167h75v-156zM467 343h-156v156l81 167h66l-67 -167h76v-156z" />
    <glyph glyph-name="quotedblright" unicode="&#x201d;" horiz-adv-x="531" 
d="M221 510l-81 -167h-67l67 167h-75v156h156v-156zM456 510l-81 -167h-67l68 167h-76v156h156v-156z" />
    <glyph glyph-name="quotedblbase" unicode="&#x201e;" horiz-adv-x="531" 
d="M221 0l-81 -167h-67l67 167h-75v156h156v-156zM456 0l-81 -167h-67l68 167h-76v156h156v-156z" />
    <glyph glyph-name="dagger" unicode="&#x2020;" horiz-adv-x="479" 
d="M429 385l-161 39l40 -183l-54 -377h-29l-55 377l40 183l-160 -39v137l160 -38l-40 182h138l-40 -182l161 38v-137z" />
    <glyph glyph-name="daggerdbl" unicode="&#x2021;" horiz-adv-x="479" 
d="M429 -40l-160 39l39 -183h-138l40 183l-160 -39v138l160 -39l-40 182l40 183l-160 -39v137l160 -38l-40 182h138l-39 -182l160 38v-137l-160 39l39 -183l-39 -182l160 39v-138z" />
    <glyph glyph-name="bullet" unicode="&#x2022;" horiz-adv-x="307" 
d="M262 356q0 -45 -32 -76.5t-77 -31.5t-76.5 31.5t-31.5 76.5t31.5 77t76.5 32t77 -32t32 -77z" />
    <glyph glyph-name="ellipsis" unicode="&#x2026;" horiz-adv-x="916" 
d="M841 0h-156v156h156v-156zM231 0h-156v156h156v-156zM536 0h-156v156h156v-156z" />
    <glyph glyph-name="perthousand" unicode="&#x2030;" horiz-adv-x="1274" 
d="M1219 170q0 -77 -45 -129t-119 -52t-118.5 52t-44.5 129t44.5 128t118.5 51t119 -51t45 -128zM829 170q0 -77 -44.5 -129t-118.5 -52t-119 52t-45 129t45 128t119 51t118.5 -51t44.5 -128zM367 497q0 -77 -44.5 -129t-118.5 -52t-119 52t-45 129t45 128t119 51t118.5 -51
t44.5 -128zM670 666l-369 -666h-102l370 666h101zM1122 170q0 40 -16.5 68t-50.5 28t-50 -27.5t-16 -68.5t16 -69.5t50 -28.5t50.5 28.5t16.5 69.5zM732 170q0 41 -16 68.5t-50 27.5t-50.5 -28t-16.5 -68q0 -41 16.5 -69.5t50.5 -28.5t50 28.5t16 69.5zM270 497
q0 40 -16 67.5t-50 27.5t-50.5 -27.5t-16.5 -67.5q0 -41 16.5 -69.5t50.5 -28.5t50 28.5t16 69.5z" />
    <glyph glyph-name="guilsinglleft" unicode="&#x2039;" horiz-adv-x="399" 
d="M319 57l-61 -57l-228 243l228 244l61 -57l-175 -186z" />
    <glyph glyph-name="guilsinglright" unicode="&#x203a;" horiz-adv-x="399" 
d="M369 243l-228 -243l-61 57l175 187l-175 186l61 57z" />
    <glyph glyph-name="fraction" unicode="&#x2044;" horiz-adv-x="453" 
d="M453 666l-395 -666h-58l396 666h57z" />
    <glyph glyph-name="Euro" unicode="&#x20ac;" horiz-adv-x="718" 
d="M663 647l-21 -125q-81 21 -152 21q-172 0 -224 -120h168v-61h-183q-2 -20 -2 -29q0 -12 2 -32h183v-62h-166q53 -117 222 -117q68 0 152 21l19 -123q-95 -31 -192 -31q-133 0 -229.5 69.5t-127.5 180.5h-92v62h80q-1 10 -1 32q0 19 1 29h-80v61h91q31 112 127.5 182.5
t230.5 70.5q102 0 194 -29z" />
    <glyph glyph-name="trademark" unicode="&#x2122;" horiz-adv-x="713" 
d="M673 362h-65v183l-75 -127h-37l-77 127v-183h-65v304h63l97 -163l96 163h63v-304zM293 606h-99v-244h-69v244h-100v60h268v-60z" />
    <glyph glyph-name="partialdiff" unicode="&#x2202;" horiz-adv-x="574" 
d="M539 424l-59 -59l-150 150v-474h-86v474l-149 -150l-60 59l252 252z" />
    <glyph glyph-name="Delta" unicode="&#x2206;" horiz-adv-x="574" 
d="M539 241l-252 -252l-252 252l59 59l150 -150v474h86v-474l149 150z" />
    <glyph glyph-name="product" unicode="&#x220f;" horiz-adv-x="620" 
d="M570 419l-335 -335h211v-84h-356v356h84v-212l335 336z" />
    <glyph glyph-name="summation" unicode="&#x2211;" horiz-adv-x="620" 
d="M570 419l-335 -335h211v-84h-356v356h84v-212l335 336z" />
    <glyph glyph-name="minus" unicode="&#x2212;" horiz-adv-x="366" 
d="M321 223h-276v117h276v-117z" />
    <glyph glyph-name="radical" unicode="&#x221a;" horiz-adv-x="745" 
d="M675 273h-474l150 -149l-59 -60l-252 252l252 252l59 -59l-150 -150h474v-86z" />
    <glyph glyph-name="infinity" unicode="&#x221e;" horiz-adv-x="745" 
d="M675 273h-474l150 -149l-59 -60l-252 252l252 252l59 -59l-150 -150h474v-86z" />
    <glyph glyph-name="integral" unicode="&#x222b;" horiz-adv-x="620" 
d="M530 0h-356v84h211l-335 335l61 61l335 -336v212h84v-356z" />
    <glyph glyph-name="approxequal" unicode="&#x2248;" horiz-adv-x="619" 
d="M529 310h-84v212l-335 -336l-60 61l335 335h-212v84h356v-356z" />
    <glyph glyph-name="notequal" unicode="&#x2260;" horiz-adv-x="876" 
d="M786 333h-333v-333h-333v666h666v-333z" />
    <glyph glyph-name="lessequal" unicode="&#x2264;" horiz-adv-x="745" 
d="M675 273h-474l150 -149l-59 -60l-252 252l252 252l59 -59l-150 -150h474v-86z" />
    <glyph glyph-name="greaterequal" unicode="&#x2265;" horiz-adv-x="745" 
d="M705 316l-252 -252l-59 60l150 149h-474v86h474l-150 150l59 59z" />
    <glyph glyph-name="lozenge" unicode="&#x25ca;" horiz-adv-x="745" 
d="M705 316l-252 -252l-59 60l150 149h-474v86h474l-150 150l59 59z" />
    <glyph glyph-name="apple" horiz-adv-x="876" 
d="M786 333h-333v-333h-333v666h666v-333z" />
    <glyph glyph-name="nbspace" horiz-adv-x="225" 
 />
    <glyph glyph-name="i.dot" horiz-adv-x="283" 
d="M213 0h-143v487h143v-487zM70 544v122h145v-122h-145z" />
    </font>
</defs>
</svg>
