<?xml version="1.0" standalone="no"?>
<!DOCTYPE svg PUBLIC "-//W3C//DTD SVG 1.1//EN" "http://www.w3.org/Graphics/SVG/1.1/DTD/svg11.dtd" >
<svg>
<metadata>
Created by FontForge 20120731 at Fri Aug 19 20:56:58 2016
 By ,,,
(c) 2015 Process Type Foundry. All Rights Reserved.
</metadata>
<defs>
<font id="Locator-Regular" horiz-adv-x="724" >
  <font-face 
    font-family="Locator"
    font-weight="400"
    font-stretch="normal"
    units-per-em="1000"
    panose-1="2 0 5 0 3 0 0 2 0 4"
    ascent="750"
    descent="-250"
    x-height="487"
    cap-height="666"
    bbox="-45 -253 1174 891"
    underline-thickness="20"
    underline-position="-103"
    unicode-range="U+0020-FB02"
  />
<missing-glyph horiz-adv-x="646" 
d="M90 0v666h466v-666h-466zM507 616h-340l340 -527v527zM139 576v-527h339z" />
    <glyph glyph-name="fi" unicode="fi" horiz-adv-x="582" 
d="M336 679l-10 -66q-31 7 -61 7q-71 0 -71 -88v-49h105v-64h-105v-419h-88v419h-71v64h71v45q0 85 41 124t107 39q36 0 82 -12zM502 0h-88v487h88v-487zM502 568h-88v107h88v-107z" />
    <glyph glyph-name="fl" unicode="fl" horiz-adv-x="636" 
d="M336 679l-10 -66q-31 7 -61 7q-71 0 -71 -88v-49h105v-64h-105v-419h-88v419h-71v64h71v45q0 85 41 124t107 39q36 0 82 -12zM598 -5h-57q-65 0 -102 35.5t-37 108.5v527h87v-522q0 -43 15 -61t50 -18h44v-70z" />
    <glyph glyph-name=".notdef" horiz-adv-x="646" 
d="M90 0v666h466v-666h-466zM507 616h-340l340 -527v527zM139 576v-527h339z" />
    <glyph glyph-name=".null" horiz-adv-x="0" 
 />
    <glyph glyph-name="nonmarkingreturn" horiz-adv-x="333" 
 />
    <glyph glyph-name="space" unicode=" " horiz-adv-x="220" 
 />
    <glyph glyph-name="exclam" unicode="!" horiz-adv-x="296" 
d="M194 480l-24 -300h-43l-24 300v186h91v-186zM200 0h-104v116h104v-116z" />
    <glyph glyph-name="quotedbl" unicode="&#x22;" horiz-adv-x="423" 
d="M338 388h-74v278h74v-278zM159 388h-74v278h74v-278z" />
    <glyph glyph-name="numbersign" unicode="#" horiz-adv-x="688" 
d="M653 465l-14 -60h-121l-32 -139h121l-13 -60h-122l-48 -206h-65l47 206h-173l-47 -206h-66l48 206h-123l15 60h121l32 139h-121l13 60h123l46 201h65l-46 -201h174l46 201h65l-46 -201h121zM452 405h-173l-32 -139h174z" />
    <glyph glyph-name="dollar" unicode="$" horiz-adv-x="601" 
d="M556 171q0 -74 -57 -123.5t-160 -55.5v-92h-65v92q-99 7 -214 53l20 70q134 -48 232 -48q74 0 114.5 26t40.5 75q0 43 -31.5 68t-136.5 68q-123 49 -169.5 94t-46.5 118q0 146 205 157v98h65v-97q98 -5 184 -33l-13 -72q-110 28 -202 28q-81 0 -115 -18t-34 -63
q0 -46 35 -72.5t138 -68.5q116 -47 163 -89.5t47 -114.5z" />
    <glyph glyph-name="percent" unicode="%" horiz-adv-x="848" 
d="M360 502q0 -71 -43 -122.5t-114 -51.5t-114.5 52t-43.5 122t43.5 122t114.5 52t114 -51.5t43 -122.5zM788 165q0 -71 -43 -122.5t-114 -51.5t-114 51.5t-43 122.5t43 122.5t114 51.5t114 -51.5t43 -122.5zM629 666l-359 -666h-65l359 666h65zM725 165q0 49 -24.5 84
t-69.5 35t-69 -35t-24 -84t24 -84.5t69 -35.5t69.5 35.5t24.5 84.5zM296 502q0 49 -24 84t-69 35t-69.5 -35t-24.5 -84t24.5 -84t69.5 -35t69 35t24 84z" />
    <glyph glyph-name="ampersand" unicode="&#x26;" horiz-adv-x="668" 
d="M623 0h-102q-24 31 -58 73q-89 -84 -202 -84q-85 0 -145.5 52t-60.5 135q0 67 36 118.5t118 99.5q-40 58 -55.5 89.5t-15.5 65.5q0 59 38.5 93t110.5 34q65 0 104 -35.5t39 -88.5q0 -103 -115 -174q2 -2 71.5 -89.5t80.5 -99.5q42 61 70 170l65 -17q-22 -118 -87 -210z
M416 130q-161 204 -165 209q-64 -39 -85.5 -74.5t-21.5 -86.5q0 -52 34 -83t89 -31q81 0 149 66zM357 547q0 30 -18.5 48.5t-51.5 18.5q-32 0 -51.5 -17t-19.5 -49q0 -49 62 -123q79 49 79 122z" />
    <glyph glyph-name="quotesingle" unicode="'" horiz-adv-x="244" 
d="M159 387h-74v279h74v-279z" />
    <glyph glyph-name="parenleft" unicode="(" horiz-adv-x="339" 
d="M299 -118l-59 -36q-155 211 -155 458q0 246 153 458l61 -36q-70 -119 -97 -213.5t-27 -208.5t27 -208.5t97 -213.5z" />
    <glyph glyph-name="parenright" unicode=")" horiz-adv-x="338" 
d="M253 304q0 -249 -154 -458l-59 36q70 119 97 213.5t27 208.5t-27 208.5t-97 213.5l61 36q152 -211 152 -458z" />
    <glyph glyph-name="asterisk" unicode="*" horiz-adv-x="476" 
d="M431 400l-36 -64l-134 90l14 -160h-74l14 160l-134 -90l-36 64l146 66l-146 65l36 65l134 -90l-14 160h74l-14 -160l134 90l36 -65l-146 -65z" />
    <glyph glyph-name="plus" unicode="+" horiz-adv-x="587" 
d="M532 205h-203v-205h-70v205h-204v66h204v206h70v-206h203v-66z" />
    <glyph glyph-name="comma" unicode="," horiz-adv-x="254" 
d="M174 0l-52 -127h-44l46 127h-54v116h104v-116z" />
    <glyph glyph-name="hyphen" unicode="-" horiz-adv-x="355" 
d="M305 237h-255v77h255v-77z" />
    <glyph glyph-name="period" unicode="." horiz-adv-x="264" 
d="M184 0h-104v116h104v-116z" />
    <glyph glyph-name="slash" unicode="/" horiz-adv-x="476" 
d="M421 676l-289 -793h-77l289 793h77z" />
    <glyph glyph-name="zero" unicode="0" horiz-adv-x="610" 
d="M558 328q0 -148 -65 -243.5t-187 -95.5t-188 96t-66 243t66 242.5t188 95.5t187 -95t65 -243zM471 328q0 116 -40.5 188t-124.5 72t-125 -72t-41 -188t41 -188.5t125 -72.5t124.5 72.5t40.5 188.5z" />
    <glyph glyph-name="one" unicode="1" horiz-adv-x="403" 
d="M298 0h-88v580l-175 -31l-13 69l188 38h88v-656z" />
    <glyph glyph-name="two" unicode="2" horiz-adv-x="599" 
d="M533 0h-467v43q0 49 10.5 83t41.5 66.5t68.5 59t110.5 70.5q81 49 110.5 82.5t29.5 78.5q0 54 -41 79.5t-127 25.5q-78 0 -180 -26l-15 72q99 32 209 32q119 0 180.5 -48.5t61.5 -130.5q0 -65 -37 -113.5t-120 -99.5q-121 -75 -161.5 -111.5t-42.5 -84.5h369v-78z" />
    <glyph glyph-name="three" unicode="3" horiz-adv-x="566" 
d="M506 186q0 -83 -73 -140t-193 -57q-96 0 -185 33l18 69q86 -26 166 -26q82 0 129.5 34t47.5 90q0 53 -41.5 85.5t-120.5 32.5h-112v72h109q64 0 100 30.5t36 78.5t-41 75.5t-110 27.5t-151 -24l-17 68q82 31 172 31q105 0 169.5 -47t64.5 -125q0 -43 -24.5 -82t-70.5 -63
q58 -18 92.5 -62.5t34.5 -100.5z" />
    <glyph glyph-name="four" unicode="4" horiz-adv-x="595" 
d="M560 167h-104v-167h-86v167h-340v78l334 411h92v-414h104v-75zM370 242v309l-249 -309h249z" />
    <glyph glyph-name="five" unicode="5" horiz-adv-x="612" 
d="M547 216q0 -94 -67.5 -160.5t-187.5 -66.5q-105 0 -218 49l22 69q114 -41 196 -41q80 0 123.5 41.5t43.5 103.5q0 60 -36.5 94t-104.5 34q-73 0 -142 -41l-71 34q12 113 39 324h368v-78h-297l-24 -200q66 37 144 37q99 0 155.5 -56t56.5 -143z" />
    <glyph glyph-name="six" unicode="6" horiz-adv-x="595" 
d="M530 209q0 -90 -63.5 -155t-163.5 -65q-116 0 -182 74.5t-66 213.5q0 180 90 284.5t250 104.5q64 0 107 -12l-12 -73q-50 8 -90 8q-230 0 -256 -256q63 76 174 76q95 0 153.5 -57t58.5 -143zM441 204q0 61 -37 95.5t-102 34.5t-110 -37.5t-45 -93.5q0 -59 40.5 -98.5
t110.5 -39.5q66 0 104.5 40.5t38.5 98.5z" />
    <glyph glyph-name="seven" unicode="7" horiz-adv-x="508" 
d="M481 578l-278 -578h-89l278 578h-352v78h441v-78z" />
    <glyph glyph-name="eight" unicode="8" horiz-adv-x="590" 
d="M540 189q0 -84 -66 -142t-178 -58q-113 0 -179.5 58.5t-66.5 141.5q0 54 31.5 97.5t87.5 67.5q-84 53 -84 140q0 76 58.5 124t152.5 48t152.5 -48t58.5 -124q0 -87 -84 -140q55 -24 86 -67.5t31 -97.5zM452 189q0 52 -41 86t-115 34t-116 -34t-42 -86q0 -55 43.5 -90
t114.5 -35t113.5 35t42.5 90zM423 488q0 47 -35 76t-92 29t-92 -29t-35 -76q0 -48 34 -79t93 -31h1q58 0 92 31t34 79z" />
    <glyph glyph-name="nine" unicode="9" horiz-adv-x="595" 
d="M540 377q0 -180 -90.5 -284t-250.5 -104q-54 0 -106 12l11 72q49 -8 90 -8q230 0 256 256q-61 -76 -174 -76q-94 0 -152.5 59.5t-58.5 145.5q0 88 64.5 152t162.5 64q116 0 182 -75t66 -214zM447 451q0 59 -40.5 99t-110.5 40q-66 0 -104.5 -41t-38.5 -99
q0 -61 37.5 -95.5t102.5 -34.5t109.5 37t44.5 94z" />
    <glyph glyph-name="colon" unicode=":" horiz-adv-x="264" 
d="M184 361h-104v116h104v-116zM184 0h-104v116h104v-116z" />
    <glyph glyph-name="semicolon" unicode=";" horiz-adv-x="259" 
d="M179 0l-51 -127h-45l46 127h-54v116h104v-116zM179 361h-104v116h104v-116z" />
    <glyph glyph-name="less" unicode="&#x3c;" horiz-adv-x="569" 
d="M509 -9l-479 227v50l479 227v-73l-382 -179l382 -178v-74z" />
    <glyph glyph-name="equal" unicode="=" horiz-adv-x="552" 
d="M497 292h-442v72h442v-72zM497 92h-442v72h442v-72z" />
    <glyph glyph-name="greater" unicode="&#x3e;" horiz-adv-x="569" 
d="M539 218l-479 -229v74l382 180l-382 180v74l479 -229v-50z" />
    <glyph glyph-name="question" unicode="?" horiz-adv-x="530" 
d="M475 512q0 -69 -46 -139t-161 -184l-47 47q94 101 129.5 155t35.5 114q0 47 -31.5 70t-103.5 23q-87 0 -181 -22l-15 70q108 30 206 30q106 0 160 -42t54 -122zM301 0h-103v115h103v-115z" />
    <glyph glyph-name="at" unicode="@" horiz-adv-x="742" 
d="M707 45q-126 -56 -277 -56q-153 0 -259 96.5t-106 247.5t84.5 247t216.5 96q99 0 153 -53t54 -139v-309h-63v45q-36 -50 -96 -50q-67 0 -104.5 48.5t-37.5 115.5q0 66 37.5 115t104.5 49q62 0 98 -46v31q0 62 -34.5 100t-111.5 38q-111 0 -175.5 -80t-64.5 -208
q0 -127 84.5 -209t219.5 -82q130 0 262 48zM514 334q0 51 -24.5 82.5t-66.5 31.5q-44 0 -67 -31.5t-23 -82.5t23 -82.5t67 -31.5q42 0 66.5 31t24.5 83z" />
    <glyph glyph-name="A" unicode="A" horiz-adv-x="641" 
d="M627 0h-91l-66 169h-298l-67 -169h-91l268 666h77zM444 240l-123 326l-124 -326h247z" />
    <glyph glyph-name="B" unicode="B" horiz-adv-x="659" 
d="M619 187q0 -76 -55 -131.5t-145 -55.5h-323v666h291q102 0 156.5 -46t54.5 -125q0 -46 -27 -86t-78 -59q63 -19 94.5 -62.5t31.5 -100.5zM527 190q0 52 -32.5 84t-95.5 32h-212v-231h214q59 0 92.5 30.5t33.5 84.5zM506 485q0 53 -34.5 79.5t-96.5 26.5h-188v-214h185
q60 0 97 28t37 80z" />
    <glyph glyph-name="C" unicode="C" horiz-adv-x="646" 
d="M586 651l-19 -74q-68 19 -147 19q-129 0 -206 -72.5t-77 -190.5t77 -191t206 -73q62 0 147 20l18 -74q-86 -26 -171 -26q-159 0 -264 99.5t-105 244.5t104.5 244t264.5 99q96 0 172 -25z" />
    <glyph glyph-name="D" unicode="D" horiz-adv-x="688" 
d="M642 333q0 -145 -113.5 -239t-290.5 -94h-142v666h142q177 0 290.5 -94t113.5 -239zM548 333q0 118 -87 185.5t-208 67.5h-65v-506h65q121 0 208 67.5t87 185.5z" />
    <glyph glyph-name="E" unicode="E" horiz-adv-x="621" 
d="M556 0h-460v666h460v-79h-367v-203h344v-79h-344v-226h367v-79z" />
    <glyph glyph-name="F" unicode="F" horiz-adv-x="607" 
d="M567 587h-378v-203h349v-79h-349v-305h-93v666h471v-79z" />
    <glyph glyph-name="G" unicode="G" horiz-adv-x="696" 
d="M621 18q-108 -29 -206 -29q-162 0 -266 99t-104 245q0 151 102.5 247t266.5 96q99 0 180 -24l-15 -74q-87 18 -160 18q-131 0 -207 -69.5t-76 -193.5q0 -117 75.5 -190.5t197.5 -73.5q76 0 128 12v231h84v-294z" />
    <glyph glyph-name="H" unicode="H" 
d="M628 0h-93v301h-347v-301h-92v666h92v-284h347v284h93v-666z" />
    <glyph glyph-name="I" unicode="I" horiz-adv-x="292" 
d="M192 0h-92v666h92v-666z" />
    <glyph glyph-name="J" unicode="J" horiz-adv-x="447" 
d="M361 198q0 -91 -51.5 -145t-149.5 -54h-110v74h108q57 0 84.5 34.5t27.5 91.5v390h-200v77h291v-468z" />
    <glyph glyph-name="K" unicode="K" horiz-adv-x="650" 
d="M640 0h-123l-329 302v-302h-92v666h92v-284l310 284h122l-356 -323z" />
    <glyph glyph-name="L" unicode="L" horiz-adv-x="553" 
d="M528 0h-432v666h92v-587h340v-79z" />
    <glyph glyph-name="M" unicode="M" horiz-adv-x="837" 
d="M741 0h-88v502l-206 -402h-57l-205 402v-502h-89v666h89l234 -446l234 446h88v-666z" />
    <glyph glyph-name="N" unicode="N" horiz-adv-x="762" 
d="M666 0h-90l-390 526v-526h-90v666h89l391 -526v526h90v-666z" />
    <glyph glyph-name="O" unicode="O" horiz-adv-x="746" 
d="M696 332q0 -143 -92 -243t-231 -100t-231 100t-92 243t92 243.5t231 100.5t231 -100.5t92 -243.5zM604 332q0 115 -63.5 189.5t-167.5 74.5t-168 -74.5t-64 -189.5t64 -189t168 -74t167.5 74t63.5 189z" />
    <glyph glyph-name="P" unicode="P" horiz-adv-x="646" 
d="M625 464q0 -83 -57.5 -142.5t-152.5 -59.5h-227v-262h-92v666h319q95 0 152.5 -59.5t57.5 -142.5zM532 464q0 55 -36.5 90.5t-88.5 35.5h-219v-253h219q56 0 90.5 35.5t34.5 91.5z" />
    <glyph glyph-name="Q" unicode="Q" horiz-adv-x="746" 
d="M696 333q0 -131 -77.5 -228t-200.5 -113v-180h-90v180q-123 16 -200.5 113t-77.5 228q0 143 92 243t231 100t231 -100t92 -243zM605 333q0 115 -64 189t-168 74t-167.5 -74t-63.5 -189t63.5 -189.5t167.5 -74.5t168 74.5t64 189.5z" />
    <glyph glyph-name="R" unicode="R" horiz-adv-x="717" 
d="M534 468q0 54 -36.5 88t-89.5 34h-220v-245h220q57 0 91.5 33.5t34.5 89.5zM696 0h-109l-199 271h-200v-271h-92v666h323q93 0 150.5 -58.5t57.5 -139.5q0 -64 -37 -115t-102 -70z" />
    <glyph glyph-name="S" unicode="S" horiz-adv-x="634" 
d="M589 170q0 -80 -71 -130.5t-188 -50.5q-136 0 -270 54l20 71q136 -47 248 -47q79 0 124.5 28t45.5 73q0 40 -36 67.5t-148 68.5q-134 50 -182.5 93.5t-48.5 119.5q0 159 253 159q129 0 234 -34l-17 -73q-110 28 -215 28q-90 0 -127 -17.5t-37 -62.5q0 -46 37.5 -72
t163.5 -75q129 -51 171.5 -90.5t42.5 -109.5z" />
    <glyph glyph-name="T" unicode="T" horiz-adv-x="566" 
d="M554 586h-225v-586h-91v586h-226v80h542v-80z" />
    <glyph glyph-name="U" unicode="U" 
d="M638 248q0 -107 -75.5 -183t-200.5 -76t-200.5 76t-75.5 183v418h93v-420q0 -82 51 -129t132 -47t132.5 48.5t51.5 127.5v420h92v-418z" />
    <glyph glyph-name="V" unicode="V" horiz-adv-x="597" 
d="M594 666l-254 -666h-83l-254 666h92l203 -549l204 549h92z" />
    <glyph glyph-name="W" unicode="W" horiz-adv-x="858" 
d="M848 666l-183 -666h-74l-163 526l-162 -526h-74l-182 666h91l135 -504l156 504h73l156 -504l135 504h92z" />
    <glyph glyph-name="X" unicode="X" horiz-adv-x="652" 
d="M636 0h-105l-205 266l-205 -266h-105l257 335l-255 331h106l202 -261l202 261h105l-255 -331z" />
    <glyph glyph-name="Y" unicode="Y" horiz-adv-x="591" 
d="M596 666l-254 -398v-268h-92v268l-255 398h95l206 -316l205 316h95z" />
    <glyph glyph-name="Z" unicode="Z" horiz-adv-x="642" 
d="M597 0h-542v81l427 506h-414v79h523v-80l-426 -507h432v-79z" />
    <glyph glyph-name="bracketleft" unicode="[" horiz-adv-x="312" 
d="M297 -126h-202v916h202v-74h-113v-768h113v-74z" />
    <glyph glyph-name="backslash" unicode="\" horiz-adv-x="476" 
d="M421 -117h-77l-289 793h77z" />
    <glyph glyph-name="bracketright" unicode="]" horiz-adv-x="312" 
d="M217 -126h-202v74h113v768h-113v74h202v-916z" />
    <glyph glyph-name="asciicircum" unicode="^" horiz-adv-x="462" 
d="M432 327h-73l-127 256l-128 -256h-74l176 339h51z" />
    <glyph glyph-name="underscore" unicode="_" horiz-adv-x="445" 
d="M446 -49h-447v38h447v-38z" />
    <glyph glyph-name="grave" unicode="`" horiz-adv-x="334" 
d="M189 541l-120 125h109l87 -125h-76z" />
    <glyph glyph-name="a" unicode="a" horiz-adv-x="505" 
d="M445 0h-86v58q-48 -66 -152 -66q-75 0 -119.5 38t-44.5 106q0 67 41 103.5t117 36.5h156v49q0 49 -29.5 73.5t-100.5 24.5q-80 0 -149 -13l-9 68q76 18 164 18q103 0 157.5 -44.5t54.5 -125.5v-326zM357 183v28h-135q-47 0 -69 -18.5t-22 -58.5q0 -74 92 -74
q62 0 98 33.5t36 89.5z" />
    <glyph glyph-name="b" unicode="b" horiz-adv-x="581" 
d="M536 244q0 -101 -55.5 -176.5t-157.5 -75.5q-99 0 -154 89v-81h-89v666h89v-259q54 89 154 89q103 0 158 -74.5t55 -177.5zM447 244q0 78 -36.5 128.5t-102.5 50.5q-65 0 -102 -50.5t-37 -128.5t37 -129t102 -51q66 0 102.5 51t36.5 129z" />
    <glyph glyph-name="c" unicode="c" horiz-adv-x="469" 
d="M424 10q-54 -18 -125 -18q-116 0 -187.5 72t-71.5 180t71.5 180t187.5 72q67 0 125 -19l-15 -67q-51 13 -102 13q-88 0 -133.5 -48.5t-45.5 -130.5t45.5 -130.5t133.5 -48.5q46 0 102 12z" />
    <glyph glyph-name="d" unicode="d" horiz-adv-x="580" 
d="M500 0h-88v81q-55 -89 -154 -89q-102 0 -157.5 75.5t-55.5 176.5q0 103 55 177.5t158 74.5q100 0 154 -89v259h88v-666zM412 244q0 78 -37 128.5t-102 50.5q-66 0 -103 -50.5t-37 -128.5t37 -129t103 -51q65 0 102 51t37 129z" />
    <glyph glyph-name="e" unicode="e" horiz-adv-x="540" 
d="M495 216h-364q5 -72 50 -112t125 -40q68 0 144 20l17 -66q-79 -26 -161 -26q-122 0 -192.5 69.5t-70.5 182.5q0 105 63 178.5t168 73.5q103 0 162 -71t59 -182v-27zM408 282q-5 67 -39.5 104.5t-94.5 37.5t-98 -37.5t-45 -104.5h277z" />
    <glyph glyph-name="f" unicode="f" horiz-adv-x="336" 
d="M336 679l-10 -66q-31 7 -61 7q-71 0 -71 -88v-49h105v-64h-105v-419h-88v419h-71v64h71v45q0 85 41 124t107 39q36 0 82 -12z" />
    <glyph glyph-name="g" unicode="g" horiz-adv-x="567" 
d="M495 46q0 -107 -63 -165.5t-182 -58.5q-89 0 -164 26l13 63q73 -20 141 -20q89 0 128 36.5t39 112.5v51q-53 -85 -159 -85q-101 0 -154.5 70.5t-53.5 173.5q0 104 53 175t155 71q104 0 159 -89v80h88v-441zM407 248q0 81 -37.5 128t-104.5 47q-68 0 -102 -48t-34 -125
t34 -124.5t102 -47.5q67 0 104.5 45t37.5 125z" />
    <glyph glyph-name="h" unicode="h" horiz-adv-x="573" 
d="M498 0h-88v306q0 110 -102 110q-55 0 -97.5 -44t-42.5 -114v-258h-88v666h86v-264q26 42 71 68t98 26q80 0 121.5 -48t41.5 -132v-316z" />
    <glyph glyph-name="i" unicode="i" horiz-adv-x="248" 
d="M168 0h-88v487h88v-487zM168 568h-88v107h88v-107z" />
    <glyph glyph-name="j" unicode="j" horiz-adv-x="251" 
d="M176 -28q0 -74 -37 -112t-102 -38q-40 0 -72 8l5 69q30 -5 55 -5q35 0 49 20t14 62v511h88v-515zM176 568h-88v107h88v-107z" />
    <glyph glyph-name="k" unicode="k" horiz-adv-x="509" 
d="M501 0h-110l-223 209v-209h-88v666h88v-376l209 197h111l-254 -237z" />
    <glyph glyph-name="l" unicode="l" horiz-adv-x="309" 
d="M271 -5h-57q-65 0 -102 35.5t-37 108.5v527h87v-522q0 -43 15 -61t50 -18h44v-70z" />
    <glyph glyph-name="m" unicode="m" horiz-adv-x="892" 
d="M817 0h-89v306q0 55 -23.5 82.5t-76.5 27.5q-54 0 -94.5 -43.5t-40.5 -113.5v-259h-89v306q0 55 -24 82.5t-77 27.5q-54 0 -94 -44t-40 -114v-258h-89v487h87v-85q26 43 68 68.5t95 25.5q112 0 149 -96q26 42 74 69t102 27q80 0 121 -48t41 -132v-316z" />
    <glyph glyph-name="n" unicode="n" horiz-adv-x="574" 
d="M499 0h-88v306q0 110 -103 110q-55 0 -97.5 -44t-42.5 -114v-258h-88v487h87v-85q26 42 70.5 68t97.5 26q80 0 122 -48.5t42 -131.5v-316z" />
    <glyph glyph-name="o" unicode="o" horiz-adv-x="563" 
d="M518 244q0 -105 -65.5 -178.5t-171.5 -73.5q-105 0 -170.5 73.5t-65.5 178.5t65.5 178.5t170.5 73.5t171 -73.5t66 -178.5zM430 244q0 81 -40.5 130.5t-108.5 49.5t-108 -49.5t-40 -130.5t40 -130.5t108 -49.5t108.5 49.5t40.5 130.5z" />
    <glyph glyph-name="p" unicode="p" horiz-adv-x="581" 
d="M536 244q0 -103 -55 -177.5t-158 -74.5q-100 0 -154 89v-250h-89v656h89v-80q55 89 154 89q102 0 157.5 -75.5t55.5 -176.5zM447 244q0 78 -36.5 128.5t-102.5 50.5q-65 0 -102 -50.5t-37 -128.5t37 -129t102 -51q66 0 102.5 51t36.5 129z" />
    <glyph glyph-name="q" unicode="q" horiz-adv-x="580" 
d="M500 -169h-88v250q-54 -89 -155 -89q-103 0 -157.5 74.5t-54.5 177.5q0 101 55 176.5t157 75.5q100 0 155 -89v80h88v-656zM412 244q0 78 -37.5 128.5t-102.5 50.5q-66 0 -102.5 -50.5t-36.5 -128.5t36.5 -129t102.5 -51q65 0 102.5 51t37.5 129z" />
    <glyph glyph-name="r" unicode="r" horiz-adv-x="349" 
d="M334 418q-68 0 -117 -56.5t-49 -126.5v-235h-88v487h87v-97q22 43 68 74t99 31v-77z" />
    <glyph glyph-name="s" unicode="s" horiz-adv-x="460" 
d="M420 128q0 -62 -52.5 -99t-141.5 -37q-94 0 -186 44l20 65q93 -37 165 -37q109 0 109 63q0 27 -21.5 41.5t-102.5 47.5q-90 37 -121 68.5t-31 86.5q0 62 48.5 93.5t134.5 31.5q82 0 160 -24l-13 -68q-82 20 -144 20q-55 0 -78 -13t-23 -41q0 -27 21.5 -43.5t90.5 -44.5
q100 -40 132.5 -69t32.5 -85z" />
    <glyph glyph-name="t" unicode="t" horiz-adv-x="331" 
d="M296 1q-32 -9 -68 -9q-132 0 -132 142v287h-66v66h66v138h88v-138h95v-66h-95v-285q0 -42 14 -58.5t42 -16.5q20 0 47 5z" />
    <glyph glyph-name="u" unicode="u" horiz-adv-x="570" 
d="M490 0h-87v85q-26 -42 -70.5 -67.5t-97.5 -25.5q-81 0 -123 48t-42 131v316h89v-305q0 -110 103 -110q55 0 97.5 44t42.5 113v258h88v-487z" />
    <glyph glyph-name="v" unicode="v" horiz-adv-x="464" 
d="M464 487l-188 -487h-88l-188 487h87l145 -395l146 395h86z" />
    <glyph glyph-name="w" unicode="w" horiz-adv-x="690" 
d="M685 487l-149 -487h-84l-107 374l-108 -374h-83l-149 487h83l110 -379l107 379h79l108 -375l110 375h83z" />
    <glyph glyph-name="x" unicode="x" horiz-adv-x="496" 
d="M476 0h-95l-133 181l-134 -181h-94l182 247l-177 240h95l128 -178l129 178h94l-177 -240z" />
    <glyph glyph-name="y" unicode="y" horiz-adv-x="469" 
d="M464 487l-252 -656h-85l66 169l-193 487h87l146 -392l145 392h86z" />
    <glyph glyph-name="z" unicode="z" horiz-adv-x="518" 
d="M463 0h-413v71l300 345h-278v71h384v-70l-301 -346h308v-71z" />
    <glyph glyph-name="braceleft" unicode="{" horiz-adv-x="275" 
d="M275 -143h-74q-53 0 -80 31t-27 80v262q0 60 -47 60h-16l-1 68h17q47 0 47 60v262q0 49 26.5 79.5t80.5 30.5h74v-66h-48q-44 0 -44 -52v-244q0 -101 -102 -104q51 -1 76.5 -29.5t25.5 -75.5v-244q0 -52 44 -52h48v-66z" />
    <glyph glyph-name="bar" unicode="|" horiz-adv-x="279" 
d="M174 -200h-69v1000h69v-1000z" />
    <glyph glyph-name="braceright" unicode="}" horiz-adv-x="274" 
d="M244 290h-16q-47 0 -47 -60v-262q0 -49 -27 -80t-80 -31h-74v66h48q44 0 44 52v244q0 47 25 75.5t76 29.5q-101 3 -101 104v244q0 52 -44 52h-48v66h74q54 0 80.5 -30.5t26.5 -79.5v-262q0 -60 47 -60h16v-68z" />
    <glyph glyph-name="asciitilde" unicode="~" horiz-adv-x="447" 
d="M307 275q39 0 66 70l49 -21q-15 -50 -45.5 -83.5t-77.5 -33.5q-34 0 -86.5 34t-72.5 34q-39 0 -66 -70l-49 20q37 118 122 118q34 0 87 -34t73 -34z" />
    <glyph glyph-name="exclamdown" unicode="&#xa1;" horiz-adv-x="296" 
d="M194 0h-91v186l24 300h43l24 -300v-186zM200 550h-104v116h104v-116z" />
    <glyph glyph-name="cent" unicode="&#xa2;" horiz-adv-x="469" 
d="M424 12q-53 -18 -118 -20v-61h-23v61q-109 5 -176 76.5t-67 175.5t67 175.5t176 76.5v61h23v-61q69 -2 118 -20l-15 -67q-52 13 -96 14h-7v-352l1 -3q1 -3 2 -3q38 0 100 14zM283 67v354q-75 -7 -115 -54.5t-40 -122.5t40 -122.5t115 -54.5z" />
    <glyph glyph-name="sterling" unicode="&#xa3;" horiz-adv-x="664" 
d="M584 642l-15 -72q-104 27 -196 27q-87 0 -127 -23t-40 -73t48 -161h209v-58h-198v-5q4 -102 -40 -202h350v-75h-500v75h59q43 113 40 204v1l-1 2h-97v58h87q-48 102 -48 161q0 80 64.5 127.5t181.5 47.5q119 0 223 -34z" />
    <glyph glyph-name="currency" unicode="&#xa4;" horiz-adv-x="719" 
d="M659 15q-86 -26 -172 -26q-132 0 -228 70t-127 181h-107v49h97q-3 21 -3 43q0 21 3 42h-97v48h106q31 113 127 183.5t229 70.5q97 0 172 -25l-16 -75q-85 20 -150 20q-101 0 -171.5 -46.5t-96.5 -127.5h198v-48h-209q-3 -19 -3 -42q0 -22 3 -43h209v-49h-197
q27 -79 97 -125t170 -46q70 0 150 20z" />
    <glyph glyph-name="yen" unicode="&#xa5;" horiz-adv-x="592" 
d="M597 666l-184 -287h104v-57h-139l-36 -54v-38h175v-57h-175v-173h-92v173h-174v57h174v38l-35 54h-139v57h104l-185 287h96l205 -316l206 316h95z" />
    <glyph glyph-name="brokenbar" unicode="&#xa6;" horiz-adv-x="281" 
d="M175 381h-69v419h69v-419zM175 -200h-69v419h69v-419z" />
    <glyph glyph-name="section" unicode="&#xa7;" horiz-adv-x="533" 
d="M483 -20q0 -71 -61.5 -114t-162.5 -43q-113 0 -214 49l21 71q105 -43 191 -43q138 0 138 80q0 33 -27 50t-134 59q-94 37 -131.5 76.5t-37.5 102.5q0 75 87 128q-48 27 -67.5 59t-19.5 79q0 70 56 106t155 36q98 0 186 -27l-13 -72q-86 21 -169 21q-68 0 -97.5 -16
t-29.5 -52q0 -32 27.5 -52t111.5 -54q113 -45 152 -78.5t39 -95.5q0 -37 -24.5 -75t-65.5 -64q51 -26 70.5 -54.5t19.5 -76.5zM395 249q0 31 -25.5 48.5t-115.5 53.5q-22 8 -26 10q-74 -32 -74 -94q0 -33 25.5 -54.5t99.5 -51.5q6 -2 18 -7t14 -6q34 12 59 41t25 60z" />
    <glyph glyph-name="dieresis" unicode="&#xa8;" horiz-adv-x="415" 
d="M263 556v94h83v-94h-83zM69 556v94h83v-94h-83z" />
    <glyph glyph-name="copyright" unicode="&#xa9;" horiz-adv-x="750" 
d="M715 333q0 -142 -98.5 -243t-241.5 -101t-241.5 101t-98.5 243t98.5 242.5t241.5 100.5t241.5 -100.5t98.5 -242.5zM675 333q0 124 -85.5 214.5t-214.5 90.5t-214.5 -90.5t-85.5 -214.5t85.5 -215t214.5 -91t214.5 91t85.5 215zM485 174q-42 -13 -86 -13q-80 0 -132.5 50
t-52.5 123t52.5 123t132.5 50q44 0 86 -13l-6 -38q-47 10 -77 10q-65 0 -103.5 -36.5t-38.5 -95.5t38.5 -96t103.5 -37q37 0 77 10z" />
    <glyph glyph-name="ordfeminine" unicode="&#xaa;" horiz-adv-x="375" 
d="M315 350h-56v38q-32 -43 -100 -43q-49 0 -79 25.5t-30 69.5t27.5 67.5t77.5 23.5h102v33q0 32 -19 48t-66 16t-98 -8l-6 44q55 12 107 12q68 0 104 -29t36 -83v-214zM257 470v19h-88q-60 0 -60 -50q0 -49 60 -49q40 0 64 21.5t24 58.5z" />
    <glyph glyph-name="guillemotleft" unicode="&#xab;" horiz-adv-x="584" 
d="M300 39l-42 -39l-228 244l228 243l42 -39l-192 -204zM499 39l-41 -39l-229 244l228 243l42 -39l-193 -204z" />
    <glyph glyph-name="logicalnot" unicode="&#xac;" horiz-adv-x="509" 
d="M414 0h-69v209h-310v62h379v-271z" />
    <glyph glyph-name="registered" unicode="&#xae;" horiz-adv-x="750" 
d="M715 333q0 -142 -98.5 -243t-241.5 -101t-241.5 101t-98.5 243t98.5 242.5t241.5 100.5t241.5 -100.5t98.5 -242.5zM675 333q0 124 -85.5 214.5t-214.5 90.5t-214.5 -90.5t-85.5 -214.5t85.5 -215t214.5 -91t214.5 91t85.5 215zM548 167h-54l-101 137h-100v-137h-47v336
h163q47 0 76 -30t29 -71q0 -32 -18.5 -57t-51.5 -35zM467 402q0 27 -18.5 44.5t-44.5 17.5h-111v-123h111q29 0 46 16.5t17 44.5z" />
    <glyph glyph-name="macron" unicode="&#xaf;" horiz-adv-x="419" 
d="M69 571v64h281v-64h-281z" />
    <glyph glyph-name="degree" unicode="&#xb0;" horiz-adv-x="316" 
d="M266 568q0 -45 -31.5 -77t-76.5 -32t-76.5 32t-31.5 77t31.5 76.5t76.5 31.5t76.5 -31.5t31.5 -76.5zM242 568q0 33 -24 59t-60 26t-59.5 -25.5t-23.5 -59.5t23.5 -59.5t59.5 -25.5t60 26t24 59z" />
    <glyph glyph-name="plusminus" unicode="&#xb1;" horiz-adv-x="587" 
d="M532 0h-477v61h204v144h-204v66h204v206h69v-206h204v-66h-204v-144h204v-61z" />
    <glyph glyph-name="twosuperior" unicode="&#xb2;" horiz-adv-x="666" 
d="M666 0h-167v167h-166v166h-167v167h167v-167h166v-166h167v-167zM666 333h-167v167h167v-167zM333 0h-167v167h167v-167zM499 500h-166v166h166v-166zM166 167h-166v166h166v-166zM166 500h-166v166h166v-166z" />
    <glyph glyph-name="threesuperior" unicode="&#xb3;" horiz-adv-x="666" 
d="M666 0h-167v167h-166v166h-167v167h167v-167h166v-166h167v-167zM666 333h-167v167h167v-167zM333 0h-167v167h167v-167zM499 500h-166v166h166v-166zM166 167h-166v166h166v-166zM166 500h-166v166h166v-166z" />
    <glyph glyph-name="acute" unicode="&#xb4;" horiz-adv-x="332" 
d="M69 541l86 125h108l-118 -125h-76z" />
    <glyph glyph-name="mu" unicode="&#xb5;" horiz-adv-x="570" 
d="M490 0h-87v85q-26 -42 -70.5 -67.5t-97.5 -25.5q-47 0 -76 21v-182h-89v656h89v-306q0 -109 103 -109q55 0 97.5 44t42.5 113v258h88v-487z" />
    <glyph glyph-name="paragraph" unicode="&#xb6;" horiz-adv-x="428" 
d="M333 0h-52v628h-73v-628h-53v394q-56 0 -95.5 40t-39.5 96t39.5 96t95.5 40h178v-666z" />
    <glyph glyph-name="periodcentered" unicode="&#xb7;" horiz-adv-x="264" 
d="M184 266h-104v116h104v-116z" />
    <glyph glyph-name="cedilla" unicode="&#xb8;" horiz-adv-x="306" 
d="M69 -168l7 37q27 -9 55 -9q45 0 45 29q0 26 -41 26q-27 0 -46 -4l27 89h38l-14 -49q9 3 26 3q33 0 52 -17t19 -48q0 -33 -25.5 -51.5t-65.5 -18.5q-46 0 -77 13z" />
    <glyph glyph-name="onesuperior" unicode="&#xb9;" horiz-adv-x="666" 
d="M666 0h-167v167h-166v166h-167v167h167v-167h166v-166h167v-167zM666 333h-167v167h167v-167zM333 0h-167v167h167v-167zM499 500h-166v166h166v-166zM166 167h-166v166h166v-166zM166 500h-166v166h166v-166z" />
    <glyph glyph-name="ordmasculine" unicode="&#xba;" horiz-adv-x="391" 
d="M351 510q0 -68 -43 -116.5t-112 -48.5t-112.5 48.5t-43.5 116.5t43.5 117t112.5 49t112 -49t43 -117zM294 510q0 53 -26.5 85.5t-71.5 32.5t-71 -32.5t-26 -85.5t26 -85t71 -32t71.5 32t26.5 85z" />
    <glyph glyph-name="guillemotright" unicode="&#xbb;" horiz-adv-x="584" 
d="M356 244l-229 -244l-42 39l193 205l-193 204l43 39zM554 244l-228 -244l-42 39l193 205l-193 204l42 39z" />
    <glyph glyph-name="onequarter" unicode="&#xbc;" horiz-adv-x="666" 
d="M666 0h-167v167h-166v166h-167v167h167v-167h166v-166h167v-167zM666 333h-167v167h167v-167zM333 0h-167v167h167v-167zM499 500h-166v166h166v-166zM166 167h-166v166h166v-166zM166 500h-166v166h166v-166z" />
    <glyph glyph-name="onehalf" unicode="&#xbd;" horiz-adv-x="666" 
d="M666 0h-167v167h-166v166h-167v167h167v-167h166v-166h167v-167zM666 333h-167v167h167v-167zM333 0h-167v167h167v-167zM499 500h-166v166h166v-166zM166 167h-166v166h166v-166zM166 500h-166v166h166v-166z" />
    <glyph glyph-name="threequarters" unicode="&#xbe;" horiz-adv-x="666" 
d="M666 0h-167v167h-166v166h-167v167h167v-167h166v-166h167v-167zM666 333h-167v167h167v-167zM333 0h-167v167h167v-167zM499 500h-166v166h166v-166zM166 167h-166v166h166v-166zM166 500h-166v166h166v-166z" />
    <glyph glyph-name="questiondown" unicode="&#xbf;" horiz-adv-x="531" 
d="M476 19q-104 -29 -206 -29q-106 0 -160.5 42t-54.5 122q0 68 46 138t161 184l44 -50q-13 -16 -38.5 -45.5t-34.5 -40.5t-26.5 -33t-24 -32t-16.5 -27.5t-13 -29t-6 -27t-3 -31.5q0 -47 32 -70t104 -23q82 0 181 23zM333 551h-103v115h103v-115z" />
    <glyph glyph-name="Agrave" unicode="&#xc0;" horiz-adv-x="641" 
d="M627 0h-91l-66 169h-298l-67 -169h-91l268 666h77zM444 240l-123 326l-124 -326h247zM272 720l-120 125h109l87 -125h-76z" />
    <glyph glyph-name="Aacute" unicode="&#xc1;" horiz-adv-x="641" 
d="M627 0h-91l-66 169h-298l-67 -169h-91l268 666h77zM444 240l-123 326l-124 -326h247zM291 720l86 125h108l-118 -125h-76z" />
    <glyph glyph-name="Acircumflex" unicode="&#xc2;" horiz-adv-x="641" 
d="M627 0h-91l-66 169h-298l-67 -169h-91l268 666h77zM444 240l-123 326l-124 -326h247zM178 720l109 125h67l109 -125h-77l-66 76l-65 -76h-77z" />
    <glyph glyph-name="Atilde" unicode="&#xc3;" horiz-adv-x="641" 
d="M627 0h-91l-66 169h-298l-67 -169h-91l268 666h77zM444 240l-123 326l-124 -326h247zM157 740q10 50 29 76.5t54 26.5q30 0 86 -27q50 -24 62 -24q4 0 7 1t5.5 3t4.5 3.5t4 5.5t3.5 6.5t3 8t2.5 8t3 9t3 9.5l55 -14q-12 -50 -30 -76.5t-50 -26.5q-23 0 -71 21
q-5 2 -24 11t-31 13t-22 4q-16 0 -23 -11.5t-16 -40.5z" />
    <glyph glyph-name="Adieresis" unicode="&#xc4;" horiz-adv-x="641" 
d="M627 0h-91l-66 169h-298l-67 -169h-91l268 666h77zM444 240l-123 326l-124 -326h247zM376 735v94h83v-94h-83zM182 735v94h83v-94h-83z" />
    <glyph glyph-name="Aring" unicode="&#xc5;" horiz-adv-x="641" 
d="M321 666q20 0 32.5 12.5t12.5 30.5q0 19 -12.5 32.5t-32.5 13.5q-21 0 -33 -13t-12 -33q0 -18 12 -30.5t33 -12.5zM444 240l-123 326l-124 -326h247zM172 169l-67 -169h-91l260 646q-36 21 -36 63q0 33 23.5 55.5t59.5 22.5t59 -22.5t23 -55.5q0 -42 -36 -64l260 -645
h-91l-66 169h-298z" />
    <glyph glyph-name="AE" unicode="&#xc6;" horiz-adv-x="867" 
d="M408 240l-86 326l-124 -326h210zM802 0h-331l-45 168h-254l-66 -168h-92l269 666h519v-79h-407l59 -203h320v-79h-299l64 -226h263v-79z" />
    <glyph glyph-name="Ccedilla" unicode="&#xc7;" horiz-adv-x="646" 
d="M415 -181q-46 0 -77 13l7 37q27 -9 55 -9q45 0 45 29q0 26 -41 26q-27 0 -46 -4l24 79q-147 10 -242 108t-95 235q0 145 104.5 244t264.5 99q96 0 172 -25l-19 -74q-68 19 -147 19q-129 0 -206 -72.5t-77 -190.5t77 -191t206 -73q62 0 147 20l18 -74q-84 -25 -165 -26
l-11 -38q9 3 26 3q33 0 52 -17t19 -48q0 -33 -25.5 -51.5t-65.5 -18.5z" />
    <glyph glyph-name="Egrave" unicode="&#xc8;" horiz-adv-x="621" 
d="M556 0h-460v666h460v-79h-367v-203h344v-79h-344v-226h367v-79zM310 720l-120 125h109l87 -125h-76z" />
    <glyph glyph-name="Eacute" unicode="&#xc9;" horiz-adv-x="621" 
d="M556 0h-460v666h460v-79h-367v-203h344v-79h-344v-226h367v-79zM287 720l86 125h108l-118 -125h-76z" />
    <glyph glyph-name="Ecircumflex" unicode="&#xca;" horiz-adv-x="621" 
d="M556 0h-460v666h460v-79h-367v-203h344v-79h-344v-226h367v-79zM194 720l109 125h67l109 -125h-77l-66 76l-65 -76h-77z" />
    <glyph glyph-name="Edieresis" unicode="&#xcb;" horiz-adv-x="621" 
d="M556 0h-460v666h460v-79h-367v-203h344v-79h-344v-226h367v-79zM387 735v94h83v-94h-83zM193 735v94h83v-94h-83z" />
    <glyph glyph-name="Igrave" unicode="&#xcc;" horiz-adv-x="292" 
d="M192 0h-92v666h92v-666zM107 720l-120 125h109l87 -125h-76z" />
    <glyph glyph-name="Iacute" unicode="&#xcd;" horiz-adv-x="292" 
d="M192 0h-92v666h92v-666zM111 720l86 125h108l-118 -125h-76z" />
    <glyph glyph-name="Icircumflex" unicode="&#xce;" horiz-adv-x="292" 
d="M192 0h-92v666h92v-666zM3 720l109 125h67l109 -125h-77l-66 76l-65 -76h-77z" />
    <glyph glyph-name="Idieresis" unicode="&#xcf;" horiz-adv-x="292" 
d="M192 0h-92v666h92v-666zM201 735v94h83v-94h-83zM7 735v94h83v-94h-83z" />
    <glyph glyph-name="Eth" unicode="&#xd0;" horiz-adv-x="709" 
d="M259 0h-142v295h-82v76h82v295h142q177 0 290.5 -94t113.5 -239t-113.5 -239t-290.5 -94zM209 80h65q121 0 208 67.5t87 185.5t-87 185.5t-208 67.5h-65v-215h171v-76h-171v-215z" />
    <glyph glyph-name="Ntilde" unicode="&#xd1;" horiz-adv-x="762" 
d="M666 0h-90l-390 526v-526h-90v666h89l391 -526v526h90v-666zM217 740q10 50 29 76.5t54 26.5q30 0 86 -27q50 -24 62 -24q4 0 7 1t5.5 3t4.5 3.5t4 5.5t3.5 6.5t3 8t2.5 8t3 9t3 9.5l55 -14q-12 -50 -30 -76.5t-50 -26.5q-23 0 -71 21q-5 2 -24 11t-31 13t-22 4
q-16 0 -23 -11.5t-16 -40.5z" />
    <glyph glyph-name="Ograve" unicode="&#xd2;" horiz-adv-x="746" 
d="M696 332q0 -143 -92 -243t-231 -100t-231 100t-92 243t92 243.5t231 100.5t231 -100.5t92 -243.5zM604 332q0 115 -63.5 189.5t-167.5 74.5t-168 -74.5t-64 -189.5t64 -189t168 -74t167.5 74t63.5 189zM324 720l-120 125h109l87 -125h-76z" />
    <glyph glyph-name="Oacute" unicode="&#xd3;" horiz-adv-x="746" 
d="M696 332q0 -143 -92 -243t-231 -100t-231 100t-92 243t92 243.5t231 100.5t231 -100.5t92 -243.5zM604 332q0 115 -63.5 189.5t-167.5 74.5t-168 -74.5t-64 -189.5t64 -189t168 -74t167.5 74t63.5 189zM343 720l86 125h108l-118 -125h-76z" />
    <glyph glyph-name="Ocircumflex" unicode="&#xd4;" horiz-adv-x="746" 
d="M696 332q0 -143 -92 -243t-231 -100t-231 100t-92 243t92 243.5t231 100.5t231 -100.5t92 -243.5zM604 332q0 115 -63.5 189.5t-167.5 74.5t-168 -74.5t-64 -189.5t64 -189t168 -74t167.5 74t63.5 189zM230 720l109 125h67l109 -125h-77l-66 76l-65 -76h-77z" />
    <glyph glyph-name="Otilde" unicode="&#xd5;" horiz-adv-x="746" 
d="M696 332q0 -143 -92 -243t-231 -100t-231 100t-92 243t92 243.5t231 100.5t231 -100.5t92 -243.5zM604 332q0 115 -63.5 189.5t-167.5 74.5t-168 -74.5t-64 -189.5t64 -189t168 -74t167.5 74t63.5 189zM209 740q10 50 29 76.5t54 26.5q30 0 86 -27q50 -24 62 -24q4 0 7 1
t5.5 3t4.5 3.5t4 5.5t3.5 6.5t3 8t2.5 8t3 9t3 9.5l55 -14q-12 -50 -30 -76.5t-50 -26.5q-23 0 -71 21q-5 2 -24 11t-31 13t-22 4q-16 0 -23 -11.5t-16 -40.5z" />
    <glyph glyph-name="Odieresis" unicode="&#xd6;" horiz-adv-x="746" 
d="M696 332q0 -143 -92 -243t-231 -100t-231 100t-92 243t92 243.5t231 100.5t231 -100.5t92 -243.5zM604 332q0 115 -63.5 189.5t-167.5 74.5t-168 -74.5t-64 -189.5t64 -189t168 -74t167.5 74t63.5 189zM428 735v94h83v-94h-83zM234 735v94h83v-94h-83z" />
    <glyph glyph-name="multiply" unicode="&#xd7;" horiz-adv-x="483" 
d="M435 83l-49 -49l-144 144l-144 -144l-50 49l144 144l-144 144l50 49l144 -144l144 144l49 -49l-144 -144z" />
    <glyph glyph-name="Oslash" unicode="&#xd8;" horiz-adv-x="746" 
d="M696 333q0 -143 -92 -243.5t-231 -100.5q-125 0 -214 83l-78 -83l-31 30l79 84q-79 96 -79 230q0 143 92 243t231 100q125 0 214 -83l78 82l31 -29l-79 -85q79 -96 79 -228zM530 532q-64 64 -157 64q-104 0 -168 -74t-64 -189q0 -96 48 -168zM604 333q0 96 -47 166
l-341 -366q64 -64 157 -64q104 0 167.5 74.5t63.5 189.5z" />
    <glyph glyph-name="Ugrave" unicode="&#xd9;" 
d="M638 248q0 -107 -75.5 -183t-200.5 -76t-200.5 76t-75.5 183v418h93v-420q0 -82 51 -129t132 -47t132.5 48.5t51.5 127.5v420h92v-418zM325 720l-120 125h109l87 -125h-76z" />
    <glyph glyph-name="Uacute" unicode="&#xda;" 
d="M638 248q0 -107 -75.5 -183t-200.5 -76t-200.5 76t-75.5 183v418h93v-420q0 -82 51 -129t132 -47t132.5 48.5t51.5 127.5v420h92v-418zM312 720l86 125h108l-118 -125h-76z" />
    <glyph glyph-name="Ucircumflex" unicode="&#xdb;" 
d="M638 248q0 -107 -75.5 -183t-200.5 -76t-200.5 76t-75.5 183v418h93v-420q0 -82 51 -129t132 -47t132.5 48.5t51.5 127.5v420h92v-418zM219 720l109 125h67l109 -125h-77l-66 76l-65 -76h-77z" />
    <glyph glyph-name="Udieresis" unicode="&#xdc;" 
d="M638 248q0 -107 -75.5 -183t-200.5 -76t-200.5 76t-75.5 183v418h93v-420q0 -82 51 -129t132 -47t132.5 48.5t51.5 127.5v420h92v-418zM417 735v94h83v-94h-83zM223 735v94h83v-94h-83z" />
    <glyph glyph-name="Yacute" unicode="&#xdd;" horiz-adv-x="591" 
d="M596 666l-254 -398v-268h-92v268l-255 398h95l206 -316l205 316h95zM257 720l86 125h108l-118 -125h-76z" />
    <glyph glyph-name="Thorn" unicode="&#xde;" horiz-adv-x="646" 
d="M626 341q0 -82 -58 -139t-153 -57h-226v-145h-93v666h93v-127h226q95 0 153 -58t58 -140zM533 341q0 54 -36.5 87.5t-89.5 33.5h-218v-242h218q57 0 91.5 33t34.5 88z" />
    <glyph glyph-name="germandbls" unicode="&#xdf;" horiz-adv-x="619" 
d="M579 127q0 -61 -48 -98.5t-130 -37.5q-75 0 -140 31l19 64q62 -25 120 -25q45 0 68.5 17.5t23.5 47.5q0 29 -18 48t-71 44q-61 29 -84.5 57.5t-23.5 72.5q0 27 16.5 51.5t36 40t36 40.5t16.5 53q0 40 -28 63.5t-73 23.5q-44 0 -71 -26t-27 -72v-522h-88v419h-71v64h71v29
q0 83 50 131t136 48q85 0 137 -45t52 -112q0 -37 -16.5 -68t-36 -47t-36 -35.5t-16.5 -36.5q0 -21 12.5 -33t56.5 -33q69 -33 98 -66.5t29 -87.5z" />
    <glyph glyph-name="agrave" unicode="&#xe0;" horiz-adv-x="505" 
d="M445 0h-86v58q-48 -66 -152 -66q-75 0 -119.5 38t-44.5 106q0 67 41 103.5t117 36.5h156v49q0 49 -29.5 73.5t-100.5 24.5q-80 0 -149 -13l-9 68q76 18 164 18q103 0 157.5 -44.5t54.5 -125.5v-326zM357 183v28h-135q-47 0 -69 -18.5t-22 -58.5q0 -74 92 -74
q62 0 98 33.5t36 89.5zM213 541l-120 125h109l87 -125h-76z" />
    <glyph glyph-name="aacute" unicode="&#xe1;" horiz-adv-x="505" 
d="M445 0h-86v58q-48 -66 -152 -66q-75 0 -119.5 38t-44.5 106q0 67 41 103.5t117 36.5h156v49q0 49 -29.5 73.5t-100.5 24.5q-80 0 -149 -13l-9 68q76 18 164 18q103 0 157.5 -44.5t54.5 -125.5v-326zM357 183v28h-135q-47 0 -69 -18.5t-22 -58.5q0 -74 92 -74
q62 0 98 33.5t36 89.5zM203 541l86 125h108l-118 -125h-76z" />
    <glyph glyph-name="acircumflex" unicode="&#xe2;" horiz-adv-x="505" 
d="M445 0h-86v58q-48 -66 -152 -66q-75 0 -119.5 38t-44.5 106q0 67 41 103.5t117 36.5h156v49q0 49 -29.5 73.5t-100.5 24.5q-80 0 -149 -13l-9 68q76 18 164 18q103 0 157.5 -44.5t54.5 -125.5v-326zM357 183v28h-135q-47 0 -69 -18.5t-22 -58.5q0 -74 92 -74
q62 0 98 33.5t36 89.5zM108 541l109 125h67l109 -125h-77l-66 76l-65 -76h-77z" />
    <glyph glyph-name="atilde" unicode="&#xe3;" horiz-adv-x="505" 
d="M445 0h-86v58q-48 -66 -152 -66q-75 0 -119.5 38t-44.5 106q0 67 41 103.5t117 36.5h156v49q0 49 -29.5 73.5t-100.5 24.5q-80 0 -149 -13l-9 68q76 18 164 18q103 0 157.5 -44.5t54.5 -125.5v-326zM357 183v28h-135q-47 0 -69 -18.5t-22 -58.5q0 -74 92 -74
q62 0 98 33.5t36 89.5zM87 561q10 50 29 76.5t54 26.5q30 0 86 -27q50 -24 62 -24q4 0 7 1t5.5 3t4.5 3.5t4 5.5t3.5 6.5t3 8t2.5 8t3 9t3 9.5l55 -14q-12 -50 -30 -76.5t-50 -26.5q-23 0 -71 21q-5 2 -24 11t-31 13t-22 4q-16 0 -23 -11.5t-16 -40.5z" />
    <glyph glyph-name="adieresis" unicode="&#xe4;" horiz-adv-x="505" 
d="M445 0h-86v58q-48 -66 -152 -66q-75 0 -119.5 38t-44.5 106q0 67 41 103.5t117 36.5h156v49q0 49 -29.5 73.5t-100.5 24.5q-80 0 -149 -13l-9 68q76 18 164 18q103 0 157.5 -44.5t54.5 -125.5v-326zM357 183v28h-135q-47 0 -69 -18.5t-22 -58.5q0 -74 92 -74
q62 0 98 33.5t36 89.5zM306 556v94h83v-94h-83zM112 556v94h83v-94h-83z" />
    <glyph glyph-name="aring" unicode="&#xe5;" horiz-adv-x="505" 
d="M445 0h-86v58q-48 -66 -152 -66q-75 0 -119.5 38t-44.5 106q0 67 41 103.5t117 36.5h156v49q0 49 -29.5 73.5t-100.5 24.5q-80 0 -149 -13l-9 68q76 18 164 18q103 0 157.5 -44.5t54.5 -125.5v-326zM357 183v28h-135q-47 0 -69 -18.5t-22 -58.5q0 -74 92 -74
q62 0 98 33.5t36 89.5zM251 541q-36 0 -59.5 22t-23.5 54q0 33 23.5 55.5t59.5 22.5t59 -22.5t23 -55.5q0 -32 -23 -54t-59 -22zM251 574q20 0 32.5 12.5t12.5 30.5q0 19 -12.5 32.5t-32.5 13.5q-21 0 -33 -13t-12 -33q0 -18 12 -30.5t33 -12.5z" />
    <glyph glyph-name="ae" unicode="&#xe6;" horiz-adv-x="853" 
d="M808 216h-364q5 -72 50 -112t125 -40q62 0 144 21l17 -67q-79 -26 -161 -26q-141 0 -212 95q-27 -45 -74 -70t-108 -25q-82 0 -132 39.5t-50 107.5q0 67 41 103t117 36h155v47q0 49 -29 73.5t-100 24.5q-67 0 -149 -13l-9 68q80 18 164 18q136 0 184 -80q65 80 170 80
q103 0 162 -71t59 -182v-27zM721 279q-5 67 -39.5 106t-94.5 39t-98 -39t-45 -106h277zM356 184v29h-134q-47 0 -68.5 -18.5t-21.5 -58.5q0 -76 91 -76q65 0 99 33t34 91z" />
    <glyph glyph-name="ccedilla" unicode="&#xe7;" horiz-adv-x="469" 
d="M299 -181q-46 0 -77 13l7 37q27 -9 55 -9q45 0 45 29q0 26 -41 26q-27 0 -46 -4l25 83q-103 10 -165 80t-62 170q0 108 71.5 180t187.5 72q67 0 125 -19l-15 -67q-51 13 -102 13q-88 0 -133.5 -48.5t-45.5 -130.5t45.5 -130.5t133.5 -48.5q46 0 102 12l15 -67
q-50 -16 -119 -18l-12 -41q9 3 26 3q33 0 52 -17t19 -48q0 -33 -25.5 -51.5t-65.5 -18.5z" />
    <glyph glyph-name="egrave" unicode="&#xe8;" horiz-adv-x="540" 
d="M495 216h-364q5 -72 50 -112t125 -40q68 0 144 20l17 -66q-79 -26 -161 -26q-122 0 -192.5 69.5t-70.5 182.5q0 105 63 178.5t168 73.5q103 0 162 -71t59 -182v-27zM408 282q-5 67 -39.5 104.5t-94.5 37.5t-98 -37.5t-45 -104.5h277zM223 541l-120 125h109l87 -125h-76z
" />
    <glyph glyph-name="eacute" unicode="&#xe9;" horiz-adv-x="540" 
d="M495 216h-364q5 -72 50 -112t125 -40q68 0 144 20l17 -66q-79 -26 -161 -26q-122 0 -192.5 69.5t-70.5 182.5q0 105 63 178.5t168 73.5q103 0 162 -71t59 -182v-27zM408 282q-5 67 -39.5 104.5t-94.5 37.5t-98 -37.5t-45 -104.5h277zM242 541l86 125h108l-118 -125h-76z
" />
    <glyph glyph-name="ecircumflex" unicode="&#xea;" horiz-adv-x="540" 
d="M495 216h-364q5 -72 50 -112t125 -40q68 0 144 20l17 -66q-79 -26 -161 -26q-122 0 -192.5 69.5t-70.5 182.5q0 105 63 178.5t168 73.5q103 0 162 -71t59 -182v-27zM408 282q-5 67 -39.5 104.5t-94.5 37.5t-98 -37.5t-45 -104.5h277zM129 541l109 125h67l109 -125h-77
l-66 76l-65 -76h-77z" />
    <glyph glyph-name="edieresis" unicode="&#xeb;" horiz-adv-x="540" 
d="M495 216h-364q5 -72 50 -112t125 -40q68 0 144 20l17 -66q-79 -26 -161 -26q-122 0 -192.5 69.5t-70.5 182.5q0 105 63 178.5t168 73.5q103 0 162 -71t59 -182v-27zM408 282q-5 67 -39.5 104.5t-94.5 37.5t-98 -37.5t-45 -104.5h277zM327 556v94h83v-94h-83zM133 556v94
h83v-94h-83z" />
    <glyph glyph-name="igrave" unicode="&#xec;" horiz-adv-x="248" 
d="M168 0h-88v487h88v-487zM81 541l-120 125h109l87 -125h-76z" />
    <glyph glyph-name="iacute" unicode="&#xed;" horiz-adv-x="248" 
d="M168 0h-88v487h88v-487zM89 541l86 125h108l-118 -125h-76z" />
    <glyph glyph-name="icircumflex" unicode="&#xee;" horiz-adv-x="248" 
d="M168 0h-88v487h88v-487zM-19 541l109 125h67l109 -125h-77l-66 76l-65 -76h-77z" />
    <glyph glyph-name="idieresis" unicode="&#xef;" horiz-adv-x="248" 
d="M168 0h-88v487h88v-487zM179 556v94h83v-94h-83zM-15 556v94h83v-94h-83z" />
    <glyph glyph-name="eth" unicode="&#xf0;" horiz-adv-x="546" 
d="M269 -8q-106 0 -165 75.5t-59 176.5q0 100 54.5 172t154.5 72q48 0 88.5 -22t59.5 -61q-19 71 -80 141l-96 -32l-21 56l71 23q-35 33 -90 73h97q29 -17 66 -49l90 30l20 -55l-65 -22q107 -126 107 -301q0 -119 -59.5 -198t-172.5 -79zM411 244q0 74 -37 123t-103 49
t-102 -48.5t-36 -123.5q0 -79 36 -130t102 -51q65 0 102.5 51.5t37.5 129.5z" />
    <glyph glyph-name="ntilde" unicode="&#xf1;" horiz-adv-x="574" 
d="M499 0h-88v306q0 110 -103 110q-55 0 -97.5 -44t-42.5 -114v-258h-88v487h87v-85q26 42 70.5 68t97.5 26q80 0 122 -48.5t42 -131.5v-316zM129 561q10 50 29 76.5t54 26.5q30 0 86 -27q50 -24 62 -24q4 0 7 1t5.5 3t4.5 3.5t4 5.5t3.5 6.5t3 8t2.5 8t3 9t3 9.5l55 -14
q-12 -50 -30 -76.5t-50 -26.5q-23 0 -71 21q-5 2 -24 11t-31 13t-22 4q-16 0 -23 -11.5t-16 -40.5z" />
    <glyph glyph-name="ograve" unicode="&#xf2;" horiz-adv-x="563" 
d="M518 244q0 -105 -65.5 -178.5t-171.5 -73.5q-105 0 -170.5 73.5t-65.5 178.5t65.5 178.5t170.5 73.5t171 -73.5t66 -178.5zM430 244q0 81 -40.5 130.5t-108.5 49.5t-108 -49.5t-40 -130.5t40 -130.5t108 -49.5t108.5 49.5t40.5 130.5zM233 541l-120 125h109l87 -125h-76z
" />
    <glyph glyph-name="oacute" unicode="&#xf3;" horiz-adv-x="563" 
d="M518 244q0 -105 -65.5 -178.5t-171.5 -73.5q-105 0 -170.5 73.5t-65.5 178.5t65.5 178.5t170.5 73.5t171 -73.5t66 -178.5zM430 244q0 81 -40.5 130.5t-108.5 49.5t-108 -49.5t-40 -130.5t40 -130.5t108 -49.5t108.5 49.5t40.5 130.5zM252 541l86 125h108l-118 -125h-76z
" />
    <glyph glyph-name="ocircumflex" unicode="&#xf4;" horiz-adv-x="563" 
d="M518 244q0 -105 -65.5 -178.5t-171.5 -73.5q-105 0 -170.5 73.5t-65.5 178.5t65.5 178.5t170.5 73.5t171 -73.5t66 -178.5zM430 244q0 81 -40.5 130.5t-108.5 49.5t-108 -49.5t-40 -130.5t40 -130.5t108 -49.5t108.5 49.5t40.5 130.5zM139 541l109 125h67l109 -125h-77
l-66 76l-65 -76h-77z" />
    <glyph glyph-name="otilde" unicode="&#xf5;" horiz-adv-x="563" 
d="M518 244q0 -105 -65.5 -178.5t-171.5 -73.5q-105 0 -170.5 73.5t-65.5 178.5t65.5 178.5t170.5 73.5t171 -73.5t66 -178.5zM430 244q0 81 -40.5 130.5t-108.5 49.5t-108 -49.5t-40 -130.5t40 -130.5t108 -49.5t108.5 49.5t40.5 130.5zM118 561q10 50 29 76.5t54 26.5
q30 0 86 -27q50 -24 62 -24q4 0 7 1t5.5 3t4.5 3.5t4 5.5t3.5 6.5t3 8t2.5 8t3 9t3 9.5l55 -14q-12 -50 -30 -76.5t-50 -26.5q-23 0 -71 21q-5 2 -24 11t-31 13t-22 4q-16 0 -23 -11.5t-16 -40.5z" />
    <glyph glyph-name="odieresis" unicode="&#xf6;" horiz-adv-x="563" 
d="M518 244q0 -105 -65.5 -178.5t-171.5 -73.5q-105 0 -170.5 73.5t-65.5 178.5t65.5 178.5t170.5 73.5t171 -73.5t66 -178.5zM430 244q0 81 -40.5 130.5t-108.5 49.5t-108 -49.5t-40 -130.5t40 -130.5t108 -49.5t108.5 49.5t40.5 130.5zM337 556v94h83v-94h-83zM143 556v94
h83v-94h-83z" />
    <glyph glyph-name="divide" unicode="&#xf7;" horiz-adv-x="545" 
d="M495 184h-445v62h445v-62zM332 56q0 -25 -17 -42t-42 -17t-42 17t-17 42t17 42t42 17t42 -17t17 -42zM332 374q0 -25 -17 -42t-42 -17t-42 17t-17 42t17 42t42 17t42 -17t17 -42z" />
    <glyph glyph-name="oslash" unicode="&#xf8;" horiz-adv-x="563" 
d="M518 244q0 -105 -65.5 -178.5t-171.5 -73.5q-91 0 -155 58l-55 -58l-26 24l56 61q-56 70 -56 167q0 105 65.5 178.5t170.5 73.5q90 0 156 -59l55 59l26 -24l-56 -61q56 -70 56 -167zM429 244q0 62 -25 107l-225 -244q40 -43 102 -43q68 0 108 49.5t40 130.5zM383 381
q-39 42 -102 42q-68 0 -108 -49t-40 -130q0 -62 25 -107z" />
    <glyph glyph-name="ugrave" unicode="&#xf9;" horiz-adv-x="570" 
d="M490 0h-87v85q-26 -42 -70.5 -67.5t-97.5 -25.5q-81 0 -123 48t-42 131v316h89v-305q0 -110 103 -110q55 0 97.5 44t42.5 113v258h88v-487zM251 541l-120 125h109l87 -125h-76z" />
    <glyph glyph-name="uacute" unicode="&#xfa;" horiz-adv-x="570" 
d="M490 0h-87v85q-26 -42 -70.5 -67.5t-97.5 -25.5q-81 0 -123 48t-42 131v316h89v-305q0 -110 103 -110q55 0 97.5 44t42.5 113v258h88v-487zM235 541l86 125h108l-118 -125h-76z" />
    <glyph glyph-name="ucircumflex" unicode="&#xfb;" horiz-adv-x="570" 
d="M490 0h-87v85q-26 -42 -70.5 -67.5t-97.5 -25.5q-81 0 -123 48t-42 131v316h89v-305q0 -110 103 -110q55 0 97.5 44t42.5 113v258h88v-487zM142 541l109 125h67l109 -125h-77l-66 76l-65 -76h-77z" />
    <glyph glyph-name="udieresis" unicode="&#xfc;" horiz-adv-x="570" 
d="M490 0h-87v85q-26 -42 -70.5 -67.5t-97.5 -25.5q-81 0 -123 48t-42 131v316h89v-305q0 -110 103 -110q55 0 97.5 44t42.5 113v258h88v-487zM340 556v94h83v-94h-83zM146 556v94h83v-94h-83z" />
    <glyph glyph-name="yacute" unicode="&#xfd;" horiz-adv-x="469" 
d="M464 487l-252 -656h-85l66 169l-193 487h87l146 -392l145 392h86zM194 541l86 125h108l-118 -125h-76z" />
    <glyph glyph-name="thorn" unicode="&#xfe;" horiz-adv-x="580" 
d="M535 244q0 -103 -54.5 -177.5t-157.5 -74.5q-101 0 -155 89v-249h-88v835h88v-260q55 89 155 89q102 0 157 -75.5t55 -176.5zM447 244q0 78 -36.5 128.5t-102.5 50.5q-65 0 -102.5 -50.5t-37.5 -128.5t37.5 -129t102.5 -51q66 0 102.5 51t36.5 129z" />
    <glyph glyph-name="ydieresis" unicode="&#xff;" horiz-adv-x="469" 
d="M464 487l-252 -656h-85l66 169l-193 487h87l146 -392l145 392h86zM290 556v94h83v-94h-83zM96 556v94h83v-94h-83z" />
    <glyph glyph-name="Amacron" unicode="&#x100;" horiz-adv-x="641" 
d="M627 0h-91l-66 169h-298l-67 -169h-91l268 666h77zM444 240l-123 326l-124 -326h247zM180 750v64h281v-64h-281z" />
    <glyph glyph-name="amacron" unicode="&#x101;" horiz-adv-x="505" 
d="M445 0h-86v58q-48 -66 -152 -66q-75 0 -119.5 38t-44.5 106q0 67 41 103.5t117 36.5h156v49q0 49 -29.5 73.5t-100.5 24.5q-80 0 -149 -13l-9 68q76 18 164 18q103 0 157.5 -44.5t54.5 -125.5v-326zM357 183v28h-135q-47 0 -69 -18.5t-22 -58.5q0 -74 92 -74
q62 0 98 33.5t36 89.5zM110 571v64h281v-64h-281z" />
    <glyph glyph-name="Abreve" unicode="&#x102;" horiz-adv-x="641" 
d="M627 0h-91l-66 169h-298l-67 -169h-91l268 666h77zM444 240l-123 326l-124 -326h247zM185 840h57q0 -31 21.5 -51.5t57.5 -20.5t57.5 20t21.5 52h57q0 -53 -38.5 -85.5t-97.5 -32.5t-97.5 32.5t-38.5 85.5z" />
    <glyph glyph-name="abreve" unicode="&#x103;" horiz-adv-x="505" 
d="M445 0h-86v58q-48 -66 -152 -66q-75 0 -119.5 38t-44.5 106q0 67 41 103.5t117 36.5h156v49q0 49 -29.5 73.5t-100.5 24.5q-80 0 -149 -13l-9 68q76 18 164 18q103 0 157.5 -44.5t54.5 -125.5v-326zM357 183v28h-135q-47 0 -69 -18.5t-22 -58.5q0 -74 92 -74
q62 0 98 33.5t36 89.5zM115 661h57q0 -31 21.5 -51.5t57.5 -20.5t57.5 20t21.5 52h57q0 -53 -38.5 -85.5t-97.5 -32.5t-97.5 32.5t-38.5 85.5z" />
    <glyph glyph-name="Aogonek" unicode="&#x104;" horiz-adv-x="641" 
d="M444 240l-123 326l-124 -326h247zM536 0l-66 169h-298l-67 -169h-91l268 666h77l268 -666h-50q-56 -43 -56 -92q0 -42 45 -42q17 0 32 5l6 -42q-20 -10 -54 -10q-45 0 -69 22.5t-24 58.5q0 33 22.5 60t56.5 40z" />
    <glyph glyph-name="aogonek" unicode="&#x105;" horiz-adv-x="505" 
d="M357 183v28h-135q-47 0 -69 -18.5t-22 -58.5q0 -74 92 -74q62 0 98 33.5t36 89.5zM359 0v58q-48 -66 -152 -66q-75 0 -119.5 38t-44.5 106q0 67 41 103.5t117 36.5h156v49q0 49 -29.5 73.5t-100.5 24.5q-80 0 -149 -13l-9 68q76 18 164 18q103 0 157.5 -44.5t54.5 -125.5
v-326h-45q-56 -43 -56 -92q0 -42 45 -42q17 0 32 5l6 -42q-20 -10 -54 -10q-45 0 -69 22.5t-24 58.5q0 33 22.5 60t56.5 40z" />
    <glyph glyph-name="Cacute" unicode="&#x106;" horiz-adv-x="646" 
d="M586 651l-19 -74q-68 19 -147 19q-129 0 -206 -72.5t-77 -190.5t77 -191t206 -73q62 0 147 20l18 -74q-86 -26 -171 -26q-159 0 -264 99.5t-105 244.5t104.5 244t264.5 99q96 0 172 -25zM352 720l86 125h108l-118 -125h-76z" />
    <glyph glyph-name="cacute" unicode="&#x107;" horiz-adv-x="469" 
d="M424 10q-54 -18 -125 -18q-116 0 -187.5 72t-71.5 180t71.5 180t187.5 72q67 0 125 -19l-15 -67q-51 13 -102 13q-88 0 -133.5 -48.5t-45.5 -130.5t45.5 -130.5t133.5 -48.5q46 0 102 12zM237 541l86 125h108l-118 -125h-76z" />
    <glyph glyph-name="Ccircumflex" unicode="&#x108;" horiz-adv-x="646" 
d="M586 651l-19 -74q-68 19 -147 19q-129 0 -206 -72.5t-77 -190.5t77 -191t206 -73q62 0 147 20l18 -74q-86 -26 -171 -26q-159 0 -264 99.5t-105 244.5t104.5 244t264.5 99q96 0 172 -25zM244 720l109 125h67l109 -125h-77l-66 76l-65 -76h-77z" />
    <glyph glyph-name="ccircumflex" unicode="&#x109;" horiz-adv-x="469" 
d="M424 10q-54 -18 -125 -18q-116 0 -187.5 72t-71.5 180t71.5 180t187.5 72q67 0 125 -19l-15 -67q-51 13 -102 13q-88 0 -133.5 -48.5t-45.5 -130.5t45.5 -130.5t133.5 -48.5q46 0 102 12zM133 541l109 125h67l109 -125h-77l-66 76l-65 -76h-77z" />
    <glyph glyph-name="Cdotaccent" unicode="&#x10a;" horiz-adv-x="646" 
d="M586 651l-19 -74q-68 19 -147 19q-129 0 -206 -72.5t-77 -190.5t77 -191t206 -73q62 0 147 20l18 -74q-86 -26 -171 -26q-159 0 -264 99.5t-105 244.5t104.5 244t264.5 99q96 0 172 -25zM347 733v102h89v-102h-89z" />
    <glyph glyph-name="cdotaccent" unicode="&#x10b;" horiz-adv-x="469" 
d="M424 10q-54 -18 -125 -18q-116 0 -187.5 72t-71.5 180t71.5 180t187.5 72q67 0 125 -19l-15 -67q-51 13 -102 13q-88 0 -133.5 -48.5t-45.5 -130.5t45.5 -130.5t133.5 -48.5q46 0 102 12zM231 554v102h89v-102h-89z" />
    <glyph glyph-name="Ccaron" unicode="&#x10c;" horiz-adv-x="646" 
d="M586 651l-19 -74q-68 19 -147 19q-129 0 -206 -72.5t-77 -190.5t77 -191t206 -73q62 0 147 20l18 -74q-86 -26 -171 -26q-159 0 -264 99.5t-105 244.5t104.5 244t264.5 99q96 0 172 -25zM250 845h77l65 -76l66 76h77l-109 -125h-67z" />
    <glyph glyph-name="ccaron" unicode="&#x10d;" horiz-adv-x="469" 
d="M424 10q-54 -18 -125 -18q-116 0 -187.5 72t-71.5 180t71.5 180t187.5 72q67 0 125 -19l-15 -67q-51 13 -102 13q-88 0 -133.5 -48.5t-45.5 -130.5t45.5 -130.5t133.5 -48.5q46 0 102 12zM134 666h77l65 -76l66 76h77l-109 -125h-67z" />
    <glyph glyph-name="Dcaron" unicode="&#x10e;" horiz-adv-x="688" 
d="M642 333q0 -145 -113.5 -239t-290.5 -94h-142v666h142q177 0 290.5 -94t113.5 -239zM548 333q0 118 -87 185.5t-208 67.5h-65v-506h65q121 0 208 67.5t87 185.5zM198 845h77l65 -76l66 76h77l-109 -125h-67z" />
    <glyph glyph-name="dcaron" unicode="&#x10f;" horiz-adv-x="716" 
d="M500 0h-88v81q-55 -89 -154 -89q-102 0 -157.5 75.5t-55.5 176.5q0 103 55 177.5t158 74.5q100 0 154 -89v259h88v-666zM412 244q0 78 -37 128.5t-102 50.5q-66 0 -103 -50.5t-37 -128.5t37 -129t103 -51q65 0 102 51t37 129zM599 666h95v-103l-43 -93h-45l36 93h-43v103
z" />
    <glyph glyph-name="Dcroat" unicode="&#x110;" horiz-adv-x="709" 
d="M259 0h-142v295h-82v76h82v295h142q177 0 290.5 -94t113.5 -239t-113.5 -239t-290.5 -94zM209 80h65q121 0 208 67.5t87 185.5t-87 185.5t-208 67.5h-65v-215h171v-76h-171v-215z" />
    <glyph glyph-name="dcroat" unicode="&#x111;" horiz-adv-x="590" 
d="M412 244q0 78 -37 128.5t-102 50.5q-66 0 -103 -50.5t-37 -128.5t37 -129t103 -51q65 0 102 51t37 129zM412 81q-55 -89 -154 -89q-102 0 -157.5 75.5t-55.5 176.5q0 103 55 177.5t158 74.5q100 0 154 -89v126h-125v66h125v67h88v-67h70v-66h-70v-533h-88v81z" />
    <glyph glyph-name="Emacron" unicode="&#x112;" horiz-adv-x="621" 
d="M556 0h-460v666h460v-79h-367v-203h344v-79h-344v-226h367v-79zM194 750v64h281v-64h-281z" />
    <glyph glyph-name="emacron" unicode="&#x113;" horiz-adv-x="540" 
d="M495 216h-364q5 -72 50 -112t125 -40q68 0 144 20l17 -66q-79 -26 -161 -26q-122 0 -192.5 69.5t-70.5 182.5q0 105 63 178.5t168 73.5q103 0 162 -71t59 -182v-27zM408 282q-5 67 -39.5 104.5t-94.5 37.5t-98 -37.5t-45 -104.5h277zM131 571v64h281v-64h-281z" />
    <glyph glyph-name="Ebreve" unicode="&#x114;" horiz-adv-x="621" 
d="M556 0h-460v666h460v-79h-367v-203h344v-79h-344v-226h367v-79zM199 840h57q0 -31 21.5 -51.5t57.5 -20.5t57.5 20t21.5 52h57q0 -53 -38.5 -85.5t-97.5 -32.5t-97.5 32.5t-38.5 85.5z" />
    <glyph glyph-name="ebreve" unicode="&#x115;" horiz-adv-x="540" 
d="M495 216h-364q5 -72 50 -112t125 -40q68 0 144 20l17 -66q-79 -26 -161 -26q-122 0 -192.5 69.5t-70.5 182.5q0 105 63 178.5t168 73.5q103 0 162 -71t59 -182v-27zM408 282q-5 67 -39.5 104.5t-94.5 37.5t-98 -37.5t-45 -104.5h277zM136 661h57q0 -31 21.5 -51.5
t57.5 -20.5t57.5 20t21.5 52h57q0 -53 -38.5 -85.5t-97.5 -32.5t-97.5 32.5t-38.5 85.5z" />
    <glyph glyph-name="Edotaccent" unicode="&#x116;" horiz-adv-x="621" 
d="M556 0h-460v666h460v-79h-367v-203h344v-79h-344v-226h367v-79zM290 733v102h89v-102h-89z" />
    <glyph glyph-name="edotaccent" unicode="&#x117;" horiz-adv-x="540" 
d="M495 216h-364q5 -72 50 -112t125 -40q68 0 144 20l17 -66q-79 -26 -161 -26q-122 0 -192.5 69.5t-70.5 182.5q0 105 63 178.5t168 73.5q103 0 162 -71t59 -182v-27zM408 282q-5 67 -39.5 104.5t-94.5 37.5t-98 -37.5t-45 -104.5h277zM227 554v102h89v-102h-89z" />
    <glyph glyph-name="Eogonek" unicode="&#x118;" horiz-adv-x="621" 
d="M455 0h-359v666h460v-79h-367v-203h344v-79h-344v-226h367v-79h-60q-56 -43 -56 -92q0 -42 45 -42q17 0 32 5l6 -42q-20 -10 -54 -10q-45 0 -69 22.5t-24 58.5q0 33 22.5 60t56.5 40z" />
    <glyph glyph-name="eogonek" unicode="&#x119;" horiz-adv-x="540" 
d="M417 -181q-45 0 -69 22.5t-24 58.5q0 35 22 61t56 40q-48 -9 -96 -9q-122 0 -192.5 69.5t-70.5 182.5q0 105 63 178.5t168 73.5q103 0 162 -71t59 -182v-27h-364q5 -72 50 -112t125 -40q68 0 144 20l17 -66q-79 -51 -79 -110q0 -42 45 -42q17 0 32 5l6 -42
q-20 -10 -54 -10zM408 282q-5 67 -39.5 104.5t-94.5 37.5t-98 -37.5t-45 -104.5h277z" />
    <glyph glyph-name="Ecaron" unicode="&#x11a;" horiz-adv-x="621" 
d="M556 0h-460v666h460v-79h-367v-203h344v-79h-344v-226h367v-79zM193 845h77l65 -76l66 76h77l-109 -125h-67z" />
    <glyph glyph-name="ecaron" unicode="&#x11b;" horiz-adv-x="540" 
d="M495 216h-364q5 -72 50 -112t125 -40q68 0 144 20l17 -66q-79 -26 -161 -26q-122 0 -192.5 69.5t-70.5 182.5q0 105 63 178.5t168 73.5q103 0 162 -71t59 -182v-27zM408 282q-5 67 -39.5 104.5t-94.5 37.5t-98 -37.5t-45 -104.5h277zM130 666h77l65 -76l66 76h77
l-109 -125h-67z" />
    <glyph glyph-name="Gcircumflex" unicode="&#x11c;" horiz-adv-x="696" 
d="M621 18q-108 -29 -206 -29q-162 0 -266 99t-104 245q0 151 102.5 247t266.5 96q99 0 180 -24l-15 -74q-87 18 -160 18q-131 0 -207 -69.5t-76 -193.5q0 -117 75.5 -190.5t197.5 -73.5q76 0 128 12v231h84v-294zM248 720l109 125h67l109 -125h-77l-66 76l-65 -76h-77z" />
    <glyph glyph-name="gcircumflex" unicode="&#x11d;" horiz-adv-x="567" 
d="M495 46q0 -107 -63 -165.5t-182 -58.5q-89 0 -164 26l13 63q73 -20 141 -20q89 0 128 36.5t39 112.5v51q-53 -85 -159 -85q-101 0 -154.5 70.5t-53.5 173.5q0 104 53 175t155 71q104 0 159 -89v80h88v-441zM407 248q0 81 -37.5 128t-104.5 47q-68 0 -102 -48t-34 -125
t34 -124.5t102 -47.5q67 0 104.5 45t37.5 125zM140 541l109 125h67l109 -125h-77l-66 76l-65 -76h-77z" />
    <glyph glyph-name="Gbreve" unicode="&#x11e;" horiz-adv-x="696" 
d="M621 18q-108 -29 -206 -29q-162 0 -266 99t-104 245q0 151 102.5 247t266.5 96q99 0 180 -24l-15 -74q-87 18 -160 18q-131 0 -207 -69.5t-76 -193.5q0 -117 75.5 -190.5t197.5 -73.5q76 0 128 12v231h84v-294zM255 840h57q0 -31 21.5 -51.5t57.5 -20.5t57.5 20t21.5 52
h57q0 -53 -38.5 -85.5t-97.5 -32.5t-97.5 32.5t-38.5 85.5z" />
    <glyph glyph-name="gbreve" unicode="&#x11f;" horiz-adv-x="567" 
d="M495 46q0 -107 -63 -165.5t-182 -58.5q-89 0 -164 26l13 63q73 -20 141 -20q89 0 128 36.5t39 112.5v51q-53 -85 -159 -85q-101 0 -154.5 70.5t-53.5 173.5q0 104 53 175t155 71q104 0 159 -89v80h88v-441zM407 248q0 81 -37.5 128t-104.5 47q-68 0 -102 -48t-34 -125
t34 -124.5t102 -47.5q67 0 104.5 45t37.5 125zM147 661h57q0 -31 21.5 -51.5t57.5 -20.5t57.5 20t21.5 52h57q0 -53 -38.5 -85.5t-97.5 -32.5t-97.5 32.5t-38.5 85.5z" />
    <glyph glyph-name="Gdotaccent" unicode="&#x120;" horiz-adv-x="696" 
d="M621 18q-108 -29 -206 -29q-162 0 -266 99t-104 245q0 151 102.5 247t266.5 96q99 0 180 -24l-15 -74q-87 18 -160 18q-131 0 -207 -69.5t-76 -193.5q0 -117 75.5 -190.5t197.5 -73.5q76 0 128 12v231h84v-294zM346 733v102h89v-102h-89z" />
    <glyph glyph-name="gdotaccent" unicode="&#x121;" horiz-adv-x="567" 
d="M495 46q0 -107 -63 -165.5t-182 -58.5q-89 0 -164 26l13 63q73 -20 141 -20q89 0 128 36.5t39 112.5v51q-53 -85 -159 -85q-101 0 -154.5 70.5t-53.5 173.5q0 104 53 175t155 71q104 0 159 -89v80h88v-441zM407 248q0 81 -37.5 128t-104.5 47q-68 0 -102 -48t-34 -125
t34 -124.5t102 -47.5q67 0 104.5 45t37.5 125zM238 554v102h89v-102h-89z" />
    <glyph glyph-name="uni0122" unicode="&#x122;" horiz-adv-x="696" 
d="M621 18q-108 -29 -206 -29q-162 0 -266 99t-104 245q0 151 102.5 247t266.5 96q99 0 180 -24l-15 -74q-87 18 -160 18q-131 0 -207 -69.5t-76 -193.5q0 -117 75.5 -190.5t197.5 -73.5q76 0 128 12v231h84v-294zM373 -62h94v-100l-46 -91h-44l37 91h-41v100z" />
    <glyph glyph-name="uni0123" unicode="&#x123;" horiz-adv-x="567" 
d="M495 46q0 -107 -63 -165.5t-182 -58.5q-89 0 -164 26l13 63q73 -20 141 -20q89 0 128 36.5t39 112.5v51q-53 -85 -159 -85q-101 0 -154.5 70.5t-53.5 173.5q0 104 53 175t155 71q104 0 159 -89v80h88v-441zM407 248q0 81 -37.5 128t-104.5 47q-68 0 -102 -48t-34 -125
t34 -124.5t102 -47.5q67 0 104.5 45t37.5 125zM209 541l118 125h76l-85 -125h-109z" />
    <glyph glyph-name="Hcircumflex" unicode="&#x124;" 
d="M628 0h-93v301h-347v-301h-92v666h92v-284h347v284h93v-666zM219 720l109 125h67l109 -125h-77l-66 76l-65 -76h-77z" />
    <glyph glyph-name="hcircumflex" unicode="&#x125;" horiz-adv-x="573" 
d="M498 0h-88v306q0 110 -102 110q-55 0 -97.5 -44t-42.5 -114v-258h-88v666h86v-264q26 42 71 68t98 26q80 0 121.5 -48t41.5 -132v-316zM-19 720l109 125h67l109 -125h-77l-66 76l-65 -76h-77z" />
    <glyph glyph-name="Hbar" unicode="&#x126;" horiz-adv-x="752" 
d="M202 382h347v124h-347v-124zM202 301v-301h-92v506h-80v68h80v92h92v-92h347v92h93v-92h80v-68h-80v-506h-93v301h-347z" />
    <glyph glyph-name="hbar" unicode="&#x127;" horiz-adv-x="583" 
d="M178 258v-258h-88v533h-70v66h70v67h86v-67h117v-66h-117v-131q26 42 71 68t98 26q80 0 121.5 -48t41.5 -132v-316h-88v306q0 110 -102 110q-55 0 -97.5 -44t-42.5 -114z" />
    <glyph glyph-name="Itilde" unicode="&#x128;" horiz-adv-x="292" 
d="M192 0h-92v666h92v-666zM-18 740q10 50 29 76.5t54 26.5q30 0 86 -27q50 -24 62 -24q4 0 7 1t5.5 3t4.5 3.5t4 5.5t3.5 6.5t3 8t2.5 8t3 9t3 9.5l55 -14q-12 -50 -30 -76.5t-50 -26.5q-23 0 -71 21q-5 2 -24 11t-31 13t-22 4q-16 0 -23 -11.5t-16 -40.5z" />
    <glyph glyph-name="itilde" unicode="&#x129;" horiz-adv-x="248" 
d="M168 0h-88v487h88v-487zM-40 561q10 50 29 76.5t54 26.5q30 0 86 -27q50 -24 62 -24q4 0 7 1t5.5 3t4.5 3.5t4 5.5t3.5 6.5t3 8t2.5 8t3 9t3 9.5l55 -14q-12 -50 -30 -76.5t-50 -26.5q-23 0 -71 21q-5 2 -24 11t-31 13t-22 4q-16 0 -23 -11.5t-16 -40.5z" />
    <glyph glyph-name="Imacron" unicode="&#x12a;" horiz-adv-x="292" 
d="M192 0h-92v666h92v-666zM5 750v64h281v-64h-281z" />
    <glyph glyph-name="imacron" unicode="&#x12b;" horiz-adv-x="248" 
d="M168 0h-88v487h88v-487zM-17 571v64h281v-64h-281z" />
    <glyph glyph-name="Ibreve" unicode="&#x12c;" horiz-adv-x="292" 
d="M192 0h-92v666h92v-666zM10 840h57q0 -31 21.5 -51.5t57.5 -20.5t57.5 20t21.5 52h57q0 -53 -38.5 -85.5t-97.5 -32.5t-97.5 32.5t-38.5 85.5z" />
    <glyph glyph-name="ibreve" unicode="&#x12d;" horiz-adv-x="248" 
d="M168 0h-88v487h88v-487zM-12 661h57q0 -31 21.5 -51.5t57.5 -20.5t57.5 20t21.5 52h57q0 -53 -38.5 -85.5t-97.5 -32.5t-97.5 32.5t-38.5 85.5z" />
    <glyph glyph-name="Iogonek" unicode="&#x12e;" horiz-adv-x="292" 
d="M168 -173q-19 -8 -53 -8q-40 0 -61.5 22.5t-21.5 58.5q0 33 19 60t49 40v666h92v-666h-51q-45 -42 -45 -93q0 -41 36 -41q18 0 30 4z" />
    <glyph glyph-name="iogonek" unicode="&#x12f;" horiz-adv-x="248" 
d="M168 568h-88v107h88v-107zM80 0v487h88v-487h-47q-45 -42 -45 -93q0 -41 36 -41q18 0 30 4l6 -43q-19 -8 -53 -8q-40 0 -61.5 22.5t-21.5 58.5q0 33 19 60t49 40z" />
    <glyph glyph-name="Idotaccent" unicode="&#x130;" horiz-adv-x="292" 
d="M192 0h-92v666h92v-666zM101 733v102h89v-102h-89z" />
    <glyph glyph-name="dotlessi" unicode="&#x131;" horiz-adv-x="248" 
d="M168 0h-88v487h88v-487z" />
    <glyph glyph-name="IJ" unicode="&#x132;" horiz-adv-x="739" 
d="M192 0h-92v666h92v-666zM653 198q0 -91 -51.5 -145t-149.5 -54h-110v74h108q57 0 84.5 34.5t27.5 91.5v390h-200v77h291v-468z" />
    <glyph glyph-name="ij" unicode="&#x133;" horiz-adv-x="499" 
d="M168 0h-88v487h88v-487zM168 568h-88v107h88v-107zM424 -28q0 -74 -37 -112t-102 -38q-40 0 -72 8l5 69q30 -5 55 -5q35 0 49 20t14 62v511h88v-515zM424 568h-88v107h88v-107z" />
    <glyph glyph-name="Jcircumflex" unicode="&#x134;" horiz-adv-x="447" 
d="M361 198q0 -91 -51.5 -145t-149.5 -54h-110v74h108q57 0 84.5 34.5t27.5 91.5v390h-200v77h291v-468zM81 720l109 125h67l109 -125h-77l-66 76l-65 -76h-77z" />
    <glyph glyph-name="jcircumflex" unicode="&#x135;" horiz-adv-x="251" 
d="M176 -28q0 -74 -37 -112t-102 -38q-40 0 -72 8l5 69q30 -5 55 -5q35 0 49 20t14 62v511h88v-515zM-12 541l109 125h67l109 -125h-77l-66 76l-65 -76h-77z" />
    <glyph glyph-name="uni0136" unicode="&#x136;" horiz-adv-x="650" 
d="M640 0h-123l-329 302v-302h-92v666h92v-284l310 284h122l-356 -323zM301 -62h94v-100l-46 -91h-44l37 91h-41v100z" />
    <glyph glyph-name="uni0137" unicode="&#x137;" horiz-adv-x="509" 
d="M501 0h-110l-223 209v-209h-88v666h88v-376l209 197h111l-254 -237zM222 -62h94v-100l-46 -91h-44l37 91h-41v100z" />
    <glyph glyph-name="kgreenlandic" unicode="&#x138;" horiz-adv-x="509" 
d="M501 0h-110l-223 209v-209h-88v487h88v-197l209 197h111l-254 -237z" />
    <glyph glyph-name="Lacute" unicode="&#x139;" horiz-adv-x="553" 
d="M528 0h-432v666h92v-587h340v-79zM109 720l86 125h108l-118 -125h-76z" />
    <glyph glyph-name="lacute" unicode="&#x13a;" horiz-adv-x="309" 
d="M271 -5h-57q-65 0 -102 35.5t-37 108.5v527h87v-522q0 -43 15 -61t50 -18h44v-70zM81 720l86 125h108l-118 -125h-76z" />
    <glyph glyph-name="uni013B" unicode="&#x13b;" horiz-adv-x="553" 
d="M528 0h-432v666h92v-587h340v-79zM272 -62h94v-100l-46 -91h-44l37 91h-41v100z" />
    <glyph glyph-name="uni013C" unicode="&#x13c;" horiz-adv-x="309" 
d="M271 -5h-57q-65 0 -102 35.5t-37 108.5v527h87v-522q0 -43 15 -61t50 -18h44v-70zM119 -62h94v-100l-46 -91h-44l37 91h-41v100z" />
    <glyph glyph-name="Lcaron" unicode="&#x13d;" horiz-adv-x="553" 
d="M528 0h-432v666h92v-587h340v-79zM346 666h95v-103l-43 -93h-45l36 93h-43v103z" />
    <glyph glyph-name="lcaron" unicode="&#x13e;" horiz-adv-x="391" 
d="M271 -5h-57q-65 0 -102 35.5t-37 108.5v527h87v-522q0 -43 15 -61t50 -18h44v-70zM271 666h95v-103l-43 -93h-45l36 93h-43v103z" />
    <glyph glyph-name="Ldot" unicode="&#x13f;" horiz-adv-x="553" 
d="M528 0h-432v666h92v-587h340v-79zM429 256h-104v116h104v-116z" />
    <glyph glyph-name="ldot" unicode="&#x140;" horiz-adv-x="405" 
d="M271 -5h-57q-65 0 -102 35.5t-37 108.5v527h87v-522q0 -43 15 -61t50 -18h44v-70zM385 250h-104v116h104v-116z" />
    <glyph glyph-name="Lslash" unicode="&#x141;" horiz-adv-x="565" 
d="M540 0h-432v270l-88 -46v83l88 46v313h92v-266l186 97v-83l-186 -97v-238h340v-79z" />
    <glyph glyph-name="lslash" unicode="&#x142;" horiz-adv-x="319" 
d="M281 -5h-57q-65 0 -102 35.5t-37 108.5v128l-55 -42v97l55 42v302h87v-235l86 66v-97l-86 -66v-190q0 -43 15 -61t50 -18h44v-70z" />
    <glyph glyph-name="Nacute" unicode="&#x143;" horiz-adv-x="762" 
d="M666 0h-90l-390 526v-526h-90v666h89l391 -526v526h90v-666zM337 720l86 125h108l-118 -125h-76z" />
    <glyph glyph-name="nacute" unicode="&#x144;" horiz-adv-x="574" 
d="M499 0h-88v306q0 110 -103 110q-55 0 -97.5 -44t-42.5 -114v-258h-88v487h87v-85q26 42 70.5 68t97.5 26q80 0 122 -48.5t42 -131.5v-316zM233 541l86 125h108l-118 -125h-76z" />
    <glyph glyph-name="uni0145" unicode="&#x145;" horiz-adv-x="762" 
d="M666 0h-90l-390 526v-526h-90v666h89l391 -526v526h90v-666zM334 -62h94v-100l-46 -91h-44l37 91h-41v100z" />
    <glyph glyph-name="uni0146" unicode="&#x146;" horiz-adv-x="574" 
d="M499 0h-88v306q0 110 -103 110q-55 0 -97.5 -44t-42.5 -114v-258h-88v487h87v-85q26 42 70.5 68t97.5 26q80 0 122 -48.5t42 -131.5v-316zM240 -62h94v-100l-46 -91h-44l37 91h-41v100z" />
    <glyph glyph-name="Ncaron" unicode="&#x147;" horiz-adv-x="762" 
d="M666 0h-90l-390 526v-526h-90v666h89l391 -526v526h90v-666zM239 845h77l65 -76l66 76h77l-109 -125h-67z" />
    <glyph glyph-name="ncaron" unicode="&#x148;" horiz-adv-x="574" 
d="M499 0h-88v306q0 110 -103 110q-55 0 -97.5 -44t-42.5 -114v-258h-88v487h87v-85q26 42 70.5 68t97.5 26q80 0 122 -48.5t42 -131.5v-316zM151 666h77l65 -76l66 76h77l-109 -125h-67z" />
    <glyph glyph-name="napostrophe" unicode="&#x149;" horiz-adv-x="710" 
d="M635 0h-88v306q0 110 -103 110q-55 0 -97.5 -44t-42.5 -114v-258h-88v487h87v-85q26 42 70.5 68t97.5 26q80 0 122 -48.5t42 -131.5v-316zM25 666h95v-103l-43 -93h-45l36 93h-43v103z" />
    <glyph glyph-name="Eng" unicode="&#x14a;" horiz-adv-x="762" 
d="M527 -178q-40 0 -72 8l5 69q30 -5 55 -5q35 0 48 19.5t13 62.5v24l-390 526v-526h-90v666h89l391 -526v526h90v-699q0 -74 -36.5 -109.5t-102.5 -35.5z" />
    <glyph glyph-name="eng" unicode="&#x14b;" horiz-adv-x="574" 
d="M360 -178q-40 0 -72 8l5 69q30 -5 55 -5q35 0 49 20t14 62v330q0 110 -103 110q-55 0 -97.5 -44t-42.5 -114v-258h-88v487h87v-85q26 42 70.5 68t97.5 26q80 0 122 -48.5t42 -131.5v-344q0 -74 -37 -112t-102 -38z" />
    <glyph glyph-name="Omacron" unicode="&#x14c;" horiz-adv-x="746" 
d="M696 332q0 -143 -92 -243t-231 -100t-231 100t-92 243t92 243.5t231 100.5t231 -100.5t92 -243.5zM604 332q0 115 -63.5 189.5t-167.5 74.5t-168 -74.5t-64 -189.5t64 -189t168 -74t167.5 74t63.5 189zM232 750v64h281v-64h-281z" />
    <glyph glyph-name="omacron" unicode="&#x14d;" horiz-adv-x="563" 
d="M518 244q0 -105 -65.5 -178.5t-171.5 -73.5q-105 0 -170.5 73.5t-65.5 178.5t65.5 178.5t170.5 73.5t171 -73.5t66 -178.5zM430 244q0 81 -40.5 130.5t-108.5 49.5t-108 -49.5t-40 -130.5t40 -130.5t108 -49.5t108.5 49.5t40.5 130.5zM141 571v64h281v-64h-281z" />
    <glyph glyph-name="Obreve" unicode="&#x14e;" horiz-adv-x="746" 
d="M696 332q0 -143 -92 -243t-231 -100t-231 100t-92 243t92 243.5t231 100.5t231 -100.5t92 -243.5zM604 332q0 115 -63.5 189.5t-167.5 74.5t-168 -74.5t-64 -189.5t64 -189t168 -74t167.5 74t63.5 189zM237 840h57q0 -31 21.5 -51.5t57.5 -20.5t57.5 20t21.5 52h57
q0 -53 -38.5 -85.5t-97.5 -32.5t-97.5 32.5t-38.5 85.5z" />
    <glyph glyph-name="obreve" unicode="&#x14f;" horiz-adv-x="563" 
d="M518 244q0 -105 -65.5 -178.5t-171.5 -73.5q-105 0 -170.5 73.5t-65.5 178.5t65.5 178.5t170.5 73.5t171 -73.5t66 -178.5zM430 244q0 81 -40.5 130.5t-108.5 49.5t-108 -49.5t-40 -130.5t40 -130.5t108 -49.5t108.5 49.5t40.5 130.5zM146 661h57q0 -31 21.5 -51.5
t57.5 -20.5t57.5 20t21.5 52h57q0 -53 -38.5 -85.5t-97.5 -32.5t-97.5 32.5t-38.5 85.5z" />
    <glyph glyph-name="Ohungarumlaut" unicode="&#x150;" horiz-adv-x="746" 
d="M696 332q0 -143 -92 -243t-231 -100t-231 100t-92 243t92 243.5t231 100.5t231 -100.5t92 -243.5zM604 332q0 115 -63.5 189.5t-167.5 74.5t-168 -74.5t-64 -189.5t64 -189t168 -74t167.5 74t63.5 189zM447 720l83 125h102l-114 -125h-71zM246 720l83 125h101l-113 -125
h-71z" />
    <glyph glyph-name="ohungarumlaut" unicode="&#x151;" horiz-adv-x="563" 
d="M518 244q0 -105 -65.5 -178.5t-171.5 -73.5q-105 0 -170.5 73.5t-65.5 178.5t65.5 178.5t170.5 73.5t171 -73.5t66 -178.5zM430 244q0 81 -40.5 130.5t-108.5 49.5t-108 -49.5t-40 -130.5t40 -130.5t108 -49.5t108.5 49.5t40.5 130.5zM356 541l83 125h102l-114 -125h-71z
M155 541l83 125h101l-113 -125h-71z" />
    <glyph glyph-name="OE" unicode="&#x152;" horiz-adv-x="1024" 
d="M959 587h-369v-203h345v-80h-345v-225h368v-79h-585q-140 0 -231.5 95.5t-91.5 237.5t91.5 237.5t231.5 95.5h586v-79zM499 80v506h-126q-105 0 -168.5 -69.5t-63.5 -183.5t63.5 -183.5t168.5 -69.5h126z" />
    <glyph glyph-name="oe" unicode="&#x153;" horiz-adv-x="925" 
d="M880 216h-363q5 -72 50 -112t125 -40q63 0 145 21l16 -67q-79 -26 -161 -26q-152 0 -220 106q-66 -106 -191 -106q-105 0 -170.5 73.5t-65.5 178.5t65.5 178.5t170.5 73.5q125 0 191 -105q64 105 188 105q103 0 161.5 -71t58.5 -182v-27zM429 244q0 81 -40 130.5
t-108 49.5t-108 -49.5t-40 -130.5t40 -130.5t108 -49.5t108 49.5t40 130.5zM794 279q-5 67 -39.5 106t-94.5 39t-97.5 -39t-44.5 -106h276z" />
    <glyph glyph-name="Racute" unicode="&#x154;" horiz-adv-x="717" 
d="M534 468q0 54 -36.5 88t-89.5 34h-220v-245h220q57 0 91.5 33.5t34.5 89.5zM696 0h-109l-199 271h-200v-271h-92v666h323q93 0 150.5 -58.5t57.5 -139.5q0 -64 -37 -115t-102 -70zM281 720l86 125h108l-118 -125h-76z" />
    <glyph glyph-name="racute" unicode="&#x155;" horiz-adv-x="349" 
d="M334 418q-68 0 -117 -56.5t-49 -126.5v-235h-88v487h87v-97q22 43 68 74t99 31v-77zM179 541l86 125h108l-118 -125h-76z" />
    <glyph glyph-name="uni0156" unicode="&#x156;" horiz-adv-x="717" 
d="M534 468q0 54 -36.5 88t-89.5 34h-220v-245h220q57 0 91.5 33.5t34.5 89.5zM696 0h-109l-199 271h-200v-271h-92v666h323q93 0 150.5 -58.5t57.5 -139.5q0 -64 -37 -115t-102 -70zM312 -62h94v-100l-46 -91h-44l37 91h-41v100z" />
    <glyph glyph-name="uni0157" unicode="&#x157;" horiz-adv-x="349" 
d="M334 418q-68 0 -117 -56.5t-49 -126.5v-235h-88v487h87v-97q22 43 68 74t99 31v-77zM78 -62h94v-100l-46 -91h-44l37 91h-41v100z" />
    <glyph glyph-name="Rcaron" unicode="&#x158;" horiz-adv-x="717" 
d="M534 468q0 54 -36.5 88t-89.5 34h-220v-245h220q57 0 91.5 33.5t34.5 89.5zM696 0h-109l-199 271h-200v-271h-92v666h323q93 0 150.5 -58.5t57.5 -139.5q0 -64 -37 -115t-102 -70zM182 845h77l65 -76l66 76h77l-109 -125h-67z" />
    <glyph glyph-name="rcaron" unicode="&#x159;" horiz-adv-x="349" 
d="M334 418q-68 0 -117 -56.5t-49 -126.5v-235h-88v487h87v-97q22 43 68 74t99 31v-77zM67 666h77l65 -76l66 76h77l-109 -125h-67z" />
    <glyph glyph-name="Sacute" unicode="&#x15a;" horiz-adv-x="634" 
d="M589 170q0 -80 -71 -130.5t-188 -50.5q-136 0 -270 54l20 71q136 -47 248 -47q79 0 124.5 28t45.5 73q0 40 -36 67.5t-148 68.5q-134 50 -182.5 93.5t-48.5 119.5q0 159 253 159q129 0 234 -34l-17 -73q-110 28 -215 28q-90 0 -127 -17.5t-37 -62.5q0 -46 37.5 -72
t163.5 -75q129 -51 171.5 -90.5t42.5 -109.5zM291 720l86 125h108l-118 -125h-76z" />
    <glyph glyph-name="sacute" unicode="&#x15b;" horiz-adv-x="460" 
d="M420 128q0 -62 -52.5 -99t-141.5 -37q-94 0 -186 44l20 65q93 -37 165 -37q109 0 109 63q0 27 -21.5 41.5t-102.5 47.5q-90 37 -121 68.5t-31 86.5q0 62 48.5 93.5t134.5 31.5q82 0 160 -24l-13 -68q-82 20 -144 20q-55 0 -78 -13t-23 -41q0 -27 21.5 -43.5t90.5 -44.5
q100 -40 132.5 -69t32.5 -85zM200 541l86 125h108l-118 -125h-76z" />
    <glyph glyph-name="Scircumflex" unicode="&#x15c;" horiz-adv-x="634" 
d="M589 170q0 -80 -71 -130.5t-188 -50.5q-136 0 -270 54l20 71q136 -47 248 -47q79 0 124.5 28t45.5 73q0 40 -36 67.5t-148 68.5q-134 50 -182.5 93.5t-48.5 119.5q0 159 253 159q129 0 234 -34l-17 -73q-110 28 -215 28q-90 0 -127 -17.5t-37 -62.5q0 -46 37.5 -72
t163.5 -75q129 -51 171.5 -90.5t42.5 -109.5zM178 720l109 125h67l109 -125h-77l-66 76l-65 -76h-77z" />
    <glyph glyph-name="scircumflex" unicode="&#x15d;" horiz-adv-x="460" 
d="M420 128q0 -62 -52.5 -99t-141.5 -37q-94 0 -186 44l20 65q93 -37 165 -37q109 0 109 63q0 27 -21.5 41.5t-102.5 47.5q-90 37 -121 68.5t-31 86.5q0 62 48.5 93.5t134.5 31.5q82 0 160 -24l-13 -68q-82 20 -144 20q-55 0 -78 -13t-23 -41q0 -27 21.5 -43.5t90.5 -44.5
q100 -40 132.5 -69t32.5 -85zM87 541l109 125h67l109 -125h-77l-66 76l-65 -76h-77z" />
    <glyph glyph-name="uni015E" unicode="&#x15e;" horiz-adv-x="634" 
d="M335 -181q-46 0 -77 13l7 37q27 -9 55 -9q45 0 45 29q0 26 -41 26q-27 0 -46 -4l24 79q-121 5 -242 53l20 71q136 -47 248 -47q79 0 124.5 28t45.5 73q0 40 -36 67.5t-148 68.5q-134 50 -182.5 93.5t-48.5 119.5q0 159 253 159q129 0 234 -34l-17 -73q-110 28 -215 28
q-90 0 -127 -17.5t-37 -62.5q0 -46 37.5 -72t163.5 -75q129 -51 171.5 -90.5t42.5 -109.5q0 -79 -68 -129t-181 -52l-11 -38q9 3 26 3q33 0 52 -17t19 -48q0 -33 -25.5 -51.5t-65.5 -18.5z" />
    <glyph glyph-name="uni015F" unicode="&#x15f;" horiz-adv-x="460" 
d="M238 -181q-46 0 -77 13l7 37q27 -9 55 -9q45 0 45 29q0 26 -41 26q-27 0 -46 -4l25 82q-86 5 -166 43l20 65q93 -37 165 -37q109 0 109 63q0 27 -21.5 41.5t-102.5 47.5q-90 37 -121 68.5t-31 86.5q0 62 48.5 93.5t134.5 31.5q82 0 160 -24l-13 -68q-82 20 -144 20
q-55 0 -78 -13t-23 -41q0 -27 21.5 -43.5t90.5 -44.5q100 -40 132.5 -69t32.5 -85q0 -58 -47.5 -94.5t-128.5 -41.5l-12 -41q9 3 26 3q33 0 52 -17t19 -48q0 -33 -25.5 -51.5t-65.5 -18.5z" />
    <glyph glyph-name="Scaron" unicode="&#x160;" horiz-adv-x="634" 
d="M589 170q0 -80 -71 -130.5t-188 -50.5q-136 0 -270 54l20 71q136 -47 248 -47q79 0 124.5 28t45.5 73q0 40 -36 67.5t-148 68.5q-134 50 -182.5 93.5t-48.5 119.5q0 159 253 159q129 0 234 -34l-17 -73q-110 28 -215 28q-90 0 -127 -17.5t-37 -62.5q0 -46 37.5 -72
t163.5 -75q129 -51 171.5 -90.5t42.5 -109.5zM179 845h77l65 -76l66 76h77l-109 -125h-67z" />
    <glyph glyph-name="scaron" unicode="&#x161;" horiz-adv-x="460" 
d="M420 128q0 -62 -52.5 -99t-141.5 -37q-94 0 -186 44l20 65q93 -37 165 -37q109 0 109 63q0 27 -21.5 41.5t-102.5 47.5q-90 37 -121 68.5t-31 86.5q0 62 48.5 93.5t134.5 31.5q82 0 160 -24l-13 -68q-82 20 -144 20q-55 0 -78 -13t-23 -41q0 -27 21.5 -43.5t90.5 -44.5
q100 -40 132.5 -69t32.5 -85zM88 666h77l65 -76l66 76h77l-109 -125h-67z" />
    <glyph glyph-name="Tcommaaccent" unicode="&#x162;" horiz-adv-x="566" 
d="M554 586h-225v-586h-91v586h-226v80h542v-80zM236 -62h94v-100l-46 -91h-44l37 91h-41v100z" />
    <glyph glyph-name="tcommaaccent" unicode="&#x163;" horiz-adv-x="331" 
d="M296 1q-32 -9 -68 -9q-132 0 -132 142v287h-66v66h66v138h88v-138h95v-66h-95v-285q0 -42 14 -58.5t42 -16.5q20 0 47 5zM137 -62h94v-100l-46 -91h-44l37 91h-41v100z" />
    <glyph glyph-name="Tcaron" unicode="&#x164;" horiz-adv-x="566" 
d="M554 586h-225v-586h-91v586h-226v80h542v-80zM141 845h77l65 -76l66 76h77l-109 -125h-67z" />
    <glyph glyph-name="tcaron" unicode="&#x165;" horiz-adv-x="369" 
d="M296 1q-32 -9 -68 -9q-132 0 -132 142v287h-66v66h66v138h88v-138h95v-66h-95v-285q0 -42 14 -58.5t42 -16.5q20 0 47 5zM274 711h95v-87l-45 -80h-45l38 80h-43v87z" />
    <glyph glyph-name="Tbar" unicode="&#x166;" horiz-adv-x="566" 
d="M451 277h-122v-277h-91v277h-122v72h122v237h-226v80h542v-80h-225v-237h122v-72z" />
    <glyph glyph-name="tbar" unicode="&#x167;" horiz-adv-x="331" 
d="M296 1q-32 -9 -68 -9q-132 0 -132 142v91h-66v66h66v130h-66v66h66v138h88v-138h95v-66h-95v-130h95v-66h-95v-89q0 -42 14 -58.5t42 -16.5q20 0 47 5z" />
    <glyph glyph-name="Utilde" unicode="&#x168;" 
d="M638 248q0 -107 -75.5 -183t-200.5 -76t-200.5 76t-75.5 183v418h93v-420q0 -82 51 -129t132 -47t132.5 48.5t51.5 127.5v420h92v-418zM198 740q10 50 29 76.5t54 26.5q30 0 86 -27q50 -24 62 -24q4 0 7 1t5.5 3t4.5 3.5t4 5.5t3.5 6.5t3 8t2.5 8t3 9t3 9.5l55 -14
q-12 -50 -30 -76.5t-50 -26.5q-23 0 -71 21q-5 2 -24 11t-31 13t-22 4q-16 0 -23 -11.5t-16 -40.5z" />
    <glyph glyph-name="utilde" unicode="&#x169;" horiz-adv-x="570" 
d="M490 0h-87v85q-26 -42 -70.5 -67.5t-97.5 -25.5q-81 0 -123 48t-42 131v316h89v-305q0 -110 103 -110q55 0 97.5 44t42.5 113v258h88v-487zM121 561q10 50 29 76.5t54 26.5q30 0 86 -27q50 -24 62 -24q4 0 7 1t5.5 3t4.5 3.5t4 5.5t3.5 6.5t3 8t2.5 8t3 9t3 9.5l55 -14
q-12 -50 -30 -76.5t-50 -26.5q-23 0 -71 21q-5 2 -24 11t-31 13t-22 4q-16 0 -23 -11.5t-16 -40.5z" />
    <glyph glyph-name="Umacron" unicode="&#x16a;" 
d="M638 248q0 -107 -75.5 -183t-200.5 -76t-200.5 76t-75.5 183v418h93v-420q0 -82 51 -129t132 -47t132.5 48.5t51.5 127.5v420h92v-418zM221 750v64h281v-64h-281z" />
    <glyph glyph-name="umacron" unicode="&#x16b;" horiz-adv-x="570" 
d="M490 0h-87v85q-26 -42 -70.5 -67.5t-97.5 -25.5q-81 0 -123 48t-42 131v316h89v-305q0 -110 103 -110q55 0 97.5 44t42.5 113v258h88v-487zM144 571v64h281v-64h-281z" />
    <glyph glyph-name="Ubreve" unicode="&#x16c;" 
d="M638 248q0 -107 -75.5 -183t-200.5 -76t-200.5 76t-75.5 183v418h93v-420q0 -82 51 -129t132 -47t132.5 48.5t51.5 127.5v420h92v-418zM226 840h57q0 -31 21.5 -51.5t57.5 -20.5t57.5 20t21.5 52h57q0 -53 -38.5 -85.5t-97.5 -32.5t-97.5 32.5t-38.5 85.5z" />
    <glyph glyph-name="ubreve" unicode="&#x16d;" horiz-adv-x="570" 
d="M490 0h-87v85q-26 -42 -70.5 -67.5t-97.5 -25.5q-81 0 -123 48t-42 131v316h89v-305q0 -110 103 -110q55 0 97.5 44t42.5 113v258h88v-487zM149 661h57q0 -31 21.5 -51.5t57.5 -20.5t57.5 20t21.5 52h57q0 -53 -38.5 -85.5t-97.5 -32.5t-97.5 32.5t-38.5 85.5z" />
    <glyph glyph-name="Uring" unicode="&#x16e;" 
d="M638 248q0 -107 -75.5 -183t-200.5 -76t-200.5 76t-75.5 183v418h93v-420q0 -82 51 -129t132 -47t132.5 48.5t51.5 127.5v420h92v-418zM362 720q-36 0 -59.5 22t-23.5 54q0 33 23.5 55.5t59.5 22.5t59 -22.5t23 -55.5q0 -32 -23 -54t-59 -22zM362 753q20 0 32.5 12.5
t12.5 30.5q0 19 -12.5 32.5t-32.5 13.5q-21 0 -33 -13t-12 -33q0 -18 12 -30.5t33 -12.5z" />
    <glyph glyph-name="uring" unicode="&#x16f;" horiz-adv-x="570" 
d="M490 0h-87v85q-26 -42 -70.5 -67.5t-97.5 -25.5q-81 0 -123 48t-42 131v316h89v-305q0 -110 103 -110q55 0 97.5 44t42.5 113v258h88v-487zM285 541q-36 0 -59.5 22t-23.5 54q0 33 23.5 55.5t59.5 22.5t59 -22.5t23 -55.5q0 -32 -23 -54t-59 -22zM285 574q20 0 32.5 12.5
t12.5 30.5q0 19 -12.5 32.5t-32.5 13.5q-21 0 -33 -13t-12 -33q0 -18 12 -30.5t33 -12.5z" />
    <glyph glyph-name="Uhungarumlaut" unicode="&#x170;" 
d="M638 248q0 -107 -75.5 -183t-200.5 -76t-200.5 76t-75.5 183v418h93v-420q0 -82 51 -129t132 -47t132.5 48.5t51.5 127.5v420h92v-418zM425 720l83 125h102l-114 -125h-71zM224 720l83 125h101l-113 -125h-71z" />
    <glyph glyph-name="uhungarumlaut" unicode="&#x171;" horiz-adv-x="570" 
d="M490 0h-87v85q-26 -42 -70.5 -67.5t-97.5 -25.5q-81 0 -123 48t-42 131v316h89v-305q0 -110 103 -110q55 0 97.5 44t42.5 113v258h88v-487zM350 541l83 125h102l-114 -125h-71zM149 541l83 125h101l-113 -125h-71z" />
    <glyph glyph-name="Uogonek" unicode="&#x172;" 
d="M446 -181q-45 0 -69 21t-24 57q0 29 20.5 56.5t49.5 40.5q-32 -5 -61 -5q-125 0 -200.5 76t-75.5 183v418h93v-420q0 -82 51 -129t132 -47t132.5 48.5t51.5 127.5v420h92v-418q0 -137 -133 -225q-88 -58 -88 -115q0 -42 45 -42q17 0 32 5l6 -42q-20 -10 -54 -10z" />
    <glyph glyph-name="uogonek" unicode="&#x173;" horiz-adv-x="570" 
d="M403 0v85q-26 -42 -70.5 -67.5t-97.5 -25.5q-81 0 -123 48t-42 131v316h89v-305q0 -110 103 -110q55 0 97.5 44t42.5 113v258h88v-487h-46q-56 -43 -56 -92q0 -42 45 -42q17 0 32 5l6 -42q-20 -10 -54 -10q-45 0 -69 22.5t-24 58.5q0 33 22.5 60t56.5 40z" />
    <glyph glyph-name="Wcircumflex" unicode="&#x174;" horiz-adv-x="858" 
d="M848 666l-183 -666h-74l-163 526l-162 -526h-74l-182 666h91l135 -504l156 504h73l156 -504l135 504h92zM286 720l109 125h67l109 -125h-77l-66 76l-65 -76h-77z" />
    <glyph glyph-name="wcircumflex" unicode="&#x175;" horiz-adv-x="690" 
d="M685 487l-149 -487h-84l-107 374l-108 -374h-83l-149 487h83l110 -379l107 379h79l108 -375l110 375h83zM202 541l109 125h67l109 -125h-77l-66 76l-65 -76h-77z" />
    <glyph glyph-name="Ycircumflex" unicode="&#x176;" horiz-adv-x="591" 
d="M596 666l-254 -398v-268h-92v268l-255 398h95l206 -316l205 316h95zM153 720l109 125h67l109 -125h-77l-66 76l-65 -76h-77z" />
    <glyph glyph-name="ycircumflex" unicode="&#x177;" horiz-adv-x="469" 
d="M464 487l-252 -656h-85l66 169l-193 487h87l146 -392l145 392h86zM92 541l109 125h67l109 -125h-77l-66 76l-65 -76h-77z" />
    <glyph glyph-name="Ydieresis" unicode="&#x178;" horiz-adv-x="591" 
d="M596 666l-254 -398v-268h-92v268l-255 398h95l206 -316l205 316h95zM351 735v94h83v-94h-83zM157 735v94h83v-94h-83z" />
    <glyph glyph-name="Zacute" unicode="&#x179;" horiz-adv-x="642" 
d="M597 0h-542v81l427 506h-414v79h523v-80l-426 -507h432v-79zM281 720l86 125h108l-118 -125h-76z" />
    <glyph glyph-name="zacute" unicode="&#x17a;" horiz-adv-x="518" 
d="M463 0h-413v71l300 345h-278v71h384v-70l-301 -346h308v-71zM217 541l86 125h108l-118 -125h-76z" />
    <glyph glyph-name="Zdotaccent" unicode="&#x17b;" horiz-adv-x="642" 
d="M597 0h-542v81l427 506h-414v79h523v-80l-426 -507h432v-79zM276 733v102h89v-102h-89z" />
    <glyph glyph-name="zdotaccent" unicode="&#x17c;" horiz-adv-x="518" 
d="M463 0h-413v71l300 345h-278v71h384v-70l-301 -346h308v-71zM214 554v102h89v-102h-89z" />
    <glyph glyph-name="Zcaron" unicode="&#x17d;" horiz-adv-x="642" 
d="M597 0h-542v81l427 506h-414v79h523v-80l-426 -507h432v-79zM179 845h77l65 -76l66 76h77l-109 -125h-67z" />
    <glyph glyph-name="zcaron" unicode="&#x17e;" horiz-adv-x="518" 
d="M463 0h-413v71l300 345h-278v71h384v-70l-301 -346h308v-71zM117 666h77l65 -76l66 76h77l-109 -125h-67z" />
    <glyph glyph-name="uni0192" unicode="&#x192;" horiz-adv-x="460" 
d="M460 680l-22 -67q-32 7 -60 7q-72 0 -86 -88l-8 -49h104l-12 -64h-103l-77 -433q-15 -85 -62.5 -124t-113.5 -39q-35 0 -65 10l23 64q27 -6 43 -6q70 0 86 88l77 440h-71l12 64h71l7 45q13 84 61.5 123.5t115.5 39.5q39 0 80 -11z" />
    <glyph glyph-name="Aringacute" unicode="&#x1fa;" horiz-adv-x="641" 
d="M321 666q20 0 32.5 12.5t12.5 30.5q0 19 -12.5 32.5t-32.5 13.5q-21 0 -33 -13t-12 -33q0 -18 12 -30.5t33 -12.5zM444 240l-123 326l-124 -326h247zM172 169l-67 -169h-91l260 646q-36 21 -36 63q0 33 23.5 55.5t59.5 22.5t59 -22.5t23 -55.5q0 -42 -36 -64l260 -645
h-91l-66 169h-298zM291 813l53 78h108l-85 -78h-76z" />
    <glyph glyph-name="aringacute" unicode="&#x1fb;" horiz-adv-x="505" 
d="M227 725l53 78h108l-85 -78h-76zM257 538q-36 0 -59.5 22t-23.5 54q0 33 23.5 55.5t59.5 22.5t59 -22.5t23 -55.5q0 -32 -23 -54t-59 -22zM257 571q20 0 32.5 12.5t12.5 30.5q0 19 -12.5 32.5t-32.5 13.5q-21 0 -33 -13t-12 -33q0 -18 12 -30.5t33 -12.5zM445 0h-86v58
q-48 -66 -152 -66q-75 0 -119.5 38t-44.5 106q0 67 41 103.5t117 36.5h156v49q0 49 -29.5 73.5t-100.5 24.5q-80 0 -149 -13l-9 68q76 18 164 18q103 0 157.5 -44.5t54.5 -125.5v-326zM357 183v28h-135q-47 0 -69 -18.5t-22 -58.5q0 -74 92 -74q62 0 98 33.5t36 89.5z" />
    <glyph glyph-name="AEacute" unicode="&#x1fc;" horiz-adv-x="867" 
d="M408 240l-86 326l-124 -326h210zM802 0h-331l-45 168h-254l-66 -168h-92l269 666h519v-79h-407l59 -203h320v-79h-299l64 -226h263v-79zM308 720l86 125h108l-118 -125h-76z" />
    <glyph glyph-name="aeacute" unicode="&#x1fd;" horiz-adv-x="853" 
d="M808 216h-364q5 -72 50 -112t125 -40q62 0 144 21l17 -67q-79 -26 -161 -26q-141 0 -212 95q-27 -45 -74 -70t-108 -25q-82 0 -132 39.5t-50 107.5q0 67 41 103t117 36h155v47q0 49 -29 73.5t-100 24.5q-67 0 -149 -13l-9 68q80 18 164 18q136 0 184 -80q65 80 170 80
q103 0 162 -71t59 -182v-27zM721 279q-5 67 -39.5 106t-94.5 39t-98 -39t-45 -106h277zM356 184v29h-134q-47 0 -68.5 -18.5t-21.5 -58.5q0 -76 91 -76q65 0 99 33t34 91zM386 541l86 125h108l-118 -125h-76z" />
    <glyph glyph-name="Oslashacute" unicode="&#x1fe;" horiz-adv-x="746" 
d="M696 333q0 -143 -92 -243.5t-231 -100.5q-125 0 -214 83l-78 -83l-31 30l79 84q-79 96 -79 230q0 143 92 243t231 100q125 0 214 -83l78 82l31 -29l-79 -85q79 -96 79 -228zM530 532q-64 64 -157 64q-104 0 -168 -74t-64 -189q0 -96 48 -168zM604 333q0 96 -47 166
l-341 -366q64 -64 157 -64q104 0 167.5 74.5t63.5 189.5zM343 720l86 125h108l-118 -125h-76z" />
    <glyph glyph-name="oslashacute" unicode="&#x1ff;" horiz-adv-x="563" 
d="M518 244q0 -105 -65.5 -178.5t-171.5 -73.5q-91 0 -155 58l-55 -58l-26 24l56 61q-56 70 -56 167q0 105 65.5 178.5t170.5 73.5q90 0 156 -59l55 59l26 -24l-56 -61q56 -70 56 -167zM429 244q0 62 -25 107l-225 -244q40 -43 102 -43q68 0 108 49.5t40 130.5zM383 381
q-39 42 -102 42q-68 0 -108 -49t-40 -130q0 -62 25 -107zM252 541l86 125h108l-118 -125h-76z" />
    <glyph glyph-name="uni0218" unicode="&#x218;" horiz-adv-x="634" 
d="M589 170q0 -80 -71 -130.5t-188 -50.5q-136 0 -270 54l20 71q136 -47 248 -47q79 0 124.5 28t45.5 73q0 40 -36 67.5t-148 68.5q-134 50 -182.5 93.5t-48.5 119.5q0 159 253 159q129 0 234 -34l-17 -73q-110 28 -215 28q-90 0 -127 -17.5t-37 -62.5q0 -46 37.5 -72
t163.5 -75q129 -51 171.5 -90.5t42.5 -109.5zM280 -62h94v-100l-46 -91h-44l37 91h-41v100z" />
    <glyph glyph-name="uni0219" unicode="&#x219;" horiz-adv-x="460" 
d="M420 128q0 -62 -52.5 -99t-141.5 -37q-94 0 -186 44l20 65q93 -37 165 -37q109 0 109 63q0 27 -21.5 41.5t-102.5 47.5q-90 37 -121 68.5t-31 86.5q0 62 48.5 93.5t134.5 31.5q82 0 160 -24l-13 -68q-82 20 -144 20q-55 0 -78 -13t-23 -41q0 -27 21.5 -43.5t90.5 -44.5
q100 -40 132.5 -69t32.5 -85zM183 -62h94v-100l-46 -91h-44l37 91h-41v100z" />
    <glyph glyph-name="circumflex" unicode="&#x2c6;" horiz-adv-x="423" 
d="M69 541l109 125h67l109 -125h-77l-66 76l-65 -76h-77z" />
    <glyph glyph-name="caron" unicode="&#x2c7;" horiz-adv-x="423" 
d="M69 666h77l65 -76l66 76h77l-109 -125h-67z" />
    <glyph glyph-name="breve" unicode="&#x2d8;" horiz-adv-x="406" 
d="M67 661h57q0 -31 21.5 -51.5t57.5 -20.5t57.5 20t21.5 52h57q0 -53 -38.5 -85.5t-97.5 -32.5t-97.5 32.5t-38.5 85.5z" />
    <glyph glyph-name="dotaccent" unicode="&#x2d9;" horiz-adv-x="227" 
d="M69 554v102h89v-102h-89z" />
    <glyph glyph-name="ring" unicode="&#x2da;" horiz-adv-x="303" 
d="M152 541q-36 0 -59.5 22t-23.5 54q0 33 23.5 55.5t59.5 22.5t59 -22.5t23 -55.5q0 -32 -23 -54t-59 -22zM152 574q20 0 32.5 12.5t12.5 30.5q0 19 -12.5 32.5t-32.5 13.5q-21 0 -33 -13t-12 -33q0 -18 12 -30.5t33 -12.5z" />
    <glyph glyph-name="ogonek" unicode="&#x2db;" horiz-adv-x="285" 
d="M148 0h41q-56 -43 -56 -92q0 -42 45 -42q17 0 32 5l6 -42q-20 -10 -54 -10q-45 0 -69 22.5t-24 58.5q0 33 22.5 60t56.5 40z" />
    <glyph glyph-name="tilde" unicode="&#x2dc;" horiz-adv-x="460" 
d="M69 561q10 50 29 76.5t54 26.5q30 0 86 -27q50 -24 62 -24q4 0 7 1t5.5 3t4.5 3.5t4 5.5t3.5 6.5t3 8t2.5 8t3 9t3 9.5l55 -14q-12 -50 -30 -76.5t-50 -26.5q-23 0 -71 21q-5 2 -24 11t-31 13t-22 4q-16 0 -23 -11.5t-16 -40.5z" />
    <glyph glyph-name="hungarumlaut" unicode="&#x2dd;" horiz-adv-x="524" 
d="M270 541l83 125h102l-114 -125h-71zM69 541l83 125h101l-113 -125h-71z" />
    <glyph glyph-name="uni0312" unicode="&#x312;" horiz-adv-x="332" 
d="M69 541l118 125h76l-85 -125h-109z" />
    <glyph glyph-name="uni0315" unicode="&#x315;" horiz-adv-x="233" 
d="M69 666h95v-103l-43 -93h-45l36 93h-43v103z" />
    <glyph glyph-name="uni0326" unicode="&#x326;" horiz-adv-x="232" 
d="M69 -62h94v-100l-46 -91h-44l37 91h-41v100z" />
    <glyph glyph-name="uni03A9" unicode="&#x3a9;" horiz-adv-x="611" 
d="M556 247l-42 -42l-361 362v-256h-58v355h355v-58h-256z" />
    <glyph glyph-name="pi" unicode="&#x3c0;" horiz-adv-x="611" 
d="M516 0h-355v58h256l-362 361l42 42l362 -362v256h57v-355z" />
    <glyph glyph-name="Wgrave" unicode="&#x1e80;" horiz-adv-x="858" 
d="M848 666l-183 -666h-74l-163 526l-162 -526h-74l-182 666h91l135 -504l156 504h73l156 -504l135 504h92zM380 720l-120 125h109l87 -125h-76z" />
    <glyph glyph-name="wgrave" unicode="&#x1e81;" horiz-adv-x="690" 
d="M685 487l-149 -487h-84l-107 374l-108 -374h-83l-149 487h83l110 -379l107 379h79l108 -375l110 375h83zM296 541l-120 125h109l87 -125h-76z" />
    <glyph glyph-name="Wacute" unicode="&#x1e82;" horiz-adv-x="858" 
d="M848 666l-183 -666h-74l-163 526l-162 -526h-74l-182 666h91l135 -504l156 504h73l156 -504l135 504h92zM399 720l86 125h108l-118 -125h-76z" />
    <glyph glyph-name="wacute" unicode="&#x1e83;" horiz-adv-x="690" 
d="M685 487l-149 -487h-84l-107 374l-108 -374h-83l-149 487h83l110 -379l107 379h79l108 -375l110 375h83zM315 541l86 125h108l-118 -125h-76z" />
    <glyph glyph-name="Wdieresis" unicode="&#x1e84;" horiz-adv-x="858" 
d="M848 666l-183 -666h-74l-163 526l-162 -526h-74l-182 666h91l135 -504l156 504h73l156 -504l135 504h92zM484 735v94h83v-94h-83zM290 735v94h83v-94h-83z" />
    <glyph glyph-name="wdieresis" unicode="&#x1e85;" horiz-adv-x="690" 
d="M685 487l-149 -487h-84l-107 374l-108 -374h-83l-149 487h83l110 -379l107 379h79l108 -375l110 375h83zM400 556v94h83v-94h-83zM206 556v94h83v-94h-83z" />
    <glyph glyph-name="Ygrave" unicode="&#x1ef2;" horiz-adv-x="591" 
d="M596 666l-254 -398v-268h-92v268l-255 398h95l206 -316l205 316h95zM252 720l-120 125h109l87 -125h-76z" />
    <glyph glyph-name="ygrave" unicode="&#x1ef3;" horiz-adv-x="469" 
d="M464 487l-252 -656h-85l66 169l-193 487h87l146 -392l145 392h86zM196 541l-120 125h109l87 -125h-76z" />
    <glyph glyph-name="endash" unicode="&#x2013;" horiz-adv-x="551" 
d="M501 237h-451v77h451v-77z" />
    <glyph glyph-name="emdash" unicode="&#x2014;" horiz-adv-x="777" 
d="M727 237h-677v77h677v-77z" />
    <glyph glyph-name="quoteleft" unicode="&#x2018;" horiz-adv-x="249" 
d="M184 423h-104v116l52 127h45l-47 -127h54v-116z" />
    <glyph glyph-name="quoteright" unicode="&#x2019;" horiz-adv-x="249" 
d="M169 550l-52 -127h-45l47 127h-54v116h104v-116z" />
    <glyph glyph-name="quotesinglbase" unicode="&#x201a;" horiz-adv-x="254" 
d="M174 0l-52 -127h-44l46 127h-54v116h104v-116z" />
    <glyph glyph-name="quotedblleft" unicode="&#x201c;" horiz-adv-x="432" 
d="M367 423h-104v116l51 127h46l-47 -127h54v-116zM184 423h-104v116l52 127h45l-47 -127h54v-116z" />
    <glyph glyph-name="quotedblright" unicode="&#x201d;" horiz-adv-x="431" 
d="M169 550l-52 -127h-45l46 127h-53v116h104v-116zM351 550l-52 -127h-45l47 127h-53v116h103v-116z" />
    <glyph glyph-name="quotedblbase" unicode="&#x201e;" horiz-adv-x="436" 
d="M174 0l-52 -127h-45l46 127h-53v116h104v-116zM356 0l-52 -127h-44l46 127h-53v116h103v-116z" />
    <glyph glyph-name="dagger" unicode="&#x2020;" horiz-adv-x="467" 
d="M422 430l-175 30l33 -188l-41 -405h-13l-40 405l33 188l-174 -30v89l174 -30l-31 177h90l-31 -177l175 30v-89z" />
    <glyph glyph-name="daggerdbl" unicode="&#x2021;" horiz-adv-x="468" 
d="M423 430l-174 30l32 -217l-33 -217l174 31v-89l-174 30l31 -177h-90l31 177l-175 -30v89l175 -31l-33 217l33 217l-174 -30v89l174 -31l-31 178h90l-30 -178l174 31v-89z" />
    <glyph glyph-name="bullet" unicode="&#x2022;" horiz-adv-x="317" 
d="M267 357q0 -45 -32 -77t-77 -32t-76.5 32t-31.5 77t31.5 76.5t76.5 31.5t77 -31.5t32 -76.5z" />
    <glyph glyph-name="ellipsis" unicode="&#x2026;" horiz-adv-x="789" 
d="M709 0h-104v116h104v-116zM184 0h-104v116h104v-116zM446 0h-103v116h103v-116z" />
    <glyph glyph-name="perthousand" unicode="&#x2030;" horiz-adv-x="1234" 
d="M789 163q0 -70 -43.5 -122t-114.5 -52t-114 51.5t-43 122.5t43 122.5t114 51.5t114.5 -52t43.5 -122zM360 502q0 -71 -42.5 -122.5t-113.5 -51.5t-115 52t-44 122t44 122t115 52t113.5 -51.5t42.5 -122.5zM1174 163q0 -71 -43 -122.5t-114 -51.5t-114 51.5t-43 122.5
t43 122.5t114 51.5t114 -51.5t43 -122.5zM630 666l-359 -666h-67l360 666h66zM1111 163q0 49 -24.5 84t-69.5 35t-69.5 -35t-24.5 -84t24.5 -84.5t69.5 -35.5t69.5 35.5t24.5 84.5zM297 502q0 49 -24 84t-69 35t-70 -35t-25 -84t25 -84t70 -35t69 35t24 84zM725 163
q0 49 -24.5 84t-69.5 35t-69 -35t-24 -84t24 -84.5t69 -35.5t69.5 35.5t24.5 84.5z" />
    <glyph glyph-name="guilsinglleft" unicode="&#x2039;" horiz-adv-x="385" 
d="M300 39l-41 -39l-229 244l229 243l41 -39l-191 -204z" />
    <glyph glyph-name="guilsinglright" unicode="&#x203a;" horiz-adv-x="386" 
d="M356 244l-229 -244l-42 39l192 205l-192 204l42 39z" />
    <glyph glyph-name="fraction" unicode="&#x2044;" horiz-adv-x="412" 
d="M422 666l-395 -666h-37l396 666h36z" />
    <glyph glyph-name="Euro" unicode="&#x20ac;" horiz-adv-x="719" 
d="M659 15q-86 -26 -172 -26q-132 0 -228 70t-127 181h-107v49h97q-3 21 -3 43q0 21 3 42h-97v48h106q31 113 127 183.5t229 70.5q97 0 172 -25l-16 -75q-85 20 -150 20q-101 0 -171.5 -46.5t-96.5 -127.5h198v-48h-209q-3 -19 -3 -42q0 -22 3 -43h209v-49h-197
q27 -79 97 -125t170 -46q70 0 150 20z" />
    <glyph glyph-name="trademark" unicode="&#x2122;" horiz-adv-x="689" 
d="M644 361h-40v229l-96 -183h-24l-97 183v-229h-40v305h39l109 -206l109 206h40v-305zM282 629h-105v-268h-42v268h-105v37h252v-37z" />
    <glyph glyph-name="partialdiff" unicode="&#x2202;" horiz-adv-x="582" 
d="M542 425l-41 -41l-180 181v-511h-59v511l-181 -181l-41 41l251 251z" />
    <glyph glyph-name="Delta" unicode="&#x2206;" horiz-adv-x="582" 
d="M542 240l-251 -251l-251 251l41 41l181 -181v511h59v-511l180 181z" />
    <glyph glyph-name="product" unicode="&#x220f;" horiz-adv-x="611" 
d="M556 419l-362 -361h256v-58h-355v355h58v-256l361 362z" />
    <glyph glyph-name="summation" unicode="&#x2211;" horiz-adv-x="611" 
d="M556 419l-362 -361h256v-58h-355v355h58v-256l361 362z" />
    <glyph glyph-name="minus" unicode="&#x2212;" horiz-adv-x="355" 
d="M305 237h-255v77h255v-77z" />
    <glyph glyph-name="radical" unicode="&#x221a;" horiz-adv-x="745" 
d="M699 317l-252 -250l-40 40l181 181h-512v59h512l-181 180l40 41z" />
    <glyph glyph-name="infinity" unicode="&#x221e;" horiz-adv-x="743" 
d="M668 288h-512l181 -181l-40 -40l-252 250l252 251l40 -41l-181 -180h512v-59z" />
    <glyph glyph-name="integral" unicode="&#x222b;" horiz-adv-x="611" 
d="M516 0h-355v58h256l-362 361l42 42l362 -362v256h57v-355z" />
    <glyph glyph-name="approxequal" unicode="&#x2248;" horiz-adv-x="611" 
d="M516 311h-58v256l-361 -362l-42 42l362 361h-255v58h354v-355z" />
    <glyph glyph-name="notequal" unicode="&#x2260;" horiz-adv-x="876" 
d="M786 333h-333v-333h-333v666h666v-333z" />
    <glyph glyph-name="lessequal" unicode="&#x2264;" horiz-adv-x="743" 
d="M668 288h-512l181 -181l-40 -40l-252 250l252 251l40 -41l-181 -180h512v-59z" />
    <glyph glyph-name="greaterequal" unicode="&#x2265;" horiz-adv-x="743" 
d="M698 317l-252 -250l-40 40l181 181h-512v59h512l-181 180l40 41z" />
    <glyph glyph-name="lozenge" unicode="&#x25ca;" horiz-adv-x="743" 
d="M698 317l-252 -250l-40 40l181 181h-512v59h512l-181 180l40 41z" />
    <glyph glyph-name="apple" horiz-adv-x="876" 
d="M786 333h-333v-333h-333v666h666v-333z" />
    <glyph glyph-name="nbspace" horiz-adv-x="220" 
 />
    <glyph glyph-name="i.dot" horiz-adv-x="248" 
d="M168 0h-88v487h88v-487zM79 554v102h89v-102h-89z" />
    </font>
</defs>
</svg>
